<svg xmlns="http://www.w3.org/2000/svg" xmlns:xlink="http://www.w3.org/1999/xlink" width="214" height="214" fill="none" xmlns:v="https://vecta.io/nano"><g clip-path="url(#A)"><path d="M212.769 107.009c0 58.409-47.351 105.76-105.76 105.76S1.249 165.418 1.249 107.009s47.35-105.76 105.76-105.76 105.76 47.35 105.76 105.76z" fill="#d0eb4c" stroke="#000" stroke-width="2.498"/><g fill="#000"><path d="M118.268 31.84c-1.368-.178-2.611-.586-3.73-1.225-1.101-.639-2.042-1.456-2.805-2.451s-1.332-2.131-1.67-3.392-.408-2.628-.23-4.067c.177-1.403.586-2.681 1.207-3.8s1.421-2.095 2.397-2.877a9.36 9.36 0 0 1 3.286-1.705c1.225-.337 2.521-.426 3.906-.249 1.634.213 3.055.693 4.227 1.474a8.96 8.96 0 0 1 2.841 2.877c.71 1.154 1.172 2.397 1.403 3.782l-3.374-.426a5.97 5.97 0 0 0-.87-2.344c-.462-.728-1.066-1.314-1.847-1.811-.764-.479-1.705-.799-2.788-.941-1.243-.16-2.397 0-3.463.479-1.048.479-1.918 1.225-2.61 2.237s-1.119 2.273-1.314 3.765c-.178 1.385-.071 2.682.337 3.854s1.066 2.166 2.007 2.948 2.095 1.261 3.516 1.438c1.154.142 2.202.053 3.143-.284a5.62 5.62 0 0 0 2.362-1.634c.64-.746 1.136-1.652 1.438-2.699l-6.553-.835.302-2.326 9.625 1.225c-.16 1.527-.533 2.877-1.136 4.067s-1.368 2.202-2.327 3.001a8.65 8.65 0 0 1-3.267 1.723c-1.243.337-2.575.408-4.013.231v-.035zm22.96 6.002l-10.868-4.013 6.624-17.935 2.752 1.012-5.718 15.467 8.116 3.001-.906 2.468zm5.097 2.895l-2.575-1.385 9.057-16.834 2.574 1.385-9.074 16.835h.018zm10.529 7.12l4.671-15.112-9.341 11.258-2.078-1.722 12.2-14.721 2.77 2.291-4.972 16.053 14.828-7.885 2.788 2.309-12.2 14.721-2.095-1.74 9.358-11.276-14.028 7.405-1.918-1.598.017.018zm15.876 17.244l8.95-13.052-12.253 7.991-1.474-2.255 16.018-10.442 1.971 3.019-9.501 13.851 16.497-3.125 1.972 3.037-16.018 10.442-1.474-2.273 12.271-7.991-15.592 2.912-1.367-2.095v-.018zm13.638 23.724l-2.415.817-3.889-11.472 18.113-6.144 3.836 11.294-2.415.817-2.894-8.524-5.15 1.74 2.628 7.778-2.415.817-2.628-7.778-5.701 1.936 2.948 8.701-.018.018zm-1.33 6.873l-.338-2.912 19.001-2.22.835 7.085c.248 2.184-.054 3.96-.941 5.309s-2.273 2.149-4.156 2.362c-1.349.16-2.575-.106-3.658-.799s-1.882-1.74-2.379-3.161l-6.962 6.038-.408-3.498 6.588-5.576-.408-3.498-7.139.835-.035.036zm16.568-1.936l-6.979.817.462 3.996c.159 1.332.568 2.344 1.243 3.019s1.58.941 2.734.799 1.971-.604 2.469-1.42.674-1.883.515-3.232l-.462-3.995.018.018zm-16.302 25.304l.337-2.912 19.001 2.202-.337 2.912-19.001-2.202zm-3.925 16.427l17.189-5.399-14.33-4.262.781-2.61 18.326 5.452-.905 3.072-16.746 5.274 13.94 4.137-.782 2.611-18.326-5.452.835-2.841.018.018zm-9.536 17.828l1.651-2.432 13.656 9.252 3.498-5.168 2.185 1.474-8.631 12.75-2.184-1.474 3.498-5.167-13.655-9.252-.018.017zm-7.121 8.897l2.148-1.989 13.017 14.011-2.149 1.989-5.434-5.86-7.103 6.606 5.434 5.86-2.149 1.989-13.016-14.011 2.148-1.989 5.843 6.286 7.103-6.606-5.842-6.286zm-21.735 19.054l-1.279-2.219 10.477-6.091 9.607 16.532-10.317 6.002-1.279-2.219 7.778-4.529-2.735-4.705-7.103 4.119-1.278-2.219 7.103-4.12-3.019-5.203-7.938 4.617-.017.035zm-23.761 4.386l6.837 13.94 1.137-15.503 2.947-.568 8.542 17.829-2.824.551-6.428-13.763-1.136 15.237-2.984.586-6.712-13.727-.782 15.183-2.823.55 1.225-19.729 2.984-.586h.017zm-21.008.231l4.972 16.213 6.766-15.591 2.948.159-8.346 18.699-3.215-.177-6.233-19.498 3.108.16v.035zm9.838 7.654l-8.879-.48-.675-2.415 10.673.568-1.119 2.309v.018zm-18.058-9.287l2.806.817-5.327 18.361-2.806-.816 2.468-8.489-10.246 6.233-3.25-.941 10.797-6.624-5.683-11.791 3.534 1.03 5.239 10.744 2.468-8.524zm-25.217-7.849l1.207-2.256 10.69 5.719-9.021 16.869-10.53-5.629 1.207-2.255 7.938 4.244 2.557-4.794-7.228-3.872 1.208-2.255 7.227 3.871 2.841-5.309-8.098-4.333zm-12.022-13.94c.959.994 1.687 2.095 2.131 3.285.462 1.207.675 2.433.639 3.693s-.32 2.486-.852 3.694c-.533 1.19-1.296 2.291-2.309 3.267s-2.113 1.705-3.321 2.202-2.433.729-3.694.729-2.468-.249-3.658-.746-2.255-1.243-3.232-2.238c-.959-.994-1.687-2.095-2.131-3.285-.462-1.208-.675-2.433-.639-3.676a9.54 9.54 0 0 1 .835-3.676c.533-1.19 1.296-2.273 2.291-3.249 1.012-.977 2.113-1.723 3.321-2.22a9.69 9.69 0 0 1 3.711-.746 9.45 9.45 0 0 1 3.676.746c1.19.497 2.255 1.243 3.232 2.237v-.017zm-1.882 1.846c-.71-.728-1.474-1.26-2.308-1.58s-1.705-.462-2.61-.426-1.776.266-2.646.675c-.852.408-1.651.958-2.38 1.669a8.61 8.61 0 0 0-1.723 2.326 6.94 6.94 0 0 0-.728 2.593c-.071.888.053 1.758.355 2.61s.799 1.634 1.509 2.362 1.474 1.261 2.309 1.58a6.48 6.48 0 0 0 2.593.427 6.59 6.59 0 0 0 2.61-.658 8.13 8.13 0 0 0 2.362-1.651c.728-.71 1.296-1.474 1.722-2.326s.675-1.723.746-2.611a6.17 6.17 0 0 0-.355-2.61c-.302-.852-.799-1.634-1.509-2.362l.053-.018zM42.903 150.8l1.527 2.504-16.337 9.926-6.038-9.926 2.184-1.332 4.511 7.423 5.327-3.232-3.853-6.322 2.184-1.332 3.854 6.322 6.641-4.031zm-13.674-26.371l2.451-.692 3.321 11.649-18.397 5.239-3.267-11.472 2.451-.693 2.468 8.666 5.221-1.491-2.255-7.885 2.451-.692 2.255 7.884 5.789-1.651-2.522-8.844.035-.018zm-4.652-17.491c1.101-.071 2.113.142 3.037.657s1.687 1.296 2.273 2.344.941 2.344 1.03 3.889c.107 1.545-.071 2.877-.515 4.031-.444 1.137-1.136 2.06-2.042 2.735-.923.692-1.989 1.119-3.25 1.296l-.195-2.983c1.207-.16 2.131-.64 2.806-1.456s.959-1.954.87-3.41c-.053-.817-.231-1.527-.515-2.149s-.675-1.101-1.172-1.42c-.48-.338-1.048-.48-1.705-.426-.799.053-1.403.355-1.811.923s-.692 1.403-.852 2.522l-.337 2.805a12.18 12.18 0 0 1-.444 1.971c-.213.622-.497 1.208-.852 1.705a4.29 4.29 0 0 1-1.403 1.243c-.568.32-1.261.498-2.06.551-1.083.071-2.06-.142-2.948-.675a5.89 5.89 0 0 1-2.166-2.255c-.55-.994-.888-2.149-.977-3.481s.089-2.539.533-3.622 1.101-1.989 1.971-2.7 1.953-1.136 3.214-1.296l.195 2.983c-.764.107-1.421.356-1.971.764-.568.408-.977.923-1.261 1.545s-.408 1.35-.355 2.166.249 1.492.586 2.043.746.958 1.225 1.225a2.86 2.86 0 0 0 1.563.355c.604-.036 1.083-.231 1.421-.568s.604-.764.781-1.297.302-1.083.391-1.687l.373-2.859c.231-1.669.693-2.965 1.385-3.906.71-.924 1.776-1.439 3.214-1.545l-.035-.018z"/><path d="M31.929 95.822a9.24 9.24 0 0 1-1.35 3.552 9.56 9.56 0 0 1-2.575 2.629c-1.03.71-2.184 1.189-3.463 1.473s-2.61.302-3.995.072-2.628-.675-3.747-1.35a9.71 9.71 0 0 1-2.788-2.504 9.11 9.11 0 0 1-1.58-3.321c-.32-1.207-.355-2.468-.142-3.782.266-1.58.817-2.966 1.687-4.155a9.22 9.22 0 0 1 3.267-2.806c1.314-.675 2.77-.994 4.368-.959l-.515 3.072a6.37 6.37 0 0 0-2.894.675c-.888.444-1.616 1.066-2.184 1.847s-.959 1.687-1.119 2.735c-.16.923-.124 1.811.107 2.646s.604 1.598 1.172 2.273c.55.675 1.243 1.243 2.078 1.687s1.758.764 2.824.941a8.85 8.85 0 0 0 2.983.018c.941-.16 1.776-.479 2.522-.941s1.35-1.048 1.847-1.776a6.13 6.13 0 0 0 .959-2.468c.178-1.048.107-2.042-.195-2.983a6.13 6.13 0 0 0-1.492-2.451 6.45 6.45 0 0 0-2.522-1.563l.515-3.072c1.527.479 2.806 1.261 3.836 2.326a8.99 8.99 0 0 1 2.202 3.711A9.76 9.76 0 0 1 32 95.84l-.071-.018zm6.996-23.014l-16.941-.87 12.342 11.685-1.154 2.717L18.45 72.115l1.261-2.966 20.439.799-1.225 2.859zm-10.548 6.624l3.481-8.186 2.486.195-4.191 9.82-1.793-1.829h.018zM40.08 58.743l-2.166 3.001 5.398 3.907-1.723 2.379-15.485-11.223 3.889-5.363c.835-1.154 1.758-2.007 2.752-2.593a5.5 5.5 0 0 1 3.125-.781c1.083.071 2.166.497 3.268 1.279 1.083.781 1.829 1.687 2.237 2.699a5.61 5.61 0 0 1 .284 3.25c-.213 1.154-.746 2.291-1.581 3.445zm-8.098-5.842l-2.149 2.983 6.091 4.404 2.149-2.983c.764-1.048 1.083-2.078.977-3.072s-.639-1.829-1.598-2.522-1.918-.941-2.877-.728-1.811.852-2.575 1.9l-.018.018zm21.984-.036l-2.06 2.078L38.304 41.5l2.06-2.078 13.603 13.443zm10.797-15.804c.657.888 1.012 1.865 1.066 2.912s-.195 2.113-.764 3.179-1.474 2.042-2.717 2.966-2.468 1.492-3.676 1.723-2.344.16-3.409-.249-2.007-1.083-2.841-2.042l2.397-1.776c.781.923 1.687 1.456 2.735 1.58s2.166-.249 3.339-1.101c.657-.479 1.172-1.012 1.545-1.598s.568-1.154.586-1.758c.018-.586-.16-1.154-.55-1.669-.48-.639-1.048-.977-1.758-1.03-.693-.035-1.545.178-2.575.639L55.6 40.044c-.622.284-1.261.515-1.9.675a6.33 6.33 0 0 1-1.9.195 4.5 4.5 0 0 1-1.811-.515c-.568-.32-1.101-.799-1.581-1.438a5.19 5.19 0 0 1-1.03-2.841c-.053-1.012.213-2.042.746-3.037s1.332-1.9 2.397-2.681c1.066-.799 2.184-1.296 3.339-1.509s2.273-.142 3.338.213 2.007 1.03 2.824 2.024l-2.397 1.776a4.45 4.45 0 0 0-1.705-1.261 3.99 3.99 0 0 0-1.989-.249c-.675.089-1.35.391-2.007.87s-1.136 1.012-1.403 1.58c-.284.568-.408 1.136-.373 1.705.035.55.213 1.066.55 1.509.355.48.764.781 1.243.888s.977.089 1.509-.035a9.01 9.01 0 0 0 1.634-.568l2.61-1.225c1.527-.71 2.877-1.012 4.031-.923s2.166.71 3.019 1.882l.018-.018zm13.905-.444L67.693 25.216l5.345 13.62-2.504.977-6.997-17.793 3.356-1.314 11.649 12.111.284-16.799 3.374-1.332 6.997 17.811-2.522.995-5.345-13.638-.302 15.858-2.326.923-.035-.018zm23.156-12.679c.053.604-.089 1.101-.427 1.527s-.816.657-1.42.71c-.586.053-1.083-.089-1.509-.426s-.675-.817-.728-1.421c-.071-.621.089-1.136.426-1.563.355-.426.817-.657 1.403-.71.604-.053 1.101.089 1.527.426s.658.817.729 1.438v.018z"/></g><g fill="#1e1e1e"><path d="M118.729 117.522c0 1.314-.515 2.486-1.35 3.321-8.239 9.464-11.418 9.038-20.208.088l-.249-.248a4.76 4.76 0 0 1-1.208-3.179c0-2.522 1.918-4.581 4.28-4.581.728 0 1.439.195 2.078.568.036 0 .071.053.142.089.551.319 3.729 1.03 5.079 1.03 1.794 0 3.569-.409 5.185-1.208.586-.32 1.261-.497 1.936-.497 2.362 0 4.28 2.042 4.28 4.564l.035.053z"/><path d="M97.811 119.919l.249.249-.249-.249zm3.818 34.788v-1.634c0-.213-.16-.995-.338-1.74l-.479.923-1.225 2.273.053-2.575s.018-2.024-1.03-3.072c-.444-.426-.959-.621-1.705-.604h-.124c-2.735 0-5.771-2.61-7.21-4.031-.053.959.124 2.025.213 2.469l.533 2.29-1.598-1.722c-2.007-2.167-4.226-8.275-4.333-8.524-2.397-4.351-6.322-5.611-6.357-5.629-9.198-1.811-16.16-11.241-16.461-11.649l-.515-.711.835-.248c.249-.231.426-1.9.355-3.499-.071-.39-1.474-1.047-2.681-1.314l-3.427-.781 3.498-.444c.16-.018.479-.444.675-.923-.302-.32-1.119-.799-1.829-1.084l-1.101-.444 1.225-.799c-.693-.284-1.19-.639-1.225-.674l-1.474-1.03 1.794-.089c1.616-.089 3.037-3.055 3.587-4.493-.497-.355-1.616-.657-2.344-.746l-.728-.089.213-.692c.266-.888 1.669-1.581 2.717-1.989-.479-.337-1.154-.71-1.776-.977l-1.243-.55 1.225-.586c.923-.444 2.752-3.019 3.782-4.67-.444-2.752-3.995-26.051.408-32.461a4.22 4.22 0 0 1 3.285-1.9h.373c5.523 0 13.709 8.346 15.432 10.157 2.273-1.012 13.389-5.736 24.577-5.736a.63.63 0 0 1 .621.621.63.63 0 0 1-.621.621c-12.2 0-24.346 5.754-24.47 5.807l-.409.195-.32-.337c-.089-.106-9.713-10.477-15.094-10.069a2.95 2.95 0 0 0-2.344 1.35c-4.297 6.269-.213 31.538-.16 31.787l.035.231-.124.195c-.231.391-1.989 3.25-3.516 4.67.781.408 1.74 1.03 2.042 1.651l.32.657-.71.213c-.817.249-1.634.586-2.184.906.817.213 1.794.604 2.237 1.243l.16.248-.089.285c-.16.461-1.314 3.853-3.321 5.167.284.107.604.196.906.213l1.811.16-1.971 1.279c.657.355 1.367.87 1.598 1.474l.071.213-.071.213c-.053.16-.231.675-.568 1.154 1.012.373 2.309 1.03 2.468 2.06.071 1.314.053 3.303-.568 4.28 1.474 1.864 7.725 9.216 15.414 10.743.249.071 4.511 1.456 7.192 6.322.053.106 1.35 3.676 2.788 6.251 0-.604.089-1.226.284-1.758l.373-.977.693.781s4.138 4.582 7.21 4.493c1.03-.036 1.936.302 2.628.977.532.532.87 1.207 1.065 1.864.124-.319.213-.568.231-.71-.089-.551 0-.71.391-.835l.55-.177.231.586s.071.177.053.373a10.25 10.25 0 0 0 .196.799l.444 1.953c.887-.675 2.415-1.563 4.475-1.758.372-.053.639.213.674.568.036.338-.213.64-.568.675-2.877.267-4.546 2.113-4.564 2.149l-1.083 1.225.018-.035zm5.558-15.218c-.569 0-1.528-.107-3.232-.302-4.777-.551-7.103-1.865-9.714-4.12-.639-.551-1.474-.835-2.504-1.208-2.504-.87-5.949-2.06-9.802-8.31-1.953-3.179-2.38-6.447-1.243-9.696 1.421-4.102 4.919-6.89 6.073-7.316 1.172-.427 6.073-3.463 7.867-4.6.284-.177.675-.106.852.196a.61.61 0 0 1-.195.852c-.266.178-6.57 4.173-8.098 4.724-.621.23-3.96 2.645-5.327 6.552-1.012 2.895-.622 5.789 1.136 8.648 3.623 5.896 6.695 6.944 9.145 7.796 1.119.391 2.095.728 2.912 1.438 2.468 2.131 4.546 3.321 9.039 3.836l2.681.266a.63.63 0 0 1 .444-.071c.213.054.87.178.782.8-.054.372-.143.55-.817.55v-.035z"/><path d="M87.867 116.155a.59.59 0 0 1-.373-.125c-2.451-1.811-9.536-6.392-12.892-5.771-4.422.835-19.605-1.989-20.244-2.113-.337-.071-.568-.391-.497-.728s.391-.568.728-.497c.16.035 15.591 2.912 19.782 2.113 4.599-.853 13.496 5.718 13.869 6.002.284.213.337.586.124.87a.62.62 0 0 1-.497.249zm-.889 2.326a.6.6 0 0 1-.462-.213c-.035-.036-3.569-3.96-7.263-3.392l-3.356.692c-2.433.569-4.546 1.048-7.334.586-3.836-.639-14.632.143-16.71 1.457-.302.177-.675.088-.852-.196s-.089-.675.195-.852c2.504-1.581 13.762-2.255 17.58-1.634 2.557.426 4.546-.035 6.855-.568a44.26 44.26 0 0 1 3.463-.693c4.333-.674 8.222 3.623 8.382 3.801.231.248.213.657-.053.87a.63.63 0 0 1-.409.16l-.035-.018zm-9.341 4.368c-.195 0-.391-.107-.515-.284a.63.63 0 0 1 .178-.87c2.202-1.457 7.938-1.599 8.169-1.616a.63.63 0 0 1 .639.603.64.64 0 0 1-.604.64c-1.563.035-5.931.355-7.511 1.403a.63.63 0 0 1-.337.106l-.018.018zm-12.11 14.419l-.817-.941 4.83-4.208c.959-.835 3.303-1.545 5.576-2.238l2.894-.959c2.007-.817 8.613-4.475 8.684-4.51a.64.64 0 0 1 .852.248.64.64 0 0 1-.249.853c-.266.159-6.73 3.729-8.808 4.581-.746.302-1.847.639-3.001.995-1.936.586-4.368 1.331-5.114 1.988l-4.848 4.227v-.036zm26.477-14.472c-1.065-.302-2.326-.479-2.628-.355a.47.47 0 0 0 .231-.373l-1.687-.178c.035-.355.231-.674.533-.87.888-.604 2.895-.16 4.013.16l-.462 1.634v-.018zm2.042-30.58c-2.042 0-5.647-.604-6.393-.728-2.095.213-3.303-.071-3.534-.817-.284-.835.71-1.563 1.811-2.22 3.427-2.024 7.6-.728 8.808-.284.586.213 2.522.995 2.841 1.936.053.178.231.693-.035 1.154-.302.497-.888.586-1.581.693l-.906.16c-.249.053-.604.089-1.012.089v.018zm-6.357-1.936h.089c2.202.391 6.038.923 7.014.693a7.88 7.88 0 0 1 .994-.178c.249-.035.568-.089.71-.142a.72.72 0 0 0-.035-.124c-.124-.231-1.136-.959-2.966-1.492-1.243-.355-4.404-1.03-6.943.48-.621.373-.941.621-1.119.781.462.089 1.35.107 2.184.018h.089l-.018-.035z"/><path d="M77.496 88.328l-.675.568a6.35 6.35 0 0 0-.533.675 6.39 6.39 0 0 0-.515.888l-.87 1.953c-.195.391-.426.764-.693 1.101l.231-.302a7.07 7.07 0 0 1-1.207 1.207l.302-.231c-.284.213-.586.391-.87.586-.249.16-.497.355-.728.55-.107.089-.213.195-.302.32-.178.213-.337.426-.48.657-.124.231-.249.48-.337.746-.16.408-.231.835-.266 1.261a2.49 2.49 0 0 0 0 .515c0 .302.053.604.124.888.124.372.355.674.693.887.16.107.355.16.55.178a1.01 1.01 0 0 0 .604-.035l.355-.143c.213-.124.408-.319.533-.532l.142-.355c.071-.266.071-.533 0-.799l-.053-.284.053.391a3.14 3.14 0 0 1 0-.817l-.053.391a2.65 2.65 0 0 1 .231-.817l-.142.355c.106-.231.231-.462.373-.657l-.231.302a3.29 3.29 0 0 1 .497-.497l-.302.231c.231-.178.479-.32.71-.48a11.44 11.44 0 0 0 .923-.692 5.32 5.32 0 0 0 .568-.533 11.33 11.33 0 0 0 .728-.888 7.54 7.54 0 0 0 .781-1.314l.586-1.332c.213-.48.444-.959.781-1.385l-.231.302a3.04 3.04 0 0 1 .586-.586l-.302.231c.178-.106.32-.231.426-.391a1.48 1.48 0 0 0 .302-.817 1.56 1.56 0 0 0-.178-.852l-.231-.302c-.177-.178-.408-.32-.657-.391l-.391-.053a1.51 1.51 0 0 0-.746.195l-.089.107zm-10.531 32.71l-.231-.302c.071.089.124.195.178.302l-.142-.355c.071.177.106.355.142.532l-.053-.39c.036.319.036.639.053.959 0 .284.053.568.089.834a1.85 1.85 0 0 0 .107.426c.053.16.124.302.195.462 0 .036.035.071.053.107s.035.071.071.106l.302.391.302.231.355.142.391.053a1.26 1.26 0 0 0 .568-.124c.355-.142.639-.426.781-.782a1.06 1.06 0 0 0 .124-.568v-.213c0-.16-.035-.337-.071-.497 0-.036 0-.071-.018-.089-.071-.266-.195-.515-.32-.746-.142-.248-.32-.479-.426-.746l.142.356c-.053-.143-.089-.285-.124-.427l.053.391v-.284l-.053.391s.018-.125.053-.178l-.142.355s.053-.089.071-.142l-.231.302s.053-.071.089-.089a1.54 1.54 0 0 0 .426-1.048c0-.39-.142-.763-.426-1.047l-.302-.231c-.231-.142-.497-.195-.746-.195l-.391.053a1.39 1.39 0 0 0-.657.39l-.071.072-.249.319s-.018.036-.035.053c-.053.089-.089.178-.124.267l-.107.266-.053.284c0 .107-.035.196-.035.302 0 .196.035.409.071.604.035.266.16.533.266.781.071.142.16.284.249.426.107.16.213.338.302.533l-.142-.355c.053.107.071.231.089.337l-.053-.39v.231l2.557-1.048s-.035-.036-.035-.053l.231.302c-.071-.089-.124-.196-.177-.302l.142.355c-.071-.178-.106-.355-.142-.533l.053.391c-.035-.32-.035-.622-.053-.941 0-.285-.053-.569-.089-.853a1.85 1.85 0 0 0-.107-.426 3.31 3.31 0 0 0-.195-.444c0-.035-.035-.071-.053-.106a3.29 3.29 0 0 0-.373-.498c-.284-.266-.657-.426-1.048-.426s-.764.142-1.048.426l-.231.302c-.142.231-.195.497-.195.746l.053.391c.071.248.195.479.391.657z"/><path d="M64.621 102.055c-.124.301-.266.603-.337.905-.018.107-.053.213-.053.302l-.089.675v.621a7.65 7.65 0 0 0 .089.675c0 .107.035.213.053.302.089.338.231.675.373.995a1.47 1.47 0 0 0 .639.586c.266.125.568.177.852.124a1.01 1.01 0 0 0 .55-.178l.302-.231a1.54 1.54 0 0 0 .391-.657l.053-.39c0-.267-.071-.533-.195-.746 0-.036-.035-.071-.035-.089l.142.355c-.124-.302-.213-.603-.249-.923l.053.391c-.053-.338-.053-.693 0-1.03l-.053.39a3.11 3.11 0 0 1 .249-.905l-.142.355a1.33 1.33 0 0 0 .178-.568c.035-.285 0-.586-.142-.853-.124-.266-.32-.479-.568-.639l-.355-.142c-.266-.071-.533-.071-.799 0l-.355.142a1.53 1.53 0 0 0-.533.533h-.018zm-1.918 10.352s0 .071.018.089l-.053-.391v.178l.053-.391s-.035.16-.071.249l.142-.355-.284.515-.195.408a1.88 1.88 0 0 0-.16.444l-.053.266a4.12 4.12 0 0 0-.071.657v.284c.018.214.053.444.089.657.018.107.053.196.089.302.071.213.178.427.284.622.142.249.373.462.639.586s.568.177.852.124a1.02 1.02 0 0 0 .551-.177l.302-.231a1.55 1.55 0 0 0 .391-.657l.053-.391a1.51 1.51 0 0 0-.195-.746.85.85 0 0 1-.053-.124l.142.355a4.35 4.35 0 0 1-.284-1.048l.053.391c-.053-.391-.053-.781 0-1.154l-.053.39c.036-.213.071-.443.142-.657a1 1 0 0 0 .018-.603 1.01 1.01 0 0 0-.178-.551c-.213-.319-.533-.568-.888-.692l-.391-.054a1.5 1.5 0 0 0-.746.196l-.302.231a1.54 1.54 0 0 0-.391.657c-.053.195-.107.39-.124.586a8.84 8.84 0 0 0-.106.994c0 .195 0 .408.035.604.035.337.089.657.178.976.107.338.231.657.373.977l2.575-1.509s-.089-.142-.107-.231l.142.355a1.99 1.99 0 0 1-.142-.533l.053.391a2.29 2.29 0 0 1 0-.604l-.053.391c.018-.195.071-.373.142-.551l-.142.356c.107-.231.249-.427.355-.64.089-.16.142-.337.213-.497l.053-.16c.035-.142.053-.302.071-.461v-.089c0-.16-.035-.302-.053-.462 0-.036 0-.071-.018-.089-.124-.373-.355-.675-.693-.888-.16-.106-.355-.159-.55-.177a1 1 0 0 0-.604.035l-.355.142a1.54 1.54 0 0 0-.533.533l-.142.355c-.071.267-.071.533 0 .799l-.018.018zm9.891 13.177v.426c0 .391.177.764.444 1.048a1.48 1.48 0 0 0 1.048.444l.391-.053a1.39 1.39 0 0 0 .657-.391l.231-.302c.142-.231.213-.497.195-.746v-.426c0-.391-.178-.764-.444-1.048a1.48 1.48 0 0 0-1.048-.444l-.391.054a1.39 1.39 0 0 0-.657.39l-.231.302c-.142.231-.195.497-.195.746zm3.18 3.711l.142.302-.142-.355c.195.48.337.959.391 1.474l-.053-.391a6.29 6.29 0 0 1 .035 1.297c0 .39.178.763.444 1.047.284.285.657.444 1.048.444l.391-.053c.249-.071.479-.195.657-.391l.231-.301c.142-.231.195-.498.195-.746a5.87 5.87 0 0 0-.018-1.243c-.071-.533-.142-1.066-.337-1.581a9.52 9.52 0 0 0-.426-.976c-.142-.249-.373-.462-.639-.586s-.568-.178-.852-.125a1.01 1.01 0 0 0-.55.178l-.302.231a1.54 1.54 0 0 0-.391.657l-.053.39c0 .267.071.533.195.746l.035-.018zm-5.896-.248c.142.089.266.195.408.302l-.302-.231a14 14 0 0 1 1.101.959 1.06 1.06 0 0 0 .48.302 1.27 1.27 0 0 0 .568.124 1.27 1.27 0 0 0 .568-.124 1.06 1.06 0 0 0 .479-.302l.231-.302c.142-.231.213-.497.195-.746l-.053-.391c-.071-.248-.195-.479-.391-.657a13.14 13.14 0 0 0-1.794-1.491c-.16-.107-.355-.16-.55-.178-.284-.035-.586 0-.852.142a1.52 1.52 0 0 0-.639.568l-.142.356c-.071.266-.071.532 0 .799l.142.355a1.54 1.54 0 0 0 .533.533l.018-.018zm-.569-26.815a14.91 14.91 0 0 0-.178 1.989c0 .391.178.764.444 1.048a1.48 1.48 0 0 0 1.048.444l.391-.053a1.39 1.39 0 0 0 .657-.391l.231-.302c.142-.231.213-.497.195-.746 0-.461.036-.923.089-1.385l-.053.391.035-.196a1.15 1.15 0 0 0 .035-.603 1.01 1.01 0 0 0-.178-.551c-.213-.319-.533-.568-.888-.692l-.391-.054a1.5 1.5 0 0 0-.746.196l-.302.231a1.54 1.54 0 0 0-.391.657v.017zm22.002-22.25l1.634 1.758c.213.195.497.32.799.32s.586-.107.799-.32c.195-.213.337-.497.32-.799l-.035-.302c-.053-.177-.16-.355-.284-.497l-1.634-1.758c-.213-.195-.497-.32-.799-.32s-.586.107-.799.32c-.195.213-.337.497-.32.799l.035.302c.053.195.142.355.284.497z"/><path d="M91.453 78.188a1.22 1.22 0 0 0-.657.177 2.4 2.4 0 0 0-.266.195l-.018.018c-.071.071-.124.16-.195.249-.16.249-.195.515-.231.817 0 .195 0 .408.071.604l.106.444.124.426c.071.231.178.444.284.657.213.408.533.746.923.995.053.035.124.071.195.106.142.071.302.124.444.178a4.37 4.37 0 0 0 .497.071h.106c.124 0 .266-.035.391-.053.284-.089.515-.266.675-.515a.69.69 0 0 0 .124-.408.76.76 0 0 0-.018-.444c-.089-.266-.249-.533-.515-.675l-.266-.106a1.16 1.16 0 0 0-.604 0h-.089l.302-.035h-.213l.302.035c-.089 0-.178-.036-.266-.071l.266.107a1.33 1.33 0 0 1-.266-.16l.231.177a1.88 1.88 0 0 1-.266-.266l.178.231c-.107-.142-.195-.302-.266-.462l.107.266-.195-.586a5.35 5.35 0 0 1-.124-.568l.035.302v-.266l-.035.302s.018-.106.035-.142l-.107.266.035-.071-.178.231s.018-.035.035-.035l-.231.178s.018 0 .035-.018l-.266.106h.036l-.302.035h.035c.213 0 .444-.053.621-.178a1.25 1.25 0 0 0 .409-.497.72.72 0 0 0 .089-.426 1.14 1.14 0 0 0-.32-.799l-.231-.177a1.1 1.1 0 0 0-.568-.16v-.053zm6.144-1.349a4.71 4.71 0 0 1 .586.604l-.178-.231a3.8 3.8 0 0 1 .497.87l-.107-.266.053.16c.089.284.284.515.533.657a1.17 1.17 0 0 0 .852.124c.267-.089.533-.249.675-.515l.107-.266c.053-.195.053-.408 0-.604-.16-.408-.338-.799-.586-1.154a4.82 4.82 0 0 0-.853-.959c-.213-.195-.497-.32-.799-.32s-.586.107-.799.32c-.195.213-.337.497-.32.799l.035.302c.053.195.142.355.284.497l.018-.018z"/><path d="M98.875 76.856a1.88 1.88 0 0 0 .195.195l-.177-.231s.124.178.16.266l-.107-.266s.018.035.018.071c.089.284.284.515.533.657a1.17 1.17 0 0 0 .852.124l.267-.107a1.14 1.14 0 0 0 .408-.408l.107-.266c.053-.195.053-.409 0-.604-.036-.124-.089-.231-.143-.337 0-.035-.017-.053-.035-.071a.38.38 0 0 0-.089-.142c-.071-.106-.142-.195-.213-.284-.018-.018-.035-.053-.053-.071l-.124-.124c-.107-.106-.231-.195-.356-.231a1.13 1.13 0 0 0-.639-.071 1.1 1.1 0 0 0-.586.302l-.178.231a1.1 1.1 0 0 0-.16.568l.035.302c.053.195.142.355.284.497zm6.18-12.039l-1.882.16c-.337.035-.675.053-1.012.142a1.73 1.73 0 0 0-.284.089 4.42 4.42 0 0 0-.604.266 2.69 2.69 0 0 0-.497.391 3.24 3.24 0 0 0-.302.391c-.036.035-.053.071-.071.124l-.107.231c-.035.071-.071.16-.088.231 0 .053-.036.107-.036.142-.035.178-.053.355-.071.533v.16c0 .178.036.337.071.515.053.16.124.32.195.479.089.195.249.373.373.515.054.071.125.142.196.195.159.142.337.266.515.391.39.249.817.391 1.189.675l-.301-.231c.213.178.426.373.586.604l-.231-.302c.319.408.568.888.763 1.367l-.142-.355c.213.497.391 1.012.551 1.527.035.195.142.373.266.515.107.16.249.302.426.391l.355.142c.196.053.391.071.604.018a.69.69 0 0 0 .373-.107c.178-.053.355-.16.48-.302l.23-.302c.142-.231.214-.497.196-.746.089-1.136 0-2.255-.178-3.374l-.16-.835-2.734 1.154c.088.124.159.249.213.391l-.142-.355c.16.373.231.764.284 1.154l.213 1.35.444 2.752.248 1.545 2.202-1.687s-.106-.053-.159-.107l.301.231-.177-.195.231.302c-.089-.106-.142-.231-.196-.355l.142.355c-.088-.231-.159-.462-.177-.71l.053.391c-.035-.231-.035-.462-.053-.693l-.107-1.083c-.035-.195-.071-.408-.159-.586-.107-.266-.214-.55-.391-.781-.16-.231-.338-.462-.551-.639s-.426-.355-.674-.479a5.18 5.18 0 0 0-.551-.231l-.213-.053c-.107-.018-.195-.035-.302-.035s-.213-.035-.302-.035h-.213c-.16 0-.337.035-.497.071-.036 0-.089 0-.124.018-.196.053-.391.142-.586.231s-.356.231-.533.32l.355-.142s-.089.035-.124.035l.39-.053h-.106l.391.053s-.054 0-.089-.018l.355.142-.107-.053.302.231-.106-.107.231.302s-.089-.124-.125-.213l.142.355c-.053-.107-.071-.231-.089-.355l.054.391v-.462l-.054.391c.018-.178.072-.355.089-.55.054-.302.107-.604.107-.906 0-.213-.036-.408-.071-.621 0-.071-.036-.142-.053-.213-.054-.178-.143-.355-.214-.533l-.106-.213a3.32 3.32 0 0 0-1.101-1.065c-.497-.284-1.048-.408-1.616-.444l-.604.018-.995.142 1.154 2.735 2.309-1.048c.177-.089.319-.231.426-.391.124-.142.231-.32.266-.515.071-.195.071-.391.036-.604a1.01 1.01 0 0 0-.178-.55l-.231-.302a1.54 1.54 0 0 0-.657-.391l-.391-.053c-.266 0-.532.071-.745.195l-2.309 1.048a1.13 1.13 0 0 0-.426.391c-.124.142-.231.32-.266.515l-.053.391c0 .195.035.391.124.568a.93.93 0 0 0 .195.337c.107.16.249.302.426.391l.355.142c.266.071.533.071.799 0l.515-.089-.39.053c.284-.036.586-.053.888-.018l-.391-.053c.16.018.32.071.479.124l-.355-.142a1.97 1.97 0 0 1 .373.213l-.302-.231c.125.089.213.195.32.302l-.231-.302a1.45 1.45 0 0 1 .213.355l-.142-.355a1.43 1.43 0 0 1 .107.391l-.054-.391c.018.178 0 .337 0 .515l.054-.391c-.018.142-.036.266-.071.391-.054.249-.089.515-.125.781 0 .107-.018.213 0 .337a2.15 2.15 0 0 0 .107.675c.053.213.142.409.248.604a.39.39 0 0 0 .071.107c.071.089.196.284.32.391l.337.266s.036.018.054.035c.142.089.302.142.461.195.16.036.338.053.498.071a1.49 1.49 0 0 0 .55-.089 3.43 3.43 0 0 0 .675-.337l.284-.16-.355.142c.106-.053.231-.071.355-.089l-.391.053h.409l-.391-.053a1.3 1.3 0 0 1 .426.124l-.355-.142c.142.071.284.142.409.249l-.302-.231c.124.107.248.213.337.337l-.231-.302c.107.142.196.284.249.444l-.142-.355c.089.213.142.426.16.657l-.054-.391c.036.231.036.462.054.675.017.355.053.693.106 1.048a2.72 2.72 0 0 0 .125.55c.071.195.142.391.248.586l.124.231c.089.142.196.266.302.391l.107.106a3.17 3.17 0 0 0 .391.302c.035.035.088.053.124.071l.355.142.391.053.39-.053a1.1 1.1 0 0 0 .515-.266c.196-.16.355-.355.462-.604a.7.7 0 0 0 .107-.373c.053-.195.035-.408-.018-.604l-.48-2.966-.231-1.492-.23-1.421c-.036-.231-.089-.462-.16-.692s-.16-.444-.267-.657c-.053-.107-.106-.213-.177-.302a1.13 1.13 0 0 0-.391-.426 1.1 1.1 0 0 0-.515-.266l-.39-.053c-.196 0-.391.035-.569.124-.124.035-.231.106-.337.195a1.13 1.13 0 0 0-.391.426l-.142.355c-.071.266-.071.533 0 .799l.231 1.208-.053-.391a12.67 12.67 0 0 1 .071 2.593l2.93-.391-.391-1.154a14.4 14.4 0 0 0-.621-1.421c-.089-.177-.196-.337-.302-.497l-.391-.515c-.053-.071-.124-.142-.178-.213l-.39-.355c-.231-.178-.462-.373-.728-.497-.32-.178-.657-.32-.941-.533l.301.231c-.088-.071-.177-.16-.266-.249l.231.302-.124-.213.142.355s-.054-.142-.054-.213l.054.391v-.266l-.054.391.054-.231-.142.355.106-.178-.231.302s.107-.124.178-.178l-.302.231c.089-.071.195-.124.302-.178l-.355.142a3.32 3.32 0 0 1 .604-.16l-.391.053c.355-.053.71-.071 1.048-.089l1.154-.107c.391 0 .763-.178 1.048-.444a1.05 1.05 0 0 0 .301-.479c.089-.178.142-.373.125-.568l-.054-.391c-.071-.249-.195-.479-.39-.657l-.302-.231c-.231-.142-.497-.195-.746-.195l-.178.018z"/><path d="M105.251 72.186l.515-.391c-.071.053-.142.106-.23.142l.603-.249a1.48 1.48 0 0 1-.302.089l.675-.089c-.177.018-.355.018-.532 0l.674.089-.55-.107c-.32-.107-.675-.124-1.012-.053-.338 0-.657.124-.942.302-.284.16-.532.373-.71.657-.231.249-.373.533-.462.87l-.088.675c0 .444.124.888.355 1.279l.39.515c.302.32.693.533 1.119.657l.444.089.888.124h.231.213l.764-.107c.035 0 .071 0 .106-.018.267-.089.533-.195.781-.337.249-.124.498-.355.693-.515.249-.231.426-.497.533-.817a1.87 1.87 0 0 0 .213-.977c0-.337-.053-.675-.213-.977-.107-.32-.284-.586-.533-.817l-.515-.391c-.391-.231-.835-.355-1.278-.355l-.675.089c-.426.124-.817.337-1.119.657l-.036-.035z"/><use xlink:href="#B"/><path d="M105.819 77.868a2.81 2.81 0 0 0 1.794-.746c.249-.231.426-.497.533-.817a1.88 1.88 0 0 0 .213-.977l-.089-.675c-.124-.426-.337-.817-.657-1.119l-.515-.391c-.391-.231-.835-.355-1.279-.355a2.81 2.81 0 0 0-1.793.746c-.249.231-.426.497-.533.817a1.87 1.87 0 0 0-.213.977l.089.675c.124.426.337.817.657 1.119l.515.391a2.52 2.52 0 0 0 1.278.355zM73.5 118.019a.43.43 0 0 1-.355-.196c-.728-1.314-.391-3.249-.178-4.155-.444.124-.941.604-1.208.941-.035.178-.124.444-.444.409-.408-.036-.373-.302-.32-1.048.053-.657.444-1.314.817-1.776H66.36l3.711-.781c2.184-.462 7.192-9.376 7.192-12.076 0-.213.177-.391.391-.391s.391.178.391.391c0 2.433-3.658 9.625-6.464 12.058h2.131l-.728.693c-.213.195-.621.657-.906 1.154.444-.302.994-.515 1.563-.32l.373.125-.124.372s-.835 2.593-.036 4.014c.107.195.036.444-.16.55-.053.036-.124.053-.195.053v-.017zm43.223 1.634l-.248.249c.088-.071.159-.16.248-.249zM67.125 85.824c-.302 0-.604-.089-.852-.302-1.083-.959-.018-3.818.888-5.736-2.486-1.545-3.64-3.143-3.463-4.777.284-2.451 3.534-4.013 5.256-4.688-.977-.977-2.451-2.77-2.309-4.422.053-.586.337-1.421 1.403-2.042l.142-.089h.16c3.072 0 9.181 7.938 10.371 9.536l.266.355-.231.355c-.231.373-5.807 8.95-9.465 10.921-.622.408-1.456.888-2.184.888h.018zm1.403-20.794c-.515.355-.604.728-.639.977-.124 1.403 1.865 3.427 2.646 4.102l.87.728-1.083.337c-1.421.444-5.15 2.007-5.381 3.978-.178 1.474 1.722 2.912 3.338 3.853l.497.302-.249.515c-1.03 2.095-1.723 4.368-1.421 4.777 0 0 .373.053 1.563-.728 3.019-1.616 7.707-8.506 8.808-10.158-2.593-3.41-7.014-8.399-8.95-8.684zm48.177 54.925l-.249.248c.089-.071.16-.16.249-.248z"/><path d="M105.074 67.196l-.551 5.754c-.088 1.936 0 3.871.214 5.789l.55 4.049-.089-.675c.178 1.35.32 2.717.267 4.084 0 .391-.054.781-.107 1.154l.089-.675a7.89 7.89 0 0 1-.267 1.296 1.96 1.96 0 0 0-.053 1.012c0 .337.125.657.302.941a2.91 2.91 0 0 0 1.51 1.172l.674.089c.444 0 .888-.124 1.279-.355l.515-.391c.319-.302.533-.693.657-1.119.213-.781.32-1.598.408-2.415.054-.604.071-1.208.054-1.811-.036-1.421-.249-2.841-.444-4.244l-.302-2.078.089.675a34.77 34.77 0 0 1-.338-4.901c0-1.527.107-3.054.267-4.564l.319-2.806c0-.337-.053-.675-.213-.977-.106-.32-.284-.586-.533-.817-.231-.249-.497-.426-.817-.533a1.87 1.87 0 0 0-.976-.213l-.675.089c-.426.124-.817.337-1.119.657l-.39.515c-.231.391-.356.835-.356 1.279l.036.018zm-7.281 52.492l.249.249-.249-.249zm-5.932.409a.84.84 0 0 0 .533-.213c.142-.142.213-.338.213-.533s-.071-.391-.213-.533a.75.75 0 0 0-.533-.213.75.75 0 0 0-.533.213c-.142.142-.213.338-.213.533s.071.391.213.533a.75.75 0 0 0 .533.213zm1.332 5.398a.84.84 0 0 0 .533-.213c.142-.142.213-.338.213-.533s-.071-.391-.213-.533a.75.75 0 0 0-.533-.213.75.75 0 0 0-.533.213c-.142.142-.213.338-.213.533s.071.391.213.533a.75.75 0 0 0 .533.213zm-5.345-5.185a.84.84 0 0 0 .533-.213.75.75 0 0 0 .213-.533c0-.195-.071-.39-.213-.533s-.337-.213-.533-.213a.75.75 0 0 0-.533.213c-.142.142-.213.338-.213.533a.75.75 0 0 0 .746.746zm2.185-3.392a.84.84 0 0 0 .533-.213.75.75 0 0 0 .213-.533.75.75 0 0 0-.746-.745.75.75 0 0 0-.746.745.75.75 0 0 0 .746.746zm-.995 9.216c.195 0 .391-.088.533-.213a.75.75 0 0 0 .213-.532.75.75 0 0 0-.746-.746.75.75 0 0 0-.746.746.75.75 0 0 0 .746.745z"/><path d="M109.318 70.215l.124-.515c.124-.444.124-.906 0-1.35a1.88 1.88 0 0 0-.462-.87 2.1 2.1 0 0 0-.71-.657c-.391-.231-.835-.355-1.279-.355a5.75 5.75 0 0 0-.781 0c-.479.053-.959.107-1.403.266l-.941.391c-.124.053-.231.124-.355.195-.284.178-.551.373-.799.604a3.33 3.33 0 0 0-.835 1.403v.035l-.053.355-.053.355v.035.035l.088.675c.018.142.089.266.142.391.054.107.089.266.178.373.124.195.302.462.515.621l.657.515-.515-.391a1.64 1.64 0 0 1 .249.249l-.391-.515a1.43 1.43 0 0 1 .213.355l-.249-.604c.054.142.107.302.125.462l-.089-.675a1.98 1.98 0 0 1 0 .462l.089-.675a1.64 1.64 0 0 1-.107.391l.249-.604 4.635 1.971a2.85 2.85 0 0 1 .142-.426l-.249.604c.089-.231.213-.426.373-.622l-.391.515c.142-.178.284-.337.462-.462l-.515.391c.284-.213.604-.391.906-.604l.692-.55c.071-.053.125-.124.178-.178.142-.177.39-.462.515-.71a3.09 3.09 0 0 0 .142-.355 2.21 2.21 0 0 0 .142-.355c0-.035.035-.089.035-.124.071-.337.125-.692.107-1.03a1.83 1.83 0 0 1 0-.444l-.089.675s.018-.107.036-.142l-.249.604s.036-.071.071-.106l-.391.515s.054-.071.089-.089l-.515.391s.054-.035.071-.035l-.604.249s.054 0 .072-.018l-.675.089h.053l-.675-.089h.071l-.604-.249s.036.018.054.035l-.515-.391.053.053-.391-.515s.036.035.036.071l-.249-.604.054.177-.089-.675c.018.213 0 .426 0 .639v.693 1.403c0 .337.053.675.213.977.106.302.302.586.533.817s.515.408.816.533a1.87 1.87 0 0 0 .977.213l.675-.089c.426-.124.817-.337 1.119-.657l.39-.515c.231-.391.355-.835.355-1.278v-2.131-.497c-.017-.604-.124-1.065-.408-1.598-.231-.409-.604-.764-.994-1.012a2.85 2.85 0 0 0-1.421-.391l-.675.089h-.053c-.231.071-.462.16-.657.284a2.71 2.71 0 0 0-.568.444l-.071.071c-.391.48-.551.675-.746 1.279v.053.036l-.089.675v.142c0 .195.035.391 0 .568l.089-.675s-.036.16-.071.249l.248-.604-.142.231.391-.515c-.089.106-.195.213-.32.302l.515-.391c-.284.213-.603.391-.888.586-.337.249-.674.497-.959.799l-.479.604c-.035.035-.071.089-.107.142l-.159.266a.59.59 0 0 0-.071.16l-.32.746c-.036.107-.089.231-.107.355a1.96 1.96 0 0 0-.053 1.012c0 .337.124.657.302.941l.391.515a1.82 1.82 0 0 0 .817.533c.195.107.408.178.639.178a1.96 1.96 0 0 0 1.012-.053l.604-.249a2.46 2.46 0 0 0 .905-.906l.285-.692c0-.035.017-.071.035-.107 0-.035.018-.071.018-.106.053-.249.071-.515.106-.781a1.98 1.98 0 0 0 0-.462l-.106-.764c0-.036 0-.071-.018-.107-.018-.071-.035-.142-.071-.231l-.302-.693c0-.035-.035-.071-.053-.107-.036-.071-.089-.124-.124-.195l-.462-.604c-.018-.035-.053-.053-.089-.089s-.071-.053-.089-.089l-.621-.48.515.391s-.107-.089-.142-.142l.39.515-.053-.089.249.604s-.018-.053-.018-.089l.089.675v-.089l-.089.675s0-.071.035-.107l-.248.604s.053-.089.089-.124l-.391.515.195-.178-.515.391c.213-.16.444-.284.675-.391l-.604.249a3.28 3.28 0 0 1 .906-.249l-.675.089a3.01 3.01 0 0 1 .799 0l-2.45-3.214-.125.515a1.96 1.96 0 0 0-.053 1.012c0 .337.124.657.302.941a1.94 1.94 0 0 0 .657.71 1.97 1.97 0 0 0 .87.462l.675.089c.444 0 .888-.124 1.279-.355l.515-.391c.319-.302.532-.692.657-1.119l-.071.106zM84.83 72.932a6.21 6.21 0 0 0 .639.515c.231.178.48.32.746.462l.746.32a3.39 3.39 0 0 0 .835.213c.408.071.835.124 1.261.107.142 0 .284 0 .426-.035l.817-.124a4.52 4.52 0 0 0 .835-.249c.391-.16.764-.32 1.119-.55.231-.142.444-.32.639-.48a2.69 2.69 0 0 0 .337-.302l.55-.657c.142-.195.266-.408.355-.639a2.11 2.11 0 0 0 .16-.426c.036-.16.053-.337.071-.515v-.124-.142c0-.178-.035-.337-.071-.515 0-.035-.018-.071-.035-.107a3.31 3.31 0 0 0-.195-.444c-.089-.178-.231-.32-.337-.48-.053-.053-.089-.107-.16-.16-.124-.106-.249-.195-.373-.284-.036-.018-.071-.053-.107-.071l-.195-.107c-.178-.071-.355-.16-.55-.213s-.391-.071-.604-.089h-.284c-.178 0-.337.035-.515.071-.053 0-.106 0-.16.018-.408.089-.781.249-1.154.408l-1.19.497-1.19.479-.604.249-.142.053-.071.036c-.124.053-.249.089-.373.16l-.302.231-.231.302-.071.178s-.071.124-.071.195l-.053.462v.107.106c0 .16.035.337.071.497 0 .071.035.142.071.213.071.178.142.373.249.55.018.035.035.053.053.089l.302.391.16.16a3.36 3.36 0 0 0 .479.355c.178.089.355.178.55.231a1 1 0 0 0 .213.071 1.55 1.55 0 0 0 .284.035c.089 0 .213.036.302.036h.249c.213-.018.408-.053.621-.107.142-.035.266-.089.408-.16a4.05 4.05 0 0 0 .621-.32 5.25 5.25 0 0 0 .693-.55l.355-.373a1.05 1.05 0 0 0 .302-.479 1.26 1.26 0 0 0 .124-.568c0-.195-.035-.391-.124-.568-.053-.178-.16-.355-.302-.48l-.302-.231c-.231-.124-.48-.195-.746-.195l-.391.053c-.249.071-.48.195-.657.391-.178.231-.391.426-.621.604l.302-.231a2.55 2.55 0 0 1-.55.337l.355-.142a1.82 1.82 0 0 1-.444.124l.391-.053c-.124 0-.249.018-.355 0l.391.053c-.107 0-.231-.053-.337-.089l.355.142c-.107-.053-.213-.106-.32-.195l.302.231a1.64 1.64 0 0 1-.249-.249l.231.302s-.124-.178-.16-.284l.142.355c-.035-.089-.071-.178-.071-.284l.053.391v-.266l-.053.391v-.071l-1.048 1.048 3.569-1.456c.32-.124.639-.249.977-.302l-.391.053c.16-.018.302-.018.462 0l-.391-.053c.124 0 .231.035.355.089l-.355-.142.32.177-.302-.231a2.22 2.22 0 0 0 .213.213l-.231-.302.124.213-.142-.355.071.266-.053-.391v.284l.053-.391a2.33 2.33 0 0 1-.089.337l.142-.355a1.8 1.8 0 0 1-.284.462l.231-.302c-.213.266-.444.497-.71.693l.302-.231a4.24 4.24 0 0 1-.994.568l.355-.142a4.75 4.75 0 0 1-1.19.32l.391-.053a5.13 5.13 0 0 1-1.279 0l.391.053c-.409-.053-.799-.16-1.172-.32l.355.142a4.4 4.4 0 0 1-.959-.568l.302.231c-.107-.071-.195-.16-.284-.249a1.54 1.54 0 0 0-1.048-.426c-.391 0-.764.142-1.048.426l-.231.302c-.142.231-.213.497-.195.746l.053.391c.071.249.195.479.391.657l-.107.035z"/><path d="M92.625 71.671l.231-.728a1.95 1.95 0 0 0 .053-1.012c0-.337-.124-.657-.302-.941-.16-.284-.373-.533-.657-.71-.249-.231-.533-.373-.87-.462l-.675-.089c-.444 0-.888.124-1.279.355l-.515.391c-.32.302-.533.692-.657 1.119l-.231.728a1.96 1.96 0 0 0-.053 1.012c0 .337.124.657.302.941.16.284.373.533.657.71.249.231.533.373.87.462l.675.089c.444 0 .888-.124 1.279-.355l.515-.391c.32-.302.533-.692.657-1.119zM63.786 95.644a.82.82 0 0 1-.515-.178.85.85 0 0 1-.16-1.19c.977-1.296 2.61-3.747 2.788-4.812.089-.462.533-.764.977-.693a.83.83 0 0 1 .675.977c-.32 1.811-2.823 5.168-3.108 5.541-.16.213-.426.337-.675.337l.018.018zm36.848 38.09c-3.693 0-7.618-2.521-8.594-4.226-.497-.87-.195-1.421.018-1.669.231-.249.622-.266.87-.053s.266.586.071.852c.035.764 3.321 3.498 6.943 3.836 3.676.319 5.878-2.007 6.464-6.731.035-.337.337-.586.692-.55.338.035.586.355.551.693-.675 5.593-3.41 7.28-5.594 7.724a7.73 7.73 0 0 1-1.439.142l.018-.018zm15.983-13.797l-.249.248c.089-.071.16-.16.249-.248zm-3.819 34.787l-1.083-1.225s-1.687-1.882-4.564-2.149c-.337-.035-.586-.337-.568-.674.035-.338.302-.604.675-.569 2.042.196 3.551 1.066 4.457 1.741l.284-1.527.195-1.101c-.035-.267.018-.373.054-.462l.213-.533.568.107c.408.124.515.23.408.959.054.142.196.426.373.781.196-.693.533-1.456 1.119-2.042.675-.675 1.527-1.012 2.628-.977h.089c3.125 0 7.085-4.457 7.121-4.493l.693-.781.372.977c.196.532.285 1.154.285 1.758 1.438-2.557 2.717-6.109 2.734-6.162 2.699-4.955 6.979-6.34 7.157-6.393 7.76-1.527 14.011-8.897 15.485-10.761-.622-.977-.64-2.948-.586-4.209.177-1.065 1.456-1.74 2.486-2.113-.32-.462-.515-.977-.569-1.154l-.071-.214.071-.195c.213-.586.942-1.101 1.599-1.474l-1.972-1.278 1.812-.16c.302-.018.621-.107.905-.213-2.006-1.332-3.178-4.706-3.32-5.168l-.089-.284.16-.249c.426-.657 1.42-1.029 2.237-1.243-.55-.319-1.367-.674-2.184-.905l-.71-.213.337-.657c.302-.622 1.261-1.226 2.042-1.652-1.509-1.421-3.267-4.28-3.498-4.67l-.124-.195.035-.231c.036-.249 4.138-25.536-.16-31.787-.586-.835-1.349-1.279-2.344-1.35-5.38-.408-15.005 9.962-15.094 10.069l-.302.337-.408-.195c-.124-.053-12.271-5.807-24.453-5.807a.63.63 0 0 1-.621-.621.63.63 0 0 1 .621-.621c11.188 0 22.322 4.724 24.577 5.736 1.758-1.865 10.282-10.531 15.805-10.14 1.385.089 2.486.728 3.285 1.9 4.404 6.411.834 29.727.408 32.461 1.03 1.651 2.859 4.226 3.783 4.67l1.225.586-1.243.551c-.604.266-1.296.639-1.776.976 1.048.409 2.451 1.084 2.717 1.989l.213.693-.728.089c-.728.088-1.847.39-2.344.745.533 1.439 1.971 4.404 3.587 4.493l1.794.089-1.474 1.03s-.533.373-1.225.675l1.225.799-1.101.444c-.693.284-1.527.763-1.829 1.083.213.479.515.906.675.923l3.498.444-3.427.782c-1.208.284-2.629.923-2.7 1.385-.071 1.509.125 3.196.409 3.445l.834.248-.568.693c-.284.408-7.245 9.838-16.515 11.667 0 0-3.924 1.296-6.339 5.7-.053.178-2.273 6.269-4.28 8.435l-1.598 1.723.533-2.291c.106-.444.266-1.492.213-2.468-1.439 1.42-4.457 4.031-7.21 4.031h-.213c-.675 0-1.19.195-1.616.603-1.048 1.03-1.03 3.037-1.03 3.055l.036 2.273-1.19-1.936-.568-.959c-.142.746-.267 1.51-.267 1.74v1.634l-.071-.018zm-5.736-15.218c-.781 0-.852-.178-.923-.533-.018-.107-.089-.604.586-.799.177-.053.373 0 .515.089.408-.018 1.278-.089 3.09-.302 4.493-.515 6.57-1.687 9.039-3.836.834-.71 1.793-1.048 2.912-1.438 2.468-.853 5.523-1.9 9.145-7.796 1.758-2.841 2.131-5.754 1.137-8.648-1.35-3.907-4.706-6.322-5.328-6.553-1.527-.568-7.831-4.564-8.097-4.723a.63.63 0 0 1-.196-.853.63.63 0 0 1 .853-.195c1.793 1.136 6.694 4.173 7.866 4.617 1.155.426 4.653 3.214 6.074 7.316 1.136 3.25.71 6.517-1.243 9.696-3.854 6.268-7.299 7.458-9.803 8.328-1.03.356-1.864.64-2.504 1.208-2.61 2.255-4.919 3.587-9.713 4.12-1.794.195-2.806.302-3.427.302h.017z"/><path d="M126.561 116.154c-.196 0-.373-.089-.498-.248a.62.62 0 0 1 .125-.87c.373-.285 9.269-6.855 13.869-6.003 4.191.782 22.161-2.628 22.339-2.663.355-.071.657.16.728.497s-.16.657-.497.728c-.746.142-18.362 3.498-22.801 2.664-3.356-.622-10.442 3.96-12.892 5.771a.59.59 0 0 1-.373.124zm.887 2.345c-.142 0-.301-.054-.408-.16-.249-.231-.284-.622-.053-.87.16-.178 4.049-4.475 8.381-3.801l3.445.693c2.309.533 4.298.994 6.855.568 3.694-.604 14.632-.87 17.154.728a.63.63 0 0 1 .195.853c-.177.284-.568.373-.852.195-1.971-1.243-12.004-1.243-16.284-.551-2.806.462-4.901-.017-7.334-.586-1.048-.248-2.131-.497-3.356-.674-3.658-.569-7.228 3.356-7.263 3.391-.124.142-.302.214-.462.214h-.018zm9.341 4.35c-.124 0-.23-.036-.337-.107-1.58-1.047-5.967-1.367-7.511-1.402a.61.61 0 0 1-.604-.64c0-.337.248-.675.639-.604.249 0 5.967.16 8.169 1.616.284.196.373.569.177.871-.124.177-.319.284-.515.284l-.018-.018zm12.129 14.419l-4.848-4.226c-.746-.657-3.161-1.385-5.114-1.989l-3.001-.994c-2.078-.853-8.524-4.422-8.808-4.582-.302-.16-.409-.55-.249-.852s.551-.409.853-.249l8.665 4.511c.693.284 1.758.603 2.895.959 2.273.692 4.617 1.402 5.576 2.237l4.83 4.209-.817.941.018.035zm-26.494-14.454l-.462-1.634c1.119-.32 3.125-.746 4.013-.16.302.213.497.515.533.87l-1.687.178c.018.195.16.337.231.373-.302-.125-1.563.053-2.646.355l.018.018zm-2.043-30.579c-.408 0-.763-.018-1.012-.089l-.906-.178c-.692-.106-1.278-.195-1.58-.692-.284-.462-.089-.977-.036-1.154.32-.941 2.274-1.722 2.86-1.936 1.189-.444 5.362-1.723 8.79.284 1.101.657 2.095 1.367 1.811 2.22-.249.746-1.438 1.012-3.534.799-.746.124-4.351.728-6.393.728v.018zm-2.397-1.509c.124 0 .426.053.657.089l.994.178c.959.231 4.813-.302 7.015-.675h.089.088c.835.089 1.741.071 2.185-.018-.16-.16-.498-.408-1.119-.781-2.539-1.492-5.7-.835-6.943-.479-1.83.533-2.842 1.261-2.966 1.492-.053.142-.053.195-.053.195h.071-.018zm17.455.194l-.302-.231a4.54 4.54 0 0 1 .586.586l-.231-.302c.586.764.888 1.687 1.279 2.557a8.66 8.66 0 0 0 .746 1.314c.373.515.781 1.012 1.26 1.438l.48.391.497.373.799.533-.302-.231a2.62 2.62 0 0 1 .498.497l-.231-.302c.16.195.284.426.373.657l-.142-.355a4.31 4.31 0 0 1 .23.817l-.053-.391a3.1 3.1 0 0 1 0 .817l.053-.391c0 .089-.035.178-.053.284-.071.195-.071.408-.018.604 0 .195.071.391.178.551.213.319.533.568.888.692l.391.053c.266 0 .532-.071.745-.195l.302-.231c.178-.177.32-.408.391-.657.071-.284.107-.55.124-.835v-.444c-.035-.426-.089-.87-.248-1.279-.142-.408-.32-.799-.569-1.136-.159-.213-.319-.426-.515-.622a5.26 5.26 0 0 0-.692-.55l-.977-.675.302.231a7.75 7.75 0 0 1-1.207-1.208l.23.302a9.28 9.28 0 0 1-.639-.977l-.444-.959c-.284-.639-.533-1.314-.941-1.9l-.391-.515c-.053-.071-.124-.142-.177-.213-.213-.231-.462-.426-.711-.604-.159-.107-.355-.16-.55-.178a1.43 1.43 0 0 0-.852.142 1.52 1.52 0 0 0-.64.568l-.142.355c-.071.266-.071.533 0 .799l.142.355a1.54 1.54 0 0 0 .533.533v-.071zm9.963 27.756c-.107.124-.196.249-.284.373-.018.036-.054.071-.071.107a3.4 3.4 0 0 0-.231.532c-.054.142-.089.284-.125.426a11.03 11.03 0 0 0-.124 1.315c0 .177 0 .355-.035.532l.053-.39c-.018.177-.071.355-.142.532l.142-.355a1.05 1.05 0 0 1-.178.302l.231-.302s-.018.036-.035.053l2.557 1.048v-.231l-.054.391c0-.124.054-.231.089-.337l-.142.355c.142-.32.355-.586.515-.888.089-.178.16-.355.231-.551.018-.071.053-.142.053-.213.036-.16.054-.319.071-.497v-.124-.107c0-.16-.035-.337-.071-.497 0-.036 0-.071-.035-.107l-.16-.39c0-.018 0-.036-.018-.054-.071-.142-.177-.266-.284-.372-.018-.036-.053-.071-.089-.089-.284-.267-.657-.426-1.047-.426s-.764.142-1.048.426l-.231.302c-.142.231-.213.497-.195.745l.053.391c.071.249.195.48.391.657l.088.089-.23-.302a1.03 1.03 0 0 0 .071.142l-.142-.355.053.178-.053-.391v.284l.053-.391a1.29 1.29 0 0 1-.125.427l.143-.356c-.107.267-.285.498-.427.746l-.106.196a2.9 2.9 0 0 0-.213.55c-.054.195-.071.391-.089.586v.231l.053.391.142.355.231.302c.124.142.302.248.48.302.177.071.372.106.568.106a1.54 1.54 0 0 0 .568-.106c.178-.054.355-.16.48-.302.106-.125.195-.249.284-.373.017-.036.053-.071.071-.107a1.59 1.59 0 0 0 .16-.355 2.45 2.45 0 0 0 .195-.604c.071-.444.106-.87.124-1.314 0-.177.018-.355.036-.533l-.054.391a2 2 0 0 1 .142-.533l-.142.356c.054-.107.107-.214.178-.302l-.231.302.036-.036c.266-.284.426-.657.426-1.048a1.46 1.46 0 0 0-.426-1.047l-.302-.231c-.231-.142-.497-.196-.746-.196l-.391.054c-.248.071-.479.195-.657.39l-.035-.053zm1.81-15.325l-.142-.338c.125.284.196.604.249.906l-.053-.391c.053.338.053.693 0 1.03l.053-.39c-.036.319-.124.639-.249.923l.142-.355s-.035.071-.035.089c-.107.159-.16.355-.178.55-.035.284 0 .586.142.853.125.266.32.479.569.639l.355.142c.266.071.532.071.799 0l.355-.142c.213-.124.408-.32.533-.533.142-.284.248-.604.355-.906.089-.319.142-.657.16-.994.017-.195.017-.408 0-.604-.018-.337-.071-.657-.142-.994-.071-.355-.214-.675-.356-.995-.142-.248-.372-.461-.639-.586s-.568-.177-.852-.124a1.01 1.01 0 0 0-.551.178l-.302.23c-.177.178-.319.409-.39.658l-.054.39c0 .267.071.533.196.746l.035.018z"/><path d="M148.846 111.395s0 .054-.017.089c-.036.16-.054.302-.054.462v.089c0 .159.036.319.071.461 0 .054.036.107.054.16l.213.497.355.64-.142-.356c.071.178.124.356.142.551l-.053-.391a3.58 3.58 0 0 1 0 .604l.053-.391a1.99 1.99 0 0 1-.142.533l.142-.355-.107.231 2.575 1.509c.213-.479.409-.977.48-1.491a6.1 6.1 0 0 0 .089-.977c0-.213 0-.409-.036-.604-.053-.355-.089-.71-.195-1.048a1.64 1.64 0 0 0-.693-.888c-.16-.106-.355-.159-.55-.177-.196-.053-.409-.036-.604.035l-.355.142c-.213.125-.409.32-.533.533l-.142.355c-.071.267-.071.533 0 .799.071.214.106.427.142.657l-.053-.39c.053.39.053.781 0 1.154l.053-.391c-.053.356-.142.711-.284 1.048l.142-.355s-.036.071-.053.124c-.107.16-.16.355-.178.551-.035.284 0 .586.142.852a1.52 1.52 0 0 0 .568.639l.356.142c.266.072.532.072.799 0l.355-.142c.213-.124.408-.319.533-.532.106-.196.195-.391.266-.586.035-.089.071-.178.089-.267.035-.16.071-.302.071-.461l.053-.48v-.284c-.018-.213-.053-.444-.089-.657a1.51 1.51 0 0 0-.089-.266c-.071-.196-.159-.391-.266-.586s-.231-.373-.32-.586l.142.355-.071-.249.054.391v-.178l-.054.391s0-.071.018-.089c.071-.195.071-.408.018-.604a1.01 1.01 0 0 0-.178-.55c-.213-.32-.532-.568-.888-.693l-.39-.053c-.267 0-.533.071-.746.195l-.302.231a1.56 1.56 0 0 0-.391.657zm-9.998 13.976v.426c0 .391.178.764.444 1.048a1.48 1.48 0 0 0 1.048.444l.391-.053c.248-.072.479-.196.657-.391l.231-.302c.142-.231.195-.497.195-.746v-.426c0-.391-.178-.764-.444-1.048a1.45 1.45 0 0 0-1.048-.444l-.39.054c-.249.071-.48.195-.657.39l-.231.302c-.142.231-.213.497-.196.746zm-2.77 2.202c-.248.479-.426.976-.568 1.491-.053.196-.089.409-.124.622l-.107.994.018.711c0 .39.178.763.444 1.047.284.285.657.444 1.048.444l.39-.053c.249-.071.48-.195.657-.391l.231-.301c.142-.231.213-.498.196-.746a5.29 5.29 0 0 1 .035-1.297l-.053.391c.071-.497.195-.994.391-1.474l-.143.355c.036-.106.089-.195.143-.302.106-.159.159-.355.177-.55a1.01 1.01 0 0 0-.035-.604c-.036-.195-.142-.373-.267-.515-.106-.16-.248-.302-.426-.39l-.355-.143c-.266-.071-.533-.071-.799 0l-.355.143c-.213.124-.409.319-.533.532l.035.036zm6.962-1.314a13.19 13.19 0 0 0-1.794 1.491c-.266.284-.426.657-.426 1.048s.142.764.426 1.048l.302.231c.231.142.498.213.746.195l.391-.053c.248-.071.479-.196.657-.391.337-.355.71-.675 1.083-.977l-.302.231c.125-.106.267-.195.409-.302a1.47 1.47 0 0 0 .586-.639c.124-.266.177-.568.124-.852a1.01 1.01 0 0 0-.178-.551l-.23-.302a1.57 1.57 0 0 0-.657-.391l-.391-.053a1.5 1.5 0 0 0-.746.196v.071zm-.799-23.228l.035.195-.053-.39c.053.461.089.923.089 1.385 0 .39.178.763.444 1.047.284.285.657.444 1.048.444l.39-.053c.249-.071.48-.195.657-.391l.231-.301c.142-.231.196-.498.196-.746 0-.657-.071-1.332-.178-1.989-.124-.373-.355-.675-.693-.888-.159-.107-.355-.16-.55-.178a1.01 1.01 0 0 0-.604.036l-.355.142c-.213.124-.408.32-.533.533l-.142.355c-.071.266-.071.533 0 .799h.018zM121.108 79.2l-1.207 1.261a1.1 1.1 0 0 0-.32.781c0 .302.124.568.32.799.213.195.497.337.799.32a1.11 1.11 0 0 0 .799-.32l1.207-1.261a1.11 1.11 0 0 0 .32-.799c0-.302-.124-.568-.32-.799-.213-.195-.497-.337-.799-.32-.302 0-.586.107-.799.32v.018z"/><path d="M122.387 81.207h.018l-.302-.035h.036l-.267-.106h.036l-.231-.178.018.018-.178-.231s.018.035.036.053l-.107-.266a.69.69 0 0 0 .036.106l-.036-.302v.177l.036-.302a3.23 3.23 0 0 1-.089.391l-.124.409.106-.266c-.053.124-.106.231-.195.337l.177-.231s-.124.142-.195.195l.231-.178-.213.124.266-.106-.195.053.302-.035h-.178l.302.035h-.053a.76.76 0 0 0-.444-.018 1.25 1.25 0 0 0-.586.266c-.16.142-.284.32-.355.533l-.036.302c0 .195.053.391.16.568.16.231.391.444.675.515a1.61 1.61 0 0 0 .408.053c.142 0 .284 0 .426-.053a1.8 1.8 0 0 0 .515-.195c.036-.018.089-.053.125-.071.106-.089.23-.16.337-.266l.107-.106c.088-.106.177-.213.248-.337.107-.178.178-.355.249-.533l.106-.32a1.93 1.93 0 0 0 .071-.32c0-.053.018-.089.036-.142.035-.142.035-.266.053-.408v-.071c0-.124-.035-.231-.053-.355-.036-.124-.071-.249-.142-.373-.053-.089-.124-.178-.196-.266 0 0-.159-.142-.248-.195h-.018c-.089-.053-.177-.089-.284-.124l-.32-.035h-.017a1.19 1.19 0 0 0-1.119 1.119 1.14 1.14 0 0 0 .32.799c.213.195.497.337.799.32l-.054.053zm-7.139-5.931c-.337.266-.603.604-.852.959s-.426.746-.586 1.154c-.053.142-.053.302-.018.444 0 .142.054.284.125.408a1.22 1.22 0 0 0 .674.515l.302.035a1.1 1.1 0 0 0 .569-.16l.23-.178c.142-.142.231-.302.285-.497l.053-.16-.107.266a4.27 4.27 0 0 1 .497-.87l-.177.231a3.76 3.76 0 0 1 .586-.604c.195-.213.32-.497.32-.799s-.125-.568-.32-.799c-.213-.195-.497-.337-.799-.337l-.302.035c-.195.053-.355.16-.497.284l.017.071z"/><path d="M113.704 75.009s-.089.071-.124.124c-.018.018-.036.035-.053.071-.089.124-.196.231-.285.373-.035.053-.071.089-.088.142 0 .018-.018.053-.036.071-.071.142-.124.284-.178.426-.071.195-.071.391-.017.604 0 .195.071.391.177.55a1.8 1.8 0 0 0 .888.693l.391.053a1.51 1.51 0 0 0 .746-.195l.302-.231a1.55 1.55 0 0 0 .39-.657c0-.018 0-.035.018-.071l-.142.355c.035-.089.089-.195.16-.266l-.231.302s.124-.142.195-.195a1.05 1.05 0 0 0 .302-.479 1.26 1.26 0 0 0 .124-.568 1.26 1.26 0 0 0-.124-.568 1.05 1.05 0 0 0-.302-.48l-.302-.231a1.27 1.27 0 0 0-.745-.195l-.391.053c-.249.071-.48.195-.657.391l-.018-.071zm-8.737-7.263l-.568 5.523v2.664c.053 1.172.195 2.344.355 3.516l.497 3.285-.089-.675c.196 1.438.302 2.894.125 4.333l.088-.675c-.053.444-.159.888-.266 1.314a1.95 1.95 0 0 0-.053 1.012c0 .337.124.657.302.941.355.55.888.959 1.509 1.172l.675.089a2.52 2.52 0 0 0 1.278-.355l.515-.391a2.56 2.56 0 0 0 .657-1.119c.231-.781.338-1.598.409-2.397.053-.586.071-1.172.035-1.74-.053-1.421-.284-2.824-.497-4.209l-.302-1.989.089.675a32.41 32.41 0 0 1-.284-4.351c0-1.367.124-2.717.284-4.067l.32-2.522c0-.337-.054-.675-.213-.977-.107-.32-.285-.586-.533-.817-.231-.249-.497-.426-.817-.533a1.87 1.87 0 0 0-.977-.213l-.674.089c-.427.124-.817.337-1.119.657l-.391.515c-.231.391-.355.835-.355 1.279v-.035z"/><path d="M109.372 67.817l1.154.107 1.048.089-.391-.053c.213.018.408.071.604.16l-.356-.142c.107.053.214.107.302.178l-.302-.231s.125.106.178.178l-.231-.302s.089.124.107.178l-.142-.355s.053.142.053.231l-.053-.391v.266l.053-.391-.053.213.142-.355s-.071.142-.125.213l.231-.302c-.071.089-.16.178-.266.249l.302-.231c-.267.195-.551.337-.853.48-.142.071-.284.16-.426.249-.248.16-.479.355-.692.568-.213.231-.409.462-.569.71l-.301.48c-.249.444-.462.923-.64 1.421l-.444 1.296 2.93.391a12.67 12.67 0 0 1 .071-2.593l-.053.391a8.95 8.95 0 0 1 .231-1.208 1 1 0 0 0 .018-.604 1.01 1.01 0 0 0-.178-.55l-.231-.302c-.124-.142-.302-.249-.479-.302a.7.7 0 0 0-.373-.107c-.195-.053-.409-.035-.604.035l-.355.142a1.54 1.54 0 0 0-.533.533l-.16.266a4.09 4.09 0 0 0-.266.639 3.59 3.59 0 0 0-.16.621l-.231 1.403-.479 2.966-.266 1.669-.054.391.054.391.142.355a1.12 1.12 0 0 0 .39.426c.16.124.338.213.515.249.196.053.391.071.586.035.196 0 .391-.071.551-.178.035 0 .071-.035.106-.053.142-.089.267-.195.391-.302.107-.089.195-.195.284-.32.089-.106.178-.231.249-.355l.248-.586a2.75 2.75 0 0 0 .142-.55 9.5 9.5 0 0 0 .107-1.03 5.86 5.86 0 0 1 .053-.781l-.053.391c.035-.231.089-.444.178-.657l-.143.355c.071-.16.16-.302.249-.444l-.231.302c.107-.124.213-.249.338-.337l-.302.231a1.85 1.85 0 0 1 .408-.231l-.355.142c.142-.053.284-.089.426-.124l-.39.053c.142-.018.266-.018.408 0l-.391-.053c.125 0 .231.053.355.089l-.355-.142c.196.089.355.231.533.32.142.071.32.16.479.195l.409.053h.035.071c.356-.035.391-.035.657-.16.089-.035.196-.071.285-.124a2.84 2.84 0 0 0 .373-.302s.017-.035.035-.053c.089-.107.195-.231.266-.355l.054-.107.195-.479c.071-.213.089-.462.124-.675v-.32c-.017-.266-.071-.533-.106-.799-.036-.142-.053-.302-.071-.462l.053.391c-.018-.178-.035-.337 0-.515l-.053.391a1.43 1.43 0 0 1 .106-.391l-.142.355a1.5 1.5 0 0 1 .213-.355l-.231.302c.089-.107.196-.213.32-.302l-.302.231c.107-.089.231-.16.373-.213l-.355.142a1.6 1.6 0 0 1 .479-.124l-.39.053c.302-.035.586-.018.888.018l-.391-.053c.178.018.337.053.515.089a1 1 0 0 0 .604.018c.195 0 .39-.071.55-.178l.302-.231a1.05 1.05 0 0 0 .302-.479.7.7 0 0 0 .107-.373c.053-.195.035-.408-.036-.604l-.142-.355a1.53 1.53 0 0 0-.533-.533l-2.308-1.048c-.16-.107-.355-.16-.551-.178a1.31 1.31 0 0 0-.586.018c-.195.053-.373.142-.515.266a1.12 1.12 0 0 0-.39.426l-.142.355c-.072.266-.072.533 0 .799l.142.355c.124.213.319.409.532.533l2.309 1.048 1.154-2.735-.923-.142-.551-.035h-.266a4 4 0 0 0-.639.106 2.74 2.74 0 0 0-.746.302c-.054.035-.107.053-.16.089-.16.107-.302.231-.462.355-.195.177-.355.391-.515.604s-.248.462-.337.71c-.107.249-.125.55-.16.817v.302c0 .231.053.444.089.675l.106.621-.053-.391c.018.16.036.302 0 .462l.053-.391c0 .124-.053.231-.088.355l.142-.355-.107.213.231-.302-.107.106.302-.231s-.071.053-.106.053l.355-.142s-.053.018-.089.018l.391-.053h-.107l.391.053s-.089-.018-.124-.035l.355.142c-.178-.071-.32-.213-.48-.284l-.444-.195c-.035 0-.071-.035-.106-.035l-.213-.053c-.267-.035-.551-.089-.817-.053-.284.035-.551.053-.817.177-.266.107-.515.195-.746.373-.231.16-.462.337-.639.55s-.373.444-.497.693l-.249.586-.089.302a8.24 8.24 0 0 0-.142 1.154c0 .266-.018.533-.053.781l.053-.391c-.035.249-.089.48-.177.71l.142-.355c-.054.124-.125.249-.196.355l.231-.302-.177.195.301-.231-.159.106 2.202 1.687.426-2.753.444-2.752c.071-.444.142-.888.319-1.296l-.142.355c.054-.142.125-.266.213-.391l-2.734-1.154c-.142.604-.249 1.225-.302 1.847l-.089 1.492.036.852a1.26 1.26 0 0 0 .124.568 1.05 1.05 0 0 0 .302.479l.302.231c.159.106.355.16.55.178a.73.73 0 0 0 .391 0c.195 0 .39-.071.55-.178l.302-.231c.178-.177.32-.408.391-.657l.55-1.527-.142.355c.196-.48.444-.959.764-1.367l-.231.302c.178-.231.373-.426.586-.604l-.302.231c.32-.249.71-.391 1.048-.604l.248-.16c.178-.124.356-.249.515-.408a2.57 2.57 0 0 0 .657-1.101c.036-.16.071-.337.071-.515v-.16c0-.178-.035-.355-.071-.533a.33.33 0 0 0-.035-.142 1.22 1.22 0 0 1-.089-.231l-.106-.231-.071-.124c-.125-.178-.249-.355-.409-.48s-.337-.284-.533-.373c-.195-.107-.408-.178-.603-.249-.302-.089-.622-.124-.942-.16l-2.095-.178a1.26 1.26 0 0 0-.568.124.97.97 0 0 0-.48.302 1.06 1.06 0 0 0-.302.479 1.07 1.07 0 0 0-.124.568l.053.391a1.39 1.39 0 0 0 .391.657l.302.231c.231.142.497.213.746.195l-.053.018z"/><path d="M105.589 75.773c.178.142.444.391.693.515a5.99 5.99 0 0 0 .781.32c.266.089.639.107.87.142h.213.231l.888-.124a2.02 2.02 0 0 0 .444-.107c.32-.071.621-.231.87-.462a1.94 1.94 0 0 0 .657-.71c.178-.284.284-.604.302-.941a1.96 1.96 0 0 0-.053-1.012l-.249-.604a2.46 2.46 0 0 0-.906-.906l-.603-.249a2.49 2.49 0 0 0-1.35 0c-.178.053-.373.089-.55.107l.674-.089c-.177.018-.355.035-.532 0l.674.089c-.106 0-.213-.035-.301-.089l.603.249-.231-.142.515.391c-.479-.479-1.118-.728-1.793-.728a2.57 2.57 0 0 0-1.794.71l-.39.515c-.231.391-.356.835-.356 1.279l.089.675c.125.426.338.817.657 1.119l-.053.053z"/><path d="M110.4 75.844a2.81 2.81 0 0 0 1.794-.746c.249-.231.426-.497.533-.817a1.87 1.87 0 0 0 .213-.977l-.089-.675c-.124-.426-.337-.817-.657-1.119l-.515-.391c-.391-.231-.835-.355-1.279-.355a2.81 2.81 0 0 0-1.793.746c-.249.231-.426.497-.533.817a1.87 1.87 0 0 0-.213.977l.089.675c.124.426.337.817.657 1.119l.515.391c.391.231.834.355 1.278.355z"/><path d="M108.607 77.886a2.81 2.81 0 0 0 1.794-.746c.249-.231.426-.497.533-.817a1.87 1.87 0 0 0 .213-.977l-.089-.675c-.124-.426-.337-.817-.657-1.119l-.515-.391c-.391-.231-.835-.355-1.279-.355a2.91 2.91 0 0 0-1.793.746c-.249.231-.426.497-.533.817a1.87 1.87 0 0 0-.213.977l.089.675c.124.426.337.817.657 1.119l.515.391c.391.231.835.355 1.278.355zm32.32 40.15s-.125 0-.178-.035a.41.41 0 0 1-.177-.533c.816-1.598 0-4.457-.018-4.493l-.107-.355.338-.142c.586-.231 1.154.018 1.616.373a6.06 6.06 0 0 0-.959-1.385l-.657-.675h2.148c-2.805-2.592-6.535-10.654-6.535-13.371 0-.213.178-.391.391-.391s.391.178.391.391c0 2.983 5.008 12.856 7.192 13.371l3.356.782h-5.168c.373.515.817 1.278.871 2.006.053.853.071 1.066-.338 1.101-.302.036-.426-.248-.444-.444-.266-.355-.763-.905-1.207-1.047.213.959.586 3.125-.142 4.581a.39.39 0 0 1-.356.213l-.017.053zm-43.223 1.617l.249.249c-.089-.071-.16-.16-.249-.249zm49.598-33.829c-.728 0-1.581-.48-2.238-.923-3.604-1.936-9.18-10.53-9.411-10.886l-.231-.355.266-.355c1.19-1.598 7.299-9.536 10.371-9.536h.16l.142.089c1.065.622 1.349 1.456 1.403 2.042.142 1.651-1.332 3.445-2.309 4.422 1.723.675 4.972 2.237 5.256 4.688.178 1.616-.976 3.214-3.462 4.777.905 1.918 1.971 4.777.887 5.736a1.24 1.24 0 0 1-.834.302zm-10.353-12.111c1.101 1.669 5.789 8.542 8.755 10.14 1.26.835 1.633.746 1.633.728.267-.391-.408-2.664-1.456-4.759l-.248-.515.497-.302c1.616-.941 3.516-2.38 3.338-3.853-.231-1.989-3.96-3.552-5.38-3.978l-1.084-.337.871-.728c.781-.657 2.77-2.681 2.646-4.102-.018-.249-.107-.621-.64-.977-1.935.284-6.357 5.274-8.95 8.666l.018.018zm-39.227 46.259l.249.249c-.089-.071-.16-.16-.249-.249z"/><path d="M105.393 68.12l.462 4.493c.107 1.438.107 2.894 0 4.333l-.266 2.664.053-.391c-.302 2.291-.764 4.635-.586 6.961.053.746.178 1.474.355 2.184.107.373.355.693.693.888.16.107.355.16.55.178.196.053.409.035.604-.018.355-.124.71-.337.888-.692a1.54 1.54 0 0 0 .142-1.154c-.107-.391-.178-.799-.231-1.208l.053.391c-.177-1.296-.106-2.593.036-3.889l.142-1.119-.053.391.657-5.913c.071-1.687 0-3.392-.178-5.079l-.337-3.054a1.26 1.26 0 0 0-.125-.568c-.071-.178-.177-.337-.301-.48a1.42 1.42 0 0 0-.48-.32 1.06 1.06 0 0 0-.568-.124c-.391 0-.781.142-1.048.444l-.231.302c-.142.231-.195.497-.195.746l-.036.035zm11.241 51.568l-.248.249c.089-.071.16-.16.248-.249zm5.931.426a.84.84 0 0 0 .533-.213.75.75 0 0 0 .213-.533.75.75 0 0 0-.213-.532c-.142-.142-.338-.213-.533-.213s-.391.071-.533.213a.75.75 0 0 0-.213.532.75.75 0 0 0 .213.533c.142.142.338.213.533.213zm-1.332 5.381a.84.84 0 0 0 .533-.213c.142-.142.213-.338.213-.533s-.071-.391-.213-.533-.338-.213-.533-.213-.391.071-.533.213-.213.338-.213.533.071.391.213.533.338.213.533.213zm5.345-5.168c.195 0 .391-.088.533-.213a.75.75 0 0 0 .213-.532.75.75 0 0 0-.213-.533c-.142-.142-.338-.213-.533-.213s-.391.071-.533.213a.75.75 0 0 0-.213.533.75.75 0 0 0 .213.532c.142.142.338.213.533.213zm-2.184-3.391c.196 0 .391-.089.533-.213.142-.143.213-.338.213-.533a.75.75 0 0 0-.213-.533c-.071-.071-.16-.124-.249-.16a.81.81 0 0 0-.284-.053c-.089 0-.195.018-.284.053a.75.75 0 0 0-.248.16c-.143.142-.214.337-.214.533a.75.75 0 0 0 .746.746zm.994 9.429c.196 0 .391-.089.533-.213.142-.142.213-.338.213-.533s-.071-.391-.213-.533a.74.74 0 0 0-.248-.159.8.8 0 0 0-.285-.054.8.8 0 0 0-.284.054.73.73 0 0 0-.248.159c-.142.142-.213.338-.213.533s.071.391.213.533a.75.75 0 0 0 .532.213z"/><path d="M110.471 67.107l-.124-.515-1.438 1.9c.266-.035.533-.018.799 0l-.391-.053a3.11 3.11 0 0 1 .906.249l-.355-.142a3.22 3.22 0 0 1 .675.391l-.302-.231.195.178-.231-.302.089.142-.142-.355a.77.77 0 0 0 .035.106l-.053-.391v.089l.053-.391s0 .053-.017.089l.142-.355s-.036.071-.054.089l.231-.302-.142.142.302-.231c-.213.16-.444.32-.621.533s-.356.426-.462.675-.231.515-.284.781c-.036.284-.089.568-.071.835 0 .178.035.337.071.515a.36.36 0 0 0 .017.124c.054.213.143.408.231.604a1.13 1.13 0 0 0 .391.426c.142.124.32.231.515.266l.391.053a1.26 1.26 0 0 0 .568-.124c.124-.035.231-.106.337-.195a1.13 1.13 0 0 0 .391-.426l.142-.355c.071-.266.071-.533 0-.799a6.05 6.05 0 0 0-.355-.941c-.142-.302-.355-.568-.568-.817-.178-.195-.373-.391-.586-.55l-.586-.408a4.88 4.88 0 0 1-.498-.337l.302.231c-.124-.089-.231-.195-.319-.302l.23.302-.142-.231.142.355-.071-.249.054.391c-.018-.178 0-.337 0-.497 0-.213-.036-.408-.054-.604-.035-.195-.124-.373-.213-.533-.053-.089-.106-.16-.159-.231a1.86 1.86 0 0 0-.178-.213 1.95 1.95 0 0 0-.781-.462 1.57 1.57 0 0 0-.906 0c-.302.071-.568.231-.781.462-.249.266-.338.444-.462.781 0 .018 0 .053-.018.071-.035.16-.053.32-.071.48v.444 1.066 1.207a1.27 1.27 0 0 0 .124.568 1.69 1.69 0 0 0 .302.479c.142.142.302.249.48.302a1.06 1.06 0 0 0 .568.124l.391-.053c.248-.071.479-.195.657-.391l.231-.302c.142-.231.195-.497.195-.746V68.12v-.693-.639l-.053.391s.017-.124.053-.178l-.142.355s.018-.053.035-.071l-.23.302.053-.053-.302.231s.035-.018.053-.035l-.355.142h.071l-.391.053h.054l-.391-.053s.053 0 .071.018l-.355-.142s.053.018.071.035l-.302-.231.089.089-.231-.302a1.06 1.06 0 0 0 .071.107l-.142-.355s.035.089.035.142l-.053-.391v.373a2.52 2.52 0 0 0 .053.728c0 .089.036.16.071.249.071.178.143.391.267.568a2.54 2.54 0 0 0 .39.479 2.64 2.64 0 0 0 .338.284l.586.409.515.337-.302-.231c.178.142.32.284.462.462l-.231-.302c.142.195.266.408.373.622l-.142-.355.142.426 2.734-1.154.143.337c-.054-.124-.089-.249-.107-.391l.053.391a2.26 2.26 0 0 1 0-.479l-.053.391c.018-.16.071-.302.124-.462l-.142.355a1.5 1.5 0 0 1 .213-.355l-.231.302c.072-.089.16-.178.249-.249l-.302.231.409-.32a.42.42 0 0 0 .124-.124c.213-.249.337-.444.444-.764.053-.177.089-.373.071-.55 0-.16-.036-.302-.071-.462v-.035l-.16-.373c0-.035-.035-.053-.053-.089l-.284-.373c-.036-.053-.089-.089-.125-.124a4.14 4.14 0 0 0-.444-.337c-.319-.213-.674-.373-1.047-.515a3.82 3.82 0 0 0-.746-.195c-.426-.071-.835-.124-1.261-.071a1.51 1.51 0 0 0-.746.195c-.177.089-.319.231-.426.391a1.1 1.1 0 0 0-.266.515c-.071.266-.071.533 0 .799l.124.515c.035.195.142.373.266.515.107.16.249.302.427.391.159.106.355.16.55.178a1.01 1.01 0 0 0 .604-.036l.355-.142a1.54 1.54 0 0 0 .533-.533l.142-.355c.071-.266.071-.533 0-.799h-.054zm16.978 3.623c-.089.089-.195.16-.284.249l.302-.231c-.302.231-.622.408-.959.568l.355-.142c-.373.16-.763.266-1.172.32l.391-.053c-.426.053-.853.053-1.279 0l.391.053c-.408-.053-.817-.16-1.19-.32l.355.142a4.24 4.24 0 0 1-.994-.568l.302.231c-.267-.195-.497-.426-.711-.693l.231.302c-.106-.142-.213-.302-.284-.462l.142.355a1.06 1.06 0 0 1-.089-.337l.054.391v-.284l-.054.391s.036-.177.072-.266l-.143.355s.071-.16.125-.213l-.231.302s.124-.142.213-.213l-.302.231a.93.93 0 0 1 .32-.178l-.355.142c.106-.053.23-.071.337-.089l-.391.053h.462l-.391-.053c.302.053.586.124.871.249l.887.355 1.776.728 1.012.408-1.047-1.048v.071l-.054-.391v.266l.054-.391c0 .089-.036.195-.071.284l.142-.355c-.036.106-.107.195-.16.284l.231-.302a1.63 1.63 0 0 1-.249.249l.302-.231a.92.92 0 0 1-.32.177l.356-.142c-.107.053-.214.071-.338.089l.391-.053h-.355l.39.053c-.16-.018-.302-.071-.444-.124l.356.142c-.196-.089-.391-.195-.551-.337l.302.231c-.231-.178-.426-.391-.622-.604a1.54 1.54 0 0 0-1.047-.426c-.391 0-.764.142-1.048.426l-.231.302c-.142.231-.195.497-.195.746l.053.391c.071.249.195.48.391.657.302.355.657.675 1.047.941a4.59 4.59 0 0 0 .782.391c.266.107.568.142.852.178h.249c.106 0 .195-.018.302-.036.088 0 .195-.018.302-.053.071 0 .142-.035.213-.071.195-.071.373-.142.55-.249a3.33 3.33 0 0 0 .48-.355l.159-.16c.107-.124.196-.249.285-.373.017-.035.053-.071.071-.106.106-.16.177-.355.248-.533.036-.071.053-.142.071-.213.036-.16.053-.32.071-.479v-.124-.107c0-.142-.035-.284-.053-.426v-.035c0-.071-.036-.124-.071-.195-.036-.124-.107-.231-.195-.337l-.125-.142-.302-.231-.373-.16-.071-.036-.159-.071-1.19-.479-1.19-.497-1.172-.479c-.195-.071-.391-.124-.586-.178-.053 0-.106 0-.142-.018l-.515-.071h-.284c-.16 0-.32.035-.497.071-.036 0-.071 0-.107.018-.195.053-.373.142-.55.213l-.213.106c-.036.018-.054.035-.089.053a2.98 2.98 0 0 0-.373.302c-.142.124-.249.302-.373.444a.43.43 0 0 0-.107.195 3.27 3.27 0 0 0-.177.444c0 .035-.018.071-.036.124a4.35 4.35 0 0 0-.071.497v.142.124c0 .178.036.355.071.515a2.92 2.92 0 0 0 .231.586 1.81 1.81 0 0 0 .284.462c.16.231.355.444.551.657.106.107.213.195.337.302.32.266.657.515 1.03.693.231.124.497.231.746.32l.408.142c.409.124.817.178 1.226.231a3.52 3.52 0 0 0 .87 0 6.44 6.44 0 0 0 .817-.106c.142-.018.284-.053.426-.089a7.02 7.02 0 0 0 1.154-.444 4 4 0 0 0 .746-.462l.621-.497c.143-.124.249-.302.302-.479a1.26 1.26 0 0 0 .125-.568 1.26 1.26 0 0 0-.125-.568c-.053-.178-.159-.355-.302-.48l-.301-.231c-.231-.142-.498-.213-.746-.195l-.391.053c-.249.071-.479.195-.657.391l-.089.053z"/><path d="M126.703 70.321l-.231-.728a1.88 1.88 0 0 0-.462-.87c-.178-.284-.426-.497-.71-.657-.284-.178-.604-.284-.941-.302-.338-.071-.693-.053-1.013.053l-.603.249a2.46 2.46 0 0 0-.906.906l-.249.604c-.124.444-.124.906 0 1.35l.231.71a1.88 1.88 0 0 0 .462.87c.177.284.426.497.71.657.284.178.604.284.941.302a1.96 1.96 0 0 0 1.013-.053l.603-.249a2.46 2.46 0 0 0 .906-.906l.249-.604c.124-.444.124-.906 0-1.35v.018zm23.937 25.323c-.249 0-.515-.124-.675-.337-.284-.373-2.788-3.729-3.107-5.54-.089-.462.23-.906.692-.977.444-.071.906.231.977.693.195 1.066 1.811 3.516 2.788 4.812a.85.85 0 0 1-.16 1.19c-.16.124-.337.178-.515.178v-.018zm-36.847 38.09c-.48 0-.959-.035-1.439-.142-2.184-.444-4.919-2.131-5.594-7.724-.035-.338.196-.657.551-.693a.61.61 0 0 1 .692.551c.569 4.741 2.842 7.05 6.464 6.73 3.676-.32 6.997-3.143 6.961-3.854-.23-.248-.195-.621.054-.852s.657-.178.888.071c.213.249.515.781.017 1.669-.976 1.705-4.883 4.227-8.594 4.227v.017zm7.458-26.494c-1.793 0-3.231-1.456-3.231-3.232v-4.333c0-1.793 1.456-3.232 3.231-3.232s3.232 1.456 3.232 3.232v4.333c0 1.793-1.456 3.232-3.232 3.232zm-28.076-.017c-1.794 0-3.232-1.457-3.232-3.232v-4.333c0-1.794 1.456-3.232 3.232-3.232s3.232 1.456 3.232 3.232v4.333c0 1.793-1.456 3.232-3.232 3.232z"/></g></g><defs><clipPath id="A"><path fill="#fff" d="M0 0h214v214H0z"/></clipPath><path id="B" d="M104.025 75.844a2.81 2.81 0 0 0 1.794-.746c.249-.231.426-.497.533-.817a1.87 1.87 0 0 0 .213-.977l-.089-.675c-.124-.426-.337-.817-.657-1.119l-.515-.391c-.391-.231-.835-.355-1.279-.355a2.81 2.81 0 0 0-1.793.746c-.249.231-.426.497-.533.817a1.87 1.87 0 0 0-.213.977l.089.675c.124.426.337.817.657 1.119l.515.391c.391.231.834.355 1.278.355z"/></defs></svg>