<svg width="257" height="257" viewBox="0 0 257 257" fill="none" xmlns="http://www.w3.org/2000/svg">
<g clip-path="url(#clip0_2507_1412)">
<path d="M255.521 128.511C255.521 198.657 198.657 255.521 128.511 255.521C58.3646 255.521 1.5 198.657 1.5 128.511C1.5 58.3646 58.3646 1.5 128.511 1.5C198.657 1.5 255.521 58.3646 255.521 128.511Z" fill="#2E27EF" stroke="black" stroke-width="3"/>
<path d="M147.107 36.2329L137.233 16.9755L135.1 34.7827L131.858 34.3988L134.588 11.6013L138.405 12.0492L148.045 30.7947L150.135 13.4567L153.376 13.8406L150.647 36.6381L147.128 36.2116L147.107 36.2329Z" fill="#E4F6C8"/>
<path d="M163.293 41.4791C161.736 40.882 160.414 40.0503 159.305 38.9627C158.196 37.875 157.343 36.6595 156.746 35.2519C156.149 33.8658 155.85 32.3729 155.808 30.7948C155.786 29.2167 156.064 27.6385 156.682 26.0817C157.279 24.5036 158.111 23.1601 159.199 22.0085C160.265 20.8569 161.481 19.9825 162.867 19.3427C164.232 18.7243 165.703 18.3831 167.239 18.3191C168.774 18.2551 170.331 18.5323 171.888 19.1295C173.444 19.7266 174.767 20.5583 175.876 21.6459C176.985 22.7336 177.838 23.9491 178.435 25.3353C179.032 26.7215 179.352 28.193 179.373 29.7498C179.394 31.3066 179.117 32.8848 178.499 34.4629C177.88 36.041 177.049 37.4059 175.982 38.5575C174.916 39.7091 173.679 40.6048 172.314 41.2446C170.928 41.8843 169.478 42.2256 167.942 42.2895C166.407 42.3535 164.85 42.0763 163.293 41.4791ZM164.424 38.5148C165.554 38.9413 166.663 39.1333 167.75 39.0693C168.817 39.0053 169.84 38.7281 170.8 38.2163C171.76 37.7258 172.613 37.022 173.338 36.169C174.063 35.2946 174.66 34.2923 175.087 33.162C175.513 32.0317 175.748 30.9014 175.79 29.7712C175.833 28.6409 175.641 27.5746 175.278 26.5722C174.895 25.5699 174.34 24.6742 173.572 23.9065C172.826 23.1388 171.866 22.5416 170.736 22.0938C169.606 21.6673 168.497 21.4753 167.409 21.5393C166.343 21.6033 165.319 21.8805 164.36 22.371C163.4 22.8615 162.568 23.5439 161.843 24.397C161.118 25.25 160.521 26.2524 160.094 27.3826C159.668 28.5129 159.412 29.6645 159.391 30.7948C159.348 31.9251 159.519 33.0127 159.902 34.015C160.286 35.0174 160.841 35.913 161.608 36.6808C162.355 37.4485 163.315 38.0456 164.445 38.4935L164.424 38.5148Z" fill="#E4F6C8"/>
<path d="M203.194 37.2139L183.404 51.609L180.184 49.455L185.92 25.6765L189.055 27.7665L184.129 47.1732L200.251 35.2519L203.173 37.2139H203.194Z" fill="#E4F6C8"/>
<path d="M204.815 59.0517C204.304 59.5635 203.707 59.7981 203.067 59.7981C202.427 59.7981 201.851 59.5209 201.339 59.009C200.849 58.4972 200.614 57.9214 200.614 57.2603C200.614 56.5992 200.87 56.0234 201.403 55.5116C201.936 54.9997 202.534 54.7438 203.195 54.7651C203.856 54.7651 204.432 55.0424 204.922 55.5542C205.434 56.066 205.669 56.6632 205.669 57.3029C205.669 57.9427 205.391 58.5399 204.858 59.0517H204.815Z" fill="#E4F6C8"/>
<path d="M212.791 84.6217L221.791 64.9377L206.479 74.2999L204.772 71.5275L224.371 59.5422L226.376 62.8264L217.632 82.0199L232.539 72.9137L234.245 75.686L214.646 87.6713L212.791 84.643V84.6217Z" fill="#E4F6C8"/>
<path d="M218.719 100.616C218.229 99.0167 218.058 97.4599 218.208 95.9245C218.357 94.389 218.805 92.9601 219.53 91.6166C220.255 90.2731 221.236 89.1215 222.451 88.1191C223.667 87.1168 225.096 86.3704 226.695 85.8799C228.295 85.3894 229.894 85.1975 231.451 85.3254C233.008 85.4534 234.458 85.8586 235.801 86.541C237.145 87.2234 238.318 88.1618 239.32 89.3347C240.323 90.5077 241.069 91.8938 241.56 93.472C242.05 95.0501 242.221 96.6282 242.071 98.1637C241.922 99.6992 241.474 101.128 240.77 102.45C240.045 103.772 239.086 104.945 237.891 105.926C236.676 106.907 235.268 107.654 233.669 108.166C232.069 108.656 230.47 108.848 228.913 108.72C227.335 108.592 225.885 108.187 224.541 107.505C223.198 106.822 222.004 105.884 221.001 104.711C219.999 103.538 219.253 102.152 218.762 100.574L218.719 100.616ZM221.748 99.6779C222.11 100.829 222.643 101.81 223.368 102.621C224.094 103.431 224.947 104.05 225.928 104.498C226.909 104.945 227.975 105.18 229.105 105.223C230.235 105.265 231.387 105.095 232.56 104.732C233.712 104.37 234.757 103.858 235.652 103.175C236.569 102.493 237.294 101.704 237.849 100.787C238.403 99.8698 238.744 98.8675 238.872 97.8012C239 96.7349 238.894 95.6259 238.531 94.453C238.169 93.3014 237.636 92.3204 236.91 91.51C236.185 90.6996 235.354 90.0811 234.373 89.6333C233.392 89.1854 232.347 88.9509 231.216 88.9082C230.086 88.8655 228.935 89.0362 227.783 89.3987C226.631 89.7612 225.586 90.2731 224.669 90.9555C223.752 91.6379 223.006 92.427 222.451 93.344C221.897 94.261 221.534 95.2634 221.406 96.3297C221.278 97.396 221.385 98.5049 221.748 99.6779Z" fill="#E4F6C8"/>
<path d="M246.785 129.278L223.219 122.667L222.921 118.807L245.143 108.571L245.441 112.324L227.165 120.492L246.507 125.76L246.785 129.257V129.278Z" fill="#E4F6C8"/>
<path d="M230.684 144.036C229.959 143.951 229.404 143.631 229.02 143.119C228.615 142.607 228.466 141.989 228.572 141.264C228.658 140.56 228.978 140.005 229.489 139.6C230.001 139.195 230.62 139.046 231.345 139.131C232.091 139.238 232.646 139.536 233.051 140.069C233.435 140.602 233.605 141.2 233.499 141.903C233.413 142.628 233.093 143.183 232.582 143.567C232.07 143.951 231.43 144.1 230.705 144.015L230.684 144.036Z" fill="#E4F6C8"/>
<path d="M215.542 166.172L236.569 161.054L219.743 154.827L220.873 151.777L242.413 159.732L241.09 163.336L220.617 168.348L236.996 174.404L235.865 177.475L214.326 169.521L215.563 166.194L215.542 166.172Z" fill="#E4F6C8"/>
<path d="M206.628 180.759C207.567 179.395 208.697 178.286 209.998 177.475C211.299 176.665 212.706 176.11 214.199 175.854C215.692 175.599 217.206 175.641 218.741 175.982C220.277 176.324 221.748 176.963 223.135 177.923C224.521 178.883 225.651 180.013 226.504 181.314C227.357 182.615 227.954 184.001 228.232 185.494C228.53 186.965 228.509 188.479 228.232 189.994C227.933 191.508 227.315 192.958 226.376 194.323C225.438 195.688 224.308 196.797 223.007 197.607C221.706 198.417 220.298 198.972 218.827 199.228C217.334 199.484 215.841 199.441 214.306 199.121C212.77 198.801 211.32 198.14 209.934 197.18C208.548 196.221 207.417 195.091 206.543 193.79C205.669 192.467 205.093 191.081 204.794 189.588C204.496 188.096 204.496 186.603 204.794 185.089C205.093 183.574 205.711 182.124 206.65 180.759H206.628ZM209.23 182.551C208.548 183.553 208.1 184.577 207.929 185.643C207.759 186.709 207.78 187.754 208.036 188.799C208.292 189.844 208.761 190.825 209.443 191.742C210.126 192.659 210.957 193.47 211.96 194.152C212.962 194.835 214.007 195.325 215.095 195.624C216.182 195.922 217.27 196.008 218.336 195.858C219.403 195.73 220.384 195.368 221.322 194.813C222.239 194.259 223.049 193.491 223.732 192.467C224.414 191.465 224.862 190.441 225.033 189.375C225.225 188.309 225.182 187.264 224.926 186.219C224.67 185.174 224.201 184.193 223.54 183.297C222.879 182.38 222.047 181.591 221.045 180.909C220.042 180.226 218.997 179.736 217.888 179.416C216.779 179.117 215.713 179.032 214.626 179.16C213.559 179.288 212.557 179.629 211.64 180.184C210.723 180.738 209.912 181.527 209.23 182.53V182.551Z" fill="#E4F6C8"/>
<path d="M201.595 220.532L192.147 197.97L194.984 195.325L216.8 206.393L214.028 208.974L196.285 199.697L204.175 218.144L201.595 220.532Z" fill="#E4F6C8"/>
<path d="M179.992 217.078C179.629 216.459 179.522 215.819 179.672 215.201C179.821 214.582 180.226 214.071 180.845 213.708C181.442 213.346 182.06 213.239 182.7 213.388C183.34 213.537 183.852 213.921 184.214 214.561C184.598 215.201 184.705 215.841 184.534 216.48C184.363 217.12 183.98 217.611 183.382 217.973C182.764 218.336 182.146 218.442 181.506 218.293C180.866 218.144 180.376 217.739 179.992 217.099V217.078Z" fill="#E4F6C8"/>
<path d="M153.228 218.89L170.267 232.219L164.723 215.158L167.836 214.156L174.938 235.994L171.291 237.188L154.678 224.222L160.074 240.835L156.96 241.837L149.858 219.999L153.228 218.912V218.89Z" fill="#E4F6C8"/>
<path d="M136.295 220.938C137.958 220.831 139.515 221.023 140.965 221.535C142.415 222.047 143.716 222.814 144.847 223.817C145.977 224.84 146.873 226.056 147.555 227.463C148.238 228.892 148.643 230.428 148.749 232.113C148.856 233.797 148.664 235.375 148.195 236.868C147.704 238.361 146.979 239.662 145.998 240.814C145.017 241.965 143.844 242.882 142.458 243.586C141.072 244.29 139.558 244.695 137.916 244.801C136.252 244.908 134.695 244.716 133.245 244.204C131.795 243.693 130.494 242.925 129.364 241.922C128.234 240.92 127.338 239.705 126.656 238.297C125.973 236.89 125.568 235.354 125.461 233.669C125.355 231.985 125.547 230.406 126.016 228.892C126.506 227.399 127.231 226.077 128.212 224.904C129.193 223.731 130.366 222.814 131.752 222.111C133.139 221.407 134.653 221.002 136.295 220.895V220.938ZM136.508 224.094C135.293 224.179 134.205 224.478 133.267 224.99C132.328 225.501 131.518 226.184 130.857 227.037C130.196 227.89 129.727 228.871 129.428 229.98C129.129 231.068 129.023 232.24 129.108 233.456C129.193 234.672 129.449 235.802 129.897 236.826C130.345 237.849 130.942 238.766 131.71 239.513C132.478 240.259 133.373 240.835 134.376 241.219C135.378 241.603 136.487 241.752 137.702 241.667C138.918 241.581 140.006 241.283 140.944 240.771C141.882 240.259 142.693 239.577 143.354 238.724C144.015 237.871 144.484 236.911 144.804 235.823C145.103 234.736 145.209 233.584 145.124 232.368C145.039 231.153 144.783 230.023 144.335 228.978C143.887 227.933 143.29 227.016 142.522 226.269C141.754 225.501 140.859 224.947 139.856 224.563C138.854 224.179 137.745 224.03 136.53 224.115L136.508 224.094Z" fill="#E4F6C8"/>
<path d="M101.917 241.645L113.753 220.234L117.57 220.831L122.411 244.823L118.679 244.247L114.947 224.584L105.372 242.2L101.896 241.667L101.917 241.645Z" fill="#E4F6C8"/>
<path d="M91.2758 222.537C91.5317 221.855 91.9582 221.385 92.5553 221.13C93.1525 220.874 93.7922 220.874 94.4533 221.13C95.1144 221.385 95.5836 221.812 95.8395 222.409C96.1168 223.006 96.1168 223.646 95.8609 224.328C95.6049 225.032 95.1571 225.501 94.56 225.757C93.9628 226.013 93.3231 226.013 92.662 225.757C91.9795 225.501 91.5103 225.075 91.2544 224.478C90.9985 223.881 90.9985 223.241 91.2544 222.537H91.2758Z" fill="#E4F6C8"/>
<path d="M73.2759 202.661L73.3612 224.307L83.3204 209.379L86.0288 211.192L73.2759 230.3L70.077 228.167L69.9703 207.097L60.267 221.62L57.5586 219.807L70.3116 200.699L73.2545 202.661H73.2759Z" fill="#E4F6C8"/>
<path d="M61.1202 190.612C62.2291 191.849 63.0395 193.192 63.5514 194.643C64.0632 196.093 64.2551 197.586 64.1485 199.1C64.0419 200.614 63.658 202.085 62.9756 203.493C62.2931 204.9 61.3121 206.18 60.0752 207.31C58.8383 208.441 57.4734 209.272 56.0019 209.805C54.5304 210.339 53.0376 210.594 51.5448 210.531C50.052 210.467 48.5805 210.125 47.173 209.486C45.7654 208.846 44.5072 207.907 43.3983 206.67C42.2893 205.434 41.4789 204.09 40.9671 202.64C40.4553 201.19 40.2633 199.697 40.3486 198.204C40.4339 196.69 40.8178 195.24 41.5002 193.832C42.1827 192.425 43.1423 191.145 44.4006 190.015C45.6588 188.885 47.0024 188.053 48.4952 187.498C49.988 186.944 51.4595 186.709 52.9736 186.752C54.4878 186.795 55.938 187.157 57.3455 187.797C58.753 188.437 60.0112 189.375 61.1202 190.612ZM58.7743 192.745C57.9639 191.849 57.0469 191.188 56.0659 190.761C55.0849 190.335 54.0399 190.121 52.9523 190.143C51.8647 190.143 50.7984 190.399 49.7534 190.825C48.7084 191.273 47.7274 191.913 46.8317 192.723C45.9361 193.534 45.211 194.451 44.6778 195.432C44.1447 196.413 43.8035 197.458 43.6968 198.524C43.5902 199.59 43.6968 200.635 44.0167 201.659C44.3366 202.683 44.9124 203.642 45.7228 204.559C46.5332 205.455 47.4502 206.116 48.4312 206.543C49.4122 206.969 50.4572 207.182 51.5235 207.161C52.5898 207.14 53.6561 206.926 54.7011 206.5C55.746 206.052 56.7057 205.434 57.6227 204.623C58.5184 203.813 59.2435 202.896 59.798 201.893C60.3525 200.891 60.6723 199.846 60.8003 198.78C60.9283 197.714 60.8003 196.647 60.5017 195.624C60.2032 194.6 59.606 193.64 58.7957 192.723L58.7743 192.745Z" fill="#E4F6C8"/>
<path d="M23.5654 176.473L47.7065 172.506L49.6045 175.876L33.7806 194.536L31.9252 191.252L45.0621 176.132L25.2928 179.522L23.5654 176.452V176.473Z" fill="#E4F6C8"/>
<path d="M31.9678 156.256C32.6502 156.042 33.29 156.085 33.8658 156.384C34.4416 156.682 34.8255 157.173 35.0601 157.877C35.2733 158.559 35.2307 159.177 34.9321 159.753C34.6335 160.329 34.143 160.734 33.4393 160.947C32.7355 161.161 32.0744 161.118 31.4986 160.82C30.9228 160.5 30.5176 160.009 30.3257 159.348C30.1124 158.666 30.1551 158.026 30.4536 157.45C30.7522 156.874 31.264 156.469 31.9678 156.256Z" fill="#E4F6C8"/>
<path d="M36.4462 129.811L19.5133 143.29L37.4059 141.861L37.6618 145.124L14.7576 146.936L14.4591 143.119L30.9441 129.961L13.542 131.347L13.2861 128.084L36.1903 126.271L36.4675 129.811H36.4462Z" fill="#E4F6C8"/>
<path d="M38.344 112.857C38.0668 114.499 37.5123 115.971 36.6806 117.272C35.8489 118.573 34.8039 119.66 33.567 120.513C32.3301 121.366 30.9226 121.985 29.3871 122.305C27.8516 122.646 26.2522 122.667 24.5887 122.39C22.9253 122.113 21.4325 121.558 20.089 120.748C18.7454 119.938 17.6365 118.914 16.7621 117.698C15.8664 116.483 15.2479 115.118 14.8854 113.625C14.5229 112.132 14.4802 110.554 14.7361 108.912C15.0134 107.27 15.5678 105.798 16.3995 104.498C17.2313 103.197 18.2762 102.109 19.4918 101.256C20.7287 100.382 22.1149 99.7845 23.6291 99.4433C25.1645 99.1021 26.7427 99.0807 28.4061 99.358C30.0695 99.6352 31.5624 100.19 32.9059 101C34.2494 101.81 35.3797 102.834 36.2754 104.05C37.1711 105.265 37.8109 106.63 38.1734 108.123C38.536 109.616 38.5786 111.194 38.3227 112.836L38.344 112.857ZM35.2304 112.346C35.4224 111.151 35.3797 110.021 35.1025 108.976C34.8252 107.931 34.3347 106.993 33.6523 106.161C32.9699 105.329 32.1382 104.626 31.1358 104.092C30.1335 103.538 29.0246 103.175 27.8303 102.983C26.636 102.791 25.4844 102.791 24.3542 102.983C23.2452 103.175 22.2216 103.559 21.3259 104.135C20.4302 104.711 19.6624 105.436 19.0653 106.332C18.4682 107.227 18.063 108.272 17.871 109.467C17.6791 110.661 17.7218 111.791 17.999 112.836C18.2762 113.881 18.7454 114.819 19.4278 115.651C20.0889 116.483 20.942 117.187 21.923 117.72C22.904 118.253 24.0129 118.637 25.2072 118.829C26.4015 119.021 27.5744 119.042 28.6833 118.829C29.8136 118.637 30.8159 118.253 31.7543 117.677C32.6713 117.101 33.439 116.376 34.0362 115.48C34.6333 114.585 35.0385 113.54 35.2304 112.346Z" fill="#E4F6C8"/>
<path d="M26.2101 74.577L44.2733 91.1047L42.8018 94.6874L18.3408 93.7917L19.7697 90.2943L39.7735 91.254L24.8879 77.8186L26.2315 74.5557L26.2101 74.577Z" fill="#E4F6C8"/>
<path d="M47.2797 68.6697C47.8768 69.0749 48.2393 69.6081 48.346 70.2478C48.4526 70.8876 48.3246 71.5061 47.9194 72.1032C47.5143 72.679 47.0024 73.0416 46.3626 73.1695C45.7229 73.2975 45.1044 73.1695 44.5073 72.743C43.8888 72.3165 43.5263 71.7833 43.4197 71.1435C43.313 70.5038 43.441 69.8853 43.8462 69.3095C44.2514 68.7124 44.7845 68.3498 45.4243 68.2432C46.0641 68.1152 46.6825 68.2858 47.301 68.691L47.2797 68.6697Z" fill="#E4F6C8"/>
<path d="M70.7595 55.8101L49.6894 50.9052L61.9092 64.042L59.5207 66.2599L43.8887 49.4337L46.7037 46.8106L67.2407 51.5663L55.3408 38.7706L57.7293 36.5527L73.3613 53.379L70.7595 55.7888V55.8101Z" fill="#E4F6C8"/>
<path d="M85.2831 46.7892C83.833 47.5996 82.3401 48.0688 80.8047 48.2181C79.2692 48.3674 77.7764 48.2181 76.3262 47.7702C74.876 47.3224 73.5325 46.5973 72.3169 45.6163C71.1013 44.614 70.0777 43.3771 69.2673 41.9056C68.4569 40.4341 67.9664 38.9199 67.7745 37.3631C67.5825 35.8063 67.6892 34.3135 68.1157 32.8633C68.5209 31.4132 69.2033 30.0696 70.1416 28.854C71.08 27.6385 72.2956 26.6361 73.7458 25.8257C75.1959 25.0153 76.6887 24.5462 78.2242 24.3969C79.7597 24.2476 81.2525 24.3969 82.7027 24.8234C84.1528 25.2499 85.4751 25.975 86.6907 26.956C87.9062 27.937 88.9086 29.1739 89.7189 30.6454C90.5293 32.1169 91.0412 33.6524 91.2331 35.2092C91.425 36.766 91.3184 38.2801 90.9132 39.7516C90.508 41.2231 89.8469 42.5453 88.8872 43.7609C87.9276 44.9765 86.7333 45.9788 85.2831 46.7892ZM83.7477 44.0168C84.814 43.441 85.667 42.6946 86.3068 41.8416C86.9466 40.9672 87.3944 40.0076 87.629 38.9626C87.8636 37.9176 87.8849 36.83 87.693 35.6997C87.501 34.5694 87.1172 33.4818 86.52 32.4155C85.9442 31.3492 85.2192 30.4322 84.3874 29.6858C83.5557 28.9393 82.6174 28.3849 81.6151 28.0223C80.6127 27.6598 79.5678 27.5318 78.4801 27.6171C77.4138 27.7024 76.3262 28.0223 75.2599 28.6194C74.1936 29.1953 73.3406 29.9417 72.7008 30.7947C72.061 31.6691 71.6131 32.6074 71.3786 33.6524C71.144 34.6974 71.1013 35.785 71.2933 36.8939C71.4852 38.0029 71.8691 39.0905 72.4449 40.1568C73.0207 41.2231 73.7457 42.1402 74.5988 42.9079C75.4518 43.6756 76.3689 44.2301 77.3925 44.5926C78.4162 44.9552 79.4611 45.1045 80.5274 45.0192C81.5937 44.9339 82.6814 44.614 83.7477 44.0168Z" fill="#E4F6C8"/>
<path d="M107.76 13.5421L105.99 37.9391L102.279 39.0054L87.8203 19.2575L91.4457 18.2125L103.09 34.5056L104.391 14.5017L107.781 13.5208L107.76 13.5421Z" fill="#E4F6C8"/>
<path d="M125.418 26.423C125.461 27.1481 125.269 27.7452 124.842 28.2357C124.416 28.7262 123.84 29.0034 123.115 29.0461C122.411 29.0887 121.814 28.8968 121.302 28.4703C120.812 28.0437 120.535 27.4679 120.471 26.7429C120.428 25.9964 120.62 25.378 121.046 24.8875C121.494 24.397 122.049 24.1198 122.753 24.0771C123.478 24.0345 124.075 24.2264 124.565 24.6529C125.056 25.0794 125.333 25.6552 125.376 26.4016L125.418 26.423Z" fill="#E4F6C8"/>
<path d="M127.85 186.304C120.066 186.304 113.028 184.769 106.715 181.698C100.403 178.627 95.434 174.383 91.7446 168.966C88.0765 163.549 86.0718 157.429 85.752 150.647H102.365C102.685 154.806 103.986 158.452 106.225 161.587C108.464 164.701 111.428 167.132 115.097 168.817C118.765 170.523 123.009 171.376 127.828 171.376C133.757 171.376 138.641 170.31 142.543 168.177C146.425 166.045 149.368 163.144 151.329 159.476C153.291 155.808 154.294 151.671 154.294 147.064C154.294 142.906 153.249 139.003 151.18 135.399C149.09 131.774 146.062 128.895 142.053 126.762C138.043 124.629 133.309 123.563 127.828 123.563C122.347 123.563 117.528 124.608 113.369 126.677C109.211 128.767 105.756 132.051 103.005 136.529L89.6973 132.413L100.552 66.4946H164.338V81.2949H112.388L106.63 117.123C110.256 114.393 114.009 112.346 117.89 111.045C121.772 109.722 125.909 109.083 130.302 109.083C139.067 109.083 146.488 110.831 152.588 114.35C158.666 117.848 163.336 122.497 166.556 128.233C169.798 133.992 171.397 140.261 171.397 147.064C171.397 152.332 170.438 157.322 168.518 162.014C166.599 166.727 163.784 170.928 160.052 174.596C156.32 178.264 151.756 181.143 146.318 183.233C140.901 185.323 134.738 186.347 127.828 186.347L127.85 186.304Z" fill="#E4F6C8"/>
</g>
<defs>
<clipPath id="clip0_2507_1412">
<rect width="257" height="257" fill="white"/>
</clipPath>
</defs>
</svg>
