<svg width="257" height="257" viewBox="0 0 257 257" fill="none" xmlns="http://www.w3.org/2000/svg">
<g clip-path="url(#clip0_2507_1480)">
<path d="M255.521 127.511C255.521 197.657 198.657 254.521 128.511 254.521C58.3646 254.521 1.5 197.657 1.5 127.511C1.5 57.3646 58.3646 0.5 128.511 0.5C198.657 0.5 255.521 57.3646 255.521 127.511Z" fill="#F64037" stroke="black" stroke-width="3"/>
<path d="M147.107 35.2329L137.233 15.9755L135.1 33.7827L131.858 33.3988L134.588 10.6013L138.405 11.0492L148.045 29.7947L150.135 12.4567L153.376 12.8406L150.647 35.6381L147.128 35.2116L147.107 35.2329Z" fill="#E4F6C8"/>
<path d="M163.293 40.4791C161.736 39.882 160.414 39.0503 159.305 37.9627C158.196 36.875 157.343 35.6595 156.746 34.2519C156.149 32.8658 155.85 31.3729 155.808 29.7948C155.786 28.2167 156.064 26.6385 156.682 25.0817C157.279 23.5036 158.111 22.1601 159.199 21.0085C160.265 19.8569 161.481 18.9825 162.867 18.3427C164.232 17.7243 165.703 17.3831 167.239 17.3191C168.774 17.2551 170.331 17.5323 171.888 18.1295C173.444 18.7266 174.767 19.5583 175.876 20.6459C176.985 21.7336 177.838 22.9491 178.435 24.3353C179.032 25.7215 179.352 27.193 179.373 28.7498C179.394 30.3066 179.117 31.8848 178.499 33.4629C177.88 35.041 177.049 36.4059 175.982 37.5575C174.916 38.7091 173.679 39.6048 172.314 40.2446C170.928 40.8843 169.478 41.2256 167.942 41.2895C166.407 41.3535 164.85 41.0763 163.293 40.4791ZM164.424 37.5148C165.554 37.9413 166.663 38.1333 167.75 38.0693C168.817 38.0053 169.84 37.7281 170.8 37.2163C171.76 36.7258 172.613 36.022 173.338 35.169C174.063 34.2946 174.66 33.2923 175.087 32.162C175.513 31.0317 175.748 29.9014 175.79 28.7712C175.833 27.6409 175.641 26.5746 175.278 25.5722C174.895 24.5699 174.34 23.6742 173.572 22.9065C172.826 22.1388 171.866 21.5416 170.736 21.0938C169.606 20.6673 168.497 20.4753 167.409 20.5393C166.343 20.6033 165.319 20.8805 164.36 21.371C163.4 21.8615 162.568 22.5439 161.843 23.397C161.118 24.25 160.521 25.2524 160.094 26.3826C159.668 27.5129 159.412 28.6645 159.391 29.7948C159.348 30.9251 159.519 32.0127 159.902 33.015C160.286 34.0174 160.841 34.913 161.608 35.6808C162.355 36.4485 163.315 37.0456 164.445 37.4935L164.424 37.5148Z" fill="#E4F6C8"/>
<path d="M203.194 36.2139L183.404 50.609L180.184 48.455L185.92 24.6765L189.055 26.7665L184.129 46.1732L200.251 34.2519L203.173 36.2139H203.194Z" fill="#E4F6C8"/>
<path d="M204.815 58.0517C204.304 58.5635 203.707 58.7981 203.067 58.7981C202.427 58.7981 201.851 58.5209 201.339 58.009C200.849 57.4972 200.614 56.9214 200.614 56.2603C200.614 55.5992 200.87 55.0234 201.403 54.5116C201.936 53.9997 202.534 53.7438 203.195 53.7651C203.856 53.7651 204.432 54.0424 204.922 54.5542C205.434 55.066 205.669 55.6632 205.669 56.3029C205.669 56.9427 205.391 57.5399 204.858 58.0517H204.815Z" fill="#E4F6C8"/>
<path d="M212.791 83.6217L221.791 63.9377L206.479 73.2999L204.772 70.5275L224.371 58.5422L226.376 61.8264L217.632 81.0199L232.539 71.9137L234.245 74.686L214.646 86.6713L212.791 83.643V83.6217Z" fill="#E4F6C8"/>
<path d="M218.719 99.6162C218.229 98.0167 218.058 96.4599 218.208 94.9245C218.357 93.389 218.805 91.9601 219.53 90.6166C220.255 89.2731 221.236 88.1215 222.451 87.1191C223.667 86.1168 225.096 85.3704 226.695 84.8799C228.295 84.3894 229.894 84.1975 231.451 84.3254C233.008 84.4534 234.458 84.8586 235.801 85.541C237.145 86.2234 238.318 87.1618 239.32 88.3347C240.323 89.5077 241.069 90.8938 241.56 92.472C242.05 94.0501 242.221 95.6282 242.071 97.1637C241.922 98.6992 241.474 100.128 240.77 101.45C240.045 102.772 239.086 103.945 237.891 104.926C236.676 105.907 235.268 106.654 233.669 107.166C232.069 107.656 230.47 107.848 228.913 107.72C227.335 107.592 225.885 107.187 224.541 106.505C223.198 105.822 222.004 104.884 221.001 103.711C219.999 102.538 219.253 101.152 218.762 99.5735L218.719 99.6162ZM221.748 98.6779C222.11 99.8295 222.643 100.81 223.368 101.621C224.094 102.431 224.947 103.05 225.928 103.498C226.909 103.945 227.975 104.18 229.105 104.223C230.235 104.265 231.387 104.095 232.56 103.732C233.712 103.37 234.757 102.858 235.652 102.175C236.569 101.493 237.294 100.704 237.849 99.7868C238.403 98.8698 238.744 97.8675 238.872 96.8012C239 95.7349 238.894 94.6259 238.531 93.453C238.169 92.3014 237.636 91.3204 236.91 90.51C236.185 89.6996 235.354 89.0811 234.373 88.6333C233.392 88.1854 232.347 87.9509 231.216 87.9082C230.086 87.8655 228.935 88.0362 227.783 88.3987C226.631 88.7612 225.586 89.2731 224.669 89.9555C223.752 90.6379 223.006 91.427 222.451 92.344C221.897 93.261 221.534 94.2634 221.406 95.3297C221.278 96.396 221.385 97.5049 221.748 98.6779Z" fill="#E4F6C8"/>
<path d="M246.785 128.278L223.219 121.667L222.921 117.807L245.143 107.571L245.441 111.324L227.165 119.492L246.507 124.76L246.785 128.257V128.278Z" fill="#E4F6C8"/>
<path d="M230.684 143.036C229.959 142.951 229.404 142.631 229.02 142.119C228.615 141.607 228.466 140.989 228.572 140.264C228.658 139.56 228.978 139.005 229.489 138.6C230.001 138.195 230.62 138.046 231.345 138.131C232.091 138.238 232.646 138.536 233.051 139.069C233.435 139.602 233.605 140.2 233.499 140.903C233.413 141.628 233.093 142.183 232.582 142.567C232.07 142.951 231.43 143.1 230.705 143.015L230.684 143.036Z" fill="#E4F6C8"/>
<path d="M215.563 165.172L236.591 160.054L219.764 153.827L220.895 150.777L242.434 158.732L241.112 162.336L220.639 167.348L237.017 173.404L235.887 176.475L214.348 168.521L215.585 165.194L215.563 165.172Z" fill="#E4F6C8"/>
<path d="M206.628 179.759C207.567 178.395 208.697 177.286 209.998 176.475C211.299 175.665 212.706 175.11 214.199 174.854C215.692 174.599 217.206 174.641 218.741 174.982C220.277 175.324 221.748 175.963 223.135 176.923C224.521 177.883 225.651 179.013 226.504 180.314C227.357 181.615 227.954 183.001 228.232 184.494C228.53 185.965 228.509 187.479 228.232 188.994C227.933 190.508 227.315 191.958 226.376 193.323C225.438 194.688 224.308 195.797 223.007 196.607C221.706 197.417 220.298 197.972 218.827 198.228C217.334 198.484 215.841 198.441 214.306 198.121C212.77 197.801 211.32 197.14 209.934 196.18C208.548 195.221 207.417 194.091 206.543 192.79C205.669 191.467 205.093 190.081 204.794 188.588C204.496 187.096 204.496 185.603 204.794 184.089C205.093 182.574 205.711 181.124 206.65 179.759H206.628ZM209.23 181.551C208.548 182.553 208.1 183.577 207.929 184.643C207.759 185.709 207.78 186.754 208.036 187.799C208.292 188.844 208.761 189.825 209.443 190.742C210.126 191.659 210.957 192.47 211.96 193.152C212.962 193.835 214.007 194.325 215.095 194.624C216.182 194.922 217.27 195.008 218.336 194.858C219.403 194.73 220.384 194.368 221.322 193.813C222.239 193.259 223.049 192.491 223.732 191.467C224.414 190.465 224.862 189.441 225.033 188.375C225.225 187.309 225.182 186.264 224.926 185.219C224.67 184.174 224.201 183.193 223.54 182.297C222.879 181.38 222.047 180.591 221.045 179.909C220.042 179.226 218.997 178.736 217.888 178.416C216.779 178.117 215.713 178.032 214.626 178.16C213.559 178.288 212.557 178.629 211.64 179.184C210.723 179.738 209.912 180.527 209.23 181.53V181.551Z" fill="#E4F6C8"/>
<path d="M201.595 219.532L192.147 196.97L194.984 194.325L216.8 205.393L214.028 207.974L196.285 198.697L204.175 217.144L201.595 219.532Z" fill="#E4F6C8"/>
<path d="M179.992 216.078C179.629 215.459 179.522 214.819 179.672 214.201C179.821 213.582 180.226 213.071 180.845 212.708C181.442 212.346 182.06 212.239 182.7 212.388C183.34 212.537 183.852 212.921 184.214 213.561C184.598 214.201 184.705 214.841 184.534 215.48C184.363 216.12 183.98 216.611 183.382 216.973C182.764 217.336 182.146 217.442 181.506 217.293C180.866 217.144 180.376 216.739 179.992 216.099V216.078Z" fill="#E4F6C8"/>
<path d="M153.228 217.89L170.267 231.219L164.723 214.158L167.836 213.156L174.938 234.994L171.291 236.188L154.678 223.222L160.074 239.835L156.96 240.837L149.858 218.999L153.228 217.912V217.89Z" fill="#E4F6C8"/>
<path d="M136.295 219.938C137.958 219.831 139.515 220.023 140.965 220.535C142.415 221.047 143.716 221.814 144.847 222.817C145.977 223.84 146.873 225.056 147.555 226.463C148.238 227.892 148.643 229.428 148.749 231.113C148.856 232.797 148.664 234.375 148.195 235.868C147.704 237.361 146.979 238.662 145.998 239.814C145.017 240.965 143.844 241.882 142.458 242.586C141.072 243.29 139.558 243.695 137.916 243.801C136.252 243.908 134.695 243.716 133.245 243.204C131.795 242.693 130.494 241.925 129.364 240.922C128.234 239.92 127.338 238.705 126.656 237.297C125.973 235.89 125.568 234.354 125.461 232.669C125.355 230.985 125.547 229.406 126.016 227.892C126.506 226.399 127.231 225.077 128.212 223.904C129.193 222.731 130.366 221.814 131.752 221.111C133.139 220.407 134.653 220.002 136.295 219.895V219.938ZM136.508 223.094C135.293 223.179 134.205 223.478 133.267 223.99C132.328 224.501 131.518 225.184 130.857 226.037C130.196 226.89 129.727 227.871 129.428 228.98C129.129 230.068 129.023 231.24 129.108 232.456C129.193 233.672 129.449 234.802 129.897 235.826C130.345 236.849 130.942 237.766 131.71 238.513C132.478 239.259 133.373 239.835 134.376 240.219C135.378 240.603 136.487 240.752 137.702 240.667C138.918 240.581 140.006 240.283 140.944 239.771C141.882 239.259 142.693 238.577 143.354 237.724C144.015 236.871 144.484 235.911 144.804 234.823C145.103 233.736 145.209 232.584 145.124 231.368C145.039 230.153 144.783 229.023 144.335 227.978C143.887 226.933 143.29 226.016 142.522 225.269C141.754 224.501 140.859 223.947 139.856 223.563C138.854 223.179 137.745 223.03 136.53 223.115L136.508 223.094Z" fill="#E4F6C8"/>
<path d="M101.917 240.645L113.753 219.234L117.57 219.831L122.411 243.823L118.679 243.247L114.947 223.584L105.372 241.2L101.896 240.667L101.917 240.645Z" fill="#E4F6C8"/>
<path d="M91.2758 221.537C91.5317 220.855 91.9582 220.385 92.5553 220.13C93.1525 219.874 93.7922 219.874 94.4533 220.13C95.1144 220.385 95.5836 220.812 95.8395 221.409C96.1168 222.006 96.1168 222.646 95.8609 223.328C95.6049 224.032 95.1571 224.501 94.56 224.757C93.9628 225.013 93.3231 225.013 92.662 224.757C91.9795 224.501 91.5103 224.075 91.2544 223.478C90.9985 222.881 90.9985 222.241 91.2544 221.537H91.2758Z" fill="#E4F6C8"/>
<path d="M73.2759 201.661L73.3612 223.307L83.3204 208.379L86.0288 210.192L73.2759 229.3L70.077 227.167L69.9703 206.097L60.267 220.62L57.5586 218.807L70.3116 199.699L73.2545 201.661H73.2759Z" fill="#E4F6C8"/>
<path d="M61.1202 189.612C62.2291 190.849 63.0395 192.192 63.5514 193.643C64.0632 195.093 64.2551 196.586 64.1485 198.1C64.0419 199.614 63.658 201.085 62.9756 202.493C62.2931 203.9 61.3121 205.18 60.0752 206.31C58.8383 207.441 57.4734 208.272 56.0019 208.805C54.5304 209.339 53.0376 209.594 51.5448 209.531C50.052 209.467 48.5805 209.125 47.173 208.486C45.7654 207.846 44.5072 206.907 43.3983 205.67C42.2893 204.434 41.4789 203.09 40.9671 201.64C40.4553 200.19 40.2633 198.697 40.3486 197.204C40.4339 195.69 40.8178 194.24 41.5002 192.832C42.1827 191.425 43.1423 190.145 44.4006 189.015C45.6588 187.885 47.0024 187.053 48.4952 186.498C49.988 185.944 51.4595 185.709 52.9736 185.752C54.4878 185.795 55.938 186.157 57.3455 186.797C58.753 187.437 60.0112 188.375 61.1202 189.612ZM58.7743 191.745C57.9639 190.849 57.0469 190.188 56.0659 189.761C55.0849 189.335 54.0399 189.121 52.9523 189.143C51.8647 189.143 50.7984 189.399 49.7534 189.825C48.7084 190.273 47.7274 190.913 46.8317 191.723C45.9361 192.534 45.211 193.451 44.6778 194.432C44.1447 195.413 43.8035 196.458 43.6968 197.524C43.5902 198.59 43.6968 199.635 44.0167 200.659C44.3366 201.683 44.9124 202.642 45.7228 203.559C46.5332 204.455 47.4502 205.116 48.4312 205.543C49.4122 205.969 50.4572 206.182 51.5235 206.161C52.5898 206.14 53.6561 205.926 54.7011 205.5C55.746 205.052 56.7057 204.434 57.6227 203.623C58.5184 202.813 59.2435 201.896 59.798 200.893C60.3525 199.891 60.6723 198.846 60.8003 197.78C60.9283 196.714 60.8003 195.647 60.5017 194.624C60.2032 193.6 59.606 192.64 58.7957 191.723L58.7743 191.745Z" fill="#E4F6C8"/>
<path d="M23.5654 175.473L47.7065 171.506L49.6045 174.876L33.7806 193.536L31.9252 190.252L45.0621 175.132L25.2928 178.522L23.5654 175.452V175.473Z" fill="#E4F6C8"/>
<path d="M31.9678 155.256C32.6502 155.042 33.29 155.085 33.8658 155.384C34.4416 155.682 34.8255 156.173 35.0601 156.877C35.2733 157.559 35.2307 158.177 34.9321 158.753C34.6335 159.329 34.143 159.734 33.4393 159.947C32.7355 160.161 32.0744 160.118 31.4986 159.82C30.9228 159.5 30.5176 159.009 30.3257 158.348C30.1124 157.666 30.1551 157.026 30.4536 156.45C30.7522 155.874 31.264 155.469 31.9678 155.256Z" fill="#E4F6C8"/>
<path d="M36.4462 128.811L19.5133 142.29L37.4059 140.861L37.6618 144.124L14.7576 145.936L14.4591 142.119L30.9441 128.961L13.542 130.347L13.2861 127.084L36.1903 125.271L36.4675 128.811H36.4462Z" fill="#E4F6C8"/>
<path d="M38.344 111.857C38.0668 113.499 37.5123 114.971 36.6806 116.272C35.8489 117.573 34.8039 118.66 33.567 119.513C32.3301 120.366 30.9226 120.985 29.3871 121.305C27.8516 121.646 26.2522 121.667 24.5887 121.39C22.9253 121.113 21.4325 120.558 20.089 119.748C18.7454 118.938 17.6365 117.914 16.7621 116.698C15.8664 115.483 15.2479 114.118 14.8854 112.625C14.5229 111.132 14.4802 109.554 14.7361 107.912C15.0134 106.27 15.5678 104.798 16.3995 103.498C17.2313 102.197 18.2762 101.109 19.4918 100.256C20.7287 99.3816 22.1149 98.7845 23.6291 98.4433C25.1645 98.1021 26.7427 98.0807 28.4061 98.358C30.0695 98.6352 31.5624 99.1897 32.9059 100C34.2494 100.81 35.3797 101.834 36.2754 103.05C37.1711 104.265 37.8109 105.63 38.1734 107.123C38.536 108.616 38.5786 110.194 38.3227 111.836L38.344 111.857ZM35.2304 111.346C35.4224 110.151 35.3797 109.021 35.1025 107.976C34.8252 106.931 34.3347 105.993 33.6523 105.161C32.9699 104.329 32.1382 103.626 31.1358 103.092C30.1335 102.538 29.0246 102.175 27.8303 101.983C26.636 101.791 25.4844 101.791 24.3542 101.983C23.2452 102.175 22.2216 102.559 21.3259 103.135C20.4302 103.711 19.6624 104.436 19.0653 105.332C18.4682 106.227 18.063 107.272 17.871 108.467C17.6791 109.661 17.7218 110.791 17.999 111.836C18.2762 112.881 18.7454 113.819 19.4278 114.651C20.0889 115.483 20.942 116.187 21.923 116.72C22.904 117.253 24.0129 117.637 25.2072 117.829C26.4015 118.021 27.5744 118.042 28.6833 117.829C29.8136 117.637 30.8159 117.253 31.7543 116.677C32.6713 116.101 33.439 115.376 34.0362 114.48C34.6333 113.585 35.0385 112.54 35.2304 111.346Z" fill="#E4F6C8"/>
<path d="M26.2101 73.577L44.2733 90.1047L42.8018 93.6874L18.3408 92.7917L19.7697 89.2943L39.7735 90.254L24.8879 76.8186L26.2315 73.5557L26.2101 73.577Z" fill="#E4F6C8"/>
<path d="M47.2797 67.6697C47.8768 68.0749 48.2393 68.6081 48.346 69.2478C48.4526 69.8876 48.3246 70.5061 47.9194 71.1032C47.5143 71.679 47.0024 72.0416 46.3626 72.1695C45.7229 72.2975 45.1044 72.1695 44.5073 71.743C43.8888 71.3165 43.5263 70.7833 43.4197 70.1435C43.313 69.5038 43.441 68.8853 43.8462 68.3095C44.2514 67.7124 44.7845 67.3498 45.4243 67.2432C46.0641 67.1152 46.6825 67.2858 47.301 67.691L47.2797 67.6697Z" fill="#E4F6C8"/>
<path d="M70.7595 54.8101L49.6894 49.9052L61.9092 63.042L59.5207 65.2599L43.8887 48.4337L46.7037 45.8106L67.2407 50.5663L55.3408 37.7706L57.7293 35.5527L73.3613 52.379L70.7595 54.7888V54.8101Z" fill="#E4F6C8"/>
<path d="M85.2831 45.7892C83.833 46.5996 82.3401 47.0688 80.8047 47.2181C79.2692 47.3674 77.7764 47.2181 76.3262 46.7702C74.876 46.3224 73.5325 45.5973 72.3169 44.6163C71.1013 43.614 70.0777 42.3771 69.2673 40.9056C68.4569 39.4341 67.9664 37.9199 67.7745 36.3631C67.5825 34.8063 67.6892 33.3135 68.1157 31.8633C68.5209 30.4132 69.2033 29.0696 70.1416 27.854C71.08 26.6385 72.2956 25.6361 73.7458 24.8257C75.1959 24.0153 76.6887 23.5462 78.2242 23.3969C79.7597 23.2476 81.2525 23.3969 82.7027 23.8234C84.1528 24.2499 85.4751 24.975 86.6907 25.956C87.9062 26.937 88.9086 28.1739 89.7189 29.6454C90.5293 31.1169 91.0412 32.6524 91.2331 34.2092C91.425 35.766 91.3184 37.2801 90.9132 38.7516C90.508 40.2231 89.8469 41.5453 88.8872 42.7609C87.9276 43.9765 86.7333 44.9788 85.2831 45.7892ZM83.7477 43.0168C84.814 42.441 85.667 41.6946 86.3068 40.8416C86.9466 39.9672 87.3944 39.0076 87.629 37.9626C87.8636 36.9176 87.8849 35.83 87.693 34.6997C87.501 33.5694 87.1172 32.4818 86.52 31.4155C85.9442 30.3492 85.2192 29.4322 84.3874 28.6858C83.5557 27.9393 82.6174 27.3849 81.6151 27.0223C80.6127 26.6598 79.5678 26.5318 78.4801 26.6171C77.4138 26.7024 76.3262 27.0223 75.2599 27.6194C74.1936 28.1953 73.3406 28.9417 72.7008 29.7947C72.061 30.6691 71.6131 31.6074 71.3786 32.6524C71.144 33.6974 71.1013 34.785 71.2933 35.8939C71.4852 37.0029 71.8691 38.0905 72.4449 39.1568C73.0207 40.2231 73.7457 41.1402 74.5988 41.9079C75.4518 42.6756 76.3689 43.2301 77.3925 43.5926C78.4162 43.9552 79.4611 44.1045 80.5274 44.0192C81.5937 43.9339 82.6814 43.614 83.7477 43.0168Z" fill="#E4F6C8"/>
<path d="M107.76 12.5421L105.99 36.9391L102.279 38.0054L87.8203 18.2575L91.4457 17.2125L103.09 33.5056L104.391 13.5017L107.781 12.5208L107.76 12.5421Z" fill="#E4F6C8"/>
<path d="M125.418 25.423C125.461 26.1481 125.269 26.7452 124.842 27.2357C124.416 27.7262 123.84 28.0034 123.115 28.0461C122.411 28.0887 121.814 27.8968 121.302 27.4703C120.812 27.0437 120.535 26.4679 120.471 25.7429C120.428 24.9964 120.62 24.378 121.046 23.8875C121.494 23.397 122.049 23.1198 122.753 23.0771C123.478 23.0345 124.075 23.2264 124.565 23.6529C125.056 24.0794 125.333 24.6552 125.376 25.4016L125.418 25.423Z" fill="#E4F6C8"/>
<path d="M127.53 187.266C119.319 187.266 112.026 185.795 105.67 182.83C99.3153 179.866 94.3037 175.771 90.6356 170.504C86.9675 165.236 85.0695 159.222 84.9629 152.419H101.064C101.512 158.881 104.114 164.085 108.869 168.03C113.646 171.975 119.916 173.959 127.7 173.959C135.484 173.959 142.01 172.039 146.616 168.201C151.223 164.362 153.526 159.159 153.526 152.59C153.526 146.022 150.946 141.159 145.806 137.385C140.645 133.61 133.693 131.712 124.928 131.712H112.431V118.404H124.267C128.98 118.404 133.117 117.594 136.679 115.931C140.24 114.289 143.012 111.964 144.974 108.936C146.936 105.929 147.939 102.495 147.939 98.6566C147.939 94.8179 147.043 91.4697 145.23 88.6333C143.418 85.7756 140.901 83.5364 137.66 81.8943C134.418 80.2522 130.665 79.4205 126.399 79.4205C119.831 79.4205 114.542 81.2545 110.533 84.9226C106.524 88.5907 104.37 93.4957 104.05 99.6376H87.9485C88.1618 93.1758 89.9958 87.4177 93.4507 82.3848C96.9055 77.3519 101.555 73.3639 107.419 70.4635C113.284 67.5632 119.831 66.113 127.06 66.113C134.738 66.113 141.413 67.4353 147.107 70.0584C152.801 72.6815 157.215 76.3709 160.35 81.0839C163.464 85.797 165.042 91.2778 165.042 97.5263C165.042 103.22 163.336 108.36 159.945 112.902C156.554 117.445 151.671 121.198 145.316 124.162C153.206 126.252 159.391 129.75 163.891 134.676C168.39 139.603 170.63 145.467 170.63 152.27C170.63 159.073 168.817 165.279 165.213 170.611C161.587 175.921 156.554 180.037 150.093 182.937C143.631 185.837 136.124 187.288 127.572 187.288L127.53 187.266Z" fill="#E4F6C8"/>
</g>
<defs>
<clipPath id="clip0_2507_1480">
<rect width="257" height="257" fill="white"/>
</clipPath>
</defs>
</svg>
