<svg xmlns="http://www.w3.org/2000/svg" width="257" height="257" fill="none" xmlns:v="https://vecta.io/nano"><g clip-path="url(#A)"><path d="M255.521 128.511c0 70.146-56.864 127.01-127.01 127.01S1.5 198.657 1.5 128.511 58.365 1.5 128.511 1.5s127.01 56.865 127.01 127.011z" fill="#ffc900" stroke="#000" stroke-width="3"/><g fill="#2e27ef"><path d="M147.107 36.233l-9.874-19.257-2.133 17.829-3.242-.384 2.73-22.797 3.817.448 9.64 18.746 2.09-17.338 3.241.384-2.729 22.798-3.519-.427h-.021zm16.186 5.246c-1.557-.597-2.879-1.429-3.988-2.517-1.109-1.066-1.962-2.303-2.559-3.711-.597-1.386-.896-2.879-.938-4.457a12.21 12.21 0 0 1 .874-4.713c.597-1.578 1.429-2.943 2.517-4.073a11.49 11.49 0 0 1 3.668-2.666 11.72 11.72 0 0 1 4.372-1.024c1.535-.064 3.092.213 4.649.81s2.879 1.429 3.988 2.517 1.962 2.303 2.559 3.689.917 2.858.938 4.414a12.38 12.38 0 0 1-.874 4.713c-.597 1.578-1.45 2.943-2.517 4.095a11.8 11.8 0 0 1-3.668 2.687c-1.365.64-2.836.981-4.372 1.045s-3.092-.213-4.649-.81zm1.131-2.964c1.13.448 2.239.619 3.326.555a7.35 7.35 0 0 0 3.05-.853 8.4 8.4 0 0 0 2.538-2.069 10.51 10.51 0 0 0 1.749-3.007c.427-1.13.661-2.261.703-3.391s-.149-2.197-.512-3.199c-.383-1.002-.938-1.898-1.706-2.666-.746-.768-1.706-1.365-2.836-1.813-1.13-.427-2.239-.619-3.327-.555a7.65 7.65 0 0 0-3.049.832c-.959.491-1.792 1.173-2.517 2.026a10.11 10.11 0 0 0-1.749 2.986c-.427 1.131-.682 2.261-.703 3.412a8.12 8.12 0 0 0 .511 3.22c.384 1.024.939 1.898 1.706 2.666s1.707 1.365 2.837 1.813l-.021.043zm38.77-1.301l-19.79 14.395-3.22-2.154 5.736-23.779 3.135 2.09-4.926 19.407 16.122-11.921 2.922 1.962h.021zm1.621 21.838c-.511.512-1.108.746-1.748.746s-1.216-.277-1.728-.789c-.49-.512-.725-1.088-.725-1.749s.256-1.237.789-1.749 1.131-.768 1.792-.746c.661 0 1.237.277 1.727.789.512.512.747 1.109.747 1.749s-.278 1.237-.811 1.749h-.043zm7.976 25.57l9-19.684-15.312 9.362-1.707-2.794 19.599-11.985 2.005 3.284-8.744 19.194 14.907-9.106 1.706 2.794-19.599 11.985-1.855-3.028v-.021zm5.928 15.994c-.49-1.599-.661-3.156-.511-4.691s.597-2.964 1.322-4.308 1.706-2.495 2.921-3.476c1.216-1.002 2.645-1.749 4.244-2.239s3.199-.682 4.756-.554 3.007.533 4.35 1.237a11.38 11.38 0 0 1 3.519 2.794c1.002 1.173 1.749 2.559 2.24 4.137.49 1.599.661 3.156.511 4.692a11.39 11.39 0 0 1-1.301 4.286c-.725 1.322-1.684 2.495-2.879 3.476-1.215.981-2.623 1.728-4.222 2.239s-3.199.683-4.756.555a11.6 11.6 0 0 1-4.372-1.216 11.48 11.48 0 0 1-3.54-2.793c-1.002-1.173-1.748-2.56-2.239-4.138h-.043zm3.029-.938c.362 1.152.895 2.133 1.62 2.943a7.67 7.67 0 0 0 2.56 1.877c.981.448 2.047.682 3.177.725s2.282-.128 3.455-.491c1.152-.362 2.197-.874 3.092-1.557.917-.682 1.642-1.471 2.197-2.388a7.44 7.44 0 0 0 1.023-2.986c.128-1.066.022-2.175-.341-3.348-.362-1.152-.895-2.133-1.621-2.943s-1.556-1.429-2.537-1.877-2.026-.682-3.157-.725-2.281.128-3.433.49-2.197.874-3.114 1.557-1.663 1.472-2.218 2.389-.917 1.919-1.045 2.986-.021 2.197.342 3.348zm25.037 29.6l-23.566-6.611-.298-3.86 22.222-10.236.298 3.753-18.276 8.147 19.342 5.267.278 3.519v.021zm-16.101 14.758c-.725-.085-1.28-.405-1.664-.917-.405-.512-.554-1.13-.448-1.855.086-.704.406-1.258.917-1.664s1.131-.554 1.856-.469c.746.085 1.301.405 1.706.939.384.533.554 1.13.448 1.834-.086.725-.406 1.279-.917 1.663s-1.152.533-1.877.448l-.021.021zm-15.142 22.136l21.027-5.118-16.826-6.227 1.13-3.071 21.54 7.955-1.323 3.604-20.473 5.011 16.379 6.057-1.131 3.05-21.539-7.955 1.237-3.327-.021.021zm-8.914 14.588c.939-1.365 2.069-2.474 3.37-3.285 1.301-.831 2.708-1.365 4.201-1.62s3.007-.214 4.542.128 3.007.981 4.394 1.94 2.516 2.09 3.369 3.391 1.45 2.687 1.728 4.18c.298 1.471.277 2.986 0 4.5-.299 1.514-.917 2.964-1.856 4.329s-2.068 2.474-3.369 3.284c-1.301.832-2.709 1.365-4.18 1.621-1.493.256-2.986.213-4.521-.107-1.536-.341-2.986-.981-4.372-1.94s-2.517-2.09-3.391-3.391-1.45-2.709-1.749-4.201-.298-2.986 0-4.5.917-2.965 1.856-4.329h-.022zm2.602 1.791c-.682 1.002-1.13 2.026-1.301 3.092s-.149 2.112.107 3.156a8.15 8.15 0 0 0 1.407 2.943c.683.918 1.514 1.728 2.517 2.41s2.047 1.173 3.135 1.472 2.175.384 3.241.234c1.067-.128 2.048-.49 2.986-1.045.917-.554 1.727-1.343 2.41-2.345s1.13-2.026 1.301-3.093c.192-1.066.149-2.111-.107-3.156s-.725-2.026-1.386-2.922c-.661-.917-1.493-1.706-2.495-2.388s-2.048-1.173-3.157-1.493c-1.109-.299-2.175-.384-3.262-.256-1.067.128-2.069.469-2.986 1.024s-1.728 1.322-2.41 2.324v.043zm-7.635 37.982l-9.448-22.563 2.837-2.645 21.816 11.068-2.772 2.581-17.743-9.277 7.89 18.447-2.58 2.389zm-21.603-3.455c-.363-.619-.47-1.237-.32-1.877.149-.618.554-1.13 1.173-1.493.597-.362 1.215-.469 1.855-.32s1.152.534 1.514 1.173c.384.64.491 1.28.32 1.92s-.554 1.13-1.152 1.493c-.618.362-1.236.469-1.876.319-.619-.17-1.13-.554-1.514-1.194v-.021zm-26.764 1.834l17.039 13.329-5.544-17.061 3.113-1.003 7.102 21.838-3.647 1.195-16.613-12.967 5.396 16.613-3.114 1.003-7.102-21.838 3.37-1.088v-.021zm-16.933 2.026c1.663-.107 3.22.085 4.67.597a11.68 11.68 0 0 1 3.882 2.282c1.13 1.024 2.026 2.239 2.708 3.647s1.088 2.964 1.194 4.649-.085 3.263-.554 4.755c-.491 1.493-1.216 2.794-2.197 3.946s-2.154 2.068-3.54 2.772-2.9 1.109-4.542 1.216c-1.664.106-3.221-.086-4.671-.597a11.65 11.65 0 0 1-3.881-2.282c-1.13-1.002-2.026-2.218-2.708-3.626s-1.088-2.943-1.195-4.627.086-3.263.555-4.756a11.93 11.93 0 0 1 2.196-3.988c.981-1.173 2.154-2.09 3.54-2.794s2.901-1.109 4.543-1.215v.021zm.213 3.156c-1.215.085-2.303.384-3.241.896a7.66 7.66 0 0 0-2.41 2.047c-.661.853-1.13 1.834-1.429 2.943a10.43 10.43 0 0 0-.32 3.476c.085 1.216.341 2.346.789 3.37s1.045 1.94 1.813 2.687a7.82 7.82 0 0 0 2.666 1.706c1.002.384 2.111.533 3.326.448s2.304-.384 3.242-.896a7.67 7.67 0 0 0 2.41-2.047c.661-.853 1.13-1.813 1.45-2.901.299-1.087.405-2.239.32-3.454s-.341-2.346-.789-3.391-1.045-1.962-1.813-2.709c-.768-.767-1.663-1.322-2.666-1.706s-2.111-.533-3.326-.448l-.022-.021zm-34.591 17.551l11.836-21.411 3.817.597 4.841 23.992-3.732-.576-3.732-19.662-9.575 17.615-3.476-.533.021-.022zm-10.641-19.108c.256-.682.682-1.151 1.279-1.407s1.237-.256 1.898 0 1.13.682 1.386 1.279c.277.597.277 1.237.021 1.92-.256.703-.704 1.173-1.301 1.429s-1.237.255-1.898 0c-.683-.256-1.152-.683-1.408-1.28s-.256-1.237 0-1.941h.021zm-18-19.876l.085 21.646 9.959-14.928 2.708 1.813L73.276 230.3l-3.199-2.133-.107-21.07-9.703 14.523-2.708-1.812 12.753-19.109 2.943 1.962h.021zm-12.156-12.07c1.109 1.237 1.919 2.58 2.431 4.03s.704 2.943.597 4.458-.49 2.985-1.173 4.393-1.663 2.687-2.9 3.817-2.602 1.962-4.073 2.495-2.964.789-4.457.725a11.62 11.62 0 0 1-4.372-1.045c-1.408-.639-2.666-1.578-3.775-2.815s-1.919-2.58-2.431-4.03-.704-2.943-.619-4.436a11.37 11.37 0 0 1 1.152-4.372c.683-1.408 1.642-2.687 2.9-3.817s2.602-1.962 4.095-2.517a11.64 11.64 0 0 1 4.478-.746c1.514.043 2.964.405 4.372 1.045s2.666 1.578 3.775 2.815zm-2.346 2.132c-.81-.895-1.727-1.556-2.708-1.983a7.37 7.37 0 0 0-3.114-.618c-1.088 0-2.154.256-3.199.703a10.11 10.11 0 0 0-2.922 1.898c-.896.831-1.621 1.728-2.154 2.709s-.874 2.026-.981 3.092 0 2.111.32 3.135.896 1.983 1.706 2.9c.81.896 1.727 1.557 2.708 1.984a7.34 7.34 0 0 0 3.092.618c1.066 0 2.133-.234 3.178-.661 1.045-.448 2.005-1.066 2.922-1.877s1.621-1.727 2.175-2.729.874-2.048 1.002-3.114 0-2.133-.299-3.156c-.32-1.024-.896-1.984-1.706-2.901h-.021zm-35.209-16.25l24.141-3.967 1.898 3.37-15.824 18.66-1.855-3.284 13.137-15.12-19.769 3.391-1.727-3.071v.021zm8.403-20.217c.682-.213 1.322-.171 1.898.128s.96.81 1.194 1.493c.213.661.171 1.301-.128 1.876s-.789.981-1.493 1.195-1.365.17-1.941-.128a2.4 2.4 0 0 1-1.173-1.472c-.213-.704-.171-1.322.128-1.898s.81-.981 1.514-1.194zm4.478-26.444L19.513 143.29l17.893-1.408.256 3.242-22.904 1.812-.299-3.817 16.485-13.137-17.402 1.386-.256-3.262 22.904-1.813.277 3.54-.021-.021zm1.898-16.933c-.277 1.642-.832 3.113-1.663 4.414a11.29 11.29 0 0 1-3.114 3.242c-1.237.874-2.644 1.471-4.18 1.813s-3.135.362-4.798.085a12.64 12.64 0 0 1-4.5-1.642c-1.344-.811-2.452-1.834-3.327-3.05-.896-1.215-1.514-2.58-1.877-4.073s-.405-3.071-.149-4.713c.277-1.642.832-3.114 1.663-4.415a11.5 11.5 0 0 1 3.092-3.241c1.237-.875 2.623-1.472 4.137-1.813 1.535-.341 3.114-.362 4.777-.085s3.156.831 4.5 1.642 2.474 1.834 3.369 3.049a11.33 11.33 0 0 1 1.898 4.074c.363 1.493.405 3.071.149 4.713h.021zm-3.114-.512c.192-1.194.149-2.325-.128-3.37a7.39 7.39 0 0 0-1.45-2.815 8.24 8.24 0 0 0-2.516-2.068 10.61 10.61 0 0 0-3.305-1.109c-1.194-.192-2.346-.192-3.476 0-1.109.192-2.133.576-3.028 1.151a7.66 7.66 0 0 0-2.261 2.197c-.598.896-1.002 1.941-1.194 3.135s-.149 2.324.128 3.369.746 1.984 1.429 2.815c.661.832 1.514 1.536 2.495 2.069s2.09.917 3.284 1.109 2.367.213 3.476 0 2.133-.576 3.071-1.152c.917-.575 1.685-1.3 2.282-2.196s1.002-1.941 1.194-3.135zm-9.02-37.79l18.063 16.528-1.471 3.583-24.461-.896 1.429-3.498 20.004.96-14.886-13.435 1.344-3.263-.021.021zm21.07-5.907c.597.405.96.938 1.066 1.578s-.021 1.258-.427 1.855c-.405.576-.917.938-1.557 1.066s-1.258 0-1.855-.427c-.618-.427-.981-.96-1.088-1.6s.021-1.258.427-1.834c.405-.597.938-.96 1.578-1.066s1.258.043 1.877.448l-.021-.021zm23.48-12.86l-21.07-4.905 12.22 13.137-2.389 2.218-15.632-16.826 2.815-2.623 20.537 4.756-11.9-12.796 2.389-2.218 15.632 16.826-2.602 2.41v.021zm14.523-9.02c-1.45.81-2.943 1.28-4.478 1.429s-3.028 0-4.478-.448a12 12 0 0 1-4.009-2.154c-1.216-1.002-2.239-2.239-3.05-3.711s-1.301-2.986-1.493-4.542-.085-3.05.341-4.5a11.67 11.67 0 0 1 2.026-4.009c.938-1.215 2.154-2.218 3.604-3.028s2.943-1.28 4.478-1.429a11.71 11.71 0 0 1 4.478.427c1.45.427 2.772 1.152 3.988 2.133s2.218 2.218 3.028 3.689 1.322 2.986 1.514 4.564a11.6 11.6 0 0 1-.32 4.542c-.405 1.471-1.066 2.794-2.026 4.009s-2.154 2.218-3.604 3.028zm-1.535-2.772c1.066-.576 1.919-1.301 2.559-2.175a7.68 7.68 0 0 0 1.322-2.879c.234-1.045.256-2.133.064-3.263a10.13 10.13 0 0 0-1.173-3.284 10.12 10.12 0 0 0-2.133-2.73 8.42 8.42 0 0 0-2.772-1.663 7.4 7.4 0 0 0-3.135-.405c-1.066.085-2.154.405-3.22 1.002-1.066.576-1.919 1.301-2.559 2.175s-1.088 1.813-1.322 2.858a8.28 8.28 0 0 0-.085 3.242c.192 1.109.576 2.197 1.152 3.263A10.2 10.2 0 0 0 74.6 42.91c.853.768 1.77 1.322 2.794 1.685a7.49 7.49 0 0 0 3.135.426c1.066-.086 2.154-.405 3.22-1.002zm24.012-30.476l-1.77 24.397-3.711 1.066L87.82 19.258l3.625-1.045 11.644 16.293 1.301-20.004 3.39-.981-.021.021zm17.658 12.881c.043.725-.149 1.322-.576 1.813s-1.002.768-1.727.81a2.48 2.48 0 0 1-1.813-.576c-.49-.427-.767-1.002-.831-1.727-.043-.746.149-1.365.575-1.855a2.41 2.41 0 0 1 1.707-.81c.725-.043 1.322.149 1.812.576s.768 1.024.811 1.749l.042.021zm44.039 131.603h-16.613v26.465h-16.613v-26.465H77.222V146.51l63.125-80.058h12.497v77.264h16.613v14.31zm-73.319-14.31h40.114V91.595l-40.114 52.121z"/></g></g><defs><clipPath id="A"><path fill="#fff" d="M0 0h257v257H0z"/></clipPath></defs></svg>