<svg width="257" height="257" viewBox="0 0 257 257" fill="none" xmlns="http://www.w3.org/2000/svg">
<g clip-path="url(#clip0_2507_1446)">
<path d="M255.521 128.511C255.521 198.657 198.657 255.521 128.511 255.521C58.3646 255.521 1.5 198.657 1.5 128.511C1.5 58.3646 58.3646 1.5 128.511 1.5C198.657 1.5 255.521 58.3646 255.521 128.511Z" fill="#D0EB4C" stroke="black" stroke-width="3"/>
<path d="M147.107 36.233L137.233 16.9756L135.1 34.8042L131.858 34.4203L134.588 11.6228L138.405 12.0706L148.045 30.8162L150.135 13.4782L153.376 13.862L150.647 36.6596L147.128 36.233H147.107Z" fill="#1E1E1E"/>
<path d="M163.293 41.4793C161.736 40.8821 160.414 40.0504 159.305 38.9628C158.196 37.8965 157.343 36.6596 156.746 35.2521C156.149 33.8659 155.85 32.373 155.808 30.7949C155.786 29.2168 156.064 27.6387 156.682 26.0819C157.279 24.5037 158.111 23.1389 159.199 22.0086C160.265 20.857 161.481 19.9826 162.867 19.3428C164.232 18.7244 165.703 18.3832 167.239 18.3192C168.774 18.2552 170.331 18.5325 171.888 19.1296C173.444 19.7267 174.767 20.5584 175.876 21.6461C176.985 22.7337 177.838 23.9493 178.435 25.3355C179.032 26.7217 179.352 28.1931 179.373 29.7499C179.394 31.3067 179.117 32.8849 178.499 34.463C177.902 36.0411 177.049 37.406 175.982 38.5576C174.916 39.7092 173.679 40.6049 172.314 41.2447C170.949 41.8845 169.478 42.2257 167.942 42.2897C166.407 42.3536 164.85 42.0764 163.293 41.4793ZM164.424 38.5149C165.554 38.9628 166.663 39.1334 167.75 39.0694C168.817 39.0054 169.84 38.7282 170.8 38.2164C171.76 37.7046 172.613 37.0221 173.338 36.1478C174.063 35.2734 174.66 34.2711 175.087 33.1408C175.513 32.0105 175.748 30.8802 175.79 29.7499C175.833 28.6197 175.641 27.5534 175.278 26.551C174.895 25.5487 174.34 24.653 173.572 23.8853C172.826 23.1176 171.866 22.5204 170.736 22.0726C169.606 21.6461 168.497 21.4541 167.409 21.5181C166.343 21.5821 165.319 21.8593 164.36 22.3498C163.4 22.8403 162.568 23.5227 161.843 24.3758C161.118 25.2288 160.521 26.2312 160.094 27.3614C159.668 28.4917 159.412 29.622 159.391 30.7736C159.348 31.9039 159.519 32.9915 159.902 33.9938C160.286 35.0175 160.841 35.8918 161.608 36.6596C162.376 37.4273 163.315 38.0244 164.445 38.4723L164.424 38.5149Z" fill="#1E1E1E"/>
<path d="M203.194 37.214L183.404 51.6091L180.184 49.4552L185.92 25.6766L189.055 27.7666L184.129 47.1733L200.251 35.252L203.173 37.214H203.194Z" fill="#1E1E1E"/>
<path d="M204.815 59.0519C204.304 59.5637 203.707 59.7983 203.067 59.7983C202.427 59.7983 201.851 59.5211 201.339 59.0093C200.849 58.4974 200.614 57.9216 200.614 57.2605C200.614 56.5994 200.87 56.0236 201.403 55.5118C201.936 55 202.534 54.7441 203.195 54.7654C203.856 54.7654 204.432 55.0426 204.922 55.5545C205.434 56.0663 205.669 56.6634 205.669 57.3032C205.669 57.943 205.391 58.5401 204.858 59.0519H204.815Z" fill="#1E1E1E"/>
<path d="M212.791 84.6219L221.791 64.9379L206.479 74.3001L204.772 71.5063L224.371 59.5211L226.376 62.8053L217.632 81.9988L232.539 72.8925L234.245 75.6863L214.646 87.6715L212.791 84.6432V84.6219Z" fill="#1E1E1E"/>
<path d="M218.719 100.616C218.229 99.0169 218.058 97.4601 218.208 95.9246C218.357 94.3891 218.805 92.9603 219.53 91.6168C220.255 90.2732 221.236 89.1216 222.451 88.1406C223.667 87.1383 225.096 86.3919 226.695 85.9014C228.295 85.4109 229.894 85.219 231.451 85.3469C233.008 85.4749 234.458 85.8801 235.801 86.5838C237.145 87.2662 238.318 88.2046 239.32 89.3775C240.323 90.5505 241.069 91.9366 241.56 93.5148C242.05 95.1142 242.221 96.671 242.071 98.2065C241.922 99.742 241.474 101.171 240.77 102.493C240.045 103.815 239.086 104.988 237.891 105.969C236.676 106.95 235.268 107.697 233.669 108.208C232.069 108.72 230.47 108.891 228.913 108.763C227.335 108.635 225.885 108.23 224.541 107.547C223.198 106.865 222.004 105.927 221.001 104.754C219.999 103.581 219.253 102.194 218.762 100.616H218.719ZM221.748 99.678C222.11 100.83 222.643 101.811 223.368 102.621C224.094 103.431 224.947 104.05 225.928 104.498C226.909 104.946 227.975 105.18 229.105 105.223C230.235 105.265 231.387 105.095 232.56 104.732C233.712 104.37 234.757 103.858 235.652 103.175C236.569 102.493 237.294 101.704 237.849 100.787C238.403 99.8699 238.744 98.8676 238.872 97.8013C239 96.735 238.894 95.6261 238.531 94.4531C238.169 93.3015 237.636 92.3205 236.91 91.5101C236.185 90.6997 235.354 90.0813 234.373 89.6334C233.392 89.1856 232.347 88.951 231.216 88.9084C230.086 88.8657 228.935 89.0363 227.783 89.3988C226.631 89.7614 225.586 90.2732 224.669 90.9557C223.752 91.6381 223.006 92.4272 222.451 93.3442C221.897 94.2612 221.534 95.2635 221.406 96.3298C221.278 97.3961 221.385 98.5264 221.748 99.678Z" fill="#1E1E1E"/>
<path d="M246.785 129.278L223.219 122.667L222.921 118.807L245.143 108.571L245.441 112.324L227.165 120.471L246.507 125.738L246.785 129.257V129.278Z" fill="#1E1E1E"/>
<path d="M230.684 144.036C229.959 143.951 229.404 143.631 229.02 143.119C228.615 142.607 228.466 141.989 228.572 141.264C228.658 140.56 228.978 140.006 229.489 139.6C230.001 139.195 230.62 139.046 231.345 139.131C232.091 139.216 232.646 139.536 233.051 140.07C233.435 140.603 233.605 141.2 233.499 141.904C233.413 142.629 233.093 143.183 232.582 143.567C232.07 143.951 231.43 144.1 230.705 144.015L230.684 144.036Z" fill="#1E1E1E"/>
<path d="M215.542 166.172L236.569 161.054L219.743 154.827L220.873 151.756L242.413 159.711L241.09 163.315L220.617 168.326L236.996 174.383L235.865 177.433L214.326 169.478L215.563 166.151L215.542 166.172Z" fill="#1E1E1E"/>
<path d="M206.628 180.76C207.567 179.395 208.697 178.286 209.998 177.475C211.299 176.644 212.706 176.11 214.199 175.855C215.692 175.599 217.206 175.641 218.741 175.983C220.277 176.324 221.748 176.964 223.135 177.923C224.521 178.883 225.651 180.013 226.504 181.314C227.357 182.615 227.954 184.001 228.232 185.494C228.53 186.965 228.509 188.48 228.232 189.994C227.933 191.508 227.315 192.958 226.376 194.323C225.438 195.688 224.308 196.797 223.007 197.607C221.706 198.439 220.298 198.972 218.827 199.228C217.334 199.484 215.841 199.441 214.306 199.121C212.77 198.78 211.32 198.14 209.934 197.181C208.548 196.221 207.417 195.091 206.543 193.79C205.669 192.489 205.093 191.081 204.794 189.589C204.496 188.096 204.496 186.603 204.794 185.089C205.093 183.575 205.711 182.124 206.65 180.76H206.628ZM209.23 182.551C208.548 183.553 208.1 184.577 207.929 185.643C207.759 186.71 207.78 187.755 208.036 188.799C208.292 189.844 208.761 190.825 209.443 191.742C210.126 192.66 210.957 193.47 211.96 194.152C212.962 194.835 214.007 195.325 215.095 195.624C216.182 195.922 217.27 196.008 218.336 195.858C219.403 195.73 220.384 195.368 221.322 194.813C222.239 194.259 223.049 193.47 223.732 192.468C224.414 191.465 224.862 190.442 225.033 189.375C225.225 188.309 225.182 187.264 224.926 186.219C224.67 185.174 224.201 184.193 223.54 183.297C222.879 182.38 222.047 181.591 221.045 180.909C220.042 180.226 218.997 179.736 217.888 179.416C216.779 179.117 215.713 179.032 214.626 179.16C213.559 179.288 212.557 179.629 211.64 180.184C210.723 180.738 209.912 181.506 209.23 182.508V182.551Z" fill="#1E1E1E"/>
<path d="M201.595 220.533L192.147 197.97L194.984 195.325L216.8 206.393L214.028 208.974L196.285 199.697L204.175 218.144L201.595 220.533Z" fill="#1E1E1E"/>
<path d="M179.992 217.078C179.629 216.459 179.522 215.841 179.672 215.201C179.821 214.583 180.226 214.071 180.845 213.708C181.442 213.346 182.06 213.239 182.7 213.388C183.34 213.538 183.852 213.922 184.214 214.561C184.598 215.201 184.705 215.841 184.534 216.481C184.363 217.12 183.98 217.611 183.382 217.974C182.764 218.336 182.146 218.443 181.506 218.293C180.887 218.123 180.376 217.739 179.992 217.099V217.078Z" fill="#1E1E1E"/>
<path d="M153.228 218.912L170.267 232.241L164.723 215.18L167.836 214.177L174.938 236.015L171.291 237.21L154.678 224.243L160.074 240.856L156.96 241.859L149.858 220.021L153.228 218.933V218.912Z" fill="#1E1E1E"/>
<path d="M136.295 220.938C137.958 220.831 139.515 221.023 140.965 221.535C142.415 222.047 143.716 222.815 144.847 223.817C145.977 224.841 146.873 226.056 147.555 227.464C148.238 228.871 148.643 230.428 148.749 232.113C148.856 233.797 148.664 235.376 148.195 236.868C147.704 238.361 146.979 239.662 145.998 240.814C145.017 241.965 143.844 242.882 142.458 243.586C141.072 244.29 139.558 244.695 137.916 244.802C136.252 244.908 134.695 244.716 133.245 244.205C131.795 243.693 130.494 242.925 129.364 241.923C128.234 240.92 127.338 239.705 126.656 238.297C125.973 236.89 125.568 235.354 125.461 233.67C125.355 231.985 125.547 230.407 126.016 228.914C126.506 227.421 127.231 226.099 128.212 224.926C129.193 223.753 130.366 222.836 131.752 222.132C133.139 221.428 134.653 221.023 136.295 220.917V220.938ZM136.508 224.094C135.293 224.179 134.205 224.478 133.267 224.99C132.328 225.502 131.518 226.184 130.857 227.037C130.196 227.89 129.727 228.871 129.428 229.98C129.129 231.089 129.023 232.241 129.108 233.456C129.193 234.672 129.449 235.802 129.897 236.826C130.345 237.849 130.942 238.766 131.71 239.513C132.478 240.259 133.373 240.835 134.376 241.219C135.378 241.603 136.487 241.752 137.702 241.667C138.918 241.581 140.006 241.283 140.944 240.771C141.882 240.259 142.693 239.577 143.354 238.724C144.015 237.871 144.484 236.911 144.804 235.823C145.103 234.736 145.209 233.584 145.124 232.369C145.039 231.153 144.783 230.023 144.335 228.978C143.887 227.933 143.29 227.016 142.522 226.269C141.754 225.502 140.859 224.947 139.856 224.563C138.854 224.179 137.745 224.03 136.53 224.115L136.508 224.094Z" fill="#1E1E1E"/>
<path d="M101.917 241.645L113.753 220.234L117.57 220.831L122.411 244.823L118.679 244.247L114.947 224.585L105.372 242.2L101.896 241.667L101.917 241.645Z" fill="#1E1E1E"/>
<path d="M91.2758 222.537C91.5317 221.855 91.9582 221.386 92.5553 221.13C93.1525 220.874 93.7922 220.874 94.4533 221.13C95.1144 221.386 95.5836 221.812 95.8395 222.409C96.1168 223.006 96.1168 223.646 95.8609 224.329C95.6049 225.032 95.1571 225.502 94.56 225.758C93.9628 226.013 93.3231 226.013 92.662 225.758C91.9795 225.502 91.5103 225.075 91.2544 224.478C90.9985 223.881 90.9985 223.241 91.2544 222.537H91.2758Z" fill="#1E1E1E"/>
<path d="M73.2759 202.661L73.3612 224.307L83.3204 209.379L86.0288 211.192L73.2759 230.3L70.077 228.167L69.9703 207.097L60.267 221.62L57.5586 219.808L70.3116 200.699L73.2545 202.661H73.2759Z" fill="#1E1E1E"/>
<path d="M61.1202 190.591C62.2291 191.828 63.0395 193.171 63.5514 194.621C64.0632 196.072 64.2551 197.564 64.1485 199.079C64.0419 200.593 63.658 202.064 62.9756 203.472C62.2931 204.879 61.3121 206.159 60.0752 207.289C58.8383 208.419 57.4734 209.251 56.0019 209.784C54.5304 210.317 53.0376 210.573 51.5448 210.509C50.0307 210.445 48.5805 210.104 47.173 209.464C45.7654 208.825 44.5072 207.886 43.3983 206.649C42.2893 205.412 41.4789 204.069 40.9671 202.619C40.4553 201.169 40.2633 199.676 40.3486 198.183C40.4339 196.669 40.8178 195.219 41.5002 193.811C42.1827 192.404 43.1423 191.124 44.4006 189.994C45.6588 188.863 47.0024 188.032 48.4952 187.477C49.9667 186.923 51.4595 186.688 52.9736 186.731C54.4878 186.774 55.938 187.136 57.3455 187.776C58.753 188.416 60.0112 189.354 61.1202 190.591ZM58.7743 192.723C57.9639 191.828 57.0469 191.167 56.0659 190.74C55.0849 190.314 54.0399 190.1 52.9523 190.122C51.8647 190.122 50.7984 190.378 49.7534 190.825C48.7084 191.273 47.7274 191.892 46.8317 192.723C45.9361 193.555 45.211 194.451 44.6778 195.432C44.1447 196.413 43.8035 197.458 43.6968 198.524C43.5902 199.59 43.6968 200.635 44.0167 201.659C44.3366 202.683 44.9124 203.642 45.7228 204.559C46.5332 205.455 47.4502 206.116 48.4312 206.543C49.4122 206.969 50.4572 207.183 51.5235 207.161C52.5898 207.161 53.6561 206.927 54.7011 206.5C55.746 206.052 56.7057 205.434 57.6227 204.623C58.5397 203.813 59.2435 202.896 59.798 201.894C60.3525 200.891 60.6723 199.846 60.8003 198.78C60.9283 197.714 60.8003 196.647 60.5017 195.624C60.1818 194.6 59.606 193.64 58.7957 192.723H58.7743Z" fill="#1E1E1E"/>
<path d="M23.5654 176.473L47.7065 172.506L49.6045 175.876L33.7806 194.536L31.9252 191.252L45.0621 176.132L25.2928 179.523L23.5654 176.452V176.473Z" fill="#1E1E1E"/>
<path d="M31.9678 156.256C32.6502 156.043 33.29 156.085 33.8658 156.384C34.4416 156.682 34.8255 157.194 35.0601 157.877C35.2733 158.538 35.2307 159.178 34.9321 159.753C34.6335 160.329 34.143 160.734 33.4393 160.948C32.7355 161.161 32.0744 161.118 31.4986 160.82C30.9228 160.5 30.5176 160.009 30.3257 159.348C30.1124 158.644 30.1551 158.026 30.4536 157.45C30.7522 156.874 31.264 156.469 31.9678 156.256Z" fill="#1E1E1E"/>
<path d="M36.4462 129.812L19.5133 143.29L37.4059 141.882L37.6618 145.124L14.7576 146.936L14.4591 143.119L30.9441 129.982L13.542 131.368L13.2861 128.106L36.1903 126.293L36.4675 129.833L36.4462 129.812Z" fill="#1E1E1E"/>
<path d="M38.344 112.879C38.0668 114.521 37.5123 115.992 36.6806 117.293C35.8489 118.594 34.8039 119.682 33.567 120.535C32.3301 121.409 30.9226 122.006 29.3871 122.348C27.8516 122.689 26.2522 122.71 24.5887 122.433C22.9253 122.156 21.4325 121.601 20.089 120.791C18.7454 119.98 17.6365 118.957 16.7621 117.741C15.8664 116.526 15.2479 115.161 14.8854 113.668C14.5229 112.175 14.4802 110.597 14.7361 108.955C15.0134 107.313 15.5678 105.841 16.3995 104.54C17.2313 103.239 18.2762 102.152 19.4918 101.299C20.7287 100.424 22.1149 99.8272 23.6291 99.486C25.1645 99.1448 26.7427 99.1235 28.4061 99.4007C30.0695 99.6779 31.5624 100.232 32.9059 101.043C34.2494 101.853 35.3797 102.877 36.2754 104.092C37.1711 105.308 37.8109 106.673 38.1734 108.166C38.536 109.659 38.5786 111.237 38.3227 112.879H38.344ZM35.2304 112.367C35.4224 111.173 35.3797 110.042 35.1025 108.997C34.8252 107.952 34.3347 107.014 33.6523 106.182C32.9699 105.351 32.1382 104.647 31.1358 104.114C30.1335 103.581 29.0246 103.197 27.8303 103.005C26.636 102.813 25.4844 102.813 24.3542 103.005C23.2452 103.197 22.2216 103.581 21.3259 104.156C20.4302 104.732 19.6624 105.457 19.0653 106.353C18.4682 107.249 18.063 108.294 17.871 109.488C17.6791 110.682 17.7218 111.812 17.999 112.857C18.2762 113.902 18.7454 114.841 19.4278 115.672C20.0889 116.504 20.942 117.208 21.923 117.741C22.904 118.274 24.0129 118.658 25.2072 118.85C26.4015 119.042 27.5744 119.063 28.6833 118.85C29.7923 118.637 30.8159 118.274 31.7543 117.698C32.6713 117.123 33.439 116.398 34.0362 115.502C34.6333 114.606 35.0385 113.561 35.2304 112.367Z" fill="#1E1E1E"/>
<path d="M26.2101 74.5772L44.2733 91.1049L42.8018 94.6877L18.3408 93.792L19.7697 90.2945L39.7735 91.2542L24.8879 77.8188L26.2315 74.5559L26.2101 74.5772Z" fill="#1E1E1E"/>
<path d="M47.2797 68.6699C47.8768 69.0751 48.2393 69.6083 48.346 70.248C48.4526 70.8878 48.3246 71.5063 47.9194 72.1034C47.5143 72.6792 47.0024 73.0418 46.3626 73.1697C45.7229 73.2977 45.1044 73.1697 44.5073 72.7432C43.8888 72.3167 43.5263 71.7835 43.4197 71.1437C43.313 70.504 43.441 69.8855 43.8462 69.3097C44.2514 68.7126 44.7845 68.35 45.4243 68.2434C46.0641 68.1368 46.6825 68.2861 47.301 68.6912L47.2797 68.6699Z" fill="#1E1E1E"/>
<path d="M70.7595 55.8104L49.6894 50.9054L61.9092 64.0422L59.5207 66.2601L43.8887 49.4339L46.7037 46.8108L67.2407 51.5665L55.3408 38.7709L57.7293 36.553L73.3613 53.3792L70.7595 55.7891V55.8104Z" fill="#1E1E1E"/>
<path d="M85.2831 46.7895C83.833 47.5999 82.3401 48.069 80.8047 48.2183C79.2692 48.3676 77.7764 48.2183 76.3262 47.7705C74.876 47.3226 73.5325 46.5975 72.3169 45.6165C71.1013 44.6142 70.0777 43.3773 69.2673 41.9058C68.4569 40.4343 67.9664 38.9202 67.7745 37.3634C67.5825 35.8066 67.6892 34.3137 68.1157 32.8636C68.5209 31.4134 69.2033 30.0699 70.1416 28.8543C71.08 27.6387 72.2956 26.6364 73.7458 25.826C75.1959 25.0156 76.6887 24.5464 78.2242 24.3971C79.7597 24.2479 81.2525 24.3971 82.7027 24.8237C84.1528 25.2502 85.4751 25.9753 86.6907 26.9563C87.9062 27.9373 88.9086 29.1742 89.7189 30.6457C90.5293 32.1172 91.0412 33.6313 91.2331 35.2094C91.425 36.7662 91.3184 38.2804 90.9132 39.7519C90.508 41.2234 89.8469 42.5456 88.8872 43.7612C87.9276 44.9768 86.7333 45.9791 85.2831 46.7895ZM83.7477 44.0171C84.814 43.4413 85.667 42.7162 86.3068 41.8418C86.9466 40.9675 87.3944 40.0078 87.629 38.9628C87.8636 37.9178 87.8849 36.8302 87.693 35.6999C87.501 34.5697 87.1172 33.482 86.52 32.4157C85.9442 31.3494 85.2192 30.4324 84.3874 29.686C83.5557 28.9396 82.6174 28.3851 81.6151 28.0226C80.6127 27.66 79.5678 27.5321 78.4801 27.6174C77.4138 27.7027 76.3262 28.0226 75.2599 28.6197C74.1936 29.1955 73.3406 29.9206 72.7008 30.7949C72.061 31.6693 71.6131 32.6077 71.3786 33.6526C71.144 34.6976 71.1013 35.7852 71.2933 36.8942C71.4852 38.0031 71.8691 39.0908 72.4449 40.1571C73.0207 41.2234 73.7457 42.1404 74.5988 42.9081C75.4518 43.6759 76.3689 44.2303 77.3925 44.5929C78.4162 44.9554 79.4611 45.1047 80.5274 45.0194C81.5937 44.9341 82.6814 44.6142 83.7477 44.0171Z" fill="#1E1E1E"/>
<path d="M107.76 13.5421L105.99 37.9391L102.279 39.0054L87.8203 19.2575L91.4457 18.2125L103.09 34.5056L104.391 14.5017L107.781 13.5208L107.76 13.5421Z" fill="#1E1E1E"/>
<path d="M125.418 26.4231C125.461 27.1482 125.269 27.7453 124.842 28.2358C124.416 28.7263 123.84 29.0035 123.115 29.0462C122.411 29.0888 121.814 28.8969 121.302 28.4704C120.812 28.0439 120.535 27.4681 120.471 26.743C120.428 25.9966 120.62 25.3781 121.046 24.8876C121.494 24.3971 122.049 24.1199 122.753 24.0772C123.478 24.0346 124.075 24.2265 124.565 24.653C125.056 25.0796 125.333 25.6767 125.376 26.4018L125.418 26.4231Z" fill="#1E1E1E"/>
<path d="M169.457 158.026H152.844V184.491H136.231V158.026H77.2217V146.51L140.347 66.4519H152.844V143.716H169.457V158.026ZM96.1379 143.716H136.252V91.5953L96.1379 143.716Z" fill="#1E1E1E"/>
</g>
<defs>
<clipPath id="clip0_2507_1446">
<rect width="257" height="257" fill="white"/>
</clipPath>
</defs>
</svg>
