<svg width="374" height="375" viewBox="0 0 374 375" fill="none" xmlns="http://www.w3.org/2000/svg">
<g clip-path="url(#clip0_2229_67)">
<path d="M161 340.028C161 340.028 154.083 338.02 149.569 328.498C145.056 318.976 147.119 303.126 150.92 274.215C154.721 245.303 173.231 191.115 177.372 171.84C183.141 152.229 194.913 146.785 194.913 146.785L199.957 143.879" stroke="white" stroke-width="2.77159" stroke-miterlimit="10"/>
<path d="M157.528 324.539C157.528 324.539 159.175 355.925 178.089 355.791C182.203 354.888 182.314 352.793 182.314 352.793" stroke="white" stroke-width="2.77159" stroke-miterlimit="10"/>
<path d="M169.275 352.793C169.275 352.793 171.651 362.252 174.652 366.255C174.652 366.255 174.652 359.227 176.66 355.779" stroke="white" stroke-width="2.77159" stroke-miterlimit="10"/>
<path d="M153.113 334.144C153.113 334.144 157.528 344.72 161.582 346.993L161.226 341.449" stroke="white" stroke-width="2.77159" stroke-miterlimit="10"/>
<path d="M238.534 490.406C256.129 490.406 246.08 454.629 245.371 453.869C242.287 451.569 238.573 345.54 238.573 345.54L238.51 331.365" stroke="white" stroke-width="2.77159" stroke-miterlimit="10"/>
<path d="M178.873 313.896C178.873 313.896 178.081 314.177 171.991 311.461C165.902 308.745 162.215 314.835 164.029 319.705C165.842 324.575 168.257 324.337 169.782 326.677C171.611 329.817 172.585 338.607 180.449 336.972L178.873 313.896Z" stroke="white" stroke-width="2.77159" stroke-miterlimit="10"/>
<path d="M292.306 194.144C292.306 194.144 296.198 208.754 299.96 228.305C301.611 236.897 303.238 246.447 304.497 256.124C305.938 267.191 306.901 278.432 306.873 288.619C307.922 306.405 301.532 384.793 293.64 442.541C293.53 443.354 293.419 444.155 293.308 444.945C292.987 447.229 292.825 448.393 292.761 448.829C292.552 450.313 293.53 443.353 293.53 443.353" stroke="white" stroke-width="2.77159" stroke-miterlimit="10"/>
<path d="M258.825 324.095C258.825 324.095 243.384 338.017 227.97 328.007" stroke="white" stroke-width="2.77159" stroke-miterlimit="10"/>
<path d="M293.834 147.205C297.746 150.258 304.283 157.036 308.139 170.146C312.281 189.42 330.787 243.609 334.592 272.52C338.397 301.432 340.46 317.281 335.942 326.804C331.425 336.326 324.511 338.334 324.511 338.334" stroke="white" stroke-width="2.77159" stroke-miterlimit="10"/>
<path d="M327.985 322.848C327.985 322.848 326.338 354.235 307.423 354.1C303.31 353.197 303.199 351.103 303.199 351.103" stroke="white" stroke-width="2.77159" stroke-miterlimit="10"/>
<path d="M316.236 351.115C316.236 351.115 313.861 360.574 310.859 364.576C310.859 364.576 310.859 357.549 308.852 354.1" stroke="white" stroke-width="2.77159" stroke-miterlimit="10"/>
<path d="M332.399 332.454C332.399 332.454 327.984 343.03 323.93 345.302L324.286 339.759" stroke="white" stroke-width="2.77159" stroke-miterlimit="10"/>
<path d="M242.627 434.365C246.167 399.815 246.381 399.455 246.662 344.542L246.725 330.367" stroke="white" stroke-width="2.77159" stroke-miterlimit="10"/>
<path d="M306.635 312.19C306.635 312.19 307.427 312.471 313.517 309.755C319.606 307.039 323.293 313.128 321.479 317.998C319.666 322.868 317.251 322.631 315.726 324.971C313.897 328.11 312.923 336.9 305.06 335.265L306.635 312.19Z" stroke="white" stroke-width="2.77159" stroke-miterlimit="10"/>
<path d="M242.889 196.27C242.889 196.27 218.546 190.782 207.389 217.488C196.231 244.195 195.202 279.473 203.481 291.066C211.76 302.659 228.592 310.249 241.859 310.736C255.127 311.223 276.651 301.99 282.321 289.356C292.219 275.438 282.107 226.053 274.509 212.939C266.911 199.825 256.893 195.553 242.889 196.27Z" stroke="white" stroke-width="2.77159" stroke-miterlimit="10"/>
<path d="M192.77 197.49C192.77 197.49 189.405 211.672 186.914 213.01L189.761 214.669C189.761 214.669 182.44 230.832 181.05 242.1L183.652 240.41C182.753 245.707 181.731 252.264 181.011 257.803C179.57 268.87 178.607 280.11 178.635 290.294C177.586 308.084 183.976 386.468 191.867 444.22C191.978 445.033 192.089 445.834 192.2 446.623C192.521 448.908 192.861 451.121 192.925 451.557C193.131 453.042 191.978 445.032 191.978 445.032" stroke="white" stroke-width="2.77159" stroke-miterlimit="10"/>
<path d="M216.234 68.8441V76.5254" stroke="white" stroke-width="17.4214" stroke-miterlimit="10" stroke-linecap="round"/>
<path d="M264.504 100.088C264.505 101.19 264.281 102.28 263.843 103.292C263.406 104.303 262.766 105.214 261.962 105.968H261.942C254.102 114.401 248.686 118.4 243.123 118.274C237.635 118.147 231.997 113.997 223.741 106.134L223.274 105.694C221.927 104.298 221.125 102.464 221.015 100.527C220.906 98.5892 221.494 96.6766 222.675 95.1365C223.856 93.5963 225.55 92.531 227.449 92.134C229.349 91.7369 231.328 92.0346 233.026 92.9729H233.054C233.101 93.0006 233.196 93.06 233.331 93.1313C234.361 93.7054 240.395 94.4735 242.921 94.4735C245.736 94.4735 249.05 94.5131 252.732 92.8343C253.965 92.2051 255.338 91.9029 256.721 91.9568C258.104 92.0107 259.45 92.4188 260.63 93.1421C261.81 93.8654 262.784 94.8796 263.46 96.0875C264.135 97.2954 264.489 98.6565 264.488 100.04L264.504 100.088Z" fill="black"/>
<path d="M225.495 105.235L225.958 105.679C225.8 105.544 225.642 105.393 225.495 105.235Z" fill="black"/>
<path d="M235.564 92.7076L235.287 92.5453C235.382 92.5941 235.475 92.6483 235.564 92.7076Z" fill="black"/>
<path d="M235.273 92.5374H235.247" stroke="white" stroke-width="0.395941" stroke-miterlimit="10"/>
<path d="M243.24 140.189H243.162" stroke="white" stroke-width="2.77159" stroke-miterlimit="10"/>
<path d="M212.904 130.112C209.376 127.064 204.193 121.825 198.65 113.578C188.534 98.5876 204.272 89.2157 207.084 88.2813C209.895 87.3468 220.364 78.937 220.364 78.937" stroke="white" stroke-width="2.77159" stroke-miterlimit="10"/>
<path d="M220.031 54.5036C217.287 55.1093 206.335 53.3157 206.335 53.3157C206.335 53.3157 195.613 54.3571 203.611 49.9463C211.609 45.5355 222.438 51.5301 223.994 52.2982C225.095 54.1947 222.779 53.8978 220.031 54.5036Z" stroke="white" stroke-width="2.77159" stroke-miterlimit="10"/>
<path d="M243.241 117.806C243.202 117.973 243.162 118.143 243.119 118.305" stroke="white" stroke-width="2.77159" stroke-miterlimit="10" stroke-linecap="round"/>
<path d="M269.278 68.8441V76.5254" stroke="white" stroke-width="17.4214" stroke-miterlimit="10" stroke-linecap="round"/>
<path d="M260.754 105.235L260.291 105.679C260.449 105.544 260.604 105.393 260.754 105.235Z" fill="black"/>
<path d="M250.962 92.5651C250.91 92.5967 250.819 92.6522 250.681 92.7274C250.771 92.668 250.865 92.6138 250.962 92.5651Z" fill="black"/>
<path d="M251 92.5176H250.974" stroke="white" stroke-width="0.395941" stroke-miterlimit="10"/>
<path d="M231.85 165.727C231.921 167.026 230.116 171.128 230.116 171.128C230.116 171.128 230.302 162.884 223.745 163.07C217.188 163.257 209.194 154.265 209.194 154.265C208.157 157.017 209.151 161.384 209.194 161.566C205.52 157.626 201.276 146.017 201.276 146.017C200.876 145.291 200.44 144.585 199.969 143.903C195.103 136.812 188.487 134.773 188.487 134.773C171.208 131.379 157.975 113.392 157.975 113.392C159.848 112.81 159.476 105.683 159.476 105.683C159.1 103.41 153.478 102.147 153.478 102.147C154.978 101.957 155.917 99.1458 155.917 99.1458C155.354 97.6491 151.605 96.1525 151.605 96.1525L152.27 95.7249L154.226 94.4658C151.981 94.2916 149.732 92.7078 149.732 92.7078C154.622 92.4504 157.789 82.8449 157.789 82.8449C156.665 81.1582 152.167 80.5801 152.167 80.5801C152.729 78.6677 158.352 77.0166 158.352 77.0166C157.603 75.516 153.291 73.6314 153.291 73.6314C156.103 72.3129 161.163 64.0852 161.163 64.0852C161.163 64.0852 153.165 15.9863 161.662 3.74385C170.159 -8.49865 196.39 24.1942 196.39 24.1942C196.39 24.1942 219.477 9.5325 243.008 9.43352H243.241C266.772 9.54438 289.855 24.1942 289.855 24.1942C289.855 24.1942 316.094 -8.49865 324.587 3.74385C333.08 15.9863 325.086 64.0852 325.086 64.0852C325.086 64.0852 330.146 72.3129 332.958 73.6314C332.958 73.6314 328.646 75.516 327.897 77.0166C327.897 77.0166 333.52 78.6875 334.082 80.5801C334.082 80.5801 329.584 81.1582 328.46 82.8449C328.46 82.8449 331.647 92.4504 336.517 92.7078C336.517 92.7078 334.268 94.2757 332.019 94.4658L333.979 95.7249L334.644 96.1525C334.644 96.1525 330.895 97.6492 330.333 99.1181C330.333 99.1181 331.271 101.929 332.768 102.119C332.768 102.119 327.149 103.382 326.773 105.655C326.773 105.655 326.397 112.802 328.274 113.364C328.274 113.364 316.645 131.371 299.37 134.745C299.37 134.745 296.06 143.804 293.827 147.205C293.221 148.132 292.69 148.638 292.33 148.425C292.124 148.306 292.14 148.884 291.978 149.121C290.794 150.848 287.456 152.736 287.456 152.736C288.957 150.864 288.735 146.552 288.735 146.552C288.735 146.552 285.773 148.801 277.197 155.734C268.621 162.667 257.068 162.9 256.161 164.353C255.254 165.806 249.945 169.726 249.62 169.964C251.861 168.075 249.62 163.043 249.62 163.043C249.62 163.043 249.236 165.304 243.237 165.882C237.239 166.46 233.865 173.191 233.865 173.191C233.865 172.114 232.246 167.034 231.85 165.727ZM231.85 165.727C231.816 165.629 231.788 165.528 231.767 165.426C231.784 165.45 231.798 165.477 231.807 165.505C231.833 165.576 231.848 165.651 231.85 165.727ZM169.723 46.2402C160.062 52.2268 167.743 37.6443 167.743 37.6443C150.041 28.0111 171.841 21.7631 171.841 21.7631C171.841 21.7631 162.339 14.2086 168.484 10.8272C174.027 10.8272 187.152 27.2746 187.152 27.2746C187.152 27.2746 176.43 42.839 169.723 46.2402ZM250.962 92.5653C250.911 92.5969 250.82 92.6524 250.681 92.7276C250.772 92.6682 250.865 92.614 250.962 92.5653ZM235.564 92.7276L235.287 92.5653C235.382 92.6076 235.474 92.6552 235.564 92.7078V92.7276ZM206.336 53.3394C206.336 53.3394 195.614 54.3807 203.612 49.97C211.61 45.5592 222.439 51.5537 223.995 52.3218C225.095 54.2144 222.779 53.9056 220.035 54.5233C217.291 55.1409 206.336 53.3196 206.336 53.3196V53.3394ZM268.681 133.648C268.681 133.648 264.935 138.332 255.939 139.27C247.977 140.102 243.978 140.197 243.166 140.205C242.58 140.205 238.585 140.134 230.31 139.27C221.314 138.332 217.569 133.648 217.569 133.648C215.915 132.613 214.355 131.437 212.904 130.132C213.395 130.326 237.849 139.837 243.119 118.329C237.631 118.202 231.993 114.053 223.737 106.19L223.27 105.75C221.923 104.353 221.121 102.52 221.011 100.582C220.901 98.6448 221.49 96.7322 222.671 95.1921C223.851 93.652 225.545 92.5866 227.445 92.1895C229.344 91.7925 231.323 92.0902 233.022 93.0285H233.05C233.097 93.0562 233.192 93.1156 233.327 93.1869C234.356 93.761 240.391 94.5291 242.917 94.5291C245.732 94.5291 249.046 94.5687 252.728 92.8899C254.461 92.0096 256.454 91.7832 258.34 92.2523C260.227 92.7213 261.881 93.8544 263 95.4439C264.119 97.0334 264.628 98.9729 264.434 100.907C264.24 102.841 263.355 104.641 261.942 105.976H261.922C254.082 114.409 248.666 118.408 243.103 118.282C248.472 141.329 272.945 130.259 273.325 130.085C271.882 131.398 270.328 132.583 268.681 133.628V133.648ZM279.913 53.3394C279.913 53.3394 268.962 55.1291 266.214 54.5272C263.466 53.9254 262.254 54.2184 262.254 52.3258C262.254 51.5101 274.635 45.5631 282.637 49.9739C290.639 54.3847 279.913 53.3196 279.913 53.3196V53.3394ZM316.138 37.6483C316.138 37.6483 323.839 52.2308 314.182 46.2402C307.451 42.8549 296.733 27.2786 296.733 27.2786C296.733 27.2786 309.874 10.8311 315.398 10.8311C321.558 14.2125 312.044 21.767 312.044 21.767C312.044 21.767 333.825 28.0269 316.138 37.6483Z" stroke="white" stroke-width="2.77159" stroke-miterlimit="10"/>
<path d="M231.771 165.407V165.402" stroke="white" stroke-width="2.77159" stroke-miterlimit="10"/>
<path d="M243.162 140.185H243.008" stroke="white" stroke-width="2.77159" stroke-miterlimit="10"/>
<path d="M273.345 130.112C276.872 127.064 282.055 121.821 287.599 113.578C297.719 98.5877 281.976 89.2158 279.165 88.2814C276.354 87.347 265.644 79.4281 265.644 79.4281" stroke="white" stroke-width="2.77159" stroke-miterlimit="10"/>
<path d="M279.913 53.3193C279.913 53.3193 268.962 55.1089 266.214 54.5071C263.466 53.9053 262.254 54.1982 262.254 52.3056C262.254 51.49 274.635 45.543 282.637 49.9538C290.639 54.3645 279.913 53.3193 279.913 53.3193Z" stroke="white" stroke-width="2.77159" stroke-miterlimit="10"/>
<path d="M243.008 117.806C243.043 117.973 243.079 118.139 243.119 118.305" stroke="white" stroke-width="2.77159" stroke-miterlimit="10" stroke-linecap="round"/>
<path d="M187.172 27.2627C187.172 27.2627 176.43 42.839 169.723 46.2282C160.062 52.2149 167.743 37.6324 167.743 37.6324C150.041 27.9991 171.841 21.7512 171.841 21.7512C171.841 21.7512 162.339 14.1966 168.484 10.8153C174.031 10.8153 187.172 27.2627 187.172 27.2627Z" stroke="white" stroke-width="2.77159" stroke-miterlimit="10"/>
<path d="M316.138 37.6483C316.138 37.6483 323.839 52.2308 314.182 46.2402C307.451 42.8549 296.733 27.2786 296.733 27.2786C296.733 27.2786 309.874 10.8312 315.398 10.8312C321.558 14.2125 312.044 21.7671 312.044 21.7671C312.044 21.7671 333.825 28.0269 316.138 37.6483Z" stroke="white" stroke-width="2.77159" stroke-miterlimit="10"/>
<path d="M238.545 335.451L246.064 392.249" stroke="white" stroke-width="2.77159" stroke-miterlimit="10"/>
<path d="M305.051 354.1C305.051 354.1 308.152 389.212 307.498 401.074C308.166 402.12 308.965 403.077 309.874 403.921C309.874 403.921 312.42 407.037 312.938 409.037C313.457 411.036 314.3 417.545 323.011 417.953C331.722 418.361 352.976 420.8 355.957 420.19C358.939 419.581 398.588 420.8 401.008 422.427C403.427 424.055 417.499 427.693 419.399 438.811C421.3 449.929 419.819 458.41 419.126 460.477C418.433 462.544 417.791 467.39 405.327 471.473C399.226 473.472 366.105 471.473 366.105 471.473L312.063 471.73C312.063 471.73 309.252 470.815 308.262 467.066" stroke="white" stroke-width="2.77159" stroke-miterlimit="10"/>
<path d="M76 150L72.24 140.46V150H69.48V135.64H73.12L77.28 146.28L81.46 135.64H85.1V150H82.34V140.38L78.54 150H76ZM90.5147 150.2C87.4147 150.2 85.0947 147.76 85.0947 144.66C85.0947 141.54 87.4147 139.12 90.5147 139.12C93.6147 139.12 95.9347 141.54 95.9347 144.66C95.9347 147.76 93.6147 150.2 90.5147 150.2ZM90.5147 147.74C91.8947 147.74 93.0747 146.64 93.0747 144.66C93.0747 142.68 91.8947 141.6 90.5147 141.6C89.1347 141.6 87.9547 142.68 87.9547 144.66C87.9547 146.64 89.1347 147.74 90.5147 147.74ZM100.209 150.2C97.1288 150.2 95.0088 147.92 95.0088 144.66C95.0088 141.46 97.2088 139.12 100.209 139.12C102.989 139.12 105.049 141 105.389 143.88H102.469C102.329 142.46 101.469 141.58 100.209 141.58C98.7688 141.58 97.8488 142.76 97.8488 144.66C97.8488 146.58 98.7488 147.74 100.209 147.74C101.489 147.74 102.309 146.9 102.469 145.44H105.389C105.069 148.38 103.069 150.2 100.209 150.2ZM107.954 150H105.174V135.64H107.954V143.84L111.854 139.32H115.054L110.634 144.44L115.574 150H112.034L107.954 145.04V150ZM121.353 145.5V139.32H124.113V150H121.573V148.6C120.993 149.54 119.813 150.2 118.453 150.2C116.313 150.2 114.753 148.9 114.753 146.12V139.32H117.533V145.58C117.533 147.08 118.273 147.74 119.393 147.74C120.393 147.74 121.353 146.94 121.353 145.5ZM135.271 144.66C135.271 147.82 133.411 150.2 130.531 150.2C129.271 150.2 128.191 149.66 127.391 148.62V153.86H124.611V139.32H127.171V140.88C127.991 139.74 129.171 139.12 130.531 139.12C133.411 139.12 135.271 141.52 135.271 144.66ZM132.411 144.66C132.411 142.66 131.271 141.58 129.911 141.58C128.551 141.58 127.411 142.64 127.411 144.66C127.411 146.68 128.551 147.72 129.911 147.72C131.271 147.72 132.411 146.7 132.411 144.66ZM140.452 136.84C140.452 137.78 139.692 138.48 138.592 138.48C137.512 138.48 136.752 137.78 136.752 136.84C136.752 135.86 137.512 135.16 138.592 135.16C139.692 135.16 140.452 135.86 140.452 136.84ZM140.012 150H137.232V139.32H140.012V150ZM143.266 150H140.486V139.32H143.046V140.84C143.826 139.76 144.826 139.12 146.246 139.12C147.706 139.12 148.826 139.8 149.366 141.02C150.206 139.84 151.286 139.12 152.886 139.12C155.046 139.12 156.506 140.54 156.506 143.1V150H153.746V143.98C153.746 142.48 153.106 141.58 151.886 141.58C150.786 141.58 149.886 142.44 149.886 144.04V150H147.126V143.98C147.126 142.48 146.486 141.58 145.266 141.58C144.146 141.58 143.266 142.44 143.266 144.04V150ZM163.245 150V148.68C162.545 149.68 161.485 150.2 160.025 150.2C157.805 150.2 156.325 148.9 156.325 146.9C156.325 144.82 158.005 143.7 161.125 143.7C161.725 143.7 162.245 143.74 162.905 143.82V143.18C162.905 141.98 162.225 141.28 161.065 141.28C159.865 141.28 159.145 141.98 159.045 143.18H156.545C156.705 140.72 158.485 139.12 161.065 139.12C163.865 139.12 165.505 140.66 165.505 143.28V150H163.245ZM158.945 146.82C158.945 147.72 159.585 148.28 160.625 148.28C162.045 148.28 162.905 147.5 162.905 146.26V145.5C162.245 145.4 161.785 145.36 161.305 145.36C159.725 145.36 158.945 145.86 158.945 146.82ZM170.44 154.06C167.56 154.06 165.64 152.5 165.52 150.04H168.2C168.32 151.26 169.1 151.9 170.42 151.9C171.96 151.9 172.76 151.08 172.76 149.54V147.98C172.18 149 171.08 149.6 169.78 149.6C167.16 149.6 165.2 147.38 165.2 144.36C165.2 141.26 167.04 139.12 169.68 139.12C171.12 139.12 172.2 139.68 172.98 140.78V139.32H175.52V149.5C175.52 152.34 173.6 154.06 170.44 154.06ZM167.98 144.36C167.98 146.1 168.88 147.2 170.32 147.2C171.78 147.2 172.74 146.06 172.74 144.38C172.74 142.64 171.78 141.52 170.32 141.52C168.9 141.52 167.98 142.62 167.98 144.36ZM180.669 150.18C177.469 150.18 175.329 147.96 175.329 144.62C175.329 141.44 177.549 139.12 180.629 139.12C184.009 139.12 186.249 141.86 185.749 145.34H178.169C178.349 147.08 179.189 148.04 180.609 148.04C181.829 148.04 182.649 147.44 182.969 146.38H185.729C185.129 148.8 183.269 150.18 180.669 150.18ZM180.569 141.16C179.269 141.16 178.449 142 178.209 143.58H182.809C182.729 142.1 181.889 141.16 180.569 141.16ZM73.02 174H70.26V165.7H68.1V163.32H70.26V162.74C70.26 160.62 71.4 159.42 73.62 159.42C74.3 159.42 74.88 159.54 75.34 159.74V161.94C75.04 161.82 74.64 161.76 74.28 161.76C73.52 161.76 73.02 162.06 73.02 162.8V163.32H75.8V165.7H73.02V174ZM79.6553 174.2C76.5553 174.2 74.2353 171.76 74.2353 168.66C74.2353 165.54 76.5553 163.12 79.6553 163.12C82.7553 163.12 85.0753 165.54 85.0753 168.66C85.0753 171.76 82.7553 174.2 79.6553 174.2ZM79.6553 171.74C81.0353 171.74 82.2153 170.64 82.2153 168.66C82.2153 166.68 81.0353 165.6 79.6553 165.6C78.2753 165.6 77.0953 166.68 77.0953 168.66C77.0953 170.64 78.2753 171.74 79.6553 171.74ZM87.6294 168.82V174H84.8494V163.32H87.4094V165.38C88.1894 164.02 89.8494 163.2 91.5694 163.2V166.08C89.2094 165.9 87.6294 166.46 87.6294 168.82ZM72.02 192.18V198H69.24V187.32H71.8V188.84C72.58 187.78 73.68 187.12 75.08 187.12C77.22 187.12 78.7 188.52 78.7 191.1V198H75.94V192.04C75.94 190.46 75.32 189.58 74.06 189.58C72.96 189.58 72.02 190.46 72.02 192.18ZM83.8155 198.2C80.7155 198.2 78.3955 195.76 78.3955 192.66C78.3955 189.54 80.7155 187.12 83.8155 187.12C86.9155 187.12 89.2355 189.54 89.2355 192.66C89.2355 195.76 86.9155 198.2 83.8155 198.2ZM83.8155 195.74C85.1955 195.74 86.3755 194.64 86.3755 192.66C86.3755 190.68 85.1955 189.6 83.8155 189.6C82.4355 189.6 81.2555 190.68 81.2555 192.66C81.2555 194.64 82.4355 195.74 83.8155 195.74ZM97.4961 198L95.4761 191.06L93.4761 198H90.6961L87.6561 187.32H90.3561L92.1761 194.08L94.1361 187.32H96.8761L98.7761 194.08L100.576 187.32H103.316L100.256 198H97.4961Z" fill="#A0A0A0"/>
</g>
<defs>
<clipPath id="clip0_2229_67">
<rect width="374" height="375" fill="white"/>
</clipPath>
</defs>
</svg>
