<svg width="525" height="558" viewBox="0 0 525 558" fill="none" xmlns="http://www.w3.org/2000/svg">
<path d="M522.395 336.258L522.297 345.167C522.198 354.094 519.499 364.25 504.802 362.188L505.211 353.498C509.417 353.472 511.96 351.551 511.993 348.598L504.977 348.19L503.54 336.481L522.395 336.258Z" fill="#ED3C71"/>
<path d="M233.784 493.993L233.928 519.709C233.928 519.709 291.332 497.006 255.825 519.709C237.615 533.597 234.259 534.422 234.259 534.422L236.094 555.866L314.836 557.104L319.911 525.833L286.313 526.166L302.365 510.482C302.365 510.482 337.757 482.486 267.732 487.255C229.455 492.602 233.784 493.993 233.784 493.993Z" fill="#ED3C71"/>
<path d="M323.891 486.231L325.511 509.961L365.293 506.427L336.856 519.145L344.479 532.099L366.659 532.642C366.659 532.642 378.712 532.69 366.537 538.93C339.32 539.355 328.518 536.708 328.518 536.708L326.276 555.95C326.276 555.95 418.296 564.127 416.995 536.896C404.569 517.33 381.457 512.597 381.457 512.597L404.766 501.156L399.343 482.009L323.891 486.231Z" fill="#ED3C71"/>
<path d="M338.453 336.788H371.123L384.579 424.238L389.396 336.309L420.016 336L406.827 474.73L379.452 473.405L366.692 441.238L365.032 472.25L332.419 475.492L338.453 336.788Z" fill="#ED3C71"/>
<path d="M255.729 346.58L264.589 372.605C264.589 372.605 272.895 364.858 291.72 365.075C306.932 365.075 298.764 394.011 298.764 394.011C298.764 394.011 247.363 365.519 244.652 422.444C241.941 479.369 288.608 463.504 288.608 463.504L287.474 475.501L316.482 478.934C316.482 478.934 322.245 446.302 326.051 378.066C326.051 309.322 255.729 346.58 255.729 346.58ZM292.555 434.196C290.599 436.083 272.445 444.746 274.137 425.104C275.66 407.331 293.732 413.397 294.578 418.133C295.451 423.035 295.587 432.035 292.555 434.196Z" fill="#ED3C71"/>
<path d="M514.824 432.872C514.824 432.872 509.863 353.332 478.784 337.197C434.29 329.194 429.266 361.153 420.65 438.156C412.034 515.16 417.85 557.1 484.091 557.1C532.575 552.827 524.495 488.142 524.495 488.142L521.784 447.257L467.204 451.587L465.167 487.974L488.69 487.342C488.69 487.342 496.272 525.442 467.79 521.281C454.094 518.926 451.313 485.509 453.605 454.468C457.234 357.059 474.744 399.964 478.796 437.89L514.824 432.872Z" fill="#ED3C71"/>
<path d="M0 336.542H96.0335L108.139 373.438H59.1142V557.1H22.6926L23.8005 373.438H0V336.542Z" fill="#ED3C71"/>
<path d="M109.66 382.915H75.2254L69.6736 555.748L104.899 557.093L104.454 505.585C105.783 463.667 119.289 487.976 124.242 503.654C129.822 520.728 143.555 555.748 143.555 555.748H178.809L109.66 382.915ZM100.733 461.17L99.1066 425.806L111.796 457.907C111.796 457.907 106.586 455.297 100.729 461.17H100.733Z" fill="#ED3C71"/>
<path d="M219.482 486.363C219.482 486.363 246.478 479.971 257.268 479.559L207.96 404.646C207.96 404.646 252.702 378.766 245.448 356.022C236.312 327.367 108.138 337.886 108.138 337.886L190.667 556.932H226.619L175.294 421.751L219.482 486.363ZM154.059 366.014C154.059 366.014 194.985 361.606 194.985 371.897C194.985 385.132 164.242 391.052 164.242 391.052L154.059 366.014Z" fill="#ED3C71"/>
<path d="M300.583 184.513C300.583 188.71 298.928 192.495 296.273 195.154C296.259 195.167 296.247 195.182 296.236 195.197C269.811 225.528 259.636 224.155 231.433 195.499C231.174 195.231 230.909 194.964 230.646 194.693C228.141 191.896 226.767 188.267 226.791 184.513C226.791 176.41 232.942 169.841 240.536 169.841C242.877 169.841 245.175 170.473 247.188 171.67C247.204 171.68 247.219 171.691 247.232 171.704C247.242 171.704 247.247 171.704 247.255 171.718C247.341 171.771 247.496 171.878 247.734 172.008C249.477 173.048 259.706 175.323 263.997 175.323C269.765 175.346 275.458 174.027 280.628 171.47C282.536 170.422 284.678 169.873 286.854 169.874C294.437 169.874 300.583 176.435 300.583 184.513Z" fill="#1E1E1E"/>
<path d="M233.536 192.223L234.323 193.022C234.05 192.777 233.786 192.504 233.536 192.223Z" fill="#1E1E1E"/>
<path d="M263.635 17.1562C223.585 17.1562 184.329 35.9934 184.329 35.9934C184.329 35.9934 139.669 -12.7342 125.262 8.2453C110.854 29.2248 124.414 111.645 124.414 111.645C124.414 111.645 115.832 125.741 111.065 128.007C111.065 128.007 118.375 131.234 119.646 133.803C119.646 133.803 110.11 136.632 109.157 139.869C109.157 139.869 116.785 140.862 118.693 143.753C118.693 143.753 113.289 160.21 105.024 160.651C105.024 160.651 108.84 163.341 112.653 163.661L109.328 165.821L108.211 166.553C108.211 166.553 114.568 169.121 115.521 171.69C115.521 171.69 113.924 176.507 111.389 176.828C111.389 176.828 120.924 178.993 121.56 182.895C121.56 182.895 122.198 195.139 119.017 196.101C119.017 196.101 141.465 226.929 170.766 232.709C170.766 232.709 184.176 236.884 192.442 251.976C192.442 251.976 199.643 271.886 205.896 278.635C205.896 278.635 204.094 270.928 205.896 266.112C205.896 266.112 219.465 281.526 230.584 281.204C241.702 280.881 241.391 295.012 241.391 295.012C241.391 295.012 245.685 286.984 245.05 285.378C244.415 283.772 247.748 296.298 247.748 298.545C247.748 298.545 253.519 291.986 263.689 291.022" stroke="#1E1E1E" stroke-width="4.52521" stroke-miterlimit="10" stroke-linecap="round"/>
<path d="M224.397 142.592C224.397 142.592 203.561 155.815 198.792 157.557C194.024 159.298 167.167 181.32 184.329 209.202C201.492 237.085 215.573 232.481 223.41 239.26C231.247 246.04 238.207 250.275 253.463 252.012C268.72 253.749 263.335 252.614 263.335 252.614" stroke="#1E1E1E" stroke-width="4.52521" stroke-miterlimit="10" stroke-linecap="round"/>
<path d="M201.653 178.148C201.653 178.148 172.728 156.65 158.743 159.257C144.757 161.864 94.5686 152.467 94.5686 152.467" stroke="#1E1E1E" stroke-width="4.52521" stroke-miterlimit="10" stroke-linecap="round"/>
<path d="M85 183.105C92.3114 178.487 127.593 176.113 139.99 178.156C152.388 180.2 160.65 176.121 173.682 174.086C186.713 172.05 198.792 185.618 198.792 185.618" stroke="#1E1E1E" stroke-width="4.52521" stroke-miterlimit="10" stroke-linecap="round"/>
<path d="M194.024 194.77C194.024 194.77 175.541 195.197 168.865 199.608" stroke="#1E1E1E" stroke-width="4.52521" stroke-miterlimit="10" stroke-linecap="round"/>
<path d="M198.792 208.337C198.792 208.337 177.375 220.209 170.76 222.923C164.145 225.637 148.38 229.122 144.185 232.808C139.99 236.494 128.668 246.329 128.668 246.329" stroke="#1E1E1E" stroke-width="4.52521" stroke-miterlimit="10" stroke-linecap="round"/>
<path d="M215.639 198.84C215.639 198.84 204.831 195.787 204.514 198.84" stroke="#1E1E1E" stroke-width="6.15429" stroke-miterlimit="10"/>
<path d="M230.982 97.292C229.76 93.7497 209.981 85.0447 196.412 93.0281C182.843 101.012 201.029 99.1326 201.029 99.1326C201.029 99.1326 219.614 102.364 224.277 101.27C228.94 100.177 232.209 100.833 230.982 97.292Z" stroke="#1E1E1E" stroke-width="4.3442" stroke-miterlimit="10"/>
<path d="M168.361 90.8986C167.613 91.4701 166.866 92.0161 166.218 92.7057C165.594 93.3889 165.015 94.112 164.485 94.8704C163.847 95.7785 163.289 96.7398 162.816 97.7439C161.819 99.8016 161.043 101.961 160.005 104.002C159.371 105.248 158.623 106.433 157.77 107.542L158.519 106.573C157.4 108.023 156.102 109.326 154.657 110.451L155.633 109.707C154.737 110.398 153.775 110.976 152.834 111.6C152.012 112.14 151.228 112.735 150.488 113.382C150.137 113.692 149.813 114.031 149.519 114.394C148.948 115.065 148.429 115.778 147.967 116.528C147.549 117.293 147.186 118.087 146.878 118.902C146.347 120.202 146.152 121.576 146.003 122.968C145.946 123.508 145.933 124.052 145.965 124.595C146.019 125.562 146.155 126.524 146.372 127.468C146.753 128.648 147.531 129.66 148.574 130.331C149.106 130.675 149.72 130.871 150.354 130.899C150.988 131.042 151.65 131.013 152.269 130.813L153.414 130.334C154.124 129.917 154.715 129.326 155.131 128.616L155.61 127.471C155.839 126.638 155.839 125.759 155.61 124.925C155.54 124.632 155.486 124.335 155.451 124.036L155.622 125.313C155.505 124.435 155.505 123.545 155.622 122.666L155.451 123.943C155.574 123.049 155.814 122.174 156.164 121.341L155.685 122.484C156.003 121.737 156.412 121.032 156.903 120.385L156.155 121.354C156.621 120.756 157.161 120.22 157.762 119.758L156.793 120.506C157.52 119.949 158.307 119.482 159.073 118.982C160.099 118.303 161.085 117.566 162.026 116.773C162.66 116.244 163.263 115.679 163.832 115.08C164.663 114.171 165.444 113.216 166.169 112.22C167.149 110.913 167.99 109.507 168.68 108.026C169.339 106.629 169.909 105.194 170.536 103.783C171.224 102.236 171.986 100.705 173.022 99.3594L172.273 100.328C172.81 99.6292 173.433 99.0002 174.127 98.4558L173.158 99.2045L173.204 99.1694C173.75 98.8795 174.213 98.4547 174.548 97.9354C175.111 97.1771 175.446 96.2735 175.512 95.3313C175.578 94.389 175.373 93.4475 174.922 92.6179L174.173 91.6473C173.587 91.061 172.859 90.6369 172.059 90.4165L170.782 90.2457C169.932 90.2438 169.097 90.4692 168.364 90.8986H168.361Z" fill="#1E1E1E"/>
<path d="M134.476 195.654L134.573 195.774L133.825 194.805C134.05 195.099 134.237 195.421 134.38 195.763L133.901 194.618C134.118 195.165 134.264 195.737 134.334 196.321L134.163 195.044C134.297 196.055 134.297 197.076 134.35 198.093C134.398 199 134.519 199.897 134.653 200.798C134.718 201.268 134.832 201.73 134.993 202.177C135.18 202.673 135.391 203.165 135.613 203.646C135.665 203.76 135.722 203.872 135.785 203.981C135.852 204.097 135.924 204.211 136.002 204.321C136.309 204.747 136.629 205.17 136.973 205.571L137.942 206.319L139.085 206.798L140.362 206.969C141.003 206.999 141.64 206.857 142.207 206.557C143.35 206.077 144.258 205.168 144.737 204.025C145.037 203.458 145.179 202.821 145.151 202.18C145.175 201.947 145.175 201.712 145.151 201.479C145.1 200.954 145.036 200.416 144.932 199.896C144.911 199.793 144.886 199.691 144.857 199.591C144.603 198.753 144.255 197.947 143.82 197.188C143.373 196.39 142.799 195.643 142.435 194.794L142.914 195.938C142.731 195.507 142.603 195.053 142.534 194.589L142.705 195.866C142.664 195.567 142.662 195.264 142.697 194.964L142.525 196.242C142.553 196.043 142.604 195.848 142.677 195.66L142.198 196.805C142.261 196.653 142.343 196.51 142.44 196.377L141.692 197.346C141.774 197.239 141.867 197.14 141.969 197.051C142.835 196.136 143.317 194.924 143.317 193.664C143.317 192.405 142.835 191.193 141.969 190.278L141 189.529C140.267 189.1 139.433 188.874 138.583 188.876L137.306 189.047C136.508 189.268 135.779 189.692 135.193 190.278C135.11 190.351 135.033 190.43 134.961 190.514C134.685 190.843 134.398 191.211 134.152 191.563C134.118 191.609 134.085 191.657 134.056 191.706C133.912 191.976 133.787 192.256 133.683 192.543C133.55 192.819 133.438 193.104 133.347 193.397C133.282 193.706 133.234 194.018 133.204 194.332C133.151 194.646 133.114 194.963 133.094 195.281C133.076 195.919 133.212 196.578 133.306 197.196C133.438 198.071 133.833 198.885 134.184 199.687C134.409 200.165 134.67 200.625 134.964 201.064C135.322 201.603 135.637 202.17 135.906 202.758L135.427 201.613C135.577 201.963 135.68 202.33 135.735 202.705L135.563 201.428C135.593 201.682 135.593 201.938 135.563 202.191L143.738 198.805C143.693 198.753 143.65 198.7 143.609 198.646L144.358 199.615C144.134 199.32 143.948 198.998 143.805 198.657L144.284 199.801C144.069 199.255 143.926 198.683 143.856 198.1L144.027 199.377C143.896 198.374 143.896 197.364 143.843 196.356C143.796 195.447 143.674 194.549 143.54 193.643C143.476 193.171 143.362 192.708 143.202 192.26C143.02 191.77 142.809 191.288 142.593 190.812C142.542 190.697 142.485 190.586 142.424 190.475C142.08 189.908 141.685 189.374 141.243 188.879C140.328 188.012 139.116 187.529 137.856 187.529C136.596 187.529 135.384 188.012 134.47 188.879L133.721 189.848C133.292 190.581 133.066 191.416 133.066 192.265L133.239 193.542C133.459 194.341 133.883 195.069 134.47 195.654H134.476Z" fill="#1E1E1E"/>
<path d="M127.123 134.952C126.713 135.921 126.296 136.868 126.049 137.883C125.969 138.212 125.904 138.544 125.852 138.878C125.741 139.599 125.634 140.329 125.576 141.059C125.524 141.713 125.524 142.37 125.576 143.024C125.635 143.753 125.736 144.481 125.856 145.204C125.907 145.538 125.974 145.87 126.054 146.197C126.323 147.297 126.774 148.344 127.24 149.372C127.704 150.197 128.411 150.859 129.265 151.268C130.118 151.677 131.077 151.814 132.011 151.658C132.645 151.631 133.259 151.435 133.791 151.09L134.762 150.341C135.35 149.756 135.776 149.028 135.997 148.228L136.168 146.951C136.17 146.101 135.945 145.267 135.515 144.534C135.469 144.432 135.424 144.33 135.38 144.226L135.858 145.37C135.464 144.414 135.196 143.411 135.06 142.385L135.231 143.662C135.085 142.563 135.085 141.45 135.231 140.351L135.059 141.628C135.199 140.625 135.467 139.644 135.857 138.709L135.378 139.852L135.405 139.791C135.749 139.258 135.945 138.643 135.973 138.009C136.086 137.079 135.93 136.135 135.525 135.29C135.12 134.445 134.482 133.733 133.686 133.238L132.543 132.759C131.709 132.531 130.83 132.531 129.997 132.759L128.852 133.238C128.142 133.654 127.551 134.246 127.134 134.956L127.123 134.952Z" fill="#1E1E1E"/>
<path d="M120.929 168.121C120.958 168.223 120.979 168.327 120.993 168.431L120.822 167.154C120.844 167.337 120.844 167.522 120.822 167.705L120.993 166.428C120.95 166.696 120.875 166.958 120.77 167.208L121.248 166.064C120.979 166.634 120.675 167.186 120.339 167.719C120.101 168.151 119.891 168.598 119.71 169.057C119.501 169.514 119.324 169.984 119.178 170.465C119.1 170.751 119.041 171.043 118.999 171.337C118.878 172.031 118.799 172.732 118.761 173.436C118.755 173.744 118.768 174.053 118.8 174.36C118.862 175.062 118.964 175.76 119.106 176.45C119.181 176.78 119.281 177.104 119.405 177.419C119.657 178.114 119.96 178.79 120.313 179.44C120.778 180.264 121.485 180.925 122.339 181.334C123.192 181.743 124.151 181.88 125.085 181.726C125.718 181.698 126.332 181.502 126.865 181.157L127.835 180.409C128.421 179.822 128.845 179.094 129.066 178.295L129.237 177.018C129.238 176.169 129.013 175.334 128.584 174.601C128.526 174.477 128.472 174.352 128.424 174.226L128.903 175.371C128.453 174.289 128.146 173.154 127.988 171.994L128.159 173.271C127.995 172.036 127.995 170.785 128.159 169.55L127.987 170.827C128.085 170.122 128.237 169.424 128.443 168.742C128.644 168.123 128.673 167.461 128.528 166.827C128.501 166.193 128.305 165.579 127.96 165.047C127.29 164.004 126.279 163.226 125.099 162.845L123.822 162.675C122.972 162.673 122.138 162.899 121.405 163.329L120.436 164.078C119.849 164.663 119.425 165.391 119.204 166.19C119.017 166.805 118.875 167.433 118.777 168.069C118.598 169.115 118.492 170.173 118.458 171.234C118.451 171.88 118.489 172.525 118.57 173.166C118.678 174.221 118.859 175.267 119.111 176.296C119.429 177.374 119.833 178.424 120.318 179.436L128.589 174.601C128.452 174.365 128.329 174.121 128.221 173.87L128.7 175.015C128.474 174.467 128.317 173.893 128.234 173.306L128.405 174.584C128.32 173.948 128.317 173.304 128.397 172.668L128.226 173.945C128.307 173.336 128.468 172.741 128.705 172.175L128.226 173.318C128.545 172.594 129.007 171.954 129.36 171.252C129.618 170.738 129.839 170.197 130.043 169.663C130.111 169.488 130.164 169.308 130.203 169.124C130.298 168.645 130.362 168.129 130.407 167.638C130.416 167.546 130.42 167.455 130.42 167.363C130.39 166.864 130.328 166.367 130.233 165.875C130.217 165.771 130.196 165.668 130.169 165.566C129.788 164.386 129.01 163.374 127.968 162.703C127.435 162.359 126.821 162.163 126.188 162.135C125.553 161.992 124.891 162.022 124.272 162.221L123.129 162.7C122.419 163.116 121.827 163.708 121.41 164.418L120.931 165.562C120.701 166.398 120.701 167.281 120.931 168.117L120.929 168.121Z" fill="#1E1E1E"/>
<path d="M152.683 210.373V211.73C152.716 212.989 153.231 214.188 154.122 215.079C155.013 215.97 156.213 216.486 157.472 216.519L158.749 216.348C159.548 216.127 160.277 215.703 160.863 215.117L161.612 214.146C162.041 213.413 162.267 212.579 162.266 211.73V210.373C162.231 209.113 161.716 207.915 160.825 207.025C159.934 206.134 158.736 205.618 157.477 205.584L156.2 205.754C155.401 205.976 154.673 206.4 154.086 206.987L153.338 207.956C152.908 208.689 152.683 209.523 152.685 210.373H152.683Z" fill="#1E1E1E"/>
<path d="M162.85 222.291C163.009 222.61 163.152 222.93 163.289 223.249L162.81 222.106C163.439 223.617 163.868 225.203 164.087 226.825L163.916 225.548C164.097 226.917 164.128 228.303 164.009 229.679C164.043 230.938 164.559 232.137 165.449 233.028C166.34 233.918 167.539 234.434 168.798 234.468L170.075 234.296C170.875 234.076 171.603 233.652 172.189 233.065L172.937 232.096C173.366 231.363 173.592 230.529 173.592 229.679C173.708 228.35 173.683 227.012 173.517 225.688C173.298 223.956 173.038 222.264 172.457 220.612C172.074 219.536 171.626 218.484 171.117 217.462C170.653 216.637 169.946 215.976 169.092 215.566C168.239 215.157 167.28 215.02 166.346 215.174C165.712 215.202 165.097 215.398 164.564 215.743L163.595 216.491C163.009 217.078 162.584 217.806 162.363 218.605L162.192 219.882C162.192 220.732 162.418 221.566 162.847 222.299L162.85 222.291Z" fill="#1E1E1E"/>
<path d="M143.946 221.482C144.383 221.788 144.813 222.104 145.236 222.43L144.267 221.681C145.502 222.637 146.672 223.673 147.769 224.785C148.188 225.243 148.719 225.585 149.31 225.776C149.887 226.047 150.517 226.188 151.155 226.188C151.793 226.188 152.423 226.047 153.001 225.776C153.592 225.585 154.122 225.243 154.541 224.785L155.29 223.816C155.72 223.083 155.946 222.248 155.944 221.399L155.774 220.122C155.552 219.323 155.128 218.595 154.541 218.01C152.769 216.239 150.841 214.632 148.78 213.209C148.248 212.864 147.633 212.668 147 212.641C146.069 212.527 145.126 212.682 144.28 213.087C143.435 213.492 142.723 214.13 142.228 214.927L141.749 216.07C141.52 216.906 141.52 217.788 141.749 218.624L142.228 219.769C142.644 220.479 143.235 221.071 143.946 221.486V221.482Z" fill="#1E1E1E"/>
<path d="M142.105 135.501C141.763 137.602 141.573 139.724 141.537 141.852C141.57 143.111 142.085 144.31 142.976 145.201C143.867 146.092 145.066 146.607 146.326 146.641L147.603 146.47C148.402 146.249 149.13 145.824 149.716 145.238L150.465 144.269C150.895 143.536 151.12 142.701 151.118 141.852C151.127 140.361 151.23 138.872 151.426 137.395L151.255 138.672C151.282 138.466 151.313 138.258 151.343 138.052C151.543 137.433 151.572 136.771 151.429 136.137C151.402 135.503 151.205 134.889 150.861 134.357C150.19 133.314 149.179 132.536 147.999 132.155L146.722 131.985C145.872 131.983 145.036 132.209 144.303 132.639L143.334 133.388C142.747 133.973 142.323 134.702 142.103 135.501H142.105Z" fill="#1E1E1E"/>
<path d="M212.709 64.1181L217.923 69.7613C218.609 70.4106 219.518 70.7724 220.463 70.7724C221.408 70.7724 222.316 70.4106 223.003 69.7613C223.632 69.0765 224.098 68.1777 224.055 67.2215L223.927 66.2636C223.759 65.6676 223.44 65.1252 223 64.6896L217.786 59.0465C217.099 58.3972 216.191 58.0354 215.246 58.0354C214.301 58.0354 213.392 58.3972 212.706 59.0465C212.077 59.7313 211.611 60.6301 211.654 61.5863L211.782 62.5441C211.947 63.1433 212.266 63.6891 212.706 64.1277L212.709 64.1181Z" fill="#1E1E1E"/>
<path d="M213.118 58.3886C212.382 58.3774 211.656 58.5649 211.017 58.9313C210.712 59.1094 210.429 59.3238 210.174 59.5699C210.147 59.5954 210.123 59.621 210.098 59.6481C209.876 59.8942 209.673 60.1568 209.491 60.4335C208.982 61.2445 208.841 62.1129 208.766 63.0452C208.742 63.699 208.81 64.353 208.967 64.988C209.068 65.4669 209.172 65.9458 209.287 66.4247C209.402 66.9036 209.533 67.3474 209.691 67.7976C209.936 68.5137 210.235 69.2101 210.586 69.8808C211.29 71.1662 212.3 72.2579 213.527 73.0592C213.718 73.1863 213.919 73.2973 214.129 73.3912C214.589 73.6217 215.07 73.8082 215.565 73.9484C216.082 74.0748 216.611 74.1428 217.143 74.1511C217.257 74.1501 217.372 74.1426 217.486 74.1288C217.903 74.0937 218.318 74.033 218.728 73.9468C219.613 73.6633 220.372 73.0795 220.873 72.2961C221.132 71.8975 221.28 71.4366 221.299 70.9616C221.408 70.4856 221.386 69.9893 221.236 69.5248C220.955 68.6548 220.417 67.8167 219.585 67.3777L218.728 67.0153C218.101 66.8437 217.439 66.8437 216.812 67.0153C216.718 67.0377 216.624 67.0553 216.526 67.0696L217.484 66.9403C217.257 66.9683 217.027 66.9683 216.799 66.9403L217.757 67.0696C217.47 67.0273 217.19 66.9484 216.924 66.835L217.783 67.1973C217.471 67.059 217.177 66.8837 216.908 66.6753L217.634 67.2372C217.309 66.9785 217.015 66.6822 216.759 66.3544L217.321 67.0808C216.975 66.616 216.689 66.1097 216.469 65.5738L216.831 66.4311C216.586 65.8297 216.385 65.2107 216.233 64.5793C216.068 63.9845 215.937 63.3813 215.838 62.7722L215.966 63.73C215.932 63.4528 215.932 63.1724 215.966 62.8951L215.837 63.8529C215.859 63.6888 215.9 63.528 215.961 63.374L215.599 64.2313C215.631 64.1589 215.671 64.0899 215.717 64.0253L215.155 64.7533C215.192 64.7056 215.234 64.6622 215.281 64.624L214.553 65.1859C214.591 65.1594 214.632 65.1364 214.675 65.1173L213.816 65.478C213.861 65.4622 213.908 65.4505 213.956 65.4429L212.998 65.5722C213.037 65.5698 213.076 65.5698 213.115 65.5722C213.822 65.583 214.515 65.3772 215.102 64.9826C215.689 64.5879 216.14 64.0233 216.397 63.3644C216.622 62.939 216.729 62.4611 216.707 61.9804C216.665 61.0513 216.36 60.0887 215.655 59.4406L214.928 58.8786C214.378 58.5576 213.752 58.3885 213.115 58.3886H213.118Z" fill="#1E1E1E"/>
<path d="M232.863 54.0802C233.56 54.6559 234.191 55.3075 234.744 56.023L234.182 55.2966C234.833 56.1467 235.374 57.0751 235.794 58.06L235.432 57.2027C235.501 57.3623 235.566 57.522 235.628 57.6928C235.906 58.5955 236.518 59.358 237.34 59.8244C238.161 60.2908 239.129 60.426 240.047 60.2023C240.915 59.9197 241.755 59.3817 242.194 58.5516L242.555 57.6928C242.727 57.0658 242.727 56.4041 242.555 55.7771C242.062 54.4713 241.484 53.1974 240.674 52.0576C239.865 50.9178 239.006 49.8706 237.943 48.9942C237.257 48.3442 236.348 47.9819 235.403 47.9819C234.458 47.9819 233.549 48.3442 232.863 48.9942C232.236 49.6774 231.77 50.5762 231.811 51.534L231.941 52.4918C232.106 53.0909 232.424 53.637 232.863 54.077V54.0802Z" fill="#1E1E1E"/>
<path d="M236.962 54.1265C237.2 54.3176 237.414 54.5362 237.6 54.7779L237.04 54.0515C237.244 54.321 237.415 54.6142 237.549 54.9247L237.187 54.0675C237.217 54.1361 237.244 54.2064 237.27 54.2782C237.548 55.1809 238.16 55.9434 238.981 56.4098C239.802 56.8762 240.771 57.0114 241.688 56.7877L242.546 56.4253C243.079 56.1135 243.524 55.6692 243.836 55.1354L244.196 54.2782C244.37 53.6514 244.37 52.9893 244.196 52.3626C244.062 51.9906 243.9 51.6282 243.741 51.2658C243.703 51.1796 243.663 51.095 243.619 51.0104C243.535 50.8482 243.44 50.692 243.334 50.5427C243.111 50.2234 242.87 49.9265 242.629 49.6264C242.571 49.554 242.511 49.4838 242.447 49.4157C242.321 49.2812 242.185 49.1559 242.041 49.0405C241.728 48.6963 241.329 48.4404 240.886 48.2982C240.229 48.0331 239.51 47.9621 238.815 48.0937C238.119 48.2253 237.476 48.5539 236.962 49.0405L236.401 49.7669C236.079 50.3169 235.909 50.9429 235.91 51.5803L236.039 52.5382C236.204 53.1375 236.522 53.6838 236.962 54.1233V54.1265Z" fill="#1E1E1E"/>
<path d="M256.756 15.5214L250.736 16.0482C249.649 16.144 248.546 16.235 247.485 16.4968C247.175 16.5721 246.871 16.6686 246.575 16.7858C245.952 17.038 245.248 17.2886 244.659 17.6574C244.07 18.0145 243.526 18.4406 243.039 18.9265C242.682 19.3194 242.351 19.7359 242.051 20.1733C241.958 20.2969 241.876 20.4277 241.805 20.5644C241.683 20.8022 241.586 21.0656 241.485 21.3067C241.385 21.5477 241.264 21.8032 241.176 22.057C241.123 22.213 241.083 22.3732 241.056 22.5359C240.948 23.095 240.878 23.6609 240.848 24.2296C240.846 24.3961 240.856 24.5626 240.877 24.7277C240.921 25.28 241.004 25.8284 241.126 26.3688C241.296 26.8924 241.505 27.403 241.749 27.8965C242.022 28.4999 242.531 29.065 242.927 29.5503C243.114 29.7763 243.323 29.9832 243.551 30.1681C244.085 30.6207 244.646 31.0402 245.23 31.4245C246.461 32.2051 247.86 32.6872 249.022 33.578L248.053 32.8293C248.76 33.3854 249.394 34.0291 249.94 34.7449L249.191 33.7759C250.216 35.1137 250.985 36.6254 251.64 38.1723L251.161 37.0277C251.835 38.6241 252.385 40.2795 252.917 41.9334C253.057 42.5412 253.352 43.1023 253.774 43.5617C254.109 44.0813 254.572 44.5062 255.118 44.7957L256.261 45.2746C256.881 45.4737 257.542 45.5029 258.177 45.3592C258.602 45.3599 259.019 45.2469 259.386 45.0319C259.976 44.8414 260.507 44.5003 260.926 44.0422L261.675 43.0732C262.104 42.3403 262.33 41.5059 262.329 40.6563C262.597 37.0389 262.329 33.4375 261.737 29.8648C261.588 28.9666 261.409 28.0742 261.199 27.1877L252.446 30.8769C252.715 31.2696 252.943 31.6884 253.128 32.1269L252.649 30.9839C253.137 32.1572 253.37 33.4167 253.573 34.6667C253.808 36.1146 254.033 37.5641 254.263 39.012L255.663 47.8368L256.451 52.7999L263.487 47.3914C263.301 47.3034 263.125 47.1964 262.961 47.0721L263.932 47.8208C263.713 47.6436 263.515 47.4411 263.343 47.2174L264.092 48.1864C263.833 47.8389 263.619 47.4609 263.453 47.0609L263.932 48.2055C263.638 47.4788 263.44 46.7167 263.345 45.9387L263.515 47.2158C263.42 46.4798 263.384 45.7375 263.345 44.9952C263.281 43.8363 263.155 42.698 262.984 41.5455C262.895 40.8937 262.728 40.2549 262.487 39.6426C262.134 38.7742 261.802 37.9041 261.24 37.1491C260.707 36.4307 260.176 35.69 259.484 35.1137C258.793 34.5374 258.099 33.9675 257.301 33.5796C256.727 33.2991 256.137 33.0523 255.535 32.8405C255.311 32.7631 255.081 32.7007 254.849 32.6537C254.529 32.5898 254.21 32.5563 253.891 32.5132C253.571 32.4701 253.235 32.4142 252.904 32.3919C252.672 32.3751 252.439 32.3751 252.207 32.3919C251.665 32.4366 251.123 32.5196 250.586 32.6042C250.455 32.6249 250.326 32.6505 250.198 32.684C249.559 32.8719 248.937 33.1155 248.34 33.412C247.726 33.6865 247.223 34.1575 246.618 34.4304L247.762 33.9515C247.63 34.0076 247.492 34.0472 247.35 34.0697L248.628 33.8988C248.514 33.9124 248.399 33.9124 248.286 33.8988L249.563 34.0713C249.465 34.0557 249.368 34.0295 249.276 33.993L250.42 34.4719C250.301 34.4215 250.188 34.3561 250.085 34.2772L251.056 35.0259C250.924 34.9207 250.806 34.7995 250.704 34.6651L251.453 35.6341C251.304 35.4295 251.179 35.2082 251.081 34.9748L251.56 36.1194C251.416 35.7606 251.318 35.3852 251.268 35.0019L251.44 36.279C251.387 35.7847 251.399 35.2856 251.475 34.7944L251.305 36.0715C251.386 35.484 251.512 34.9046 251.614 34.3155C251.782 33.3577 251.962 32.3759 251.946 31.4005C251.916 30.7399 251.839 30.0821 251.717 29.4322C251.68 29.1966 251.627 28.964 251.557 28.7362C251.36 28.1595 251.128 27.595 250.864 27.0456C250.76 26.8184 250.639 26.5992 250.503 26.3895C249.602 24.9827 248.383 23.8067 246.945 22.9557C245.357 22.0187 243.593 21.6276 241.77 21.519C241.123 21.4892 240.475 21.5153 239.833 21.5972C238.759 21.7233 237.692 21.8814 236.628 22.0761L240.317 30.829L247.705 27.4655C248.25 27.1755 248.713 26.7507 249.047 26.2315C249.469 25.7717 249.764 25.2108 249.905 24.6032C250.104 23.9838 250.134 23.3223 249.991 22.6875C249.963 22.0542 249.767 21.4398 249.423 20.9076L248.674 19.9386C248.087 19.3552 247.36 18.9334 246.562 18.7142L245.285 18.5434C244.435 18.5422 243.601 18.7682 242.868 19.1979L235.481 22.5614C234.935 22.8513 234.473 23.2761 234.137 23.7954C233.715 24.2548 233.42 24.8159 233.28 25.4237L233.109 26.7008C233.081 27.3418 233.223 27.9787 233.523 28.5462C233.633 28.9457 233.844 29.3099 234.137 29.603C234.473 30.1219 234.936 30.5466 235.481 30.837L236.626 31.3159C237.459 31.5442 238.339 31.5442 239.172 31.3159C239.715 31.2201 240.259 31.126 240.807 31.0509L239.53 31.2217C240.465 31.0803 241.415 31.0599 242.355 31.1611L241.078 30.9903C241.607 31.0586 242.125 31.1949 242.619 31.3957L241.474 30.9168C241.893 31.0974 242.289 31.3285 242.652 31.6049L241.693 30.8466C242.065 31.1338 242.401 31.4657 242.692 31.8347L241.944 30.8657C242.214 31.2149 242.439 31.5962 242.616 32.0008L242.137 30.8578C242.306 31.2593 242.421 31.6811 242.482 32.1125L242.311 30.8354C242.371 31.3798 242.361 31.9297 242.282 32.4717L242.454 31.1946C242.395 31.6224 242.314 32.0455 242.234 32.4717C242.075 33.2954 241.964 34.1191 241.862 34.9509C241.814 35.3025 241.799 35.658 241.817 36.0124C241.853 36.7459 241.96 37.4741 242.137 38.1867C242.326 38.8673 242.594 39.5236 242.935 40.1423C242.999 40.2575 243.07 40.3684 243.149 40.4743C243.364 40.7712 243.779 41.3842 244.147 41.7195C244.489 42.0164 244.846 42.2951 245.218 42.5544C245.27 42.5927 245.323 42.631 245.377 42.6645C245.834 42.9328 246.324 43.1395 246.835 43.2791C247.365 43.3655 247.897 43.4369 248.431 43.493C249.021 43.5028 249.608 43.416 250.17 43.236C250.929 42.9781 251.65 42.6189 252.314 42.168C252.597 41.97 252.899 41.8 253.216 41.6604L252.071 42.1393C252.433 41.9886 252.813 41.8846 253.201 41.8296L251.924 42.0004C252.356 41.9437 252.794 41.9437 253.227 42.0004L251.95 41.8296C252.42 41.8976 252.88 42.0252 253.318 42.2095L252.173 41.7306C252.643 41.9307 253.085 42.1892 253.49 42.5001L252.521 41.7514C252.934 42.0725 253.305 42.443 253.627 42.8545L252.877 41.8855C253.21 42.3163 253.486 42.7878 253.699 43.2887L253.22 42.1441C253.488 42.8181 253.668 43.5235 253.757 44.2433L253.586 42.9662C253.683 43.6894 253.723 44.4189 253.763 45.1469C253.824 46.2643 253.943 47.3706 254.097 48.4897C254.174 49.0906 254.307 49.6828 254.496 50.2584C254.719 50.9 254.979 51.5279 255.275 52.139C255.394 52.3947 255.534 52.6398 255.695 52.8717C256 53.3091 256.333 53.7353 256.673 54.1408C256.772 54.2544 256.879 54.3611 256.993 54.4601C257.39 54.8101 257.809 55.1358 258.246 55.4355C258.372 55.5245 258.506 55.6025 258.646 55.6685L259.789 56.1475L261.066 56.3199L262.344 56.1475C262.952 56.0086 263.514 55.7131 263.973 55.2902C264.622 54.7902 265.13 54.13 265.447 53.3746C265.662 53.0082 265.775 52.5909 265.774 52.1661C265.918 51.5315 265.889 50.8699 265.69 50.2505L264.176 40.7169L263.42 35.9502C263.177 34.4241 262.957 32.8915 262.684 31.3702C262.558 30.6186 262.38 29.8767 262.152 29.1496C261.905 28.423 261.615 27.7119 261.284 27.0201C261.125 26.6776 260.936 26.3496 260.72 26.0399C260.431 25.494 260.006 25.0313 259.488 24.6958C259.028 24.2744 258.467 23.9791 257.859 23.8385L256.582 23.6677C255.941 23.6395 255.304 23.7822 254.737 24.0812C254.337 24.1907 253.973 24.4026 253.68 24.6958C253.161 25.0313 252.737 25.494 252.448 26.0399L251.969 27.1845C251.739 28.0204 251.739 28.9028 251.969 29.7387C252.272 31.0158 252.512 32.3099 252.687 33.6211L252.516 32.344C252.882 35.0996 252.963 37.8857 252.757 40.6579L262.165 39.3808C261.767 38.1404 261.367 36.9016 260.896 35.6836C260.325 34.1262 259.655 32.6076 258.887 31.1371C258.597 30.5938 258.278 30.0667 257.93 29.5583C257.543 28.9948 257.114 28.46 256.694 27.922C256.51 27.6858 256.32 27.4559 256.121 27.2356C255.742 26.8159 255.329 26.4287 254.885 26.0782C254.132 25.486 253.407 24.9097 252.561 24.4643C251.533 23.9231 250.449 23.4618 249.52 22.753L250.489 23.5017C250.18 23.2683 249.901 22.9969 249.659 22.6939L250.408 23.6645C250.243 23.4506 250.106 23.2167 250 22.9685L250.479 24.1115C250.392 23.8966 250.331 23.672 250.297 23.4426L250.468 24.7197C250.431 24.432 250.431 24.1406 250.468 23.8529L250.297 25.13C250.332 24.8844 250.398 24.6442 250.492 24.4148L250.013 25.5594C250.106 25.3469 250.225 25.1464 250.366 24.9624L249.617 25.9314C249.78 25.7274 249.967 25.5436 250.173 25.3838L249.204 26.1325C249.508 25.9039 249.839 25.7141 250.19 25.5674L249.046 26.0463C249.664 25.7967 250.311 25.6282 250.973 25.545L249.696 25.7159C250.813 25.569 251.946 25.5083 253.069 25.4109L256.767 25.0917C258.026 25.0385 259.226 24.5414 260.153 23.6885C260.611 23.2694 260.952 22.7385 261.143 22.148C261.442 21.5804 261.585 20.9435 261.557 20.3026L261.386 19.0255C261.164 18.2263 260.74 17.4981 260.153 16.9119L259.184 16.1632C258.451 15.7339 257.617 15.5085 256.767 15.5103L256.756 15.5214Z" fill="#1E1E1E"/>
<path d="M257.406 39.125L257.357 39.1633L259.004 37.8862C258.779 38.0576 258.535 38.2012 258.276 38.3141L260.22 37.4935C259.909 37.6215 259.582 37.71 259.248 37.7569L261.411 37.4664C260.84 37.5329 260.262 37.5243 259.692 37.4409L261.857 37.7314C261.255 37.6438 260.659 37.5222 260.07 37.3674C259.02 37.0299 257.899 36.9797 256.823 37.2221C255.744 37.2684 254.697 37.6018 253.79 38.188C252.863 38.6814 252.076 39.4034 251.506 40.2856C250.789 41.067 250.287 42.0206 250.048 43.0537L249.758 45.2184C249.757 46.6632 250.143 48.0818 250.875 49.3274L252.152 50.9749C253.148 51.9727 254.386 52.6945 255.744 53.0693C256.212 53.1858 256.681 53.296 257.155 53.3758C258.1 53.5355 259.053 53.6664 260.006 53.7605C260.244 53.785 260.482 53.7967 260.72 53.7957C260.952 53.7947 261.184 53.7792 261.415 53.7494C262.232 53.644 263.067 53.577 263.873 53.4061C263.98 53.3838 264.085 53.3567 264.192 53.3263C265.063 53.0518 265.908 52.6991 266.716 52.2727C267.514 51.8672 268.322 51.1138 268.925 50.6333C269.703 49.92 270.284 49.0175 270.61 48.0136C271.117 47.0487 271.359 45.966 271.31 44.8767C271.359 43.7875 271.117 42.7048 270.61 41.7399C270.284 40.736 269.703 39.8335 268.925 39.1202L267.278 37.8431C266.032 37.1116 264.614 36.7258 263.169 36.7257L260.993 37.0306C259.634 37.4054 258.397 38.1272 257.401 39.125H257.406Z" fill="#1E1E1E"/>
<path d="M253.463 50.8585C255.603 50.7683 257.643 49.9234 259.22 48.4735C259.999 47.7604 260.579 46.8571 260.904 45.8523C261.412 44.8882 261.654 43.8058 261.605 42.717L261.312 40.5523C260.937 39.1934 260.215 37.9552 259.218 36.9589L257.571 35.6818C256.325 34.9491 254.906 34.5632 253.461 34.5643C251.321 34.653 249.281 35.4974 247.705 36.9477C246.926 37.6608 246.346 38.5641 246.021 39.569C245.513 40.5338 245.271 41.6165 245.32 42.7058L245.611 44.8689C245.986 46.2276 246.708 47.4657 247.705 48.4623L249.352 49.7394C250.598 50.4721 252.017 50.8579 253.461 50.8569L253.463 50.8585Z" fill="#1E1E1E"/>
<path d="M259.185 57.3878C261.326 57.2996 263.366 56.4544 264.942 55.0028C265.72 54.29 266.3 53.3874 266.626 52.3832C267.133 51.4183 267.375 50.3356 267.326 49.2463L267.036 47.0817C266.661 45.723 265.939 44.4852 264.942 43.4898L263.294 42.2127C262.048 41.4807 260.63 41.0949 259.185 41.0953C257.044 41.1835 255.004 42.0287 253.428 43.4803C252.65 44.1931 252.07 45.0957 251.744 46.0999C251.237 47.0648 250.995 48.1475 251.044 49.2368L251.334 51.4014C251.709 52.7601 252.431 53.9979 253.428 54.9933L255.076 56.2704C256.322 57.0024 257.74 57.3882 259.185 57.3878Z" fill="#1E1E1E"/>
<path d="M168.865 126.196C168.865 134.976 152.814 164.459 144.809 166.16H153.015C153.015 166.16 149.07 169.842 148.818 173.244C148.566 176.646 148.818 174.662 148.818 174.662C148.818 174.662 152.379 169.842 155.558 170.977C155.558 170.977 152.697 179.757 155.558 184.866" stroke="#1E1E1E" stroke-width="2.89614" stroke-miterlimit="10" stroke-linecap="round"/>
<path d="M294.169 191.337C293.904 191.61 293.641 191.877 293.382 192.144C293.655 191.891 293.918 191.62 294.169 191.337Z" fill="#1E1E1E"/>
<path d="M170.78 43.9187C170.78 43.9187 148.491 14.1464 139.12 14.1464C128.669 20.2685 144.81 33.9414 144.81 33.9414C144.81 33.9414 107.835 45.2533 137.863 62.692C137.863 62.692 124.798 89.0864 141.183 78.2455C152.563 72.1186 170.78 43.9187 170.78 43.9187Z" stroke="#1E1E1E" stroke-width="4.52521" stroke-miterlimit="10" stroke-linecap="round"/>
<path d="M294.132 192.327C293.867 192.599 293.604 192.865 293.345 193.125C293.618 192.878 293.879 192.608 294.132 192.327Z" fill="#1E1E1E"/>
<path d="M256.833 23.1407C256.084 29.2739 255.34 35.4168 255.058 41.5915C254.779 47.78 255.009 53.9809 255.746 60.1318C256.26 64.4739 256.953 68.7921 257.537 73.1246L257.246 70.9599C257.829 75.3069 258.281 79.6937 258.094 84.0853C258.041 85.3273 257.935 86.5645 257.775 87.7969L258.067 85.6322C257.875 87.0393 257.597 88.4334 257.235 89.8067C256.898 90.8566 256.848 91.9778 257.09 93.0537C257.136 94.1329 257.47 95.1802 258.057 96.0868C259.197 97.8597 260.916 99.1823 262.922 99.8287L265.086 100.119C266.531 100.12 267.95 99.7338 269.195 99.0018L270.843 97.7247C271.841 96.7297 272.563 95.4918 272.937 94.1328C273.608 91.6042 273.967 88.9877 274.222 86.3904C274.403 84.465 274.464 82.5302 274.404 80.5972C274.283 76.0268 273.63 71.4819 272.99 66.9626C272.671 64.7437 272.339 62.5263 272.04 60.3058L272.331 62.4704C271.611 57.2623 271.24 52.0118 271.223 46.7542C271.223 41.8629 271.58 36.9812 272.085 32.1171C272.394 29.1191 272.755 26.1291 273.121 23.1375C273.17 22.0482 272.928 20.9656 272.42 20.0006C272.093 18.9971 271.511 18.0955 270.731 17.3842C270.018 16.6061 269.115 16.0259 268.111 15.7C267.146 15.1923 266.064 14.9504 264.975 14.9992L262.81 15.2897C261.451 15.6652 260.214 16.3869 259.218 17.3842L257.941 19.0316C257.209 20.2774 256.824 21.696 256.823 23.1407H256.833Z" fill="#1E1E1E"/>
<path d="M233.499 191.441L234.286 192.239C234.014 191.995 233.749 191.724 233.499 191.441Z" fill="#1E1E1E"/>
<path d="M214.459 192.781C215.093 192.773 215.699 192.521 216.153 192.078C216.598 191.627 216.849 191.02 216.854 190.386C216.826 189.767 216.622 189.124 216.153 188.693C215.704 188.244 215.095 187.991 214.46 187.991C213.825 187.991 213.216 188.244 212.767 188.693C212.32 189.144 212.068 189.752 212.064 190.386C212.093 191.006 212.296 191.647 212.767 192.078C213.221 192.52 213.826 192.771 214.459 192.781Z" fill="#1E1E1E"/>
<path d="M218.747 210.081C219.381 210.072 219.987 209.821 220.441 209.378C220.886 208.927 221.138 208.32 221.142 207.686C221.115 207.067 220.912 206.423 220.441 205.992C219.992 205.543 219.383 205.291 218.748 205.291C218.113 205.291 217.504 205.543 217.055 205.992C216.61 206.444 216.358 207.052 216.353 207.686C216.381 208.305 216.584 208.947 217.055 209.378C217.509 209.819 218.114 210.071 218.747 210.081Z" fill="#1E1E1E"/>
<path d="M201.583 193.459C202.216 193.451 202.823 193.199 203.276 192.757C203.722 192.306 203.973 191.698 203.977 191.065C203.95 190.445 203.747 189.802 203.276 189.371C202.827 188.922 202.218 188.67 201.583 188.67C200.948 188.67 200.339 188.922 199.89 189.371C199.445 189.823 199.193 190.43 199.188 191.065C199.217 191.684 199.42 192.326 199.89 192.757C200.344 193.198 200.95 193.449 201.583 193.459Z" fill="#1E1E1E"/>
<path d="M208.576 182.604C209.209 182.596 209.815 182.345 210.269 181.903C210.715 181.452 210.967 180.844 210.971 180.209C210.942 179.59 210.74 178.948 210.269 178.515C209.82 178.067 209.211 177.814 208.576 177.814C207.941 177.814 207.332 178.067 206.883 178.515C206.437 178.967 206.186 179.575 206.182 180.209C206.209 180.829 206.413 181.47 206.883 181.903C207.338 182.343 207.943 182.594 208.576 182.604Z" fill="#1E1E1E"/>
<path d="M205.398 212.116C206.031 212.107 206.637 211.856 207.09 211.413C207.536 210.962 207.788 210.355 207.793 209.721C207.764 209.102 207.561 208.458 207.09 208.027C206.641 207.578 206.032 207.326 205.397 207.326C204.762 207.326 204.153 207.578 203.704 208.027C203.259 208.479 203.007 209.087 203.003 209.721C203.031 210.341 203.235 210.982 203.704 211.413C204.159 211.855 204.765 212.106 205.398 212.116Z" fill="#1E1E1E"/>
<path d="M270.412 32.8352L270.813 31.159C271.201 29.7425 271.201 28.2478 270.813 26.8313C270.575 25.7977 270.073 24.8434 269.357 24.0616C268.787 23.1794 268 22.4579 267.072 21.9655C265.827 21.2333 264.408 20.8474 262.963 20.8481C262.127 20.7632 261.284 20.7734 260.451 20.8784C258.92 21.0716 257.389 21.2153 255.931 21.7373C254.899 22.1104 253.887 22.5367 252.898 23.0144C252.51 23.2024 252.133 23.4118 251.768 23.6417C250.856 24.1979 250.005 24.8491 249.23 25.5845C247.972 26.8264 247.051 28.3679 246.553 30.0639C246.542 30.1001 246.532 30.1384 246.524 30.1789C246.454 30.5556 246.4 30.9356 246.364 31.3187L246.205 32.4585C246.205 32.4984 246.205 32.5383 246.205 32.5766C246.202 32.6165 246.202 32.6565 246.205 32.6963L246.495 34.8594C246.57 35.3112 246.797 35.6943 246.974 36.1269C247.134 36.4861 247.277 36.9842 247.522 37.3466C247.938 37.9644 248.499 38.8216 249.152 39.3612C249.835 39.9263 250.555 40.4451 251.259 40.9847L249.61 39.7076C249.908 39.9428 250.176 40.2136 250.408 40.5138L249.131 38.8663C249.397 39.2184 249.62 39.6017 249.793 40.0077L248.973 38.0617C249.167 38.5276 249.301 39.0163 249.372 39.516L249.081 37.3514C249.147 37.8521 249.147 38.3592 249.081 38.8599L249.372 36.6968C249.311 37.1203 249.198 37.5348 249.037 37.9308L249.857 35.9865L249.835 36.0375L264.716 42.3113C264.831 41.8365 264.984 41.3715 265.173 40.9208L264.352 42.8652C264.657 42.1491 265.05 41.4743 265.524 40.857L264.247 42.5044C264.679 41.9492 265.177 41.4485 265.73 41.0134L264.082 42.2905C265 41.5849 266.04 41.0597 266.967 40.3749C267.746 39.8289 268.495 39.2428 269.213 38.6189C269.415 38.4374 269.602 38.2405 269.773 38.0298C270.225 37.4599 271.051 36.5659 271.434 35.763C271.609 35.3974 271.764 34.9887 271.913 34.6343C272.061 34.2799 272.241 33.8968 272.376 33.5169C272.425 33.3827 272.464 33.2451 272.492 33.105C272.714 32.045 272.91 30.91 272.831 29.8117C272.773 29.3484 272.76 28.8807 272.791 28.4149L272.5 30.5796C272.522 30.4182 272.565 30.2604 272.628 30.1102L271.807 32.0546C271.864 31.9283 271.934 31.8085 272.016 31.697L270.739 33.3445C270.821 33.2394 270.914 33.1441 271.017 33.0603L269.37 34.3374C269.441 34.2841 269.517 34.2382 269.598 34.2001L267.654 35.0223C267.731 34.9893 267.813 34.9673 267.896 34.9568L265.732 35.2473C265.781 35.2434 265.831 35.2434 265.88 35.2473L263.715 34.9568C263.784 34.9663 263.851 34.9839 263.915 35.0095L261.978 34.1985C262.039 34.2272 262.097 34.2619 262.151 34.3023L260.503 33.0252C260.563 33.0768 260.617 33.1352 260.663 33.1992L259.386 31.5502C259.432 31.6185 259.473 31.6906 259.507 31.7657L258.687 29.8213C258.76 30.0025 258.808 30.1925 258.832 30.3864L258.54 28.2233C258.62 28.8906 258.569 29.5802 258.567 30.2507L258.559 32.4697L258.543 36.9826C258.493 38.072 258.735 39.1549 259.244 40.1195C259.61 41.1054 260.185 42.0008 260.929 42.7446C261.673 43.4884 262.568 44.0631 263.554 44.4297C264.518 44.9388 265.601 45.1808 266.691 45.1305L268.856 44.8399C270.214 44.4657 271.452 43.7445 272.447 42.7471L273.725 41.0996C274.456 39.8533 274.842 38.4342 274.842 36.989L274.866 30.1789C274.866 29.6409 274.888 29.0981 274.866 28.5602C274.786 26.6174 274.464 25.1679 273.539 23.4629C272.818 22.1316 271.608 21.0029 270.334 20.2159C268.959 19.4006 267.39 18.972 265.792 18.9755H265.743L263.578 19.2661C263.528 19.2723 263.479 19.2825 263.431 19.2964C262.689 19.5181 261.973 19.8205 261.297 20.1984C260.642 20.5993 260.03 21.0675 259.472 21.5952C259.387 21.6715 259.309 21.7548 259.237 21.8442C257.984 23.3751 257.481 24.0265 256.872 25.9629C256.854 26.0189 256.839 26.0759 256.827 26.1337C256.819 26.1768 256.813 26.2215 256.806 26.2662L256.516 28.4292C256.501 28.5809 256.492 28.7294 256.492 28.881C256.492 29.4972 256.623 30.1086 256.548 30.7248L256.838 28.5602C256.802 28.8276 256.731 29.0894 256.629 29.3392L257.449 27.3948C257.334 27.6638 257.185 27.9174 257.007 28.1499L258.284 26.5024C257.99 26.871 257.651 27.2013 257.276 27.4858L258.923 26.2087C258.016 26.9095 256.988 27.4331 256.065 28.11C255.01 28.8842 253.878 29.6792 253.018 30.6897C252.48 31.3203 251.992 31.9939 251.489 32.6516C251.38 32.7921 251.276 32.9358 251.169 33.0827C250.98 33.3598 250.806 33.6476 250.649 33.9447C250.56 34.1123 250.477 34.2831 250.398 34.4571C250.041 35.2553 249.696 36.0535 249.381 36.8693C249.241 37.2366 249.124 37.6125 249.032 37.9947C248.694 39.0445 248.643 40.1659 248.887 41.2417C248.932 42.3208 249.266 43.368 249.852 44.2748L251.129 45.9223C251.841 46.701 252.741 47.2819 253.744 47.608C254.368 47.972 255.077 48.1637 255.799 48.1636C256.875 48.406 257.996 48.3558 259.046 48.0183L260.99 47.1978C262.197 46.4893 263.202 45.4836 263.91 44.2764C264.229 43.5373 264.573 42.803 264.844 42.0415C264.885 41.9276 264.922 41.8127 264.954 41.6967C264.986 41.5801 265.013 41.462 265.037 41.3439C265.197 40.5218 265.278 39.6789 265.383 38.8488C265.446 38.3569 265.446 37.8592 265.383 37.3673C265.278 36.5452 265.198 35.7119 265.042 34.8977C265.019 34.778 264.992 34.6599 264.962 34.5417C264.899 34.2984 264.82 34.0595 264.726 33.8266C264.422 33.0827 264.126 32.3292 263.781 31.6028C263.73 31.4943 263.675 31.3873 263.621 31.2836C263.5 31.0683 263.364 30.8618 263.214 30.6658C262.727 30.0272 262.256 29.3488 261.715 28.7501C261.63 28.6559 261.543 28.5649 261.45 28.4787C261.357 28.3925 261.247 28.2983 261.142 28.2137C260.492 27.6997 259.831 27.2 259.172 26.6988L260.819 27.9759C260.65 27.851 260.496 27.7069 260.36 27.5465L261.637 29.1939C261.568 29.1036 261.51 29.0056 261.464 28.9018L262.287 30.8462C262.25 30.7516 262.226 30.6529 262.213 30.5524L262.504 32.7171C262.496 32.6186 262.499 32.5197 262.512 32.4218L262.221 34.5864C262.242 34.4686 262.276 34.3534 262.323 34.2432L261.503 36.1876C261.573 36.0363 261.66 35.8933 261.763 35.7614L260.486 37.4088C260.662 37.1913 260.864 36.9952 261.086 36.8246L259.439 38.1017C260.112 37.6078 260.843 37.1963 261.614 36.8756L259.67 37.6962C260.604 37.3026 261.586 37.0342 262.59 36.898L260.425 37.1885C261.27 37.0787 262.124 37.0669 262.971 37.1534L255.12 26.8472L254.72 28.5218C254.381 29.5716 254.331 30.693 254.574 31.7689C254.619 32.8481 254.953 33.8955 255.54 34.802C256.031 35.724 256.749 36.5054 257.627 37.072C258.408 37.7891 259.363 38.2912 260.396 38.5295L262.561 38.82C264.006 38.8199 265.424 38.4341 266.67 37.7026L268.318 36.4255C269.315 35.43 270.036 34.1922 270.41 32.8336L270.412 32.8352Z" fill="#1E1E1E"/>
<path d="M191.88 41.5231C192.518 42.1122 193.211 42.6405 193.902 43.1562C194.653 43.7217 195.46 44.209 196.31 44.6105C197.089 44.9792 197.885 45.3161 198.695 45.6098C199.57 45.9253 200.473 46.1578 201.392 46.3042C202.724 46.5165 204.068 46.6921 205.418 46.6618C205.883 46.6522 206.346 46.6208 206.81 46.5676C207.679 46.4702 208.552 46.3617 209.409 46.1877C210.324 46.0051 211.219 45.7379 212.083 45.3895C213.324 44.8866 214.542 44.3678 215.666 43.6335C216.387 43.1642 217.067 42.6246 217.741 42.0882C218.113 41.7904 218.469 41.4733 218.807 41.1384C219.445 40.4795 220.034 39.7758 220.571 39.0328C221.03 38.403 221.405 37.7167 221.689 36.991C221.895 36.5555 222.06 36.1018 222.182 35.6357C222.287 35.0978 222.364 34.5548 222.413 34.009C222.431 33.8681 222.44 33.7263 222.441 33.5843C222.44 33.4413 222.43 33.2985 222.413 33.1565C222.37 32.6091 222.29 32.0652 222.176 31.5282C222.149 31.4202 222.116 31.3136 222.078 31.2089C221.899 30.7158 221.694 30.2324 221.464 29.761C221.187 29.2023 220.747 28.717 220.368 28.2381C220.222 28.0519 220.059 27.8793 219.882 27.7225C219.506 27.3936 219.098 27.0983 218.7 26.7998C218.596 26.7216 218.491 26.6401 218.381 26.5811C218.177 26.4551 217.963 26.3452 217.742 26.2522C217.166 26.0064 216.587 25.7158 215.972 25.5626C215.342 25.4198 214.701 25.3259 214.056 25.2816C213.745 25.2553 213.432 25.2553 213.121 25.2816C212.572 25.3231 212.026 25.4141 211.482 25.4907C211.312 25.5147 211.141 25.5418 210.974 25.5754C209.684 25.8372 208.469 26.3831 207.258 26.878L203.426 28.444L199.587 30.0101L197.671 30.7923L197.192 30.9886L196.971 31.078C196.569 31.2242 196.175 31.3904 195.791 31.5761L194.822 32.3248L194.071 33.2954L193.83 33.8669C193.705 34.0574 193.619 34.2713 193.578 34.4959L193.564 34.5805C193.49 35.037 193.43 35.5064 193.375 35.9661C193.363 36.0875 193.353 36.2088 193.351 36.3301C193.351 36.4495 193.357 36.5689 193.369 36.6877C193.423 37.2113 193.482 37.7429 193.586 38.2601C193.634 38.4919 193.704 38.7185 193.795 38.937C194.027 39.5069 194.255 40.1534 194.594 40.693C194.654 40.7856 194.72 40.8766 194.787 40.9644C195.098 41.3778 195.403 41.8056 195.744 42.1904C195.906 42.3715 196.082 42.5391 196.271 42.6916C196.751 43.1049 197.26 43.4837 197.794 43.8251C198.354 44.1224 198.935 44.3785 199.533 44.5913C199.755 44.6823 199.985 44.7538 200.219 44.8052C200.526 44.8723 200.845 44.901 201.153 44.9425C201.461 44.984 201.812 45.0463 202.143 45.0606C202.402 45.0681 202.661 45.0548 202.919 45.0207C203.589 44.9614 204.255 44.8547 204.911 44.7015C205.354 44.5651 205.787 44.4003 206.209 44.2082C206.899 43.9385 207.559 43.5966 208.177 43.1881C208.959 42.6527 209.701 42.0593 210.394 41.4129C210.795 41.0302 211.174 40.6257 211.529 40.2013C211.987 39.7812 212.328 39.25 212.519 38.6592C212.79 38.0821 212.931 37.4523 212.931 36.8146C212.931 36.1769 212.79 35.5471 212.519 34.97C212.328 34.3792 211.987 33.848 211.529 33.4279L210.56 32.6792C209.83 32.2522 208.999 32.0274 208.153 32.0279L206.876 32.1987C206.076 32.4184 205.348 32.8426 204.762 33.4295C204.168 34.1484 203.499 34.8033 202.769 35.3835L203.737 34.6348C203.19 35.0628 202.59 35.42 201.953 35.6979L203.097 35.219C202.644 35.4089 202.168 35.5414 201.681 35.6133L202.958 35.4425C202.574 35.4978 202.185 35.5021 201.8 35.4553L203.077 35.6261C202.712 35.5723 202.356 35.472 202.017 35.3276L203.161 35.8065C202.802 35.6483 202.462 35.4473 202.151 35.2079L203.12 35.9565C202.826 35.7263 202.561 35.4622 202.33 35.1695L203.078 36.1385C202.864 35.8616 202.686 35.5591 202.547 35.2382L203.026 36.3828C202.907 36.0962 202.825 35.7959 202.781 35.4888L202.952 36.7659C202.918 36.4892 202.918 36.2093 202.952 35.9326L202.781 37.2097C202.791 37.1331 202.804 37.058 202.82 36.983L199.467 40.3354C203.275 38.7821 207.077 37.2145 210.889 35.6756C211.905 35.2669 212.939 34.8774 214.028 34.7305L212.751 34.9029C213.235 34.8357 213.727 34.8298 214.213 34.8854L212.936 34.7146C213.321 34.7607 213.699 34.8557 214.06 34.9971L212.917 34.5182C213.273 34.6672 213.609 34.8626 213.914 35.0993L212.945 34.349C213.189 34.5415 213.409 34.7616 213.601 35.0051L212.846 34.0393C213.012 34.2572 213.152 34.4934 213.263 34.7433L212.784 33.6003C212.896 33.8652 212.972 34.1438 213.011 34.4288L212.84 33.1517C212.876 33.4563 212.874 33.7642 212.832 34.068L213.003 32.7909C212.945 33.1596 212.843 33.5199 212.698 33.8637L213.177 32.7191C212.94 33.2535 212.638 33.7565 212.278 34.2165L213.027 33.2459C212.369 34.0736 211.612 34.8163 210.771 35.4569L211.74 34.7082C210.765 35.456 209.699 36.0761 208.566 36.5536L209.711 36.0747C208.484 36.5862 207.197 36.9366 205.88 37.1171L207.157 36.9447C205.79 37.1267 204.404 37.1267 203.037 36.9447L204.314 37.1155C203.017 36.9405 201.75 36.596 200.543 36.0906L201.688 36.5696C200.589 36.1044 199.555 35.5003 198.61 34.772L199.579 35.5207C199.26 35.2733 198.953 35.0115 198.656 34.7369C197.741 33.8712 196.529 33.3888 195.27 33.3888C194.01 33.3888 192.798 33.8712 191.883 34.7369L191.134 35.7059C190.705 36.4394 190.479 37.2744 190.481 38.1244L190.652 39.4015C190.872 40.2007 191.297 40.929 191.883 41.5151L191.88 41.5231Z" fill="#1E1E1E"/>
<path d="M216.884 37.4712L217.646 35.1645C217.984 34.1147 218.034 32.9935 217.792 31.9174C217.746 30.8383 217.412 29.7912 216.825 28.8843C216.333 27.9565 215.611 27.1701 214.729 26.5999C213.947 25.8835 212.993 25.3814 211.959 25.1424L209.796 24.8519C208.351 24.8509 206.933 25.2367 205.687 25.9694L204.038 27.2465C203.041 28.2422 202.32 29.4799 201.945 30.8383L201.182 33.145C200.845 34.195 200.795 35.3162 201.037 36.3921C201.083 37.471 201.417 38.5181 202.003 39.4252C202.497 40.3498 203.219 41.1332 204.1 41.7016C204.882 42.4186 205.835 42.9208 206.869 43.1591L209.033 43.4496C210.478 43.45 211.897 43.0642 213.142 42.3322L214.79 41.0551C215.787 40.0592 216.509 38.8216 216.884 37.4632V37.4712Z" fill="#1E1E1E"/>
<path d="M124.414 111.645C124.414 111.645 132.928 100.391 133.881 95.0429" stroke="#1E1E1E" stroke-width="6.15429" stroke-miterlimit="10" stroke-linecap="round"/>
<path d="M216.604 218.918C211.317 224.78 257.834 255.025 263.162 211.051" stroke="#1E1E1E" stroke-width="4.52521" stroke-miterlimit="10" stroke-linecap="round"/>
<path d="M293.832 192.252C293.569 192.523 293.304 192.79 293.045 193.05C293.318 192.804 293.582 192.533 293.832 192.252Z" fill="#1E1E1E"/>
<path d="M263.733 17.1848C303.782 17.1848 343.037 36.022 343.037 36.022C343.037 36.022 387.696 -12.6992 402.103 8.28029C416.51 29.2598 402.95 111.682 402.95 111.682C402.95 111.682 411.533 125.778 416.299 128.042C416.299 128.042 408.989 131.269 407.717 133.838C407.717 133.838 417.254 136.668 418.207 139.904C418.207 139.904 410.578 140.899 408.672 143.788C408.672 143.788 414.076 160.245 422.338 160.687C422.338 160.687 418.525 163.377 414.711 163.698L418.036 165.858L419.154 166.587C419.154 166.587 412.797 169.158 411.844 171.726C411.844 171.726 413.432 176.542 415.975 176.863C415.975 176.863 406.44 179.028 405.805 182.93C405.805 182.93 405.166 195.174 408.348 196.138C408.348 196.138 385.9 226.965 356.597 232.744C356.597 232.744 343.187 236.919 334.923 252.012C334.923 252.012 327.722 271.921 321.469 278.672C321.469 278.672 323.271 270.965 321.469 266.148C321.469 266.148 307.899 281.561 296.781 281.24C285.662 280.92 285.973 295.049 285.973 295.049C285.973 295.049 281.04 287.021 281.676 285.415C282.311 283.809 279.617 296.332 279.617 298.58C279.617 298.58 273.846 291.994 263.674 291.029" stroke="#1E1E1E" stroke-width="4.52521" stroke-miterlimit="10" stroke-linecap="round"/>
<path d="M302.978 142.592C302.978 142.592 323.816 155.818 328.584 157.561C333.352 159.305 360.21 181.33 343.046 209.218C325.881 237.107 311.801 232.505 303.966 239.284C296.131 246.064 289.17 250.299 273.913 252.039C258.657 253.779 262.644 252.643 262.644 252.643" stroke="#1E1E1E" stroke-width="4.52521" stroke-miterlimit="10" stroke-linecap="round"/>
<path d="M325.715 178.175C325.715 178.175 354.639 156.677 368.625 159.286C382.611 161.894 441 150.767 441 150.767" stroke="#1E1E1E" stroke-width="4.52521" stroke-miterlimit="10" stroke-linecap="round"/>
<path d="M441 180.209C433.689 175.591 399.775 176.14 387.378 178.175C374.981 180.211 366.718 176.14 353.687 174.105C340.655 172.069 328.576 185.638 328.576 185.638" stroke="#1E1E1E" stroke-width="4.52521" stroke-miterlimit="10" stroke-linecap="round"/>
<path d="M333.342 194.794C333.342 194.794 351.827 195.223 358.503 199.632" stroke="#1E1E1E" stroke-width="4.52521" stroke-miterlimit="10" stroke-linecap="round"/>
<path d="M328.576 208.363C328.576 208.363 349.993 220.235 356.606 222.949C363.22 225.663 378.987 229.148 383.183 232.832C387.378 236.516 398.698 246.355 398.698 246.355" stroke="#1E1E1E" stroke-width="4.52521" stroke-miterlimit="10" stroke-linecap="round"/>
<path d="M311.729 198.868C311.729 198.868 322.536 195.815 322.854 198.868" stroke="#1E1E1E" stroke-width="6.15429" stroke-miterlimit="10"/>
<path d="M296.38 97.3192C297.601 93.7768 317.38 85.0718 330.949 93.0553C344.518 101.039 326.333 99.1598 326.333 99.1598C326.333 99.1598 307.754 102.396 303.097 101.299C298.441 100.202 295.155 100.862 296.38 97.3192Z" stroke="#1E1E1E" stroke-width="4.3442" stroke-miterlimit="10"/>
<path d="M354.172 99.1981L354.218 99.2332L353.249 98.4846C353.943 99.0283 354.565 99.6568 355.103 100.355L354.354 99.3865C356.228 101.819 357.207 104.793 358.466 107.56C359.126 109.037 359.928 110.447 360.861 111.77C362.053 113.435 363.357 115.025 364.895 116.381C365.388 116.819 365.907 117.223 366.429 117.625C366.951 118.027 367.468 118.423 368.014 118.795C368.873 119.373 369.77 119.889 370.595 120.519L369.626 119.771C370.227 120.233 370.767 120.769 371.234 121.367L370.485 120.398C370.977 121.044 371.386 121.749 371.703 122.497L371.224 121.353C371.574 122.186 371.814 123.061 371.938 123.956L371.767 122.679C371.884 123.558 371.884 124.448 371.767 125.326L371.938 124.049C371.896 124.347 371.843 124.643 371.778 124.936C371.578 125.556 371.549 126.217 371.694 126.852C371.721 127.485 371.917 128.1 372.262 128.632C372.932 129.675 373.943 130.453 375.123 130.833L376.4 131.004C377.249 131.005 378.084 130.779 378.817 130.35L379.786 129.601C380.372 129.015 380.797 128.287 381.018 127.487C381.218 126.598 381.35 125.695 381.412 124.786C381.448 124.305 381.448 123.821 381.412 123.34C381.317 121.966 381.115 120.55 380.636 119.249C380.158 117.947 379.62 116.694 378.796 115.607C378.302 114.906 377.754 114.245 377.155 113.631C376.454 112.981 375.704 112.388 374.91 111.856C373.865 111.128 372.762 110.499 371.753 109.72L372.722 110.469C371.276 109.344 369.979 108.041 368.86 106.591L369.609 107.56C368.844 106.578 368.162 105.534 367.572 104.439C367.035 103.432 366.572 102.388 366.124 101.339C365.235 99.2636 364.398 97.1388 363.131 95.2631C362.741 94.6852 362.302 94.1456 361.874 93.5917C361.686 93.349 361.491 93.1128 361.285 92.8877C360.604 92.139 359.81 91.5483 359.006 90.9353C358.473 90.5909 357.859 90.3947 357.226 90.367C356.295 90.253 355.351 90.4076 354.506 90.8127C353.66 91.2178 352.948 91.8563 352.454 92.653L351.975 93.7976C351.746 94.6335 351.746 95.5159 351.975 96.3518L352.454 97.4948C352.87 98.2056 353.461 98.7977 354.172 99.2141V99.1981Z" fill="#1E1E1E"/>
<path d="M386.118 188.191C385.798 188.576 385.49 188.978 385.195 189.382C385.12 189.484 385.051 189.591 384.986 189.701C384.689 190.25 384.435 190.82 384.224 191.408C384.05 191.848 383.924 192.305 383.849 192.773C383.631 194.17 383.502 195.58 383.463 196.993C383.439 197.559 383.407 198.122 383.334 198.682L383.504 197.405C383.435 197.988 383.291 198.559 383.077 199.105L383.555 197.962C383.414 198.304 383.229 198.626 383.005 198.92L383.753 197.951C383.712 198.005 383.669 198.058 383.624 198.111L391.799 201.497C391.77 201.243 391.77 200.987 391.799 200.734L391.628 202.011C391.683 201.635 391.786 201.268 391.936 200.919L391.458 202.062C391.893 201.043 392.612 200.189 393.087 199.188C393.367 198.613 393.613 198.023 393.827 197.42C393.908 197.189 393.973 196.953 394.02 196.712C394.122 196.194 394.179 195.664 394.24 195.14C394.254 195.014 394.266 194.888 394.269 194.762C394.272 194.636 394.269 194.549 394.269 194.442C394.227 193.913 394.157 193.386 394.058 192.864C394.037 192.748 394.008 192.635 393.97 192.524C393.823 192.097 393.625 191.677 393.445 191.264C393.418 191.203 393.392 191.144 393.36 191.085C393.124 190.641 392.763 190.255 392.454 189.867C392.369 189.761 392.276 189.662 392.174 189.572C391.26 188.706 390.048 188.223 388.788 188.223C387.529 188.223 386.317 188.706 385.403 189.572L384.654 190.541C384.224 191.274 383.998 192.108 383.999 192.958L384.17 194.235C384.391 195.034 384.816 195.762 385.403 196.348C385.504 196.437 385.597 196.536 385.68 196.642L384.932 195.673C385.028 195.806 385.109 195.95 385.174 196.101L384.695 194.958C384.769 195.145 384.82 195.34 384.847 195.539L384.676 194.262C384.712 194.562 384.709 194.865 384.668 195.164L384.839 193.887C384.77 194.351 384.643 194.804 384.459 195.236L384.938 194.093C384.574 194.942 384.001 195.681 383.554 196.487C383.437 196.696 383.329 196.909 383.235 197.126C382.964 197.691 382.729 198.273 382.531 198.868C382.377 199.487 382.277 200.119 382.232 200.756C382.206 201 382.206 201.245 382.232 201.489L382.403 202.766L382.882 203.91L383.631 204.879C384.049 205.338 384.58 205.679 385.171 205.869C385.756 206.113 386.383 206.239 387.016 206.239C387.65 206.239 388.277 206.113 388.862 205.869C389.453 205.679 389.984 205.338 390.402 204.879C390.722 204.5 391.031 204.094 391.328 203.692C391.403 203.59 391.474 203.486 391.539 203.372C391.745 203.001 391.924 202.616 392.074 202.218C392.356 201.601 392.564 200.952 392.693 200.285C392.912 198.888 393.041 197.479 393.079 196.066C393.103 195.493 393.137 194.92 393.212 194.35L393.041 195.627C393.111 195.044 393.256 194.472 393.472 193.925L392.993 195.068C393.137 194.727 393.323 194.405 393.549 194.11L392.8 195.079L392.897 194.96C393.763 194.045 394.246 192.833 394.246 191.573C394.246 190.313 393.763 189.101 392.897 188.186L391.928 187.438C391.195 187.008 390.36 186.783 389.51 186.785L388.233 186.955C387.434 187.176 386.705 187.6 386.119 188.186L386.118 188.191Z" fill="#1E1E1E"/>
<path d="M391.974 139.096L392 139.158L391.521 138.014C391.908 138.95 392.173 139.931 392.311 140.935L392.14 139.658C392.286 140.757 392.286 141.87 392.14 142.969L392.311 141.692C392.175 142.717 391.907 143.72 391.513 144.677L391.992 143.532C391.947 143.636 391.902 143.738 391.856 143.839C391.512 144.372 391.316 144.987 391.288 145.62C391.175 146.551 391.331 147.494 391.736 148.339C392.141 149.184 392.778 149.896 393.574 150.392L394.718 150.871C395.552 151.099 396.431 151.099 397.264 150.871L398.409 150.392C399.119 149.976 399.711 149.384 400.127 148.674C400.577 147.735 400.951 146.761 401.244 145.761C401.502 144.721 401.676 143.662 401.765 142.594C401.832 141.941 401.847 141.285 401.811 140.63C401.752 139.56 401.608 138.496 401.382 137.448C401.137 136.331 400.692 135.309 400.247 134.256C399.782 133.431 399.075 132.769 398.221 132.36C397.368 131.951 396.409 131.815 395.475 131.97C394.841 131.997 394.226 132.193 393.693 132.538L392.724 133.287C392.138 133.872 391.713 134.6 391.494 135.399L391.323 136.676C391.321 137.525 391.546 138.36 391.976 139.093L391.974 139.096Z" fill="#1E1E1E"/>
<path d="M397.202 164.886C397.177 164.977 397.157 165.07 397.142 165.163C397.048 165.656 396.984 166.153 396.952 166.653C396.95 166.744 396.953 166.836 396.961 166.927C397.009 167.419 397.071 167.927 397.162 168.412C397.2 168.597 397.254 168.778 397.322 168.953C397.526 169.504 397.758 170.043 398.016 170.57C398.371 171.274 398.839 171.913 399.151 172.646L398.672 171.501C398.909 172.068 399.07 172.664 399.151 173.273L398.981 171.996C399.061 172.632 399.058 173.276 398.973 173.912L399.143 172.634C399.061 173.222 398.904 173.796 398.677 174.344L399.156 173.2C399.049 173.451 398.927 173.695 398.791 173.931L407.061 178.764C407.767 177.216 408.367 175.661 408.61 173.975C408.783 172.939 408.887 171.893 408.921 170.843C408.925 170.187 408.884 169.531 408.797 168.88C408.648 167.74 408.505 166.623 408.171 165.527C407.79 164.347 407.012 163.336 405.969 162.665C405.437 162.321 404.823 162.125 404.189 162.097C403.555 161.954 402.893 161.983 402.274 162.183L401.131 162.662C400.421 163.079 399.829 163.67 399.412 164.38L398.933 165.524C398.703 166.36 398.703 167.242 398.933 168.078C399.139 168.76 399.291 169.457 399.388 170.163L399.217 168.886C399.381 170.121 399.381 171.371 399.217 172.606L399.388 171.329C399.229 172.488 398.922 173.622 398.473 174.703L398.952 173.56C398.898 173.686 398.843 173.811 398.792 173.935C398.448 174.468 398.252 175.082 398.224 175.715C398.111 176.646 398.267 177.59 398.671 178.435C399.076 179.281 399.714 179.993 400.51 180.489L401.654 180.967C402.488 181.196 403.367 181.196 404.201 180.967L405.345 180.489C406.055 180.072 406.647 179.48 407.063 178.769C407.387 178.164 407.671 177.538 407.912 176.895C408.03 176.612 408.128 176.322 408.208 176.027C408.324 175.54 408.409 175.047 408.463 174.55C408.547 174.045 408.6 173.534 408.623 173.022C408.626 172.724 408.611 172.426 408.578 172.13C408.515 171.428 408.411 170.731 408.267 170.042C408.198 169.744 408.107 169.451 407.997 169.166C407.762 168.519 407.486 167.888 407.17 167.277C406.828 166.638 406.415 166.056 406.132 165.395L406.611 166.538C406.505 166.288 406.43 166.026 406.388 165.757L406.559 167.034C406.537 166.851 406.537 166.667 406.559 166.484L406.386 167.761C406.401 167.656 406.423 167.553 406.452 167.451C406.651 166.832 406.681 166.17 406.536 165.535C406.509 164.902 406.313 164.287 405.968 163.755C405.298 162.712 404.287 161.934 403.107 161.554L401.83 161.383C400.981 161.382 400.146 161.608 399.413 162.038L398.444 162.786C397.857 163.372 397.433 164.101 397.212 164.9L397.202 164.886Z" fill="#1E1E1E"/>
<path d="M365.107 209.683V211.04C365.141 212.299 365.657 213.497 366.547 214.388C367.438 215.279 368.637 215.795 369.896 215.829L371.173 215.658C371.972 215.437 372.7 215.012 373.287 214.426L374.035 213.457C374.465 212.724 374.69 211.889 374.688 211.04V209.683C374.655 208.423 374.14 207.224 373.249 206.333C372.358 205.442 371.159 204.927 369.899 204.894L368.622 205.064C367.823 205.285 367.094 205.71 366.508 206.297L365.76 207.266C365.33 207.999 365.104 208.833 365.105 209.683H365.107Z" fill="#1E1E1E"/>
<path d="M356.247 216.766C355.476 218.294 354.869 219.899 354.435 221.555C354.277 222.206 354.152 222.864 354.062 223.528C353.895 224.586 353.783 225.652 353.726 226.721C353.701 227.482 353.722 228.245 353.789 229.004C353.822 230.263 354.337 231.462 355.228 232.353C356.119 233.245 357.318 233.76 358.578 233.793L359.855 233.622C360.654 233.402 361.382 232.977 361.968 232.391L362.717 231.421C363.147 230.688 363.372 229.853 363.37 229.004C363.251 227.628 363.282 226.243 363.463 224.874L363.292 226.151C363.51 224.529 363.939 222.943 364.569 221.432L364.09 222.577C364.227 222.251 364.374 221.932 364.529 221.619C364.873 221.086 365.069 220.471 365.097 219.837C365.241 219.203 365.211 218.541 365.011 217.922C364.873 217.313 364.577 216.752 364.154 216.293C363.82 215.774 363.357 215.349 362.811 215.059L361.667 214.58C360.833 214.352 359.954 214.352 359.121 214.58L357.976 215.059C357.266 215.476 356.675 216.067 356.258 216.777L356.247 216.766Z" fill="#1E1E1E"/>
<path d="M378.589 212.521C376.528 213.945 374.599 215.552 372.826 217.322C371.96 218.237 371.478 219.449 371.478 220.708C371.478 221.968 371.96 223.18 372.826 224.095L373.796 224.844C374.529 225.273 375.364 225.499 376.213 225.498L377.49 225.326C378.29 225.106 379.018 224.682 379.604 224.095C380.701 222.984 381.871 221.947 383.106 220.992L382.137 221.74C382.563 221.415 382.993 221.099 383.427 220.792C384.252 220.328 384.914 219.621 385.323 218.767C385.732 217.913 385.868 216.954 385.713 216.021C385.685 215.387 385.489 214.772 385.145 214.239L384.396 213.27C383.811 212.683 383.082 212.259 382.282 212.039L381.005 211.868C380.156 211.866 379.321 212.092 378.589 212.521Z" fill="#1E1E1E"/>
<path d="M376.026 138.075C376.058 138.282 376.088 138.488 376.115 138.696L375.944 137.419C376.141 138.897 376.243 140.386 376.251 141.877C376.285 143.137 376.801 144.335 377.692 145.226C378.583 146.116 379.781 146.632 381.04 146.667L382.317 146.494C383.116 146.274 383.844 145.85 384.431 145.263L385.179 144.294C385.609 143.561 385.834 142.727 385.832 141.877C385.798 139.749 385.608 137.626 385.266 135.525C384.885 134.346 384.107 133.334 383.064 132.663C382.532 132.319 381.917 132.123 381.284 132.095C380.649 131.951 379.988 131.981 379.368 132.181L378.224 132.66C377.514 133.077 376.923 133.668 376.506 134.378L376.027 135.522C375.799 136.358 375.799 137.24 376.027 138.077L376.026 138.075Z" fill="#1E1E1E"/>
<path d="M308.224 61.6454L304.365 65.6683C303.706 66.3487 303.33 67.2544 303.313 68.2017C303.351 69.1465 303.724 70.0469 304.365 70.7416C305.048 71.3705 305.947 71.8367 306.905 71.7936C307.863 71.7505 308.776 71.4376 309.445 70.7416L313.303 66.7187C313.964 66.0365 314.34 65.1284 314.355 64.1789C314.316 63.2346 313.943 62.3348 313.303 61.6391C312.618 61.0117 311.72 60.5439 310.763 60.587C309.807 60.6301 308.891 60.943 308.224 61.6391V61.6454Z" fill="#1E1E1E"/>
<path d="M312.339 68.0644H312.42L311.463 67.9367C311.5 67.9427 311.537 67.9518 311.573 67.9639L310.714 67.6015C310.747 67.6162 310.778 67.6338 310.808 67.6542L310.082 67.0922C310.109 67.1167 310.136 67.1428 310.16 67.1705L309.598 66.4425C309.638 66.496 309.673 66.5538 309.7 66.6149L309.338 65.7577C309.382 65.8717 309.412 65.9907 309.427 66.1121L309.298 65.1542C309.319 65.3351 309.319 65.5177 309.298 65.6986L309.426 64.7408C309.357 65.1663 309.263 65.5874 309.145 66.0019C309.034 66.4442 308.893 66.8779 308.72 67.2998L309.082 66.4425C308.921 66.8296 308.714 67.1958 308.465 67.5328L309.027 66.8065C308.837 67.0488 308.619 67.268 308.378 67.4594L309.105 66.8975C308.899 67.0551 308.675 67.188 308.437 67.2934L309.295 66.931C309.098 67.0131 308.892 67.071 308.682 67.1034L309.64 66.9757C309.449 66.9996 309.257 66.9996 309.066 66.9757L310.024 67.1034C309.965 67.0938 309.909 67.0827 309.852 67.0699C309.387 66.9198 308.891 66.8977 308.415 67.006C307.725 67.1093 307.078 67.4058 306.55 67.8612C306.021 68.3165 305.632 68.9122 305.428 69.5794L305.301 70.5372C305.299 71.1741 305.468 71.7999 305.791 72.3491C306.284 73.1137 307.021 73.797 307.936 73.9997C308.373 74.0989 308.818 74.1593 309.266 74.1801C309.721 74.1759 310.175 74.1256 310.62 74.0301C311.202 73.9053 311.761 73.6898 312.277 73.3915C312.409 73.3206 312.537 73.2406 312.658 73.1521C313.027 72.8949 313.379 72.6155 313.713 72.3156C313.827 72.21 313.933 72.0975 314.033 71.9787C314.326 71.6347 314.599 71.2744 314.852 70.8996C315.175 70.3512 315.446 69.774 315.663 69.1755C315.796 68.8487 315.91 68.5145 316.004 68.1746C316.1 67.8313 316.181 67.4833 316.258 67.1369C316.29 66.9901 316.327 66.8432 316.351 66.6963C316.437 66.268 316.491 65.8335 316.51 65.3969C316.51 65.3298 316.51 65.2644 316.501 65.1973C316.468 64.8222 316.415 64.4492 316.341 64.0799C316.245 63.6689 316.088 63.2748 315.873 62.9113C315.699 62.6045 315.484 62.3226 315.235 62.0732L315.182 62.0222C314.941 61.805 314.684 61.6065 314.413 61.4283L314.347 61.3948C314.06 61.2472 313.762 61.1223 313.455 61.0212C313.43 61.0149 313.405 61.0101 313.38 61.0069L312.422 60.8776H312.341C311.391 60.8939 310.484 61.2699 309.801 61.9296C309.161 62.6253 308.788 63.5251 308.749 64.4694C308.79 65.3985 309.095 66.3611 309.801 67.0092C310.506 67.6573 311.378 68.09 312.341 68.0612L312.339 68.0644Z" fill="#1E1E1E"/>
<path d="M289.423 49.0278C288.361 49.9042 287.488 50.9705 286.693 52.0912C285.898 53.2118 285.306 54.5049 284.811 55.8107C284.662 56.2754 284.64 56.7714 284.747 57.2475C284.768 57.7222 284.916 58.1827 285.173 58.582C285.677 59.3634 286.436 59.9466 287.32 60.2327L288.278 60.3604C288.916 60.362 289.542 60.1928 290.092 59.8703L290.818 59.3084C291.258 58.8697 291.577 58.3239 291.742 57.7248C291.805 57.5651 291.87 57.3959 291.937 57.2331L291.576 58.0919C291.996 57.1066 292.538 56.1777 293.189 55.327L292.627 56.055C293.179 55.3394 293.809 54.6873 294.506 54.1106C295.147 53.4159 295.52 52.5155 295.558 51.5708C295.52 50.6261 295.147 49.7256 294.506 49.0309C293.819 48.4068 292.92 47.9279 291.963 47.9757L291.005 48.1035C290.405 48.2692 289.859 48.5877 289.42 49.0278H289.423Z" fill="#1E1E1E"/>
<path d="M284.479 48.2277C284.335 48.3426 284.2 48.468 284.075 48.6028C284.014 48.6683 283.957 48.7353 283.901 48.804C283.591 49.1855 283.285 49.5718 283.001 49.9725C282.895 50.1217 282.799 50.278 282.715 50.4402C282.67 50.5248 282.63 50.6095 282.594 50.6957C282.394 51.1522 282.187 51.6088 282.016 52.0781C281.816 52.6974 281.786 53.3592 281.931 53.9938C281.958 54.6277 282.155 55.2427 282.499 55.7753C283.17 56.8173 284.181 57.5947 285.36 57.9751L286.637 58.1459C287.487 58.1477 288.321 57.9222 289.054 57.493L290.023 56.7443C290.61 56.1581 291.034 55.4299 291.256 54.6307C291.281 54.5589 291.308 54.4886 291.339 54.4184L290.86 55.563C290.993 55.2521 291.165 54.9588 291.37 54.6898L290.622 55.6588C290.809 55.4175 291.023 55.1989 291.26 55.0075C291.718 54.5874 292.059 54.0561 292.25 53.4654C292.521 52.888 292.662 52.2579 292.662 51.62C292.662 50.982 292.521 50.352 292.25 49.7746C292.058 49.1845 291.717 48.6539 291.26 48.2341L290.291 47.4854C289.558 47.0554 288.723 46.8294 287.873 46.8308L286.596 47.0017C285.796 47.2225 285.068 47.6472 284.482 48.2341L284.479 48.2277Z" fill="#1E1E1E"/>
<path d="M256.479 24.9112C255.708 30.7874 254.938 36.6749 254.676 42.6006C254.552 45.4405 254.545 48.2852 254.676 51.1252C254.849 54.9102 255.299 58.6601 255.81 62.4131C256.289 65.9251 256.905 69.4148 257.381 72.9268L257.088 70.7557C257.706 75.3581 258.08 80.0323 257.464 84.6553L257.754 82.4907C257.562 83.9161 257.268 85.326 256.876 86.7099C256.538 87.7591 256.488 88.88 256.731 89.9553C256.777 91.0343 257.11 92.0814 257.697 92.9884C258.837 94.761 260.556 96.083 262.562 96.7287L264.727 97.0208C266.172 97.0214 267.591 96.6356 268.836 95.9034L270.484 94.6263C271.481 93.6296 272.202 92.3915 272.578 91.0328C273.29 88.5345 273.649 85.9245 273.895 83.3495C274.066 81.4858 274.109 79.6127 274.026 77.7431C273.846 73.2126 273.134 68.706 272.43 64.2314C272.098 62.1002 271.756 59.9707 271.472 57.8331L271.762 59.9978C271.131 55.3668 270.83 50.6969 270.862 46.0232C270.903 41.6555 271.263 37.299 271.751 32.9601C272.054 30.2702 272.404 27.5851 272.757 24.9C272.806 23.8105 272.563 22.7277 272.054 21.7632C271.73 20.759 271.15 19.8564 270.372 19.1435C269.659 18.3646 268.755 17.7842 267.751 17.4594C266.787 16.9507 265.704 16.7088 264.615 16.7585L262.451 17.0491C261.092 17.4243 259.854 18.146 258.857 19.1435L257.58 20.791C256.847 22.036 256.461 23.455 256.463 24.9L256.479 24.9112Z" fill="#1E1E1E"/>
<path d="M270.611 25.1246L274.31 25.4439C275.427 25.5429 276.566 25.6036 277.683 25.7504L276.406 25.5796C277.067 25.6622 277.715 25.8307 278.333 26.0809L277.188 25.602C277.539 25.7486 277.871 25.9385 278.175 26.1671L277.206 25.4184C277.412 25.5786 277.598 25.7623 277.761 25.9659L277.013 24.9969C277.154 25.181 277.272 25.3814 277.365 25.594L276.887 24.451C276.981 24.6798 277.047 24.9195 277.083 25.1645L276.912 23.8875C276.95 24.1746 276.95 24.4655 276.912 24.7527L277.083 23.4756C277.048 23.7047 276.987 23.9291 276.901 24.1445L277.38 22.9999C277.274 23.2483 277.138 23.4822 276.973 23.6959L277.721 22.7269C277.479 23.0295 277.2 23.3008 276.891 23.5347L277.86 22.786C277.027 23.4245 276.068 23.8587 275.147 24.3312C274.67 24.5628 274.211 24.8296 273.774 25.1294C272.988 25.6677 272.25 26.2734 271.569 26.9397C270.899 27.6519 270.282 28.411 269.72 29.2113C269.362 29.7042 269.032 30.2169 268.732 30.7471C267.91 32.1838 267.27 33.7355 266.657 35.2744C266.122 36.6329 265.664 38.0185 265.22 39.4074L274.628 40.6845C274.422 37.9128 274.503 35.1273 274.869 32.3722L274.698 33.6493C274.874 32.3456 275.113 31.0514 275.416 29.7669C275.616 29.1476 275.646 28.4858 275.501 27.8512C275.473 27.2179 275.277 26.6035 274.933 26.0713L274.184 25.1007C273.764 24.6434 273.234 24.3024 272.643 24.1109C272.276 23.899 271.859 23.7888 271.435 23.7917C270.8 23.6486 270.139 23.6783 269.519 23.8779L268.376 24.3568C267.666 24.7736 267.074 25.3655 266.657 26.0761C266.473 26.3414 266.309 26.62 266.165 26.9094C265.842 27.5665 265.558 28.2418 265.313 28.932C265.091 29.5739 264.917 30.2313 264.791 30.8987C264.494 32.3865 264.291 33.8967 264.053 35.3957L262.54 44.9276L261.689 50.2866L261.518 51.5637L261.689 52.8408L262.168 53.9838C262.457 54.5297 262.882 54.9925 263.4 55.328C263.899 55.7104 264.469 55.9904 265.076 56.1521C265.683 56.3137 266.317 56.3537 266.94 56.2698C267.573 56.2429 268.188 56.0466 268.72 55.7015C268.83 55.651 268.937 55.5928 269.039 55.5275C269.478 55.2346 269.899 54.9147 270.298 54.5697C270.628 54.2615 270.924 53.919 271.181 53.548C271.481 53.1838 271.748 52.7938 271.979 52.3827C272.283 51.7786 272.55 51.1564 272.777 50.5197C272.985 49.951 273.134 49.3626 273.221 48.7637C273.392 47.6702 273.512 46.583 273.574 45.48C273.62 44.653 273.657 43.8245 273.767 43.0024L273.596 44.2795C273.689 43.559 273.874 42.8535 274.147 42.1803L273.668 43.3233C273.882 42.8229 274.157 42.3514 274.489 41.92L273.74 42.8906C274.062 42.4787 274.434 42.1077 274.846 41.786L273.877 42.5362C274.279 42.228 274.717 41.9711 275.182 41.7716L274.037 42.2505C274.475 42.0659 274.935 41.9388 275.405 41.8722L274.128 42.043C274.56 41.9855 274.997 41.9855 275.429 42.043L274.152 41.8722C274.54 41.9262 274.919 42.0303 275.281 42.1819L274.138 41.7029C274.76 41.9711 275.255 42.4373 275.866 42.7262C276.329 42.9449 276.883 43.2307 277.42 43.344C277.817 43.427 278.347 43.4845 278.754 43.5244C278.794 43.5244 278.836 43.534 278.876 43.5356C278.949 43.5367 279.023 43.5329 279.096 43.5244C280.229 43.4095 280.344 43.4079 281.227 43.0343C281.539 42.9275 281.837 42.7856 282.116 42.6113C282.447 42.375 282.999 42.0047 283.334 41.6327C283.376 41.5864 283.414 41.5369 283.454 41.4874C283.746 41.1187 284.059 40.7547 284.314 40.3588C284.387 40.2447 284.453 40.1258 284.509 40.0028C284.751 39.5023 284.964 38.9885 285.148 38.4639C285.378 37.7807 285.438 36.9984 285.518 36.304C285.557 35.9669 285.561 35.6266 285.529 35.2887C285.453 34.4219 285.322 33.5551 285.162 32.6978C285.071 32.2189 284.974 31.7304 284.907 31.2419L285.078 32.519C284.999 31.9775 284.99 31.4282 285.05 30.8843L284.88 32.1614C284.939 31.7293 285.055 31.3069 285.224 30.9051L284.745 32.0497C284.922 31.6444 285.147 31.2626 285.418 30.9131L284.669 31.8821C284.96 31.513 285.296 31.1812 285.668 30.8939L284.699 31.6426C285.062 31.3664 285.458 31.1359 285.877 30.9562L284.733 31.4351C285.227 31.2347 285.744 31.099 286.273 31.0312L284.996 31.202C285.937 31.0992 286.886 31.1196 287.822 31.2627L286.545 31.0919C287.092 31.1653 287.636 31.2595 288.179 31.3569C288.799 31.557 289.46 31.5862 290.095 31.4415C290.729 31.4145 291.344 31.2183 291.876 30.8732L292.845 30.1245C293.303 29.705 293.644 29.1743 293.835 28.584C294.047 28.2167 294.157 27.7996 294.154 27.3755C294.298 26.7408 294.268 26.0792 294.068 25.4599L293.589 24.3169C293.173 23.6068 292.581 23.0149 291.872 22.5976L284.485 19.234C283.952 18.8899 283.337 18.6937 282.704 18.6657C282.081 18.5537 281.441 18.5801 280.83 18.7432C280.218 18.9062 279.65 19.2019 279.166 19.6092C278.647 19.9442 278.222 20.407 277.932 20.9533L277.453 22.0963C277.225 22.9297 277.225 23.8091 277.453 24.6425L277.932 25.7871C278.353 26.4944 278.948 27.082 279.661 27.4937L287.047 30.8572L290.738 22.1043C289.747 21.9287 288.756 21.785 287.756 21.6589C287.174 21.5782 286.588 21.5382 286 21.5392C285.716 21.5413 285.432 21.5578 285.149 21.5887C284.452 21.654 283.759 21.7607 283.074 21.908C282.233 22.1233 281.421 22.4424 280.659 22.8578C280.481 22.9514 280.308 23.0548 280.142 23.1675C279.636 23.513 279.149 23.886 278.684 24.2849C278.045 24.8277 277.539 25.5333 277.051 26.2006C276.562 26.8679 276.261 27.6804 275.953 28.4515C275.633 29.2672 275.541 30.1963 275.461 31.0536C275.435 31.367 275.435 31.682 275.461 31.9954C275.512 32.7154 275.621 33.4321 275.739 34.1441C275.846 34.8018 275.994 35.4532 276.087 36.114L275.916 34.837C275.991 35.3277 276.003 35.8262 275.951 36.32L276.122 35.0429C276.073 35.4263 275.976 35.8018 275.831 36.1603L276.31 35.0157C276.214 35.2501 276.089 35.472 275.94 35.6766L276.689 34.706C276.586 34.8402 276.468 34.9618 276.337 35.0684L277.306 34.3197C277.204 34.3983 277.092 34.4638 276.973 34.5145L278.117 34.0356C278.024 34.0706 277.928 34.0963 277.83 34.1122L279.107 33.9414C278.994 33.955 278.879 33.955 278.765 33.9414L280.043 34.1122C279.901 34.0884 279.763 34.0483 279.631 33.9925L280.774 34.4714C280.221 34.2239 279.77 33.8009 279.227 33.5327C278.77 33.3076 278.291 33.1225 277.822 32.9309C277.704 32.883 277.586 32.8383 277.466 32.8C277.235 32.7286 276.999 32.6752 276.76 32.6403C275.882 32.5047 275.022 32.353 274.139 32.4647C273.232 32.5797 272.364 32.6595 271.52 33.0059C270.675 33.3523 269.867 33.654 269.149 34.1872C268.431 34.7204 267.682 35.2568 267.102 35.9544C266.523 36.652 265.932 37.3752 265.536 38.1893C265.238 38.7956 264.978 39.4199 264.757 40.0587C264.65 40.3796 264.564 40.707 264.499 41.0389C264.266 42.2584 264.12 43.4928 264.06 44.7328C264.012 45.5725 263.982 46.4138 263.873 47.2487L264.044 45.9716C263.948 46.7492 263.75 47.5108 263.456 48.2369L263.935 47.0939C263.769 47.4936 263.554 47.8715 263.297 48.2193L264.045 47.2503C263.873 47.4732 263.675 47.6751 263.456 47.8522L264.425 47.1035C264.262 47.2275 264.087 47.3345 263.902 47.4227L270.937 52.8312L272.327 44.0161C272.795 41.0745 273.262 38.1329 273.729 35.1913C273.952 33.7818 274.177 32.3498 274.73 31.0232L274.251 32.1678C274.434 31.7287 274.663 31.3098 274.933 30.9179L266.18 27.2271C265.735 29.1747 265.407 31.147 265.196 33.1336C265.014 34.7293 264.928 36.3344 264.938 37.9403C264.938 38.8566 264.981 39.7745 265.049 40.6892C265.02 41.3301 265.162 41.9673 265.461 42.5346C265.653 43.1258 265.994 43.6572 266.453 44.0767L267.422 44.8254C267.954 45.1698 268.568 45.366 269.202 45.3937C269.62 45.5077 270.061 45.5077 270.479 45.3937C271.112 45.366 271.726 45.1698 272.259 44.8254L273.228 44.0767C273.814 43.4905 274.239 42.7623 274.46 41.9632C274.988 40.3077 275.539 38.6587 276.216 37.0575L275.737 38.2005C276.392 36.6536 277.161 35.1419 278.186 33.8057L277.436 34.7747C277.982 34.0593 278.617 33.4157 279.324 32.8591L278.355 33.6077C279.391 32.8096 280.616 32.3466 281.741 31.6921C282.016 31.5384 282.282 31.3706 282.539 31.1892C283.113 30.8002 283.656 30.3673 284.163 29.8946C285.15 28.9263 285.871 27.7201 286.257 26.3922C286.38 25.8518 286.463 25.3034 286.506 24.7511C286.528 24.5865 286.537 24.4206 286.535 24.2546C286.505 23.6859 286.436 23.12 286.328 22.5609C286.3 22.3983 286.26 22.2382 286.208 22.082C286.12 21.8265 286 21.5711 285.898 21.3301C285.796 21.089 285.698 20.8272 285.579 20.5878C285.507 20.4517 285.425 20.3215 285.333 20.1982C284.928 19.6491 284.535 19.0712 284.002 18.645C283.468 18.2187 282.929 17.7542 282.309 17.4509C281.677 17.1363 281.023 16.8695 280.351 16.6527C279.382 16.3478 278.333 16.2361 277.33 16.1387C275.095 15.9232 272.86 15.7476 270.626 15.5512C269.985 15.523 269.348 15.6656 268.78 15.9647C268.182 16.1528 267.643 16.4953 267.219 16.9576C266.761 17.3769 266.419 17.9076 266.228 18.4981C265.929 19.0658 265.787 19.7027 265.816 20.3435L265.987 21.6206C266.208 22.4198 266.632 23.148 267.219 23.7342L268.188 24.4829C268.921 24.9124 269.755 25.1378 270.605 25.1358L270.611 25.1246Z" fill="#1E1E1E"/>
<path d="M258.449 50.6672C259.044 51.1461 259.868 51.9012 260.658 52.3067C261.458 52.726 262.293 53.0753 263.153 53.3507C264.02 53.6205 265.201 53.6875 265.955 53.7817C266.186 53.8112 266.418 53.8272 266.651 53.8296C266.889 53.8296 267.13 53.8168 267.363 53.7945C268.308 53.7019 269.248 53.571 270.184 53.4145C270.663 53.3331 271.149 53.2214 271.62 53.0953C272.653 52.8572 273.607 52.3556 274.389 51.6394C275.272 51.0727 275.995 50.2896 276.491 49.3646C277.078 48.4577 277.412 47.4106 277.458 46.3315C277.7 45.2555 277.65 44.1345 277.313 43.0844L276.491 41.1401C275.784 39.9322 274.779 38.9262 273.571 38.2187L271.627 37.3982C270.21 37.0103 268.715 37.0103 267.297 37.3982C266.709 37.5513 266.113 37.6728 265.511 37.7621L267.676 37.4716C267.106 37.5546 266.527 37.5626 265.955 37.4955L268.12 37.7861C267.786 37.7397 267.459 37.6518 267.147 37.5243L269.092 38.3448C268.832 38.2324 268.588 38.0882 268.364 37.9154L270.011 39.1925L269.962 39.1526C268.407 37.6807 266.347 36.8604 264.205 36.8604C262.064 36.8604 260.004 37.6807 258.449 39.1526L257.172 40.8C256.44 42.0458 256.054 43.4644 256.054 44.9091L256.345 47.0738C256.721 48.4325 257.442 49.6705 258.439 50.6672H258.449Z" fill="#1E1E1E"/>
<path d="M273.905 50.8857C276.046 50.7974 278.086 49.9523 279.661 48.5007C280.439 47.7875 281.02 46.885 281.346 45.8811C281.853 44.9161 282.095 43.8335 282.046 42.7442L281.756 40.5843C281.38 39.2259 280.659 37.9883 279.661 36.9925L278.014 35.7154C276.768 34.9838 275.35 34.598 273.905 34.5979C271.764 34.6862 269.724 35.5313 268.148 36.9829C267.37 37.6957 266.79 38.5984 266.464 39.6026C265.956 40.5672 265.714 41.6501 265.763 42.7394L266.054 44.9041C266.428 46.263 267.15 47.501 268.148 48.4959L269.796 49.773C271.042 50.505 272.46 50.8908 273.905 50.8905V50.8857Z" fill="#1E1E1E"/>
<path d="M268.177 57.4161C270.317 57.326 272.356 56.4811 273.933 55.0312C274.712 54.3176 275.292 53.4145 275.618 52.4099C276.125 51.4456 276.367 50.3634 276.318 49.2746L276.028 47.11C275.652 45.7513 274.93 44.5132 273.933 43.5165L272.286 42.2394C271.041 41.5064 269.622 41.1205 268.177 41.122C266.038 41.2159 264.002 42.0643 262.43 43.5165C261.651 44.2297 261.071 45.1329 260.746 46.1378C260.237 47.1023 259.995 48.1853 260.045 49.2746L260.336 51.4377C260.711 52.7967 261.432 54.0349 262.43 55.0312L264.077 56.3083C265.323 57.0409 266.742 57.4268 268.186 57.4257L268.177 57.4161Z" fill="#1E1E1E"/>
<path d="M358.503 120.103C358.503 129.79 374.553 162.359 382.558 164.236H374.353C374.353 164.236 378.298 168.304 378.55 172.058C378.802 175.813 378.55 173.623 378.55 173.623C378.55 173.623 374.988 168.302 371.81 169.555C371.81 169.555 374.671 179.247 371.81 184.88" stroke="#1E1E1E" stroke-width="2.89614" stroke-miterlimit="10" stroke-linecap="round"/>
<path d="M233.199 191.366C233.462 191.638 233.727 191.904 233.986 192.164C233.713 191.92 233.449 191.647 233.199 191.366Z" fill="#1E1E1E"/>
<path d="M356.588 43.9464C356.588 43.9464 378.877 14.1757 388.247 14.1757C398.697 20.2978 382.558 33.9707 382.558 33.9707C382.558 33.9707 419.533 45.2826 389.504 62.7213C389.504 62.7213 402.57 89.1141 386.185 78.2748C374.804 72.1479 356.588 43.9464 356.588 43.9464Z" stroke="#1E1E1E" stroke-width="4.52521" stroke-miterlimit="10" stroke-linecap="round"/>
<path d="M233.236 192.356C233.499 192.627 233.764 192.894 234.023 193.154C233.75 192.908 233.486 192.637 233.236 192.356Z" fill="#1E1E1E"/>
<path d="M257.837 26.1288C258.41 30.9179 258.98 35.715 259.298 40.5312C259.616 45.1605 259.635 49.8055 259.354 54.4372C259.173 57.2915 258.875 60.1347 258.489 62.9698L258.661 61.6927C257.668 69.0632 256.19 76.539 256.787 84.0052C256.955 86.3745 257.329 88.7247 257.904 91.0292C258.249 92.2275 259.036 93.2504 260.106 93.8915C260.638 94.2359 261.252 94.4321 261.886 94.4598C262.52 94.6038 263.182 94.5746 263.801 94.3752C264.96 94.0001 266.079 93.2817 266.664 92.1738C267.288 91.0495 267.459 89.7293 267.143 88.483C266.814 87.2131 266.563 85.9246 266.389 84.6246L266.56 85.9017C266.017 81.7511 266.215 77.5606 266.664 73.4165C266.791 72.2272 266.941 71.0411 267.101 69.855L266.93 71.1321C267.778 64.828 268.784 58.5527 269.045 52.1879C269.269 46.7603 269.009 41.3326 268.496 35.9241C268.187 32.6563 267.8 29.395 267.411 26.1368C267.439 25.4958 267.296 24.8589 266.997 24.2914C266.784 23.7106 266.448 23.1826 266.012 22.7435C265.576 22.3043 265.051 21.9644 264.472 21.7468C263.904 21.4475 263.267 21.3053 262.626 21.3349C261.388 21.3908 260.102 21.7962 259.239 22.7365L258.49 23.7071C258.061 24.4403 257.836 25.2746 257.837 26.124V26.1288Z" fill="#1E1E1E"/>
<path d="M293.869 191.47C293.605 191.741 293.34 192.008 293.082 192.268C293.355 192.022 293.618 191.751 293.869 191.47Z" fill="#1E1E1E"/>
<path d="M312.909 192.808C313.542 192.8 314.148 192.549 314.601 192.107C315.046 191.655 315.298 191.048 315.303 190.413C315.275 189.794 315.072 189.152 314.601 188.721C314.152 188.272 313.543 188.02 312.908 188.02C312.273 188.02 311.664 188.272 311.215 188.721C310.77 189.172 310.518 189.779 310.514 190.413C310.541 191.032 310.744 191.676 311.215 192.107C311.67 192.547 312.276 192.798 312.909 192.808Z" fill="#1E1E1E"/>
<path d="M308.619 210.108C309.253 210.1 309.859 209.849 310.313 209.407C310.759 208.955 311.01 208.347 311.014 207.713C310.987 207.094 310.784 206.452 310.313 206.021C309.864 205.572 309.255 205.32 308.62 205.32C307.985 205.32 307.376 205.572 306.927 206.021C306.482 206.472 306.23 207.079 306.225 207.713C306.253 208.332 306.456 208.976 306.927 209.407C307.382 209.847 307.987 210.098 308.619 210.108Z" fill="#1E1E1E"/>
<path d="M325.784 193.486C326.417 193.479 327.024 193.228 327.478 192.786C327.923 192.334 328.175 191.726 328.178 191.092C328.151 190.472 327.948 189.831 327.478 189.4C327.028 188.951 326.42 188.699 325.785 188.699C325.15 188.699 324.541 188.951 324.092 189.4C323.646 189.851 323.395 190.458 323.389 191.092C323.418 191.711 323.621 192.353 324.092 192.786C324.546 193.226 325.151 193.476 325.784 193.486Z" fill="#1E1E1E"/>
<path d="M318.791 182.631C319.425 182.623 320.031 182.372 320.485 181.93C320.93 181.479 321.182 180.871 321.186 180.236C321.158 179.619 320.954 178.975 320.485 178.544C320.262 178.322 319.998 178.145 319.708 178.025C319.417 177.904 319.106 177.842 318.791 177.842C318.476 177.842 318.165 177.904 317.874 178.025C317.584 178.145 317.32 178.322 317.097 178.544C316.652 178.995 316.401 179.603 316.396 180.236C316.424 180.856 316.628 181.499 317.097 181.93C317.552 182.371 318.158 182.621 318.791 182.631Z" fill="#1E1E1E"/>
<path d="M321.974 212.861C322.608 212.854 323.214 212.603 323.668 212.16C324.114 211.709 324.365 211.101 324.369 210.467C324.342 209.847 324.137 209.206 323.668 208.773C323.446 208.55 323.182 208.374 322.891 208.253C322.601 208.133 322.289 208.071 321.974 208.071C321.66 208.071 321.348 208.133 321.058 208.253C320.767 208.374 320.503 208.55 320.281 208.773C319.835 209.225 319.584 209.832 319.58 210.467C319.607 211.086 319.811 211.728 320.281 212.16C320.736 212.6 321.341 212.851 321.974 212.861Z" fill="#1E1E1E"/>
<path d="M274.157 22.8728L273.756 21.1966L269.138 27.2628C269.985 27.1771 270.839 27.1889 271.684 27.2979L270.407 27.1271C271.411 27.2627 272.393 27.5311 273.327 27.9253L272.182 27.4464C272.954 27.767 273.684 28.1786 274.358 28.6724L273.389 27.9237C273.612 28.0939 273.813 28.29 273.989 28.5079L273.241 27.5389C273.342 27.6722 273.429 27.8156 273.501 27.9668L273.022 26.8222C273.068 26.9326 273.103 27.0477 273.126 27.1654L272.955 25.8883C272.968 25.9862 272.97 26.0852 272.963 26.1836L273.134 24.9065C273.12 25.0068 273.095 25.1053 273.06 25.2003L273.539 24.0573C273.494 24.161 273.436 24.2591 273.368 24.3494L274.117 23.3804C273.981 23.5408 273.826 23.6849 273.657 23.8098L274.626 23.0611C273.933 23.5879 273.177 24.0732 272.62 24.7533C272.062 25.4333 271.502 26.1134 271.146 26.9196C270.79 27.7257 270.405 28.5447 270.263 29.4275C270.121 30.3102 269.958 31.2298 270.043 32.1269C270.096 32.6729 270.172 33.2204 270.262 33.7616C270.284 33.8893 270.31 34.017 270.34 34.1431C270.5 34.8056 270.819 35.4314 271.081 36.0588C271.371 36.6047 271.795 37.0675 272.315 37.4029C272.774 37.8243 273.335 38.1196 273.943 38.2602L275.22 38.431C275.86 38.4608 276.497 38.3186 277.064 38.0191C277.463 37.9083 277.827 37.6961 278.121 37.4029C278.64 37.0675 279.065 36.6047 279.355 36.0588L279.834 34.9158C280.062 34.0824 280.062 33.203 279.834 32.3696C279.559 31.3326 279.173 30.328 278.684 29.3732C278.205 28.4074 277.548 27.5709 276.875 26.7344C276.324 26.0803 275.696 25.495 275.004 24.9911C274.395 24.5198 273.763 24.0791 273.11 23.6709C272.559 23.3261 272.005 22.9829 271.489 22.5854L272.458 23.3341C272.083 23.0492 271.744 22.7189 271.449 22.3507L272.198 23.3197C272.02 23.0873 271.872 22.8336 271.756 22.5647L272.235 23.7093C272.134 23.4591 272.063 23.1975 272.026 22.9302L272.197 24.2073C272.131 23.6662 272.217 23.1298 272.244 22.5902C272.278 21.9341 272.158 21.2844 272.058 20.6394C271.963 20.036 271.668 19.4422 271.397 18.917C271.24 18.6575 271.062 18.4118 270.864 18.1826C270.695 17.9346 270.505 17.7012 270.297 17.485C269.499 16.7571 268.819 16.3276 267.775 16.0116C266.823 15.745 265.816 15.7393 264.861 15.9952C263.907 16.251 263.038 16.759 262.347 17.4659C261.549 18.3343 261.292 18.8627 260.894 19.9642C260.865 20.0476 260.841 20.133 260.822 20.2196C260.725 20.7301 260.654 21.2454 260.61 21.7633C260.578 22.2356 260.57 22.7093 260.588 23.1825L260.6 26.5891L260.613 30.4699C260.585 31.1103 260.727 31.7467 261.027 32.3137C261.243 32.8912 261.58 33.4155 262.017 33.851C262.454 34.2865 262.979 34.6229 263.557 34.8376C264.124 35.1367 264.76 35.2794 265.401 35.251L266.678 35.0786C267.477 34.8582 268.205 34.4341 268.791 33.8478L269.54 32.8788C269.969 32.1458 270.195 31.3113 270.193 30.4619L270.177 25.9474V23.73C270.177 23.0579 270.124 22.3683 270.203 21.701L270.032 22.9781C270.054 22.7836 270.102 22.593 270.175 22.4114L269.697 23.556C269.731 23.4811 269.772 23.4095 269.819 23.3421L269.069 24.3111C269.119 24.2474 269.175 24.1891 269.237 24.1371L268.268 24.8858C268.323 24.8468 268.381 24.8127 268.442 24.7836L267.297 25.2625C267.361 25.237 267.428 25.2193 267.497 25.2098L266.22 25.3807C266.269 25.3775 266.319 25.3775 266.368 25.3807L265.091 25.2098C265.174 25.2213 265.256 25.2433 265.334 25.2753L264.189 24.7964C264.27 24.8341 264.346 24.8801 264.417 24.9337L263.448 24.1834C263.552 24.2671 263.645 24.3625 263.726 24.4675L262.977 23.4985C263.06 23.61 263.13 23.7299 263.187 23.8561L262.708 22.7131C262.77 22.8635 262.812 23.0212 262.834 23.1825L262.663 21.9054C262.694 22.3069 262.686 22.7106 262.639 23.1106C262.572 23.9232 262.682 24.6527 262.799 25.4732C262.837 25.7403 262.907 26.0019 263.008 26.2523C263.242 26.8429 263.477 27.5182 263.86 28.053C264.227 28.5974 264.639 29.1095 265.093 29.5839C265.435 29.9039 265.796 30.2025 266.175 30.4779C266.785 30.9568 267.399 31.3862 268.051 31.7949C268.608 32.1429 269.168 32.4845 269.69 32.8852L268.721 32.1349C269.274 32.57 269.772 33.0706 270.204 33.6259L269.455 32.6569C269.93 33.2738 270.325 33.9487 270.629 34.6651L270.15 33.5221C270.338 33.9731 270.492 34.438 270.608 34.9126L279.351 31.217L279.329 31.1659L279.808 32.3089C279.645 31.9133 279.532 31.4987 279.473 31.0749L279.644 32.352C279.577 31.8508 279.577 31.343 279.644 30.8418L279.473 32.1189C279.542 31.6197 279.676 31.1315 279.87 30.6662L279.391 31.8108C279.565 31.4048 279.787 31.0215 280.054 30.6694L279.305 31.64C279.537 31.3393 279.805 31.0681 280.103 30.8323L279.134 31.581C279.58 31.2377 280.03 30.9041 280.472 30.5529C280.623 30.4366 280.761 30.305 280.884 30.1602C281.567 29.3413 281.993 28.7426 282.308 27.6986C282.496 27.1257 282.571 26.5217 282.528 25.9202C282.502 25.4229 282.43 24.9292 282.313 24.4452C282.301 24.4069 282.287 24.3686 282.274 24.3318C282.131 23.9503 281.942 23.5001 281.767 23.1314C281.724 23.0376 281.674 22.9469 281.618 22.86C281.341 22.4514 281.04 22.0591 280.718 21.6851C280.594 21.5346 280.457 21.3951 280.309 21.2684C279.86 20.8834 279.388 20.5242 278.898 20.1925C277.865 19.498 276.714 19.0127 275.557 18.5626C274.781 18.2617 273.974 18.0476 273.151 17.924C271.805 17.7213 270.49 17.5505 269.133 17.6893C268.284 17.6871 267.449 17.9126 266.716 18.3423C266.17 18.6317 265.707 19.0566 265.372 19.5763C264.951 20.036 264.655 20.5969 264.515 21.2046C264.286 22.0379 264.286 22.9174 264.515 23.7508L264.915 25.427C265.056 26.0346 265.351 26.5955 265.773 27.0553C266.108 27.5749 266.571 27.9998 267.117 28.2892C267.649 28.6336 268.263 28.8298 268.897 28.8576C269.531 29.001 270.193 28.9712 270.812 28.7713L271.957 28.2924C272.667 27.8757 273.258 27.2844 273.675 26.5747L274.154 25.4301C274.38 24.5965 274.38 23.7175 274.154 22.8839L274.157 22.8728Z" fill="#1E1E1E"/>
<path d="M328.555 34.4589C328.258 34.7334 327.951 34.9952 327.632 35.2427L328.601 34.494C327.656 35.2218 326.622 35.8253 325.523 36.2899L326.666 35.811C325.46 36.316 324.193 36.66 322.897 36.8343L324.174 36.6635C322.807 36.8462 321.421 36.8462 320.054 36.6635L321.331 36.8343C320.014 36.6555 318.726 36.3051 317.5 35.7918L318.643 36.2707C317.512 35.7923 316.446 35.1722 315.471 34.4253L316.44 35.174C315.599 34.5338 314.841 33.7911 314.184 32.9631L314.933 33.9321C314.572 33.4729 314.27 32.9704 314.034 32.4363L314.513 33.5793C314.367 33.2363 314.265 32.8765 314.208 32.5081L314.379 33.7852C314.337 33.4814 314.334 33.1734 314.371 32.8689L314.198 34.146C314.238 33.8613 314.315 33.5828 314.425 33.3175L313.946 34.4621C314.057 34.212 314.197 33.9757 314.363 33.7581L313.614 34.7271C313.806 34.4832 314.026 34.2629 314.27 34.071L313.3 34.8197C313.607 34.5844 313.943 34.3891 314.299 34.2386L313.154 34.7175C313.51 34.5722 313.882 34.4719 314.262 34.419L312.985 34.5898C313.471 34.5336 313.963 34.539 314.448 34.6057L313.17 34.4349C314.129 34.5896 315.066 34.8575 315.961 35.2331C316.911 35.6083 317.853 36.0026 318.798 36.3873L324.482 38.7068L327.731 40.0318L324.379 36.6874C324.393 36.7624 324.407 36.8375 324.417 36.9125L324.246 35.6354C324.28 35.9116 324.28 36.1909 324.246 36.4671L324.417 35.19C324.373 35.4968 324.291 35.7967 324.171 36.0824L324.65 34.9394C324.511 35.26 324.332 35.562 324.118 35.8381L324.867 34.8691C324.633 35.1623 324.365 35.4269 324.069 35.6577L325.039 34.909C324.728 35.148 324.389 35.3485 324.029 35.5061L325.174 35.0272C324.834 35.1708 324.478 35.2711 324.114 35.3257L325.391 35.1549C325.005 35.2009 324.616 35.1967 324.232 35.1421L325.509 35.3129C325.022 35.2412 324.546 35.1087 324.093 34.9186L325.237 35.3975C324.599 35.1208 324 34.7635 323.453 34.3344L324.422 35.083C323.7 34.505 323.04 33.8533 322.453 33.1387C321.539 32.2719 320.327 31.7887 319.067 31.7887C317.807 31.7887 316.594 32.2719 315.68 33.1387L314.931 34.1077C314.503 34.841 314.277 35.6752 314.277 36.5246L314.449 37.8017C314.669 38.6007 315.093 39.3286 315.68 39.9137C316.667 41.0619 317.803 42.0728 319.058 42.9196C319.838 43.4592 320.694 43.8024 321.572 44.1616C322.45 44.5208 323.368 44.6214 324.321 44.7363C324.577 44.7687 324.836 44.7804 325.094 44.7714C325.413 44.7555 325.742 44.6964 326.052 44.6549C326.361 44.6134 326.69 44.5815 327.009 44.5112C327.243 44.4572 327.472 44.3841 327.694 44.2925C328.294 44.0751 328.876 43.8126 329.436 43.5071C329.978 43.1611 330.493 42.7753 330.978 42.3529C331.164 42.1983 331.339 42.029 331.498 41.8469C331.829 41.4701 332.123 41.0599 332.424 40.6624C332.502 40.5586 332.584 40.4532 332.646 40.3431C332.983 39.8083 333.198 39.1905 333.433 38.6142C333.523 38.3947 333.591 38.1669 333.636 37.9342C333.733 37.4265 333.795 36.9045 333.848 36.3905C333.861 36.2622 333.867 36.1331 333.864 36.0042C333.864 35.8924 333.853 35.7807 333.84 35.6689C333.788 35.2076 333.727 34.7398 333.653 34.2817C333.653 34.245 333.641 34.2066 333.633 34.1683C333.592 33.9537 333.508 33.7496 333.387 33.5681C333.276 33.169 333.064 32.8054 332.771 32.5129L332.395 32.034L331.426 31.2853C331.042 31.0989 330.647 30.9327 330.245 30.7872L330.025 30.6962L329.508 30.4855L325.668 28.9195L321.837 27.3534C320.581 26.841 319.332 26.3014 318.062 25.8289C317.458 25.5947 316.836 25.41 316.202 25.2766C316.042 25.2462 315.883 25.2207 315.723 25.1983C315.167 25.1201 314.606 25.0259 314.048 24.9876C313.74 24.9639 313.43 24.9666 313.122 24.9956C312.599 25.0467 312.072 25.1185 311.553 25.2063C311.437 25.2271 311.322 25.251 311.207 25.2813C310.594 25.441 310.013 25.7267 309.438 25.9742C309.209 26.0717 308.988 26.1881 308.779 26.3222C308.686 26.3812 308.595 26.4451 308.507 26.5105C308.096 26.8202 307.669 27.1236 307.285 27.4684C306.822 27.8866 306.461 28.4262 306.091 28.9179C305.946 29.1055 305.822 29.3077 305.72 29.5213C305.505 29.9763 305.303 30.4456 305.129 30.9181C305.085 31.041 305.048 31.1662 305.018 31.2933C304.915 31.8135 304.84 32.3389 304.794 32.8673C304.776 33.0204 304.767 33.1744 304.767 33.3286C304.767 33.4595 304.778 33.5888 304.793 33.7198C304.842 34.2766 304.922 34.8303 305.032 35.3784C305.182 36.0345 305.497 36.6635 305.76 37.2733C305.998 37.8065 306.3 38.3088 306.659 38.7691C307.194 39.5094 307.781 40.2109 308.415 40.8683C308.754 41.2018 309.111 41.5178 309.483 41.8149C310.53 42.6498 311.582 43.4496 312.773 44.0642C313.539 44.4601 314.344 44.7858 315.14 45.1083C315.573 45.2839 316.014 45.4371 316.461 45.5712C317.749 45.9559 319.082 46.1379 320.415 46.2864C321.349 46.3906 322.291 46.4088 323.229 46.3407C324.101 46.2784 324.971 46.1539 325.833 46.0214C326.293 45.9479 326.748 45.8527 327.198 45.7356C328.478 45.382 329.723 44.9079 330.914 44.3196C331.763 43.9172 332.569 43.4282 333.318 42.8606C334.001 42.3417 334.689 41.8277 335.318 41.2434C335.777 40.8247 336.119 40.2938 336.31 39.7029C336.581 39.1255 336.722 38.4955 336.722 37.8575C336.722 37.2196 336.581 36.5895 336.31 36.0121C336.119 35.4213 335.777 34.8904 335.318 34.4716L334.349 33.7229C333.617 33.293 332.782 33.067 331.933 33.0684L330.655 33.2392C329.856 33.4601 329.128 33.8848 328.542 34.4716L328.555 34.4589Z" fill="#1E1E1E"/>
<path d="M326.186 33.1708L325.423 30.8641C325.185 29.8307 324.682 28.8769 323.965 28.096C323.396 27.2127 322.609 26.4904 321.681 25.9984C320.773 25.4144 319.726 25.0837 318.648 25.0405C317.572 24.7973 316.45 24.8475 315.4 25.1858L313.456 26.0063C312.249 26.7147 311.243 27.7205 310.535 28.9277L309.714 30.8721C309.326 32.2891 309.326 33.7844 309.714 35.2014L310.477 37.5066C310.716 38.5403 311.218 39.4945 311.935 40.2763C312.504 41.1591 313.291 41.8809 314.219 42.3723C315.126 42.9598 316.173 43.2933 317.252 43.3381C318.328 43.5813 319.449 43.5312 320.499 43.1929L322.444 42.3723C323.651 41.6645 324.657 40.6593 325.365 39.4526L326.186 37.5066C326.573 36.0901 326.573 34.5953 326.186 33.1788V33.1708Z" fill="#1E1E1E"/>
<path d="M402.954 111.674C402.954 111.674 394.44 100.418 393.487 95.0619" stroke="#1E1E1E" stroke-width="6.15429" stroke-miterlimit="10" stroke-linecap="round"/>
<path d="M310.763 218.947C316.05 224.808 269.534 255.052 264.205 211.08" stroke="#1E1E1E" stroke-width="4.52521" stroke-miterlimit="10" stroke-linecap="round"/>
<path d="M308.708 127.256V141.163" stroke="#1E1E1E" stroke-width="23.5311" stroke-miterlimit="10" stroke-linecap="round"/>
<path d="M218.657 127.227V141.135" stroke="#1E1E1E" stroke-width="23.5311" stroke-miterlimit="10" stroke-linecap="round"/>
</svg>
