<svg width="1050" height="642" viewBox="0 0 1050 642" fill="none" xmlns="http://www.w3.org/2000/svg">
<g clip-path="url(#clip0_2338_2214)">
<path d="M620.844 239.128C618.458 231.114 612.273 224.993 600.843 226.547L546.221 233.845C539.658 234.516 537.164 228.024 543.311 226.278L588.736 212.77C606.274 208.024 612.548 197.183 612.817 184.64C612.996 176.114 606.369 168.893 598.055 168.541C588.026 168.119 574.453 174.042 544.2 178.34C539.352 179.031 538.232 177.374 539.313 174.214C542.217 165.676 566.304 161.461 577.632 160.444C591.249 159.222 592.061 150.223 593.545 146.001C598.035 133.254 593.641 85.2324 590.961 70.5278C590.36 67.2275 587.207 65.4749 582.551 66.0314C566.586 67.9502 517.125 97.1354 498.346 108.117C493.389 111.015 490.147 118.102 495.622 133.375C499.357 143.788 497.809 155.602 493.741 160.84C490.793 164.633 487.006 163.795 485.81 159.689C481.992 146.615 477.553 133.932 477.553 133.932C475.25 125.496 464.543 123.033 455.845 126.864C448.438 130.126 445.368 131.035 437.354 135.294C423.749 142.535 418.338 155.122 424.037 166.437L444.767 207.576C446.973 211.951 438.14 214.689 435.045 210.589L406.441 172.718C401.971 166.264 389.396 165.452 383.288 171.202C379.891 174.4 373.841 182.894 371.058 186.61C364.208 195.756 366.556 203.137 372.408 212.955L395.044 250.359C399.016 257.427 393.534 260.094 391.244 257.427C382.961 247.763 367.361 226.528 367.361 226.528C363.083 220.56 353.859 221.865 351.41 228.786C348.627 236.64 344.425 249.029 343.568 251.453L377.026 434.783L616.846 433.088L623.268 247.986C622.52 245.006 621.714 242.057 620.844 239.128Z" fill="#D9F800"/>
<path d="M400.001 349.639C397.43 349.748 396.31 347.772 398.415 346.294C399.771 345.348 400.871 344.535 401.261 344.158C405.22 340.288 405.316 336.732 404.35 332.798C401.67 321.893 395.217 311.653 390.867 307.355C388.149 304.669 383.569 305.014 380.979 307.822L380.263 308.596C378.67 310.323 375.964 308.225 377.237 306.255L383.435 296.635C385.04 294.141 385.367 291.019 384.298 288.25C373.368 260.062 361.106 250.404 350.086 243.477C345.436 240.554 339.289 242.966 337.927 248.287L329.248 282.116C328.237 286.056 322.378 284.994 322.813 280.952L326.676 245.013C327.041 241.092 326.248 236.493 322.928 234.376C315.119 229.393 300.485 226.47 288.716 225.888C285.754 225.741 283.279 228.108 283.33 231.076L283.836 259.647C283.701 264.373 277.625 263.324 276.832 258.662L271.421 230.615C270.404 226.829 267.634 224.072 263.778 223.349C246.572 220.1 229.699 219.288 218.877 220.72C210.722 221.795 208.976 230.091 210.262 236.096L216.108 264.258C217.4 268.499 219.031 270.507 223.386 271.307L253.25 276.5C258.04 276.903 258.2 281.285 253.448 281.995C239.754 284.041 226.616 285.749 218.206 287.31C215.596 287.796 213.626 289.97 213.428 292.618C212.999 298.311 211.944 304.649 216.671 310.067C221.672 315.791 246.144 318.516 269.022 323.108C272.393 323.786 272.822 326.569 269.502 327.464C269.502 327.464 239.991 331.762 229.981 337.225C223.195 340.921 222.715 344.369 223.073 351.443C223.29 355.671 224.212 362.515 225.094 368.373C226.066 374.84 231.381 379.777 237.905 380.257C237.905 380.257 263.937 381.939 272.38 384.389C277.996 386.02 273.557 389.691 270.736 391.067C263.234 394.719 249.003 401.914 249.003 401.914C242.236 405.093 239.396 412.244 239.364 419.721C239.345 424.787 240.144 434.892 240.144 434.892H409.94C409.94 434.892 416.272 395.007 408.847 353.637C408.399 351.155 406.179 349.396 403.666 349.505L400.001 349.639Z" fill="#2E27EF"/>
<path d="M280.548 422.56C276.41 407.235 334.691 390.286 344.33 434.303C333.872 434.323 339.782 434.303 326.683 434.303C306.542 421.786 283.561 433.728 280.548 422.56Z" fill="#274D76"/>
<path d="M275.54 367.132C274.868 362.719 278.654 358.811 282.991 357.775C312.067 350.848 315.784 372.134 319.257 376.253C321.713 379.163 328.467 377.405 332.074 381.671C334.415 384.44 331.62 392.864 334.351 396.676C337.351 400.859 341.879 397.443 345.436 402.695C348.551 407.293 342.18 412.218 344.246 417.188C346.958 423.718 356.373 421.013 351.045 433.344C346.485 433.325 345.557 433.313 345.557 433.313C345.557 433.313 332.369 431.713 333.961 421.832C334.633 417.681 323.868 420.661 321.297 416.83C319.244 413.773 322.448 410.907 318.662 409.372C316.314 408.419 307.686 409.666 305.339 404.69C303.548 400.904 308.307 396.292 302.633 394.84C289.911 391.578 278.648 387.613 275.54 367.132Z" fill="#FDFFFF"/>
<path d="M340.191 406.347C343.703 395.864 344.688 385.157 351.346 382.745C356.162 380.999 357.422 385.291 360.857 384.332C365.647 382.995 365.168 360.129 395.773 362.457C405.13 363.167 410.906 378.543 394.231 383.302C385.328 385.847 395.459 387.165 392.728 392.013C388.878 398.844 373.77 395.678 368.941 402.042C366.089 405.803 371.142 412.641 366.121 422.535C364.944 424.857 363.588 427.076 362.2 429.11C358.337 434.784 349.747 433.971 347.028 427.671C343.453 419.382 339.161 409.423 340.191 406.347Z" fill="#FDFFFF"/>
<path d="M343.312 425.062C339.667 412.225 337.895 399.1 338.259 387.306C338.778 370.74 343.459 357.775 351.794 349.818L354.441 352.594C339.001 367.324 339.731 398.703 347.214 424.735C348.039 427.575 344.195 428.176 343.312 425.062Z" fill="#FDFFFF"/>
<path d="M334.933 350.004L357.313 349.16L355.484 354.75L361.771 363.634C362.302 364.542 361.01 365.751 359.392 365.252C357.831 364.779 356.232 363.129 355.228 361.434C354.716 360.57 354.038 361.12 354.077 361.753C354.173 363.352 354.281 366.077 354.281 366.077C354.39 367.734 353.073 368.169 351.48 366.359C349.293 363.87 349.056 360.999 348.762 358.856C348.659 358.12 347.911 357.82 347.227 358.095C347.227 358.095 342.27 359.444 340.651 360.007C338.694 360.692 337.485 359.253 339.052 357.903C339.66 357.378 341.406 355.696 341.406 355.696C341.886 355.313 341.732 354.551 341.138 354.385L334.716 352.364C332.944 351.871 333.091 350.023 334.933 350.004Z" fill="#274D76"/>
<path d="M335.675 324.65L337.262 324.931C337.933 325.053 338.522 324.477 338.426 323.805L338.01 320.946C337.709 318.874 339.903 317.345 341.739 318.356L343.018 319.059C343.639 319.398 344.406 319.002 344.489 318.298L344.771 315.893C344.975 314.154 347.124 313.45 348.314 314.736L349.241 315.74C349.683 316.22 350.457 316.149 350.809 315.606L352.83 312.484C353.968 310.725 356.591 310.885 357.512 312.766L358.605 315.011C358.9 315.606 359.68 315.759 360.172 315.311L361.886 313.757C363.319 312.459 365.622 313.303 365.878 315.215L366.063 316.578C366.153 317.217 366.818 317.608 367.419 317.371L370.246 316.258C371.397 315.804 372.568 316.878 372.216 318.068L371.96 318.925C371.736 319.673 372.421 320.377 373.176 320.172L376.067 319.386C378.299 318.778 380.045 321.33 378.67 323.191L377.915 324.215C377.448 324.841 377.857 325.737 378.638 325.801L382.821 326.14C385.04 326.319 385.942 329.088 384.253 330.54L382.955 331.653C382.322 332.197 382.597 333.233 383.416 333.387L385.539 333.802C386.722 334.033 387.01 335.587 385.993 336.233L385.091 336.802C384.337 337.282 384.541 338.433 385.418 338.619L386.806 338.913C388.309 339.233 388.443 341.324 386.991 341.836L385.283 342.437C384.49 342.718 384.375 343.787 385.091 344.228L386.703 345.219C388.296 346.204 387.739 348.648 385.878 348.839L384.433 348.987C383.671 349.063 383.281 349.933 383.723 350.554L384.669 351.897C385.552 353.144 384.317 354.788 382.872 354.295L381.286 353.752C380.608 353.521 379.911 354.059 379.968 354.775L380.122 356.687C380.205 357.736 379.085 358.453 378.177 357.935L377.154 357.353C376.546 357.007 375.779 357.385 375.676 358.075L375.593 358.657C375.389 360.033 373.687 360.576 372.728 359.566L371.928 358.728C371.385 358.159 370.432 358.408 370.24 359.176L369.875 360.634C369.415 362.482 366.959 362.892 365.929 361.286L365.187 360.129C364.784 359.502 363.863 359.521 363.486 360.161L363.281 360.506C362.884 361.177 361.906 361.158 361.541 360.468C361.183 359.79 360.224 359.758 359.814 360.404L359.507 360.896C359.053 361.612 357.972 361.478 357.71 360.672L357.441 359.828C357.269 359.284 356.674 358.996 356.136 359.201L354.601 359.783C353.872 360.058 353.124 359.431 353.265 358.67L353.354 358.197C353.482 357.5 352.868 356.899 352.171 357.039L350.572 357.365C349.907 357.5 349.299 356.95 349.382 356.272L349.446 355.696C349.529 354.999 348.89 354.442 348.212 354.615L346.203 355.127C345.378 355.338 344.681 354.481 345.065 353.713L345.186 353.477C345.525 352.792 345.007 351.993 344.24 352.038L342.359 352.14C341.048 352.21 340.102 350.912 340.575 349.684L340.888 348.859C341.112 348.27 340.741 347.624 340.121 347.515L337.242 347.042C336.085 346.85 335.803 345.315 336.814 344.727C337.613 344.26 337.402 343.057 336.494 342.885L335.093 342.623C333.539 342.335 333.226 340.237 334.633 339.514L334.933 339.354C335.739 338.938 335.618 337.749 334.742 337.506L333.993 337.301C332.337 336.847 332.426 334.468 334.108 334.135C335.049 333.949 335.209 332.677 334.351 332.261L332.561 331.397C331.307 330.79 331.742 328.903 333.136 328.909L334.953 328.922C335.835 328.929 336.289 327.867 335.675 327.234L334.806 326.338C334.108 325.635 334.722 324.483 335.675 324.65Z" fill="#FFF3A1"/>
<path d="M364.274 346.045L362.995 346.049L363.021 354.741L364.301 354.737L364.274 346.045Z" fill="black"/>
<path d="M364.197 321.675L362.918 321.679L362.945 330.576L364.224 330.572L364.197 321.675Z" fill="black"/>
<path d="M368.93 344.72L367.963 345.558L374.624 353.243L375.591 352.405L368.93 344.72Z" fill="black"/>
<path d="M352.312 321.364L351.198 321.993L355.949 330.402L357.063 329.773L352.312 321.364Z" fill="black"/>
<path d="M376.262 326.805L367.628 332.3L368.315 333.379L376.948 327.884L376.262 326.805Z" fill="black"/>
<path d="M339.403 328.17L338.966 329.372L350.39 333.518L350.826 332.315L339.403 328.17Z" fill="black"/>
<path d="M369.531 339.123L369.348 340.389L381.862 342.201L382.046 340.935L369.531 339.123Z" fill="black"/>
<path d="M357.573 344.158L349.616 350.725L350.43 351.712L358.387 345.145L357.573 344.158Z" fill="black"/>
<path d="M355.198 337.912L337.299 340.384L337.474 341.651L355.373 339.18L355.198 337.912Z" fill="black"/>
<path d="M352.343 411.143L351.218 410.529C361.727 391.277 384.528 373.56 384.759 373.381L385.539 374.392C385.322 374.577 362.724 392.128 352.343 411.143Z" fill="black"/>
<path d="M329.989 406.122C315.969 386.173 304.623 378.856 297.114 374.014C296.231 373.445 295.393 372.908 294.613 372.383L295.323 371.321C296.097 371.839 296.928 372.377 297.811 372.94C305.403 377.833 316.877 385.233 331.038 405.387L329.989 406.122Z" fill="black"/>
<path d="M215.538 415.672L214.291 415.397C215.666 409.148 215.551 406.449 215.218 405.291C214.822 403.922 214.182 403.123 213.312 402.924C212.155 402.656 210.537 403.468 209.097 405.042C207.761 406.506 206.091 407.05 204.627 406.487C203.155 405.924 202.228 404.389 202.209 402.477C202.113 392.512 200.175 384.728 196.28 378.671C195.173 376.95 193.542 375.92 192.225 376.112C191.393 376.234 190.792 376.841 190.491 377.877C190.21 378.831 188.995 381.888 184.991 381.114C180.859 380.314 177.194 373.586 175.224 369.972C174.93 369.435 174.693 368.993 174.508 368.68C173.196 366.461 171.476 365.54 169.531 366.006C165.956 366.863 162.54 371.961 162.227 376.912C162.093 379.048 162.144 381.798 162.368 384.267L161.095 384.382C160.865 381.849 160.814 379.029 160.954 376.829C161.306 371.277 165.099 365.751 169.237 364.759C171.744 364.158 174.009 365.316 175.614 368.028C175.806 368.354 176.055 368.808 176.356 369.364C178.089 372.55 181.703 379.182 185.246 379.867C187.997 380.398 188.95 378.626 189.276 377.526C189.724 375.997 190.715 375.044 192.058 374.852C193.888 374.584 195.973 375.818 197.367 377.986C201.397 384.248 203.399 392.256 203.501 402.47C203.514 403.846 204.128 404.926 205.093 405.297C206.059 405.668 207.179 405.265 208.164 404.184C209.942 402.234 211.982 401.3 213.613 401.684C214.54 401.901 215.794 402.643 216.459 404.939C216.99 406.826 216.683 410.44 215.538 415.672Z" fill="black"/>
<path d="M196.056 429.526C195.416 405.643 186.487 387.939 186.398 387.76L187.536 387.178C187.626 387.357 196.689 405.304 197.335 429.494L196.056 429.526Z" fill="black"/>
<path d="M215.717 435.033C215.468 435.033 215.225 435.033 214.969 435.027L214.988 433.747C222.484 433.869 228.049 432.199 230.601 429.046C232.027 427.287 232.462 425.119 231.887 422.605C231.196 419.58 229.2 417.38 226.117 416.248C220.502 414.182 212.008 415.979 205.925 420.52C198.633 425.963 194.45 434.668 194.412 434.758L193.254 434.208C193.427 433.837 197.616 425.125 205.157 419.497C211.669 414.636 220.47 412.807 226.559 415.052C230.07 416.344 232.341 418.857 233.134 422.33C233.793 425.209 233.255 427.812 231.592 429.865C228.887 433.204 223.258 435.033 215.717 435.033Z" fill="black"/>
<path d="M193.197 434.546C191.924 422.746 188.828 415.333 186.449 411.188C183.884 406.711 181.588 404.99 181.562 404.971C180.91 404.504 180.379 404.299 180.066 404.395C179.644 404.53 179.362 405.329 179.113 406.026C178.806 406.903 178.512 407.728 177.782 408.016C177.386 408.169 176.951 408.124 176.49 407.875C175.448 407.318 175.077 406.161 174.527 404.402C173.542 401.287 171.898 396.074 164.901 388.38C162.976 386.263 156.234 379.464 150.452 380.947C148.923 381.338 147.83 382.329 147.529 383.589C147.203 384.932 145.994 385.802 144.644 385.649C142.726 385.431 137.948 385.194 135.089 387.548C133.733 388.668 132.965 390.254 132.805 392.269C132.268 399.023 140.96 402.022 147.951 404.434C151.431 405.63 154.43 406.666 155.684 408.009C156.298 408.662 156.33 409.308 156.247 409.73C155.914 411.476 152.998 412.864 150.657 413.977C149.819 414.373 149.032 414.751 148.68 415.007C147.631 415.768 146.563 417.162 147.017 418.595C147.363 419.708 149.218 422.324 158.844 422.515C167.51 422.695 172.717 425.797 175.557 428.368C178.665 431.182 179.688 433.945 179.733 434.06L178.531 434.495C178.492 434.393 174.546 424.108 158.818 423.788C149.237 423.59 146.448 421.057 145.796 418.966C145.258 417.252 146.096 415.282 147.932 413.958C148.38 413.638 149.141 413.273 150.113 412.813C151.859 411.981 154.789 410.587 154.993 409.48C155.019 409.346 155.012 409.154 154.75 408.873C153.714 407.76 150.714 406.73 147.535 405.63C140.519 403.212 130.912 399.899 131.533 392.153C131.724 389.78 132.645 387.9 134.276 386.55C137.398 383.973 142.201 384.075 144.785 384.363C145.482 384.446 146.116 383.986 146.288 383.276C146.704 381.542 148.143 380.206 150.139 379.694C152.23 379.157 157.967 378.843 165.847 387.503C173.037 395.409 174.738 400.788 175.748 404.005C176.222 405.508 176.51 406.423 177.098 406.73C177.245 406.807 177.316 406.813 177.328 406.807C177.514 406.736 177.776 405.988 177.917 405.585C178.262 404.6 178.659 403.481 179.695 403.155C180.43 402.924 181.287 403.174 182.324 403.916C182.72 404.204 191.975 411.188 194.476 434.387L193.197 434.546Z" fill="black"/>
<path d="M198.915 434.95L198.045 434.016C208.752 424.038 220.796 420.898 220.917 420.866L221.231 422.106C221.116 422.132 209.373 425.202 198.915 434.95Z" fill="black"/>
<path d="M184.134 434.387C184.114 414.438 152.192 393.785 151.872 393.58L152.563 392.499C152.646 392.55 160.845 397.827 168.93 405.553C179.861 415.992 185.406 425.695 185.413 434.387H184.134Z" fill="black"/>
<path d="M768.65 161.608H622.974C620.23 161.608 617.946 160.616 616.373 158.742C614.998 157.105 614.237 154.873 614.237 152.449C614.237 147.613 617.409 142.477 623.293 142.477H633.706C634.749 142.477 635.503 142.189 636.015 141.601C637.716 139.65 636.987 134.424 636.073 127.805C635.817 125.975 635.555 124.082 635.318 122.074L635.273 121.709C634.352 114.027 632.44 98.0437 648.667 92.2233C654.928 89.9783 658.03 89.1148 663.665 87.5605C665.13 87.1576 666.767 86.7035 668.686 86.1598C673.707 84.7463 677.391 84.7079 680.64 86.0383C684.6 87.6565 687.817 91.3918 690.465 97.4489C693.995 105.527 696.918 108.015 701.626 106.947C733.011 99.8154 738.02 112.659 742.861 125.08C743.162 125.847 743.456 126.609 743.763 127.37C746.91 135.218 750.735 142.477 757.348 142.477H768.33C774.464 142.477 777.669 147.377 777.669 152.212C777.669 156.74 774.848 161.608 768.65 161.608ZM623.293 143.763C618.189 143.763 615.516 148.138 615.516 152.455C615.516 154.572 616.168 156.516 617.351 157.924C618.675 159.497 620.62 160.335 622.974 160.335H768.65C773.972 160.335 776.389 156.126 776.389 152.218C776.389 148.144 773.869 143.763 768.33 143.763H757.348C749.967 143.763 745.887 136.113 742.573 127.849C742.266 127.088 741.966 126.321 741.665 125.553C739.344 119.598 736.939 113.433 731.432 109.768C725.208 105.617 715.544 105.105 701.901 108.207C695.735 109.608 692.499 105.329 689.282 97.9733C684.024 85.9487 677.378 85.0533 669.025 87.407C667.106 87.9443 665.463 88.4048 663.998 88.8078C658.216 90.4068 655.312 91.2127 649.089 93.4449C633.821 98.92 635.651 114.219 636.533 121.575L636.578 121.939C636.815 123.935 637.077 125.822 637.326 127.651C638.324 134.859 639.047 140.072 636.968 142.458C636.207 143.328 635.107 143.769 633.693 143.769H623.293V143.763Z" fill="black"/>
<path d="M344.828 175.474H227.588C225.363 175.474 223.508 174.79 222.216 173.504C221.064 172.353 220.431 170.779 220.431 169.072C220.431 165.701 223.028 162.119 227.844 162.119H236.223C237.125 162.119 237.752 161.895 238.135 161.441C239.268 160.111 238.679 156.561 238.001 152.448C237.796 151.207 237.585 149.928 237.394 148.566L237.362 148.316C236.613 143.052 235.059 132.109 248.254 128.124C253.301 126.602 255.801 126.02 260.336 124.964C261.513 124.689 262.831 124.382 264.366 124.018C270.659 122.527 277.158 122.432 281.993 131.738C284.462 136.477 286.605 138.895 290.877 138.076C316.193 133.241 320.248 141.984 324.169 150.44C324.412 150.958 324.649 151.476 324.892 151.988C327.399 157.252 330.45 162.119 335.727 162.119H344.559C349.574 162.119 352.203 165.535 352.203 168.912C352.216 172.071 349.907 175.474 344.828 175.474ZM227.851 163.398C223.827 163.398 221.717 166.251 221.717 169.072C221.717 170.434 222.216 171.688 223.124 172.596C224.166 173.638 225.714 174.195 227.588 174.195H344.828C349.024 174.195 350.936 171.457 350.936 168.912C350.936 166.257 348.947 163.398 344.572 163.398H335.739C329.753 163.398 326.439 158.179 323.747 152.538C323.504 152.02 323.261 151.502 323.018 150.984C319.129 142.605 315.464 134.686 291.12 139.336C286.112 140.296 283.484 137.366 280.861 132.326C276.672 124.274 271.35 123.679 264.66 125.259C263.118 125.623 261.801 125.93 260.624 126.205C255.968 127.293 253.627 127.836 248.619 129.346C236.472 133.011 237.873 142.848 238.622 148.131L238.66 148.38C238.852 149.73 239.063 151.003 239.261 152.237C240.048 157.021 240.617 160.482 239.108 162.266C238.468 163.015 237.496 163.398 236.217 163.398H227.851Z" fill="black"/>
<path d="M339.967 413.836C338.97 408.643 337.972 400.942 337.965 400.865L339.232 400.699C339.238 400.776 340.23 408.438 341.221 413.593L339.967 413.836Z" fill="black"/>
<path d="M922.002 433.747H138.3V435.026H922.002V433.747Z" fill="black"/>
<path d="M345.423 433.774H557.28V346.8C557.28 346.8 397.199 400.284 343.684 416.939C332.446 420.438 332.247 433.774 345.423 433.774Z" fill="#EC8C92"/>
<path d="M822.486 384.901L867.207 414.905C873.693 414.905 878.266 408.548 876.194 402.401L841.911 300.441C838.067 288.999 825.601 282.916 814.216 286.914L726.264 317.813C632.67 354.789 715.039 411.784 730.568 405.701L800.797 378.205C808.703 375.115 817.702 377.891 822.486 384.901Z" fill="#EC8C92"/>
<path d="M841.917 300.435C838.073 288.992 825.607 282.909 814.222 286.907L741.301 312.53C750.908 327.061 762.472 363.129 767.365 391.297L800.803 378.204C808.709 375.109 817.702 377.885 822.492 384.895L846.036 404.965C847.904 407.377 867.214 414.899 867.214 414.899C873.699 414.899 878.272 408.541 876.2 402.394L841.917 300.435Z" fill="#FFC900"/>
<path d="M511.439 335.613L611.25 414.432L603.146 433.774H662.105C667.337 433.774 673.068 433.774 677.136 433.774H695.147C717.201 433.774 735.078 415.897 735.078 393.843V289.037C735.078 246.542 702.464 240.312 671.725 228.243L511.439 318.03V335.613Z" fill="#274D76"/>
<path d="M417.424 428.196H416.145C416.145 424.8 417.373 421.519 419.598 418.954L426.455 411.067L427.421 411.905L420.564 419.792C418.543 422.12 417.424 425.107 417.424 428.196Z" fill="black"/>
<path d="M396.675 428.196H395.396C395.396 425.26 396.01 421.256 398.933 418.877C403.839 414.879 416.036 405.349 416.157 405.253L416.944 406.264C416.823 406.36 404.632 415.883 399.739 419.875C397.206 421.934 396.675 425.535 396.675 428.196Z" fill="black"/>
<path d="M369.581 428.196H368.302C368.302 424.838 368.302 420.668 375.37 417.144C382.13 413.78 399.931 405.26 400.11 405.177L400.66 406.328C400.481 406.411 382.693 414.925 375.939 418.289C369.581 421.455 369.581 425.037 369.581 428.196Z" fill="black"/>
<path d="M876.2 402.394L869.164 381.473L866.888 374.699L862.96 363.02L860.184 354.769L841.911 300.428C838.47 290.188 828.121 284.246 817.823 285.98L842.058 350.791C833.34 349.39 823.369 348.546 813.097 349.166C808.6 326.71 800.778 306.805 794.817 293.719L783.847 297.576C791.727 314.807 803.554 345.514 805.025 377.117C809.073 376.573 813.161 377.418 816.634 379.452C816.461 373.087 815.904 366.775 815.041 360.596C823.381 360.199 831.562 360.871 838.892 361.984C843.721 362.719 847.763 366.039 849.471 370.619L850.667 373.81C837.223 377.789 828.856 383.014 824.053 386.916L831.089 395.998C832.694 394.668 834.978 393.011 838.099 391.271C841.534 389.359 846.35 387.165 852.797 385.182C853.865 384.856 855.01 385.413 855.4 386.462L856.615 389.711C859.378 397.098 853.916 404.965 846.03 404.965L867.207 414.899C873.693 414.899 878.266 408.541 876.2 402.394Z" fill="#274D76"/>
<path d="M838.853 403.776L859.142 429.955C861.009 432.366 863.894 433.78 866.945 433.78H883.575C890.06 433.78 894.633 427.416 892.561 421.275L858.278 319.316C854.434 307.873 841.968 301.791 830.583 305.788L742.631 336.688C738.941 337.986 735.071 335.242 735.071 331.334V266.804C735.071 243.164 716.267 223.458 692.627 223.151C668.61 222.838 649.038 242.218 649.038 266.165V403.501C649.038 420.22 662.591 433.78 679.317 433.78H698.211C714.885 433.78 731.412 430.658 746.936 424.582L817.164 397.086C825.07 393.99 834.069 396.759 838.853 403.776Z" fill="#274D76"/>
<path d="M468.029 383.762L447.556 380.526C442.004 379.65 436.612 382.861 434.744 388.163L429.052 404.307C428.988 404.492 428.93 404.678 428.873 404.863C427.357 410.255 431.661 415.544 437.258 415.519L459.996 415.41L468.029 383.762Z" fill="#F2BDBA"/>
<path d="M858.285 319.31C854.441 307.867 841.975 301.784 830.59 305.782L742.638 336.681C739.657 337.73 736.561 336.138 735.481 333.426L725.931 350.286L667.337 431.298C671.015 432.884 675.063 433.767 679.317 433.767H698.211C714.885 433.767 731.413 430.646 746.936 424.57L817.165 397.073C825.07 393.977 834.063 396.753 838.854 403.763L859.142 429.942C861.01 432.354 863.894 433.767 866.945 433.767H883.575C890.061 433.767 894.634 427.403 892.561 421.263L858.285 319.31Z" fill="#F2BDBA"/>
<path d="M604.739 270.655L604.233 270.559C584.7 266.837 565.844 279.661 562.122 299.194L550.257 364.172C549.144 370.018 544.577 374.591 538.731 375.71C538.731 375.71 460.136 388.848 447.434 390.197C438.14 391.182 436.343 399.574 441.562 406.936C437.763 409.98 438.678 420.323 445.074 423.163C441.895 429.348 446.174 436.569 451.866 438.942C447.025 446.118 457.169 455.648 469.053 454.171C497.931 450.583 561.763 442.754 593.744 437.791C604.112 436.179 611.678 426.674 613.68 416.146L633.374 312.767C637.096 293.233 624.278 274.378 604.739 270.655Z" fill="#F2BDBA"/>
<path d="M693.612 336.86C692.16 336.86 690.715 336.515 689.391 335.824L673.708 327.618C668.533 324.913 665.316 319.597 665.316 313.758V275.388C665.316 271.218 668.712 267.821 672.882 267.821H714.342C718.512 267.821 721.908 271.218 721.908 275.388V313.758C721.908 319.597 718.691 324.913 713.517 327.618L697.827 335.824C696.509 336.515 695.058 336.86 693.612 336.86ZM672.882 269.094C669.416 269.094 666.595 271.915 666.595 275.381V313.751C666.595 319.118 669.55 323.992 674.302 326.48L689.985 334.686C692.256 335.875 694.968 335.875 697.239 334.686L712.928 326.48C717.68 323.992 720.635 319.118 720.635 313.751V275.381C720.635 271.915 717.815 269.094 714.348 269.094H672.882Z" fill="white"/>
<path d="M693.804 302.008C692.154 302.008 690.612 301.196 689.685 299.84C685.764 294.115 679.285 290.7 672.358 290.7H665.316V275.388C665.316 271.218 668.712 267.821 672.882 267.821H714.342C718.512 267.821 721.908 271.218 721.908 275.388V290.7H715.25C708.323 290.7 701.844 294.115 697.923 299.84C696.989 301.196 695.448 302.008 693.804 302.008ZM666.589 289.414H672.352C679.701 289.414 686.57 293.041 690.734 299.111C691.437 300.134 692.55 300.723 693.798 300.723C695.045 300.723 696.158 300.134 696.861 299.111C701.019 293.041 707.894 289.414 715.244 289.414H720.623V275.381C720.623 271.915 717.802 269.094 714.335 269.094H672.876C669.409 269.094 666.589 271.915 666.589 275.381V289.414Z" fill="white"/>
<path d="M693.638 295.203C691.009 295.203 688.879 293.073 688.879 290.444C688.879 287.815 691.009 285.686 693.638 285.686C696.266 285.686 698.396 287.815 698.396 290.444C698.396 293.067 696.266 295.203 693.638 295.203Z" fill="#FDFDFF"/>
<path d="M703.187 333.138L701.933 332.895C703.34 325.699 704.178 315.562 704.178 305.776C704.178 301.669 704.031 297.614 703.75 293.719L705.022 293.623C705.31 297.55 705.457 301.637 705.457 305.776C705.451 315.632 704.6 325.859 703.187 333.138Z" fill="white"/>
<path d="M685.393 333.848C683.884 326.441 682.982 315.945 682.982 305.769C682.982 301.88 683.11 298.03 683.365 294.32L684.645 294.41C684.389 298.087 684.261 301.912 684.261 305.775C684.261 315.875 685.15 326.275 686.647 333.598L685.393 333.848Z" fill="white"/>
<path d="M858.285 319.31C854.441 307.867 841.975 301.784 830.59 305.782L745.797 335.575C758.442 352.761 771.938 390.312 775.085 413.556L817.171 397.079C825.077 393.984 834.069 396.76 838.86 403.77L859.148 429.949C861.016 432.36 863.901 433.774 866.952 433.774H883.581C890.067 433.774 894.64 427.409 892.568 421.269L858.285 319.31Z" fill="#FFC900"/>
<path d="M892.568 421.269L885.532 400.348L883.255 393.574L879.328 381.895L876.552 373.644L858.279 319.303C854.837 309.063 844.489 303.121 834.191 304.855L858.426 369.666C849.708 368.265 839.736 367.421 829.464 368.041C824.968 345.585 817.145 325.68 811.184 312.594L800.215 316.451C808.095 333.682 819.921 364.389 821.393 395.992C825.441 395.448 829.528 396.293 833.001 398.327C832.829 391.963 832.272 385.65 831.409 379.471C839.749 379.075 847.93 379.746 855.26 380.859C860.089 381.595 864.131 384.914 865.839 389.494L867.035 392.685C853.59 396.664 845.224 401.889 840.421 405.791L847.456 414.873C849.062 413.543 851.345 411.886 854.467 410.153C857.901 408.241 862.717 406.047 869.165 404.064C870.233 403.738 871.378 404.294 871.768 405.343L872.983 408.592C875.746 415.98 870.284 423.847 862.398 423.847H854.409L859.142 429.955C861.01 432.366 863.894 433.78 866.945 433.78H883.575C890.061 433.774 894.634 427.416 892.568 421.269Z" fill="#274D76"/>
<path d="M443.353 406.817L443.038 408.056L456.236 411.412L456.551 410.172L443.353 406.817Z" fill="black"/>
<path d="M448.161 424.143L447.845 425.383L459.975 428.471L460.291 427.231L448.161 424.143Z" fill="black"/>
<path d="M454.262 439.657L453.922 440.891L463.579 443.551L463.918 442.318L454.262 439.657Z" fill="black"/>
<path d="M821.516 308.349L743.431 335.749L743.854 336.956L821.939 309.556L821.516 308.349Z" fill="black"/>
<path d="M739.9 336.943C737.515 336.579 735.513 334.686 735.148 332.166L649.044 373.778V403.501C649.044 419.9 662.086 433.249 678.364 433.754L739.9 336.943Z" fill="#93B4F6"/>
<path d="M462.67 392.493C459.606 392.582 456.389 391.828 455.902 388.969C455.116 384.402 454.016 370.605 454.016 370.605L463.571 367.945L469.302 386.308C470.031 390.484 467.019 392.371 462.67 392.493Z" fill="black"/>
<path d="M474.259 333.112C469.596 314.704 458.813 301.554 450.159 303.748L435.403 307.483C444.051 305.296 454.841 318.44 459.503 336.848C464.166 355.255 460.93 371.956 452.276 374.143L467.032 370.408C475.685 368.22 478.922 351.52 474.259 333.112Z" fill="black"/>
<path d="M452.264 374.13C460.914 371.94 464.149 355.244 459.49 336.838C454.83 318.432 444.041 305.286 435.391 307.476C426.741 309.666 423.506 326.362 428.166 344.768C432.825 363.173 443.614 376.319 452.264 374.13Z" fill="#274D76"/>
<path d="M445.925 311.25C441.799 316.943 440.833 328.718 444.044 341.408C447.146 353.669 453.274 363.321 459.401 366.711C462.228 359.688 462.484 348.623 459.503 336.847C456.644 325.558 451.483 316.259 445.925 311.25Z" fill="#74BAAB"/>
<path d="M449.404 370.101C441.933 366.826 435.838 357.795 432.685 345.322C428.54 328.936 430.779 314.698 438.128 310.688L438.742 311.813C432.007 315.485 429.986 329.447 433.926 345.015C436.983 357.098 442.816 365.815 449.916 368.93L449.404 370.101Z" fill="#FAFCFC"/>
<path d="M539.435 347.12C537.606 340.455 534.906 329.601 532.553 319.943C536.141 319.034 538.808 315.792 538.808 311.922C538.808 307.349 535.098 303.639 530.525 303.639H528.626C528.018 301.081 527.653 299.546 527.653 299.546H482.683V354.302C482.683 364.619 491.042 372.979 501.359 372.979H518.513C530.455 372.979 543.17 360.756 539.435 347.12Z" fill="#F2BDBA"/>
<path d="M493.345 256.666C493.345 256.666 489.156 239.186 489.629 231.012C490.064 223.42 497.957 218.783 504.11 220.33C511.459 222.185 509.386 232.054 513.761 234.683C519.537 238.15 525.888 231.99 534.177 236.033C544.565 241.098 540.49 258.745 511.331 264.316C506.911 265.16 502.331 264.572 498.257 262.66C498.238 262.653 498.232 262.647 498.232 262.647C495.577 261.591 493.742 259.34 493.345 256.666Z" fill="#274D76"/>
<path d="M473.364 301.861C484.454 306.172 510.403 313.291 544.955 303.639C547.622 302.897 548.044 299.29 545.62 297.953C530.647 289.696 514.541 281.093 509.719 278.522C508.817 278.042 507.736 278.042 506.834 278.515L473.057 296.258C470.716 297.486 470.901 300.902 473.364 301.861Z" fill="#FFF3A1"/>
<path d="M531.165 289.497C531.209 287.764 531.12 285.091 531.03 284.259C529.77 272.535 519.844 263.408 507.781 263.408C494.867 263.408 484.397 273.878 484.397 286.792V289.497C496.012 293.38 518.756 294.979 531.165 289.497Z" fill="#93B4F6"/>
<path d="M507.781 263.408C497.937 263.408 489.52 269.491 486.073 278.1C497.553 281.438 517.464 282.698 529.54 278.228C526.125 269.554 517.669 263.408 507.781 263.408Z" fill="#FFF3A1"/>
<path d="M486.872 254.275C480.821 249.407 478.276 243.759 477.208 239.883C476.05 235.668 476.325 232.63 476.338 232.502L477.611 232.624C477.598 232.739 476.638 244.405 487.678 253.277L486.872 254.275Z" fill="#274D76"/>
<path d="M487.345 252.649C481.781 241.194 483.488 231.562 483.565 231.159L484.825 231.395C484.806 231.491 483.13 241.034 488.503 252.093L487.345 252.649Z" fill="#274D76"/>
<path d="M486.61 249.599C488.158 249.176 489.75 250.11 490.147 251.665L490.626 253.577C490.818 254.325 491.304 254.971 491.97 255.361L499.069 259.468C502.05 261.188 509.987 267.687 507.237 269.759C506.322 270.482 505.101 270.68 504.007 270.296C500.886 269.19 498.89 268.467 496.735 267.719C493.729 266.67 491.196 264.578 489.584 261.834L484.934 253.897C483.911 252.253 484.755 250.104 486.61 249.599Z" fill="#274D76"/>
<path d="M495.392 255.368C495.392 255.368 496.94 237.938 499.856 230.538C502.568 223.662 511.12 221.808 516.211 225.134C522.294 229.106 517.401 237.58 520.56 241.354C524.724 246.336 532.355 242.595 538.616 248.882C546.458 256.749 537.407 271.78 509.374 267.974C505.088 267.399 494.899 261.604 495.392 255.368Z" fill="white"/>
<path d="M508.248 333.579L507.32 332.703C507.487 332.524 511.491 328.386 518.673 330.362L518.334 331.597C511.925 329.838 508.395 333.426 508.248 333.579Z" fill="black"/>
<path d="M520.643 322.706C520.119 322.661 517.541 322.411 515.053 322.143C510.473 321.657 509.795 321.58 509.706 321.139C509.623 321.043 509.552 320.927 509.501 320.806C509.329 320.371 509.444 319.885 509.789 319.578L515.539 314.378L516.396 315.325L510.832 320.352C512.405 320.614 519.581 321.33 520.752 321.426L520.643 322.706ZM510.512 320.224L510.544 321.49C510.723 321.433 510.94 321.247 510.966 320.947C510.985 320.716 510.883 320.531 510.755 320.422L510.633 320.531C510.672 320.499 510.697 320.435 510.685 320.371C510.64 320.339 510.601 320.32 510.557 320.313C510.582 320.32 510.621 320.333 510.672 320.339C510.653 320.262 510.576 320.224 510.512 320.224C510.518 320.224 510.518 320.224 510.512 320.224Z" fill="black"/>
<path d="M493.722 327.061C491.56 327.061 489.808 325.302 489.808 323.147V320.09C489.808 317.928 491.567 316.175 493.722 316.175C495.884 316.175 497.637 317.934 497.637 320.09V323.147C497.637 325.309 495.884 327.061 493.722 327.061ZM493.722 317.448C492.27 317.448 491.087 318.631 491.087 320.083V323.141C491.087 324.593 492.27 325.776 493.722 325.776C495.174 325.776 496.357 324.593 496.357 323.141V320.083C496.357 318.631 495.174 317.448 493.722 317.448Z" fill="black"/>
<path d="M489.789 342.303H488.51V359.598H489.789V342.303Z" fill="black"/>
<path d="M499.607 345.962H498.328V365.572H499.607V345.962Z" fill="black"/>
<path d="M510.372 344.453L509.093 344.472L509.475 369.485L510.754 369.465L510.372 344.453Z" fill="black"/>
<path d="M521.109 342.288L519.83 342.331L520.628 366.072L521.907 366.029L521.109 342.288Z" fill="black"/>
<path d="M529.385 334.713L528.116 334.87L530.959 357.848L532.228 357.691L529.385 334.713Z" fill="black"/>
<path d="M604.739 270.655L604.233 270.559C584.7 266.837 565.844 279.661 562.122 299.194L550.257 361.486C550.071 362.445 549.585 363.871 548.984 365.259C558.111 372.468 603.587 407.371 613.853 415.27L633.38 312.76C637.096 293.233 624.278 274.378 604.739 270.655Z" fill="#93B4F6"/>
<path d="M712.77 348.362L657.223 382.403L657.891 383.494L713.438 349.453L712.77 348.362Z" fill="black"/>
<path d="M704.007 363.386L655.369 408.214L656.236 409.155L704.874 364.326L704.007 363.386Z" fill="black"/>
<path d="M714.498 363.296L681.77 409.17L682.812 409.913L715.539 364.039L714.498 363.296Z" fill="black"/>
<path d="M561.562 360.534L560.846 361.593L604.092 390.819L604.808 389.759L561.562 360.534Z" fill="black"/>
<path d="M562.293 347.017L561.615 348.101L597.251 370.385L597.929 369.3L562.293 347.017Z" fill="black"/>
<path d="M591.831 355.702L591.195 356.812L608.929 366.967L609.565 365.857L591.831 355.702Z" fill="black"/>
<path d="M649.684 286.639H648.405V398.557H649.684V286.639Z" fill="black"/>
<path d="M509.252 293.68C501.116 293.68 492.903 292.612 486.75 290.988L487.077 289.753C497.72 292.561 514.612 293.687 526.317 290.393L526.662 291.627C521.526 293.066 515.411 293.68 509.252 293.68Z" fill="black"/>
<path d="M439.33 417.169C438.057 413.165 438.652 408.956 440.725 406.846C438.013 402.771 437.303 398.364 438.838 394.962C440.213 391.924 443.238 390.005 447.37 389.57L447.504 390.843C443.846 391.233 441.179 392.883 440.002 395.493C438.595 398.607 439.375 402.752 442.087 406.577L442.439 407.069L441.965 407.447C439.976 409.046 439.362 413.056 440.552 416.791L439.33 417.169Z" fill="black"/>
<path d="M554.05 346.979L552.79 346.749L561.495 299.079C565.275 279.225 584.501 266.152 604.355 269.932L604.86 270.028C613.124 271.601 620.377 275.804 625.833 282.18L624.861 283.012C619.597 276.859 612.593 272.804 604.617 271.282L604.112 271.186C594.831 269.42 585.416 271.371 577.607 276.68C569.797 281.995 564.52 290.028 562.749 299.309L554.05 346.979Z" fill="black"/>
</g>
<defs>
<clipPath id="clip0_2338_2214">
<rect width="1050" height="787.5" fill="white" transform="translate(0 -146)"/>
</clipPath>
</defs>
</svg>
