<?xml version="1.0" encoding="UTF-8"?>
<svg id="Layer_1" data-name="Layer 1" xmlns="http://www.w3.org/2000/svg" xmlns:xlink="http://www.w3.org/1999/xlink" viewBox="0 0 1920 1080">
  <defs>
    <style>
      .cls-1 {
        fill: #d8d3e3;
        font-family: GeneralSansVariable-Medium, 'General Sans Variable';
        font-size: 662.33px;
        font-variation-settings: 'wght' 500;
        font-weight: 500;
      }

      .cls-2, .cls-3 {
        fill: url(#linear-gradient);
      }

      .cls-4 {
        clip-path: url(#clippath);
      }

      .cls-3, .cls-5, .cls-6, .cls-7, .cls-8, .cls-9, .cls-10 {
        stroke-width: 0px;
      }

      .cls-11, .cls-12, .cls-13, .cls-14, .cls-15, .cls-16, .cls-17, .cls-18, .cls-19 {
        stroke: #000;
        stroke-miterlimit: 10;
      }

      .cls-20, .cls-14 {
        fill: #ebaf51;
      }

      .cls-21, .cls-12 {
        fill: #ea8b74;
      }

      .cls-22, .cls-15, .cls-10 {
        fill: #6d16c8;
      }

      .cls-12, .cls-13, .cls-14, .cls-15, .cls-16, .cls-17, .cls-18 {
        stroke-width: 2px;
      }

      .cls-13 {
        fill: #fff;
      }

      .cls-16 {
        fill: #707276;
      }

      .cls-17 {
        fill: #35373d;
      }

      .cls-23 {
        clip-path: url(#clippath-1);
      }

      .cls-24 {
        clip-path: url(#clippath-4);
      }

      .cls-25 {
        clip-path: url(#clippath-3);
      }

      .cls-26 {
        clip-path: url(#clippath-2);
      }

      .cls-27 {
        clip-path: url(#clippath-7);
      }

      .cls-28 {
        clip-path: url(#clippath-8);
      }

      .cls-29 {
        clip-path: url(#clippath-6);
      }

      .cls-30 {
        clip-path: url(#clippath-5);
      }

      .cls-18, .cls-19 {
        fill: none;
      }

      .cls-5 {
        fill: #83593a;
      }

      .cls-6 {
        fill: #450f7e;
      }

      .cls-7 {
        fill: #906035;
      }

      .cls-8 {
        fill: #8f4d48;
      }

      .cls-9 {
        fill: #987b71;
      }
    </style>
    <clipPath id="clippath">
      <path class="cls-14" d="m1034.37,403.14c-9.44,35.67-27.87,39.36-27.87,39.36,0,0-6,19-28,21s-60-15-60-15c-1.4-.69-2.42-.41-3,1-.98-1.35-1.28-2.68-1-4-1.41.79-3.13,1.03-5,1,.8-1.41.86-2.77,0-4.09-2.68-1.13-5.11-1.67-7-.91.35-1.09.86-2.26,2-3-2.7-.45-5.37-.43-8,0,1.93-1.9,3.93-3.18,6-4,1.99-.88-13.62-6.61-19-11-4.96-4.05-3-8-3-8-2.2.51-5.2,1.49-7,3-.25-5.58.83-11.25,3-17-2.96.96-5.96,1.63-9,2,2.53-3.92,4.06-8.7,5-14-3.13,0-5.84.88-8,3,.08-6.64,5.57-13.74,13-21-3.67-.99-7.06-2.26-10-4,6.52-2.35,12.45-8.08,18-16,0,0-13-52,3-61s49,30,49,30c0,0,22-11,52,7,23.12,13.88,26.64,36.66,27.04,46.38.12,3.04,1.4,5.9,3.6,8,3.36,3.19,8.42,8.19,12.4,12.96,1.93,2.31,2.6,5.4,1.83,8.31Z"/>
    </clipPath>
    <linearGradient id="linear-gradient" x1="1011.49" y1="362.98" x2="1013.03" y2="399.4" gradientUnits="userSpaceOnUse">
      <stop offset="0" stop-color="#fff" stop-opacity="0"/>
      <stop offset=".37" stop-color="#fefefe" stop-opacity="0"/>
      <stop offset=".51" stop-color="#fefdfc" stop-opacity=".04"/>
      <stop offset=".6" stop-color="#fefcf8" stop-opacity=".08"/>
      <stop offset=".68" stop-color="#fdfaf3" stop-opacity=".15"/>
      <stop offset=".75" stop-color="#fdf7ed" stop-opacity=".24"/>
      <stop offset=".81" stop-color="#fcf3e5" stop-opacity=".35"/>
      <stop offset=".86" stop-color="#fbefdb" stop-opacity=".48"/>
      <stop offset=".91" stop-color="#f9ead0" stop-opacity=".63"/>
      <stop offset=".95" stop-color="#f8e4c4" stop-opacity=".8"/>
      <stop offset=".99" stop-color="#f7deb7" stop-opacity=".99"/>
      <stop offset=".99" stop-color="#f7deb6"/>
    </linearGradient>
    <clipPath id="clippath-1">
      <path class="cls-3" d="m1018.23,370.64s-5.74,12.41-14.83,24.8c-3.89,10.71-20.2,5.89-24.52,17.22-4.09,10.69,21.27,31.99,30.86,31.61l38.85-38.66-30.35-34.97Z"/>
    </clipPath>
    <clipPath id="clippath-2">
      <path class="cls-12" d="m931.5,329.5c.78,2-26.19,24.05-32,19-4.4-3.83,1-11,1-11,0,0-11-1-11-10s12-9,12-9c0,0-10.37-11.39-5-16,8.32-7.14,38.52,24.73,35,27Z"/>
    </clipPath>
    <clipPath id="clippath-3">
      <path class="cls-14" d="m927.5,511.38s19.7,68.07,40,76.12c28,9,70-86,69-103,0-13-6-12-6-12,0,0,2-10-2-13s-13,4-13,4c0,0-1.01-7.45-4.92-9-9.67-3.82-39.59,50.24-38.08,51l-6-11-39,16.88Z"/>
    </clipPath>
    <clipPath id="clippath-4">
      <path class="cls-14" d="m877.07,667.89l-77.57,135.61s30,19,32,37c2,16-10.73,25.71-10.73,25.71h-48.68c-14.04-6.77-31.29-20.14-49.59-35.71,0,0-16-10-8-37,5-17,27-33,27-33,14.33-16.51,45.92-74.8,75-127,3.49-3.75,5.52-9.65,6.7-16.78l48.3,37.78,5.57,13.39Z"/>
    </clipPath>
    <clipPath id="clippath-5">
      <path class="cls-14" d="m819.01,601.47c-112.51,58.03-83.51,170.03-207.74,264.73.23.29-90.45,0-90.45,0-20.75-10.57-26.32-27.15-19.32-48.71l81-35c33.55-8.01,62.51-26.92,83-66l99-127,16-2c12.81-7.6,27.01-12.74,42.3-15.98,0,0-4.3,29.98-3.79,29.95Z"/>
    </clipPath>
    <clipPath id="clippath-6">
      <path class="cls-14" d="m854.5,526.5l-27,36s-14,19-7,47c7,25,34,37.5,34,37.5,32.23,29.15,69,64.5,74,84.5s10.23,64.28,11,101c.4,14.86,1.78,29.07,17.78,33.71h88.52c9.77-3.12,15.7-8.71,14.7-27.71s-36.52-24.04-66-29l.68-61.77c.21-19.07-6.68-37.23-14.68-54.23-12.64-26.88-32.41-54.07-54-82,7.5-10.23,14.1-21.65,20-34l-92-51Z"/>
    </clipPath>
    <clipPath id="clippath-7">
      <path class="cls-12" d="m913.78,559.36s-5.28,13.14-2.28,29.14,15.72,22.01,15.72,22.01c6.88-9.13,12.89-19.96,18.28-32.01l-31.72-19.14Z"/>
    </clipPath>
    <clipPath id="clippath-8">
      <path class="cls-15" d="m948.5,581.5c-33.22-20.24-66.23-38.37-99-54,0,0,50-71,56-75s12-3,12-3l45,19,2,13,9,13c-13.8,3.48-29.16,11.55-45,21,4.62,20.62,12.56,39.48,23,57l-3,9Z"/>
    </clipPath>
  </defs>
  <text class="cls-1" transform="translate(418.28 655.69)"><tspan x="0" y="0">404</tspan></text>
  <line class="cls-13" x1="1920" y1="866.21" y2="866.21"/>
  <path class="cls-18" d="m834.5,372.5c-8.44-3.44-14.82-7.71-18.63-12.99,7.87-9.32,12.63-21.35,12.63-34.51h0c0-29.55-23.95-53.5-53.5-53.5h-250c-29.55,0-53.5,23.95-53.5,53.5h0c0,29.55,23.95,53.5,53.5,53.5h250c9.13,0,17.73-2.29,25.25-6.33,13.34,5.52,24.65,5.32,34.25.33Z"/>
  <path class="cls-17" d="m1323.18,836.52l33.1,25.16c7.82,5.95,19,4.34,24.83-3.56l54.85-74.34c5.81-7.87,4.09-18.97-3.83-24.71l-33.03-23.95"/>
  <path class="cls-17" d="m1394.66,839.76l5.8,5.18c14.84,13.25,34.02,20.58,53.91,20.61l473.37.66v-24.79l-453.67-1.58c-15.93-.06-31.5-4.72-44.83-13.44l-16.68-10.91-17.9,24.27Z"/>
  <path class="cls-14" d="m881.5,355.5c-1.37,3.32-23.72-50.82-14-59,6.84-5.76,21,3,21,3l-2,55-5,1Z"/>
  <g>
    <path class="cls-20" d="m1034.37,403.14c-9.44,35.67-27.87,39.36-27.87,39.36,0,0-6,19-28,21s-60-15-60-15c-1.4-.69-2.42-.41-3,1-.98-1.35-1.28-2.68-1-4-1.41.79-3.13,1.03-5,1,.8-1.41.86-2.77,0-4.09-2.68-1.13-5.11-1.67-7-.91.35-1.09.86-2.26,2-3-2.7-.45-5.37-.43-8,0,1.93-1.9,3.93-3.18,6-4,1.99-.88-13.62-6.61-19-11-4.96-4.05-3-8-3-8-2.2.51-5.2,1.49-7,3-.25-5.58.83-11.25,3-17-2.96.96-5.96,1.63-9,2,2.53-3.92,4.06-8.7,5-14-3.13,0-5.84.88-8,3,.08-6.64,5.57-13.74,13-21-3.67-.99-7.06-2.26-10-4,6.52-2.35,12.45-8.08,18-16,0,0-13-52,3-61s49,30,49,30c0,0,22-11,52,7,23.12,13.88,26.64,36.66,27.04,46.38.12,3.04,1.4,5.9,3.6,8,3.36,3.19,8.42,8.19,12.4,12.96,1.93,2.31,2.6,5.4,1.83,8.31Z"/>
    <g class="cls-4">
      <path class="cls-5" d="m974.5,319.5s-5,9-3,12,4,0,9,1,15.5,9.5,19,12,13,4,13,4l-12-22-26-7Z"/>
      <path class="cls-5" d="m1013,353s-4-1-5,0-2,2-1,4,2,3,4,3,4-1,4-1l-2-6Z"/>
      <g>
        <path class="cls-2" d="m1018.23,370.64s-5.74,12.41-14.83,24.8c-3.89,10.71-20.2,5.89-24.52,17.22-4.09,10.69,21.27,31.99,30.86,31.61l38.85-38.66-30.35-34.97Z"/>
        <g class="cls-23">
          <path class="cls-9" d="m993.6,437.29c14.94,8.41,23.04-3.96,39.89-15.02l-28.18,30.65-11.71-15.63Z"/>
        </g>
      </g>
    </g>
    <path class="cls-18" d="m1034.37,403.14c-9.44,35.67-27.87,39.36-27.87,39.36,0,0-6,19-28,21s-60-15-60-15c-1.4-.69-2.42-.41-3,1-.98-1.35-1.28-2.68-1-4-1.41.79-3.13,1.03-5,1,.8-1.41.86-2.77,0-4.09-2.68-1.13-5.11-1.67-7-.91.35-1.09.86-2.26,2-3-2.7-.45-5.37-.43-8,0,1.93-1.9,3.93-3.18,6-4,1.99-.88-13.62-6.61-19-11-4.96-4.05-3-8-3-8-2.2.51-5.2,1.49-7,3-.25-5.58.83-11.25,3-17-2.96.96-5.96,1.63-9,2,2.53-3.92,4.06-8.7,5-14-3.13,0-5.84.88-8,3,.08-6.64,5.57-13.74,13-21-3.67-.99-7.06-2.26-10-4,6.52-2.35,12.45-8.08,18-16,0,0-13-52,3-61s49,30,49,30c0,0,22-11,52,7,23.12,13.88,26.64,36.66,27.04,46.38.12,3.04,1.4,5.9,3.6,8,3.36,3.19,8.42,8.19,12.4,12.96,1.93,2.31,2.6,5.4,1.83,8.31Z"/>
  </g>
  <path class="cls-19" d="m1006.5,442.5c-3.73.48-5.84-.25-7-2"/>
  <g>
    <path class="cls-21" d="m931.5,329.5c.78,2-26.19,24.05-32,19-4.4-3.83,1-11,1-11,0,0-11-1-11-10s12-9,12-9c0,0-10.37-11.39-5-16,8.32-7.14,38.52,24.73,35,27Z"/>
    <g class="cls-26">
      <path class="cls-8" d="m893,339.66l9.36-2.95c-4.58,7.6.08,13.29,7.14,18.93l-16.5-6.4v-9.59Z"/>
      <path class="cls-8" d="m933.39,327.29c-15.24,12.12-29.41,21.08-32.79,16.38l1.92,12.5,30.87-28.88Z"/>
    </g>
    <path class="cls-18" d="m931.5,329.5c.78,2-26.19,24.05-32,19-4.4-3.83,1-11,1-11,0,0-11-1-11-10s12-9,12-9c0,0-10.37-11.39-5-16,8.32-7.14,38.52,24.73,35,27Z"/>
  </g>
  <ellipse class="cls-11" cx="1004.5" cy="385.5" rx="10" ry="2" transform="translate(509.96 1341.04) rotate(-83.63)"/>
  <path class="cls-18" d="m1003.39,395.44s-1.89,5.06-6.89,7.06-10,2-13,4c-9,7-3,14-3,14"/>
  <path class="cls-11" d="m1033.37,396.01h-6.48c-1.71,0-3.01,1.54-2.71,3.22.56,3.17,1.32,7.63,1.32,8.27,0,1,1.08,15.85,1.08,15.85.45.2,8.4-18.83,8.09-22.46-.26-3-1.18-4.74-1.31-4.88Z"/>
  <path class="cls-17" d="m1018.23,535.7c5.6,10.55,17.12,24.24,30.27,38.8,27.77-21.14,50.6-44.74,69.13-70.5-18.14-18.82-35.23-40.19-63.13-35.5-9.32-4.26-15.88-2.43-21.74.95l-14.54,66.25Z"/>
  <g>
    <path class="cls-20" d="m927.5,511.38s19.7,68.07,40,76.12c28,9,70-86,69-103,0-13-6-12-6-12,0,0,2-10-2-13s-13,4-13,4c0,0-1.01-7.45-4.92-9-9.67-3.82-39.59,50.24-38.08,51l-6-11-39,16.88Z"/>
    <g class="cls-25">
      <path class="cls-7" d="m935.27,546.3c37.77,57.2,65.08,18.41,104.17-49.28l-53.94,126.94-50.23-77.65Z"/>
    </g>
    <path class="cls-18" d="m927.5,511.38s19.7,68.07,40,76.12c28,9,70-86,69-103,0-13-6-12-6-12,0,0,2-10-2-13s-13,4-13,4c0,0-1.01-7.45-4.92-9-9.67-3.82-39.59,50.24-38.08,51l-6-11-39,16.88Z"/>
  </g>
  <path class="cls-18" d="m1030.5,472.5c-.67,3.31-1.33,5.64-2,7"/>
  <line class="cls-18" x1="972.5" y1="505.5" x2="968.5" y2="515.5"/>
  <g>
    <path class="cls-20" d="m877.07,667.89l-77.57,135.61s30,19,32,37c2,16-10.73,25.71-10.73,25.71h-48.68c-14.04-6.77-31.29-20.14-49.59-35.71,0,0-16-10-8-37,5-17,27-33,27-33,14.33-16.51,45.92-74.8,75-127,3.49-3.75,5.52-9.65,6.7-16.78l48.3,37.78,5.57,13.39Z"/>
    <g class="cls-24">
      <path class="cls-7" d="m804.96,637.32c36.16,10.55,63.47,21.73,81.3,47.43l4.74-40.21-68.2-52.43-17.84,45.21Z"/>
      <path class="cls-7" d="m723.18,838.51c66.88,33.89,91.18,27.29,115.17,11.4l-8.75,64.74-87.52-25.11-18.91-51.02Z"/>
    </g>
    <path class="cls-18" d="m877.07,667.89l-77.57,135.61s30,19,32,37c2,16-10.73,25.71-10.73,25.71h-48.68c-14.04-6.77-31.29-20.14-49.59-35.71,0,0-16-10-8-37,5-17,27-33,27-33,14.33-16.51,45.92-74.8,75-127,3.49-3.75,5.52-9.65,6.7-16.78l48.3,37.78,5.57,13.39Z"/>
  </g>
  <g>
    <path class="cls-20" d="m819.01,601.47c-112.51,58.03-83.51,170.03-207.74,264.73.23.29-90.45,0-90.45,0-20.75-10.57-26.32-27.15-19.32-48.71l81-35c33.55-8.01,62.51-26.92,83-66l99-127,16-2c12.81-7.6,27.01-12.74,42.3-15.98,0,0-4.3,29.98-3.79,29.95Z"/>
    <g class="cls-30">
      <path class="cls-7" d="m817.19,566.79c-4.06,14.2-2.34,26.92-1.48,46.72l16.36-9.18-4.32-47.08-10.56,9.54Z"/>
      <path class="cls-7" d="m490.4,834.96c30.42,31.24,91.25,39.92,193.14,3.8l-95.3,52.77-100.54-6.86,2.7-49.72Z"/>
    </g>
    <path class="cls-18" d="m819.01,601.47c-112.51,58.03-83.51,170.03-207.74,264.73.23.29-90.45,0-90.45,0-20.75-10.57-26.32-27.15-19.32-48.71l81-35c33.55-8.01,62.51-26.92,83-66l99-127,16-2c12.81-7.6,27.01-12.74,42.3-15.98,0,0-4.3,29.98-3.79,29.95Z"/>
  </g>
  <g>
    <path class="cls-20" d="m854.5,526.5l-27,36s-14,19-7,47c7,25,34,37.5,34,37.5,32.23,29.15,69,64.5,74,84.5s10.23,64.28,11,101c.4,14.86,1.78,29.07,17.78,33.71h88.52c9.77-3.12,15.7-8.71,14.7-27.71s-36.52-24.04-66-29l.68-61.77c.21-19.07-6.68-37.23-14.68-54.23-12.64-26.88-32.41-54.07-54-82,7.5-10.23,14.1-21.65,20-34l-92-51Z"/>
    <g class="cls-29">
      <path class="cls-7" d="m919.46,827.73c21.44,26.97,59.72,39.5,109.35,42.3l-101.63,13.33-7.72-55.63Z"/>
    </g>
    <path class="cls-18" d="m854.5,526.5l-27,36s-14,19-7,47c7,25,34,37.5,34,37.5,32.23,29.15,69,64.5,74,84.5s10.23,64.28,11,101c.4,14.86,1.78,29.07,17.78,33.71h88.52c9.77-3.12,15.7-8.71,14.7-27.71s-36.52-24.04-66-29l.68-61.77c.21-19.07-6.68-37.23-14.68-54.23-12.64-26.88-32.41-54.07-54-82,7.5-10.23,14.1-21.65,20-34l-92-51Z"/>
  </g>
  <g>
    <path class="cls-21" d="m913.78,559.36s-5.28,13.14-2.28,29.14,15.72,22.01,15.72,22.01c6.88-9.13,12.89-19.96,18.28-32.01l-31.72-19.14Z"/>
    <g class="cls-27">
      <path class="cls-8" d="m938.31,609.21c-23.74.06-27.16-30.91-32.09-59.58l-1.35,69.69,33.43-10.12Z"/>
    </g>
    <path class="cls-18" d="m913.78,559.36s-5.28,13.14-2.28,29.14,15.72,22.01,15.72,22.01c6.88-9.13,12.89-19.96,18.28-32.01l-31.72-19.14Z"/>
  </g>
  <path class="cls-10" d="m948.5,581.5c-33.22-20.24-66.23-38.37-99-54,0,0,50-71,56-75s12-3,12-3l45,19,2,13,9,13c-13.8,3.48-29.16,11.55-45,21,4.62,20.62,12.56,39.48,23,57l-3,9Z"/>
  <g>
    <path class="cls-22" d="m948.5,581.5c-33.22-20.24-66.23-38.37-99-54,0,0,50-71,56-75s12-3,12-3l45,19,2,13,9,13c-13.8,3.48-29.16,11.55-45,21,4.62,20.62,12.56,39.48,23,57l-3,9Z"/>
    <g class="cls-28">
      <path class="cls-6" d="m908.14,557.91c48.61,23.59,38.17,16.11,27.64-21.93l36.72,83.34-64.36-61.41Z"/>
    </g>
    <path class="cls-18" d="m948.5,581.5c-33.22-20.24-66.23-38.37-99-54,0,0,50-71,56-75s12-3,12-3l45,19,2,13,9,13c-13.8,3.48-29.16,11.55-45,21,4.62,20.62,12.56,39.48,23,57l-3,9Z"/>
  </g>
  <path class="cls-18" d="m928.5,515.5l-2,2-4-27"/>
  <polyline class="cls-19" points="1009.48 454.31 1015.5 451.5 1013.71 457.74"/>
  <polyline class="cls-19" points="1024.64 458.89 1028.13 454.62 1030.68 463.55"/>
  <polyline class="cls-19" points="1033.3 473.45 1032.5 467.5 1030.68 471.4"/>
  <path class="cls-17" d="m-3.5,842.5l353-2c386-51,426-462,643-370.03,0,.03-12,19.03-12.13,19.19-173.87-78.17-257.87,340.83-632.76,376.54-.12.29-351.12,0-351.12,0v-23.71Z"/>
  <path class="cls-16" d="m1062.03,563.68l18.47,19.82s4,4,8,1,1-7,1-7l-18.63-21.5-8.84,7.68Z"/>
  <path class="cls-16" d="m1101.9,524.11l17.6,19.39s4,3,7,0,0-6.87,0-6.87l-18.57-19.85-6.03,7.32Z"/>
  <path class="cls-5" d="m911,367c-3,0-4,3-4,4s0,4,3,5c3,0,4-2,4-4s0-5-3-5Z"/>
  <path class="cls-5" d="m925,370c-3.78.54-3.71,5.83-3.35,8.88.16,1.36.17,2.72-.02,4.07-.35,2.45-.51,6.5,1.87,7.94,3.5,2.11,8.5-.89,9.5-2.89.58-1.16-.18-3.33-.93-4.94-.64-1.38-.98-2.87-1.03-4.39-.11-3.44-1.02-9.38-6.04-8.67Z"/>
  <path class="cls-5" d="m936,387c-2,1-2,5,1,7s4,2,6,0,1-4-1-6-4-2-6-1Z"/>
  <path class="cls-5" d="m893,392c-3,0-4,0-4,6s2,7.11,4,7.55,4-1.55,4-6.55-1-7-4-7Z"/>
  <ellipse class="cls-5" cx="909.5" cy="433" rx="3.5" ry="4" transform="translate(-39.79 769.94) rotate(-45)"/>
  <ellipse class="cls-5" cx="948.5" cy="553" rx="3.5" ry="4" transform="translate(-113.22 832.66) rotate(-45)"/>
  <ellipse class="cls-5" cx="988.25" cy="546.3" rx="4.77" ry="4.17" transform="translate(343.61 1473.41) rotate(-84.12)"/>
  <ellipse class="cls-5" cx="999.18" cy="522" rx="4.07" ry="4.17" transform="translate(377.59 1462.47) rotate(-84.12)"/>
  <path class="cls-5" d="m1024.15,504.19c-1.15,3.81-3.93,4.35-6.05,3.43s-3.11-2.61-1.61-6.76c1.41-3.89,3.93-4.35,6.05-3.43s2.76,2.95,1.61,6.76Z"/>
  <path class="cls-5" d="m964,540c-3.83,1.12-5.75-1.29-6.14-3.57s.84-3.43,5.14-4.43c4.02-.94,5.44.31,5.82,2.58s-1,4.3-4.82,5.42Z"/>
  <ellipse class="cls-5" cx="953.5" cy="410" rx="3.5" ry="4" transform="translate(-13.56 33.09) rotate(-1.97)"/>
  <ellipse class="cls-5" cx="944.8" cy="426.87" rx="4.35" ry="4.97" transform="translate(277.64 1220.44) rotate(-74.26)"/>
  <ellipse class="cls-5" cx="904.62" cy="422.58" rx="3.35" ry="2.77" transform="translate(-92.9 379.46) rotate(-22.56)"/>
  <path class="cls-5" d="m926,402c-3.34,2.01-1.82,5.56-.44,7.7.81,1.26,1.32,2.68,1.53,4.17.35,2.53,1.31,6.13,3.91,6.13,2.1,0,2.99-.89,3.36-1.75.41-.93,1.1-1.69,1.94-2.26s1.7-1.5,1.7-3c0-2.04-1.86-4.09-3.04-5.18-.62-.57-1.12-1.26-1.5-2.01-1.08-2.11-3.7-6.06-7.46-3.81Z"/>
  <path class="cls-18" d="m985.5,413.5c-32.56-4.67-63.32-1.44-92,11"/>
  <path class="cls-5" d="m946,519c4-2,7,1,9,3s3,5-1,8-7-1-8-3-4-6,0-8Z"/>
  <path class="cls-5" d="m985,506c-3,0-5,5-6,7s-3,10,1,11,10-7,10-12-2-6-5-6Z"/>
  <path class="cls-5" d="m983.27,486.7s-1.08,2.67,1.92,3.67,5.41-2.09,5.41-2.09l7.59-12.91s2-4,0-6-3.42-.35-3.42-.35c-3.74,5.25-7.58,11.14-11.5,17.68Z"/>
  <path class="cls-5" d="m971.27,838.58c-4.36-.98-5.25,4.36-5.25,5.67s.19,5.39,4.5,5.76,5.39-4.12,5.62-5.71-.52-4.73-4.87-5.71Z"/>
  <path class="cls-5" d="m955.39,843.03c4.87.37,8.06-2.48,8.67-6.56s-4.07-11.8-8.67-11.8-5.39,9.82-5.39,11.8.52,6.18,5.39,6.56Z"/>
  <path class="cls-5" d="m961.72,754.42c-3.83,0-7.09,6.45-7.09,8.38s1.1,3.83,5.2,3.83,6.9-5.46,6.9-7.13-1.18-5.08-5.01-5.08Z"/>
  <path class="cls-5" d="m955.37,747.36c-4.69-.31-5.04-2.39-5.5-7s2.96-11.16,6.73-10.85,6.85,5.23,6.85,9.19-3.39,8.96-8.08,8.66Z"/>
  <path class="cls-5" d="m932.93,705.48c-1.83.29-3.81,2.24-3.81,5.82s2.07,5.88,4.22,6.23,5.15-.76,4.97-5.79-3.55-6.55-5.38-6.25Z"/>
  <path class="cls-5" d="m919.53,682.02c-4.23,4.29,1.14,20.38,5.36,20.04s8.53-3.84,8.53-7.9-9.65-16.43-13.89-12.14Z"/>
  <path class="cls-5" d="m901.74,677.59c-3.8,4.07,2.02,13.74,5.59,14.01s4.93-4.27,4.58-6.17-6.36-11.91-10.16-7.84Z"/>
  <path class="cls-5" d="m895.78,657.59c-2.34-2.62-5.47-2.74-6.8,1.29s2.11,10.25,5.98,10.25,3.17-8.92.83-11.54Z"/>
  <path class="cls-5" d="m902.77,647.24c-2.99,0-4.09,2.34-4.09,4.14s.09,4.51,3.82,4.92,4.28-3.31,4.28-4.53-1.01-4.53-4-4.53Z"/>
  <path class="cls-5" d="m869.73,628.84c-4.85.63-4.98,9.88-4.44,12.39s2.34,7.41,7.74,7.78,5.52-8.08,5.19-10.59-3.64-10.21-8.49-9.58Z"/>
  <path class="cls-5" d="m844.17,617.84c0,2.43,3.89,5.86,6.49,6.11s3.31-5.27.96-7.99-7.45-.54-7.45,1.88Z"/>
  <path class="cls-5" d="m837.64,605.97c-4.87-.8-4.49-8.72-4.32-10.62s2.16-10.62,6.82-9.65,4.28,9.52,4.06,11.43-1.69,9.65-6.56,8.85Z"/>
  <path class="cls-5" d="m520.53,817.12s3.13,3.68,9.59,4.02,4.65-5.39,3.87-6.56-3.5-2.61-3.5-2.61l-9.96,5.15Z"/>
  <path class="cls-5" d="m547.23,802.6s-3.19,5.85.87,10.4,11.6,1.82,16.38-.56c11.7-5.98,9.61-26.3,9.61-26.3l-26.86,16.46Z"/>
  <circle class="cls-5" cx="607.02" cy="788.05" r="4.42"/>
  <path class="cls-5" d="m581.48,800.97c-3.88-3.38-.34-9.7.93-11.22s7.34-7.75,10.84-4.73-2.15,10.93-2.15,10.93c0,0-5.74,8.4-9.62,5.02Z"/>
  <ellipse class="cls-5" cx="617.13" cy="805.43" rx="8.95" ry="5.17" transform="translate(-370 570.61) rotate(-39.16)"/>
  <path class="cls-5" d="m624.7,778.06c3.26,3.03,7.74.91,8.83-.95s1.11-6.79-1.81-7.92-10.28,5.84-7.02,8.87Z"/>
  <path class="cls-5" d="m652.2,765.63c-4.3-1.31-4.69-8.28-2.94-14.6,1.25-3.81,5.78-7.52,11.01-4.96s.45,12.53.45,12.53c0,0-4.21,8.34-8.52,7.03Z"/>
  <path class="cls-5" d="m674.54,732.06c5.08.46,6.24-6.16,6.24-6.16,0,0,1.43-9.28-3.12-10.09s-7.51,4.81-8.28,6.78.08,9.01,5.16,9.47Z"/>
  <path class="cls-5" d="m703.17,703.6c-3.13-.71-3.25-7.21-1.27-8.72s6.34,1.03,6.98,3.33-2.58,6.1-5.71,5.39Z"/>
  <path class="cls-5" d="m711.46,666.31v8.71s-.44,3.29,3.2,3.49,4.47-5.8,4.47-5.8c0,0,1.13-7.52.54-9.54s-3-2.41-3-2.41l-5.21,5.55Z"/>
  <path class="cls-5" d="m719.45,657.78s14.11-2.01,28.06-17.79,12.99-27.67,12.99-27.67l-41.06,45.47Z"/>
  <circle class="cls-5" cx="789.35" cy="592.1" r="3.88"/>
  <path class="cls-5" d="m768.95,614.26c4.68,1.18,12.56-6.54,12.56-9.59s-3.04-3.21-4.06-3.21c-.66,0-1.92.84-2.72,1.43-.51.37-1.07.65-1.67.83-1.22.36-3.3,1.04-4.11,1.77-1.18,1.06-4.68,7.59,0,8.77Z"/>
  <path class="cls-17" d="m1311.89,838.15c-7.74-5.17-15.28-10.78-22.6-16.92-3.76-2.82-4.53-8.15-1.71-11.91l75.38-100.69c2.82-3.76,8.15-4.53,11.91-1.71,8.17,4.95,15.7,10.6,22.6,16.92,3.57,2.67,4.29,7.72,1.62,11.29-24.16,34.42-49.44,68.23-75.92,101.4-2.67,3.57-7.72,4.29-11.29,1.62Z"/>
  <path class="cls-18" d="m992.5,426.5c-21.46,9.1-45.06,29.28-65,56"/>
</svg>