<svg width="676" height="143" viewBox="0 0 676 143" fill="none" xmlns="http://www.w3.org/2000/svg">
<path d="M88.0498 22.8872H56.4022V119.573H31.9457V22.8872H0.157471V2.05042H88.0498V22.8872Z" fill="white"/>
<path d="M588.935 29.2616C588.935 26.0531 589.375 23.061 590.271 20.3212C591.168 17.5815 592.469 15.1841 594.174 13.1654C595.88 11.1285 597.937 9.56036 600.346 8.4248C602.754 7.28923 605.462 6.71246 608.504 6.71246C611.545 6.71246 614.306 7.19913 616.785 8.17248C619.264 9.14582 621.391 10.5337 623.149 12.3362C624.908 14.1387 626.279 16.3377 627.246 18.9153C628.213 21.4929 628.705 24.3949 628.705 27.6033C628.705 31.4967 627.985 34.633 626.56 37.0483C625.136 39.4637 623.325 41.3923 621.163 42.8343C619 44.2763 616.644 45.3939 614.095 46.1509C611.545 46.926 609.189 47.629 607.044 48.2779C604.882 48.9088 603.088 49.6478 601.647 50.4769C600.223 51.3061 599.502 52.5137 599.502 54.0639L588.144 53.3969C588.144 50.1885 588.865 47.665 590.289 45.8626C591.713 44.0601 593.524 42.618 595.686 41.5365C597.849 40.455 600.205 39.6079 602.754 38.995C605.286 38.3822 607.642 37.6612 609.805 36.8321C611.967 36.0029 613.761 34.8854 615.202 33.4974C616.644 32.1095 617.347 30.1448 617.347 27.5853C617.347 24.3047 616.574 21.9615 615.027 20.5195C613.479 19.0775 611.282 18.3565 608.416 18.3565C607.009 18.3565 605.796 18.6269 604.776 19.1496C603.739 19.6724 602.913 20.4294 602.262 21.4027C601.612 22.3761 601.137 23.5297 600.803 24.8455C600.469 26.1794 600.311 27.6393 600.311 29.2616H588.953H588.935ZM588.126 53.2167H629.514V64.0316H588.126V53.2167Z" fill="white"/>
<path d="M655.079 31.3344C661.355 31.3344 666.384 32.6683 670.164 35.336C673.962 38.0036 675.843 41.9691 675.843 47.2324C675.843 52.4957 673.944 56.9118 670.164 60.1202C666.384 63.3286 661.338 64.9509 655.079 64.9509C648.819 64.9509 643.932 63.3106 640.134 59.9941C636.336 56.6955 634.455 52.1712 634.455 46.3852H645.813C645.813 48.7645 646.657 50.6572 648.362 52.0451C650.068 53.433 652.318 54.1179 655.131 54.1179C657.944 54.1179 660.142 53.3789 661.865 51.8648C663.588 50.3507 664.467 48.422 664.467 46.0428C664.467 43.6635 663.676 41.6447 662.076 39.8422C660.476 38.0397 658.138 37.1384 655.061 37.1384H650.191V31.3164H655.061L655.079 31.3344ZM636.494 23.4215C636.494 20.8259 636.934 18.4647 637.796 16.3918C638.657 14.319 639.905 12.5525 641.523 11.1105C643.14 9.6685 645.11 8.56902 647.395 7.83C649.699 7.09098 652.248 6.71246 655.061 6.71246C660.74 6.71246 665.206 8.08235 668.441 10.8221C671.694 13.5799 673.311 17.3111 673.311 22.0156C673.311 24.1786 672.836 26.0712 671.887 27.7115C670.938 29.3517 669.619 30.7216 667.949 31.8211C666.261 32.9387 664.327 33.7859 662.111 34.3627C659.896 34.9394 657.54 35.2278 655.061 35.2278H650.191V30.4873H655.061C657.54 30.4873 659.386 29.7843 660.582 28.3603C661.777 26.9364 662.375 25.2961 662.375 23.4035C662.375 21.5109 661.689 20.123 660.353 19.0775C659.017 18.0321 657.276 17.4913 655.167 17.4913C653.057 17.4913 651.246 18.014 649.892 19.0775C648.538 20.141 647.87 21.5649 647.87 23.4035H636.512L636.494 23.4215Z" fill="white"/>
<path d="M71.98 101.548C70.5735 101.548 69.4834 101.133 68.7274 100.286C67.9714 99.4566 67.5845 98.3571 67.5845 97.0233C67.5845 95.5813 67.9889 94.4637 68.7977 93.6887C69.6065 92.9136 70.679 92.5171 71.98 92.5171C73.3866 92.5171 74.4767 92.9316 75.2327 93.7608C75.9887 94.5899 76.3755 95.6895 76.3755 97.0233C76.3755 98.3571 75.9711 99.4566 75.1624 100.286C74.3536 101.115 73.2811 101.548 71.98 101.548ZM71.98 110.578C70.5735 110.578 69.4834 110.163 68.7274 109.334C67.9714 108.505 67.5845 107.406 67.5845 106.072C67.5845 104.63 67.9889 103.512 68.7977 102.737C69.6065 101.962 70.679 101.566 71.98 101.566C73.3866 101.566 74.4767 101.98 75.2327 102.809C75.9887 103.638 76.3755 104.738 76.3755 106.072C76.3755 107.406 75.9711 108.505 75.1624 109.334C74.3536 110.163 73.2811 110.578 71.98 110.578ZM67.5845 115.084C67.5845 113.75 67.9889 112.651 68.7977 111.822C69.6065 110.993 70.679 110.578 71.98 110.578C73.3866 110.578 74.4767 110.993 75.2327 111.822C75.9887 112.651 76.3755 113.75 76.3755 115.084C76.3755 116.526 75.9711 117.644 75.1624 118.419C74.3536 119.194 73.2811 119.59 71.98 119.59C70.5735 119.59 69.4834 119.176 68.7274 118.347C67.9714 117.518 67.5845 116.418 67.5845 115.084ZM80.7886 83.6668C79.382 83.6668 78.292 83.2522 77.5359 82.4051C76.7799 81.5759 76.3931 80.4764 76.3931 79.1426C76.3931 77.7006 76.7975 76.5831 77.6239 75.808C78.4326 75.0329 79.5051 74.6363 80.8062 74.6363C82.2127 74.6363 83.3028 75.0509 84.0588 75.8801C84.8149 76.7092 85.2017 77.8087 85.2017 79.1426C85.2017 80.4764 84.7973 81.5759 83.9885 82.4051C83.1798 83.2342 82.1073 83.6668 80.8062 83.6668H80.7886ZM85.1841 88.1731C85.1841 91.0751 83.7775 92.5171 80.9468 92.5171C77.9052 92.5171 76.3931 91.0751 76.3931 88.1731C76.3931 86.8392 76.7799 85.7397 77.5359 84.9106C78.292 84.0814 79.3293 83.6668 80.6304 83.6668C83.672 83.6668 85.1841 85.1088 85.1841 88.0108V88.1731ZM76.3755 97.0233C76.3755 95.5813 76.7799 94.4637 77.6063 93.6887C78.415 92.9136 79.4875 92.5171 80.7886 92.5171C82.1951 92.5171 83.2852 92.9316 84.0413 93.7608C84.7973 94.5899 85.1841 95.6895 85.1841 97.0233C85.1841 98.3571 84.7797 99.4566 83.9709 100.286C83.1622 101.115 82.0897 101.548 80.7886 101.548C79.382 101.548 78.292 101.133 77.5359 100.286C76.7799 99.4566 76.3931 98.3571 76.3931 97.0233H76.3755ZM76.3755 106.054C76.3755 104.612 76.7799 103.494 77.6063 102.719C78.415 101.944 79.4875 101.548 80.7886 101.548C82.1951 101.548 83.2852 101.962 84.0413 102.791C84.7973 103.62 85.1841 104.72 85.1841 106.054C85.1841 107.388 84.7797 108.487 83.9709 109.316C83.1622 110.145 82.0897 110.56 80.7886 110.56C79.382 110.56 78.292 110.145 77.5359 109.316C76.7799 108.487 76.3931 107.388 76.3931 106.054H76.3755ZM76.3755 115.084C76.3755 113.75 76.7799 112.651 77.6063 111.822C78.415 110.993 79.4875 110.578 80.7886 110.578C82.1951 110.578 83.2852 110.993 84.0413 111.822C84.7973 112.651 85.1841 113.75 85.1841 115.084C85.1841 116.526 84.7797 117.644 83.9709 118.419C83.1622 119.194 82.0897 119.59 80.7886 119.59C79.382 119.59 78.292 119.176 77.5359 118.347C76.7799 117.518 76.3931 116.418 76.3931 115.084H76.3755ZM89.5796 65.6239C88.173 65.6239 87.083 65.2094 86.3269 64.3622C85.5709 63.515 85.1841 62.4335 85.1841 61.0997C85.1841 59.6577 85.5885 58.5401 86.4148 57.7651C87.2412 56.99 88.2961 56.5935 89.5972 56.5935C91.0037 56.5935 92.0938 57.008 92.8498 57.8372C93.6059 58.6663 93.9927 59.7658 93.9927 61.0997C93.9927 62.4335 93.5883 63.515 92.7795 64.3622C91.9707 65.2094 90.8982 65.6239 89.5972 65.6239H89.5796ZM93.9751 70.1301C93.9751 71.464 93.5707 72.5454 92.7619 73.3926C91.9532 74.2398 90.8806 74.6544 89.5796 74.6544C88.173 74.6544 87.083 74.2398 86.3269 73.3926C85.5709 72.5454 85.1841 71.464 85.1841 70.1301C85.1841 68.6881 85.5885 67.5706 86.4148 66.7956C87.2412 66.0205 88.2961 65.6239 89.5972 65.6239C91.0037 65.6239 92.0938 66.0385 92.8498 66.8676C93.6059 67.6968 93.9927 68.7963 93.9927 70.1301H93.9751ZM85.1665 79.1606C85.1665 77.7186 85.5709 76.6011 86.3972 75.826C87.2236 75.0509 88.2785 74.6544 89.5796 74.6544C90.9861 74.6544 92.0762 75.069 92.8323 75.8981C93.5883 76.7273 93.9751 77.8268 93.9751 79.1606C93.9751 80.4945 93.5707 81.594 92.7619 82.4231C91.9532 83.2523 90.8806 83.6849 89.5796 83.6849C88.173 83.6849 87.083 83.2703 86.3269 82.4231C85.5709 81.594 85.1841 80.4945 85.1841 79.1606H85.1665ZM85.1665 88.1911C85.1665 86.8573 85.5533 85.7577 86.3094 84.9286C87.0654 84.0995 88.1027 83.6849 89.4038 83.6849C92.4455 83.6849 93.9575 85.1269 93.9575 88.0289V88.1911C93.9575 91.0931 92.5509 92.5351 89.7202 92.5351C86.6786 92.5351 85.1665 91.0931 85.1665 88.1911ZM85.1665 97.0413C85.1665 95.5993 85.5709 94.4818 86.3972 93.7067C87.2236 92.9316 88.2785 92.5351 89.5796 92.5351C90.9861 92.5351 92.0762 92.9496 92.8323 93.7788C93.5883 94.6079 93.9751 95.7075 93.9751 97.0413C93.9751 98.3752 93.5707 99.4747 92.7619 100.304C91.9532 101.133 90.8806 101.566 89.5796 101.566C88.173 101.566 87.083 101.151 86.3269 100.304C85.5709 99.4747 85.1841 98.3752 85.1841 97.0413H85.1665ZM93.9751 34.2245C93.9751 32.8907 94.3619 31.7912 95.1179 30.962C95.8739 30.1329 96.9113 29.7183 98.2123 29.7183C101.254 29.7183 102.766 31.1603 102.766 34.0623V34.2425C102.766 37.1445 101.36 38.5865 98.5288 38.5865C95.4871 38.5865 93.9751 37.1445 93.9751 34.2425V34.2245ZM98.3706 47.599C96.964 47.599 95.8739 47.1845 95.1179 46.3373C94.3443 45.5081 93.9751 44.4086 93.9751 43.0748C93.9751 41.6328 94.3795 40.5152 95.2058 39.7402C96.0322 38.9651 97.0871 38.5686 98.3882 38.5686C99.7947 38.5686 100.885 38.9831 101.641 39.8303C102.397 40.6774 102.784 41.7589 102.784 43.0928C102.784 44.4266 102.379 45.5081 101.57 46.3553C100.762 47.2024 99.6892 47.617 98.3882 47.617L98.3706 47.599ZM98.3706 56.6295C96.964 56.6295 95.8739 56.2149 95.1179 55.3677C94.3443 54.5386 93.9751 53.4391 93.9751 52.1052C93.9751 50.6632 94.3795 49.5457 95.2058 48.7707C96.0322 47.9956 97.0871 47.599 98.3882 47.599C99.7947 47.599 100.885 48.0136 101.641 48.8427C102.397 49.6719 102.784 50.7714 102.784 52.1052C102.784 53.4391 102.379 54.5205 101.57 55.3677C100.762 56.2149 99.6892 56.6295 98.3882 56.6295H98.3706ZM93.9751 61.1357C93.9751 59.6937 94.3795 58.5762 95.2058 57.8011C96.0322 57.026 97.0871 56.6295 98.3882 56.6295C99.7947 56.6295 100.885 57.0441 101.641 57.8732C102.397 58.7024 102.784 59.8019 102.784 61.1357C102.784 62.4696 102.379 63.551 101.57 64.3982C100.762 65.2454 99.6892 65.66 98.3882 65.66C96.9816 65.66 95.8915 65.2454 95.1355 64.3982C94.3619 63.5691 93.9927 62.4696 93.9927 61.1357H93.9751ZM102.784 70.1662C102.784 71.5 102.379 72.5815 101.57 73.4287C100.762 74.2759 99.6892 74.6904 98.3882 74.6904C96.9816 74.6904 95.8915 74.2759 95.1355 73.4287C94.3619 72.5996 93.9927 71.5 93.9927 70.1662C93.9927 68.7242 94.3971 67.6067 95.2234 66.8316C96.0498 66.0565 97.1047 65.66 98.4057 65.66C99.8123 65.66 100.902 66.0746 101.658 66.9037C102.414 67.7328 102.801 68.8324 102.801 70.1662H102.784ZM93.9751 79.1966C93.9751 77.7546 94.3795 76.6371 95.2058 75.8621C96.0322 75.087 97.0871 74.6904 98.3882 74.6904C99.7947 74.6904 100.885 75.105 101.641 75.9341C102.397 76.7633 102.784 77.8628 102.784 79.1966C102.784 80.5305 102.379 81.63 101.57 82.4591C100.762 83.2883 99.6892 83.7209 98.3882 83.7209C96.9816 83.7209 95.8915 83.3063 95.1355 82.4591C94.3619 81.63 93.9927 80.5305 93.9927 79.1966H93.9751ZM93.9751 88.2271C93.9751 86.7851 94.3795 85.6676 95.2058 84.8925C96.0146 84.1174 97.0871 83.7209 98.3882 83.7209C99.7947 83.7209 100.885 84.1355 101.641 84.9646C102.397 85.7938 102.784 86.8933 102.784 88.2271C102.784 89.561 102.379 90.6605 101.57 91.4896C100.762 92.3188 99.6892 92.7334 98.3882 92.7334C96.9816 92.7334 95.8915 92.3188 95.1355 91.4896C94.3619 90.6605 93.9927 89.561 93.9927 88.2271H93.9751ZM107.179 20.7239C105.773 20.7239 104.683 20.3093 103.926 19.4621C103.153 18.633 102.784 17.5335 102.784 16.1996C102.784 14.7577 103.188 13.6401 104.014 12.865C104.841 12.09 105.896 11.6934 107.197 11.6934C108.603 11.6934 109.693 12.108 110.449 12.9551C111.205 13.8023 111.592 14.8838 111.592 16.2176C111.592 17.5515 111.188 18.651 110.379 19.4802C109.57 20.3093 108.498 20.7419 107.197 20.7419L107.179 20.7239ZM107.179 29.7544C105.773 29.7544 104.683 29.3398 103.926 28.4926C103.153 27.6635 102.784 26.5639 102.784 25.2301C102.784 23.7881 103.188 22.6706 104.014 21.8955C104.841 21.1204 105.896 20.7239 107.197 20.7239C108.603 20.7239 109.693 21.1384 110.449 21.9676C111.205 22.7967 111.592 23.8962 111.592 25.2301C111.592 26.5639 111.188 27.6455 110.379 28.4926C109.57 29.3398 108.498 29.7544 107.197 29.7544H107.179ZM102.784 34.2606C102.784 32.9267 103.17 31.8272 103.926 30.9981C104.683 30.1689 105.72 29.7544 107.021 29.7544C110.063 29.7544 111.575 31.1964 111.575 34.0984V34.2786C111.575 37.1806 110.168 38.6226 107.337 38.6226C104.296 38.6226 102.766 37.1806 102.766 34.2786L102.784 34.2606ZM102.784 43.1108C102.784 41.6688 103.188 40.5513 104.014 39.7762C104.841 39.0011 105.896 38.6046 107.197 38.6046C108.603 38.6046 109.693 39.0192 110.449 39.8663C111.205 40.7135 111.592 41.795 111.592 43.1289C111.592 44.4627 111.188 45.5442 110.379 46.3914C109.57 47.2385 108.498 47.6531 107.197 47.6531C105.79 47.6531 104.7 47.2385 103.944 46.3914C103.17 45.5622 102.801 44.4627 102.801 43.1289L102.784 43.1108ZM102.784 52.1413C102.784 50.6993 103.188 49.5818 104.014 48.8067C104.841 48.0316 105.896 47.6351 107.197 47.6351C108.603 47.6351 109.693 48.0497 110.449 48.8788C111.205 49.7079 111.592 50.8075 111.592 52.1413C111.592 53.4751 111.188 54.5566 110.379 55.4038C109.57 56.251 108.498 56.6655 107.197 56.6655C105.79 56.6655 104.7 56.251 103.944 55.4038C103.17 54.5747 102.801 53.4751 102.801 52.1413H102.784ZM102.784 79.2147C102.784 77.7727 103.188 76.6551 104.014 75.8801C104.841 75.105 105.896 74.7085 107.197 74.7085C108.603 74.7085 109.693 75.123 110.449 75.9522C111.205 76.7813 111.592 77.8808 111.592 79.2147C111.592 80.5485 111.188 81.648 110.379 82.4772C109.57 83.3063 108.498 83.739 107.197 83.739C105.79 83.739 104.7 83.3244 103.944 82.4772C103.17 81.648 102.801 80.5485 102.801 79.2147H102.784ZM102.784 88.2452C102.784 86.8032 103.188 85.6856 104.014 84.9106C104.823 84.1355 105.896 83.739 107.197 83.739C108.603 83.739 109.693 84.1535 110.449 84.9827C111.205 85.8118 111.592 86.9113 111.592 88.2452C111.592 89.579 111.188 90.6785 110.379 91.5077C109.57 92.3368 108.498 92.7514 107.197 92.7514C105.79 92.7514 104.7 92.3368 103.944 91.5077C103.17 90.6785 102.801 89.579 102.801 88.2452H102.784ZM111.592 7.20518C111.592 5.87134 111.997 4.78985 112.823 3.94268C113.649 3.09551 114.704 2.68097 116.005 2.68097C117.412 2.68097 118.502 3.09551 119.258 3.94268C120.014 4.78985 120.401 5.87134 120.401 7.20518C120.401 8.6652 119.996 9.76473 119.188 10.5398C118.379 11.3149 117.306 11.7114 116.005 11.7114C114.599 11.7114 113.509 11.2969 112.753 10.4677C111.979 9.63859 111.61 8.53902 111.61 7.20518H111.592ZM111.592 16.2357C111.592 14.7937 111.997 13.6761 112.823 12.9011C113.649 12.126 114.704 11.7295 116.005 11.7295C117.412 11.7295 118.502 12.144 119.258 12.9912C120.014 13.8384 120.401 14.9199 120.401 16.2537C120.401 17.5876 119.996 18.6871 119.188 19.5162C118.379 20.3454 117.306 20.7779 116.005 20.7779C114.599 20.7779 113.509 20.3634 112.753 19.5162C111.979 18.6871 111.61 17.5876 111.61 16.2537L111.592 16.2357ZM111.592 25.2662C111.592 23.8242 111.997 22.7066 112.823 21.9316C113.649 21.1565 114.704 20.7599 116.005 20.7599C117.412 20.7599 118.502 21.1745 119.258 22.0037C120.014 22.8328 120.401 23.9323 120.401 25.2662C120.401 26.6 119.996 27.6815 119.188 28.5287C118.379 29.3758 117.306 29.7904 116.005 29.7904C114.599 29.7904 113.509 29.3758 112.753 28.5287C111.979 27.6995 111.61 26.6 111.61 25.2662H111.592ZM111.592 79.2327C111.592 77.7907 111.997 76.6732 112.823 75.8981C113.649 75.123 114.704 74.7265 116.005 74.7265C117.412 74.7265 118.502 75.1411 119.258 75.9702C120.014 76.7994 120.401 77.8989 120.401 79.2327C120.401 80.5666 119.996 81.6661 119.188 82.4952C118.379 83.3244 117.306 83.7569 116.005 83.7569C114.599 83.7569 113.509 83.3424 112.753 82.4952C111.979 81.6661 111.61 80.5666 111.61 79.2327H111.592ZM111.592 88.2632C111.592 86.8212 111.997 85.7037 112.823 84.9286C113.632 84.1535 114.704 83.7569 116.005 83.7569C117.412 83.7569 118.502 84.1715 119.258 85.0007C120.014 85.8298 120.401 86.9293 120.401 88.2632C120.401 89.597 119.996 90.6965 119.188 91.5257C118.379 92.3548 117.306 92.7694 116.005 92.7694C114.599 92.7694 113.509 92.3548 112.753 91.5257C111.979 90.6965 111.61 89.597 111.61 88.2632H111.592ZM120.401 7.22322C120.401 5.88938 120.805 4.80789 121.632 3.96072C122.458 3.11355 123.513 2.69896 124.814 2.69896C126.22 2.69896 127.311 3.11355 128.067 3.96072C128.823 4.80789 129.209 5.88938 129.209 7.22322C129.209 8.68324 128.805 9.78277 127.979 10.5578C127.152 11.3329 126.097 11.7295 124.796 11.7295C123.372 11.7295 122.3 11.3149 121.544 10.4857C120.77 9.65658 120.401 8.55707 120.401 7.22322ZM129.209 16.2537C129.209 17.5876 128.805 18.6871 127.979 19.5162C127.152 20.3454 126.097 20.7779 124.796 20.7779C123.372 20.7779 122.3 20.3634 121.544 19.5162C120.77 18.6871 120.401 17.5876 120.401 16.2537C120.401 14.8117 120.805 13.6942 121.632 12.9191C122.458 12.144 123.513 11.7475 124.814 11.7475C126.22 11.7475 127.311 12.162 128.067 13.0092C128.823 13.8564 129.209 14.9379 129.209 16.2717V16.2537ZM129.209 25.2842C129.209 26.618 128.805 27.6995 127.979 28.5467C127.152 29.3939 126.097 29.8084 124.796 29.8084C123.372 29.8084 122.3 29.3939 121.544 28.5467C120.77 27.7176 120.401 26.618 120.401 25.2842C120.401 23.8422 120.805 22.7247 121.632 21.9496C122.458 21.1745 123.513 20.7779 124.814 20.7779C126.22 20.7779 127.311 21.1925 128.067 22.0217C128.823 22.8508 129.209 23.9503 129.209 25.2842ZM129.034 79.413C129.034 82.315 127.627 83.7569 124.796 83.7569C123.495 83.7569 122.423 83.3604 121.614 82.5853C120.805 81.8103 120.383 80.7468 120.383 79.413C120.383 76.2947 121.79 74.7445 124.62 74.7445C125.922 74.7445 126.994 75.1411 127.803 75.9162C128.612 76.6912 129.016 77.7547 129.016 79.0885V79.413H129.034ZM129.034 88.4434C129.034 91.3454 127.627 92.7874 124.796 92.7874C123.495 92.7874 122.423 92.3909 121.614 91.6158C120.805 90.8408 120.383 89.7773 120.383 88.4434C120.383 85.3251 121.79 83.775 124.62 83.775C125.922 83.775 126.994 84.1715 127.803 84.9466C128.612 85.7397 129.016 86.7851 129.016 88.119V88.4434H129.034ZM129.034 34.3146C129.034 32.9808 129.42 31.8813 130.176 31.0521C130.932 30.223 131.97 29.8084 133.271 29.8084C136.312 29.8084 137.825 31.2504 137.825 34.1524V34.3327C137.825 37.2347 136.418 38.6767 133.587 38.6767C130.546 38.6767 129.016 37.2347 129.016 34.3327L129.034 34.3146ZM133.429 47.6891C132.022 47.6891 130.932 47.2746 130.176 46.4274C129.403 45.5982 129.034 44.4987 129.034 43.1649C129.034 41.7229 129.438 40.6053 130.264 39.8303C131.091 39.0552 132.146 38.6587 133.447 38.6587C134.853 38.6587 135.943 39.0732 136.699 39.9204C137.455 40.7676 137.842 41.8491 137.842 43.1829C137.842 44.5168 137.438 45.5983 136.629 46.4454C135.82 47.2926 134.748 47.7071 133.447 47.7071L133.429 47.6891ZM133.429 56.7196C132.022 56.7196 130.932 56.305 130.176 55.4579C129.403 54.6287 129.034 53.5292 129.034 52.1954C129.034 50.7534 129.438 49.6358 130.264 48.8608C131.091 48.0857 132.146 47.6891 133.447 47.6891C134.853 47.6891 135.943 48.1037 136.699 48.9329C137.455 49.762 137.842 50.8615 137.842 52.1954C137.842 53.5292 137.438 54.6107 136.629 55.4579C135.82 56.305 134.748 56.7196 133.447 56.7196H133.429ZM137.825 79.2688C137.825 80.6026 137.42 81.7021 136.611 82.5313C135.803 83.3604 134.73 83.793 133.429 83.793C132.022 83.793 130.932 83.3784 130.176 82.5313C129.403 81.7021 129.034 80.6026 129.034 79.2688C129.034 77.8268 129.438 76.7092 130.264 75.9341C131.091 75.1591 132.146 74.7625 133.447 74.7625C134.853 74.7625 135.943 75.1771 136.699 76.0063C137.455 76.8354 137.842 77.9349 137.842 79.2688H137.825ZM137.825 88.2992C137.825 89.6331 137.42 90.7326 136.611 91.5618C135.803 92.3909 134.73 92.8055 133.429 92.8055C132.022 92.8055 130.932 92.3909 130.176 91.5618C129.403 90.7326 129.034 89.6331 129.034 88.2992C129.034 86.8573 129.438 85.7397 130.264 84.9646C131.073 84.1896 132.146 83.793 133.447 83.793C134.853 83.793 135.943 84.2076 136.699 85.0368C137.455 85.8659 137.842 86.9654 137.842 88.2992H137.825ZM137.825 16.452C137.825 19.354 136.418 20.796 133.587 20.796C132.286 20.796 131.214 20.3994 130.405 19.6244C129.596 18.8493 129.192 17.7858 129.192 16.452C129.192 13.3337 130.598 11.7655 133.429 11.7655C134.73 11.7655 135.803 12.1621 136.611 12.9371C137.42 13.7122 137.825 14.7756 137.825 16.1095V16.452ZM137.825 25.4825C137.825 28.3845 136.418 29.8265 133.587 29.8265C132.286 29.8265 131.214 29.4299 130.405 28.6549C129.596 27.8798 129.192 26.8163 129.192 25.4825C129.192 22.3642 130.598 20.814 133.429 20.814C134.73 20.814 135.803 21.2106 136.611 21.9856C137.42 22.7607 137.825 23.8242 137.825 25.158V25.5005V25.4825ZM137.825 34.3327C137.825 32.9988 138.211 31.8993 138.967 31.0702C139.723 30.241 140.761 29.8265 142.062 29.8265C145.103 29.8265 146.633 31.2685 146.633 34.1705V34.3507C146.633 37.2527 145.209 38.6947 142.396 38.6947C139.354 38.6947 137.825 37.2527 137.825 34.3507V34.3327ZM137.825 43.1829C137.825 41.7409 138.229 40.6234 139.055 39.8483C139.882 39.0732 140.937 38.6767 142.238 38.6767C143.644 38.6767 144.734 39.0912 145.49 39.9384C146.246 40.7856 146.633 41.8671 146.633 43.2009C146.633 44.5348 146.229 45.6162 145.402 46.4634C144.576 47.3106 143.521 47.7252 142.22 47.7252C140.796 47.7252 139.723 47.3106 138.967 46.4634C138.194 45.6343 137.825 44.5348 137.825 43.2009V43.1829ZM137.825 52.2134C137.825 50.7714 138.229 49.6539 139.055 48.8788C139.882 48.1037 140.937 47.7071 142.238 47.7071C143.644 47.7071 144.734 48.1217 145.49 48.9509C146.246 49.78 146.633 50.8795 146.633 52.2134C146.633 53.5472 146.229 54.6287 145.402 55.4759C144.576 56.323 143.521 56.7376 142.22 56.7376C140.796 56.7376 139.723 56.323 138.967 55.4759C138.194 54.6467 137.825 53.5472 137.825 52.2134ZM146.633 61.2439C146.633 62.5777 146.229 63.6592 145.402 64.5064C144.576 65.3535 143.521 65.7681 142.22 65.7681C140.796 65.7681 139.723 65.3535 138.967 64.5064C138.194 63.6772 137.825 62.5777 137.825 61.2439C137.825 59.8019 138.229 58.6843 139.055 57.9092C139.882 57.1342 140.937 56.7376 142.238 56.7376C143.644 56.7376 144.734 57.1522 145.49 57.9814C146.246 58.8105 146.633 59.91 146.633 61.2439ZM142.238 74.7806C140.813 74.7806 139.741 74.366 138.985 73.5188C138.211 72.6897 137.842 71.5901 137.842 70.2563C137.842 68.8143 138.247 67.6968 139.073 66.9217C139.899 66.1466 140.954 65.7501 142.255 65.7501C143.662 65.7501 144.752 66.1647 145.508 66.9938C146.264 67.823 146.651 68.9225 146.651 70.2563C146.651 71.5901 146.246 72.6716 145.42 73.5188C144.594 74.366 143.539 74.7806 142.238 74.7806ZM146.633 79.2868C146.633 80.6206 146.229 81.7202 145.402 82.5493C144.594 83.3784 143.521 83.811 142.22 83.811C140.796 83.811 139.723 83.3965 138.967 82.5493C138.194 81.7202 137.825 80.6206 137.825 79.2868C137.825 77.8448 138.229 76.7272 139.055 75.9522C139.882 75.1771 140.937 74.7806 142.238 74.7806C143.644 74.7806 144.734 75.1952 145.49 76.0243C146.246 76.8534 146.633 77.953 146.633 79.2868ZM146.633 88.3172C146.633 89.6511 146.229 90.7506 145.402 91.5798C144.594 92.4089 143.521 92.8235 142.22 92.8235C140.796 92.8235 139.723 92.4089 138.967 91.5798C138.194 90.7506 137.825 89.6511 137.825 88.3172C137.825 86.8752 138.229 85.7577 139.055 84.9827C139.864 84.2076 140.937 83.811 142.238 83.811C143.644 83.811 144.734 84.2256 145.49 85.0547C146.246 85.8839 146.633 86.9834 146.633 88.3172ZM155.442 61.2439C155.442 62.5777 155.037 63.6592 154.211 64.5064C153.385 65.3535 152.33 65.7681 151.029 65.7681C149.604 65.7681 148.532 65.3535 147.776 64.5064C147.02 63.6592 146.633 62.5777 146.633 61.2439C146.633 59.8019 147.038 58.6843 147.846 57.9092C148.655 57.1342 149.728 56.7376 151.029 56.7376C152.435 56.7376 153.525 57.1522 154.281 57.9814C155.037 58.8105 155.424 59.91 155.424 61.2439H155.442ZM146.633 70.2743C146.633 68.8324 147.038 67.7148 147.846 66.9397C148.655 66.1647 149.728 65.7681 151.029 65.7681C152.435 65.7681 153.525 66.1827 154.281 67.0118C155.037 67.841 155.424 68.9405 155.424 70.2743C155.424 71.6082 155.02 72.6897 154.193 73.5368C153.367 74.384 152.312 74.7986 151.011 74.7986C149.587 74.7986 148.514 74.384 147.758 73.5368C147.002 72.6897 146.616 71.6082 146.616 70.2743H146.633ZM155.442 79.3048C155.442 80.6386 155.037 81.7382 154.211 82.5673C153.402 83.3965 152.33 83.8291 151.029 83.8291C149.604 83.8291 148.532 83.4145 147.776 82.5673C147.02 81.7382 146.633 80.6386 146.633 79.3048C146.633 77.8628 147.038 76.7453 147.846 75.9702C148.655 75.1952 149.728 74.7986 151.029 74.7986C152.435 74.7986 153.525 75.2131 154.281 76.0423C155.037 76.8714 155.424 77.9709 155.424 79.3048H155.442ZM155.442 88.3353C155.442 91.2373 154.035 92.6793 151.204 92.6793C148.163 92.6793 146.651 91.2373 146.651 88.3353C146.651 87.0014 147.037 85.9019 147.794 85.0728C148.55 84.2436 149.587 83.8291 150.888 83.8291C153.93 83.8291 155.459 85.271 155.459 88.1731V88.3353H155.442ZM151.046 101.71C149.622 101.71 148.55 101.295 147.794 100.448C147.037 99.6189 146.651 98.5194 146.651 97.1855C146.651 95.7435 147.055 94.626 147.864 93.8509C148.673 93.0758 149.745 92.6793 151.046 92.6793C152.453 92.6793 153.543 93.0939 154.299 93.923C155.055 94.7522 155.442 95.8517 155.442 97.1855C155.442 98.5194 155.037 99.6189 154.211 100.448C153.402 101.277 152.33 101.71 151.029 101.71H151.046ZM164.25 79.3228C164.25 80.6567 163.846 81.7562 163.02 82.5853C162.211 83.4145 161.138 83.8471 159.837 83.8471C158.431 83.8471 157.341 83.4325 156.584 82.5853C155.828 81.7562 155.442 80.6567 155.442 79.3228C155.442 77.8808 155.846 76.7633 156.655 75.9882C157.464 75.2131 158.536 74.8166 159.837 74.8166C161.244 74.8166 162.334 75.2312 163.09 76.0603C163.846 76.8895 164.233 77.989 164.233 79.3228H164.25ZM164.25 88.3533C164.25 91.2553 162.844 92.6973 160.013 92.6973C156.971 92.6973 155.459 91.2553 155.459 88.3533C155.459 87.0195 155.846 85.92 156.602 85.0908C157.358 84.2617 158.395 83.8471 159.697 83.8471C162.738 83.8471 164.268 85.2891 164.268 88.1911V88.3533H164.25ZM155.442 97.2036C155.442 95.7616 155.846 94.644 156.655 93.8689C157.464 93.0939 158.536 92.6973 159.837 92.6973C161.244 92.6973 162.334 93.1119 163.09 93.9411C163.846 94.7702 164.233 95.8697 164.233 97.2036C164.233 98.5374 163.828 99.6369 163.002 100.466C162.193 101.295 161.121 101.728 159.82 101.728C158.413 101.728 157.323 101.313 156.567 100.466C155.811 99.6369 155.424 98.5374 155.424 97.2036H155.442ZM155.442 106.234C155.442 104.9 155.846 103.801 156.655 102.971C157.464 102.142 158.536 101.728 159.837 101.728C161.244 101.728 162.334 102.142 163.09 102.971C163.846 103.801 164.233 104.9 164.233 106.234C164.233 107.676 163.828 108.794 163.002 109.569C162.176 110.344 161.121 110.74 159.82 110.74C158.413 110.74 157.323 110.326 156.567 109.496C155.811 108.667 155.424 107.568 155.424 106.234H155.442ZM155.442 115.264C155.442 113.931 155.846 112.831 156.655 112.002C157.464 111.173 158.536 110.758 159.837 110.758C161.244 110.758 162.334 111.173 163.09 112.002C163.846 112.831 164.233 113.931 164.233 115.264C164.233 116.706 163.828 117.824 163.002 118.599C162.176 119.374 161.121 119.771 159.82 119.771C158.413 119.771 157.323 119.356 156.567 118.527C155.811 117.698 155.424 116.598 155.424 115.264H155.442ZM164.25 97.2215C164.25 95.7795 164.655 94.662 165.463 93.887C166.272 93.1119 167.345 92.7153 168.646 92.7153C170.052 92.7153 171.142 93.1299 171.898 93.959C172.654 94.7882 173.041 95.8877 173.041 97.2215C173.041 98.5554 172.637 99.6549 171.81 100.484C171.002 101.313 169.929 101.746 168.628 101.746C167.222 101.746 166.132 101.331 165.375 100.484C164.619 99.6549 164.233 98.5554 164.233 97.2215H164.25ZM164.25 106.252C164.25 104.918 164.655 103.819 165.463 102.99C166.272 102.16 167.345 101.746 168.646 101.746C170.052 101.746 171.142 102.16 171.898 102.99C172.654 103.819 173.041 104.918 173.041 106.252C173.041 107.694 172.637 108.812 171.81 109.587C170.984 110.362 169.929 110.758 168.628 110.758C167.222 110.758 166.132 110.344 165.375 109.515C164.619 108.685 164.233 107.586 164.233 106.252H164.25ZM164.25 115.283C164.25 113.949 164.655 112.849 165.463 112.02C166.272 111.191 167.345 110.776 168.646 110.776C170.052 110.776 171.142 111.191 171.898 112.02C172.654 112.849 173.041 113.949 173.041 115.283C173.041 116.725 172.637 117.842 171.81 118.617C170.984 119.392 169.929 119.789 168.628 119.789C167.222 119.789 166.132 119.374 165.375 118.545C164.619 117.716 164.233 116.616 164.233 115.283H164.25Z" fill="white"/>
<path d="M339.982 90.6966C335.938 107.171 336.835 115.481 341.336 116.707C351.832 119.627 356.492 86.8393 348.685 86.0823C346.276 85.7758 344.94 86.0822 342.074 89.6151L341.477 89.0023C348.228 79.1427 361.45 68.8324 367.305 72.3833C381.423 80.9992 360.553 119.014 339.683 119.014C331.279 119.014 321.064 112.236 317.02 104.396L338.945 40.8218H337.292C321.679 89.3087 304.871 120.852 293.161 120.852C275.597 120.852 267.931 107.46 267.931 95.7616C267.931 59.5856 344.659 28.6549 345.257 6.03366C345.257 3.25782 344.202 2.50079 342.408 2.50079C330.857 2.35659 303.974 44.5168 288.819 44.5168C281.311 44.5168 277.707 35.1259 277.707 28.2043C277.707 17.4254 280.256 7.5838 282.805 3.27585L283.104 3.72647C278.146 14.956 285.812 19.8948 292.862 19.8948C314.031 19.8948 328.747 0.5 344.817 0.5C352.325 0.5 360.729 7.11515 358.179 24.5092C356.228 37.2888 343.762 75.9162 340 90.6966H339.982ZM340.879 18.8133C315.948 45.4361 291.79 56.6837 290.577 84.6944C290.278 91.6159 293.284 96.2303 299.737 96.2303C320.009 96.2303 332.017 52.6821 341.635 19.5884L340.879 18.8133Z" fill="white"/>
<path d="M381.141 26.1136C379.453 26.1136 378.082 25.5729 377.027 24.4914C375.972 23.4099 375.445 22.0039 375.445 20.2735V2.98765H398.213V14.4335H409.589V8.80972C409.589 7.07933 410.116 5.67339 411.171 4.5919C412.226 3.5104 413.598 2.96967 415.285 2.96967H437.843C439.531 2.96967 440.902 3.5104 441.957 4.5919C443.012 5.67339 443.54 7.07933 443.54 8.80972V14.4335H449.236C450.924 14.4335 452.296 14.9742 453.35 16.0557C454.405 17.1372 454.933 18.5431 454.933 20.2735V26.1136H460.629C462.317 26.1136 463.689 26.6544 464.744 27.7359C465.799 28.8174 466.326 30.2233 466.326 31.9537V119.284H443.557V37.7937H437.861C436.173 37.7937 434.801 37.253 433.747 36.1715C432.692 35.09 432.164 33.6841 432.164 31.9537V26.1136H409.607V31.9537C409.607 33.6841 409.079 35.09 408.024 36.1715C406.969 37.253 405.598 37.7937 403.91 37.7937H398.213V119.284H375.445V43.6338C375.445 41.9035 375.972 40.4975 377.027 39.416C378.082 38.3345 379.453 37.7937 381.141 37.7937H386.838V26.1316H381.141V26.1136Z" fill="white"/>
<path d="M472.233 53.4029C472.233 45.2917 473.253 38.0096 475.293 31.5387C477.332 25.0677 480.198 19.5161 483.89 14.9377C487.582 10.3594 491.925 6.82655 496.918 4.41121C501.929 1.97785 507.38 0.770203 513.305 0.770203C521.076 0.770203 527.335 2.24825 532.065 5.22236C536.812 8.19646 540.487 12.1799 543.124 17.1728C545.761 22.1657 547.572 27.8075 548.557 34.0802C549.541 40.3529 550.034 46.8058 550.034 53.4209C550.034 60.0361 549.577 66.507 548.645 72.8698C547.73 79.2146 545.919 84.8384 543.212 89.7772C540.522 94.698 536.794 98.6454 532.047 101.619C527.318 104.594 521.059 106.072 513.287 106.072C507.362 106.072 501.894 104.864 496.901 102.431C491.908 99.9973 487.547 96.5365 483.873 92.0123C480.18 87.488 477.315 81.9904 475.275 75.5014C473.236 69.0305 472.216 61.6763 472.216 53.439L472.233 53.4029ZM545.111 74.456L546.5 53.7994L545.111 32.5481V2.78898H564.855V111.119C564.855 121.771 562.552 129.684 557.946 134.803C553.339 139.94 546.166 142.5 536.425 142.5H482.114V122.258H540.188C541.243 122.258 542.087 122.186 542.755 122.06C543.423 121.916 543.898 121.681 544.232 121.339C544.566 120.996 544.794 120.474 544.917 119.717C545.04 118.977 545.111 118.058 545.111 116.977V74.456ZM491.591 53.4029C491.591 65.1551 493.859 74.0595 498.413 80.1338C502.967 86.2082 509.648 89.2364 518.456 89.2364C527.265 89.2364 534.157 86.2082 538.711 80.1338C543.247 74.0595 545.515 65.1551 545.515 53.4029C545.515 41.6507 543.247 32.7464 538.711 26.672C534.175 20.5976 527.423 17.5514 518.456 17.5514C509.49 17.5514 502.949 20.5796 498.413 26.672C493.877 32.7464 491.591 41.6507 491.591 53.4029Z" fill="white"/>
<path d="M271.553 119.374H249.575L225.629 76.6373H200.926V119.374H180.162V2.82526H225.945C240.099 2.82526 250.929 6.03368 258.454 12.4505C265.979 18.8674 269.742 27.988 269.742 39.7943C269.742 45.9048 268.915 50.9878 267.245 55.0254C265.575 59.0629 263.535 62.2353 261.109 64.5065C258.683 66.7776 256.081 68.3638 253.303 69.247C250.525 70.1303 247.923 70.5629 245.496 70.5629C243.984 70.5629 242.56 70.4367 241.259 70.1663C239.958 69.896 238.674 69.6256 237.461 69.3192L236.09 74.1318C238.815 74.5463 241.189 75.3575 243.211 76.5291C245.233 77.7188 247.096 79.305 248.819 81.2697C250.542 83.2344 252.23 85.5416 253.9 88.1912C255.571 90.8409 257.311 93.869 259.122 97.2757L271.553 119.338V119.374ZM200.908 22.0939V57.5308H225.928C232.995 57.5308 238.463 56.0528 242.296 53.0967C246.129 50.1407 248.046 45.7065 248.046 39.8124C248.046 33.9182 246.129 29.3579 242.296 26.4379C238.446 23.5359 232.995 22.0939 225.928 22.0939H200.908Z" fill="white"/>
</svg>
