<svg width="412" height="174" viewBox="0 0 412 174" fill="none" xmlns="http://www.w3.org/2000/svg">
<path d="M409 0.5L408.927 7.64066C408.854 14.796 406.85 22.9365 395.937 21.2839L396.241 14.3187C399.364 14.2981 401.252 12.7582 401.277 10.3911L396.067 10.0637L395 0.678394L409 0.5Z" fill="#E4F6C8"/>
<path d="M183.114 124.192L183.226 144.283C183.226 144.283 227.805 126.546 200.231 144.283C186.09 155.134 183.484 155.779 183.484 155.779L184.908 172.533L246.059 173.5L250 149.068L223.908 149.328L236.374 137.075C236.374 137.075 263.859 115.201 209.478 118.927C179.753 123.104 183.114 124.192 183.114 124.192Z" fill="#FE73E7"/>
<path d="M254 118.761L255.27 137.09L286.458 134.36L264.164 144.183L270.14 154.189L287.529 154.608C287.529 154.608 296.977 154.645 287.433 159.465C266.096 159.794 257.628 157.749 257.628 157.749L255.869 172.611C255.869 172.611 328.009 178.927 326.989 157.894C317.248 142.782 299.129 139.125 299.129 139.125L317.403 130.288L313.151 115.5L254 118.761Z" fill="#FE73E7"/>
<path d="M264.753 1.11538L290.487 1.11538L301.086 69.4499L304.88 0.741755L329 0.5L318.61 108.905L297.047 107.87L286.997 82.734L285.689 106.967L260 109.5L264.753 1.11538Z" fill="#FFF4E2"/>
<path d="M199.786 8.42635L206.742 28.8905C206.742 28.8905 213.265 22.7989 228.045 22.9691C239.989 22.9691 233.575 45.7228 233.575 45.7228C233.575 45.7228 193.218 23.3182 191.089 68.0803C188.961 112.842 225.601 100.367 225.601 100.367L224.711 109.801L247.487 112.5C247.487 112.5 252.012 86.8405 255 33.1849C255 -20.8708 199.786 8.42635 199.786 8.42635ZM228.701 77.3209C227.165 78.8046 212.911 85.6174 214.239 70.1717C215.436 56.1962 229.624 60.9666 230.289 64.6907C230.974 68.5447 231.081 75.6218 228.701 77.3209Z" fill="#FFF4E2"/>
<path d="M403.045 76.2979C403.045 76.2979 399.166 14.0611 374.87 1.4367C340.087 -4.82573 336.16 20.1809 329.425 80.4323C322.689 140.684 327.235 173.5 379.019 173.5C416.921 170.157 410.605 119.544 410.605 119.544L408.486 87.553L365.818 90.9411L364.226 119.412L382.615 118.918C382.615 118.918 388.542 148.729 366.276 145.474C355.569 143.631 353.395 117.484 355.187 93.1954C358.024 16.9775 371.713 50.5487 374.88 80.2237L403.045 76.2979Z" fill="#FFF4E2"/>
<path d="M0 0.5L74.597 0.5L84 29.4403L45.9188 29.4403L45.9188 173.5H17.6272L18.4878 29.4403L0 29.4403L0 0.5Z" fill="#FFF4E2"/>
<path d="M85.5097 37.5L58.3749 37.5L54 172.45L81.7583 173.5L81.4075 133.282C82.455 100.552 93.0973 119.533 97.001 131.774C101.398 145.106 112.22 172.45 112.22 172.45H140L85.5097 37.5ZM78.4752 98.6019L77.1936 70.9894L87.1931 96.0544C87.1931 96.0544 83.0871 94.0168 78.4723 98.6019H78.4752Z" fill="#FFF4E2"/>
<path d="M171.355 118.241C171.355 118.241 192.534 113.236 201 112.913L162.315 54.2523C162.315 54.2523 197.418 33.9875 191.727 16.1779C184.559 -6.2606 84 1.97632 84 1.97632L148.748 173.5L176.954 173.5L136.687 67.6467L171.355 118.241ZM120.027 24.0021C120.027 24.0021 152.135 20.5501 152.135 28.6089C152.135 38.9726 128.016 43.6081 128.016 43.6081L120.027 24.0021Z" fill="#FFF4E2"/>
</svg>
