<svg width="412" height="174" viewBox="0 0 412 174" fill="none" xmlns="http://www.w3.org/2000/svg">
<path d="M409.5 0.5L409.427 7.64066C409.354 14.796 407.35 22.9365 396.437 21.2839L396.741 14.3187C399.864 14.2981 401.752 12.7582 401.777 10.3911L396.567 10.0637L395.5 0.678394L409.5 0.5Z" fill="white"/>
<path d="M183.614 124.192L183.726 144.283C183.726 144.283 228.305 126.546 200.731 144.283C186.59 155.134 183.984 155.779 183.984 155.779L185.408 172.533L246.559 173.5L250.5 149.068L224.408 149.328L236.874 137.075C236.874 137.075 264.359 115.201 209.978 118.927C180.253 123.104 183.614 124.192 183.614 124.192Z" fill="#F8F8F8"/>
<path d="M254.5 118.761L255.77 137.09L286.958 134.36L264.664 144.183L270.64 154.189L288.029 154.608C288.029 154.608 297.477 154.645 287.933 159.465C266.596 159.794 258.128 157.749 258.128 157.749L256.369 172.611C256.369 172.611 328.509 178.927 327.489 157.894C317.748 142.782 299.629 139.125 299.629 139.125L317.903 130.288L313.651 115.5L254.5 118.761Z" fill="#F8F8F8"/>
<path d="M265.253 1.11538L290.987 1.11538L301.586 69.4499L305.38 0.741755L329.5 0.5L319.11 108.905L297.547 107.87L287.497 82.734L286.189 106.967L260.5 109.5L265.253 1.11538Z" fill="white"/>
<path d="M200.286 8.42635L207.242 28.8905C207.242 28.8905 213.765 22.7989 228.545 22.9691C240.489 22.9691 234.075 45.7228 234.075 45.7228C234.075 45.7228 193.718 23.3182 191.589 68.0803C189.461 112.842 226.101 100.367 226.101 100.367L225.211 109.801L247.987 112.5C247.987 112.5 252.512 86.8405 255.5 33.1849C255.5 -20.8708 200.286 8.42635 200.286 8.42635ZM229.201 77.3209C227.665 78.8046 213.411 85.6174 214.739 70.1717C215.936 56.1962 230.124 60.9666 230.789 64.6907C231.474 68.5447 231.581 75.6218 229.201 77.3209Z" fill="white"/>
<path d="M403.545 76.2979C403.545 76.2979 399.666 14.0611 375.37 1.4367C340.587 -4.82573 336.66 20.1809 329.925 80.4323C323.189 140.684 327.735 173.5 379.519 173.5C417.421 170.157 411.105 119.544 411.105 119.544L408.986 87.553L366.318 90.9411L364.726 119.412L383.115 118.918C383.115 118.918 389.042 148.729 366.776 145.474C356.069 143.631 353.895 117.484 355.687 93.1954C358.524 16.9775 372.213 50.5487 375.38 80.2237L403.545 76.2979Z" fill="white"/>
<path d="M0.5 0.5L75.097 0.5L84.5 29.4403L46.4188 29.4403L46.4188 173.5H18.1272L18.9878 29.4403L0.5 29.4403L0.5 0.5Z" fill="white"/>
<path d="M86.0097 37.5L58.8749 37.5L54.5 172.45L82.2583 173.5L81.9075 133.282C82.955 100.552 93.5973 119.533 97.501 131.774C101.898 145.106 112.72 172.45 112.72 172.45H140.5L86.0097 37.5ZM78.9752 98.6019L77.6936 70.9894L87.6931 96.0544C87.6931 96.0544 83.5871 94.0168 78.9723 98.6019H78.9752Z" fill="white"/>
<path d="M171.855 118.241C171.855 118.241 193.034 113.236 201.5 112.913L162.815 54.2523C162.815 54.2523 197.918 33.9875 192.227 16.1779C185.059 -6.2606 84.5 1.97632 84.5 1.97632L149.248 173.5L177.454 173.5L137.187 67.6467L171.855 118.241ZM120.527 24.0021C120.527 24.0021 152.635 20.5501 152.635 28.6089C152.635 38.9726 128.516 43.6081 128.516 43.6081L120.527 24.0021Z" fill="white"/>
</svg>
