<svg width="962" height="509" viewBox="0 0 962 509" fill="none" xmlns="http://www.w3.org/2000/svg">
<g clip-path="url(#clip0_2941_326)">
<path fill-rule="evenodd" clip-rule="evenodd" d="M0 508.319L-2.22193e-05 0.000183105L721.633 0.000151562C721.673 22.0352 739.548 39.8858 761.592 39.8858C783.637 39.8858 801.512 22.0352 801.552 0.000148069L961.389 0.000141082L961.389 508.319L801.552 508.319C801.552 508.294 801.552 508.27 801.552 508.245C801.552 486.176 783.661 468.286 761.592 468.286C739.523 468.286 721.633 486.176 721.633 508.245C721.633 508.27 721.633 508.294 721.633 508.319L0 508.319Z" fill="#ED3C71"/>
<path d="M762.109 468.286L762.109 39.886" stroke="#E4F6C8" stroke-width="6.05669" stroke-dasharray="12.11 12.11"/>
<path d="M276.678 75.7702L323.199 115.467L423.315 74.2772L399.99 121.227L538.29 95.3923L450.461 138.839L595.262 134.278L463.051 164.269L581.18 182.027L434.875 191.691L499.271 227.699L372.387 214.822L368.298 260.832L289.904 228.365L218.265 273.836L206.321 229.216L83.5448 263.731L140.785 217.18L-5.00144 232.833L108.311 195.015L-27.0885 188.22L116.338 167.799L22.3436 140.111L163.026 141.766L131.97 99.5292L237.681 122.88L276.678 75.7702Z" fill="#6421F4"/>
<g filter="url(#filter0_d_2941_326)">
<path d="M495.514 82.2011L495.79 88.8451C496.066 95.5008 494.453 103.177 483.416 102.217L483.38 95.7242C486.514 95.5393 488.331 94.0091 488.244 91.8067L482.998 91.7769L481.468 83.1068L495.514 82.2011Z" fill="#D0EB4C"/>
<path d="M287.211 211.089L288.328 230.252C288.328 230.252 330.224 211.081 304.65 229.393C291.622 240.459 289.153 241.205 289.153 241.205L291.359 257.109L350.105 254.942L352.662 231.437L327.629 233.004L338.981 220.686C338.981 220.686 364.265 198.431 312.252 204.733C283.926 210.224 287.211 211.089 287.211 211.089Z" fill="#D0EB4C"/>
<path d="M351.191 201.888L353.329 219.511L382.846 215.317L362.146 225.913L368.339 235.268L384.895 234.802C384.895 234.802 393.881 234.366 385.046 239.494C364.774 240.879 356.618 239.33 356.618 239.33L355.702 253.758C355.702 253.758 424.617 256.243 422.579 235.999C412.549 221.9 395.135 219.276 395.135 219.276L412.059 209.83L407.269 195.772L351.191 201.888Z" fill="#D0EB4C"/>
<path d="M356.884 89.8923L381.237 88.6107L394.697 153.259L394.839 87.5375L417.653 86.106L413.262 190.019L392.804 190.105L382.031 166.632L382.009 189.809L357.826 193.506L356.884 89.8923Z" fill="#D0EB4C"/>
<path d="M295.598 100.436L303.223 119.491C303.223 119.491 309.115 113.391 323.152 112.816C334.492 112.219 329.538 134.106 329.538 134.106C329.538 134.106 290.104 114.888 290.322 157.419C290.539 199.95 324.698 186.297 324.698 186.297L324.323 195.284L346.085 196.703C346.085 196.703 349.102 172.155 349.26 121.151C346.558 69.9128 295.598 100.436 295.598 100.436ZM326.486 164.292C325.105 165.771 311.909 172.945 312.399 158.235C312.838 144.929 326.547 148.741 327.364 152.237C328.206 155.859 328.661 162.561 326.486 164.292Z" fill="#D0EB4C"/>
<path d="M492.63 154.559C492.63 154.559 485.815 95.4723 462.014 84.6667C428.534 80.451 426.042 104.463 422.64 162.192C419.237 219.922 425.217 250.951 474.595 248.352C510.569 243.265 502.009 195.373 502.009 195.373L498.386 165.008L457.873 170.376L457.78 197.573L475.291 196.182C475.291 196.182 482.437 224.28 461.044 222.297C450.739 221.081 447.358 196.282 447.847 173.061C446.733 100.318 461.468 131.611 465.979 159.716L492.63 154.559Z" fill="#D0EB4C"/>
</g>
<g filter="url(#filter1_d_2941_326)">
<path d="M104.604 102.874L176.192 99.1063L186.663 126.13L150.117 128.054L157.321 264.937L130.171 266.365L123.793 129.439L106.052 130.372L104.604 102.874Z" fill="#D0EB4C"/>
<path d="M188.166 133.134L162.497 134.485L165.136 263.519L191.448 263.141L189.097 224.77C188.443 193.474 199.464 211.058 203.768 222.551C208.594 235.056 220.208 260.621 220.208 260.621L246.487 259.238L188.166 133.134ZM184.578 191.809L181.978 165.516L192.699 188.943C192.699 188.943 188.712 187.201 184.578 191.808L184.578 191.809Z" fill="#D0EB4C"/>
<path d="M274.09 205.926C274.09 205.926 293.963 200.102 301.997 199.372L262.301 145.473C262.301 145.473 294.637 124.432 288.334 107.769C280.4 86.7627 185.267 99.6335 185.267 99.6335L255.374 259.65L282.171 258.24L238.613 159.501L274.09 205.926ZM220.603 118.796C220.603 118.796 250.942 113.905 251.346 121.575C251.865 131.438 229.184 137.058 229.184 137.058L220.603 118.796Z" fill="#D0EB4C"/>
</g>
<path d="M602.158 362.421L625.137 364.104L618.597 341.677L637.55 354.834L642.942 331.967L652.791 353.074L668.669 335.894L666.774 359.295L688.884 352.405L675.754 371.83L698.172 377.076L677.324 387.32L694.043 403.297L671.064 401.615L677.604 424.042L658.651 410.884L653.259 433.752L643.41 412.645L627.532 429.825L629.427 406.424L607.317 413.314L620.447 393.889L598.029 388.642L618.877 378.399L602.158 362.421Z" fill="#E4F6C8"/>
<path d="M602.158 233.562L625.137 235.245L618.597 212.818L637.55 225.975L642.942 203.108L652.791 224.215L668.669 207.035L666.774 230.436L688.884 223.546L675.754 242.971L698.172 248.218L677.324 258.461L694.043 274.439L671.064 272.756L677.604 295.183L658.651 282.026L653.259 304.893L643.41 283.786L627.532 300.966L629.427 277.565L607.317 284.455L620.447 265.03L598.029 259.783L618.877 249.54L602.158 233.562Z" fill="#E4F6C8"/>
<path d="M602.158 104.747L625.137 106.43L618.597 84.0026L637.55 97.1603L642.942 74.2928L652.791 95.4002L668.669 78.2197L666.774 101.621L688.884 94.731L675.754 114.156L698.172 119.402L677.324 129.646L694.043 145.624L671.064 143.941L677.604 166.368L658.651 153.21L653.259 176.078L643.41 154.971L627.532 172.151L629.427 148.75L607.317 155.64L620.447 136.215L598.029 130.968L618.877 120.725L602.158 104.747Z" fill="#E4F6C8"/>
<path d="M638.601 138.985C638.961 138.985 639.341 139.045 639.742 139.165C640.182 139.285 640.662 139.525 641.183 139.886C641.864 140.406 642.664 140.867 643.585 141.267C644.546 141.667 645.647 141.868 646.888 141.868C648.129 141.868 649.29 141.567 650.372 140.967C651.493 140.326 652.413 139.445 653.134 138.324C653.855 137.163 654.215 135.782 654.215 134.18C654.215 132.659 653.895 131.398 653.254 130.397C652.654 129.396 651.833 128.635 650.792 128.115C649.791 127.594 648.71 127.334 647.549 127.334C646.668 127.334 645.927 127.414 645.327 127.574C644.766 127.734 644.206 127.915 643.645 128.115C643.125 128.275 642.504 128.355 641.783 128.355C640.863 128.355 640.142 128.035 639.621 127.394C639.141 126.754 638.901 125.993 638.901 125.112C638.901 124.552 639.001 124.051 639.201 123.611C639.441 123.17 639.782 122.69 640.222 122.169L650.792 110.939L652.413 112.32H637.64C636.679 112.32 635.878 112 635.237 111.359C634.597 110.719 634.276 109.918 634.276 108.957C634.276 108.036 634.597 107.275 635.237 106.675C635.878 106.034 636.679 105.714 637.64 105.714H656.017C657.258 105.714 658.179 106.054 658.779 106.735C659.42 107.416 659.74 108.276 659.74 109.317C659.74 109.838 659.6 110.358 659.32 110.879C659.04 111.359 658.699 111.8 658.299 112.2L647.669 123.611L646.047 121.569C646.488 121.369 647.088 121.188 647.849 121.028C648.65 120.868 649.311 120.788 649.831 120.788C652.193 120.788 654.235 121.409 655.957 122.65C657.718 123.851 659.06 125.432 659.98 127.394C660.941 129.316 661.422 131.398 661.422 133.64C661.422 136.603 660.761 139.165 659.44 141.327C658.119 143.489 656.257 145.151 653.855 146.312C651.453 147.473 648.65 148.053 645.447 148.053C643.966 148.053 642.504 147.873 641.063 147.513C639.621 147.153 638.38 146.672 637.339 146.072C636.459 145.591 635.858 145.071 635.538 144.51C635.257 143.91 635.117 143.349 635.117 142.829C635.117 141.908 635.438 141.047 636.078 140.246C636.759 139.405 637.6 138.985 638.601 138.985Z" fill="#1E1E1E"/>
<path d="M653.711 276.416C652.71 276.416 651.869 276.075 651.189 275.395C650.508 274.674 650.168 273.793 650.168 272.752V244.526L651.429 244.826L639.838 259.18L639.538 258.399H660.798C661.759 258.399 662.559 258.719 663.2 259.36C663.841 260 664.161 260.801 664.161 261.762C664.161 262.683 663.841 263.464 663.2 264.104C662.559 264.705 661.759 265.005 660.798 265.005H634.553C633.713 265.005 632.892 264.665 632.091 263.984C631.33 263.304 630.95 262.463 630.95 261.462C630.95 260.581 631.25 259.78 631.851 259.06L650.828 235.818C651.149 235.377 651.569 235.037 652.09 234.797C652.61 234.517 653.191 234.377 653.831 234.377C654.872 234.377 655.713 234.737 656.354 235.458C657.034 236.138 657.375 236.999 657.375 238.04V272.752C657.375 273.793 657.014 274.674 656.294 275.395C655.613 276.075 654.752 276.416 653.711 276.416Z" fill="#1E1E1E"/>
<path d="M645.175 405.98C643.693 405.98 642.112 405.76 640.43 405.319C638.749 404.839 637.367 404.158 636.286 403.277C635.766 402.837 635.346 402.276 635.025 401.596C634.745 400.875 634.605 400.194 634.605 399.554C634.605 398.873 634.885 398.233 635.446 397.632C636.046 397.031 636.887 396.731 637.968 396.731C638.689 396.731 639.59 397.112 640.671 397.872C641.311 398.273 642.012 398.633 642.773 398.953C643.533 399.274 644.314 399.434 645.115 399.434C647.037 399.434 648.698 399.093 650.099 398.413C651.501 397.692 652.582 396.711 653.342 395.47C654.103 394.229 654.483 392.768 654.483 391.086C654.483 389.565 654.123 388.263 653.402 387.182C652.722 386.101 651.801 385.26 650.64 384.66C649.519 384.059 648.298 383.759 646.976 383.759C645.735 383.759 644.654 383.959 643.733 384.36C642.813 384.76 641.972 385.18 641.211 385.621C640.45 386.021 639.69 386.221 638.929 386.221C637.608 386.221 636.627 385.941 635.986 385.381C635.346 384.78 634.945 384.079 634.785 383.279C634.625 382.478 634.585 381.757 634.665 381.117L636.527 366.523C636.687 365.682 637.087 365.002 637.728 364.481C638.408 363.921 639.209 363.64 640.13 363.64H657.486C658.447 363.64 659.248 363.961 659.889 364.601C660.529 365.242 660.849 366.043 660.849 367.003C660.849 367.924 660.529 368.705 659.889 369.346C659.248 369.946 658.447 370.246 657.486 370.246H641.992L642.652 369.706L641.031 381.897L640.25 379.615C640.49 379.215 641.011 378.835 641.812 378.474C642.612 378.114 643.533 377.814 644.574 377.573C645.615 377.293 646.636 377.153 647.637 377.153C650.32 377.153 652.722 377.774 654.844 379.015C656.966 380.216 658.627 381.877 659.828 383.999C661.07 386.081 661.69 388.443 661.69 391.086C661.69 394.089 661.01 396.711 659.648 398.953C658.287 401.195 656.365 402.937 653.883 404.178C651.441 405.379 648.538 405.98 645.175 405.98Z" fill="#1E1E1E"/>
<rect x="868.356" y="306.193" width="28.0779" height="48.6684" transform="rotate(-90 868.356 306.193)" fill="#1E1E1E"/>
<rect x="868.774" y="381.276" width="11.2312" height="48.6684" transform="rotate(-90 868.774 381.276)" fill="#1E1E1E"/>
<rect x="868.562" y="365.885" width="4.1597" height="48.8764" transform="rotate(-90 868.562 365.885)" fill="#1E1E1E"/>
<rect x="868.562" y="356.733" width="3.32776" height="48.8764" transform="rotate(-90 868.562 356.733)" fill="#1E1E1E"/>
<rect x="868.562" y="348.414" width="3.95171" height="48.6684" transform="rotate(-90 868.562 348.414)" fill="#1E1E1E"/>
<rect x="868.562" y="341.759" width="17.4707" height="48.6684" transform="rotate(-90 868.562 341.759)" fill="#1E1E1E"/>
<rect x="868.354" y="320.752" width="4.57567" height="48.8764" transform="rotate(-90 868.354 320.752)" fill="#1E1E1E"/>
<rect x="868.354" y="312.433" width="3.32776" height="48.8764" transform="rotate(-90 868.354 312.433)" fill="#1E1E1E"/>
<rect x="867.941" y="199.289" width="11.2312" height="48.8764" transform="rotate(-90 867.941 199.289)" fill="#1E1E1E"/>
<rect x="867.938" y="184.106" width="4.1597" height="48.6684" transform="rotate(-90 867.938 184.106)" fill="#1E1E1E"/>
<rect x="867.938" y="174.747" width="3.32776" height="48.6684" transform="rotate(-90 867.938 174.747)" fill="#1E1E1E"/>
<rect x="867.941" y="166.635" width="4.1597" height="48.6684" transform="rotate(-90 867.941 166.635)" fill="#1E1E1E"/>
<rect x="867.73" y="159.772" width="17.2627" height="48.8764" transform="rotate(-90 867.73 159.772)" fill="#1E1E1E"/>
<rect x="867.73" y="138.765" width="4.57567" height="48.8764" transform="rotate(-90 867.73 138.765)" fill="#1E1E1E"/>
<rect x="867.73" y="130.446" width="3.32776" height="48.6684" transform="rotate(-90 867.73 130.446)" fill="#1E1E1E"/>
<rect x="868.356" y="275.412" width="11.4392" height="48.6684" transform="rotate(-90 868.356 275.412)" fill="#1E1E1E"/>
<rect x="868.146" y="260.021" width="4.1597" height="48.8764" transform="rotate(-90 868.146 260.021)" fill="#1E1E1E"/>
<rect x="868.146" y="250.869" width="3.53574" height="48.8764" transform="rotate(-90 868.146 250.869)" fill="#1E1E1E"/>
<rect x="868.146" y="242.55" width="4.1597" height="48.8764" transform="rotate(-90 868.146 242.55)" fill="#1E1E1E"/>
<rect x="868.146" y="235.687" width="17.2627" height="48.6684" transform="rotate(-90 868.146 235.687)" fill="#1E1E1E"/>
<rect x="868.146" y="214.68" width="4.57567" height="48.6684" transform="rotate(-90 868.146 214.68)" fill="#1E1E1E"/>
<rect x="867.938" y="206.568" width="3.53574" height="48.8764" transform="rotate(-90 867.938 206.568)" fill="#1E1E1E"/>
<path d="M809.994 376.612C809.994 375.485 810.319 374.434 810.969 373.459C811.619 372.463 812.496 371.661 813.601 371.054C814.706 370.448 815.941 370.144 817.306 370.144C818.649 370.144 819.873 370.448 820.978 371.054C822.083 371.661 822.972 372.463 823.643 373.459C824.293 374.434 824.618 375.485 824.618 376.612L824.618 382.592L824.033 382.267L830.761 382.267C831.324 382.267 831.801 382.44 832.191 382.787C832.559 383.133 832.743 383.588 832.743 384.152C832.743 384.693 832.559 385.137 832.191 385.484C831.801 385.831 831.324 386.004 830.761 386.004L811.976 386.004C811.413 386.004 810.947 385.82 810.579 385.452C810.189 385.062 809.994 384.585 809.994 384.022L809.994 376.612ZM820.913 376.612C820.913 376.2 820.74 375.799 820.393 375.409C820.047 375.019 819.603 374.694 819.061 374.434C818.498 374.174 817.913 374.044 817.306 374.044C816.678 374.044 816.093 374.174 815.551 374.434C815.009 374.694 814.576 375.019 814.251 375.409C813.904 375.799 813.731 376.2 813.731 376.612L813.731 382.657L813.146 382.267L821.433 382.267L820.913 382.624L820.913 376.612ZM832.743 362.685C832.743 363.248 832.559 363.714 832.191 364.082C831.801 364.45 831.324 364.635 830.761 364.635L817.338 364.635C816.775 364.635 816.309 364.45 815.941 364.082C815.551 363.714 815.356 363.248 815.356 362.685C815.356 362.121 815.551 361.655 815.941 361.287C816.309 360.919 816.775 360.735 817.338 360.735L820.393 360.735L818.216 360.962C817.696 360.724 817.241 360.42 816.851 360.052C816.439 359.662 816.104 359.229 815.844 358.752C815.562 358.276 815.356 357.766 815.226 357.225C815.096 356.683 815.031 356.141 815.031 355.6C815.031 354.95 815.215 354.408 815.584 353.975C815.952 353.52 816.385 353.292 816.884 353.292C817.598 353.292 818.118 353.476 818.443 353.845C818.747 354.213 818.898 354.614 818.898 355.047C818.898 355.459 818.823 355.838 818.671 356.185C818.519 356.51 818.443 356.889 818.443 357.322C818.443 357.712 818.541 358.113 818.736 358.525C818.909 358.915 819.191 359.283 819.581 359.63C819.971 359.955 820.458 360.226 821.043 360.442C821.607 360.637 822.278 360.735 823.058 360.735L830.761 360.735C831.324 360.735 831.801 360.919 832.191 361.287C832.559 361.655 832.743 362.121 832.743 362.685ZM830.761 344.758C831.324 344.758 831.801 344.942 832.191 345.311C832.559 345.679 832.743 346.145 832.743 346.708C832.743 347.271 832.559 347.737 832.191 348.106C831.801 348.474 831.324 348.658 830.761 348.658L817.338 348.658C816.775 348.658 816.309 348.474 815.941 348.106C815.551 347.737 815.356 347.271 815.356 346.708C815.356 346.145 815.551 345.679 815.941 345.311C816.309 344.942 816.775 344.758 817.338 344.758L830.761 344.758ZM813.244 346.741C813.244 347.477 813.124 347.997 812.886 348.301C812.648 348.604 812.225 348.756 811.619 348.756L811.001 348.756C810.373 348.756 809.95 348.593 809.734 348.268C809.495 347.921 809.376 347.401 809.376 346.708C809.376 345.95 809.495 345.419 809.734 345.116C809.972 344.812 810.394 344.661 811.001 344.661L811.619 344.661C812.247 344.661 812.68 344.823 812.919 345.148C813.135 345.473 813.244 346.004 813.244 346.741ZM815.031 330.903C815.031 329.668 815.161 328.595 815.421 327.685C815.681 326.754 816.049 326.039 816.526 325.54C816.981 325.02 817.533 324.76 818.183 324.76C818.617 324.76 819.028 324.89 819.418 325.15C819.787 325.41 819.971 325.79 819.971 326.288C819.971 326.635 819.928 326.927 819.841 327.165C819.733 327.382 819.603 327.577 819.451 327.75C819.299 327.924 819.158 328.13 819.028 328.368C818.898 328.585 818.801 328.92 818.736 329.375C818.649 329.809 818.606 330.134 818.606 330.35C818.606 331.455 818.844 332.398 819.321 333.178C819.798 333.936 820.448 334.521 821.271 334.933C822.073 335.344 823.004 335.55 824.066 335.55C825.106 335.55 826.037 335.344 826.861 334.933C827.662 334.499 828.302 333.914 828.778 333.178C829.255 332.419 829.493 331.553 829.493 330.578C829.493 330.036 829.461 329.57 829.396 329.18C829.331 328.79 829.233 328.465 829.103 328.205C828.93 327.902 828.746 327.631 828.551 327.393C828.356 327.155 828.258 326.797 828.258 326.32C828.258 325.757 828.442 325.324 828.811 325.02C829.157 324.717 829.591 324.565 830.111 324.565C830.652 324.565 831.151 324.869 831.606 325.475C832.039 326.082 832.397 326.884 832.678 327.88C832.938 328.855 833.068 329.917 833.068 331.065C833.068 332.777 832.678 334.261 831.898 335.518C831.097 336.774 830.013 337.749 828.648 338.443C827.283 339.114 825.756 339.45 824.066 339.45C822.289 339.45 820.729 339.093 819.386 338.378C818.021 337.641 816.959 336.634 816.201 335.355C815.421 334.055 815.031 332.571 815.031 330.903ZM833.068 311.451C833.068 313.293 832.689 314.896 831.931 316.261C831.151 317.604 830.1 318.644 828.778 319.381C827.457 320.096 825.962 320.453 824.293 320.453C822.343 320.453 820.686 320.063 819.321 319.283C817.934 318.482 816.873 317.442 816.136 316.163C815.399 314.885 815.031 313.531 815.031 312.101C815.031 310.996 815.259 309.956 815.714 308.981C816.169 307.984 816.797 307.107 817.598 306.349C818.378 305.59 819.288 304.994 820.328 304.561C821.368 304.106 822.473 303.879 823.643 303.879C824.163 303.9 824.586 304.106 824.911 304.496C825.236 304.886 825.398 305.341 825.398 305.861L825.398 318.276L822.148 319.251L822.148 307.324L822.798 308.039L821.921 308.039C821.293 308.082 820.729 308.309 820.231 308.721C819.733 309.111 819.343 309.609 819.061 310.216C818.758 310.801 818.606 311.429 818.606 312.101C818.606 312.751 818.693 313.358 818.866 313.921C819.039 314.484 819.332 314.972 819.743 315.383C820.155 315.795 820.708 316.12 821.401 316.358C822.094 316.597 822.972 316.716 824.033 316.716C825.203 316.716 826.2 316.478 827.023 316.001C827.825 315.503 828.442 314.874 828.876 314.116C829.287 313.336 829.493 312.513 829.493 311.646C829.493 310.844 829.428 310.205 829.298 309.729C829.168 309.252 829.017 308.873 828.843 308.591C828.648 308.288 828.486 308.017 828.356 307.779C828.161 307.389 828.063 307.02 828.063 306.674C828.063 306.197 828.226 305.807 828.551 305.504C828.876 305.179 829.255 305.016 829.688 305.016C830.273 305.016 830.804 305.319 831.281 305.926C831.757 306.489 832.18 307.28 832.548 308.299C832.895 309.317 833.068 310.368 833.068 311.451ZM820.036 285.025C820.036 285.654 819.873 286.141 819.548 286.488C819.202 286.813 818.714 286.975 818.086 286.975L817.533 286.975C816.905 286.975 816.429 286.813 816.104 286.488C815.757 286.141 815.584 285.654 815.584 285.025L815.584 284.603C815.584 283.974 815.757 283.498 816.104 283.173C816.429 282.826 816.905 282.653 817.533 282.653L818.086 282.653C818.714 282.653 819.202 282.826 819.548 283.173C819.873 283.498 820.036 283.974 820.036 284.603L820.036 285.025ZM832.743 285.025C832.743 285.654 832.581 286.141 832.256 286.488C831.909 286.813 831.422 286.975 830.793 286.975L830.241 286.975C829.612 286.975 829.136 286.813 828.811 286.488C828.464 286.141 828.291 285.654 828.291 285.025L828.291 284.603C828.291 283.974 828.464 283.498 828.811 283.173C829.136 282.826 829.612 282.653 830.241 282.653L830.793 282.653C831.422 282.653 831.909 282.826 832.256 283.173C832.581 283.498 832.743 283.974 832.743 284.603L832.743 285.025ZM832.743 259.295C832.743 259.902 832.559 260.4 832.191 260.79C831.801 261.18 831.324 261.375 830.761 261.375L814.381 261.375L815.096 260.92L816.851 263.293C817.089 263.596 817.208 263.975 817.208 264.43C817.208 264.95 817.013 265.405 816.624 265.795C816.234 266.185 815.768 266.38 815.226 266.38C814.533 266.38 813.969 266.044 813.536 265.373L810.416 260.693C810.264 260.476 810.156 260.238 810.091 259.978C810.026 259.696 809.994 259.436 809.994 259.198C809.994 258.569 810.189 258.071 810.579 257.703C810.947 257.334 811.413 257.15 811.976 257.15L830.761 257.15C831.324 257.15 831.801 257.356 832.191 257.768C832.559 258.158 832.743 258.667 832.743 259.295ZM809.571 243.089C809.571 241.919 809.82 240.868 810.319 239.936C810.795 238.983 811.456 238.181 812.301 237.531C813.146 236.86 814.099 236.351 815.161 236.004C816.201 235.636 817.295 235.451 818.443 235.451C819.18 235.451 820.079 235.538 821.141 235.711C822.203 235.863 823.329 236.145 824.521 236.556C825.691 236.968 826.839 237.542 827.966 238.279C829.071 239.015 830.067 239.958 830.956 241.106C831.844 242.233 832.516 243.62 832.971 245.266C833.036 245.526 833.068 245.775 833.068 246.014C833.068 246.512 832.938 246.967 832.678 247.379C832.396 247.769 831.92 247.964 831.248 247.964C830.75 247.964 830.327 247.812 829.981 247.509C829.634 247.184 829.385 246.761 829.233 246.241C828.93 245.244 828.432 244.28 827.738 243.349C827.023 242.395 826.167 241.572 825.171 240.879C824.153 240.185 823.048 239.72 821.856 239.481L821.888 238.604C822.235 238.885 822.625 239.254 823.058 239.709C823.492 240.142 823.871 240.684 824.196 241.334C824.499 241.962 824.651 242.72 824.651 243.609C824.651 245.039 824.348 246.284 823.741 247.346C823.113 248.386 822.235 249.199 821.108 249.784C819.96 250.369 818.628 250.661 817.111 250.661C815.746 250.661 814.489 250.325 813.341 249.654C812.193 248.96 811.283 248.039 810.611 246.891C809.918 245.743 809.571 244.475 809.571 243.089ZM813.146 243.089C813.146 243.782 813.33 244.41 813.699 244.974C814.045 245.515 814.522 245.949 815.129 246.274C815.714 246.599 816.374 246.761 817.111 246.761C817.913 246.761 818.617 246.609 819.223 246.306C819.808 246.003 820.263 245.58 820.588 245.039C820.913 244.475 821.076 243.825 821.076 243.089C821.076 242.395 820.903 241.778 820.556 241.236C820.209 240.673 819.733 240.229 819.126 239.904C818.519 239.579 817.848 239.416 817.111 239.416C816.353 239.416 815.681 239.579 815.096 239.904C814.489 240.229 814.013 240.673 813.666 241.236C813.319 241.778 813.146 242.395 813.146 243.089ZM809.571 222.505C809.571 221.335 809.82 220.284 810.319 219.353C810.795 218.399 811.456 217.598 812.301 216.948C813.146 216.276 814.099 215.767 815.161 215.42C816.201 215.052 817.295 214.868 818.443 214.868C819.18 214.868 820.079 214.954 821.141 215.128C822.203 215.279 823.329 215.561 824.521 215.973C825.691 216.384 826.839 216.958 827.966 217.695C829.071 218.432 830.067 219.374 830.956 220.522C831.844 221.649 832.516 223.036 832.971 224.682C833.036 224.942 833.068 225.192 833.068 225.43C833.068 225.928 832.938 226.383 832.678 226.795C832.396 227.185 831.92 227.38 831.248 227.38C830.75 227.38 830.327 227.228 829.981 226.925C829.634 226.6 829.385 226.177 829.233 225.657C828.93 224.661 828.432 223.697 827.738 222.765C827.023 221.812 826.167 220.988 825.171 220.295C824.153 219.602 823.048 219.136 821.856 218.898L821.888 218.02C822.235 218.302 822.625 218.67 823.058 219.125C823.492 219.558 823.871 220.1 824.196 220.75C824.499 221.378 824.651 222.137 824.651 223.025C824.651 224.455 824.348 225.701 823.741 226.762C823.113 227.802 822.235 228.615 821.108 229.2C819.96 229.785 818.628 230.077 817.111 230.077C815.746 230.077 814.489 229.741 813.341 229.07C812.193 228.376 811.283 227.456 810.611 226.307C809.918 225.159 809.571 223.892 809.571 222.505ZM813.146 222.505C813.146 223.198 813.33 223.827 813.699 224.39C814.045 224.932 814.522 225.365 815.129 225.69C815.714 226.015 816.374 226.177 817.111 226.177C817.913 226.177 818.617 226.026 819.223 225.722C819.808 225.419 820.263 224.997 820.588 224.455C820.913 223.892 821.076 223.242 821.076 222.505C821.076 221.812 820.903 221.194 820.556 220.652C820.209 220.089 819.733 219.645 819.126 219.32C818.519 218.995 817.848 218.833 817.111 218.833C816.353 218.833 815.681 218.995 815.096 219.32C814.489 219.645 814.013 220.089 813.666 220.652C813.319 221.194 813.146 221.812 813.146 222.505ZM809.571 201.921C809.571 200.751 809.82 199.7 810.319 198.769C810.795 197.815 811.456 197.014 812.301 196.364C813.146 195.692 814.099 195.183 815.161 194.836C816.201 194.468 817.295 194.284 818.443 194.284C819.18 194.284 820.079 194.371 821.141 194.544C822.203 194.696 823.329 194.977 824.521 195.389C825.691 195.801 826.839 196.375 827.966 197.111C829.071 197.848 830.067 198.79 830.956 199.939C831.844 201.065 832.516 202.452 832.971 204.099C833.036 204.359 833.068 204.608 833.068 204.846C833.068 205.344 832.938 205.799 832.678 206.211C832.396 206.601 831.92 206.796 831.248 206.796C830.75 206.796 830.327 206.644 829.981 206.341C829.634 206.016 829.385 205.594 829.233 205.074C828.93 204.077 828.432 203.113 827.738 202.181C827.023 201.228 826.167 200.405 825.171 199.711C824.153 199.018 823.048 198.552 821.856 198.314L821.888 197.436C822.235 197.718 822.625 198.086 823.058 198.541C823.492 198.975 823.871 199.516 824.196 200.166C824.499 200.795 824.651 201.553 824.651 202.441C824.651 203.871 824.348 205.117 823.741 206.179C823.113 207.219 822.235 208.031 821.108 208.616C819.96 209.201 818.628 209.494 817.111 209.494C815.746 209.494 814.489 209.158 813.341 208.486C812.193 207.793 811.283 206.872 810.611 205.724C809.918 204.575 809.571 203.308 809.571 201.921ZM813.146 201.921C813.146 202.615 813.33 203.243 813.699 203.806C814.045 204.348 814.522 204.781 815.129 205.106C815.714 205.431 816.374 205.594 817.111 205.594C817.913 205.594 818.617 205.442 819.223 205.139C819.808 204.835 820.263 204.413 820.588 203.871C820.913 203.308 821.076 202.658 821.076 201.921C821.076 201.228 820.903 200.61 820.556 200.069C820.209 199.505 819.733 199.061 819.126 198.736C818.519 198.411 817.848 198.249 817.111 198.249C816.353 198.249 815.681 198.411 815.096 198.736C814.489 199.061 814.013 199.505 813.666 200.069C813.319 200.61 813.146 201.228 813.146 201.921ZM830.761 172.814C831.324 172.814 831.801 173.02 832.191 173.431C832.559 173.843 832.743 174.32 832.743 174.861C832.743 175.468 832.559 175.955 832.191 176.324C831.801 176.692 831.324 176.876 830.761 176.876L811.976 176.876C811.413 176.876 810.947 176.681 810.579 176.291C810.189 175.901 809.994 175.403 809.994 174.796C809.994 174.276 810.189 173.821 810.579 173.431C810.947 173.02 811.413 172.814 811.976 172.814L830.761 172.814ZM809.994 148.557C809.994 148.037 810.167 147.614 810.514 147.289C810.86 146.964 811.294 146.802 811.814 146.802L830.761 146.802C831.324 146.802 831.801 146.997 832.191 147.387C832.559 147.755 832.743 148.221 832.743 148.784C832.743 149.066 832.7 149.358 832.613 149.662C832.505 149.943 832.364 150.16 832.191 150.312L815.974 163.084L815.454 162.239L830.923 162.239C831.443 162.239 831.877 162.412 832.223 162.759C832.57 163.084 832.743 163.517 832.743 164.059C832.743 164.579 832.57 165.001 832.223 165.326C831.877 165.651 831.443 165.814 830.923 165.814L811.976 165.814C811.413 165.814 810.947 165.63 810.579 165.261C810.189 164.871 809.994 164.395 809.994 163.831C809.994 163.528 810.059 163.214 810.189 162.889C810.297 162.564 810.47 162.325 810.709 162.174L826.503 149.792L826.893 150.344L811.814 150.344C811.294 150.344 810.86 150.182 810.514 149.857C810.167 149.532 809.994 149.098 809.994 148.557ZM832.743 137.463C832.743 138.07 832.559 138.611 832.191 139.088C831.801 139.565 831.324 139.803 830.761 139.803L811.976 139.803C811.413 139.803 810.947 139.619 810.579 139.25C810.189 138.86 809.994 138.384 809.994 137.82L809.994 128.461C809.994 127.334 810.297 126.283 810.904 125.308C811.489 124.312 812.312 123.51 813.374 122.903C814.414 122.297 815.616 121.993 816.981 121.993C817.804 121.993 818.606 122.167 819.386 122.513C820.166 122.838 820.87 123.293 821.498 123.878C822.127 124.442 822.614 125.081 822.961 125.796L822.213 125.763C822.538 125.157 822.928 124.658 823.383 124.268C823.817 123.857 824.293 123.542 824.813 123.326C825.312 123.087 825.853 122.947 826.438 122.903C826.98 122.817 827.457 122.762 827.868 122.741C828.28 122.697 828.627 122.632 828.908 122.546C829.19 122.437 829.407 122.242 829.558 121.961C829.84 121.484 830.252 121.192 830.793 121.083C831.313 120.953 831.779 121.072 832.191 121.441C832.472 121.679 832.656 121.982 832.743 122.351C832.808 122.719 832.808 123.087 832.743 123.456C832.656 123.824 832.548 124.127 832.418 124.366C832.201 124.734 831.887 125.102 831.476 125.471C831.042 125.839 830.468 126.142 829.753 126.381C829.038 126.597 828.117 126.706 826.991 126.706C826.622 126.706 826.287 126.771 825.983 126.901C825.658 127.031 825.387 127.215 825.171 127.453C824.932 127.691 824.759 127.995 824.651 128.363C824.521 128.731 824.456 129.165 824.456 129.663L824.456 136.228L823.708 135.74L830.761 135.74C831.324 135.74 831.801 135.892 832.191 136.195C832.559 136.499 832.743 136.921 832.743 137.463ZM821.108 136.195L821.108 128.623C821.108 128.233 820.935 127.854 820.588 127.486C820.22 127.117 819.733 126.814 819.126 126.576C818.498 126.337 817.815 126.218 817.078 126.218C816.125 126.218 815.334 126.478 814.706 126.998C814.056 127.496 813.731 128.038 813.731 128.623L813.731 136.13L812.691 135.74L821.888 135.74L821.108 136.195Z" fill="white"/>
<path d="M947.19 402.306L948.501 403.32L947.84 404.212L946.596 403.198L946.111 404.718L945.087 404.399L945.615 402.835L944.063 402.901L944.063 401.712L945.615 401.778L945.087 400.214L946.111 399.895L946.596 401.414L947.84 400.401L948.501 401.293L947.19 402.306ZM951.97 394.401L951.97 396.075L945.571 396.075L945.571 398.564L944.063 398.564L944.063 391.902L945.571 391.902L945.571 394.401L951.97 394.401ZM948.765 388.789L951.97 388.789L951.97 390.319L944.063 390.319L944.063 388.789L946.86 388.789C946.32 388.381 945.979 387.875 945.979 387.104C945.979 385.925 946.75 385.11 948.17 385.11L951.97 385.11L951.97 386.63L948.688 386.63C947.818 386.63 947.333 386.972 947.333 387.665C947.333 388.271 947.818 388.789 948.765 388.789ZM944.723 381.303C945.241 381.303 945.626 381.721 945.626 382.327C945.626 382.921 945.241 383.34 944.723 383.34C944.184 383.34 943.798 382.921 943.798 382.327C943.798 381.721 944.184 381.303 944.723 381.303ZM951.97 381.545L951.97 383.076L946.089 383.076L946.089 381.545L951.97 381.545ZM950.087 374.5C951.32 374.5 952.08 375.436 952.08 377.11C952.08 378.784 951.276 379.72 949.965 379.841L949.965 378.377C950.571 378.366 950.957 377.848 950.957 377.088C950.957 376.493 950.769 376.042 950.351 376.042C949.976 376.042 949.822 376.284 949.712 376.846L949.514 377.903C949.327 378.96 948.743 379.599 947.829 379.599C946.739 379.599 945.979 378.663 945.979 377.198C945.979 375.723 946.761 374.709 948.027 374.599L948.027 376.064C947.455 376.119 947.102 376.549 947.102 377.198C947.102 377.76 947.311 378.134 947.686 378.134C948.038 378.134 948.181 377.892 948.281 377.363L948.49 376.229C948.71 375.084 949.239 374.5 950.087 374.5ZM949.029 363.852C950.769 363.852 952.08 364.877 952.08 366.462C952.08 367.156 951.783 367.751 951.21 368.191L954.095 368.191L954.095 369.722L946.089 369.722L946.089 368.312L946.948 368.312C946.32 367.861 945.979 367.211 945.979 366.462C945.979 364.877 947.3 363.852 949.029 363.852ZM949.029 365.427C947.928 365.427 947.333 366.055 947.333 366.804C947.333 367.553 947.917 368.18 949.029 368.18C950.142 368.18 950.714 367.553 950.714 366.804C950.714 366.055 950.153 365.427 949.029 365.427ZM951.97 358.654L951.243 358.654C951.794 359.039 952.08 359.623 952.08 360.427C952.08 361.649 951.364 362.464 950.263 362.464C949.117 362.464 948.501 361.539 948.501 359.821C948.501 359.491 948.523 359.204 948.567 358.841L948.214 358.841C947.554 358.841 947.168 359.215 947.168 359.854C947.168 360.515 947.554 360.911 948.214 360.966L948.214 362.343C946.86 362.255 945.979 361.275 945.979 359.854C945.979 358.312 946.827 357.409 948.27 357.409L951.97 357.409L951.97 358.654ZM950.219 361.021C950.714 361.021 951.023 360.669 951.023 360.096C951.023 359.314 950.593 358.841 949.91 358.841L949.492 358.841C949.437 359.204 949.415 359.458 949.415 359.722C949.415 360.592 949.69 361.021 950.219 361.021ZM950.087 350.408C951.32 350.408 952.08 351.344 952.08 353.018C952.08 354.692 951.276 355.628 949.965 355.749L949.965 354.284C950.571 354.273 950.957 353.755 950.957 352.996C950.957 352.401 950.769 351.949 950.351 351.949C949.976 351.949 949.822 352.192 949.712 352.753L949.514 353.811C949.327 354.868 948.743 355.506 947.829 355.506C946.739 355.506 945.979 354.57 945.979 353.106C945.979 351.63 946.761 350.617 948.027 350.507L948.027 351.971C947.455 352.026 947.102 352.456 947.102 353.106C947.102 353.667 947.311 354.042 947.686 354.042C948.038 354.042 948.181 353.8 948.281 353.271L948.49 352.137C948.71 350.991 949.239 350.408 950.087 350.408ZM950.087 343.68C951.32 343.68 952.08 344.616 952.08 346.29C952.08 347.964 951.276 348.9 949.965 349.021L949.965 347.556C950.571 347.545 950.957 347.028 950.957 346.268C950.957 345.673 950.769 345.222 950.351 345.222C949.976 345.222 949.822 345.464 949.712 346.026L949.514 347.083C949.327 348.14 948.743 348.779 947.829 348.779C946.739 348.779 945.979 347.843 945.979 346.378C945.979 344.902 946.761 343.889 948.027 343.779L948.027 345.244C947.455 345.299 947.102 345.728 947.102 346.378C947.102 346.94 947.311 347.314 947.686 347.314C948.038 347.314 948.181 347.072 948.281 346.543L948.49 345.409C948.71 344.264 949.239 343.68 950.087 343.68ZM944.723 337.129C945.241 337.129 945.626 337.547 945.626 338.153C945.626 338.748 945.241 339.166 944.723 339.166C944.184 339.166 943.798 338.748 943.798 338.153C943.798 337.547 944.184 337.129 944.723 337.129ZM951.97 337.371L951.97 338.902L946.089 338.902L946.089 337.371L951.97 337.371ZM950.087 330.326C951.32 330.326 952.08 331.263 952.08 332.936C952.08 334.61 951.276 335.546 949.965 335.668L949.965 334.203C950.571 334.192 950.957 333.674 950.957 332.914C950.957 332.32 950.769 331.868 950.351 331.868C949.976 331.868 949.822 332.111 949.712 332.672L949.514 333.729C949.327 334.787 948.743 335.425 947.829 335.425C946.739 335.425 945.979 334.489 945.979 333.025C945.979 331.549 946.761 330.536 948.027 330.426L948.027 331.89C947.455 331.945 947.102 332.375 947.102 333.025C947.102 333.586 947.311 333.961 947.686 333.961C948.038 333.961 948.181 333.718 948.281 333.19L948.49 332.055C948.71 330.91 949.239 330.326 950.087 330.326ZM948.765 324.018L951.97 324.018L951.97 325.548L946.089 325.548L946.089 324.139L946.926 324.139C946.342 323.709 945.979 323.104 945.979 322.333C945.979 321.154 946.75 320.339 948.17 320.339L951.97 320.339L951.97 321.859L948.688 321.859C947.818 321.859 947.333 322.2 947.333 322.894C947.333 323.5 947.818 324.018 948.765 324.018ZM952.08 315.706C952.08 317.413 950.736 318.69 949.029 318.69C947.311 318.69 945.979 317.413 945.979 315.706C945.979 313.999 947.311 312.721 949.029 312.721C950.736 312.721 952.08 313.999 952.08 315.706ZM950.725 315.706C950.725 314.946 950.12 314.296 949.029 314.296C947.939 314.296 947.344 314.946 947.344 315.706C947.344 316.465 947.939 317.115 949.029 317.115C950.12 317.115 950.725 316.465 950.725 315.706ZM948.765 309.498L951.97 309.498L951.97 311.028L946.089 311.028L946.089 309.619L946.926 309.619C946.342 309.189 945.979 308.584 945.979 307.813C945.979 306.634 946.75 305.82 948.17 305.82L951.97 305.82L951.97 307.339L948.688 307.339C947.818 307.339 947.333 307.681 947.333 308.374C947.333 308.98 947.818 309.498 948.765 309.498ZM949.624 300.8L949.624 304.159L948.258 304.159L948.258 300.8L949.624 300.8ZM950.483 295.53L951.816 295.53C952.003 295.905 952.08 296.257 952.08 296.709C952.08 297.92 951.386 298.68 950.065 298.68L947.4 298.68L947.4 299.869L946.089 299.869L946.089 298.68L944.349 298.68L944.349 297.16L946.089 297.16L946.089 295.475L947.4 295.475L947.4 297.16L949.712 297.16C950.395 297.16 950.67 296.852 950.67 296.301C950.67 296.015 950.604 295.751 950.483 295.53ZM949.117 292.294L951.97 292.294L951.97 293.825L946.089 293.825L946.089 292.415L947.223 292.415C946.474 291.986 946.023 291.072 946.023 290.125L947.609 290.125C947.51 291.424 947.818 292.294 949.117 292.294ZM951.97 285.112L951.243 285.112C951.794 285.497 952.08 286.081 952.08 286.885C952.08 288.107 951.364 288.922 950.263 288.922C949.117 288.922 948.501 287.997 948.501 286.279C948.501 285.949 948.523 285.662 948.567 285.299L948.214 285.299C947.554 285.299 947.168 285.673 947.168 286.312C947.168 286.973 947.554 287.369 948.214 287.424L948.214 288.801C946.86 288.713 945.979 287.733 945.979 286.312C945.979 284.77 946.827 283.867 948.27 283.867L951.97 283.867L951.97 285.112ZM950.219 287.479C950.714 287.479 951.023 287.127 951.023 286.554C951.023 285.772 950.593 285.299 949.91 285.299L949.492 285.299C949.437 285.662 949.415 285.916 949.415 286.18C949.415 287.05 949.69 287.479 950.219 287.479ZM948.765 280.302L951.97 280.302L951.97 281.832L946.089 281.832L946.089 280.423L946.926 280.423C946.342 279.993 945.979 279.388 945.979 278.617C945.979 277.438 946.75 276.623 948.17 276.623L951.97 276.623L951.97 278.143L948.688 278.143C947.818 278.143 947.333 278.484 947.333 279.178C947.333 279.784 947.818 280.302 948.765 280.302ZM950.087 269.622C951.32 269.622 952.08 270.558 952.08 272.232C952.08 273.906 951.276 274.842 949.965 274.963L949.965 273.498C950.571 273.487 950.957 272.97 950.957 272.21C950.957 271.615 950.769 271.164 950.351 271.164C949.976 271.164 949.822 271.406 949.712 271.968L949.514 273.025C949.327 274.082 948.743 274.721 947.829 274.721C946.739 274.721 945.979 273.785 945.979 272.32C945.979 270.844 946.761 269.831 948.027 269.721L948.027 271.186C947.455 271.241 947.102 271.67 947.102 272.32C947.102 272.882 947.311 273.256 947.686 273.256C948.038 273.256 948.181 273.014 948.281 272.485L948.49 271.351C948.71 270.205 949.239 269.622 950.087 269.622ZM951.97 265.898L951.97 267.418L947.4 267.418L947.4 268.607L946.089 268.607L946.089 267.418L945.77 267.418C944.602 267.418 943.942 266.79 943.942 265.567C943.942 265.193 944.008 264.874 944.118 264.62L945.329 264.62C945.263 264.786 945.23 265.006 945.23 265.204C945.23 265.623 945.395 265.898 945.803 265.898L946.089 265.898L946.089 264.367L947.4 264.367L947.4 265.898L951.97 265.898ZM952.069 260.471C952.069 262.233 950.846 263.412 949.007 263.412C947.256 263.412 945.979 262.189 945.979 260.493C945.979 258.632 947.488 257.399 949.404 257.674L949.404 261.848C950.362 261.749 950.89 261.286 950.89 260.504C950.89 259.833 950.56 259.381 949.976 259.205L949.976 257.685C951.309 258.015 952.069 259.04 952.069 260.471ZM947.102 260.526C947.102 261.242 947.565 261.694 948.435 261.826L948.435 259.293C947.62 259.337 947.102 259.799 947.102 260.526ZM949.117 254.402L951.97 254.402L951.97 255.933L946.089 255.933L946.089 254.523L947.223 254.523C946.474 254.094 946.023 253.18 946.023 252.233L947.609 252.233C947.51 253.532 947.818 254.402 949.117 254.402ZM951.97 247.22L951.243 247.22C951.794 247.605 952.08 248.189 952.08 248.993C952.08 250.215 951.364 251.03 950.263 251.03C949.117 251.03 948.501 250.105 948.501 248.387C948.501 248.057 948.523 247.77 948.567 247.407L948.214 247.407C947.554 247.407 947.168 247.781 947.168 248.42C947.168 249.081 947.554 249.477 948.214 249.532L948.214 250.909C946.86 250.821 945.979 249.841 945.979 248.42C945.979 246.878 946.827 245.975 948.269 245.975L951.97 245.975L951.97 247.22ZM950.219 249.587C950.714 249.587 951.023 249.235 951.023 248.662C951.023 247.881 950.593 247.407 949.91 247.407L949.492 247.407C949.437 247.77 949.415 248.024 949.415 248.288C949.415 249.158 949.69 249.587 950.219 249.587ZM949.029 238.071C950.747 238.071 952.08 239.095 952.08 240.681C952.08 241.441 951.738 242.079 951.122 242.531L951.97 242.531L951.97 243.94L944.063 243.94L944.063 242.41L946.849 242.41C946.276 241.98 945.979 241.386 945.979 240.681C945.979 239.095 947.289 238.071 949.029 238.071ZM949.029 239.646C947.906 239.646 947.333 240.273 947.333 241.022C947.333 241.76 947.895 242.399 949.007 242.399C950.12 242.399 950.714 241.782 950.714 241.022C950.714 240.273 950.131 239.646 949.029 239.646ZM951.97 234.832L951.97 236.374L944.063 236.374L944.063 234.832L951.97 234.832ZM952.069 230.189C952.069 231.951 950.846 233.129 949.007 233.129C947.256 233.129 945.979 231.907 945.979 230.211C945.979 228.35 947.488 227.116 949.404 227.392L949.404 231.565C950.362 231.466 950.89 231.004 950.89 230.222C950.89 229.55 950.56 229.099 949.976 228.922L949.976 227.403C951.309 227.733 952.069 228.757 952.069 230.189ZM947.102 230.244C947.102 230.96 947.565 231.411 948.435 231.543L948.435 229.01C947.62 229.055 947.102 229.517 947.102 230.244ZM951.97 219.131L951.243 219.131C951.794 219.517 952.08 220.1 952.08 220.904C952.08 222.127 951.364 222.942 950.263 222.942C949.117 222.942 948.501 222.017 948.501 220.299C948.501 219.968 948.523 219.682 948.567 219.319L948.214 219.319C947.554 219.319 947.168 219.693 947.168 220.332C947.168 220.992 947.554 221.389 948.214 221.444L948.214 222.821C946.86 222.732 945.979 221.752 945.979 220.332C945.979 218.79 946.827 217.887 948.269 217.887L951.97 217.887L951.97 219.131ZM950.219 221.499C950.714 221.499 951.023 221.147 951.023 220.574C951.023 219.792 950.593 219.319 949.91 219.319L949.492 219.319C949.437 219.682 949.415 219.935 949.415 220.2C949.415 221.07 949.69 221.499 950.219 221.499ZM948.765 214.321L951.97 214.321L951.97 215.852L946.089 215.852L946.089 214.442L946.926 214.442C946.342 214.013 945.979 213.407 945.979 212.636C945.979 211.458 946.75 210.643 948.17 210.643L951.97 210.643L951.97 212.163L948.688 212.163C947.818 212.163 947.333 212.504 947.333 213.198C947.333 213.804 947.818 214.321 948.765 214.321ZM949.029 208.994C947.289 208.994 945.979 207.969 945.979 206.384C945.979 205.679 946.287 205.084 946.849 204.644L944.063 204.644L944.063 203.124L951.97 203.124L951.97 204.523L951.122 204.523C951.738 204.985 952.08 205.624 952.08 206.384C952.08 207.969 950.747 208.994 949.029 208.994ZM949.029 207.419C950.131 207.419 950.714 206.791 950.714 206.042C950.714 205.282 950.12 204.655 949.007 204.655C947.895 204.655 947.333 205.293 947.333 206.042C947.333 206.791 947.906 207.419 949.029 207.419ZM948.765 196.494L951.97 196.494L951.97 198.025L946.089 198.025L946.089 196.615L946.926 196.615C946.342 196.185 945.979 195.58 945.979 194.809C945.979 193.631 946.75 192.816 948.17 192.816L951.97 192.816L951.97 194.335L948.688 194.335C947.818 194.335 947.333 194.677 947.333 195.37C947.333 195.976 947.818 196.494 948.765 196.494ZM952.08 188.182C952.08 189.889 950.736 191.166 949.029 191.166C947.311 191.166 945.979 189.889 945.979 188.182C945.979 186.475 947.311 185.197 949.029 185.197C950.736 185.197 952.08 186.475 952.08 188.182ZM950.725 188.182C950.725 187.422 950.12 186.772 949.029 186.772C947.939 186.772 947.344 187.422 947.344 188.182C947.344 188.942 947.939 189.591 949.029 189.591C950.12 189.591 950.725 188.942 950.725 188.182ZM948.765 181.974L951.97 181.974L951.97 183.505L946.089 183.505L946.089 182.095L946.926 182.095C946.342 181.666 945.979 181.06 945.979 180.289C945.979 179.111 946.75 178.296 948.17 178.296L951.97 178.296L951.97 179.815L948.688 179.815C947.818 179.815 947.333 180.157 947.333 180.851C947.333 181.456 947.818 181.974 948.765 181.974ZM949.624 173.276L949.624 176.635L948.258 176.635L948.258 173.276L949.624 173.276ZM949.117 170.046L951.97 170.046L951.97 171.577L946.089 171.577L946.089 170.167L947.223 170.167C946.474 169.738 946.023 168.823 946.023 167.876L947.609 167.876C947.51 169.176 947.818 170.046 949.117 170.046ZM952.069 163.854C952.069 165.616 950.846 166.794 949.007 166.794C947.256 166.794 945.979 165.571 945.979 163.876C945.979 162.014 947.488 160.781 949.404 161.056L949.404 165.23C950.362 165.131 950.89 164.668 950.89 163.887C950.89 163.215 950.56 162.763 949.976 162.587L949.976 161.067C951.309 161.398 952.069 162.422 952.069 163.854ZM947.102 163.909C947.102 164.624 947.565 165.076 948.435 165.208L948.435 162.675C947.62 162.719 947.102 163.182 947.102 163.909ZM951.97 157.277L951.97 158.797L947.4 158.797L947.4 159.986L946.089 159.986L946.089 158.797L945.77 158.797C944.602 158.797 943.942 158.169 943.942 156.947C943.942 156.572 944.008 156.253 944.118 156L945.329 156C945.263 156.165 945.23 156.385 945.23 156.583C945.23 157.002 945.395 157.277 945.803 157.277L946.089 157.277L946.089 155.746L947.4 155.746L947.4 157.277L951.97 157.277ZM949.492 150.665L946.089 150.665L946.089 149.145L951.97 149.145L951.97 150.544L951.199 150.544C951.716 150.863 952.08 151.513 952.08 152.262C952.08 153.44 951.364 154.299 949.833 154.299L946.089 154.299L946.089 152.768L949.536 152.768C950.362 152.768 950.725 152.361 950.725 151.744C950.725 151.193 950.285 150.665 949.492 150.665ZM948.765 145.523L951.97 145.523L951.97 147.054L946.089 147.054L946.089 145.644L946.926 145.644C946.342 145.215 945.979 144.609 945.979 143.838C945.979 142.66 946.75 141.845 948.17 141.845L951.97 141.845L951.97 143.365L948.688 143.365C947.818 143.365 947.333 143.706 947.333 144.4C947.333 145.006 947.818 145.523 948.765 145.523ZM949.029 140.196C947.289 140.196 945.979 139.171 945.979 137.586C945.979 136.881 946.287 136.286 946.849 135.846L944.063 135.846L944.063 134.326L951.97 134.326L951.97 135.725L951.122 135.725C951.738 136.187 952.08 136.826 952.08 137.586C952.08 139.171 950.747 140.196 949.029 140.196ZM949.029 138.621C950.131 138.621 950.714 137.993 950.714 137.244C950.714 136.484 950.12 135.857 949.007 135.857C947.895 135.857 947.333 136.495 947.333 137.244C947.333 137.993 947.906 138.621 949.029 138.621ZM951.97 128.742L951.243 128.742C951.794 129.127 952.08 129.711 952.08 130.515C952.08 131.737 951.364 132.552 950.263 132.552C949.117 132.552 948.501 131.627 948.501 129.909C948.501 129.579 948.523 129.292 948.567 128.929L948.214 128.929C947.554 128.929 947.168 129.303 947.168 129.942C947.168 130.603 947.554 130.999 948.214 131.054L948.214 132.431C946.86 132.343 945.979 131.363 945.979 129.942C945.979 128.4 946.827 127.497 948.269 127.497L951.97 127.497L951.97 128.742ZM950.219 131.11C950.714 131.11 951.023 130.757 951.023 130.184C951.023 129.403 950.593 128.929 949.91 128.929L949.492 128.929C949.437 129.292 949.415 129.546 949.415 129.81C949.415 130.68 949.69 131.11 950.219 131.11ZM949.029 119.593C950.747 119.593 952.08 120.617 952.08 122.203C952.08 122.963 951.738 123.601 951.122 124.053L951.97 124.053L951.97 125.462L944.063 125.462L944.063 123.932L946.849 123.932C946.276 123.502 945.979 122.908 945.979 122.203C945.979 120.617 947.289 119.593 949.029 119.593ZM949.029 121.168C947.906 121.168 947.333 121.795 947.333 122.544C947.333 123.282 947.895 123.921 949.007 123.921C950.12 123.921 950.714 123.304 950.714 122.544C950.714 121.795 950.131 121.168 949.029 121.168ZM951.97 116.354L951.97 117.896L944.063 117.896L944.063 116.354L951.97 116.354ZM952.069 111.711C952.069 113.473 950.846 114.651 949.007 114.651C947.256 114.651 945.979 113.429 945.979 111.733C945.979 109.872 947.488 108.638 949.404 108.914L949.404 113.087C950.362 112.988 950.89 112.526 950.89 111.744C950.89 111.072 950.56 110.621 949.976 110.444L949.976 108.925C951.309 109.255 952.069 110.279 952.069 111.711ZM947.102 111.766C947.102 112.482 947.565 112.933 948.435 113.065L948.435 110.533C947.62 110.577 947.102 111.039 947.102 111.766ZM947.19 105.414L948.501 106.427L947.84 107.319L946.596 106.306L946.111 107.826L945.087 107.506L945.615 105.943L944.063 106.009L944.063 104.819L945.615 104.885L945.087 103.322L946.111 103.002L946.596 104.522L947.84 103.509L948.501 104.401L947.19 105.414Z" fill="#E4F6C8"/>
<path d="M157.603 480.94L156.142 482.83L154.856 481.877L156.317 480.083L154.126 479.384L154.586 477.907L156.841 478.67L156.746 476.431H158.461L158.365 478.67L160.62 477.907L161.08 479.384L158.889 480.083L160.35 481.877L159.064 482.83L157.603 480.94ZM171.537 479.352L168.424 487.831H166.011L162.883 479.352H165.265L167.281 485.322L169.314 479.352H171.537ZM178.369 487.831V486.783C177.813 487.577 176.972 487.99 175.813 487.99C174.05 487.99 172.875 486.958 172.875 485.37C172.875 483.719 174.209 482.83 176.686 482.83C177.162 482.83 177.575 482.861 178.099 482.925V482.417C178.099 481.464 177.559 480.908 176.638 480.908C175.686 480.908 175.114 481.464 175.035 482.417H173.05C173.177 480.464 174.59 479.194 176.638 479.194C178.861 479.194 180.163 480.416 180.163 482.496V487.831H178.369ZM174.955 485.306C174.955 486.021 175.463 486.466 176.289 486.466C177.416 486.466 178.099 485.846 178.099 484.862V484.259C177.575 484.179 177.21 484.147 176.829 484.147C175.575 484.147 174.955 484.544 174.955 485.306ZM185.32 487.831H183.097V476.431H185.32V487.831ZM190.888 477.383C190.888 478.13 190.284 478.685 189.411 478.685C188.554 478.685 187.95 478.13 187.95 477.383C187.95 476.605 188.554 476.05 189.411 476.05C190.284 476.05 190.888 476.605 190.888 477.383ZM190.538 487.831H188.331V479.352H190.538V487.831ZM192.979 483.592C192.979 481.083 194.455 479.194 196.742 479.194C197.758 479.194 198.615 479.638 199.25 480.448V476.431H201.442V487.831H199.425V486.608C198.758 487.498 197.837 487.99 196.742 487.99C194.455 487.99 192.979 486.069 192.979 483.592ZM195.249 483.592C195.249 485.179 196.154 486.021 197.234 486.021C198.329 486.021 199.235 485.164 199.235 483.56C199.235 481.956 198.314 481.146 197.234 481.146C196.154 481.146 195.249 481.972 195.249 483.592ZM211.795 487.831H209.604V481.242H207.889V479.352H209.604V478.892C209.604 477.209 210.509 476.256 212.271 476.256C212.811 476.256 213.271 476.351 213.637 476.51V478.257C213.398 478.161 213.081 478.114 212.795 478.114C212.192 478.114 211.795 478.352 211.795 478.939V479.352H214.002V481.242H211.795V487.831ZM219.682 487.99C217.221 487.99 215.379 486.053 215.379 483.592C215.379 481.115 217.221 479.194 219.682 479.194C222.143 479.194 223.985 481.115 223.985 483.592C223.985 486.053 222.143 487.99 219.682 487.99ZM219.682 486.037C220.778 486.037 221.715 485.164 221.715 483.592C221.715 482.02 220.778 481.162 219.682 481.162C218.587 481.162 217.65 482.02 217.65 483.592C217.65 485.164 218.587 486.037 219.682 486.037ZM228.633 483.719V487.831H226.426V479.352H228.458V480.988C229.077 479.908 230.395 479.257 231.761 479.257V481.543C229.887 481.401 228.633 481.845 228.633 483.719ZM241.973 487.974C239.433 487.974 237.734 486.212 237.734 483.56C237.734 481.035 239.496 479.194 241.941 479.194C244.625 479.194 246.403 481.369 246.006 484.132H239.988C240.131 485.513 240.798 486.275 241.925 486.275C242.894 486.275 243.545 485.799 243.799 484.957H245.99C245.514 486.878 244.037 487.974 241.973 487.974ZM241.894 480.813C240.862 480.813 240.211 481.48 240.02 482.734H243.672C243.608 481.559 242.942 480.813 241.894 480.813ZM250.723 483.211V487.831H248.516V479.352H250.549V480.559C251.168 479.717 252.041 479.194 253.153 479.194C254.852 479.194 256.026 480.305 256.026 482.353V487.831H253.835V483.099C253.835 481.845 253.343 481.146 252.343 481.146C251.47 481.146 250.723 481.845 250.723 483.211ZM264.17 485.688V487.609C263.63 487.879 263.122 487.99 262.471 487.99C260.724 487.99 259.629 486.99 259.629 485.084V481.242H257.914V479.352H259.629V476.844H261.82V479.352H264.249V481.242H261.82V484.576C261.82 485.561 262.264 485.957 263.058 485.957C263.471 485.957 263.852 485.862 264.17 485.688ZM268.836 483.719V487.831H266.629V479.352H268.661V480.988C269.28 479.908 270.598 479.257 271.964 479.257V481.543C270.09 481.401 268.836 481.845 268.836 483.719ZM281.934 479.352L277.806 490.895H275.409L276.615 487.736L273.281 479.352H275.663L277.79 485.164L279.727 479.352H281.934ZM293.557 485.688V487.609C293.017 487.879 292.509 487.99 291.858 487.99C290.111 487.99 289.016 486.99 289.016 485.084V481.242H287.301V479.352H289.016V476.844H291.207V479.352H293.636V481.242H291.207V484.576C291.207 485.561 291.651 485.957 292.445 485.957C292.858 485.957 293.239 485.862 293.557 485.688ZM299.577 487.99C297.116 487.99 295.274 486.053 295.274 483.592C295.274 481.115 297.116 479.194 299.577 479.194C302.038 479.194 303.88 481.115 303.88 483.592C303.88 486.053 302.038 487.99 299.577 487.99ZM299.577 486.037C300.672 486.037 301.609 485.164 301.609 483.592C301.609 482.02 300.672 481.162 299.577 481.162C298.481 481.162 297.544 482.02 297.544 483.592C297.544 485.164 298.481 486.037 299.577 486.037ZM315.72 487.831V486.783C315.164 487.577 314.322 487.99 313.163 487.99C311.401 487.99 310.226 486.958 310.226 485.37C310.226 483.719 311.56 482.83 314.036 482.83C314.513 482.83 314.926 482.861 315.45 482.925V482.417C315.45 481.464 314.91 480.908 313.989 480.908C313.036 480.908 312.465 481.464 312.385 482.417H310.4C310.527 480.464 311.941 479.194 313.989 479.194C316.212 479.194 317.514 480.416 317.514 482.496V487.831H315.72ZM312.306 485.306C312.306 486.021 312.814 486.466 313.64 486.466C314.767 486.466 315.45 485.846 315.45 484.862V484.259C314.926 484.179 314.56 484.147 314.179 484.147C312.925 484.147 312.306 484.544 312.306 485.306ZM322.671 487.831H320.448V476.431H322.671V487.831ZM327.905 487.831H325.682V476.431H327.905V487.831ZM340.538 485.688V487.609C339.998 487.879 339.49 487.99 338.839 487.99C337.092 487.99 335.997 486.99 335.997 485.084V481.242H334.282V479.352H335.997V476.844H338.188V479.352H340.617V481.242H338.188V484.576C338.188 485.561 338.632 485.957 339.426 485.957C339.839 485.957 340.22 485.862 340.538 485.688ZM348.046 487.831V486.783C347.49 487.577 346.649 487.99 345.489 487.99C343.727 487.99 342.552 486.958 342.552 485.37C342.552 483.719 343.886 482.83 346.363 482.83C346.839 482.83 347.252 482.861 347.776 482.925V482.417C347.776 481.464 347.236 480.908 346.315 480.908C345.362 480.908 344.791 481.464 344.711 482.417H342.727C342.854 480.464 344.267 479.194 346.315 479.194C348.538 479.194 349.84 480.416 349.84 482.496V487.831H348.046ZM344.632 485.306C344.632 486.021 345.14 486.466 345.966 486.466C347.093 486.466 347.776 485.846 347.776 484.862V484.259C347.252 484.179 346.887 484.147 346.506 484.147C345.251 484.147 344.632 484.544 344.632 485.306ZM354.981 483.719V487.831H352.774V479.352H354.806V480.988C355.426 479.908 356.743 479.257 358.109 479.257V481.543C356.235 481.401 354.981 481.845 354.981 483.719ZM365.337 487.831V486.783C364.781 487.577 363.939 487.99 362.78 487.99C361.018 487.99 359.843 486.958 359.843 485.37C359.843 483.719 361.177 482.83 363.653 482.83C364.13 482.83 364.543 482.861 365.067 482.925V482.417C365.067 481.464 364.527 480.908 363.606 480.908C362.653 480.908 362.082 481.464 362.002 482.417H360.017C360.144 480.464 361.558 479.194 363.606 479.194C365.829 479.194 367.131 480.416 367.131 482.496V487.831H365.337ZM361.923 485.306C361.923 486.021 362.431 486.466 363.257 486.466C364.384 486.466 365.067 485.846 365.067 484.862V484.259C364.543 484.179 364.177 484.147 363.796 484.147C362.542 484.147 361.923 484.544 361.923 485.306ZM372.272 483.211V487.831H370.065V479.352H372.097V480.559C372.716 479.717 373.59 479.194 374.701 479.194C376.4 479.194 377.575 480.305 377.575 482.353V487.831H375.384V483.099C375.384 481.845 374.892 481.146 373.891 481.146C373.018 481.146 372.272 481.845 372.272 483.211ZM384.113 491.054C381.827 491.054 380.302 489.816 380.207 487.863H382.335C382.43 488.831 383.049 489.339 384.097 489.339C385.32 489.339 385.955 488.688 385.955 487.466V486.227C385.494 487.037 384.621 487.513 383.589 487.513C381.509 487.513 379.953 485.751 379.953 483.354C379.953 480.892 381.414 479.194 383.51 479.194C384.653 479.194 385.51 479.638 386.129 480.511V479.352H388.146V487.434C388.146 489.689 386.622 491.054 384.113 491.054ZM382.16 483.354C382.16 484.735 382.874 485.608 384.018 485.608C385.177 485.608 385.939 484.703 385.939 483.369C385.939 481.988 385.177 481.099 384.018 481.099C382.89 481.099 382.16 481.972 382.16 483.354ZM399.204 487.974C396.663 487.974 394.964 486.212 394.964 483.56C394.964 481.035 396.727 479.194 399.172 479.194C401.855 479.194 403.634 481.369 403.237 484.132H397.219C397.362 485.513 398.029 486.275 399.156 486.275C400.125 486.275 400.776 485.799 401.03 484.957H403.221C402.744 486.878 401.268 487.974 399.204 487.974ZM399.124 480.813C398.092 480.813 397.441 481.48 397.251 482.734H400.903C400.839 481.559 400.172 480.813 399.124 480.813ZM413.09 479.352L409.978 487.831H407.564L404.436 479.352H406.818L408.834 485.322L410.867 479.352H413.09ZM418.479 487.974C415.939 487.974 414.24 486.212 414.24 483.56C414.24 481.035 416.002 479.194 418.447 479.194C421.131 479.194 422.909 481.369 422.512 484.132H416.494C416.637 485.513 417.304 486.275 418.431 486.275C419.4 486.275 420.051 485.799 420.305 484.957H422.496C422.02 486.878 420.543 487.974 418.479 487.974ZM418.4 480.813C417.368 480.813 416.717 481.48 416.526 482.734H420.178C420.114 481.559 419.448 480.813 418.4 480.813ZM427.229 483.211V487.831H425.022V479.352H427.055V480.559C427.674 479.717 428.547 479.194 429.659 479.194C431.358 479.194 432.532 480.305 432.532 482.353V487.831H430.341V483.099C430.341 481.845 429.849 481.146 428.849 481.146C427.976 481.146 427.229 481.845 427.229 483.211ZM440.676 485.688V487.609C440.136 487.879 439.628 487.99 438.977 487.99C437.23 487.99 436.135 486.99 436.135 485.084V481.242H434.42V479.352H436.135V476.844H438.326V479.352H440.755V481.242H438.326V484.576C438.326 485.561 438.77 485.957 439.564 485.957C439.977 485.957 440.358 485.862 440.676 485.688ZM450.234 485.116C450.234 486.894 448.884 487.99 446.471 487.99C444.057 487.99 442.708 486.831 442.533 484.941H444.645C444.661 485.815 445.407 486.37 446.502 486.37C447.36 486.37 448.011 486.1 448.011 485.497C448.011 484.957 447.661 484.735 446.852 484.576L445.327 484.29C443.803 484.02 442.882 483.179 442.882 481.861C442.882 480.289 444.232 479.194 446.344 479.194C448.471 479.194 449.932 480.321 450.091 482.147H447.979C447.9 481.321 447.28 480.813 446.344 480.813C445.534 480.813 444.994 481.115 444.994 481.655C444.994 482.163 445.343 482.369 446.105 482.512L447.741 482.814C449.392 483.131 450.234 483.893 450.234 485.116ZM461.346 481.607L463.379 483.798C463.474 483.338 463.522 482.83 463.537 482.321H465.554C465.538 483.274 465.22 484.37 464.744 485.259L467.126 487.831H464.411L463.474 486.831C462.617 487.577 461.648 487.974 460.6 487.974C458.218 487.974 456.694 486.608 456.694 484.481C456.694 483.274 457.424 482.258 458.631 481.575C458.234 481.019 458.044 480.448 458.044 479.797C458.044 478.146 459.473 476.939 461.394 476.939C463.331 476.939 464.617 478.098 464.633 479.845H462.585C462.505 479.098 462.045 478.701 461.394 478.701C460.775 478.701 460.314 479.162 460.314 479.813C460.314 480.4 460.632 480.829 461.346 481.607ZM458.806 484.354C458.806 485.37 459.473 486.18 460.759 486.18C461.346 486.18 461.902 485.989 462.347 485.624L459.759 482.877C459.171 483.179 458.806 483.703 458.806 484.354ZM480.469 487.831L478.865 482.321L477.277 487.831H475.07L472.657 479.352H474.8L476.245 484.719L477.801 479.352H479.976L481.485 484.719L482.914 479.352H485.089L482.66 487.831H480.469ZM490.76 487.99C488.299 487.99 486.457 486.053 486.457 483.592C486.457 481.115 488.299 479.194 490.76 479.194C493.221 479.194 495.063 481.115 495.063 483.592C495.063 486.053 493.221 487.99 490.76 487.99ZM490.76 486.037C491.855 486.037 492.792 485.164 492.792 483.592C492.792 482.02 491.855 481.162 490.76 481.162C489.664 481.162 488.728 482.02 488.728 483.592C488.728 485.164 489.664 486.037 490.76 486.037ZM499.71 483.719V487.831H497.503V479.352H499.536V480.988C500.155 479.908 501.473 479.257 502.838 479.257V481.543C500.965 481.401 499.71 481.845 499.71 483.719ZM507.224 487.831H505.017V476.431H507.224V482.941L510.32 479.352H512.86L509.351 483.417L513.273 487.831H510.463L507.224 483.893V487.831ZM522.001 485.116C522.001 486.894 520.652 487.99 518.238 487.99C515.825 487.99 514.475 486.831 514.301 484.941H516.412C516.428 485.815 517.174 486.37 518.27 486.37C519.127 486.37 519.778 486.1 519.778 485.497C519.778 484.957 519.429 484.735 518.619 484.576L517.095 484.29C515.571 484.02 514.65 483.179 514.65 481.861C514.65 480.289 516 479.194 518.111 479.194C520.239 479.194 521.7 480.321 521.858 482.147H519.747C519.667 481.321 519.048 480.813 518.111 480.813C517.302 480.813 516.762 481.115 516.762 481.655C516.762 482.163 517.111 482.369 517.873 482.512L519.509 482.814C521.16 483.131 522.001 483.893 522.001 485.116ZM526.747 483.211V487.831H524.54V476.431H526.747V480.464C527.335 479.686 528.065 479.194 529.176 479.194C530.875 479.194 532.05 480.305 532.05 482.353V487.831H529.859V483.099C529.859 481.845 529.367 481.146 528.367 481.146C527.493 481.146 526.747 481.845 526.747 483.211ZM538.731 487.99C536.27 487.99 534.429 486.053 534.429 483.592C534.429 481.115 536.27 479.194 538.731 479.194C541.192 479.194 543.034 481.115 543.034 483.592C543.034 486.053 541.192 487.99 538.731 487.99ZM538.731 486.037C539.827 486.037 540.764 485.164 540.764 483.592C540.764 482.02 539.827 481.162 538.731 481.162C537.636 481.162 536.699 482.02 536.699 483.592C536.699 485.164 537.636 486.037 538.731 486.037ZM553.938 483.592C553.938 486.1 552.461 487.99 550.175 487.99C549.174 487.99 548.317 487.561 547.682 486.735V490.895H545.475V479.352H547.507V480.591C548.158 479.686 549.095 479.194 550.175 479.194C552.461 479.194 553.938 481.099 553.938 483.592ZM551.667 483.592C551.667 482.004 550.762 481.146 549.682 481.146C548.603 481.146 547.698 481.988 547.698 483.592C547.698 485.195 548.603 486.021 549.682 486.021C550.762 486.021 551.667 485.211 551.667 483.592ZM563.545 485.116C563.545 486.894 562.195 487.99 559.782 487.99C557.368 487.99 556.019 486.831 555.844 484.941H557.956C557.972 485.815 558.718 486.37 559.813 486.37C560.671 486.37 561.322 486.1 561.322 485.497C561.322 484.957 560.973 484.735 560.163 484.576L558.638 484.29C557.114 484.02 556.193 483.179 556.193 481.861C556.193 480.289 557.543 479.194 559.655 479.194C561.782 479.194 563.243 480.321 563.402 482.147H561.29C561.211 481.321 560.591 480.813 559.655 480.813C558.845 480.813 558.305 481.115 558.305 481.655C558.305 482.163 558.654 482.369 559.417 482.512L561.052 482.814C562.703 483.131 563.545 483.893 563.545 485.116ZM568.759 480.94L567.298 482.83L566.012 481.877L567.472 480.083L565.281 479.384L565.742 477.907L567.996 478.67L567.901 476.431H569.616L569.521 478.67L571.775 477.907L572.236 479.384L570.045 480.083L571.505 481.877L570.219 482.83L568.759 480.94Z" fill="#E4F6C8"/>
<rect x="55.1751" y="362.737" width="419.832" height="70.3167" rx="12.0395" stroke="white" stroke-width="1.92041"/>
<path d="M87.6827 384.233C89.0692 384.233 90.3624 384.633 91.5623 385.433C92.7889 386.233 93.7754 387.313 94.522 388.673C95.2686 390.033 95.6419 391.553 95.6419 393.233C95.6419 394.886 95.2686 396.392 94.522 397.752C93.7754 399.112 92.7889 400.205 91.5623 401.032C90.3624 401.832 89.0692 402.232 87.6827 402.232H80.3234L80.7233 401.512V409.791C80.7233 410.484 80.51 411.071 80.0834 411.551C79.6568 412.004 79.0968 412.231 78.4035 412.231C77.7369 412.231 77.1903 412.004 76.7637 411.551C76.3371 411.071 76.1237 410.484 76.1237 409.791V386.673C76.1237 385.98 76.3504 385.407 76.8037 384.953C77.2836 384.473 77.8703 384.233 78.5635 384.233H87.6827ZM87.6827 397.672C88.1893 397.672 88.6826 397.459 89.1625 397.032C89.6425 396.606 90.0425 396.059 90.3624 395.392C90.6824 394.699 90.8424 393.979 90.8424 393.233C90.8424 392.459 90.6824 391.739 90.3624 391.073C90.0425 390.406 89.6425 389.873 89.1625 389.473C88.6826 389.046 88.1893 388.833 87.6827 388.833H80.2434L80.7233 388.113V398.312L80.2834 397.672H87.6827ZM119.746 390.433C120.439 390.433 121.013 390.659 121.466 391.113C121.919 391.566 122.146 392.153 122.146 392.873V409.791C122.146 410.484 121.919 411.071 121.466 411.551C121.013 412.004 120.439 412.231 119.746 412.231C119.053 412.231 118.479 412.004 118.026 411.551C117.573 411.071 117.346 410.484 117.346 409.791V407.831L118.226 408.191C118.226 408.538 118.039 408.964 117.666 409.471C117.293 409.951 116.786 410.431 116.146 410.911C115.506 411.391 114.746 411.804 113.867 412.151C113.013 412.471 112.08 412.631 111.067 412.631C109.227 412.631 107.56 412.164 106.067 411.231C104.574 410.271 103.387 408.964 102.508 407.311C101.654 405.631 101.228 403.712 101.228 401.552C101.228 399.365 101.654 397.446 102.508 395.792C103.387 394.113 104.561 392.806 106.027 391.873C107.494 390.913 109.12 390.433 110.907 390.433C112.053 390.433 113.107 390.606 114.066 390.953C115.026 391.299 115.853 391.739 116.546 392.273C117.266 392.806 117.813 393.353 118.186 393.913C118.586 394.446 118.786 394.899 118.786 395.272L117.346 395.792V392.873C117.346 392.179 117.573 391.606 118.026 391.153C118.479 390.673 119.053 390.433 119.746 390.433ZM111.667 408.231C112.84 408.231 113.867 407.938 114.746 407.351C115.626 406.765 116.306 405.965 116.786 404.952C117.293 403.938 117.546 402.805 117.546 401.552C117.546 400.272 117.293 399.125 116.786 398.112C116.306 397.099 115.626 396.299 114.746 395.712C113.867 395.126 112.84 394.832 111.667 394.832C110.52 394.832 109.507 395.126 108.627 395.712C107.747 396.299 107.054 397.099 106.547 398.112C106.067 399.125 105.827 400.272 105.827 401.552C105.827 402.805 106.067 403.938 106.547 404.952C107.054 405.965 107.747 406.765 108.627 407.351C109.507 407.938 110.52 408.231 111.667 408.231ZM128.702 408.911C128.436 408.538 128.316 408.058 128.342 407.471C128.369 406.885 128.716 406.378 129.382 405.951C129.809 405.685 130.262 405.578 130.742 405.631C131.222 405.658 131.689 405.898 132.142 406.351C132.915 407.125 133.729 407.725 134.582 408.151C135.435 408.578 136.502 408.791 137.781 408.791C138.181 408.764 138.621 408.711 139.101 408.631C139.581 408.525 139.995 408.311 140.341 407.991C140.715 407.645 140.901 407.125 140.901 406.431C140.901 405.845 140.701 405.378 140.301 405.032C139.901 404.685 139.368 404.392 138.701 404.152C138.061 403.912 137.342 403.685 136.542 403.472C135.715 403.232 134.862 402.965 133.982 402.672C133.129 402.378 132.342 402.005 131.622 401.552C130.902 401.072 130.316 400.445 129.862 399.672C129.409 398.899 129.182 397.925 129.182 396.752C129.182 395.419 129.556 394.286 130.302 393.353C131.049 392.419 132.009 391.699 133.182 391.193C134.382 390.686 135.635 390.433 136.942 390.433C137.768 390.433 138.635 390.54 139.541 390.753C140.448 390.939 141.314 391.259 142.141 391.713C142.968 392.139 143.661 392.713 144.221 393.433C144.514 393.833 144.688 394.312 144.741 394.872C144.794 395.432 144.541 395.939 143.981 396.392C143.581 396.712 143.114 396.859 142.581 396.832C142.048 396.779 141.608 396.592 141.261 396.272C140.808 395.686 140.195 395.219 139.421 394.872C138.675 394.526 137.808 394.352 136.822 394.352C136.422 394.352 135.982 394.406 135.502 394.512C135.048 394.592 134.648 394.792 134.302 395.112C133.955 395.406 133.782 395.886 133.782 396.552C133.782 397.166 133.982 397.659 134.382 398.032C134.782 398.379 135.315 398.672 135.982 398.912C136.675 399.125 137.408 399.339 138.181 399.552C138.981 399.765 139.795 400.019 140.621 400.312C141.448 400.605 142.208 400.992 142.901 401.472C143.594 401.952 144.154 402.578 144.581 403.352C145.007 404.098 145.221 405.058 145.221 406.231C145.221 407.591 144.821 408.751 144.021 409.711C143.221 410.671 142.221 411.404 141.021 411.911C139.821 412.391 138.595 412.631 137.342 412.631C135.768 412.631 134.195 412.364 132.622 411.831C131.049 411.271 129.742 410.298 128.702 408.911ZM150.597 408.911C150.331 408.538 150.211 408.058 150.237 407.471C150.264 406.885 150.611 406.378 151.277 405.951C151.704 405.685 152.157 405.578 152.637 405.631C153.117 405.658 153.584 405.898 154.037 406.351C154.81 407.125 155.623 407.725 156.477 408.151C157.33 408.578 158.396 408.791 159.676 408.791C160.076 408.764 160.516 408.711 160.996 408.631C161.476 408.525 161.889 408.311 162.236 407.991C162.609 407.645 162.796 407.125 162.796 406.431C162.796 405.845 162.596 405.378 162.196 405.032C161.796 404.685 161.263 404.392 160.596 404.152C159.956 403.912 159.236 403.685 158.436 403.472C157.61 403.232 156.757 402.965 155.877 402.672C155.023 402.378 154.237 402.005 153.517 401.552C152.797 401.072 152.21 400.445 151.757 399.672C151.304 398.899 151.077 397.925 151.077 396.752C151.077 395.419 151.45 394.286 152.197 393.353C152.944 392.419 153.904 391.699 155.077 391.193C156.277 390.686 157.53 390.433 158.836 390.433C159.663 390.433 160.53 390.54 161.436 390.753C162.343 390.939 163.209 391.259 164.036 391.713C164.863 392.139 165.556 392.713 166.116 393.433C166.409 393.833 166.582 394.312 166.636 394.872C166.689 395.432 166.436 395.939 165.876 396.392C165.476 396.712 165.009 396.859 164.476 396.832C163.943 396.779 163.503 396.592 163.156 396.272C162.703 395.686 162.089 395.219 161.316 394.872C160.57 394.526 159.703 394.352 158.716 394.352C158.316 394.352 157.877 394.406 157.397 394.512C156.943 394.592 156.543 394.792 156.197 395.112C155.85 395.406 155.677 395.886 155.677 396.552C155.677 397.166 155.877 397.659 156.277 398.032C156.677 398.379 157.21 398.672 157.877 398.912C158.57 399.125 159.303 399.339 160.076 399.552C160.876 399.765 161.689 400.019 162.516 400.312C163.343 400.605 164.103 400.992 164.796 401.472C165.489 401.952 166.049 402.578 166.476 403.352C166.902 404.098 167.116 405.058 167.116 406.231C167.116 407.591 166.716 408.751 165.916 409.711C165.116 410.671 164.116 411.404 162.916 411.911C161.716 412.391 160.49 412.631 159.236 412.631C157.663 412.631 156.09 412.364 154.517 411.831C152.944 411.271 151.637 410.298 150.597 408.911ZM192.941 409.791C192.941 410.484 192.688 411.071 192.181 411.551C191.675 412.004 191.088 412.231 190.421 412.231C189.675 412.231 189.075 412.004 188.621 411.551C188.168 411.071 187.942 410.484 187.942 409.791V386.673C187.942 385.98 188.182 385.407 188.661 384.953C189.141 384.473 189.755 384.233 190.501 384.233C191.141 384.233 191.701 384.473 192.181 384.953C192.688 385.407 192.941 385.98 192.941 386.673V409.791ZM213.555 384.233C215.475 384.233 217.181 384.593 218.674 385.313C220.168 386.033 221.421 387.046 222.434 388.353C223.474 389.633 224.247 391.126 224.754 392.833C225.287 394.512 225.554 396.312 225.554 398.232C225.554 400.819 225.087 403.178 224.154 405.311C223.221 407.418 221.861 409.098 220.074 410.351C218.314 411.604 216.141 412.231 213.555 412.231H203.996C203.302 412.231 202.716 412.004 202.236 411.551C201.783 411.071 201.556 410.484 201.556 409.791V386.673C201.556 385.98 201.783 385.407 202.236 384.953C202.716 384.473 203.302 384.233 203.996 384.233H213.555ZM213.155 407.631C214.835 407.631 216.208 407.205 217.274 406.351C218.341 405.471 219.114 404.325 219.594 402.912C220.101 401.472 220.354 399.912 220.354 398.232C220.354 396.979 220.208 395.792 219.914 394.672C219.648 393.526 219.221 392.526 218.634 391.673C218.048 390.793 217.301 390.1 216.395 389.593C215.488 389.086 214.408 388.833 213.155 388.833H206.155L206.555 388.473V408.071L206.315 407.631H213.155ZM248.756 396.592C247.983 396.592 247.383 396.392 246.956 395.992C246.556 395.566 246.356 394.966 246.356 394.193V393.513C246.356 392.739 246.556 392.153 246.956 391.753C247.383 391.326 247.983 391.113 248.756 391.113H249.276C250.049 391.113 250.636 391.326 251.036 391.753C251.463 392.153 251.676 392.739 251.676 393.513V394.193C251.676 394.966 251.463 395.566 251.036 395.992C250.636 396.392 250.049 396.592 249.276 396.592H248.756ZM248.756 412.231C247.983 412.231 247.383 412.031 246.956 411.631C246.556 411.204 246.356 410.604 246.356 409.831V409.151C246.356 408.378 246.556 407.791 246.956 407.391C247.383 406.965 247.983 406.751 248.756 406.751H249.276C250.049 406.751 250.636 406.965 251.036 407.391C251.463 407.791 251.676 408.378 251.676 409.151V409.831C251.676 410.604 251.463 411.204 251.036 411.631C250.636 412.031 250.049 412.231 249.276 412.231H248.756ZM273.942 390.833C274.716 390.833 275.369 391.166 275.902 391.833L289.261 408.431C289.608 408.858 289.781 409.338 289.781 409.871C289.781 410.538 289.528 411.111 289.021 411.591C288.514 412.071 287.954 412.311 287.341 412.311C286.568 412.311 285.915 411.964 285.381 411.271L272.023 394.672C271.676 394.246 271.503 393.766 271.503 393.233C271.503 392.539 271.743 391.966 272.222 391.513C272.729 391.059 273.302 390.833 273.942 390.833ZM273.982 412.271C273.449 412.271 272.916 412.071 272.382 411.671C271.876 411.244 271.623 410.738 271.623 410.151C271.623 409.618 271.823 409.111 272.222 408.631L278.342 401.152L280.742 405.151L275.902 411.271C275.396 411.938 274.756 412.271 273.982 412.271ZM287.301 390.833C287.941 390.833 288.474 391.059 288.901 391.513C289.354 391.939 289.581 392.433 289.581 392.993C289.581 393.259 289.541 393.526 289.461 393.793C289.381 394.059 289.234 394.312 289.021 394.552L282.982 401.912L280.462 398.432L285.381 391.913C285.915 391.193 286.555 390.833 287.301 390.833ZM296.032 390.833C296.806 390.833 297.459 391.166 297.992 391.833L311.351 408.431C311.698 408.858 311.871 409.338 311.871 409.871C311.871 410.538 311.618 411.111 311.111 411.591C310.604 412.071 310.045 412.311 309.431 412.311C308.658 412.311 308.005 411.964 307.471 411.271L294.113 394.672C293.766 394.246 293.593 393.766 293.593 393.233C293.593 392.539 293.833 391.966 294.313 391.513C294.819 391.059 295.393 390.833 296.032 390.833ZM296.072 412.271C295.539 412.271 295.006 412.071 294.473 411.671C293.966 411.244 293.713 410.738 293.713 410.151C293.713 409.618 293.913 409.111 294.313 408.631L300.432 401.152L302.832 405.151L297.992 411.271C297.486 411.938 296.846 412.271 296.072 412.271ZM309.391 390.833C310.031 390.833 310.564 391.059 310.991 391.513C311.444 391.939 311.671 392.433 311.671 392.993C311.671 393.259 311.631 393.526 311.551 393.793C311.471 394.059 311.324 394.312 311.111 394.552L305.072 401.912L302.552 398.432L307.471 391.913C308.005 391.193 308.645 390.833 309.391 390.833ZM318.123 390.833C318.896 390.833 319.549 391.166 320.082 391.833L333.441 408.431C333.788 408.858 333.961 409.338 333.961 409.871C333.961 410.538 333.708 411.111 333.201 411.591C332.695 412.071 332.135 412.311 331.521 412.311C330.748 412.311 330.095 411.964 329.562 411.271L316.203 394.672C315.856 394.246 315.683 393.766 315.683 393.233C315.683 392.539 315.923 391.966 316.403 391.513C316.909 391.059 317.483 390.833 318.123 390.833ZM318.163 412.271C317.629 412.271 317.096 412.071 316.563 411.671C316.056 411.244 315.803 410.738 315.803 410.151C315.803 409.618 316.003 409.111 316.403 408.631L322.522 401.152L324.922 405.151L320.082 411.271C319.576 411.938 318.936 412.271 318.163 412.271ZM331.481 390.833C332.121 390.833 332.655 391.059 333.081 391.513C333.535 391.939 333.761 392.433 333.761 392.993C333.761 393.259 333.721 393.526 333.641 393.793C333.561 394.059 333.415 394.312 333.201 394.552L327.162 401.912L324.642 398.432L329.562 391.913C330.095 391.193 330.735 390.833 331.481 390.833ZM340.213 390.833C340.986 390.833 341.639 391.166 342.173 391.833L355.531 408.431C355.878 408.858 356.051 409.338 356.051 409.871C356.051 410.538 355.798 411.111 355.291 411.591C354.785 412.071 354.225 412.311 353.612 412.311C352.838 412.311 352.185 411.964 351.652 411.271L338.293 394.672C337.946 394.246 337.773 393.766 337.773 393.233C337.773 392.539 338.013 391.966 338.493 391.513C339 391.059 339.573 390.833 340.213 390.833ZM340.253 412.271C339.719 412.271 339.186 412.071 338.653 411.671C338.146 411.244 337.893 410.738 337.893 410.151C337.893 409.618 338.093 409.111 338.493 408.631L344.612 401.152L347.012 405.151L342.173 411.271C341.666 411.938 341.026 412.271 340.253 412.271ZM353.572 390.833C354.211 390.833 354.745 391.059 355.171 391.513C355.625 391.939 355.851 392.433 355.851 392.993C355.851 393.259 355.811 393.526 355.731 393.793C355.651 394.059 355.505 394.312 355.291 394.552L349.252 401.912L346.732 398.432L351.652 391.913C352.185 391.193 352.825 390.833 353.572 390.833ZM376.113 390.833C376.886 390.833 377.539 391.166 378.072 391.833L391.431 408.431C391.778 408.858 391.951 409.338 391.951 409.871C391.951 410.538 391.698 411.111 391.191 411.591C390.685 412.071 390.125 412.311 389.511 412.311C388.738 412.311 388.085 411.964 387.552 411.271L374.193 394.672C373.846 394.246 373.673 393.766 373.673 393.233C373.673 392.539 373.913 391.966 374.393 391.513C374.899 391.059 375.473 390.833 376.113 390.833ZM376.153 412.271C375.619 412.271 375.086 412.071 374.553 411.671C374.046 411.244 373.793 410.738 373.793 410.151C373.793 409.618 373.993 409.111 374.393 408.631L380.512 401.152L382.912 405.151L378.072 411.271C377.566 411.938 376.926 412.271 376.153 412.271ZM389.471 390.833C390.111 390.833 390.645 391.059 391.071 391.513C391.525 391.939 391.751 392.433 391.751 392.993C391.751 393.259 391.711 393.526 391.631 393.793C391.551 394.059 391.405 394.312 391.191 394.552L385.152 401.912L382.632 398.432L387.552 391.913C388.085 391.193 388.725 390.833 389.471 390.833ZM398.203 390.833C398.976 390.833 399.629 391.166 400.163 391.833L413.521 408.431C413.868 408.858 414.041 409.338 414.041 409.871C414.041 410.538 413.788 411.111 413.281 411.591C412.775 412.071 412.215 412.311 411.602 412.311C410.828 412.311 410.175 411.964 409.642 411.271L396.283 394.672C395.936 394.246 395.763 393.766 395.763 393.233C395.763 392.539 396.003 391.966 396.483 391.513C396.99 391.059 397.563 390.833 398.203 390.833ZM398.243 412.271C397.709 412.271 397.176 412.071 396.643 411.671C396.136 411.244 395.883 410.738 395.883 410.151C395.883 409.618 396.083 409.111 396.483 408.631L402.602 401.152L405.002 405.151L400.163 411.271C399.656 411.938 399.016 412.271 398.243 412.271ZM411.562 390.833C412.201 390.833 412.735 391.059 413.161 391.513C413.615 391.939 413.841 392.433 413.841 392.993C413.841 393.259 413.801 393.526 413.721 393.793C413.641 394.059 413.495 394.312 413.281 394.552L407.242 401.912L404.722 398.432L409.642 391.913C410.175 391.193 410.815 390.833 411.562 390.833ZM420.293 390.833C421.066 390.833 421.719 391.166 422.253 391.833L435.611 408.431C435.958 408.858 436.131 409.338 436.131 409.871C436.131 410.538 435.878 411.111 435.371 411.591C434.865 412.071 434.305 412.311 433.692 412.311C432.918 412.311 432.265 411.964 431.732 411.271L418.373 394.672C418.026 394.246 417.853 393.766 417.853 393.233C417.853 392.539 418.093 391.966 418.573 391.513C419.08 391.059 419.653 390.833 420.293 390.833ZM420.333 412.271C419.8 412.271 419.266 412.071 418.733 411.671C418.226 411.244 417.973 410.738 417.973 410.151C417.973 409.618 418.173 409.111 418.573 408.631L424.692 401.152L427.092 405.151L422.253 411.271C421.746 411.938 421.106 412.271 420.333 412.271ZM433.652 390.833C434.292 390.833 434.825 391.059 435.252 391.513C435.705 391.939 435.931 392.433 435.931 392.993C435.931 393.259 435.891 393.526 435.811 393.793C435.731 394.059 435.585 394.312 435.371 394.552L429.332 401.912L426.812 398.432L431.732 391.913C432.265 391.193 432.905 390.833 433.652 390.833ZM442.383 390.833C443.156 390.833 443.81 391.166 444.343 391.833L457.702 408.431C458.048 408.858 458.222 409.338 458.222 409.871C458.222 410.538 457.968 411.111 457.462 411.591C456.955 412.071 456.395 412.311 455.782 412.311C455.009 412.311 454.355 411.964 453.822 411.271L440.463 394.672C440.117 394.246 439.943 393.766 439.943 393.233C439.943 392.539 440.183 391.966 440.663 391.513C441.17 391.059 441.743 390.833 442.383 390.833ZM442.423 412.271C441.89 412.271 441.356 412.071 440.823 411.671C440.317 411.244 440.063 410.738 440.063 410.151C440.063 409.618 440.263 409.111 440.663 408.631L446.783 401.152L449.182 405.151L444.343 411.271C443.836 411.938 443.196 412.271 442.423 412.271ZM455.742 390.833C456.382 390.833 456.915 391.059 457.342 391.513C457.795 391.939 458.022 392.433 458.022 392.993C458.022 393.259 457.982 393.526 457.902 393.793C457.822 394.059 457.675 394.312 457.462 394.552L451.422 401.912L448.902 398.432L453.822 391.913C454.355 391.193 454.995 390.833 455.742 390.833Z" fill="white"/>
<path d="M734.26 120.657C734.42 120.657 734.544 120.71 734.632 120.817C734.721 120.905 734.765 121.021 734.765 121.162V138.685C734.765 138.88 734.703 139.031 734.579 139.137C734.473 139.226 734.349 139.27 734.207 139.27C734.136 139.27 734.056 139.253 733.968 139.217C733.897 139.182 733.835 139.129 733.782 139.058L721.444 122.199L721.816 122.013V138.818C721.816 138.942 721.763 139.049 721.656 139.137C721.568 139.226 721.453 139.27 721.311 139.27C721.151 139.27 721.027 139.226 720.938 139.137C720.85 139.049 720.806 138.942 720.806 138.818V121.189C720.806 120.994 720.859 120.861 720.965 120.79C721.071 120.701 721.178 120.657 721.284 120.657C721.355 120.657 721.426 120.675 721.497 120.71C721.568 120.728 721.63 120.772 721.683 120.843L733.968 137.595L733.755 138.127V121.162C733.755 121.021 733.808 120.905 733.915 120.817C734.021 120.71 734.136 120.657 734.26 120.657ZM734.339 167.57C734.339 168.881 734.055 170.069 733.488 171.133C732.921 172.179 732.141 173.012 731.148 173.632C730.173 174.235 729.056 174.536 727.798 174.536C726.557 174.536 725.44 174.235 724.447 173.632C723.455 173.012 722.666 172.179 722.081 171.133C721.514 170.069 721.23 168.881 721.23 167.57C721.23 166.24 721.514 165.052 722.081 164.007C722.666 162.943 723.455 162.11 724.447 161.507C725.44 160.887 726.557 160.576 727.798 160.576C729.056 160.576 730.173 160.887 731.148 161.507C732.141 162.11 732.921 162.943 733.488 164.007C734.055 165.052 734.339 166.24 734.339 167.57ZM733.275 167.57C733.275 166.417 733.036 165.398 732.557 164.512C732.097 163.608 731.45 162.899 730.616 162.385C729.801 161.853 728.861 161.587 727.798 161.587C726.752 161.587 725.812 161.853 724.979 162.385C724.146 162.899 723.49 163.608 723.012 164.512C722.533 165.398 722.294 166.417 722.294 167.57C722.294 168.704 722.533 169.723 723.012 170.628C723.49 171.514 724.146 172.223 724.979 172.755C725.812 173.269 726.752 173.526 727.798 173.526C728.861 173.526 729.801 173.269 730.616 172.755C731.45 172.223 732.097 171.514 732.557 170.628C733.036 169.723 733.275 168.704 733.275 167.57ZM722.468 195.523C722.556 195.523 722.645 195.559 722.734 195.63C722.84 195.683 722.911 195.762 722.946 195.869L727.866 207.648L727.6 207.835L732.599 195.869C732.687 195.638 732.874 195.523 733.157 195.523C733.246 195.523 733.352 195.559 733.476 195.63C733.6 195.7 733.662 195.807 733.662 195.949C733.662 196.037 733.653 196.108 733.636 196.161C733.618 196.197 733.6 196.232 733.583 196.268L728.291 208.925C728.202 209.155 728.034 209.27 727.786 209.27C727.68 209.27 727.573 209.244 727.467 209.191C727.378 209.12 727.316 209.031 727.281 208.925L721.963 196.294C721.945 196.259 721.927 196.223 721.909 196.188C721.909 196.135 721.909 196.09 721.909 196.055C721.909 195.913 721.954 195.789 722.042 195.683C722.131 195.576 722.273 195.523 722.468 195.523ZM728.582 244.536C727.253 244.536 726.074 244.253 725.046 243.685C724.036 243.118 723.238 242.32 722.653 241.292C722.068 240.246 721.775 239.023 721.775 237.623C721.775 236.134 722.059 234.866 722.626 233.82C723.211 232.774 723.956 231.977 724.86 231.427C725.782 230.86 726.757 230.576 727.785 230.576C728.529 230.576 729.256 230.7 729.965 230.949C730.674 231.179 731.304 231.551 731.853 232.065C732.42 232.562 732.872 233.191 733.209 233.953C733.564 234.698 733.759 235.593 733.794 236.639C733.794 236.781 733.741 236.914 733.635 237.038C733.528 237.144 733.404 237.197 733.262 237.197H722.413L722.254 236.187H732.97L732.704 236.426V235.948C732.615 235.008 732.314 234.219 731.8 233.581C731.304 232.943 730.701 232.464 729.992 232.145C729.283 231.808 728.547 231.64 727.785 231.64C727.253 231.64 726.695 231.764 726.11 232.012C725.525 232.243 724.984 232.606 724.488 233.102C723.991 233.581 723.583 234.193 723.264 234.937C722.963 235.682 722.812 236.55 722.812 237.543C722.812 238.624 723.025 239.617 723.451 240.521C723.894 241.425 724.541 242.152 725.392 242.702C726.26 243.251 727.324 243.526 728.582 243.526C729.185 243.526 729.752 243.428 730.284 243.233C730.816 243.021 731.295 242.746 731.72 242.409C732.146 242.072 732.491 241.709 732.757 241.319C732.899 241.159 733.05 241.08 733.209 241.08C733.333 241.08 733.44 241.133 733.528 241.239C733.617 241.328 733.661 241.434 733.661 241.558C733.661 241.682 733.626 241.789 733.555 241.877C733.005 242.586 732.296 243.207 731.428 243.739C730.577 244.27 729.628 244.536 728.582 244.536ZM723.563 265.842C724.556 265.842 725.46 266.117 726.276 266.667C727.109 267.198 727.676 268.04 727.977 269.193L727.632 269.432L727.765 268.927C727.995 268.342 728.394 267.819 728.961 267.358C729.546 266.897 730.193 266.534 730.902 266.268C731.629 265.984 732.329 265.842 733.003 265.842C734.067 265.842 734.944 266.073 735.635 266.534C736.327 266.995 736.832 267.615 737.151 268.395C737.488 269.157 737.656 270.026 737.656 271.001V278.739C737.656 278.88 737.603 279.004 737.497 279.111C737.408 279.217 737.284 279.27 737.124 279.27C736.965 279.27 736.832 279.217 736.726 279.111C736.637 279.004 736.593 278.88 736.593 278.739V271.107C736.593 270.327 736.46 269.618 736.194 268.98C735.946 268.324 735.547 267.81 734.997 267.438C734.465 267.048 733.765 266.853 732.897 266.853C732.134 266.853 731.39 267.048 730.663 267.438C729.936 267.81 729.333 268.324 728.855 268.98C728.394 269.618 728.163 270.327 728.163 271.107V278.739C728.163 278.88 728.11 279.004 728.004 279.111C727.915 279.217 727.791 279.27 727.632 279.27C727.472 279.27 727.339 279.217 727.233 279.111C727.144 279.004 727.1 278.88 727.1 278.739V270.974C727.1 270.212 726.976 269.521 726.728 268.9C726.497 268.28 726.125 267.783 725.611 267.411C725.097 267.039 724.414 266.853 723.563 266.853C722.819 266.853 722.092 267.039 721.383 267.411C720.692 267.783 720.115 268.28 719.655 268.9C719.194 269.521 718.963 270.212 718.963 270.974V278.739C718.963 278.88 718.91 279.004 718.804 279.111C718.697 279.217 718.573 279.27 718.431 279.27C718.272 279.27 718.139 279.217 718.033 279.111C717.944 279.004 717.9 278.88 717.9 278.739V266.534C717.9 266.392 717.953 266.268 718.059 266.161C718.165 266.055 718.29 266.002 718.431 266.002C718.591 266.002 718.715 266.055 718.804 266.161C718.91 266.268 718.963 266.392 718.963 266.534V269.432L718.165 270.788C718.165 270.168 718.316 269.565 718.618 268.98C718.919 268.395 719.318 267.872 719.814 267.411C720.328 266.932 720.904 266.551 721.542 266.268C722.198 265.984 722.872 265.842 723.563 265.842ZM728.197 300.576C729.385 300.576 730.44 300.878 731.362 301.48C732.283 302.065 733.01 302.881 733.542 303.927C734.091 304.955 734.366 306.143 734.366 307.49C734.366 308.819 734.091 310.016 733.542 311.08C733.01 312.143 732.274 312.985 731.335 313.606C730.413 314.226 729.367 314.536 728.197 314.536C727.612 314.536 727.045 314.448 726.496 314.27C725.964 314.093 725.467 313.845 725.006 313.526C724.546 313.189 724.12 312.79 723.73 312.329C723.358 311.851 723.03 311.319 722.746 310.734L723.092 310.362V313.739C723.092 313.88 723.039 314.004 722.932 314.111C722.844 314.217 722.72 314.27 722.56 314.27C722.418 314.27 722.294 314.217 722.188 314.111C722.082 314.004 722.028 313.88 722.028 313.739V295.152C722.028 295.01 722.073 294.886 722.161 294.78C722.268 294.673 722.401 294.62 722.56 294.62C722.72 294.62 722.844 294.673 722.932 294.78C723.039 294.886 723.092 295.01 723.092 295.152V304.778L722.746 304.592C722.994 303.936 723.305 303.359 723.677 302.863C724.049 302.367 724.475 301.95 724.953 301.613C725.432 301.277 725.946 301.02 726.496 300.842C727.045 300.665 727.612 300.576 728.197 300.576ZM728.144 301.587C727.134 301.587 726.238 301.844 725.459 302.358C724.696 302.854 724.094 303.546 723.65 304.432C723.207 305.318 722.986 306.338 722.986 307.49C722.986 308.642 723.207 309.679 723.65 310.601C724.094 311.505 724.696 312.223 725.459 312.755C726.238 313.269 727.134 313.526 728.144 313.526C729.137 313.526 730.014 313.26 730.777 312.728C731.557 312.196 732.168 311.478 732.611 310.574C733.072 309.653 733.303 308.624 733.303 307.49C733.303 306.338 733.072 305.318 732.611 304.432C732.168 303.546 731.557 302.854 730.777 302.358C730.014 301.844 729.137 301.587 728.144 301.587ZM728.582 349.536C727.253 349.536 726.074 349.253 725.046 348.685C724.036 348.118 723.238 347.32 722.653 346.292C722.068 345.246 721.775 344.023 721.775 342.623C721.775 341.134 722.059 339.866 722.626 338.82C723.211 337.774 723.956 336.977 724.86 336.427C725.782 335.86 726.757 335.576 727.785 335.576C728.529 335.576 729.256 335.7 729.965 335.949C730.674 336.179 731.304 336.551 731.853 337.065C732.42 337.562 732.872 338.191 733.209 338.953C733.564 339.698 733.759 340.593 733.794 341.639C733.794 341.781 733.741 341.914 733.635 342.038C733.528 342.144 733.404 342.197 733.262 342.197H722.413L722.254 341.187H732.97L732.704 341.426V340.948C732.615 340.008 732.314 339.219 731.8 338.581C731.304 337.943 730.701 337.464 729.992 337.145C729.283 336.808 728.547 336.64 727.785 336.64C727.253 336.64 726.695 336.764 726.11 337.012C725.525 337.243 724.984 337.606 724.488 338.102C723.991 338.581 723.583 339.193 723.264 339.937C722.963 340.682 722.812 341.55 722.812 342.543C722.812 343.624 723.025 344.617 723.451 345.521C723.894 346.425 724.541 347.152 725.392 347.702C726.26 348.251 727.324 348.526 728.582 348.526C729.185 348.526 729.752 348.428 730.284 348.233C730.816 348.021 731.295 347.746 731.72 347.409C732.146 347.072 732.491 346.709 732.757 346.319C732.899 346.159 733.05 346.08 733.209 346.08C733.333 346.08 733.44 346.133 733.528 346.239C733.617 346.328 733.661 346.434 733.661 346.558C733.661 346.682 733.626 346.789 733.555 346.877C733.005 347.586 732.296 348.207 731.428 348.739C730.577 349.27 729.628 349.536 728.582 349.536ZM725.624 384.27C725.465 384.27 725.332 384.217 725.225 384.111C725.137 384.004 725.092 383.88 725.092 383.739V371.534C725.092 371.392 725.146 371.268 725.252 371.161C725.358 371.055 725.482 371.002 725.624 371.002C725.784 371.002 725.908 371.055 725.997 371.161C726.103 371.268 726.156 371.392 726.156 371.534V376.027L725.704 376.719C725.704 376.027 725.819 375.327 726.05 374.618C726.298 373.909 726.652 373.253 727.113 372.65C727.574 372.03 728.133 371.534 728.789 371.161C729.462 370.771 730.233 370.576 731.102 370.576C731.35 370.576 731.616 370.612 731.9 370.683C732.183 370.754 732.325 370.922 732.325 371.188C732.325 371.347 732.281 371.48 732.192 371.587C732.103 371.693 731.988 371.746 731.846 371.746C731.74 371.746 731.607 371.711 731.448 371.64C731.306 371.551 731.093 371.507 730.809 371.507C730.242 371.507 729.684 371.675 729.134 372.012C728.585 372.349 728.079 372.801 727.619 373.368C727.175 373.918 726.821 374.521 726.555 375.176C726.289 375.832 726.156 376.471 726.156 377.091V383.739C726.156 383.88 726.103 384.004 725.997 384.111C725.89 384.217 725.766 384.27 725.624 384.27Z" fill="#E4F6C8"/>
<path d="M60.1238 331.589C60.1238 332.101 59.9367 332.535 59.5625 332.889C59.1882 333.224 58.7549 333.391 58.2625 333.391C57.711 333.391 57.2678 333.224 56.933 332.889C56.5981 332.535 56.4307 332.101 56.4307 331.589V314.512C56.4307 314 56.608 313.577 56.9625 313.242C57.3171 312.887 57.7701 312.71 58.3216 312.71C58.7943 312.71 59.2079 312.887 59.5625 313.242C59.9367 313.577 60.1238 314 60.1238 314.512V331.589ZM70.1806 331.589C70.1806 332.101 69.9935 332.535 69.6192 332.889C69.245 333.224 68.8117 333.391 68.3193 333.391C67.7678 333.391 67.3246 333.224 66.9897 332.889C66.6549 332.535 66.4875 332.101 66.4875 331.589V314.512C66.4875 314 66.6648 313.577 67.0193 313.242C67.3738 312.887 67.8269 312.71 68.3784 312.71C68.8511 312.71 69.2647 312.887 69.6192 313.242C69.9935 313.577 70.1806 314 70.1806 314.512V331.589ZM80.2374 331.589C80.2374 332.101 80.0503 332.535 79.676 332.889C79.3018 333.224 78.8685 333.391 78.376 333.391C77.8245 333.391 77.3814 333.224 77.0465 332.889C76.7117 332.535 76.5443 332.101 76.5443 331.589V314.512C76.5443 314 76.7215 313.577 77.0761 313.242C77.4306 312.887 77.8836 312.71 78.4351 312.71C78.9079 312.71 79.3215 312.887 79.676 313.242C80.0503 313.577 80.2374 314 80.2374 314.512V331.589ZM93.6032 333.391C93.0517 333.391 92.5986 333.224 92.2441 332.889C91.8896 332.535 91.7123 332.101 91.7123 331.589V314.453H95.5531V331.589C95.5531 332.101 95.366 332.535 94.9918 332.889C94.6372 333.224 94.1744 333.391 93.6032 333.391ZM87.0738 316.108C86.5617 316.108 86.1283 315.95 85.7738 315.635C85.439 315.32 85.2715 314.906 85.2715 314.394C85.2715 313.882 85.439 313.478 85.7738 313.183C86.1283 312.868 86.5617 312.71 87.0738 312.71H100.192C100.704 312.71 101.127 312.868 101.462 313.183C101.817 313.498 101.994 313.911 101.994 314.424C101.994 314.936 101.817 315.349 101.462 315.664C101.127 315.96 100.704 316.108 100.192 316.108H87.0738ZM115.879 312.71C117.297 312.71 118.558 312.976 119.661 313.508C120.764 314.039 121.69 314.788 122.438 315.753C123.206 316.699 123.778 317.802 124.152 319.062C124.546 320.303 124.743 321.633 124.743 323.051C124.743 324.961 124.398 326.704 123.709 328.28C123.019 329.836 122.015 331.077 120.695 332.003C119.395 332.928 117.79 333.391 115.879 333.391H108.818C108.306 333.391 107.873 333.224 107.518 332.889C107.183 332.535 107.016 332.101 107.016 331.589V314.512C107.016 314 107.183 313.577 107.518 313.242C107.873 312.887 108.306 312.71 108.818 312.71H115.879ZM115.584 329.994C116.825 329.994 117.839 329.679 118.627 329.048C119.415 328.398 119.986 327.551 120.341 326.507C120.715 325.444 120.902 324.292 120.902 323.051C120.902 322.125 120.794 321.248 120.577 320.421C120.38 319.574 120.065 318.836 119.631 318.205C119.198 317.555 118.647 317.043 117.977 316.669C117.307 316.295 116.51 316.108 115.584 316.108H110.413L110.709 315.842V330.319L110.532 329.994H115.584ZM131.917 312.68C132.193 312.68 132.479 312.759 132.774 312.917C133.089 313.055 133.326 313.242 133.483 313.478L140.663 324.528L139.186 324.469L146.542 313.478C146.916 312.946 147.399 312.68 147.99 312.68C148.463 312.68 148.886 312.848 149.26 313.183C149.635 313.518 149.822 313.951 149.822 314.483V331.589C149.822 332.101 149.654 332.535 149.319 332.889C148.985 333.224 148.541 333.391 147.99 333.391C147.438 333.391 146.985 333.224 146.631 332.889C146.296 332.535 146.129 332.101 146.129 331.589V317.674L147.281 317.939L141.254 327.128C141.076 327.345 140.85 327.532 140.574 327.689C140.318 327.847 140.052 327.916 139.776 327.896C139.52 327.916 139.254 327.847 138.979 327.689C138.723 327.532 138.506 327.345 138.329 327.128L132.686 318.205L133.454 316.639V331.589C133.454 332.101 133.296 332.535 132.981 332.889C132.666 333.224 132.252 333.391 131.74 333.391C131.248 333.391 130.844 333.224 130.529 332.889C130.214 332.535 130.056 332.101 130.056 331.589V314.483C130.056 313.99 130.233 313.567 130.588 313.212C130.962 312.858 131.405 312.68 131.917 312.68ZM161 333.687C159.877 333.687 158.833 333.46 157.868 333.007C156.903 332.554 156.115 331.904 155.504 331.057C155.268 330.703 155.15 330.358 155.15 330.023C155.15 329.531 155.337 329.117 155.711 328.782C156.105 328.448 156.489 328.28 156.863 328.28C157.159 328.28 157.444 328.369 157.72 328.546C158.015 328.723 158.281 328.93 158.518 329.166C158.912 329.521 159.296 329.777 159.67 329.935C160.064 330.072 160.507 330.141 161 330.141C161.59 330.141 162.142 329.994 162.654 329.698C163.166 329.403 163.58 329.009 163.895 328.516C164.21 328.024 164.368 327.492 164.368 326.921V314.512C164.368 314 164.555 313.577 164.929 313.242C165.303 312.887 165.737 312.71 166.229 312.71C166.78 312.71 167.224 312.887 167.558 313.242C167.893 313.577 168.061 314 168.061 314.512V326.921C168.061 328.123 167.746 329.235 167.115 330.26C166.485 331.284 165.638 332.111 164.574 332.741C163.511 333.372 162.319 333.687 161 333.687Z" fill="white"/>
</g>
<defs>
<filter id="filter0_d_2941_326" x="272.604" y="73.686" width="230.295" height="185.365" filterUnits="userSpaceOnUse" color-interpolation-filters="sRGB">
<feFlood flood-opacity="0" result="BackgroundImageFix"/>
<feColorMatrix in="SourceAlpha" type="matrix" values="0 0 0 0 0 0 0 0 0 0 0 0 0 0 0 0 0 0 127 0" result="hardAlpha"/>
<feOffset dx="-9.26216" dy="-3.28657"/>
<feGaussianBlur stdDeviation="2.61432"/>
<feComposite in2="hardAlpha" operator="out"/>
<feColorMatrix type="matrix" values="0 0 0 0 0 0 0 0 0 0 0 0 0 0 0 0 0 0 0.7 0"/>
<feBlend mode="normal" in2="BackgroundImageFix" result="effect1_dropShadow_2941_326"/>
<feBlend mode="normal" in="SourceGraphic" in2="effect1_dropShadow_2941_326" result="shape"/>
</filter>
<filter id="filter1_d_2941_326" x="90.1137" y="87.2157" width="211.883" height="181.092" filterUnits="userSpaceOnUse" color-interpolation-filters="sRGB">
<feFlood flood-opacity="0" result="BackgroundImageFix"/>
<feColorMatrix in="SourceAlpha" type="matrix" values="0 0 0 0 0 0 0 0 0 0 0 0 0 0 0 0 0 0 127 0" result="hardAlpha"/>
<feOffset dx="-9.26216" dy="-3.28657"/>
<feGaussianBlur stdDeviation="2.61432"/>
<feComposite in2="hardAlpha" operator="out"/>
<feColorMatrix type="matrix" values="0 0 0 0 0 0 0 0 0 0 0 0 0 0 0 0 0 0 0.7 0"/>
<feBlend mode="normal" in2="BackgroundImageFix" result="effect1_dropShadow_2941_326"/>
<feBlend mode="normal" in="SourceGraphic" in2="effect1_dropShadow_2941_326" result="shape"/>
</filter>
<clipPath id="clip0_2941_326">
<rect y="508.319" width="508.319" height="961.389" rx="39.8855" transform="rotate(-90 0 508.319)" fill="white"/>
</clipPath>
</defs>
</svg>
