<svg width="55" height="54" viewBox="0 0 55 54" fill="none" xmlns="http://www.w3.org/2000/svg">
<path d="M27.6004 0L30.6542 12.833L38.6636 2.35156L36.2338 15.3172L47.8139 8.99965L40.3206 19.856L53.4691 18.7947L42.2079 25.6647L54.6514 30.0432L41.5695 31.7388L51.1563 40.8L38.5157 37.0282L43.5882 49.2053L33.5745 40.6182L33.2556 53.8056L27.6004 41.888L21.9452 53.8056L21.6262 40.6182L11.6126 49.2053L16.6851 37.0282L4.0445 40.8L13.6313 31.7388L0.549395 30.0432L12.9929 25.6647L1.73165 18.7947L14.8802 19.856L7.38685 8.99965L18.967 15.3172L16.5372 2.35156L24.5466 12.833L27.6004 0Z" fill="#ED3C71"/>
</svg>
