<svg width="360" height="34" viewBox="0 0 360 34" fill="none" xmlns="http://www.w3.org/2000/svg">
<path d="M-0.447599 2.70801L1.16748 9.49505L5.40347 3.95169L4.11839 10.8089L10.2428 7.4677L6.27979 13.2094L13.2337 12.6481L7.27797 16.2814L13.859 18.5971L6.94032 19.4939L12.0105 24.2861L5.32524 22.2913L8.00793 28.7315L2.71198 24.1899L2.54329 31.1645L-0.447599 24.8615L-3.43849 31.1645L-3.60718 24.1899L-8.90313 28.7315L-6.22044 22.2913L-12.9057 24.2861L-7.83552 19.4939L-14.7542 18.5971L-8.17316 16.2814L-14.1289 12.6481L-7.17499 13.2094L-11.138 7.4677L-5.01359 10.8089L-6.29867 3.95169L-2.06268 9.49505L-0.447599 2.70801Z" fill="#ED3C71"/>
<path d="M44.3042 7.52843H40.5843L36.3887 34H29.7708L33.9664 7.52843L30.2466 7.52843L31.0684 2.38119L45.126 2.38119L44.3042 7.52843ZM38.9241 34L48.1805 2.38119L56.3988 2.38119L55.6202 34H49.0456L49.5647 27.8147H46.9261L45.4555 34H38.9241ZM48.0508 22.6674H49.9972L50.9488 10.859L48.0508 22.6674ZM66.0431 21.6726H65.5674L63.6209 34H57.003L62.0205 2.38119L71.4499 2.38119C72.1708 2.38119 72.8629 2.43886 73.5261 2.5542C74.1894 2.64071 74.7517 2.84256 75.213 3.15976C75.7033 3.44812 76.0493 3.88066 76.2511 4.45739C76.4818 5.00527 76.5251 5.75501 76.3809 6.7066L75.1698 14.4059C75.0256 15.2709 74.6363 16.1072 74.0019 16.9146C73.3964 17.722 72.6034 18.2555 71.6229 18.515C72.488 18.8322 73.108 19.3801 73.4829 20.1587C73.8577 20.9372 73.9731 21.7735 73.8289 22.6674L72.0555 34H65.4376L67.1678 22.9702C67.2254 22.653 67.1678 22.3646 66.9947 22.1051C66.8217 21.8456 66.5045 21.7014 66.0431 21.6726ZM66.5189 15.7035H66.9515C67.8742 15.7035 68.4077 15.2709 68.5519 14.4059L69.5035 8.30701C69.5323 8.13399 69.5323 7.96098 69.5035 7.78796C69.4746 7.61494 69.3449 7.52843 69.1142 7.52843H67.8166L66.5189 15.7035ZM73.4244 34L82.6808 2.38119L90.8991 2.38119L90.1205 34L83.5459 34L84.0649 27.8147H81.4264L79.9558 34H73.4244ZM82.551 22.6674H84.4975L85.4491 10.859L82.551 22.6674ZM96.5208 2.38119L104.826 2.38119L104.609 18.0825L107.118 2.38119L113.563 2.38119L108.545 34H100.457L100.414 18.342L97.9482 34H91.5033L96.5208 2.38119ZM119.642 21.9753L120.464 16.8281L127.904 16.8281L125.179 34H115.749C115.028 34 114.336 33.9567 113.673 33.8702C113.01 33.7837 112.433 33.5963 111.943 33.3079C111.482 32.9907 111.136 32.5438 110.905 31.9671C110.703 31.3903 110.674 30.6262 110.818 29.6746L114.452 6.7066C114.596 5.75501 114.87 5.00527 115.274 4.45739C115.677 3.88066 116.167 3.44812 116.744 3.15976C117.321 2.84256 117.955 2.64071 118.647 2.5542C119.339 2.43886 120.046 2.38119 120.767 2.38119H124.573C125.294 2.38119 125.986 2.43886 126.649 2.5542C127.313 2.64071 127.875 2.84256 128.336 3.15976C128.826 3.44812 129.173 3.88066 129.374 4.45739C129.605 5.00527 129.648 5.75501 129.504 6.7066L128.466 13.1515H121.848L122.627 8.30701C122.656 8.13399 122.656 7.96098 122.627 7.78796C122.598 7.61494 122.468 7.52843 122.237 7.52843H121.459C121.228 7.52843 121.07 7.61494 120.983 7.78796C120.897 7.96098 120.839 8.13399 120.81 8.30701L117.696 28.0742C117.638 28.2472 117.624 28.4202 117.652 28.5932C117.71 28.7662 117.854 28.8528 118.085 28.8528H119.383L120.464 21.9753H119.642ZM145.767 15.617C145.969 15.5881 146.113 15.516 146.2 15.4007C146.315 15.2565 146.387 15.1123 146.416 14.9682L147.454 8.30701C147.483 8.13399 147.483 7.96098 147.454 7.78796C147.425 7.61494 147.295 7.52843 147.065 7.52843H146.286C146.055 7.52843 145.897 7.61494 145.81 7.78796C145.724 7.96098 145.666 8.13399 145.637 8.30701L144.859 13.1515H138.241L139.279 6.7066C139.423 5.75501 139.697 5.00527 140.101 4.45739C140.504 3.88066 140.995 3.44812 141.571 3.15976C142.148 2.84256 142.783 2.64071 143.475 2.5542C144.167 2.43886 144.873 2.38119 145.594 2.38119L149.4 2.38119C150.121 2.38119 150.813 2.43886 151.477 2.5542C152.14 2.64071 152.702 2.84256 153.164 3.15976C153.654 3.44812 154 3.88066 154.202 4.45739C154.432 5.00527 154.476 5.75501 154.331 6.7066L152.601 17.5634C152.486 18.2555 152.255 18.8178 151.909 19.2503C151.563 19.6829 151.116 20.0145 150.568 20.2452C150.049 20.447 149.429 20.5912 148.708 20.6777C148.016 20.7354 147.267 20.7642 146.459 20.7642H144.167C143.936 20.7642 143.777 20.8507 143.691 21.0237C143.633 21.1968 143.59 21.3698 143.561 21.5428L142.393 28.8528H144.21L145.075 23.2297H151.693L150.006 34H134.953L137.159 19.9424C137.304 18.9908 137.563 18.2411 137.938 17.6932C138.313 17.1164 138.774 16.6839 139.322 16.3955C139.87 16.0783 140.49 15.8765 141.182 15.79C141.903 15.6746 142.667 15.617 143.475 15.617H145.767ZM166.038 2.38119C166.759 2.38119 167.451 2.43886 168.114 2.5542C168.777 2.64071 169.34 2.84256 169.801 3.15976C170.291 3.44812 170.637 3.88066 170.839 4.45739C171.07 5.00527 171.113 5.75501 170.969 6.7066L169.844 13.8868C169.7 14.7519 169.311 15.5881 168.677 16.3955C168.071 17.203 167.278 17.7364 166.298 17.9959C167.163 18.3131 167.783 18.861 168.158 19.6396C168.532 20.4182 168.648 21.2544 168.504 22.1484L167.336 29.6746C167.191 30.6262 166.918 31.3903 166.514 31.9671C166.11 32.5438 165.62 32.9907 165.043 33.3079C164.466 33.5963 163.832 33.7837 163.14 33.8702C162.448 33.9567 161.741 34 161.021 34H157.214C156.493 34 155.801 33.9567 155.138 33.8702C154.475 33.7837 153.898 33.5963 153.408 33.3079C152.946 32.9907 152.6 32.5438 152.37 31.9671C152.168 31.3903 152.139 30.6262 152.283 29.6746L153.278 23.2297H159.896L159.117 28.2904C159.117 28.4346 159.132 28.5644 159.161 28.6797C159.189 28.7662 159.276 28.8239 159.42 28.8528H160.415C160.675 28.7951 160.848 28.6076 160.934 28.2904L161.929 21.9753C161.987 21.7158 161.958 21.4707 161.842 21.24C161.727 21.0093 161.511 20.8507 161.194 20.7642H155.657L156.479 15.617H162.015C162.65 15.5016 163.025 15.0835 163.14 14.3626L164.092 8.30701C164.12 8.16283 164.12 8.01865 164.092 7.87447C164.063 7.70145 163.962 7.58611 163.789 7.52843H162.924C162.693 7.52843 162.534 7.61494 162.448 7.78796C162.361 7.96098 162.304 8.13399 162.275 8.30701L161.496 13.1515H154.878L155.917 6.7066C156.061 5.75501 156.335 5.00527 156.738 4.45739C157.142 3.88066 157.632 3.44812 158.209 3.15976C158.786 2.84256 159.42 2.64071 160.112 2.5542C160.804 2.43886 161.511 2.38119 162.232 2.38119L166.038 2.38119ZM172.165 9.04233L173.246 2.38119H179.864L178.783 9.04233C178.61 10.1381 178.163 11.0176 177.442 11.6808C176.75 12.3441 175.942 12.6757 175.02 12.6757H174.544L175.106 9.04233H172.165Z" fill="white"/>
<path d="M203.694 2.70801L205.309 9.49505L209.545 3.95169L208.26 10.8089L214.384 7.4677L210.421 13.2094L217.375 12.6481L211.42 16.2814L218.001 18.5971L211.082 19.4939L216.152 24.2861L209.467 22.2913L212.15 28.7315L206.854 24.1899L206.685 31.1645L203.694 24.8615L200.703 31.1645L200.534 24.1899L195.238 28.7315L197.921 22.2913L191.236 24.2861L196.306 19.4939L189.387 18.5971L195.968 16.2814L190.013 12.6481L196.967 13.2094L193.004 7.4677L199.128 10.8089L197.843 3.95169L202.079 9.49505L203.694 2.70801Z" fill="#ED3C71"/>
<path d="M248.446 7.52843H244.726L240.53 34H233.912L238.108 7.52843L234.388 7.52843L235.21 2.38119L249.268 2.38119L248.446 7.52843ZM243.066 34L252.322 2.38119L260.54 2.38119L259.762 34H253.187L253.706 27.8147H251.068L249.597 34H243.066ZM252.192 22.6674H254.139L255.09 10.859L252.192 22.6674ZM270.185 21.6726H269.709L267.763 34H261.145L266.162 2.38119L275.592 2.38119C276.312 2.38119 277.004 2.43886 277.668 2.5542C278.331 2.64071 278.893 2.84256 279.355 3.15976C279.845 3.44812 280.191 3.88066 280.393 4.45739C280.623 5.00527 280.667 5.75501 280.523 6.7066L279.311 14.4059C279.167 15.2709 278.778 16.1072 278.144 16.9146C277.538 17.722 276.745 18.2555 275.765 18.515C276.63 18.8322 277.25 19.3801 277.624 20.1587C277.999 20.9372 278.115 21.7735 277.971 22.6674L276.197 34H269.579L271.309 22.9702C271.367 22.653 271.309 22.3646 271.136 22.1051C270.963 21.8456 270.646 21.7014 270.185 21.6726ZM270.661 15.7035H271.093C272.016 15.7035 272.549 15.2709 272.693 14.4059L273.645 8.30701C273.674 8.13399 273.674 7.96098 273.645 7.78796C273.616 7.61494 273.486 7.52843 273.256 7.52843H271.958L270.661 15.7035ZM277.566 34L286.822 2.38119L295.041 2.38119L294.262 34L287.687 34L288.207 27.8147H285.568L284.097 34H277.566ZM286.693 22.6674H288.639L289.591 10.859L286.693 22.6674ZM300.662 2.38119L308.967 2.38119L308.751 18.0825L311.26 2.38119L317.705 2.38119L312.687 34H304.599L304.555 18.342L302.09 34H295.645L300.662 2.38119ZM323.784 21.9753L324.606 16.8281L332.045 16.8281L329.32 34H319.891C319.17 34 318.478 33.9567 317.815 33.8702C317.151 33.7837 316.575 33.5963 316.085 33.3079C315.623 32.9907 315.277 32.5438 315.046 31.9671C314.845 31.3903 314.816 30.6262 314.96 29.6746L318.593 6.7066C318.737 5.75501 319.011 5.00527 319.415 4.45739C319.819 3.88066 320.309 3.44812 320.886 3.15976C321.462 2.84256 322.097 2.64071 322.789 2.5542C323.481 2.43886 324.187 2.38119 324.908 2.38119H328.715C329.436 2.38119 330.128 2.43886 330.791 2.5542C331.454 2.64071 332.017 2.84256 332.478 3.15976C332.968 3.44812 333.314 3.88066 333.516 4.45739C333.747 5.00527 333.79 5.75501 333.646 6.7066L332.608 13.1515H325.99L326.768 8.30701C326.797 8.13399 326.797 7.96098 326.768 7.78796C326.739 7.61494 326.61 7.52843 326.379 7.52843H325.6C325.37 7.52843 325.211 7.61494 325.125 7.78796C325.038 7.96098 324.98 8.13399 324.952 8.30701L321.837 28.0742C321.78 28.2472 321.765 28.4202 321.794 28.5932C321.852 28.7662 321.996 28.8528 322.227 28.8528H323.524L324.606 21.9753H323.784ZM349.909 15.617C350.111 15.5881 350.255 15.516 350.341 15.4007C350.457 15.2565 350.529 15.1123 350.557 14.9682L351.596 8.30701C351.624 8.13399 351.624 7.96098 351.596 7.78796C351.567 7.61494 351.437 7.52843 351.206 7.52843H350.428C350.197 7.52843 350.038 7.61494 349.952 7.78796C349.865 7.96098 349.808 8.13399 349.779 8.30701L349 13.1515H342.382L343.421 6.7066C343.565 5.75501 343.839 5.00527 344.242 4.45739C344.646 3.88066 345.136 3.44812 345.713 3.15976C346.29 2.84256 346.924 2.64071 347.616 2.5542C348.308 2.43886 349.015 2.38119 349.736 2.38119L353.542 2.38119C354.263 2.38119 354.955 2.43886 355.618 2.5542C356.281 2.64071 356.844 2.84256 357.305 3.15976C357.795 3.44812 358.141 3.88066 358.343 4.45739C358.574 5.00527 358.617 5.75501 358.473 6.7066L356.743 17.5634C356.627 18.2555 356.397 18.8178 356.051 19.2503C355.705 19.6829 355.258 20.0145 354.71 20.2452C354.191 20.447 353.571 20.5912 352.85 20.6777C352.158 20.7354 351.408 20.7642 350.601 20.7642H348.308C348.078 20.7642 347.919 20.8507 347.832 21.0237C347.775 21.1968 347.732 21.3698 347.703 21.5428L346.535 28.8528H348.351L349.217 23.2297H355.834L354.148 34H339.095L341.301 19.9424C341.445 18.9908 341.705 18.2411 342.08 17.6932C342.455 17.1164 342.916 16.6839 343.464 16.3955C344.012 16.0783 344.632 15.8765 345.324 15.79C346.045 15.6746 346.809 15.617 347.616 15.617H349.909ZM370.18 2.38119C370.901 2.38119 371.593 2.43886 372.256 2.5542C372.919 2.64071 373.481 2.84256 373.943 3.15976C374.433 3.44812 374.779 3.88066 374.981 4.45739C375.212 5.00527 375.255 5.75501 375.111 6.7066L373.986 13.8868C373.842 14.7519 373.453 15.5881 372.818 16.3955C372.213 17.203 371.42 17.7364 370.439 17.9959C371.304 18.3131 371.924 18.861 372.299 19.6396C372.674 20.4182 372.789 21.2544 372.645 22.1484L371.477 29.6746C371.333 30.6262 371.059 31.3903 370.655 31.9671C370.252 32.5438 369.762 32.9907 369.185 33.3079C368.608 33.5963 367.974 33.7837 367.282 33.8702C366.59 33.9567 365.883 34 365.162 34H361.356C360.635 34 359.943 33.9567 359.28 33.8702C358.616 33.7837 358.04 33.5963 357.549 33.3079C357.088 32.9907 356.742 32.5438 356.511 31.9671C356.309 31.3903 356.281 30.6262 356.425 29.6746L357.42 23.2297H364.038L363.259 28.2904C363.259 28.4346 363.273 28.5644 363.302 28.6797C363.331 28.7662 363.418 28.8239 363.562 28.8528H364.557C364.816 28.7951 364.989 28.6076 365.076 28.2904L366.071 21.9753C366.128 21.7158 366.099 21.4707 365.984 21.24C365.869 21.0093 365.652 20.8507 365.335 20.7642H359.799L360.62 15.617H366.157C366.791 15.5016 367.166 15.0835 367.282 14.3626L368.233 8.30701C368.262 8.16283 368.262 8.01865 368.233 7.87447C368.204 7.70145 368.103 7.58611 367.93 7.52843H367.065C366.835 7.52843 366.676 7.61494 366.59 7.78796C366.503 7.96098 366.445 8.13399 366.417 8.30701L365.638 13.1515H359.02L360.058 6.7066C360.202 5.75501 360.476 5.00527 360.88 4.45739C361.284 3.88066 361.774 3.44812 362.351 3.15976C362.927 2.84256 363.562 2.64071 364.254 2.5542C364.946 2.43886 365.652 2.38119 366.373 2.38119L370.18 2.38119ZM376.307 9.04233L377.388 2.38119H384.006L382.924 9.04233C382.751 10.1381 382.304 11.0176 381.584 11.6808C380.891 12.3441 380.084 12.6757 379.161 12.6757H378.686L379.248 9.04233H376.307Z" fill="white"/>
</svg>
