<svg width="1344" height="64" viewBox="0 0 1344 64" fill="none" xmlns="http://www.w3.org/2000/svg">
<path d="M-211.613 13.9474H-218.646L-226.579 64H-239.092L-231.159 13.9474L-238.193 13.9474L-236.639 4.21499L-210.059 4.21499L-211.613 13.9474ZM-221.785 64L-204.283 4.21499L-188.744 4.21499L-190.216 64H-202.647L-201.666 52.3047H-206.655L-209.436 64H-221.785ZM-204.529 42.5723H-200.848L-199.049 20.2449L-204.529 42.5723ZM-170.508 40.6912H-171.408L-175.088 64H-187.602L-178.114 4.21499L-160.285 4.21499C-158.922 4.21499 -157.614 4.32403 -156.36 4.54213C-155.106 4.7057 -154.042 5.08736 -153.17 5.68712C-152.243 6.23236 -151.589 7.05021 -151.207 8.14068C-150.771 9.17662 -150.689 10.5942 -150.962 12.3935L-153.252 26.9513C-153.524 28.587 -154.26 30.1682 -155.46 31.6948C-156.605 33.2215 -158.104 34.2302 -159.958 34.7209C-158.322 35.3206 -157.15 36.3566 -156.441 37.8287C-155.733 39.3009 -155.514 40.882 -155.787 42.5723L-159.14 64H-171.653L-168.382 43.1448C-168.273 42.545 -168.382 41.9998 -168.709 41.5091C-169.036 41.0183 -169.636 40.7457 -170.508 40.6912ZM-169.609 29.4048H-168.791C-167.046 29.4048 -166.037 28.587 -165.765 26.9513L-163.966 15.4196C-163.911 15.0924 -163.911 14.7653 -163.966 14.4381C-164.02 14.111 -164.265 13.9474 -164.702 13.9474H-167.155L-169.609 29.4048ZM-156.552 64L-139.05 4.21499L-123.511 4.21499L-124.983 64H-137.414L-136.433 52.3047H-141.422L-144.202 64H-156.552ZM-139.295 42.5723H-135.615L-133.816 20.2449L-139.295 42.5723ZM-112.881 4.21499L-97.1784 4.21499L-97.5873 33.903L-92.8437 4.21499H-80.6577L-90.1448 64H-105.439L-105.52 34.3937L-110.182 64L-122.368 64L-112.881 4.21499ZM-69.1631 41.2637L-67.6092 31.5313H-53.5421L-58.6946 64H-76.5237C-77.8868 64 -79.1954 63.9182 -80.4494 63.7546C-81.7035 63.5911 -82.794 63.2367 -83.7209 62.6914C-84.5932 62.0917 -85.2475 61.2466 -85.6837 60.1561C-86.0654 59.0656 -86.1199 57.6208 -85.8473 55.8215L-78.9773 12.3935C-78.7047 10.5942 -78.1867 9.17662 -77.4234 8.14068C-76.6601 7.05021 -75.7332 6.23236 -74.6427 5.68712C-73.5522 5.08736 -72.3527 4.7057 -71.0441 4.54213C-69.7356 4.32403 -68.3997 4.21499 -67.0367 4.21499L-59.8396 4.21499C-58.4765 4.21499 -57.1679 4.32403 -55.9139 4.54213C-54.6598 4.7057 -53.5966 5.08736 -52.7242 5.68712C-51.7973 6.23236 -51.1431 7.05021 -50.7614 8.14068C-50.3252 9.17662 -50.2434 10.5942 -50.516 12.3935L-52.4789 24.5795H-64.992L-63.5199 15.4196C-63.4654 15.0924 -63.4654 14.7653 -63.5199 14.4381C-63.5744 14.111 -63.8198 13.9474 -64.256 13.9474H-65.7281C-66.1643 13.9474 -66.4642 14.111 -66.6277 14.4381C-66.7913 14.7653 -66.9004 15.0924 -66.9549 15.4196L-72.8434 52.7954C-72.9525 53.1226 -72.9797 53.4497 -72.9252 53.7768C-72.8162 54.104 -72.5435 54.2676 -72.1073 54.2676H-69.6538L-67.6092 41.2637H-69.1631ZM-19.7661 29.2413C-19.3844 29.1867 -19.1118 29.0504 -18.9482 28.8323C-18.7301 28.5597 -18.5938 28.2871 -18.5393 28.0145L-16.5764 15.4196C-16.5219 15.0924 -16.5219 14.7653 -16.5764 14.4381C-16.631 14.111 -16.8763 13.9474 -17.3125 13.9474H-18.7846C-19.2208 13.9474 -19.5207 14.111 -19.6843 14.4381C-19.8479 14.7653 -19.9569 15.0924 -20.0114 15.4196L-21.4836 24.5795L-33.9967 24.5795L-32.0339 12.3935C-31.7612 10.5942 -31.2433 9.17662 -30.4799 8.14068C-29.7166 7.05021 -28.7897 6.23236 -27.6992 5.68712C-26.6088 5.08736 -25.4093 4.7057 -24.1007 4.54213C-22.7921 4.32403 -21.4563 4.21499 -20.0932 4.21499L-12.8961 4.21499C-11.533 4.21499 -10.2245 4.32403 -8.97042 4.54213C-7.71638 4.7057 -6.65317 5.08736 -5.78079 5.68712C-4.85389 6.23236 -4.19961 7.05021 -3.81795 8.14068C-3.38176 9.17662 -3.29997 10.5942 -3.57259 12.3935L-6.844 32.9216C-7.0621 34.2302 -7.49828 35.2934 -8.15256 36.1112C-8.80685 36.9291 -9.65196 37.5561 -10.6879 37.9923C-11.6693 38.374 -12.8416 38.6466 -14.2047 38.8101C-15.5132 38.9192 -16.9308 38.9737 -18.4575 38.9737H-22.7921C-23.2283 38.9737 -23.5282 39.1373 -23.6918 39.4644C-23.8008 39.7916 -23.8826 40.1187 -23.9371 40.4458L-26.1453 54.2676H-22.7103L-21.0746 43.6355H-8.56149L-11.7511 64H-40.2124L-36.0413 37.4198C-35.7687 35.6205 -35.278 34.2029 -34.5692 33.167C-33.8604 32.0765 -32.988 31.2586 -31.9521 30.7134C-30.9161 30.1136 -29.7439 29.732 -28.4353 29.5684C-27.0722 29.3503 -25.6273 29.2413 -24.1007 29.2413L-19.7661 29.2413ZM18.5624 4.21499C19.9255 4.21499 21.2341 4.32403 22.4881 4.54213C23.7422 4.7057 24.8054 5.08736 25.6778 5.68712C26.6047 6.23236 27.2589 7.05021 27.6406 8.14068C28.0768 9.17662 28.1586 10.5942 27.886 12.3935L25.7595 25.9699C25.4869 27.6056 24.7509 29.1867 23.5513 30.7134C22.4064 32.2401 20.907 33.2487 19.0532 33.7395C20.6889 34.3392 21.8611 35.3752 22.5699 36.8473C23.2787 38.3194 23.4968 39.9006 23.2242 41.5908L21.016 55.8215C20.7434 57.6208 20.2254 59.0656 19.4621 60.1561C18.6988 61.2466 17.7719 62.0917 16.6814 62.6914C15.5909 63.2367 14.3914 63.5911 13.0828 63.7546C11.7743 63.9182 10.4384 64 9.07536 64H1.87826C0.515171 64 -0.793393 63.9182 -2.04743 63.7546C-3.30147 63.5911 -4.39194 63.2367 -5.31884 62.6914C-6.19122 62.0917 -6.8455 61.2466 -7.28169 60.1561C-7.66335 59.0656 -7.71788 57.6208 -7.44526 55.8215L-5.5642 43.6355H6.94894L5.47681 53.2043C5.47681 53.477 5.50407 53.7223 5.55859 53.9404C5.61312 54.104 5.77669 54.213 6.04931 54.2676H7.93037C8.42108 54.1585 8.74822 53.8041 8.91179 53.2043L10.7929 41.2637C10.9019 40.773 10.8474 40.3095 10.6293 39.8734C10.4112 39.4372 10.0023 39.1373 9.4025 38.9737H-1.06601L0.487909 29.2413H10.9564C12.1559 29.0232 12.8647 28.2326 13.0828 26.8695L14.8821 15.4196C14.9366 15.1469 14.9366 14.8743 14.8821 14.6017C14.8276 14.2746 14.6368 14.0565 14.3096 13.9474H12.6739C12.2377 13.9474 11.9378 14.111 11.7743 14.4381C11.6107 14.7653 11.5017 15.0924 11.4471 15.4196L9.975 24.5795H-2.53814L-0.575299 12.3935C-0.302682 10.5942 0.215291 9.17662 0.97862 8.14068C1.74195 7.05021 2.66885 6.23236 3.75932 5.68712C4.84979 5.08736 6.04931 4.7057 7.35787 4.54213C8.66643 4.32403 10.0023 4.21499 11.3653 4.21499L18.5624 4.21499ZM30.1472 16.8099L32.1918 4.21499H44.705L42.6603 16.8099C42.3332 18.8818 41.4881 20.5448 40.125 21.7988C38.8164 23.0529 37.2898 23.6799 35.545 23.6799H34.6454L35.7086 16.8099H30.1472Z" fill="white"/>
<path d="M89.7605 5.12012L92.8144 17.9531L100.824 7.47168L98.3939 20.4373L109.974 14.1198L102.481 24.9761L115.629 23.9149L104.368 30.7848L116.812 35.1633L103.73 36.859L113.316 45.9201L100.676 42.1483L105.748 54.3254L95.7347 45.7383L95.4157 58.9257L89.7605 47.0081L84.1054 58.9257L83.7864 45.7383L73.7728 54.3254L78.8452 42.1483L66.2047 45.9201L75.7914 36.859L62.7096 35.1633L75.153 30.7848L63.8918 23.9149L77.0404 24.9761L69.547 14.1198L81.1272 20.4373L78.6973 7.47168L86.7067 17.9531L89.7605 5.12012Z" fill="#ED3C71"/>
<path d="M173.867 13.9474H166.833L158.9 64H146.387L154.32 13.9474L147.287 13.9474L148.841 4.21499L175.421 4.21499L173.867 13.9474ZM163.694 64L181.196 4.21499L196.736 4.21499L195.263 64H182.832L183.813 52.3047H178.825L176.044 64H163.694ZM180.951 42.5723H184.631L186.431 20.2449L180.951 42.5723ZM214.971 40.6912H214.071L210.391 64H197.878L207.365 4.21499L225.194 4.21499C226.557 4.21499 227.866 4.32403 229.12 4.54213C230.374 4.7057 231.437 5.08736 232.31 5.68712C233.236 6.23236 233.891 7.05021 234.272 8.14068C234.709 9.17662 234.79 10.5942 234.518 12.3935L232.228 26.9513C231.955 28.587 231.219 30.1682 230.02 31.6948C228.875 33.2215 227.375 34.2302 225.521 34.7209C227.157 35.3206 228.329 36.3566 229.038 37.8287C229.747 39.3009 229.965 40.882 229.692 42.5723L226.339 64H213.826L217.097 43.1448C217.207 42.545 217.097 41.9998 216.77 41.5091C216.443 41.0183 215.843 40.7457 214.971 40.6912ZM215.871 29.4048H216.689C218.433 29.4048 219.442 28.587 219.715 26.9513L221.514 15.4196C221.568 15.0924 221.568 14.7653 221.514 14.4381C221.459 14.111 221.214 13.9474 220.778 13.9474H218.324L215.871 29.4048ZM228.928 64L246.43 4.21499L261.969 4.21499L260.497 64H248.065L249.047 52.3047H244.058L241.277 64H228.928ZM246.184 42.5723H249.865L251.664 20.2449L246.184 42.5723ZM272.598 4.21499L288.301 4.21499L287.892 33.903L292.636 4.21499H304.822L295.335 64H280.041L279.959 34.3937L275.297 64L263.111 64L272.598 4.21499ZM316.316 41.2637L317.87 31.5313H331.937L326.785 64H308.956C307.593 64 306.284 63.9182 305.03 63.7546C303.776 63.5911 302.686 63.2367 301.759 62.6914C300.886 62.0917 300.232 61.2466 299.796 60.1561C299.414 59.0656 299.36 57.6208 299.632 55.8215L306.502 12.3935C306.775 10.5942 307.293 9.17662 308.056 8.14068C308.819 7.05021 309.746 6.23236 310.837 5.68712C311.927 5.08736 313.127 4.7057 314.435 4.54213C315.744 4.32403 317.08 4.21499 318.443 4.21499L325.64 4.21499C327.003 4.21499 328.312 4.32403 329.566 4.54213C330.82 4.7057 331.883 5.08736 332.755 5.68712C333.682 6.23236 334.336 7.05021 334.718 8.14068C335.154 9.17662 335.236 10.5942 334.963 12.3935L333.001 24.5795H320.487L321.96 15.4196C322.014 15.0924 322.014 14.7653 321.96 14.4381C321.905 14.111 321.66 13.9474 321.224 13.9474H319.751C319.315 13.9474 319.015 14.111 318.852 14.4381C318.688 14.7653 318.579 15.0924 318.525 15.4196L312.636 52.7954C312.527 53.1226 312.5 53.4497 312.554 53.7768C312.663 54.104 312.936 54.2676 313.372 54.2676H315.826L317.87 41.2637H316.316ZM365.713 29.2413C366.095 29.1867 366.368 29.0504 366.531 28.8323C366.749 28.5597 366.886 28.2871 366.94 28.0145L368.903 15.4196C368.958 15.0924 368.958 14.7653 368.903 14.4381C368.849 14.111 368.603 13.9474 368.167 13.9474H366.695C366.259 13.9474 365.959 14.111 365.795 14.4381C365.632 14.7653 365.523 15.0924 365.468 15.4196L363.996 24.5795L351.483 24.5795L353.446 12.3935C353.718 10.5942 354.236 9.17662 355 8.14068C355.763 7.05021 356.69 6.23236 357.78 5.68712C358.871 5.08736 360.07 4.7057 361.379 4.54213C362.687 4.32403 364.023 4.21499 365.386 4.21499L372.583 4.21499C373.946 4.21499 375.255 4.32403 376.509 4.54213C377.763 4.7057 378.826 5.08736 379.699 5.68712C380.626 6.23236 381.28 7.05021 381.662 8.14068C382.098 9.17662 382.18 10.5942 381.907 12.3935L378.635 32.9216C378.417 34.2302 377.981 35.2934 377.327 36.1112C376.673 36.9291 375.828 37.5561 374.792 37.9923C373.81 38.374 372.638 38.6466 371.275 38.8101C369.966 38.9192 368.549 38.9737 367.022 38.9737H362.687C362.251 38.9737 361.951 39.1373 361.788 39.4644C361.679 39.7916 361.597 40.1187 361.542 40.4458L359.334 54.2676H362.769L364.405 43.6355H376.918L373.728 64H345.267L349.438 37.4198C349.711 35.6205 350.201 34.2029 350.91 33.167C351.619 32.0765 352.491 31.2586 353.527 30.7134C354.563 30.1136 355.736 29.732 357.044 29.5684C358.407 29.3503 359.852 29.2413 361.379 29.2413L365.713 29.2413ZM404.042 4.21499C405.405 4.21499 406.714 4.32403 407.968 4.54213C409.222 4.7057 410.285 5.08736 411.157 5.68712C412.084 6.23236 412.738 7.05021 413.12 8.14068C413.556 9.17662 413.638 10.5942 413.365 12.3935L411.239 25.9699C410.966 27.6056 410.23 29.1867 409.031 30.7134C407.886 32.2401 406.386 33.2487 404.533 33.7395C406.168 34.3392 407.341 35.3752 408.049 36.8473C408.758 38.3194 408.976 39.9006 408.704 41.5908L406.495 55.8215C406.223 57.6208 405.705 59.0656 404.942 60.1561C404.178 61.2466 403.251 62.0917 402.161 62.6914C401.07 63.2367 399.871 63.5911 398.562 63.7546C397.254 63.9182 395.918 64 394.555 64H387.358C385.995 64 384.686 63.9182 383.432 63.7546C382.178 63.5911 381.088 63.2367 380.161 62.6914C379.288 62.0917 378.634 61.2466 378.198 60.1561C377.816 59.0656 377.762 57.6208 378.034 55.8215L379.915 43.6355H392.428L390.956 53.2043C390.956 53.477 390.984 53.7223 391.038 53.9404C391.093 54.104 391.256 54.213 391.529 54.2676H393.41C393.901 54.1585 394.228 53.8041 394.391 53.2043L396.272 41.2637C396.381 40.773 396.327 40.3095 396.109 39.8734C395.891 39.4372 395.482 39.1373 394.882 38.9737H384.413L385.967 29.2413H396.436C397.635 29.0232 398.344 28.2326 398.562 26.8695L400.362 15.4196C400.416 15.1469 400.416 14.8743 400.362 14.6017C400.307 14.2746 400.116 14.0565 399.789 13.9474H398.153C397.717 13.9474 397.417 14.111 397.254 14.4381C397.09 14.7653 396.981 15.0924 396.927 15.4196L395.454 24.5795H382.941L384.904 12.3935C385.177 10.5942 385.695 9.17662 386.458 8.14068C387.221 7.05021 388.148 6.23236 389.239 5.68712C390.329 5.08736 391.529 4.7057 392.837 4.54213C394.146 4.32403 395.482 4.21499 396.845 4.21499L404.042 4.21499ZM415.627 16.8099L417.671 4.21499H430.184L428.14 16.8099C427.813 18.8818 426.968 20.5448 425.604 21.7988C424.296 23.0529 422.769 23.6799 421.025 23.6799H420.125L421.188 16.8099H415.627Z" fill="white"/>
<path d="M475.24 5.12012L478.294 17.9531L486.303 7.47168L483.873 20.4373L495.454 14.1198L487.96 24.9761L501.109 23.9149L489.848 30.7848L502.291 35.1633L489.209 36.859L498.796 45.9201L486.155 42.1483L491.228 54.3254L481.214 45.7383L480.895 58.9257L475.24 47.0081L469.585 58.9257L469.266 45.7383L459.252 54.3254L464.325 42.1483L451.684 45.9201L461.271 36.859L448.189 35.1633L460.633 30.7848L449.371 23.9149L462.52 24.9761L455.027 14.1198L466.607 20.4373L464.177 7.47168L472.186 17.9531L475.24 5.12012Z" fill="#ED3C71"/>
<path d="M559.346 13.9474H552.313L544.38 64H531.867L539.8 13.9474L532.766 13.9474L534.32 4.21499L560.9 4.21499L559.346 13.9474ZM549.174 64L566.676 4.21499L582.215 4.21499L580.743 64H568.312L569.293 52.3047H564.304L561.523 64H549.174ZM566.43 42.5723H570.111L571.91 20.2449L566.43 42.5723ZM600.451 40.6912H599.551L595.871 64H583.357L592.845 4.21499L610.674 4.21499C612.037 4.21499 613.345 4.32403 614.599 4.54213C615.853 4.7057 616.917 5.08736 617.789 5.68712C618.716 6.23236 619.37 7.05021 619.752 8.14068C620.188 9.17662 620.27 10.5942 619.997 12.3935L617.707 26.9513C617.435 28.587 616.699 30.1682 615.499 31.6948C614.354 33.2215 612.855 34.2302 611.001 34.7209C612.637 35.3206 613.809 36.3566 614.518 37.8287C615.226 39.3009 615.445 40.882 615.172 42.5723L611.819 64H599.306L602.577 43.1448C602.686 42.545 602.577 41.9998 602.25 41.5091C601.923 41.0183 601.323 40.7457 600.451 40.6912ZM601.35 29.4048H602.168C603.913 29.4048 604.922 28.587 605.194 26.9513L606.993 15.4196C607.048 15.0924 607.048 14.7653 606.993 14.4381C606.939 14.111 606.694 13.9474 606.257 13.9474H603.804L601.35 29.4048ZM614.407 64L631.909 4.21499L647.448 4.21499L645.976 64H633.545L634.526 52.3047H629.537L626.757 64H614.407ZM631.664 42.5723H635.344L637.143 20.2449L631.664 42.5723ZM658.078 4.21499L673.781 4.21499L673.372 33.903L678.115 4.21499H690.301L680.814 64H665.52L665.439 34.3937L660.777 64L648.591 64L658.078 4.21499ZM701.796 41.2637L703.35 31.5313H717.417L712.264 64H694.435C693.072 64 691.764 63.9182 690.51 63.7546C689.256 63.5911 688.165 63.2367 687.238 62.6914C686.366 62.0917 685.711 61.2466 685.275 60.1561C684.894 59.0656 684.839 57.6208 685.112 55.8215L691.982 12.3935C692.254 10.5942 692.772 9.17662 693.536 8.14068C694.299 7.05021 695.226 6.23236 696.316 5.68712C697.407 5.08736 698.606 4.7057 699.915 4.54213C701.223 4.32403 702.559 4.21499 703.922 4.21499L711.119 4.21499C712.483 4.21499 713.791 4.32403 715.045 4.54213C716.299 4.7057 717.362 5.08736 718.235 5.68712C719.162 6.23236 719.816 7.05021 720.198 8.14068C720.634 9.17662 720.716 10.5942 720.443 12.3935L718.48 24.5795H705.967L707.439 15.4196C707.494 15.0924 707.494 14.7653 707.439 14.4381C707.385 14.111 707.139 13.9474 706.703 13.9474H705.231C704.795 13.9474 704.495 14.111 704.331 14.4381C704.168 14.7653 704.059 15.0924 704.004 15.4196L698.116 52.7954C698.007 53.1226 697.979 53.4497 698.034 53.7768C698.143 54.104 698.415 54.2676 698.852 54.2676H701.305L703.35 41.2637H701.796ZM751.193 29.2413C751.575 29.1867 751.847 29.0504 752.011 28.8323C752.229 28.5597 752.365 28.2871 752.42 28.0145L754.383 15.4196C754.437 15.0924 754.437 14.7653 754.383 14.4381C754.328 14.111 754.083 13.9474 753.646 13.9474H752.174C751.738 13.9474 751.438 14.111 751.275 14.4381C751.111 14.7653 751.002 15.0924 750.948 15.4196L749.475 24.5795L736.962 24.5795L738.925 12.3935C739.198 10.5942 739.716 9.17662 740.479 8.14068C741.242 7.05021 742.169 6.23236 743.26 5.68712C744.35 5.08736 745.55 4.7057 746.858 4.54213C748.167 4.32403 749.503 4.21499 750.866 4.21499L758.063 4.21499C759.426 4.21499 760.735 4.32403 761.989 4.54213C763.243 4.7057 764.306 5.08736 765.178 5.68712C766.105 6.23236 766.759 7.05021 767.141 8.14068C767.577 9.17662 767.659 10.5942 767.386 12.3935L764.115 32.9216C763.897 34.2302 763.461 35.2934 762.806 36.1112C762.152 36.9291 761.307 37.5561 760.271 37.9923C759.29 38.374 758.117 38.6466 756.754 38.8101C755.446 38.9192 754.028 38.9737 752.501 38.9737H748.167C747.731 38.9737 747.431 39.1373 747.267 39.4644C747.158 39.7916 747.076 40.1187 747.022 40.4458L744.814 54.2676H748.249L749.884 43.6355H762.397L759.208 64H730.747L734.918 37.4198C735.19 35.6205 735.681 34.2029 736.39 33.167C737.099 32.0765 737.971 31.2586 739.007 30.7134C740.043 30.1136 741.215 29.732 742.524 29.5684C743.887 29.3503 745.332 29.2413 746.858 29.2413L751.193 29.2413ZM789.521 4.21499C790.885 4.21499 792.193 4.32403 793.447 4.54213C794.701 4.7057 795.764 5.08736 796.637 5.68712C797.564 6.23236 798.218 7.05021 798.6 8.14068C799.036 9.17662 799.118 10.5942 798.845 12.3935L796.719 25.9699C796.446 27.6056 795.71 29.1867 794.51 30.7134C793.365 32.2401 791.866 33.2487 790.012 33.7395C791.648 34.3392 792.82 35.3752 793.529 36.8473C794.238 38.3194 794.456 39.9006 794.183 41.5908L791.975 55.8215C791.702 57.6208 791.184 59.0656 790.421 60.1561C789.658 61.2466 788.731 62.0917 787.64 62.6914C786.55 63.2367 785.35 63.5911 784.042 63.7546C782.733 63.9182 781.397 64 780.034 64H772.837C771.474 64 770.166 63.9182 768.912 63.7546C767.658 63.5911 766.567 63.2367 765.64 62.6914C764.768 62.0917 764.113 61.2466 763.677 60.1561C763.296 59.0656 763.241 57.6208 763.514 55.8215L765.395 43.6355H777.908L776.436 53.2043C776.436 53.477 776.463 53.7223 776.518 53.9404C776.572 54.104 776.736 54.213 777.008 54.2676H778.889C779.38 54.1585 779.707 53.8041 779.871 53.2043L781.752 41.2637C781.861 40.773 781.806 40.3095 781.588 39.8734C781.37 39.4372 780.961 39.1373 780.361 38.9737H769.893L771.447 29.2413H781.915C783.115 29.0232 783.824 28.2326 784.042 26.8695L785.841 15.4196C785.896 15.1469 785.896 14.8743 785.841 14.6017C785.787 14.2746 785.596 14.0565 785.269 13.9474H783.633C783.197 13.9474 782.897 14.111 782.733 14.4381C782.57 14.7653 782.461 15.0924 782.406 15.4196L780.934 24.5795H768.421L770.384 12.3935C770.656 10.5942 771.174 9.17662 771.938 8.14068C772.701 7.05021 773.628 6.23236 774.718 5.68712C775.809 5.08736 777.008 4.7057 778.317 4.54213C779.625 4.32403 780.961 4.21499 782.324 4.21499L789.521 4.21499ZM801.106 16.8099L803.151 4.21499H815.664L813.619 16.8099C813.292 18.8818 812.447 20.5448 811.084 21.7988C809.775 23.0529 808.249 23.6799 806.504 23.6799H805.604L806.668 16.8099H801.106Z" fill="white"/>
<path d="M860.721 5.12012L863.774 17.9531L871.784 7.47168L869.354 20.4373L880.934 14.1198L873.441 24.9761L886.589 23.9149L875.328 30.7848L887.772 35.1633L874.69 36.859L884.276 45.9201L871.636 42.1483L876.708 54.3254L866.695 45.7383L866.376 58.9257L860.721 47.0081L855.065 58.9257L854.746 45.7383L844.733 54.3254L849.805 42.1483L837.165 45.9201L846.751 36.859L833.67 35.1633L846.113 30.7848L834.852 23.9149L848 24.9761L840.507 14.1198L852.087 20.4373L849.657 7.47168L857.667 17.9531L860.721 5.12012Z" fill="#ED3C71"/>
<path d="M944.827 13.9474H937.793L929.86 64H917.347L925.28 13.9474L918.247 13.9474L919.801 4.21499L946.381 4.21499L944.827 13.9474ZM934.654 64L952.156 4.21499L967.695 4.21499L966.223 64H953.792L954.773 52.3047H949.785L947.004 64H934.654ZM951.911 42.5723H955.591L957.391 20.2449L951.911 42.5723ZM985.931 40.6912H985.031L981.351 64H968.838L978.325 4.21499L996.154 4.21499C997.517 4.21499 998.826 4.32403 1000.08 4.54213C1001.33 4.7057 1002.4 5.08736 1003.27 5.68712C1004.2 6.23236 1004.85 7.05021 1005.23 8.14068C1005.67 9.17662 1005.75 10.5942 1005.48 12.3935L1003.19 26.9513C1002.92 28.587 1002.18 30.1682 1000.98 31.6948C999.835 33.2215 998.335 34.2302 996.481 34.7209C998.117 35.3206 999.289 36.3566 999.998 37.8287C1000.71 39.3009 1000.93 40.882 1000.65 42.5723L997.299 64H984.786L988.057 43.1448C988.167 42.545 988.057 41.9998 987.73 41.5091C987.403 41.0183 986.803 40.7457 985.931 40.6912ZM986.831 29.4048H987.649C989.393 29.4048 990.402 28.587 990.675 26.9513L992.474 15.4196C992.528 15.0924 992.528 14.7653 992.474 14.4381C992.419 14.111 992.174 13.9474 991.738 13.9474H989.284L986.831 29.4048ZM999.888 64L1017.39 4.21499L1032.93 4.21499L1031.46 64H1019.03L1020.01 52.3047H1015.02L1012.24 64H999.888ZM1017.14 42.5723H1020.82L1022.62 20.2449L1017.14 42.5723ZM1043.56 4.21499L1059.26 4.21499L1058.85 33.903L1063.6 4.21499H1075.78L1066.29 64H1051L1050.92 34.3937L1046.26 64L1034.07 64L1043.56 4.21499ZM1087.28 41.2637L1088.83 31.5313H1102.9L1097.74 64H1079.92C1078.55 64 1077.24 63.9182 1075.99 63.7546C1074.74 63.5911 1073.65 63.2367 1072.72 62.6914C1071.85 62.0917 1071.19 61.2466 1070.76 60.1561C1070.37 59.0656 1070.32 57.6208 1070.59 55.8215L1077.46 12.3935C1077.73 10.5942 1078.25 9.17662 1079.02 8.14068C1079.78 7.05021 1080.71 6.23236 1081.8 5.68712C1082.89 5.08736 1084.09 4.7057 1085.4 4.54213C1086.7 4.32403 1088.04 4.21499 1089.4 4.21499L1096.6 4.21499C1097.96 4.21499 1099.27 4.32403 1100.53 4.54213C1101.78 4.7057 1102.84 5.08736 1103.72 5.68712C1104.64 6.23236 1105.3 7.05021 1105.68 8.14068C1106.11 9.17662 1106.2 10.5942 1105.92 12.3935L1103.96 24.5795H1091.45L1092.92 15.4196C1092.97 15.0924 1092.97 14.7653 1092.92 14.4381C1092.87 14.111 1092.62 13.9474 1092.18 13.9474H1090.71C1090.28 13.9474 1089.98 14.111 1089.81 14.4381C1089.65 14.7653 1089.54 15.0924 1089.48 15.4196L1083.6 52.7954C1083.49 53.1226 1083.46 53.4497 1083.51 53.7768C1083.62 54.104 1083.9 54.2676 1084.33 54.2676H1086.79L1088.83 41.2637H1087.28ZM1136.67 29.2413C1137.06 29.1867 1137.33 29.0504 1137.49 28.8323C1137.71 28.5597 1137.85 28.2871 1137.9 28.0145L1139.86 15.4196C1139.92 15.0924 1139.92 14.7653 1139.86 14.4381C1139.81 14.111 1139.56 13.9474 1139.13 13.9474H1137.65C1137.22 13.9474 1136.92 14.111 1136.76 14.4381C1136.59 14.7653 1136.48 15.0924 1136.43 15.4196L1134.96 24.5795L1122.44 24.5795L1124.41 12.3935C1124.68 10.5942 1125.2 9.17662 1125.96 8.14068C1126.72 7.05021 1127.65 6.23236 1128.74 5.68712C1129.83 5.08736 1131.03 4.7057 1132.34 4.54213C1133.65 4.32403 1134.98 4.21499 1136.35 4.21499L1143.54 4.21499C1144.91 4.21499 1146.21 4.32403 1147.47 4.54213C1148.72 4.7057 1149.79 5.08736 1150.66 5.68712C1151.59 6.23236 1152.24 7.05021 1152.62 8.14068C1153.06 9.17662 1153.14 10.5942 1152.87 12.3935L1149.6 32.9216C1149.38 34.2302 1148.94 35.2934 1148.29 36.1112C1147.63 36.9291 1146.79 37.5561 1145.75 37.9923C1144.77 38.374 1143.6 38.6466 1142.23 38.8101C1140.93 38.9192 1139.51 38.9737 1137.98 38.9737H1133.65C1133.21 38.9737 1132.91 39.1373 1132.75 39.4644C1132.64 39.7916 1132.56 40.1187 1132.5 40.4458L1130.29 54.2676H1133.73L1135.36 43.6355H1147.88L1144.69 64H1116.23L1120.4 37.4198C1120.67 35.6205 1121.16 34.2029 1121.87 33.167C1122.58 32.0765 1123.45 31.2586 1124.49 30.7134C1125.52 30.1136 1126.7 29.732 1128 29.5684C1129.37 29.3503 1130.81 29.2413 1132.34 29.2413L1136.67 29.2413ZM1175 4.21499C1176.36 4.21499 1177.67 4.32403 1178.93 4.54213C1180.18 4.7057 1181.24 5.08736 1182.12 5.68712C1183.04 6.23236 1183.7 7.05021 1184.08 8.14068C1184.52 9.17662 1184.6 10.5942 1184.33 12.3935L1182.2 25.9699C1181.93 27.6056 1181.19 29.1867 1179.99 30.7134C1178.85 32.2401 1177.35 33.2487 1175.49 33.7395C1177.13 34.3392 1178.3 35.3752 1179.01 36.8473C1179.72 38.3194 1179.94 39.9006 1179.66 41.5908L1177.46 55.8215C1177.18 57.6208 1176.66 59.0656 1175.9 60.1561C1175.14 61.2466 1174.21 62.0917 1173.12 62.6914C1172.03 63.2367 1170.83 63.5911 1169.52 63.7546C1168.21 63.9182 1166.88 64 1165.51 64H1158.32C1156.95 64 1155.65 63.9182 1154.39 63.7546C1153.14 63.5911 1152.05 63.2367 1151.12 62.6914C1150.25 62.0917 1149.59 61.2466 1149.16 60.1561C1148.78 59.0656 1148.72 57.6208 1148.99 55.8215L1150.88 43.6355H1163.39L1161.92 53.2043C1161.92 53.477 1161.94 53.7223 1162 53.9404C1162.05 54.104 1162.22 54.213 1162.49 54.2676H1164.37C1164.86 54.1585 1165.19 53.8041 1165.35 53.2043L1167.23 41.2637C1167.34 40.773 1167.29 40.3095 1167.07 39.8734C1166.85 39.4372 1166.44 39.1373 1165.84 38.9737H1155.37L1156.93 29.2413H1167.4C1168.6 29.0232 1169.3 28.2326 1169.52 26.8695L1171.32 15.4196C1171.38 15.1469 1171.38 14.8743 1171.32 14.6017C1171.27 14.2746 1171.08 14.0565 1170.75 13.9474H1169.11C1168.68 13.9474 1168.38 14.111 1168.21 14.4381C1168.05 14.7653 1167.94 15.0924 1167.89 15.4196L1166.41 24.5795H1153.9L1155.86 12.3935C1156.14 10.5942 1156.65 9.17662 1157.42 8.14068C1158.18 7.05021 1159.11 6.23236 1160.2 5.68712C1161.29 5.08736 1162.49 4.7057 1163.8 4.54213C1165.11 4.32403 1166.44 4.21499 1167.8 4.21499L1175 4.21499ZM1186.59 16.8099L1188.63 4.21499H1201.14L1199.1 16.8099C1198.77 18.8818 1197.93 20.5448 1196.56 21.7988C1195.26 23.0529 1193.73 23.6799 1191.98 23.6799H1191.08L1192.15 16.8099H1186.59Z" fill="white"/>
<path d="M1246.2 5.12012L1249.25 17.9531L1257.26 7.47168L1254.83 20.4373L1266.41 14.1198L1258.92 24.9761L1272.07 23.9149L1260.81 30.7848L1273.25 35.1633L1260.17 36.859L1269.76 45.9201L1257.12 42.1483L1262.19 54.3254L1252.17 45.7383L1251.86 58.9257L1246.2 47.0081L1240.54 58.9257L1240.23 45.7383L1230.21 54.3254L1235.28 42.1483L1222.64 45.9201L1232.23 36.859L1219.15 35.1633L1231.59 30.7848L1220.33 23.9149L1233.48 24.9761L1225.99 14.1198L1237.57 20.4373L1235.14 7.47168L1243.15 17.9531L1246.2 5.12012Z" fill="#ED3C71"/>
<path d="M1330.31 13.9474H1323.27L1315.34 64H1302.83L1310.76 13.9474L1303.73 13.9474L1305.28 4.21499L1331.86 4.21499L1330.31 13.9474ZM1320.13 64L1337.64 4.21499L1353.17 4.21499L1351.7 64H1339.27L1340.25 52.3047H1335.26L1332.48 64H1320.13ZM1337.39 42.5723H1341.07L1342.87 20.2449L1337.39 42.5723ZM1371.41 40.6912H1370.51L1366.83 64H1354.32L1363.8 4.21499L1381.63 4.21499C1383 4.21499 1384.31 4.32403 1385.56 4.54213C1386.81 4.7057 1387.88 5.08736 1388.75 5.68712C1389.68 6.23236 1390.33 7.05021 1390.71 8.14068C1391.15 9.17662 1391.23 10.5942 1390.96 12.3935L1388.67 26.9513C1388.39 28.587 1387.66 30.1682 1386.46 31.6948C1385.31 33.2215 1383.81 34.2302 1381.96 34.7209C1383.6 35.3206 1384.77 36.3566 1385.48 37.8287C1386.19 39.3009 1386.4 40.882 1386.13 42.5723L1382.78 64H1370.27L1373.54 43.1448C1373.65 42.545 1373.54 41.9998 1373.21 41.5091C1372.88 41.0183 1372.28 40.7457 1371.41 40.6912ZM1372.31 29.4048H1373.13C1374.87 29.4048 1375.88 28.587 1376.15 26.9513L1377.95 15.4196C1378.01 15.0924 1378.01 14.7653 1377.95 14.4381C1377.9 14.111 1377.65 13.9474 1377.22 13.9474H1374.76L1372.31 29.4048ZM1385.37 64L1402.87 4.21499L1418.41 4.21499L1416.94 64H1404.5L1405.49 52.3047H1400.5L1397.72 64H1385.37ZM1402.62 42.5723H1406.3L1408.1 20.2449L1402.62 42.5723ZM1429.04 4.21499L1444.74 4.21499L1444.33 33.903L1449.08 4.21499H1461.26L1451.77 64H1436.48L1436.4 34.3937L1431.74 64L1419.55 64L1429.04 4.21499ZM1472.76 41.2637L1474.31 31.5313H1488.38L1483.22 64H1465.4C1464.03 64 1462.72 63.9182 1461.47 63.7546C1460.22 63.5911 1459.12 63.2367 1458.2 62.6914C1457.33 62.0917 1456.67 61.2466 1456.24 60.1561C1455.85 59.0656 1455.8 57.6208 1456.07 55.8215L1462.94 12.3935C1463.21 10.5942 1463.73 9.17662 1464.5 8.14068C1465.26 7.05021 1466.19 6.23236 1467.28 5.68712C1468.37 5.08736 1469.57 4.7057 1470.87 4.54213C1472.18 4.32403 1473.52 4.21499 1474.88 4.21499L1482.08 4.21499C1483.44 4.21499 1484.75 4.32403 1486.01 4.54213C1487.26 4.7057 1488.32 5.08736 1489.19 5.68712C1490.12 6.23236 1490.78 7.05021 1491.16 8.14068C1491.59 9.17662 1491.68 10.5942 1491.4 12.3935L1489.44 24.5795H1476.93L1478.4 15.4196C1478.45 15.0924 1478.45 14.7653 1478.4 14.4381C1478.34 14.111 1478.1 13.9474 1477.66 13.9474H1476.19C1475.75 13.9474 1475.45 14.111 1475.29 14.4381C1475.13 14.7653 1475.02 15.0924 1474.96 15.4196L1469.08 52.7954C1468.97 53.1226 1468.94 53.4497 1468.99 53.7768C1469.1 54.104 1469.38 54.2676 1469.81 54.2676H1472.27L1474.31 41.2637H1472.76ZM1522.15 29.2413C1522.53 29.1867 1522.81 29.0504 1522.97 28.8323C1523.19 28.5597 1523.33 28.2871 1523.38 28.0145L1525.34 15.4196C1525.4 15.0924 1525.4 14.7653 1525.34 14.4381C1525.29 14.111 1525.04 13.9474 1524.61 13.9474H1523.13C1522.7 13.9474 1522.4 14.111 1522.23 14.4381C1522.07 14.7653 1521.96 15.0924 1521.91 15.4196L1520.44 24.5795L1507.92 24.5795L1509.89 12.3935C1510.16 10.5942 1510.68 9.17662 1511.44 8.14068C1512.2 7.05021 1513.13 6.23236 1514.22 5.68712C1515.31 5.08736 1516.51 4.7057 1517.82 4.54213C1519.13 4.32403 1520.46 4.21499 1521.83 4.21499L1529.02 4.21499C1530.39 4.21499 1531.69 4.32403 1532.95 4.54213C1534.2 4.7057 1535.27 5.08736 1536.14 5.68712C1537.07 6.23236 1537.72 7.05021 1538.1 8.14068C1538.54 9.17662 1538.62 10.5942 1538.35 12.3935L1535.07 32.9216C1534.86 34.2302 1534.42 35.2934 1533.77 36.1112C1533.11 36.9291 1532.27 37.5561 1531.23 37.9923C1530.25 38.374 1529.08 38.6466 1527.71 38.8101C1526.41 38.9192 1524.99 38.9737 1523.46 38.9737H1519.13C1518.69 38.9737 1518.39 39.1373 1518.23 39.4644C1518.12 39.7916 1518.04 40.1187 1517.98 40.4458L1515.77 54.2676H1519.21L1520.84 43.6355H1533.36L1530.17 64H1501.71L1505.88 37.4198C1506.15 35.6205 1506.64 34.2029 1507.35 33.167C1508.06 32.0765 1508.93 31.2586 1509.97 30.7134C1511 30.1136 1512.18 29.732 1513.48 29.5684C1514.85 29.3503 1516.29 29.2413 1517.82 29.2413L1522.15 29.2413ZM1560.48 4.21499C1561.84 4.21499 1563.15 4.32403 1564.41 4.54213C1565.66 4.7057 1566.72 5.08736 1567.6 5.68712C1568.52 6.23236 1569.18 7.05021 1569.56 8.14068C1570 9.17662 1570.08 10.5942 1569.8 12.3935L1567.68 25.9699C1567.41 27.6056 1566.67 29.1867 1565.47 30.7134C1564.33 32.2401 1562.83 33.2487 1560.97 33.7395C1562.61 34.3392 1563.78 35.3752 1564.49 36.8473C1565.2 38.3194 1565.42 39.9006 1565.14 41.5908L1562.93 55.8215C1562.66 57.6208 1562.14 59.0656 1561.38 60.1561C1560.62 61.2466 1559.69 62.0917 1558.6 62.6914C1557.51 63.2367 1556.31 63.5911 1555 63.7546C1553.69 63.9182 1552.36 64 1550.99 64H1543.8C1542.43 64 1541.13 63.9182 1539.87 63.7546C1538.62 63.5911 1537.53 63.2367 1536.6 62.6914C1535.73 62.0917 1535.07 61.2466 1534.64 60.1561C1534.26 59.0656 1534.2 57.6208 1534.47 55.8215L1536.35 43.6355H1548.87L1547.4 53.2043C1547.4 53.477 1547.42 53.7223 1547.48 53.9404C1547.53 54.104 1547.7 54.213 1547.97 54.2676H1549.85C1550.34 54.1585 1550.67 53.8041 1550.83 53.2043L1552.71 41.2637C1552.82 40.773 1552.77 40.3095 1552.55 39.8734C1552.33 39.4372 1551.92 39.1373 1551.32 38.9737H1540.85L1542.41 29.2413H1552.88C1554.07 29.0232 1554.78 28.2326 1555 26.8695L1556.8 15.4196C1556.86 15.1469 1556.86 14.8743 1556.8 14.6017C1556.75 14.2746 1556.56 14.0565 1556.23 13.9474H1554.59C1554.16 13.9474 1553.86 14.111 1553.69 14.4381C1553.53 14.7653 1553.42 15.0924 1553.37 15.4196L1551.89 24.5795H1539.38L1541.34 12.3935C1541.62 10.5942 1542.13 9.17662 1542.9 8.14068C1543.66 7.05021 1544.59 6.23236 1545.68 5.68712C1546.77 5.08736 1547.97 4.7057 1549.28 4.54213C1550.59 4.32403 1551.92 4.21499 1553.28 4.21499L1560.48 4.21499ZM1572.07 16.8099L1574.11 4.21499H1586.62L1584.58 16.8099C1584.25 18.8818 1583.41 20.5448 1582.04 21.7988C1580.74 23.0529 1579.21 23.6799 1577.46 23.6799H1576.56L1577.63 16.8099H1572.07Z" fill="white"/>
</svg>
