<svg width="249" height="375" viewBox="0 0 249 375" fill="none" xmlns="http://www.w3.org/2000/svg">
<g clip-path="url(#clip0_2229_67)">
<path d="M36.0003 340.028C36.0003 340.028 29.0832 338.02 24.5695 328.498C20.0558 318.976 22.1186 303.126 25.9196 274.215C29.7207 245.303 48.2309 191.115 52.3725 171.84C58.1413 152.229 69.9126 146.785 69.9126 146.785L74.9569 143.879" stroke="white" stroke-width="2.77159" stroke-miterlimit="10"/>
<path d="M32.5278 324.539C32.5278 324.539 34.1749 355.925 53.089 355.791C57.2028 354.888 57.3137 352.793 57.3137 352.793" stroke="white" stroke-width="2.77159" stroke-miterlimit="10"/>
<path d="M44.2754 352.793C44.2754 352.793 46.6511 362.252 49.6523 366.255C49.6523 366.255 49.6523 359.227 51.6597 355.779" stroke="white" stroke-width="2.77159" stroke-miterlimit="10"/>
<path d="M28.1133 334.144C28.1133 334.144 32.528 344.72 36.5825 346.993L36.2261 341.449" stroke="white" stroke-width="2.77159" stroke-miterlimit="10"/>
<path d="M113.534 490.406C131.129 490.406 121.08 454.629 120.371 453.869C117.287 451.569 113.573 345.54 113.573 345.54L113.51 331.365" stroke="white" stroke-width="2.77159" stroke-miterlimit="10"/>
<path d="M53.8726 313.896C53.8726 313.896 53.0808 314.177 46.9912 311.461C40.9016 308.745 37.2154 314.835 39.0288 319.705C40.8422 324.575 43.2575 324.337 44.7819 326.677C46.6111 329.817 47.5851 338.607 55.4485 336.972L53.8726 313.896Z" stroke="white" stroke-width="2.77159" stroke-miterlimit="10"/>
<path d="M167.306 194.144C167.306 194.144 171.198 208.754 174.96 228.305C176.611 236.897 178.238 246.447 179.497 256.124C180.938 267.191 181.901 278.432 181.873 288.619C182.922 306.405 176.532 384.793 168.64 442.541C168.53 443.354 168.419 444.155 168.308 444.945C167.987 447.229 167.825 448.393 167.761 448.829C167.552 450.313 168.53 443.353 168.53 443.353" stroke="white" stroke-width="2.77159" stroke-miterlimit="10"/>
<path d="M133.825 324.095C133.825 324.095 118.384 338.017 102.97 328.007" stroke="white" stroke-width="2.77159" stroke-miterlimit="10"/>
<path d="M168.834 147.205C172.746 150.258 179.283 157.036 183.139 170.146C187.281 189.42 205.787 243.609 209.592 272.52C213.397 301.432 215.46 317.281 210.942 326.804C206.425 336.326 199.511 338.334 199.511 338.334" stroke="white" stroke-width="2.77159" stroke-miterlimit="10"/>
<path d="M202.985 322.848C202.985 322.848 201.338 354.235 182.423 354.1C178.31 353.197 178.199 351.103 178.199 351.103" stroke="white" stroke-width="2.77159" stroke-miterlimit="10"/>
<path d="M191.236 351.115C191.236 351.115 188.861 360.574 185.859 364.576C185.859 364.576 185.859 357.549 183.852 354.1" stroke="white" stroke-width="2.77159" stroke-miterlimit="10"/>
<path d="M207.399 332.454C207.399 332.454 202.984 343.03 198.93 345.302L199.286 339.759" stroke="white" stroke-width="2.77159" stroke-miterlimit="10"/>
<path d="M117.627 434.365C121.167 399.815 121.381 399.455 121.662 344.542L121.725 330.367" stroke="white" stroke-width="2.77159" stroke-miterlimit="10"/>
<path d="M181.635 312.19C181.635 312.19 182.427 312.471 188.517 309.755C194.606 307.039 198.293 313.128 196.479 317.998C194.666 322.868 192.251 322.631 190.726 324.971C188.897 328.11 187.923 336.9 180.06 335.265L181.635 312.19Z" stroke="white" stroke-width="2.77159" stroke-miterlimit="10"/>
<path d="M117.889 196.27C117.889 196.27 93.5465 190.782 82.3889 217.488C71.2312 244.195 70.2018 279.473 78.4809 291.066C86.76 302.659 103.592 310.249 116.859 310.736C130.127 311.223 151.651 301.99 157.321 289.356C167.219 275.438 157.107 226.053 149.509 212.939C141.911 199.825 131.893 195.553 117.889 196.27Z" stroke="white" stroke-width="2.77159" stroke-miterlimit="10"/>
<path d="M67.7703 197.49C67.7703 197.49 64.4047 211.672 61.9143 213.01L64.7611 214.669C64.7611 214.669 57.4401 230.832 56.0504 242.1L58.6517 240.41C57.7529 245.707 56.7314 252.264 56.0108 257.803C54.5696 268.87 53.6074 280.11 53.6351 290.294C52.5859 308.084 58.9764 386.468 66.8675 444.22C66.9784 445.033 67.0892 445.834 67.2001 446.623C67.5208 448.908 67.8613 451.121 67.9247 451.557C68.1306 453.042 66.9784 445.032 66.9784 445.032" stroke="white" stroke-width="2.77159" stroke-miterlimit="10"/>
<path d="M91.2339 68.8441V76.5254" stroke="white" stroke-width="17.4214" stroke-miterlimit="10" stroke-linecap="round"/>
<path d="M139.504 100.088C139.505 101.19 139.281 102.28 138.843 103.292C138.406 104.303 137.766 105.214 136.962 105.968H136.942C129.102 114.401 123.686 118.4 118.123 118.274C112.635 118.147 106.997 113.997 98.7414 106.134L98.2742 105.694C96.9269 104.298 96.1254 102.464 96.0155 100.527C95.9055 98.5892 96.4944 96.6766 97.675 95.1365C98.8556 93.5963 100.55 92.531 102.449 92.134C104.349 91.7369 106.328 92.0346 108.026 92.9729H108.054C108.101 93.0006 108.196 93.06 108.331 93.1313C109.361 93.7054 115.395 94.4735 117.921 94.4735C120.736 94.4735 124.05 94.5131 127.732 92.8343C128.965 92.2051 130.338 91.9029 131.721 91.9568C133.104 92.0107 134.45 92.4188 135.63 93.1421C136.81 93.8654 137.784 94.8796 138.46 96.0875C139.135 97.2954 139.489 98.6565 139.488 100.04L139.504 100.088Z" fill="black"/>
<path d="M100.495 105.235L100.958 105.679C100.8 105.544 100.642 105.393 100.495 105.235Z" fill="black"/>
<path d="M110.564 92.7076L110.287 92.5453C110.382 92.5941 110.475 92.6483 110.564 92.7076Z" fill="black"/>
<path d="M110.273 92.5374H110.247" stroke="white" stroke-width="0.395941" stroke-miterlimit="10"/>
<path d="M118.24 140.189H118.162" stroke="white" stroke-width="2.77159" stroke-miterlimit="10"/>
<path d="M87.904 130.112C84.3762 127.064 79.1933 121.825 73.6501 113.578C63.5339 98.5876 79.2725 89.2157 82.0837 88.2813C84.8948 87.3468 95.3635 78.937 95.3635 78.937" stroke="white" stroke-width="2.77159" stroke-miterlimit="10"/>
<path d="M95.031 54.5036C92.2871 55.1093 81.3354 53.3157 81.3354 53.3157C81.3354 53.3157 70.6134 54.3571 78.6114 49.9463C86.6094 45.5355 97.4383 51.5301 98.9944 52.2982C100.095 54.1947 97.7788 53.8978 95.031 54.5036Z" stroke="white" stroke-width="2.77159" stroke-miterlimit="10"/>
<path d="M118.241 117.806C118.202 117.973 118.162 118.143 118.119 118.305" stroke="white" stroke-width="2.77159" stroke-miterlimit="10" stroke-linecap="round"/>
<path d="M144.278 68.8441V76.5254" stroke="white" stroke-width="17.4214" stroke-miterlimit="10" stroke-linecap="round"/>
<path d="M135.754 105.235L135.291 105.679C135.449 105.544 135.604 105.393 135.754 105.235Z" fill="black"/>
<path d="M125.962 92.5651C125.91 92.5967 125.819 92.6522 125.681 92.7274C125.771 92.668 125.865 92.6138 125.962 92.5651Z" fill="black"/>
<path d="M126 92.5176H125.974" stroke="white" stroke-width="0.395941" stroke-miterlimit="10"/>
<path d="M106.85 165.727C106.921 167.026 105.116 171.128 105.116 171.128C105.116 171.128 105.302 162.884 98.7452 163.07C92.1884 163.257 84.1944 154.265 84.1944 154.265C83.157 157.017 84.1508 161.384 84.1944 161.566C80.52 157.626 76.2755 146.017 76.2755 146.017C75.8759 145.291 75.4398 144.585 74.9689 143.903C70.1028 136.812 63.4866 134.773 63.4866 134.773C46.2078 131.379 32.9755 113.392 32.9755 113.392C34.8483 112.81 34.476 105.683 34.476 105.683C34.0999 103.41 28.4776 102.147 28.4776 102.147C29.9782 101.957 30.9165 99.1458 30.9165 99.1458C30.3543 97.6491 26.6047 96.1525 26.6047 96.1525L27.2699 95.7249L29.2259 94.4658C26.9809 94.2916 24.7319 92.7078 24.7319 92.7078C29.6218 92.4504 32.7893 82.8449 32.7893 82.8449C31.6648 81.1582 27.167 80.5801 27.167 80.5801C27.7292 78.6677 33.3516 77.0166 33.3516 77.0166C32.6032 75.516 28.2914 73.6314 28.2914 73.6314C31.1026 72.3129 36.1627 64.0852 36.1627 64.0852C36.1627 64.0852 28.1647 15.9863 36.6616 3.74385C45.1585 -8.49865 71.3896 24.1942 71.3896 24.1942C71.3896 24.1942 94.477 9.5325 118.008 9.43352H118.241C141.772 9.54438 164.855 24.1942 164.855 24.1942C164.855 24.1942 191.094 -8.49865 199.587 3.74385C208.08 15.9863 200.086 64.0852 200.086 64.0852C200.086 64.0852 205.146 72.3129 207.958 73.6314C207.958 73.6314 203.646 75.516 202.897 77.0166C202.897 77.0166 208.52 78.6875 209.082 80.5801C209.082 80.5801 204.584 81.1582 203.46 82.8449C203.46 82.8449 206.647 92.4504 211.517 92.7078C211.517 92.7078 209.268 94.2757 207.019 94.4658L208.979 95.7249L209.644 96.1525C209.644 96.1525 205.895 97.6492 205.333 99.1181C205.333 99.1181 206.271 101.929 207.768 102.119C207.768 102.119 202.149 103.382 201.773 105.655C201.773 105.655 201.397 112.802 203.274 113.364C203.274 113.364 191.645 131.371 174.37 134.745C174.37 134.745 171.06 143.804 168.827 147.205C168.221 148.132 167.69 148.638 167.33 148.425C167.124 148.306 167.14 148.884 166.978 149.121C165.794 150.848 162.456 152.736 162.456 152.736C163.957 150.864 163.735 146.552 163.735 146.552C163.735 146.552 160.773 148.801 152.197 155.734C143.621 162.667 132.068 162.9 131.161 164.353C130.254 165.806 124.945 169.726 124.62 169.964C126.861 168.075 124.62 163.043 124.62 163.043C124.62 163.043 124.236 165.304 118.237 165.882C112.239 166.46 108.865 173.191 108.865 173.191C108.865 172.114 107.246 167.034 106.85 165.727ZM106.85 165.727C106.816 165.629 106.788 165.528 106.767 165.426C106.784 165.45 106.798 165.477 106.807 165.505C106.833 165.576 106.848 165.651 106.85 165.727ZM44.723 46.2402C35.062 52.2268 42.7433 37.6443 42.7433 37.6443C25.0408 28.0111 46.8413 21.7631 46.8413 21.7631C46.8413 21.7631 37.3387 14.2086 43.4837 10.8272C49.0269 10.8272 62.1523 27.2746 62.1523 27.2746C62.1523 27.2746 51.4302 42.839 44.723 46.2402ZM125.962 92.5653C125.911 92.5969 125.82 92.6524 125.681 92.7276C125.772 92.6682 125.865 92.614 125.962 92.5653ZM110.564 92.7276L110.287 92.5653C110.382 92.6076 110.474 92.6552 110.564 92.7078V92.7276ZM81.3357 53.3394C81.3357 53.3394 70.6136 54.3807 78.6116 49.97C86.6096 45.5592 97.4386 51.5537 98.9946 52.3218C100.095 54.2144 97.7791 53.9056 95.0352 54.5233C92.2914 55.1409 81.3357 53.3196 81.3357 53.3196V53.3394ZM143.681 133.648C143.681 133.648 139.935 138.332 130.939 139.27C122.977 140.102 118.978 140.197 118.166 140.205C117.58 140.205 113.585 140.134 105.31 139.27C96.3141 138.332 92.5685 133.648 92.5685 133.648C90.9153 132.613 89.3547 131.437 87.9043 130.132C88.3953 130.326 112.849 139.837 118.119 118.329C112.631 118.202 106.993 114.053 98.7373 106.19L98.27 105.75C96.9227 104.353 96.1213 102.52 96.0113 100.582C95.9013 98.6448 96.4902 96.7322 97.6708 95.1921C98.8514 93.652 100.545 92.5866 102.445 92.1895C104.344 91.7925 106.323 92.0902 108.022 93.0285H108.05C108.097 93.0562 108.192 93.1156 108.327 93.1869C109.356 93.761 115.391 94.5291 117.917 94.5291C120.732 94.5291 124.046 94.5687 127.728 92.8899C129.461 92.0096 131.454 91.7832 133.34 92.2523C135.227 92.7213 136.881 93.8544 138 95.4439C139.119 97.0334 139.628 98.9729 139.434 100.907C139.24 102.841 138.355 104.641 136.942 105.976H136.922C129.082 114.409 123.666 118.408 118.103 118.282C123.472 141.329 147.945 130.259 148.325 130.085C146.882 131.398 145.328 132.583 143.681 133.628V133.648ZM154.913 53.3394C154.913 53.3394 143.962 55.1291 141.214 54.5272C138.466 53.9254 137.254 54.2184 137.254 52.3258C137.254 51.5101 149.635 45.5631 157.637 49.9739C165.639 54.3847 154.913 53.3196 154.913 53.3196V53.3394ZM191.138 37.6483C191.138 37.6483 198.839 52.2308 189.182 46.2402C182.451 42.8549 171.733 27.2786 171.733 27.2786C171.733 27.2786 184.874 10.8311 190.398 10.8311C196.558 14.2125 187.044 21.767 187.044 21.767C187.044 21.767 208.825 28.0269 191.138 37.6483Z" stroke="white" stroke-width="2.77159" stroke-miterlimit="10"/>
<path d="M106.771 165.407V165.402" stroke="white" stroke-width="2.77159" stroke-miterlimit="10"/>
<path d="M118.162 140.185H118.008" stroke="white" stroke-width="2.77159" stroke-miterlimit="10"/>
<path d="M148.345 130.112C151.872 127.064 157.055 121.821 162.599 113.578C172.719 98.5877 156.976 89.2158 154.165 88.2814C151.354 87.347 140.644 79.4281 140.644 79.4281" stroke="white" stroke-width="2.77159" stroke-miterlimit="10"/>
<path d="M154.913 53.3193C154.913 53.3193 143.962 55.1089 141.214 54.5071C138.466 53.9053 137.254 54.1982 137.254 52.3056C137.254 51.49 149.635 45.543 157.637 49.9538C165.639 54.3645 154.913 53.3193 154.913 53.3193Z" stroke="white" stroke-width="2.77159" stroke-miterlimit="10"/>
<path d="M118.008 117.806C118.043 117.973 118.079 118.139 118.119 118.305" stroke="white" stroke-width="2.77159" stroke-miterlimit="10" stroke-linecap="round"/>
<path d="M62.1721 27.2627C62.1721 27.2627 51.4302 42.839 44.723 46.2282C35.062 52.2149 42.7433 37.6324 42.7433 37.6324C25.0408 27.9991 46.8413 21.7512 46.8413 21.7512C46.8413 21.7512 37.3387 14.1966 43.4837 10.8153C49.0308 10.8153 62.1721 27.2627 62.1721 27.2627Z" stroke="white" stroke-width="2.77159" stroke-miterlimit="10"/>
<path d="M191.138 37.6483C191.138 37.6483 198.839 52.2308 189.182 46.2402C182.451 42.8549 171.733 27.2786 171.733 27.2786C171.733 27.2786 184.874 10.8312 190.398 10.8312C196.558 14.2125 187.044 21.7671 187.044 21.7671C187.044 21.7671 208.825 28.0269 191.138 37.6483Z" stroke="white" stroke-width="2.77159" stroke-miterlimit="10"/>
<path d="M113.545 335.451L121.064 392.249" stroke="white" stroke-width="2.77159" stroke-miterlimit="10"/>
<path d="M180.051 354.1C180.051 354.1 183.152 389.212 182.498 401.074C183.166 402.12 183.965 403.077 184.874 403.921C184.874 403.921 187.42 407.037 187.938 409.037C188.457 411.036 189.3 417.545 198.011 417.953C206.722 418.361 227.976 420.8 230.957 420.19C233.939 419.581 273.588 420.8 276.008 422.427C278.427 424.055 292.499 427.693 294.399 438.811C296.3 449.929 294.819 458.41 294.126 460.477C293.433 462.544 292.791 467.39 280.327 471.473C274.226 473.472 241.105 471.473 241.105 471.473L187.063 471.73C187.063 471.73 184.252 470.815 183.262 467.066" stroke="white" stroke-width="2.77159" stroke-miterlimit="10"/>
</g>
<defs>
<clipPath id="clip0_2229_67">
<rect width="249" height="375" fill="white"/>
</clipPath>
</defs>
</svg>
