<svg width="55" height="54" viewBox="0 0 55 54" fill="none" xmlns="http://www.w3.org/2000/svg">
<path d="M27.5999 0L30.6537 12.833L38.6631 2.35156L36.2333 15.3172L47.8134 8.99965L40.3201 19.856L53.4686 18.7947L42.2074 25.6647L54.6509 30.0432L41.569 31.7388L51.1558 40.8L38.5152 37.0282L43.5877 49.2053L33.5741 40.6182L33.2551 53.8056L27.5999 41.888L21.9447 53.8056L21.6258 40.6182L11.6121 49.2053L16.6846 37.0282L4.04401 40.8L13.6308 31.7388L0.548906 30.0432L12.9924 25.6647L1.73116 18.7947L14.8797 19.856L7.38636 8.99965L18.9665 15.3172L16.5367 2.35156L24.5461 12.833L27.5999 0Z" fill="#D0EB4C"/>
</svg>
