<svg width="360" height="34" viewBox="0 0 360 34" fill="none" xmlns="http://www.w3.org/2000/svg">
<path d="M-44.8115 34H-51.4293L-46.4119 2.38119L-39.794 2.38119L-41.6539 14.1031H-39.8372L-37.9773 2.38119L-31.3594 2.38119L-36.3769 34H-42.9948L-40.6591 19.2503H-42.4757L-44.8115 34ZM-34.7917 34L-29.7742 2.38119L-23.1563 2.38119L-28.1738 34H-34.7917ZM-17.044 21.9753L-16.2221 16.8281H-8.78242L-11.5074 34H-20.9368C-21.6577 34 -22.3498 33.9567 -23.013 33.8702C-23.6763 33.7837 -24.253 33.5963 -24.7432 33.3079C-25.2046 32.9907 -25.5506 32.5438 -25.7813 31.9671C-25.9832 31.3903 -26.012 30.6262 -25.8678 29.6746L-22.2345 6.70661C-22.0903 5.75502 -21.8163 5.00528 -21.4126 4.45739C-21.0089 3.88067 -20.5187 3.44813 -19.942 3.15976C-19.3653 2.84257 -18.7309 2.64071 -18.0388 2.55421C-17.3467 2.43886 -16.6403 2.38119 -15.9194 2.38119H-12.113C-11.3921 2.38119 -10.7 2.43886 -10.0368 2.55421C-9.37356 2.64071 -8.81125 2.84257 -8.34987 3.15976C-7.85966 3.44813 -7.51363 3.88067 -7.31177 4.45739C-7.08108 5.00528 -7.03783 5.75502 -7.18201 6.70661L-8.22011 13.1515H-14.838L-14.0594 8.30701C-14.0306 8.134 -14.0306 7.96098 -14.0594 7.78796C-14.0883 7.61495 -14.218 7.52844 -14.4487 7.52844H-15.2273C-15.458 7.52844 -15.6166 7.61495 -15.7031 7.78796C-15.7896 7.96098 -15.8473 8.134 -15.8761 8.30701L-18.9904 28.0742C-19.0481 28.2472 -19.0625 28.4202 -19.0337 28.5932C-18.976 28.7662 -18.8318 28.8528 -18.6011 28.8528H-17.3035L-16.2221 21.9753H-17.044ZM-3.3043 34H-9.92219L-4.90471 2.38119L1.71318 2.38119L-0.146748 14.1031H1.66993L3.52986 2.38119L10.1477 2.38119L5.13026 34H-1.48763L0.848098 19.2503H-0.968577L-3.3043 34ZM6.71544 34L11.7329 2.38119L18.3508 2.38119L14.1552 28.8528H18.048L17.2262 34L6.71544 34ZM18.8334 34L23.8509 2.38119H30.4688L25.4513 34H18.8334ZM36.5811 21.9753L37.4029 16.8281L44.8427 16.8281L42.1176 34H32.6882C31.9673 34 31.2753 33.9567 30.612 33.8702C29.9488 33.7837 29.3721 33.5963 28.8819 33.3079C28.4205 32.9907 28.0744 32.5438 27.8438 31.9671C27.6419 31.3903 27.6131 30.6262 27.7572 29.6746L31.3906 6.70661C31.5348 5.75502 31.8087 5.00528 32.2124 4.45739C32.6161 3.88067 33.1064 3.44813 33.6831 3.15976C34.2598 2.84257 34.8942 2.64071 35.5863 2.55421C36.2783 2.43886 36.9848 2.38119 37.7057 2.38119L41.5121 2.38119C42.233 2.38119 42.9251 2.43886 43.5883 2.55421C44.2515 2.64071 44.8138 2.84257 45.2752 3.15976C45.7654 3.44813 46.1114 3.88067 46.3133 4.45739C46.544 5.00528 46.5872 5.75502 46.4431 6.70661L45.405 13.1515H38.7871L39.5656 8.30701C39.5945 8.134 39.5945 7.96098 39.5656 7.78796C39.5368 7.61495 39.407 7.52844 39.1764 7.52844H38.3978C38.1671 7.52844 38.0085 7.61495 37.922 7.78796C37.8355 7.96098 37.7778 8.134 37.749 8.30701L34.6347 28.0742C34.577 28.2472 34.5626 28.4202 34.5914 28.5932C34.6491 28.7662 34.7933 28.8528 35.024 28.8528H36.3216L37.4029 21.9753H36.5811ZM50.3207 34H43.7028L48.7203 2.38119L55.3382 2.38119L53.4783 14.1031H55.295L57.1549 2.38119L63.7728 2.38119L58.7553 34H52.1374L54.4731 19.2503H52.6565L50.3207 34ZM77.9883 7.52844H74.5712L70.3756 34H63.7577L67.9533 7.52844L64.5362 7.52844L65.3581 2.38119L78.8101 2.38119L77.9883 7.52844ZM83.5627 34L88.5801 2.38119L99.3504 2.38119L98.5286 7.52844H94.3762L93.3381 14.1031H97.4905L96.6687 19.2503H92.5163L91.0024 28.8528H95.1548L94.3329 34H83.5627ZM100.735 2.38119L107.267 2.38119L105.58 24.3976L110.857 2.38119L117.431 2.38119L108.175 34H99.9567L100.735 2.38119ZM113.797 34L118.814 2.38119L129.584 2.38119L128.762 7.52844H124.61L123.572 14.1031H127.724L126.903 19.2503H122.75L121.236 28.8528H125.389L124.567 34H113.797ZM131.186 2.38119L139.49 2.38119L139.274 18.0825L141.783 2.38119L148.228 2.38119L143.21 34L135.122 34L135.078 18.342L132.613 34H126.168L131.186 2.38119ZM162.439 7.52844H159.022L154.826 34H148.208L152.404 7.52844H148.987L149.808 2.38119L163.26 2.38119L162.439 7.52844ZM174.271 2.38119C174.991 2.38119 175.683 2.43886 176.347 2.55421C177.01 2.64071 177.572 2.84257 178.034 3.15976C178.524 3.44813 178.87 3.88067 179.072 4.45739C179.302 5.00528 179.346 5.75502 179.201 6.70661L178.163 13.1515H171.546L172.324 8.30701C172.353 8.134 172.353 7.96098 172.324 7.78796C172.295 7.61495 172.165 7.52844 171.935 7.52844H171.156C170.926 7.52844 170.767 7.61495 170.68 7.78796C170.594 7.96098 170.536 8.134 170.507 8.30701L169.642 13.7138C169.613 13.9156 169.7 14.1031 169.902 14.2761C170.104 14.4203 170.277 14.5356 170.421 14.6221C170.94 15.0258 171.589 15.444 172.367 15.8765C173.175 16.2802 173.924 16.756 174.617 17.3039C175.337 17.8229 175.929 18.4285 176.39 19.1206C176.851 19.7838 177.01 20.5624 176.866 21.4563L175.568 29.6746C175.424 30.6262 175.15 31.3903 174.746 31.9671C174.343 32.5438 173.852 32.9907 173.276 33.3079C172.699 33.5963 172.065 33.7837 171.372 33.8702C170.68 33.9567 169.974 34 169.253 34H165.447C164.726 34 164.034 33.9567 163.37 33.8702C162.707 33.7837 162.131 33.5963 161.64 33.3079C161.179 32.9907 160.833 32.5438 160.602 31.9671C160.4 31.3903 160.372 30.6262 160.516 29.6746L161.511 23.2297H168.128L167.393 28.0742C167.335 28.2472 167.321 28.4202 167.35 28.5932C167.408 28.7662 167.552 28.8528 167.782 28.8528H168.561C168.792 28.8528 168.936 28.7662 168.994 28.5932C169.08 28.4202 169.152 28.2472 169.21 28.0742L170.032 22.6674C170.003 22.4079 169.887 22.206 169.686 22.0618C169.513 21.8888 169.34 21.7302 169.167 21.586C168.561 21.0958 167.854 20.6489 167.047 20.2452C166.268 19.8415 165.533 19.3945 164.841 18.9043C164.178 18.4141 163.644 17.8374 163.241 17.1741C162.837 16.5109 162.722 15.6602 162.895 14.6221L164.149 6.70661C164.293 5.75502 164.567 5.00528 164.971 4.45739C165.375 3.88067 165.865 3.44813 166.442 3.15976C167.018 2.84257 167.653 2.64071 168.345 2.55421C169.037 2.43886 169.743 2.38119 170.464 2.38119H174.271Z" fill="white"/>
<path d="M203.694 2.70801L205.309 9.49505L209.545 3.95169L208.26 10.8089L214.384 7.4677L210.421 13.2094L217.375 12.6481L211.42 16.2814L218.001 18.5971L211.082 19.4939L216.152 24.2861L209.467 22.2913L212.15 28.7315L206.854 24.1899L206.685 31.1645L203.694 24.8615L200.703 31.1645L200.534 24.1899L195.238 28.7315L197.921 22.2913L191.236 24.2861L196.306 19.4939L189.387 18.5971L195.968 16.2814L190.013 12.6481L196.967 13.2094L193.004 7.4677L199.128 10.8089L197.843 3.95169L202.079 9.49505L203.694 2.70801Z" fill="#ED3C71"/>
<path d="M236.804 34H230.186L235.204 2.38119L241.822 2.38119L239.962 14.1031H241.778L243.638 2.38119L250.256 2.38119L245.239 34H238.621L240.957 19.2503H239.14L236.804 34ZM246.824 34L251.842 2.38119L258.459 2.38119L253.442 34H246.824ZM264.572 21.9753L265.394 16.8281H272.833L270.108 34H260.679C259.958 34 259.266 33.9567 258.603 33.8702C257.939 33.7837 257.363 33.5963 256.873 33.3079C256.411 32.9907 256.065 32.5438 255.834 31.9671C255.633 31.3903 255.604 30.6262 255.748 29.6746L259.381 6.70661C259.525 5.75502 259.799 5.00528 260.203 4.45739C260.607 3.88067 261.097 3.44813 261.674 3.15976C262.25 2.84257 262.885 2.64071 263.577 2.55421C264.269 2.43886 264.975 2.38119 265.696 2.38119H269.503C270.224 2.38119 270.916 2.43886 271.579 2.55421C272.242 2.64071 272.804 2.84257 273.266 3.15976C273.756 3.44813 274.102 3.88067 274.304 4.45739C274.535 5.00528 274.578 5.75502 274.434 6.70661L273.396 13.1515H266.778L267.556 8.30701C267.585 8.134 267.585 7.96098 267.556 7.78796C267.527 7.61495 267.398 7.52844 267.167 7.52844H266.388C266.158 7.52844 265.999 7.61495 265.913 7.78796C265.826 7.96098 265.768 8.134 265.74 8.30701L262.625 28.0742C262.568 28.2472 262.553 28.4202 262.582 28.5932C262.64 28.7662 262.784 28.8528 263.015 28.8528H264.312L265.394 21.9753H264.572ZM278.311 34H271.694L276.711 2.38119L283.329 2.38119L281.469 14.1031H283.286L285.146 2.38119L291.763 2.38119L286.746 34H280.128L282.464 19.2503H280.647L278.311 34ZM288.331 34L293.349 2.38119L299.967 2.38119L295.771 28.8528H299.664L298.842 34L288.331 34ZM300.449 34L305.467 2.38119H312.084L307.067 34H300.449ZM318.197 21.9753L319.019 16.8281L326.458 16.8281L323.733 34H314.304C313.583 34 312.891 33.9567 312.228 33.8702C311.565 33.7837 310.988 33.5963 310.498 33.3079C310.036 32.9907 309.69 32.5438 309.459 31.9671C309.258 31.3903 309.229 30.6262 309.373 29.6746L313.006 6.70661C313.151 5.75502 313.424 5.00528 313.828 4.45739C314.232 3.88067 314.722 3.44813 315.299 3.15976C315.876 2.84257 316.51 2.64071 317.202 2.55421C317.894 2.43886 318.601 2.38119 319.321 2.38119L323.128 2.38119C323.849 2.38119 324.541 2.43886 325.204 2.55421C325.867 2.64071 326.43 2.84257 326.891 3.15976C327.381 3.44813 327.727 3.88067 327.929 4.45739C328.16 5.00528 328.203 5.75502 328.059 6.70661L327.021 13.1515H320.403L321.181 8.30701C321.21 8.134 321.21 7.96098 321.181 7.78796C321.153 7.61495 321.023 7.52844 320.792 7.52844H320.014C319.783 7.52844 319.624 7.61495 319.538 7.78796C319.451 7.96098 319.394 8.134 319.365 8.30701L316.25 28.0742C316.193 28.2472 316.178 28.4202 316.207 28.5932C316.265 28.7662 316.409 28.8528 316.64 28.8528H317.937L319.019 21.9753H318.197ZM331.936 34H325.319L330.336 2.38119L336.954 2.38119L335.094 14.1031H336.911L338.771 2.38119L345.389 2.38119L340.371 34H333.753L336.089 19.2503H334.272L331.936 34ZM359.604 7.52844H356.187L351.991 34H345.373L349.569 7.52844L346.152 7.52844L346.974 2.38119L360.426 2.38119L359.604 7.52844ZM365.178 34L370.196 2.38119L380.966 2.38119L380.144 7.52844H375.992L374.954 14.1031H379.106L378.284 19.2503H374.132L372.618 28.8528H376.77L375.949 34H365.178ZM382.351 2.38119L388.882 2.38119L387.195 24.3976L392.472 2.38119L399.047 2.38119L389.791 34H381.572L382.351 2.38119ZM395.412 34L400.43 2.38119L411.2 2.38119L410.378 7.52844H406.226L405.188 14.1031H409.34L408.518 19.2503H404.366L402.852 28.8528H407.004L406.183 34H395.412ZM412.801 2.38119L421.106 2.38119L420.89 18.0825L423.399 2.38119L429.843 2.38119L424.826 34L416.737 34L416.694 18.342L414.229 34H407.784L412.801 2.38119ZM444.054 7.52844H440.637L436.442 34H429.824L434.019 7.52844H430.602L431.424 2.38119L444.876 2.38119L444.054 7.52844ZM455.886 2.38119C456.607 2.38119 457.299 2.43886 457.962 2.55421C458.626 2.64071 459.188 2.84257 459.649 3.15976C460.14 3.44813 460.486 3.88067 460.687 4.45739C460.918 5.00528 460.961 5.75502 460.817 6.70661L459.779 13.1515H453.161L453.94 8.30701C453.969 8.134 453.969 7.96098 453.94 7.78796C453.911 7.61495 453.781 7.52844 453.551 7.52844H452.772C452.541 7.52844 452.383 7.61495 452.296 7.78796C452.21 7.96098 452.152 8.134 452.123 8.30701L451.258 13.7138C451.229 13.9156 451.316 14.1031 451.518 14.2761C451.719 14.4203 451.892 14.5356 452.037 14.6221C452.556 15.0258 453.204 15.444 453.983 15.8765C454.79 16.2802 455.54 16.756 456.232 17.3039C456.953 17.8229 457.544 18.4285 458.006 19.1206C458.467 19.7838 458.626 20.5624 458.481 21.4563L457.184 29.6746C457.04 30.6262 456.766 31.3903 456.362 31.9671C455.958 32.5438 455.468 32.9907 454.891 33.3079C454.315 33.5963 453.68 33.7837 452.988 33.8702C452.296 33.9567 451.59 34 450.869 34H447.062C446.341 34 445.649 33.9567 444.986 33.8702C444.323 33.7837 443.746 33.5963 443.256 33.3079C442.795 32.9907 442.449 32.5438 442.218 31.9671C442.016 31.3903 441.987 30.6262 442.131 29.6746L443.126 23.2297H449.744L449.009 28.0742C448.951 28.2472 448.937 28.4202 448.966 28.5932C449.023 28.7662 449.167 28.8528 449.398 28.8528H450.177C450.407 28.8528 450.552 28.7662 450.609 28.5932C450.696 28.4202 450.768 28.2472 450.826 28.0742L451.647 22.6674C451.618 22.4079 451.503 22.206 451.301 22.0618C451.128 21.8888 450.955 21.7302 450.782 21.586C450.177 21.0958 449.47 20.6489 448.663 20.2452C447.884 19.8415 447.149 19.3945 446.457 18.9043C445.794 18.4141 445.26 17.8374 444.856 17.1741C444.453 16.5109 444.337 15.6602 444.51 14.6221L445.765 6.70661C445.909 5.75502 446.183 5.00528 446.587 4.45739C446.99 3.88067 447.481 3.44813 448.057 3.15976C448.634 2.84257 449.268 2.64071 449.96 2.55421C450.652 2.43886 451.359 2.38119 452.08 2.38119H455.886Z" fill="white"/>
</svg>
