<svg width="1344" height="64" viewBox="0 0 1344 64" fill="none" xmlns="http://www.w3.org/2000/svg">
<path d="M-285.595 64H-298.108L-288.621 4.21499L-276.108 4.21499L-279.625 26.3788H-276.19L-272.673 4.21499L-260.16 4.21499L-269.647 64H-282.16L-277.744 36.1112H-281.179L-285.595 64ZM-266.65 64L-257.163 4.21499H-244.65L-254.137 64H-266.65ZM-233.092 41.2637L-231.538 31.5313H-217.471L-222.624 64H-240.453C-241.816 64 -243.125 63.9182 -244.379 63.7546C-245.633 63.5911 -246.723 63.2367 -247.65 62.6914C-248.522 62.0917 -249.177 61.2466 -249.613 60.1561C-249.995 59.0656 -250.049 57.6208 -249.776 55.8215L-242.907 12.3935C-242.634 10.5942 -242.116 9.17662 -241.353 8.14068C-240.589 7.05021 -239.662 6.23236 -238.572 5.68712C-237.481 5.08736 -236.282 4.7057 -234.973 4.54213C-233.665 4.32403 -232.329 4.21499 -230.966 4.21499L-223.769 4.21499C-222.406 4.21499 -221.097 4.32403 -219.843 4.54213C-218.589 4.7057 -217.526 5.08736 -216.653 5.68712C-215.727 6.23236 -215.072 7.05021 -214.691 8.14068C-214.254 9.17662 -214.173 10.5942 -214.445 12.3935L-216.408 24.5795H-228.921L-227.449 15.4196C-227.395 15.0924 -227.395 14.7653 -227.449 14.4381C-227.504 14.111 -227.749 13.9474 -228.185 13.9474H-229.657C-230.093 13.9474 -230.393 14.111 -230.557 14.4381C-230.721 14.7653 -230.83 15.0924 -230.884 15.4196L-236.773 52.7954C-236.882 53.1226 -236.909 53.4497 -236.854 53.7768C-236.745 54.104 -236.473 54.2676 -236.037 54.2676H-233.583L-231.538 41.2637H-233.092ZM-207.113 64H-219.626L-210.139 4.21499H-197.626L-201.143 26.3788H-197.708L-194.191 4.21499H-181.678L-191.165 64H-203.678L-199.262 36.1112H-202.697L-207.113 64ZM-188.168 64L-178.681 4.21499H-166.168L-174.101 54.2676H-166.74L-168.294 64L-188.168 64ZM-165.255 64L-155.768 4.21499L-143.255 4.21499L-152.742 64H-165.255ZM-131.698 41.2637L-130.144 31.5313H-116.077L-121.229 64H-139.058C-140.422 64 -141.73 63.9182 -142.984 63.7546C-144.238 63.5911 -145.329 63.2367 -146.256 62.6914C-147.128 62.0917 -147.782 61.2466 -148.218 60.1561C-148.6 59.0656 -148.655 57.6208 -148.382 55.8215L-141.512 12.3935C-141.239 10.5942 -140.721 9.17662 -139.958 8.14068C-139.195 7.05021 -138.268 6.23236 -137.177 5.68712C-136.087 5.08736 -134.887 4.7057 -133.579 4.54213C-132.27 4.32403 -130.934 4.21499 -129.571 4.21499H-122.374C-121.011 4.21499 -119.703 4.32403 -118.449 4.54213C-117.194 4.7057 -116.131 5.08736 -115.259 5.68712C-114.332 6.23236 -113.678 7.05021 -113.296 8.14068C-112.86 9.17662 -112.778 10.5942 -113.051 12.3935L-115.014 24.5795H-127.527L-126.055 15.4196C-126 15.0924 -126 14.7653 -126.055 14.4381C-126.109 14.111 -126.354 13.9474 -126.791 13.9474H-128.263C-128.699 13.9474 -128.999 14.111 -129.162 14.4381C-129.326 14.7653 -129.435 15.0924 -129.49 15.4196L-135.378 52.7954C-135.487 53.1226 -135.514 53.4497 -135.46 53.7768C-135.351 54.104 -135.078 54.2676 -134.642 54.2676H-132.188L-130.144 41.2637H-131.698ZM-105.719 64H-118.232L-108.745 4.21499L-96.2317 4.21499L-99.7485 26.3788H-96.3135L-92.7967 4.21499L-80.2836 4.21499L-89.7707 64H-102.284L-97.8674 36.1112H-101.302L-105.719 64ZM-53.405 13.9474H-59.866L-67.7992 64H-80.3123L-72.3792 13.9474H-78.8402L-77.2863 4.21499L-51.8511 4.21499L-53.405 13.9474ZM-42.8649 64L-33.3778 4.21499L-13.0133 4.21499L-14.5672 13.9474H-22.4186L-24.3815 26.3788H-16.5301L-18.084 36.1112H-25.9354L-28.7979 54.2676H-20.9465L-22.5004 64H-42.8649ZM-10.3949 4.21499L1.95467 4.21499L-1.23495 45.8437L8.74285 4.21499L21.1742 4.21499L3.67216 64H-11.867L-10.3949 4.21499ZM14.3017 64L23.7888 4.21499L44.1533 4.21499L42.5994 13.9474L34.748 13.9474L32.7852 26.3788H40.6365L39.0826 36.1112H31.2312L28.3687 54.2676H36.2201L34.6662 64H14.3017ZM47.1806 4.21499L62.8834 4.21499L62.4745 33.903L67.218 4.21499L79.404 4.21499L69.9169 64H54.6231L54.5413 34.3937L49.8795 64H37.6935L47.1806 4.21499ZM106.274 13.9474H99.8133L91.8801 64L79.367 64L87.3001 13.9474H80.8391L82.393 4.21499L107.828 4.21499L106.274 13.9474ZM128.646 4.21499C130.009 4.21499 131.317 4.32403 132.571 4.54213C133.825 4.7057 134.889 5.08736 135.761 5.68712C136.688 6.23236 137.342 7.05021 137.724 8.14068C138.16 9.17662 138.242 10.5942 137.969 12.3935L136.006 24.5795H123.493L124.965 15.4196C125.02 15.0924 125.02 14.7653 124.965 14.4381C124.911 14.111 124.666 13.9474 124.229 13.9474H122.757C122.321 13.9474 122.021 14.111 121.858 14.4381C121.694 14.7653 121.585 15.0924 121.53 15.4196L119.895 25.6427C119.84 26.0244 120.004 26.3788 120.385 26.7059C120.767 26.9785 121.094 27.1966 121.367 27.3602C122.348 28.1235 123.575 28.9141 125.047 29.732C126.574 30.4953 127.991 31.3949 129.3 32.4309C130.663 33.4123 131.781 34.5573 132.653 35.8659C133.526 37.1199 133.825 38.5921 133.553 40.2823L131.099 55.8215C130.827 57.6208 130.309 59.0656 129.545 60.1561C128.782 61.2466 127.855 62.0917 126.765 62.6914C125.674 63.2367 124.475 63.5911 123.166 63.7546C121.858 63.9182 120.522 64 119.159 64H111.962C110.598 64 109.29 63.9182 108.036 63.7546C106.782 63.5911 105.691 63.2367 104.764 62.6914C103.892 62.0917 103.238 61.2466 102.802 60.1561C102.42 59.0656 102.365 57.6208 102.638 55.8215L104.519 43.6355H117.032L115.642 52.7954C115.533 53.1226 115.506 53.4497 115.56 53.7768C115.669 54.104 115.942 54.2676 116.378 54.2676H117.85C118.286 54.2676 118.559 54.104 118.668 53.7768C118.832 53.4497 118.968 53.1226 119.077 52.7954L120.631 42.5723C120.576 42.0816 120.358 41.6999 119.977 41.4273C119.649 41.1001 119.322 40.8003 118.995 40.5276C117.85 39.6007 116.514 38.7556 114.988 37.9923C113.515 37.229 112.125 36.3838 110.817 35.457C109.563 34.5301 108.554 33.4396 107.791 32.1855C107.027 30.9315 106.809 29.3231 107.136 27.3602L109.508 12.3935C109.781 10.5942 110.299 9.17662 111.062 8.14068C111.825 7.05021 112.752 6.23236 113.843 5.68712C114.933 5.08736 116.133 4.7057 117.441 4.54213C118.75 4.32403 120.086 4.21499 121.449 4.21499L128.646 4.21499Z" fill="white"/>
<path d="M184.28 5.12L187.334 17.953L195.343 7.47156L192.913 20.4372L204.494 14.1196L197 24.976L210.149 23.9147L198.888 30.7847L211.331 35.1632L198.249 36.8588L207.836 45.92L195.195 42.1482L200.268 54.3253L190.254 45.7382L189.935 58.9256L184.28 47.008L178.625 58.9256L178.306 45.7382L168.292 54.3253L173.365 42.1482L160.724 45.92L170.311 36.8588L157.229 35.1632L169.673 30.7847L158.411 23.9147L171.56 24.976L164.067 14.1196L175.647 20.4372L173.217 7.47156L181.226 17.953L184.28 5.12Z" fill="#ED3C71"/>
<path d="M246.885 64H234.372L243.859 4.21499L256.372 4.21499L252.856 26.3788H256.291L259.807 4.21499L272.32 4.21499L262.833 64H250.32L254.737 36.1112H251.302L246.885 64ZM265.831 64L275.318 4.21499H287.831L278.344 64H265.831ZM299.388 41.2637L300.942 31.5313H315.009L309.857 64H292.028C290.664 64 289.356 63.9182 288.102 63.7546C286.848 63.5911 285.757 63.2367 284.83 62.6914C283.958 62.0917 283.304 61.2466 282.868 60.1561C282.486 59.0656 282.431 57.6208 282.704 55.8215L289.574 12.3935C289.847 10.5942 290.365 9.17662 291.128 8.14068C291.891 7.05021 292.818 6.23236 293.909 5.68712C294.999 5.08736 296.199 4.7057 297.507 4.54213C298.816 4.32403 300.152 4.21499 301.515 4.21499L308.712 4.21499C310.075 4.21499 311.383 4.32403 312.637 4.54213C313.891 4.7057 314.955 5.08736 315.827 5.68712C316.754 6.23236 317.408 7.05021 317.79 8.14068C318.226 9.17662 318.308 10.5942 318.035 12.3935L316.072 24.5795H303.559L305.031 15.4196C305.086 15.0924 305.086 14.7653 305.031 14.4381C304.977 14.111 304.731 13.9474 304.295 13.9474H302.823C302.387 13.9474 302.087 14.111 301.924 14.4381C301.76 14.7653 301.651 15.0924 301.596 15.4196L295.708 52.7954C295.599 53.1226 295.572 53.4497 295.626 53.7768C295.735 54.104 296.008 54.2676 296.444 54.2676H298.897L300.942 41.2637H299.388ZM325.367 64H312.854L322.341 4.21499H334.854L331.337 26.3788H334.772L338.289 4.21499H350.802L341.315 64H328.802L333.219 36.1112H329.784L325.367 64ZM344.313 64L353.8 4.21499H366.313L358.38 54.2676H365.74L364.186 64L344.313 64ZM367.225 64L376.712 4.21499L389.225 4.21499L379.738 64H367.225ZM400.783 41.2637L402.337 31.5313H416.404L411.251 64H393.422C392.059 64 390.75 63.9182 389.496 63.7546C388.242 63.5911 387.152 63.2367 386.225 62.6914C385.353 62.0917 384.698 61.2466 384.262 60.1561C383.88 59.0656 383.826 57.6208 384.099 55.8215L390.968 12.3935C391.241 10.5942 391.759 9.17662 392.522 8.14068C393.286 7.05021 394.213 6.23236 395.303 5.68712C396.394 5.08736 397.593 4.7057 398.902 4.54213C400.21 4.32403 401.546 4.21499 402.909 4.21499H410.106C411.469 4.21499 412.778 4.32403 414.032 4.54213C415.286 4.7057 416.349 5.08736 417.222 5.68712C418.148 6.23236 418.803 7.05021 419.184 8.14068C419.621 9.17662 419.702 10.5942 419.43 12.3935L417.467 24.5795H404.954L406.426 15.4196C406.48 15.0924 406.48 14.7653 406.426 14.4381C406.371 14.111 406.126 13.9474 405.69 13.9474H404.218C403.782 13.9474 403.482 14.111 403.318 14.4381C403.154 14.7653 403.045 15.0924 402.991 15.4196L397.102 52.7954C396.993 53.1226 396.966 53.4497 397.021 53.7768C397.13 54.104 397.402 54.2676 397.838 54.2676H400.292L402.337 41.2637H400.783ZM426.762 64H414.249L423.736 4.21499L436.249 4.21499L432.732 26.3788H436.167L439.684 4.21499L452.197 4.21499L442.71 64H430.197L434.613 36.1112H431.178L426.762 64ZM479.075 13.9474H472.614L464.681 64H452.168L460.101 13.9474H453.64L455.194 4.21499L480.629 4.21499L479.075 13.9474ZM489.616 64L499.103 4.21499L519.467 4.21499L517.913 13.9474H510.062L508.099 26.3788H515.95L514.396 36.1112H506.545L503.683 54.2676H511.534L509.98 64H489.616ZM522.086 4.21499L534.435 4.21499L531.246 45.8437L541.223 4.21499L553.655 4.21499L536.153 64H520.613L522.086 4.21499ZM546.782 64L556.269 4.21499L576.634 4.21499L575.08 13.9474L567.228 13.9474L565.266 26.3788H573.117L571.563 36.1112H563.712L560.849 54.2676H568.701L567.147 64H546.782ZM579.661 4.21499L595.364 4.21499L594.955 33.903L599.698 4.21499L611.884 4.21499L602.397 64H587.104L587.022 34.3937L582.36 64H570.174L579.661 4.21499ZM638.755 13.9474H632.294L624.361 64L611.847 64L619.781 13.9474H613.32L614.873 4.21499L640.309 4.21499L638.755 13.9474ZM661.126 4.21499C662.489 4.21499 663.798 4.32403 665.052 4.54213C666.306 4.7057 667.369 5.08736 668.242 5.68712C669.168 6.23236 669.823 7.05021 670.204 8.14068C670.641 9.17662 670.722 10.5942 670.45 12.3935L668.487 24.5795H655.974L657.446 15.4196C657.5 15.0924 657.5 14.7653 657.446 14.4381C657.391 14.111 657.146 13.9474 656.71 13.9474H655.238C654.802 13.9474 654.502 14.111 654.338 14.4381C654.174 14.7653 654.065 15.0924 654.011 15.4196L652.375 25.6427C652.321 26.0244 652.484 26.3788 652.866 26.7059C653.248 26.9785 653.575 27.1966 653.847 27.3602C654.829 28.1235 656.056 28.9141 657.528 29.732C659.054 30.4953 660.472 31.3949 661.781 32.4309C663.144 33.4123 664.261 34.5573 665.134 35.8659C666.006 37.1199 666.306 38.5921 666.033 40.2823L663.58 55.8215C663.307 57.6208 662.789 59.0656 662.026 60.1561C661.263 61.2466 660.336 62.0917 659.245 62.6914C658.155 63.2367 656.955 63.5911 655.647 63.7546C654.338 63.9182 653.002 64 651.639 64H644.442C643.079 64 641.77 63.9182 640.516 63.7546C639.262 63.5911 638.172 63.2367 637.245 62.6914C636.373 62.0917 635.718 61.2466 635.282 60.1561C634.9 59.0656 634.846 57.6208 635.119 55.8215L637 43.6355H649.513L648.122 52.7954C648.013 53.1226 647.986 53.4497 648.041 53.7768C648.15 54.104 648.422 54.2676 648.858 54.2676H650.331C650.767 54.2676 651.039 54.104 651.148 53.7768C651.312 53.4497 651.448 53.1226 651.557 52.7954L653.111 42.5723C653.057 42.0816 652.839 41.6999 652.457 41.4273C652.13 41.1001 651.803 40.8003 651.476 40.5276C650.331 39.6007 648.995 38.7556 647.468 37.9923C645.996 37.229 644.606 36.3838 643.297 35.457C642.043 34.5301 641.034 33.4396 640.271 32.1855C639.508 30.9315 639.29 29.3231 639.617 27.3602L641.988 12.3935C642.261 10.5942 642.779 9.17662 643.542 8.14068C644.306 7.05021 645.233 6.23236 646.323 5.68712C647.414 5.08736 648.613 4.7057 649.922 4.54213C651.23 4.32403 652.566 4.21499 653.929 4.21499L661.126 4.21499Z" fill="white"/>
<path d="M716.76 5.12L719.813 17.953L727.823 7.47156L725.393 20.4372L736.973 14.1196L729.48 24.976L742.628 23.9147L731.367 30.7847L743.811 35.1632L730.729 36.8588L740.315 45.92L727.675 42.1482L732.747 54.3253L722.734 45.7382L722.415 58.9256L716.76 47.008L711.104 58.9256L710.785 45.7382L700.772 54.3253L705.844 42.1482L693.204 45.92L702.79 36.8588L689.709 35.1632L702.152 30.7847L690.891 23.9147L704.039 24.976L696.546 14.1196L708.126 20.4372L705.696 7.47156L713.706 17.953L716.76 5.12Z" fill="#ED3C71"/>
<path d="M779.365 64H766.852L776.339 4.21499L788.852 4.21499L785.335 26.3788H788.77L792.287 4.21499L804.8 4.21499L795.313 64H782.8L787.216 36.1112H783.781L779.365 64ZM798.31 64L807.797 4.21499H820.31L810.823 64H798.31ZM831.868 41.2637L833.422 31.5313H847.489L842.336 64H824.507C823.144 64 821.835 63.9182 820.581 63.7546C819.327 63.5911 818.237 63.2367 817.31 62.6914C816.438 62.0917 815.783 61.2466 815.347 60.1561C814.965 59.0656 814.911 57.6208 815.183 55.8215L822.053 12.3935C822.326 10.5942 822.844 9.17662 823.607 8.14068C824.371 7.05021 825.298 6.23236 826.388 5.68712C827.479 5.08736 828.678 4.7057 829.987 4.54213C831.295 4.32403 832.631 4.21499 833.994 4.21499L841.191 4.21499C842.554 4.21499 843.863 4.32403 845.117 4.54213C846.371 4.7057 847.434 5.08736 848.307 5.68712C849.233 6.23236 849.888 7.05021 850.269 8.14068C850.706 9.17662 850.787 10.5942 850.515 12.3935L848.552 24.5795H836.039L837.511 15.4196C837.565 15.0924 837.565 14.7653 837.511 14.4381C837.456 14.111 837.211 13.9474 836.775 13.9474H835.303C834.866 13.9474 834.567 14.111 834.403 14.4381C834.239 14.7653 834.13 15.0924 834.076 15.4196L828.187 52.7954C828.078 53.1226 828.051 53.4497 828.106 53.7768C828.215 54.104 828.487 54.2676 828.923 54.2676H831.377L833.422 41.2637H831.868ZM857.847 64H845.333L854.821 4.21499H867.334L863.817 26.3788H867.252L870.769 4.21499H883.282L873.795 64H861.282L865.698 36.1112H862.263L857.847 64ZM876.792 64L886.279 4.21499H898.792L890.859 54.2676H898.22L896.666 64L876.792 64ZM899.705 64L909.192 4.21499L921.705 4.21499L912.218 64H899.705ZM933.262 41.2637L934.816 31.5313H948.883L943.731 64H925.902C924.538 64 923.23 63.9182 921.976 63.7546C920.722 63.5911 919.631 63.2367 918.704 62.6914C917.832 62.0917 917.178 61.2466 916.742 60.1561C916.36 59.0656 916.305 57.6208 916.578 55.8215L923.448 12.3935C923.721 10.5942 924.239 9.17662 925.002 8.14068C925.765 7.05021 926.692 6.23236 927.783 5.68712C928.873 5.08736 930.073 4.7057 931.381 4.54213C932.69 4.32403 934.026 4.21499 935.389 4.21499H942.586C943.949 4.21499 945.257 4.32403 946.511 4.54213C947.765 4.7057 948.829 5.08736 949.701 5.68712C950.628 6.23236 951.282 7.05021 951.664 8.14068C952.1 9.17662 952.182 10.5942 951.909 12.3935L949.946 24.5795H937.433L938.905 15.4196C938.96 15.0924 938.96 14.7653 938.905 14.4381C938.851 14.111 938.606 13.9474 938.169 13.9474H936.697C936.261 13.9474 935.961 14.111 935.798 14.4381C935.634 14.7653 935.525 15.0924 935.47 15.4196L929.582 52.7954C929.473 53.1226 929.446 53.4497 929.5 53.7768C929.609 54.104 929.882 54.2676 930.318 54.2676H932.772L934.816 41.2637H933.262ZM959.241 64H946.728L956.215 4.21499L968.728 4.21499L965.211 26.3788H968.646L972.163 4.21499L984.676 4.21499L975.189 64H962.676L967.093 36.1112H963.658L959.241 64ZM1011.55 13.9474H1005.09L997.161 64H984.648L992.581 13.9474H986.12L987.674 4.21499L1013.11 4.21499L1011.55 13.9474ZM1022.1 64L1031.58 4.21499L1051.95 4.21499L1050.39 13.9474H1042.54L1040.58 26.3788H1048.43L1046.88 36.1112H1039.02L1036.16 54.2676H1044.01L1042.46 64H1022.1ZM1054.57 4.21499L1066.91 4.21499L1063.73 45.8437L1073.7 4.21499L1086.13 4.21499L1068.63 64H1053.09L1054.57 4.21499ZM1079.26 64L1088.75 4.21499L1109.11 4.21499L1107.56 13.9474L1099.71 13.9474L1097.75 26.3788H1105.6L1104.04 36.1112H1096.19L1093.33 54.2676H1101.18L1099.63 64H1079.26ZM1112.14 4.21499L1127.84 4.21499L1127.43 33.903L1132.18 4.21499L1144.36 4.21499L1134.88 64H1119.58L1119.5 34.3937L1114.84 64H1102.65L1112.14 4.21499ZM1171.23 13.9474H1164.77L1156.84 64L1144.33 64L1152.26 13.9474H1145.8L1147.35 4.21499L1172.79 4.21499L1171.23 13.9474ZM1193.61 4.21499C1194.97 4.21499 1196.28 4.32403 1197.53 4.54213C1198.79 4.7057 1199.85 5.08736 1200.72 5.68712C1201.65 6.23236 1202.3 7.05021 1202.68 8.14068C1203.12 9.17662 1203.2 10.5942 1202.93 12.3935L1200.97 24.5795H1188.45L1189.93 15.4196C1189.98 15.0924 1189.98 14.7653 1189.93 14.4381C1189.87 14.111 1189.63 13.9474 1189.19 13.9474H1187.72C1187.28 13.9474 1186.98 14.111 1186.82 14.4381C1186.65 14.7653 1186.54 15.0924 1186.49 15.4196L1184.85 25.6427C1184.8 26.0244 1184.96 26.3788 1185.35 26.7059C1185.73 26.9785 1186.05 27.1966 1186.33 27.3602C1187.31 28.1235 1188.54 28.9141 1190.01 29.732C1191.53 30.4953 1192.95 31.3949 1194.26 32.4309C1195.62 33.4123 1196.74 34.5573 1197.61 35.8659C1198.49 37.1199 1198.79 38.5921 1198.51 40.2823L1196.06 55.8215C1195.79 57.6208 1195.27 59.0656 1194.51 60.1561C1193.74 61.2466 1192.82 62.0917 1191.72 62.6914C1190.63 63.2367 1189.43 63.5911 1188.13 63.7546C1186.82 63.9182 1185.48 64 1184.12 64H1176.92C1175.56 64 1174.25 63.9182 1173 63.7546C1171.74 63.5911 1170.65 63.2367 1169.72 62.6914C1168.85 62.0917 1168.2 61.2466 1167.76 60.1561C1167.38 59.0656 1167.33 57.6208 1167.6 55.8215L1169.48 43.6355H1181.99L1180.6 52.7954C1180.49 53.1226 1180.47 53.4497 1180.52 53.7768C1180.63 54.104 1180.9 54.2676 1181.34 54.2676H1182.81C1183.25 54.2676 1183.52 54.104 1183.63 53.7768C1183.79 53.4497 1183.93 53.1226 1184.04 52.7954L1185.59 42.5723C1185.54 42.0816 1185.32 41.6999 1184.94 41.4273C1184.61 41.1001 1184.28 40.8003 1183.96 40.5276C1182.81 39.6007 1181.47 38.7556 1179.95 37.9923C1178.48 37.229 1177.09 36.3838 1175.78 35.457C1174.52 34.5301 1173.51 33.4396 1172.75 32.1855C1171.99 30.9315 1171.77 29.3231 1172.1 27.3602L1174.47 12.3935C1174.74 10.5942 1175.26 9.17662 1176.02 8.14068C1176.79 7.05021 1177.71 6.23236 1178.8 5.68712C1179.89 5.08736 1181.09 4.7057 1182.4 4.54213C1183.71 4.32403 1185.05 4.21499 1186.41 4.21499L1193.61 4.21499Z" fill="white"/>
<path d="M1249.24 5.12L1252.29 17.953L1260.3 7.47156L1257.87 20.4372L1269.45 14.1196L1261.96 24.976L1275.11 23.9147L1263.85 30.7847L1276.29 35.1632L1263.21 36.8588L1272.8 45.92L1260.16 42.1482L1265.23 54.3253L1255.21 45.7382L1254.9 58.9256L1249.24 47.008L1243.58 58.9256L1243.27 45.7382L1233.25 54.3253L1238.32 42.1482L1225.68 45.92L1235.27 36.8588L1222.19 35.1632L1234.63 30.7847L1223.37 23.9147L1236.52 24.976L1229.03 14.1196L1240.61 20.4372L1238.18 7.47156L1246.19 17.953L1249.24 5.12Z" fill="#ED3C71"/>
<path d="M1311.85 64H1299.33L1308.82 4.21499L1321.33 4.21499L1317.82 26.3788H1321.25L1324.77 4.21499L1337.28 4.21499L1327.79 64H1315.28L1319.7 36.1112H1316.26L1311.85 64ZM1330.79 64L1340.28 4.21499H1352.79L1343.3 64H1330.79ZM1364.35 41.2637L1365.9 31.5313H1379.97L1374.82 64H1356.99C1355.62 64 1354.32 63.9182 1353.06 63.7546C1351.81 63.5911 1350.72 63.2367 1349.79 62.6914C1348.92 62.0917 1348.26 61.2466 1347.83 60.1561C1347.45 59.0656 1347.39 57.6208 1347.66 55.8215L1354.53 12.3935C1354.81 10.5942 1355.32 9.17662 1356.09 8.14068C1356.85 7.05021 1357.78 6.23236 1358.87 5.68712C1359.96 5.08736 1361.16 4.7057 1362.47 4.54213C1363.78 4.32403 1365.11 4.21499 1366.47 4.21499L1373.67 4.21499C1375.03 4.21499 1376.34 4.32403 1377.6 4.54213C1378.85 4.7057 1379.91 5.08736 1380.79 5.68712C1381.71 6.23236 1382.37 7.05021 1382.75 8.14068C1383.19 9.17662 1383.27 10.5942 1383 12.3935L1381.03 24.5795H1368.52L1369.99 15.4196C1370.05 15.0924 1370.05 14.7653 1369.99 14.4381C1369.94 14.111 1369.69 13.9474 1369.26 13.9474H1367.78C1367.35 13.9474 1367.05 14.111 1366.88 14.4381C1366.72 14.7653 1366.61 15.0924 1366.56 15.4196L1360.67 52.7954C1360.56 53.1226 1360.53 53.4497 1360.59 53.7768C1360.7 54.104 1360.97 54.2676 1361.4 54.2676H1363.86L1365.9 41.2637H1364.35ZM1390.33 64H1377.81L1387.3 4.21499H1399.81L1396.3 26.3788H1399.73L1403.25 4.21499H1415.76L1406.28 64H1393.76L1398.18 36.1112H1394.74L1390.33 64ZM1409.27 64L1418.76 4.21499H1431.27L1423.34 54.2676H1430.7L1429.15 64L1409.27 64ZM1432.19 64L1441.67 4.21499L1454.19 4.21499L1444.7 64H1432.19ZM1465.74 41.2637L1467.3 31.5313H1481.36L1476.21 64H1458.38C1457.02 64 1455.71 63.9182 1454.46 63.7546C1453.2 63.5911 1452.11 63.2367 1451.18 62.6914C1450.31 62.0917 1449.66 61.2466 1449.22 60.1561C1448.84 59.0656 1448.79 57.6208 1449.06 55.8215L1455.93 12.3935C1456.2 10.5942 1456.72 9.17662 1457.48 8.14068C1458.25 7.05021 1459.17 6.23236 1460.26 5.68712C1461.35 5.08736 1462.55 4.7057 1463.86 4.54213C1465.17 4.32403 1466.51 4.21499 1467.87 4.21499H1475.07C1476.43 4.21499 1477.74 4.32403 1478.99 4.54213C1480.25 4.7057 1481.31 5.08736 1482.18 5.68712C1483.11 6.23236 1483.76 7.05021 1484.14 8.14068C1484.58 9.17662 1484.66 10.5942 1484.39 12.3935L1482.43 24.5795H1469.91L1471.39 15.4196C1471.44 15.0924 1471.44 14.7653 1471.39 14.4381C1471.33 14.111 1471.09 13.9474 1470.65 13.9474H1469.18C1468.74 13.9474 1468.44 14.111 1468.28 14.4381C1468.11 14.7653 1468.01 15.0924 1467.95 15.4196L1462.06 52.7954C1461.95 53.1226 1461.93 53.4497 1461.98 53.7768C1462.09 54.104 1462.36 54.2676 1462.8 54.2676H1465.25L1467.3 41.2637H1465.74ZM1491.72 64H1479.21L1488.7 4.21499L1501.21 4.21499L1497.69 26.3788H1501.13L1504.64 4.21499L1517.16 4.21499L1507.67 64H1495.16L1499.57 36.1112H1496.14L1491.72 64ZM1544.04 13.9474H1537.57L1529.64 64H1517.13L1525.06 13.9474H1518.6L1520.15 4.21499L1545.59 4.21499L1544.04 13.9474ZM1554.58 64L1564.06 4.21499L1584.43 4.21499L1582.87 13.9474H1575.02L1573.06 26.3788H1580.91L1579.36 36.1112H1571.51L1568.64 54.2676H1576.49L1574.94 64H1554.58ZM1587.05 4.21499L1599.4 4.21499L1596.21 45.8437L1606.18 4.21499L1618.61 4.21499L1601.11 64H1585.57L1587.05 4.21499ZM1611.74 64L1621.23 4.21499L1641.59 4.21499L1640.04 13.9474L1632.19 13.9474L1630.23 26.3788H1638.08L1636.52 36.1112H1628.67L1625.81 54.2676H1633.66L1632.11 64H1611.74ZM1644.62 4.21499L1660.32 4.21499L1659.91 33.903L1664.66 4.21499L1676.84 4.21499L1667.36 64H1652.06L1651.98 34.3937L1647.32 64H1635.13L1644.62 4.21499ZM1703.71 13.9474H1697.25L1689.32 64L1676.81 64L1684.74 13.9474H1678.28L1679.83 4.21499L1705.27 4.21499L1703.71 13.9474ZM1726.09 4.21499C1727.45 4.21499 1728.76 4.32403 1730.01 4.54213C1731.27 4.7057 1732.33 5.08736 1733.2 5.68712C1734.13 6.23236 1734.78 7.05021 1735.16 8.14068C1735.6 9.17662 1735.68 10.5942 1735.41 12.3935L1733.45 24.5795H1720.93L1722.41 15.4196C1722.46 15.0924 1722.46 14.7653 1722.41 14.4381C1722.35 14.111 1722.11 13.9474 1721.67 13.9474H1720.2C1719.76 13.9474 1719.46 14.111 1719.3 14.4381C1719.13 14.7653 1719.03 15.0924 1718.97 15.4196L1717.34 25.6427C1717.28 26.0244 1717.44 26.3788 1717.83 26.7059C1718.21 26.9785 1718.53 27.1966 1718.81 27.3602C1719.79 28.1235 1721.02 28.9141 1722.49 29.732C1724.01 30.4953 1725.43 31.3949 1726.74 32.4309C1728.1 33.4123 1729.22 34.5573 1730.09 35.8659C1730.97 37.1199 1731.27 38.5921 1730.99 40.2823L1728.54 55.8215C1728.27 57.6208 1727.75 59.0656 1726.99 60.1561C1726.22 61.2466 1725.3 62.0917 1724.21 62.6914C1723.11 63.2367 1721.92 63.5911 1720.61 63.7546C1719.3 63.9182 1717.96 64 1716.6 64H1709.4C1708.04 64 1706.73 63.9182 1705.48 63.7546C1704.22 63.5911 1703.13 63.2367 1702.2 62.6914C1701.33 62.0917 1700.68 61.2466 1700.24 60.1561C1699.86 59.0656 1699.81 57.6208 1700.08 55.8215L1701.96 43.6355H1714.47L1713.08 52.7954C1712.97 53.1226 1712.95 53.4497 1713 53.7768C1713.11 54.104 1713.38 54.2676 1713.82 54.2676H1715.29C1715.73 54.2676 1716 54.104 1716.11 53.7768C1716.27 53.4497 1716.41 53.1226 1716.52 52.7954L1718.07 42.5723C1718.02 42.0816 1717.8 41.6999 1717.42 41.4273C1717.09 41.1001 1716.76 40.8003 1716.44 40.5276C1715.29 39.6007 1713.95 38.7556 1712.43 37.9923C1710.96 37.229 1709.57 36.3838 1708.26 35.457C1707 34.5301 1705.99 33.4396 1705.23 32.1855C1704.47 30.9315 1704.25 29.3231 1704.58 27.3602L1706.95 12.3935C1707.22 10.5942 1707.74 9.17662 1708.5 8.14068C1709.27 7.05021 1710.19 6.23236 1711.28 5.68712C1712.37 5.08736 1713.57 4.7057 1714.88 4.54213C1716.19 4.32403 1717.53 4.21499 1718.89 4.21499L1726.09 4.21499Z" fill="white"/>
</svg>
