<svg width="570" height="570" viewBox="0 0 570 570" fill="none" xmlns="http://www.w3.org/2000/svg">
<circle cx="282.5" cy="289.5" r="230.5" fill="#6421F4"/>
<path d="M286.508 568.513V568.5H285.008C128.671 568.5 1.5 441.329 1.5 285.008C1.5 128.687 128.671 1.5 285.008 1.5C441.346 1.5 568.517 128.671 568.517 285.008C568.517 440.846 442.159 567.703 286.508 568.513ZM285.008 67.1911C164.905 67.1911 67.2078 164.905 67.2078 284.992C67.2078 405.078 164.922 502.792 285.008 502.792C405.095 502.792 502.809 405.078 502.809 284.992C502.809 164.905 405.095 67.1911 285.008 67.1911Z" fill="#ED5F8A" stroke="black" stroke-width="3"/>
<path d="M297.667 47.4321L293.241 47.2477L294.314 22.3667L284.908 21.9643L285.076 17.9907L308.314 18.9967L308.146 22.9703L298.74 22.5679L297.667 47.4489V47.4321Z" fill="#FDE9E9"/>
<path d="M324.51 50.2156L318.86 25.2172L306.922 47.9354L302.496 47.3654L317.183 20.1371L322.012 20.7574L329.205 50.8192L324.527 50.2156H324.51ZM310.561 37.5739L323.89 39.3008L324.627 43.0062L308.633 40.9439L310.577 37.5907L310.561 37.5739Z" fill="#FDE9E9"/>
<path d="M333.262 51.9256L328.953 50.9364L335.458 22.786L345.971 25.2171C349.207 25.9716 351.571 27.3129 353.046 29.2745C354.522 31.2362 354.941 33.6002 354.287 36.4002C353.817 38.4121 352.811 40.0049 351.286 41.1953C349.76 42.3857 347.849 42.9725 345.585 42.9725L350.632 55.9495L345.451 54.7591L340.874 42.5533L335.693 41.3629L333.245 51.9424L333.262 51.9256ZM338.929 27.3799L336.531 37.7247L342.45 39.0995C344.428 39.5522 346.088 39.4851 347.379 38.848C348.67 38.2109 349.525 37.0708 349.911 35.3607C350.296 33.6673 350.045 32.2421 349.156 31.1188C348.268 29.9955 346.826 29.1907 344.831 28.738L338.912 27.3632L338.929 27.3799Z" fill="#FDE9E9"/>
<path d="M369.192 62.2538L368.505 36.6351L352.359 56.5869L348.134 55.1618L367.834 31.3035L372.445 32.8627L373.635 63.746L369.175 62.2371L369.192 62.2538ZM357.976 47.1475L370.718 51.4397V55.212L355.427 50.0648L357.976 47.1475Z" fill="#FDE9E9"/>
<path d="M390.719 71.692L386.293 44.8325L376.887 65.3543L373.148 63.6442L385.187 37.3716L389.579 39.3835L393.922 65.5388L403.076 45.5702L406.815 47.2804L394.777 73.553L390.719 71.692Z" fill="#FDE9E9"/>
<path d="M407.017 81.4344C405.223 80.3613 403.747 79.0368 402.607 77.4775C401.467 75.9183 400.662 74.2081 400.21 72.3806C399.757 70.5531 399.673 68.6418 399.975 66.6801C400.277 64.7185 400.998 62.7904 402.121 60.9126C403.228 59.0683 404.552 57.5593 406.111 56.3857C407.671 55.2121 409.347 54.357 411.175 53.854C413.002 53.351 414.863 53.2336 416.758 53.5019C418.653 53.7702 420.514 54.4408 422.308 55.5138C424.454 56.8048 426.097 58.3306 427.27 60.1078C428.444 61.885 429.165 63.7963 429.467 65.8083C429.752 67.837 429.634 69.8489 429.115 71.8776L424.705 69.2286C425.04 67.9879 425.108 66.7304 424.923 65.4562C424.739 64.182 424.252 62.9748 423.481 61.8347C422.71 60.6946 421.603 59.7054 420.178 58.8503C418.552 57.8779 416.859 57.3917 415.115 57.4084C413.371 57.4252 411.711 57.9282 410.152 58.9174C408.593 59.9066 407.218 61.382 406.044 63.3269C404.955 65.1376 404.334 66.9987 404.167 68.8765C404.016 70.7543 404.334 72.5148 405.156 74.1578C405.961 75.8009 407.302 77.1758 409.129 78.2823C410.655 79.1877 412.147 79.6907 413.639 79.7913C415.132 79.8919 416.557 79.6068 417.898 78.9697C419.256 78.3326 420.463 77.3769 421.536 76.1027L412.986 70.9723L414.813 67.9376L427.371 75.4656C426.231 77.4775 424.89 79.1206 423.33 80.4116C421.771 81.7026 420.094 82.6248 418.3 83.1613C416.507 83.7146 414.645 83.8487 412.734 83.5637C410.823 83.2786 408.928 82.5745 407.034 81.4344H407.017Z" fill="#FDE9E9"/>
<path d="M442.226 101.403L439.979 104.237L425.107 92.4837L426.549 90.6562L440.013 88.7448C442.142 88.443 443.936 88.0742 445.445 87.655C446.937 87.2359 448.161 86.4311 449.083 85.2575C449.687 84.503 450.039 83.6814 450.173 82.8096C450.307 81.9378 450.173 81.0659 449.821 80.2108C449.452 79.3558 448.832 78.5845 447.943 77.8803C447.054 77.1762 446.149 76.7402 445.21 76.5726C444.271 76.3881 443.366 76.4888 442.494 76.8408C441.622 77.1929 440.834 77.7965 440.163 78.6516L437.045 76.187C438.185 74.7954 439.51 73.8229 441.052 73.3032C442.595 72.7834 444.154 72.6661 445.763 72.9846C447.373 73.3032 448.915 74.0409 450.391 75.2145C451.9 76.4049 452.99 77.7462 453.643 79.2216C454.297 80.6971 454.532 82.1557 454.364 83.5976C454.197 85.0395 453.66 86.3305 452.738 87.5041C451.9 88.5604 450.927 89.3652 449.821 89.9352C448.697 90.5053 447.457 90.9412 446.065 91.243C444.674 91.5448 443.131 91.813 441.421 92.031L432.233 93.54L442.242 101.454L442.226 101.403Z" fill="#FDE9E9"/>
<path d="M447.305 111.63C445.83 110.255 444.79 108.763 444.153 107.17C443.516 105.577 443.315 104.001 443.533 102.459C443.751 100.9 444.438 99.5081 445.545 98.2842L448.412 100.984C447.406 102.207 447.004 103.582 447.188 105.074C447.372 106.567 448.16 107.975 449.552 109.283C450.977 110.624 452.419 111.328 453.894 111.429C455.353 111.513 456.644 110.976 457.751 109.803C458.807 108.662 459.209 107.338 458.924 105.795C458.639 104.253 457.717 102.761 456.141 101.285L453.911 99.1896L456.141 96.8088L458.254 98.7872C459.092 99.5752 459.964 100.128 460.886 100.43C461.791 100.732 462.68 100.782 463.535 100.564C464.39 100.346 465.145 99.9105 465.782 99.2231C466.419 98.5357 466.821 97.798 466.972 96.9764C467.123 96.1716 467.056 95.3333 466.754 94.5118C466.452 93.6735 465.916 92.9022 465.161 92.1813C463.988 91.0747 462.73 90.5214 461.406 90.5047C460.081 90.5047 458.874 91.0077 457.784 92.0472L454.9 89.3478C456.024 88.2245 457.315 87.5035 458.773 87.185C460.232 86.8664 461.724 86.9335 463.267 87.4029C464.792 87.8724 466.218 88.7107 467.509 89.9179C468.883 91.2089 469.856 92.5501 470.426 93.9753C470.996 95.4004 471.18 96.792 470.946 98.1501C470.711 99.5081 470.074 100.749 469.034 101.872C468.079 102.895 466.922 103.515 465.547 103.767C464.172 104.018 462.68 103.867 461.054 103.331C462.11 105.024 462.63 106.684 462.613 108.327C462.596 109.953 462.009 111.379 460.869 112.603C459.712 113.843 458.371 114.631 456.829 114.967C455.286 115.319 453.71 115.201 452.067 114.631C450.424 114.061 448.848 113.072 447.322 111.63H447.305Z" fill="#FDE9E9"/>
<path d="M473.527 122.931C472.84 123.535 472.086 123.803 471.281 123.753C470.476 123.702 469.755 123.334 469.152 122.646C468.565 121.976 468.296 121.238 468.33 120.416C468.363 119.595 468.732 118.874 469.42 118.27C470.124 117.65 470.895 117.365 471.717 117.432C472.538 117.499 473.242 117.851 473.829 118.522C474.433 119.209 474.701 119.964 474.651 120.768C474.601 121.573 474.232 122.294 473.527 122.914V122.931Z" fill="#FDE9E9"/>
<path d="M478.742 146.889L476.144 143.317L496.28 128.647L490.73 121.035L493.949 118.688L507.647 137.483L504.428 139.83L498.878 132.218L478.742 146.889Z" fill="#FDE9E9"/>
<path d="M493.245 169.573L509.273 149.588L484.057 154.4L481.743 150.577L512.191 145.095L514.705 149.253L495.676 173.597L493.245 169.573ZM494.435 150.795L501.393 162.297L498.945 165.181L490.596 151.365L494.435 150.795Z" fill="#FDE9E9"/>
<path d="M497.353 177.488L495.441 173.497L521.513 161.04L526.157 170.764C527.599 173.766 528.001 176.448 527.398 178.829C526.794 181.21 525.185 183.004 522.603 184.244C520.742 185.133 518.864 185.351 516.969 184.881C515.075 184.412 513.432 183.305 512.023 181.528L505.015 193.566L502.718 188.771L509.424 177.588L507.127 172.793L497.319 177.471L497.353 177.488ZM520.088 166.64L510.497 171.217L513.113 176.7C513.985 178.544 515.075 179.768 516.382 180.405C517.673 181.042 519.115 180.975 520.691 180.22C522.267 179.466 523.206 178.393 523.542 176.985C523.86 175.576 523.592 173.967 522.703 172.122L520.088 166.64Z" fill="#FDE9E9"/>
<path d="M511.688 212.059L531.304 195.561L505.635 195.377L504.109 191.185L535.043 191.739L536.703 196.316L513.297 216.502L511.688 212.076V212.059ZM516.516 193.868L521.093 206.51L518.143 208.874L512.643 193.7L516.516 193.885V193.868Z" fill="#FDE9E9"/>
<path d="M517.707 234.745L535.965 214.542L514.052 219.974L513.062 215.984L541.112 209.026L542.269 213.703L524.514 233.404L545.84 228.122L546.83 232.113L518.78 239.071L517.707 234.745Z" fill="#FDE9E9"/>
<path d="M520.238 253.573C519.953 251.494 520.087 249.533 520.59 247.655C521.093 245.794 521.932 244.1 523.088 242.591C524.245 241.082 525.67 239.842 527.397 238.853C529.124 237.863 531.069 237.226 533.249 236.941C535.378 236.656 537.39 236.757 539.268 237.243C541.162 237.729 542.873 238.517 544.398 239.624C545.924 240.73 547.181 242.122 548.154 243.765C549.126 245.425 549.763 247.286 550.032 249.365C550.367 251.83 550.199 254.093 549.529 256.105C548.858 258.117 547.835 259.877 546.427 261.37C545.035 262.862 543.376 264.019 541.447 264.874L540.777 259.777C541.95 259.274 542.973 258.536 543.862 257.597C544.734 256.658 545.387 255.535 545.79 254.21C546.192 252.903 546.293 251.41 546.075 249.767C545.823 247.873 545.153 246.263 544.046 244.905C542.94 243.547 541.531 242.575 539.788 241.954C538.044 241.351 536.032 241.2 533.785 241.502C531.69 241.787 529.845 242.441 528.286 243.497C526.727 244.536 525.553 245.894 524.765 247.554C523.977 249.214 523.742 251.109 524.011 253.238C524.245 254.998 524.782 256.491 525.637 257.715C526.492 258.938 527.582 259.877 528.94 260.548C530.281 261.202 531.79 261.571 533.45 261.621L532.142 251.729L535.646 251.26L537.574 265.779C535.294 266.131 533.165 266.114 531.187 265.695C529.208 265.276 527.448 264.538 525.905 263.482C524.363 262.409 523.105 261.051 522.133 259.374C521.16 257.698 520.54 255.77 520.255 253.59L520.238 253.573Z" fill="#FDE9E9"/>
<path d="M526.677 293.946L523.056 294.013L522.754 275.067L525.084 275.033L535.094 284.255C536.67 285.697 538.095 286.87 539.369 287.759C540.643 288.647 542.035 289.083 543.544 289.067C544.516 289.067 545.371 288.815 546.126 288.362C546.88 287.91 547.484 287.273 547.903 286.434C548.322 285.596 548.54 284.64 548.524 283.5C548.507 282.36 548.272 281.388 547.819 280.549C547.367 279.711 546.73 279.057 545.891 278.605C545.07 278.152 544.097 277.934 543.007 277.951L542.94 273.96C544.734 273.96 546.327 274.379 547.702 275.235C549.077 276.09 550.167 277.23 550.938 278.688C551.709 280.147 552.111 281.807 552.145 283.685C552.179 285.613 551.826 287.289 551.106 288.731C550.385 290.173 549.395 291.28 548.188 292.068C546.964 292.856 545.623 293.258 544.148 293.275C542.806 293.292 541.566 293.057 540.409 292.554C539.269 292.051 538.128 291.364 537.022 290.475C535.915 289.586 534.725 288.564 533.467 287.373L526.493 281.203L526.694 293.962L526.677 293.946Z" fill="#FDE9E9"/>
<path d="M521.748 303.971C521.915 301.959 522.418 300.216 523.257 298.724C524.095 297.231 525.202 296.091 526.56 295.286C527.918 294.498 529.427 294.146 531.086 294.247L530.768 298.17C529.175 298.153 527.867 298.69 526.811 299.78C525.755 300.87 525.151 302.362 525 304.256C524.849 306.201 525.185 307.777 526.04 308.984C526.878 310.175 528.119 310.845 529.712 310.98C531.254 311.097 532.545 310.577 533.568 309.387C534.591 308.196 535.194 306.537 535.362 304.407L535.597 301.356L538.849 301.607L538.614 304.491C538.531 305.648 538.648 306.671 538.967 307.559C539.302 308.465 539.805 309.186 540.509 309.722C541.213 310.259 542.018 310.56 542.957 310.644C543.896 310.711 544.717 310.56 545.455 310.175C546.193 309.789 546.78 309.219 547.249 308.465C547.719 307.71 547.987 306.805 548.071 305.765C548.205 304.156 547.853 302.831 547.031 301.792C546.21 300.752 545.053 300.115 543.561 299.914L543.879 295.991C545.455 296.175 546.813 296.728 547.987 297.667C549.144 298.606 550.032 299.813 550.619 301.306C551.206 302.798 551.441 304.424 551.306 306.184C551.156 308.062 550.703 309.655 549.948 310.996C549.194 312.338 548.222 313.344 546.998 314.014C545.79 314.685 544.416 314.953 542.89 314.836C541.498 314.718 540.274 314.215 539.235 313.293C538.195 312.371 537.374 311.114 536.77 309.504C536.1 311.382 535.127 312.824 533.836 313.83C532.545 314.836 531.07 315.272 529.41 315.138C527.733 315.003 526.275 314.45 525.051 313.461C523.827 312.472 522.921 311.164 522.335 309.538C521.748 307.895 521.547 306.05 521.714 303.955L521.748 303.971Z" fill="#FDE9E9"/>
<path d="M529.292 331.469C528.387 331.318 527.716 330.898 527.246 330.228C526.777 329.557 526.626 328.769 526.777 327.881C526.928 327.009 527.347 326.338 528.018 325.852C528.688 325.366 529.476 325.215 530.365 325.366C531.287 325.533 531.991 325.952 532.444 326.623C532.913 327.31 533.064 328.082 532.913 328.954C532.763 329.859 532.343 330.53 531.673 330.999C531.002 331.469 530.214 331.619 529.292 331.452V331.469Z" fill="#FDE9E9"/>
<path d="M513.8 350.48L514.973 346.222L538.983 352.828L541.481 343.757L545.32 344.814L539.15 367.23L535.311 366.174L537.809 357.103L513.8 350.48Z" fill="#FDE9E9"/>
<path d="M505.081 375.915L530.7 376.015L511.251 359.266L512.811 355.074L536.049 375.495L534.355 380.056L503.455 380.307L505.098 375.898L505.081 375.915ZM520.523 365.167L515.845 377.776L512.073 377.658L517.69 362.535L520.523 365.184V365.167Z" fill="#FDE9E9"/>
<path d="M501.444 384.047L503.389 380.073L529.359 392.748L524.631 402.439C523.173 405.424 521.328 407.419 519.099 408.425C516.869 409.431 514.454 409.297 511.872 408.039C510.011 407.134 508.687 405.792 507.882 404.032C507.077 402.272 506.926 400.276 507.429 398.08L493.647 400.092L495.978 395.314L508.905 393.603L511.235 388.825L501.477 384.063L501.444 384.047ZM524.078 395.096L514.538 390.435L511.872 395.9C510.984 397.728 510.682 399.354 511 400.763C511.319 402.171 512.258 403.261 513.817 404.015C515.376 404.77 516.818 404.854 518.126 404.233C519.434 403.613 520.524 402.389 521.412 400.561L524.078 395.096Z" fill="#FDE9E9"/>
<path d="M483.303 416.757L508.418 421.838L492.591 401.634L494.921 397.828L513.75 422.374L511.201 426.515L480.838 420.748L483.303 416.741V416.757ZM500.538 409.213L493.496 420.664L489.808 419.826L498.258 406.077L500.521 409.229L500.538 409.213Z" fill="#FDE9E9"/>
<path d="M469.286 435.636L496.447 437.313L478.541 423.564L481.039 420.312L503.958 437.899L501.024 441.739L474.55 440.129L491.97 453.509L489.472 456.761L466.553 439.174L469.269 435.636H469.286Z" fill="#FDE9E9"/>
<path d="M456.091 449.418C457.533 447.909 459.159 446.769 460.936 445.998C462.714 445.227 464.558 444.824 466.452 444.791C468.347 444.757 470.225 445.092 472.069 445.83C473.913 446.568 475.624 447.691 477.216 449.217C478.759 450.709 479.932 452.335 480.754 454.113C481.559 455.89 482.011 457.717 482.095 459.612C482.179 461.49 481.877 463.334 481.19 465.145C480.502 466.939 479.446 468.599 477.988 470.108C476.261 471.902 474.4 473.176 472.404 473.93C470.409 474.685 468.397 474.953 466.352 474.802C464.323 474.634 462.378 474.064 460.517 473.092L464.088 469.37C465.212 469.973 466.419 470.326 467.71 470.426C469.001 470.527 470.275 470.326 471.549 469.823C472.824 469.32 474.047 468.465 475.204 467.274C476.529 465.899 477.367 464.357 477.736 462.663C478.105 460.953 477.988 459.226 477.367 457.499C476.747 455.756 475.624 454.096 473.98 452.52C472.455 451.044 470.795 450.038 469.001 449.468C467.207 448.898 465.413 448.831 463.636 449.25C461.858 449.67 460.215 450.659 458.723 452.218C457.499 453.492 456.678 454.85 456.242 456.275C455.823 457.701 455.772 459.159 456.091 460.618C456.409 462.077 457.08 463.485 458.069 464.809L464.977 457.617L467.525 460.065L457.382 470.627C455.672 469.068 454.381 467.391 453.459 465.581C452.553 463.77 452.034 461.942 451.899 460.065C451.765 458.187 452.05 456.359 452.754 454.549C453.459 452.755 454.565 451.061 456.091 449.468V449.418Z" fill="#FDE9E9"/>
<path d="M428.779 479.312L426.516 476.495L441.287 464.608L442.745 466.419L441.622 479.983C441.454 482.112 441.404 483.973 441.488 485.515C441.572 487.058 442.075 488.433 443.014 489.606C443.617 490.361 444.338 490.897 445.16 491.216C445.981 491.535 446.853 491.602 447.775 491.434C448.697 491.266 449.586 490.83 450.458 490.126C451.33 489.422 451.967 488.634 452.352 487.745C452.738 486.874 452.855 485.968 452.704 485.029C452.554 484.09 452.134 483.202 451.447 482.347L454.549 479.849C455.655 481.257 456.292 482.783 456.477 484.392C456.661 486.002 456.41 487.561 455.739 489.07C455.068 490.579 454.012 491.903 452.537 493.094C451.028 494.301 449.485 495.055 447.909 495.374C446.333 495.693 444.858 495.592 443.483 495.106C442.108 494.62 440.968 493.815 440.046 492.658C439.208 491.618 438.638 490.478 438.319 489.271C438.017 488.047 437.866 486.739 437.866 485.314C437.866 483.889 437.967 482.33 438.135 480.603L438.705 471.315L428.762 479.312H428.779Z" fill="#FDE9E9"/>
<path d="M417.696 481.995C419.373 480.871 421.049 480.167 422.743 479.899C424.436 479.63 426.012 479.781 427.488 480.351C428.946 480.921 430.153 481.877 431.109 483.252L427.84 485.448C426.867 484.191 425.626 483.487 424.118 483.353C422.609 483.218 421.066 483.654 419.49 484.727C417.864 485.817 416.841 487.075 416.439 488.483C416.036 489.891 416.271 491.266 417.176 492.591C418.048 493.882 419.255 494.552 420.831 494.619C422.391 494.686 424.067 494.116 425.844 492.909L428.376 491.199L430.204 493.898L427.806 495.525C426.85 496.162 426.129 496.9 425.626 497.721C425.123 498.543 424.889 499.398 424.889 500.27C424.889 501.158 425.174 501.98 425.694 502.768C426.213 503.539 426.867 504.092 427.622 504.428C428.376 504.763 429.198 504.864 430.086 504.763C430.975 504.646 431.847 504.31 432.702 503.723C434.043 502.818 434.865 501.728 435.166 500.437C435.468 499.146 435.25 497.855 434.479 496.564L437.748 494.368C438.587 495.709 439.006 497.134 438.989 498.627C438.989 500.119 438.57 501.561 437.782 502.952C436.994 504.344 435.854 505.534 434.395 506.523C432.836 507.58 431.293 508.217 429.784 508.468C428.276 508.72 426.867 508.569 425.593 508.049C424.319 507.529 423.246 506.624 422.391 505.35C421.603 504.193 421.25 502.919 421.318 501.527C421.385 500.136 421.871 498.71 422.743 497.235C420.865 497.889 419.121 498.023 417.528 497.637C415.936 497.252 414.678 496.363 413.756 494.988C412.817 493.58 412.348 492.105 412.348 490.528C412.348 488.952 412.817 487.427 413.739 485.951C414.661 484.476 415.986 483.151 417.713 481.978L417.696 481.995Z" fill="#FDE9E9"/>
<path d="M400.88 505.015C400.444 504.211 400.344 503.423 400.578 502.635C400.813 501.847 401.333 501.243 402.121 500.807C402.892 500.388 403.68 500.287 404.485 500.505C405.273 500.723 405.893 501.243 406.329 502.048C406.782 502.869 406.882 503.674 406.631 504.462C406.396 505.25 405.876 505.854 405.105 506.273C404.3 506.709 403.512 506.809 402.724 506.575C401.936 506.34 401.333 505.82 400.88 504.982V505.015Z" fill="#FDE9E9"/>
<path d="M376.385 504.729L380.459 502.985L390.251 525.888L398.902 522.182L400.461 525.837L379.068 534.975L377.508 531.303L386.16 527.598L376.368 504.695L376.385 504.729Z" fill="#FDE9E9"/>
<path d="M351.018 513.801L366.895 533.903L367.868 508.251L372.109 506.859L370.617 537.76L365.99 539.285L346.541 515.259L351.018 513.784V513.801ZM369.041 519.183L356.265 523.374L354.002 520.356L369.326 515.326L369.024 519.199L369.041 519.183Z" fill="#FDE9E9"/>
<path d="M342.433 515.997L346.759 515.041L353.03 543.242L342.5 545.589C339.248 546.31 336.548 546.109 334.369 544.986C332.189 543.862 330.798 541.901 330.177 539.101C329.725 537.089 329.943 535.211 330.831 533.467C331.703 531.724 333.162 530.382 335.207 529.41L325.047 519.87L330.228 518.713L339.617 527.75L344.797 526.593L342.433 515.98V515.997ZM347.899 540.593L345.602 530.215L339.667 531.539C337.672 531.975 336.23 532.763 335.325 533.886C334.419 535.01 334.151 536.418 334.537 538.128C334.922 539.822 335.744 540.995 337.051 541.632C338.359 542.27 339.986 542.353 341.981 541.918L347.916 540.593H347.899Z" fill="#FDE9E9"/>
<path d="M305.514 522.184L317.183 545.002L323.135 520.038L327.561 519.501L320.083 549.529L315.255 550.116L300.853 522.77L305.53 522.2L305.514 522.184ZM322.146 530.969L308.8 532.595L307.173 529.192L323.185 527.23L322.146 530.969Z" fill="#FDE9E9"/>
<path d="M281.991 522.988L297.617 545.287L297.198 522.72L301.306 522.653L301.825 551.541L296.997 551.625L281.756 529.929L282.159 551.893L278.051 551.96L277.531 523.072L281.991 522.988Z" fill="#FDE9E9"/>
<path d="M262.944 521.278C265.023 521.462 266.918 522.016 268.628 522.921C270.338 523.826 271.797 525.017 273.021 526.475C274.228 527.934 275.133 529.611 275.72 531.505C276.307 533.4 276.491 535.445 276.29 537.642C276.089 539.771 275.552 541.716 274.664 543.46C273.775 545.203 272.618 546.695 271.21 547.936C269.802 549.177 268.159 550.099 266.331 550.686C264.504 551.273 262.542 551.474 260.463 551.289C257.981 551.055 255.819 550.401 253.991 549.311C252.164 548.221 250.688 546.813 249.548 545.119C248.408 543.426 247.637 541.548 247.234 539.486L252.365 539.955C252.6 541.213 253.086 542.37 253.807 543.443C254.528 544.499 255.483 545.388 256.674 546.075C257.864 546.763 259.289 547.182 260.949 547.333C262.844 547.5 264.571 547.198 266.147 546.427C267.723 545.656 268.98 544.482 269.969 542.923C270.942 541.347 271.545 539.436 271.747 537.172C271.931 535.06 271.696 533.132 271.026 531.371C270.355 529.611 269.299 528.169 267.84 527.046C266.398 525.922 264.604 525.252 262.458 525.067C260.698 524.899 259.122 525.101 257.73 525.671C256.338 526.224 255.182 527.096 254.243 528.253C253.304 529.41 252.616 530.801 252.214 532.411L262.156 533.316L261.838 536.837L247.251 535.512C247.402 533.215 247.905 531.136 248.743 529.309C249.582 527.481 250.705 525.922 252.08 524.648C253.471 523.374 255.081 522.452 256.925 521.882C258.77 521.311 260.781 521.127 262.978 521.328L262.944 521.278Z" fill="#FDE9E9"/>
<path d="M222.622 518.595L223.41 515.058L241.903 519.199L241.4 521.479L230.1 529.057C228.323 530.248 226.847 531.371 225.69 532.394C224.533 533.433 223.779 534.674 223.444 536.133C223.226 537.072 223.259 537.96 223.527 538.815C223.796 539.654 224.282 540.391 224.986 540.995C225.69 541.599 226.596 542.034 227.685 542.286C228.792 542.537 229.798 542.537 230.72 542.286C231.642 542.034 232.414 541.565 233.051 540.878C233.688 540.19 234.124 539.302 234.358 538.229L238.248 539.1C237.829 540.844 237.041 542.303 235.901 543.443C234.744 544.583 233.386 545.371 231.793 545.773C230.2 546.192 228.49 546.192 226.663 545.773C224.785 545.354 223.226 544.616 222.002 543.577C220.778 542.537 219.923 541.33 219.453 539.955C218.984 538.581 218.9 537.172 219.219 535.747C219.504 534.439 220.04 533.283 220.795 532.293C221.549 531.304 222.488 530.348 223.611 529.477C224.735 528.605 226.009 527.683 227.451 526.744L235.079 521.395L222.639 518.612L222.622 518.595Z" fill="#FDE9E9"/>
<path d="M213.635 511.587C215.547 512.191 217.139 513.079 218.414 514.236C219.671 515.393 220.543 516.718 221.012 518.227C221.482 519.735 221.482 521.278 221.012 522.871L217.257 521.68C217.626 520.138 217.408 518.73 216.586 517.455C215.765 516.181 214.44 515.259 212.629 514.689C210.768 514.102 209.142 514.085 207.801 514.639C206.459 515.192 205.52 516.248 205.034 517.774C204.565 519.249 204.799 520.624 205.722 521.898C206.644 523.156 208.136 524.111 210.181 524.765L213.099 525.688L212.126 528.789L209.36 527.917C208.253 527.565 207.231 527.465 206.275 527.582C205.319 527.699 204.498 528.052 203.827 528.605C203.156 529.158 202.653 529.896 202.385 530.784C202.1 531.673 202.067 532.528 202.285 533.333C202.502 534.138 202.922 534.842 203.559 535.462C204.196 536.083 205.017 536.552 206.007 536.871C207.549 537.357 208.907 537.323 210.114 536.753C211.321 536.183 212.193 535.211 212.713 533.802L216.469 534.993C215.949 536.485 215.094 537.692 213.903 538.614C212.73 539.536 211.355 540.123 209.762 540.375C208.186 540.626 206.543 540.475 204.85 539.939C203.056 539.369 201.597 538.581 200.457 537.541C199.317 536.502 198.562 535.328 198.177 533.987C197.791 532.662 197.841 531.271 198.294 529.812C198.713 528.487 199.485 527.414 200.608 526.593C201.731 525.788 203.156 525.268 204.85 525.034C203.156 523.961 201.983 522.686 201.295 521.211C200.608 519.735 200.524 518.193 201.01 516.6C201.513 514.991 202.385 513.7 203.626 512.727C204.867 511.755 206.342 511.168 208.069 510.967C209.796 510.766 211.657 510.967 213.652 511.604L213.635 511.587Z" fill="#FDE9E9"/>
<path d="M185.166 512.777C185.518 511.939 186.072 511.369 186.843 511.067C187.614 510.765 188.402 510.782 189.24 511.134C190.062 511.486 190.615 512.039 190.934 512.794C191.252 513.548 191.236 514.353 190.883 515.191C190.515 516.063 189.945 516.633 189.173 516.935C188.402 517.237 187.614 517.22 186.793 516.868C185.954 516.516 185.384 515.963 185.066 515.191C184.764 514.437 184.797 513.632 185.149 512.76L185.166 512.777Z" fill="#FDE9E9"/>
<path d="M170.161 493.412L174.05 495.508L162.213 517.421L170.496 521.897L168.601 525.402L148.13 514.353L150.024 510.849L158.307 515.325L170.144 493.412H170.161Z" fill="#FDE9E9"/>
<path d="M147.258 479.178L141.406 504.126L162.079 488.919L165.818 491.367L140.702 509.441L136.628 506.775L143.318 476.596L147.258 479.178ZM154.266 496.649L143.033 489.272L143.988 485.616L157.468 494.486L154.249 496.665L154.266 496.649Z" fill="#FDE9E9"/>
<path d="M140.133 473.796L143.57 476.579L125.429 499.062L117.045 492.289C114.463 490.193 112.921 487.963 112.452 485.549C111.982 483.151 112.636 480.838 114.447 478.591C115.738 476.981 117.347 475.975 119.242 475.59C121.153 475.187 123.115 475.489 125.144 476.478L126.267 462.596L130.391 465.932L129.167 478.909L133.292 482.246L140.116 473.796H140.133ZM124.305 493.395L130.978 485.13L126.25 481.307C124.657 480.033 123.148 479.379 121.706 479.379C120.265 479.379 118.99 480.05 117.901 481.408C116.811 482.766 116.408 484.141 116.727 485.549C117.045 486.957 117.984 488.299 119.577 489.573L124.305 493.395Z" fill="#FDE9E9"/>
<path d="M112.267 448.798L101.721 472.153L124.942 461.222L128.128 464.34L99.994 477.234L96.5234 473.83L108.897 445.512L112.267 448.815V448.798ZM115.788 467.291L106.181 457.885L107.824 454.482L119.342 465.782L115.771 467.291H115.788Z" fill="#FDE9E9"/>
<path d="M96.9593 430.925L89.2804 457.047L106.667 442.645L109.282 445.797L87.0337 464.223L83.9488 460.501L91.393 435.05L74.4759 449.066L71.8604 445.914L94.1091 427.488L96.9593 430.925Z" fill="#FDE9E9"/>
<path d="M86.4632 414.998C87.62 416.741 88.3577 418.569 88.7098 420.48C89.0619 422.391 89.0452 424.269 88.6595 426.13C88.2739 427.991 87.5194 429.735 86.3961 431.378C85.2728 433.021 83.7973 434.446 81.9531 435.653C80.1591 436.827 78.3148 437.615 76.4035 438.001C74.4921 438.386 72.6143 438.42 70.7533 438.085C68.8922 437.749 67.1653 437.045 65.5725 435.989C63.9797 434.916 62.6049 433.507 61.448 431.764C60.0732 429.685 59.2517 427.589 58.9666 425.476C58.6816 423.364 58.8493 421.335 59.4696 419.39C60.09 417.445 61.0792 415.668 62.4205 414.075L65.2539 418.384C64.4156 419.357 63.8121 420.447 63.4264 421.687C63.0408 422.928 62.957 424.202 63.1582 425.577C63.3594 426.952 63.9126 428.31 64.8348 429.701C65.8743 431.294 67.1988 432.468 68.7748 433.206C70.3509 433.943 72.061 434.212 73.9053 434.01C75.7328 433.792 77.6106 433.071 79.522 431.814C81.2992 430.657 82.6572 429.249 83.6129 427.639C84.5686 426.013 85.038 424.286 85.0213 422.458C85.0045 420.631 84.4009 418.803 83.2273 417.009C82.2549 415.534 81.1148 414.427 79.8238 413.69C78.516 412.952 77.1244 412.583 75.6322 412.566C74.14 412.55 72.6311 412.885 71.1053 413.556L76.5879 421.888L73.637 423.833L65.5893 411.594C67.4838 410.286 69.412 409.381 71.3736 408.895C73.3352 408.408 75.2466 408.308 77.1076 408.593C78.9687 408.878 80.6956 409.565 82.2884 410.655C83.8812 411.745 85.2895 413.204 86.4967 415.048L86.4632 414.998Z" fill="#FDE9E9"/>
<path d="M63.4265 381.767L66.6791 380.191L74.9616 397.242L72.8659 398.265L59.9056 394.141C57.8601 393.487 56.0661 393.034 54.5404 392.766C53.0147 392.497 51.5728 392.699 50.2147 393.353C49.3429 393.772 48.6722 394.358 48.1693 395.079C47.683 395.817 47.4148 396.639 47.3645 397.578C47.331 398.5 47.5489 399.472 48.0351 400.495C48.5214 401.518 49.1585 402.306 49.9297 402.859C50.701 403.429 51.556 403.748 52.4949 403.798C53.4338 403.865 54.4063 403.664 55.3955 403.177L57.1392 406.765C55.5129 407.537 53.8865 407.822 52.277 407.637C50.6674 407.453 49.2088 406.866 47.8842 405.877C46.5765 404.888 45.5034 403.546 44.6819 401.87C43.8436 400.126 43.4412 398.466 43.4915 396.857C43.5418 395.247 43.961 393.839 44.7322 392.598C45.5034 391.374 46.5597 390.435 47.8842 389.798C49.0914 389.211 50.3153 388.909 51.5728 388.876C52.8303 388.842 54.138 388.993 55.5296 389.329C56.9212 389.664 58.4134 390.1 60.0565 390.636L68.9929 393.269L63.4097 381.801L63.4265 381.767Z" fill="#FDE9E9"/>
<path d="M63.3095 370.366C64.0304 372.244 64.3322 374.038 64.2148 375.748C64.0975 377.458 63.5945 378.967 62.7227 380.275C61.8508 381.583 60.6269 382.538 59.0844 383.159L57.676 379.47C59.1179 378.799 60.0736 377.743 60.5598 376.318C61.046 374.893 60.9454 373.283 60.258 371.489C59.5538 369.662 58.5646 368.388 57.2904 367.683C56.0162 366.962 54.6246 366.895 53.1156 367.482C51.657 368.035 50.7348 369.075 50.3157 370.584C49.8965 372.093 50.0809 373.853 50.8522 375.849L51.942 378.699L48.9073 379.872L47.8678 377.173C47.4487 376.1 46.8954 375.228 46.208 374.558C45.5205 373.887 44.7493 373.468 43.8775 373.283C43.0224 373.099 42.1505 373.166 41.2619 373.501C40.3901 373.837 39.7027 374.34 39.2165 374.993C38.7302 375.664 38.4285 376.435 38.3446 377.307C38.2608 378.179 38.3949 379.118 38.7638 380.09C39.3338 381.599 40.2224 382.639 41.4128 383.226C42.6032 383.812 43.911 383.88 45.3361 383.41L46.7445 387.099C45.2523 387.618 43.7769 387.702 42.3182 387.35C40.8595 386.998 39.5518 386.294 38.3614 385.204C37.1878 384.114 36.2824 382.756 35.6453 381.096C34.9746 379.353 34.6896 377.693 34.7902 376.167C34.8908 374.641 35.3435 373.3 36.1482 372.177C36.953 371.053 38.0596 370.215 39.5015 369.662C40.8092 369.159 42.117 369.092 43.4583 369.477C44.7996 369.863 46.0738 370.634 47.3145 371.825C47.0966 369.846 47.3481 368.119 48.0858 366.661C48.8235 365.202 49.9636 364.179 51.5061 363.576C53.0821 362.972 54.6414 362.838 56.1671 363.207C57.6928 363.559 59.0844 364.364 60.3083 365.588C61.5323 366.812 62.5382 368.404 63.2759 370.349L63.3095 370.366Z" fill="#FDE9E9"/>
<path d="M44.6493 348.838C45.5211 348.587 46.3259 348.67 47.0301 349.073C47.7343 349.475 48.2205 350.112 48.4552 350.984C48.6899 351.839 48.6061 352.627 48.2205 353.348C47.8349 354.069 47.181 354.555 46.3091 354.807C45.4038 355.058 44.599 354.975 43.878 354.572C43.1571 354.17 42.6876 353.533 42.4529 352.678C42.2014 351.806 42.2852 351.001 42.6876 350.297C43.09 349.593 43.7439 349.106 44.6493 348.855V348.838Z" fill="#FDE9E9"/>
<path d="M50.4498 325.063L51.2378 329.422L26.7256 333.815L28.3855 343.087L24.4622 343.791L20.3545 320.905L24.2778 320.201L25.9376 329.472L50.4498 325.08V325.063Z" fill="#FDE9E9"/>
<path d="M47.3148 298.287L24.1607 309.253L48.9411 315.959L49.3435 320.402L19.5668 312.019L19.1309 307.174L46.8957 293.61L47.3148 298.304V298.287ZM38.0264 314.651L36.8024 301.272L40.2563 299.746L41.7317 315.808L38.0264 314.651Z" fill="#FDE9E9"/>
<path d="M47.0128 289.753L46.9458 294.18L18.0576 293.71L18.2253 282.93C18.2756 279.61 19.1139 277.011 20.7067 275.167C22.2995 273.323 24.5461 272.417 27.4131 272.451C29.4754 272.484 31.2526 273.138 32.728 274.396C34.2035 275.653 35.1927 277.38 35.6621 279.593L47.2978 271.931L47.214 277.246L36.2322 284.271L36.1483 289.586L47.0128 289.77V289.753ZM21.83 289.351L32.443 289.519L32.5436 283.449C32.5771 281.404 32.158 279.828 31.2694 278.688C30.3808 277.548 29.073 276.961 27.3293 276.927C25.5856 276.894 24.2611 277.447 23.339 278.554C22.4168 279.66 21.9474 281.236 21.9138 283.282L21.8132 289.351H21.83Z" fill="#FDE9E9"/>
<path d="M49.226 251.896L24.3953 258.233L47.432 269.55L46.9793 273.993L19.3486 260.061L19.8349 255.215L49.6954 247.218L49.226 251.896ZM36.9699 266.18L38.328 252.818L42.0165 251.979L40.3902 268.025L36.9699 266.18Z" fill="#FDE9E9"/>
<path d="M53.6523 228.826L28.4528 239.104L50.5506 243.714L49.7123 247.738L21.4277 241.837L22.4169 237.108L46.9626 227.066L25.4516 222.572L26.2899 218.548L54.5745 224.45L53.6691 228.826H53.6523Z" fill="#FDE9E9"/>
<path d="M59.554 210.751C58.9001 212.747 57.9445 214.457 56.6702 215.915C55.396 217.374 53.9206 218.531 52.2272 219.386C50.5338 220.241 48.7063 220.744 46.7111 220.878C44.7327 221.012 42.6872 220.744 40.6082 220.057C38.5628 219.386 36.8023 218.43 35.3101 217.173C33.8179 215.915 32.6275 214.457 31.7222 212.797C30.8168 211.137 30.297 209.343 30.1461 207.432C29.9785 205.52 30.23 203.559 30.8838 201.58C31.6551 199.216 32.7952 197.255 34.2706 195.729C35.746 194.203 37.4394 193.063 39.3508 192.342C41.2621 191.604 43.2573 191.286 45.3531 191.353L43.7435 196.249C42.4693 196.198 41.2286 196.4 40.0214 196.869C38.831 197.338 37.758 198.076 36.8191 199.082C35.8802 200.088 35.1592 201.379 34.6395 202.955C34.0527 204.766 33.9521 206.526 34.3544 208.22C34.7568 209.913 35.6119 211.422 36.9197 212.73C38.2274 214.038 39.9711 215.044 42.134 215.748C44.1459 216.402 46.0908 216.603 47.9518 216.351C49.8129 216.083 51.456 215.379 52.8811 214.222C54.3062 213.065 55.3457 211.472 56.0164 209.427C56.5696 207.75 56.7205 206.157 56.4858 204.682C56.2511 203.207 55.6643 201.882 54.7421 200.708C53.82 199.535 52.6128 198.562 51.1542 197.791L48.0357 207.281L44.6657 206.174L49.2428 192.258C51.456 192.929 53.3505 193.885 54.9601 195.109C56.5696 196.332 57.8271 197.774 58.766 199.401C59.7049 201.027 60.2414 202.821 60.3756 204.732C60.5265 206.66 60.2414 208.672 59.554 210.751Z" fill="#FDE9E9"/>
<path d="M71.2398 172.072L74.5092 173.631L66.3273 190.716L64.2148 189.71L59.3693 177.001C58.5981 175.006 57.8436 173.313 57.1059 171.938C56.3682 170.563 55.3119 169.557 53.9538 168.92C53.082 168.501 52.2102 168.333 51.3216 168.4C50.433 168.467 49.6282 168.769 48.8737 169.322C48.1192 169.876 47.4989 170.647 47.0126 171.67C46.5264 172.692 46.2917 173.665 46.3252 174.62C46.3588 175.576 46.6438 176.431 47.1803 177.219C47.7168 177.99 48.4713 178.628 49.4773 179.097L47.7504 182.685C46.1408 181.88 44.9001 180.79 44.045 179.416C43.19 178.041 42.7373 176.532 42.687 174.889C42.6367 173.246 43.0223 171.569 43.8438 169.876C44.6821 168.132 45.7384 166.791 47.0294 165.818C48.3204 164.863 49.6952 164.309 51.1371 164.142C52.579 163.991 53.9706 164.225 55.2951 164.863C56.5023 165.449 57.5083 166.221 58.3131 167.176C59.1178 168.132 59.822 169.272 60.4256 170.546C61.0292 171.837 61.6328 173.279 62.2196 174.905L65.7069 183.54L71.223 172.038L71.2398 172.072Z" fill="#FDE9E9"/>
<path d="M80.0928 164.864C79.0701 166.591 77.8629 167.949 76.4378 168.921C75.0294 169.893 73.5372 170.447 71.9612 170.564C70.4019 170.681 68.893 170.329 67.4511 169.508L69.4463 166.104C70.8714 166.808 72.2798 166.909 73.7049 166.389C75.13 165.87 76.3204 164.797 77.2928 163.153C78.282 161.46 78.6677 159.901 78.4329 158.459C78.1982 157.017 77.3767 155.877 76.0019 155.055C74.6606 154.267 73.269 154.184 71.8271 154.804C70.3852 155.424 69.1277 156.648 68.0379 158.509L66.4787 161.142L63.6787 159.482L65.1541 156.984C65.7409 155.994 66.0763 155.022 66.1769 154.066C66.2775 153.111 66.1266 152.239 65.7409 151.451C65.3553 150.663 64.7517 150.026 63.947 149.556C63.1422 149.087 62.3206 148.852 61.4991 148.885C60.6776 148.919 59.8895 149.17 59.1351 149.64C58.3806 150.109 57.7435 150.814 57.2237 151.702C56.4022 153.094 56.1339 154.435 56.4189 155.726C56.704 157.034 57.4584 158.09 58.7159 158.928L56.7207 162.332C55.3794 161.477 54.407 160.387 53.7699 159.029C53.1328 157.671 52.8813 156.195 52.9986 154.603C53.116 153.01 53.619 151.451 54.5244 149.925C55.48 148.315 56.5866 147.058 57.8441 146.186C59.1015 145.314 60.4261 144.845 61.8177 144.761C63.2092 144.677 64.5505 145.046 65.8751 145.817C67.0822 146.521 67.9541 147.527 68.4906 148.802C69.0271 150.076 69.2115 151.585 69.0439 153.278C70.469 151.87 71.978 150.998 73.5708 150.663C75.1635 150.327 76.6893 150.579 78.1144 151.434C79.573 152.289 80.6293 153.429 81.3 154.854C81.9706 156.279 82.2053 157.855 82.0209 159.582C81.8365 161.309 81.1994 163.07 80.1431 164.88L80.0928 164.864Z" fill="#FDE9E9"/>
<path d="M85.3232 136.846C86.0609 137.383 86.4968 138.054 86.6309 138.858C86.7651 139.663 86.5639 140.434 86.0274 141.172C85.5076 141.893 84.837 142.312 84.0322 142.463C83.2106 142.597 82.4394 142.413 81.7017 141.876C80.9472 141.323 80.4945 140.636 80.3772 139.831C80.2598 139.009 80.461 138.255 80.9807 137.534C81.5173 136.796 82.1879 136.36 82.9927 136.226C83.7975 136.092 84.5855 136.31 85.34 136.863L85.3232 136.846Z" fill="#FDE9E9"/>
<path d="M107.572 126.518L104.655 129.838L85.9273 113.407L79.7238 120.482L76.7227 117.85L92.0637 100.363L95.0649 102.995L88.8614 110.071L107.589 126.501L107.572 126.518Z" fill="#FDE9E9"/>
<path d="M126.518 107.371L103.498 96.1209L113.725 119.661L110.506 122.746L98.4678 94.243L101.972 90.873L129.904 104.102L126.501 107.371H126.518ZM107.924 110.322L117.615 101.017L120.968 102.76L109.332 113.943L107.924 110.322Z" fill="#FDE9E9"/>
<path d="M133.392 101.571L129.922 104.304L112.032 81.6192L120.499 74.9463C123.115 72.884 125.646 71.8948 128.094 71.9619C130.542 72.0289 132.655 73.1858 134.432 75.4492C135.706 77.0756 136.326 78.8528 136.293 80.7977C136.259 82.7425 135.522 84.5868 134.113 86.364L147.392 90.5388L143.217 93.825L130.844 89.7508L126.669 93.037L133.392 101.571ZM117.8 81.7869L124.372 90.1364L129.151 86.3808C130.743 85.1233 131.716 83.782 132.051 82.3904C132.386 80.9821 132.001 79.6073 130.928 78.2324C129.855 76.8576 128.58 76.1702 127.155 76.1702C125.73 76.1702 124.188 76.7905 122.595 78.048L117.817 81.8036L117.8 81.7869Z" fill="#FDE9E9"/>
<path d="M163.957 79.9586L143.536 64.4834L149.019 89.5656L145.263 91.9799L138.959 61.6834L143.05 59.0511L167.914 77.4269L163.957 79.9753V79.9586ZM145.146 79.2712L156.446 72.0114L159.397 74.3754L145.816 83.0939L145.129 79.2712H145.146Z" fill="#FDE9E9"/>
<path d="M184.78 69.0439L161.039 55.7316L171.2 75.8845L167.528 77.7288L154.534 51.9256L158.843 49.746L181.997 62.6895L172.105 43.0731L175.777 41.2288L188.771 67.032L184.78 69.0439Z" fill="#FDE9E9"/>
<path d="M202.569 62.4054C200.607 63.1263 198.662 63.4616 196.718 63.3778C194.789 63.294 192.962 62.858 191.235 62.07C189.508 61.282 187.982 60.1587 186.624 58.7C185.283 57.2414 184.227 55.4809 183.456 53.4187C182.701 51.4067 182.366 49.4283 182.416 47.4835C182.466 45.5386 182.852 43.6943 183.606 41.9506C184.361 40.2069 185.417 38.6812 186.826 37.3734C188.217 36.0489 189.911 35.0262 191.872 34.3052C194.203 33.4334 196.433 33.0981 198.562 33.2993C200.691 33.5005 202.619 34.1208 204.38 35.1603C206.14 36.1998 207.649 37.5579 208.89 39.2345L204.061 41.0285C203.307 39.989 202.368 39.1507 201.261 38.5135C200.155 37.8764 198.914 37.4908 197.539 37.3902C196.164 37.2896 194.706 37.5243 193.146 38.0944C191.352 38.765 189.927 39.771 188.854 41.1458C187.781 42.5207 187.127 44.1302 186.926 45.9577C186.725 47.802 187.01 49.7804 187.815 51.9265C188.552 53.9049 189.609 55.548 190.967 56.8558C192.342 58.1467 193.918 59.0018 195.712 59.3874C197.506 59.7898 199.4 59.6054 201.412 58.8509C203.072 58.2306 204.413 57.3755 205.419 56.2689C206.425 55.1624 207.096 53.8881 207.448 52.4295C207.8 50.9708 207.8 49.4283 207.481 47.802L198.126 51.2726L196.885 47.9529L210.617 42.856C211.472 45.0021 211.908 47.0811 211.941 49.093C211.975 51.1217 211.64 52.9995 210.952 54.7432C210.248 56.4869 209.208 58.0126 207.783 59.3371C206.375 60.6449 204.631 61.6844 202.569 62.4557V62.4054Z" fill="#FDE9E9"/>
<path d="M240.143 47.4485L240.948 50.9694L222.471 55.2112L221.952 52.931L228.893 41.2282C229.983 39.384 230.838 37.7409 231.441 36.3157C232.045 34.8906 232.179 33.432 231.844 31.9733C231.626 31.0344 231.223 30.2296 230.62 29.5925C230.016 28.9386 229.262 28.5027 228.373 28.2512C227.484 27.9997 226.478 27.9997 225.389 28.2512C224.299 28.5027 223.377 28.9386 222.656 29.559C221.935 30.1793 221.432 30.9338 221.164 31.8392C220.895 32.7445 220.878 33.7338 221.113 34.8068L217.223 35.6954C216.855 33.9349 216.938 32.2919 217.475 30.7661C218.011 29.2404 218.917 27.9494 220.174 26.8932C221.432 25.8369 222.974 25.0992 224.802 24.68C226.68 24.2441 228.406 24.2441 229.949 24.6465C231.491 25.0489 232.799 25.7866 233.805 26.8093C234.828 27.8488 235.499 29.0728 235.834 30.5146C236.136 31.8224 236.152 33.0966 235.901 34.3206C235.649 35.5445 235.197 36.802 234.576 38.0762C233.956 39.3504 233.185 40.7253 232.279 42.2007L227.702 50.3155L240.143 47.4653V47.4485Z" fill="#FDE9E9"/>
<path d="M251.258 49.8804C249.263 50.1654 247.452 50.048 245.809 49.545C244.166 49.0421 242.808 48.2205 241.735 47.0636C240.662 45.9068 240.008 44.5152 239.74 42.8721L243.646 42.3188C243.982 43.8781 244.786 45.0349 246.077 45.8397C247.368 46.6277 248.961 46.896 250.839 46.6277C252.784 46.3595 254.243 45.6721 255.232 44.5823C256.221 43.4924 256.59 42.1512 256.372 40.5584C256.154 39.0159 255.349 37.8758 253.974 37.1381C252.6 36.4004 250.839 36.1824 248.727 36.4842L245.692 36.9033L245.239 33.6842L248.106 33.2818C249.246 33.1142 250.219 32.7789 251.023 32.2591C251.828 31.7394 252.415 31.0855 252.801 30.2807C253.17 29.4759 253.304 28.6208 253.17 27.6819C253.035 26.7598 252.7 25.9718 252.164 25.3514C251.627 24.7143 250.94 24.2616 250.101 23.9766C249.263 23.6916 248.324 23.6245 247.285 23.7586C245.692 23.9766 244.468 24.6137 243.63 25.6365C242.791 26.6592 242.422 27.9334 242.557 29.4256L238.65 29.9789C238.482 28.4029 238.734 26.9442 239.388 25.6029C240.042 24.2616 241.048 23.1383 242.372 22.2329C243.697 21.3276 245.239 20.7575 246.983 20.506C248.844 20.2377 250.504 20.3383 251.979 20.7743C253.455 21.2102 254.645 21.9647 255.567 22.9874C256.489 24.0269 257.059 25.3011 257.261 26.8101C257.462 28.1849 257.227 29.4927 256.556 30.7166C255.886 31.9405 254.829 33.0136 253.388 33.9525C255.366 34.1872 256.992 34.8243 258.25 35.8638C259.507 36.9033 260.245 38.2446 260.48 39.9045C260.714 41.5811 260.48 43.1236 259.792 44.5319C259.105 45.9403 258.015 47.1139 256.556 48.0361C255.081 48.9582 253.32 49.5786 251.241 49.8636L251.258 49.8804Z" fill="#FDE9E9"/>
<path d="M276.475 36.5351C276.508 37.4404 276.257 38.2117 275.72 38.7985C275.167 39.4021 274.446 39.7206 273.524 39.7709C272.635 39.8045 271.898 39.553 271.277 38.9997C270.657 38.4464 270.338 37.7255 270.288 36.8033C270.238 35.8644 270.506 35.0932 271.076 34.4896C271.629 33.886 272.367 33.5674 273.239 33.5172C274.144 33.4669 274.899 33.7351 275.502 34.2716C276.106 34.8249 276.425 35.5626 276.475 36.5015V36.5351Z" fill="#FDE9E9"/>
</svg>
