<svg width="570" height="570" viewBox="0 0 570 570" fill="none" xmlns="http://www.w3.org/2000/svg">
<g clip-path="url(#clip0_3156_1702)">
<circle cx="284.515" cy="284.5" r="220.5" fill="#6421F4"/>
<path d="M285.007 568.5C128.67 568.5 1.49902 441.329 1.49902 285.008C1.49902 128.687 128.67 1.5 285.007 1.5C441.345 1.5 568.516 128.671 568.516 285.008C568.516 441.346 441.345 568.5 285.007 568.5ZM285.007 67.1911C164.904 67.1911 67.2068 164.905 67.2068 284.992C67.2068 405.078 164.921 502.792 285.007 502.792C405.094 502.792 502.808 405.078 502.808 284.992C502.808 164.905 405.094 67.1911 285.007 67.1911Z" fill="#ED5F8A" stroke="black" stroke-width="3"/>
<path d="M297.666 47.4315L293.24 47.2471L294.313 22.3661L284.907 21.9637L285.075 17.9901L308.313 18.9961L308.145 22.9697L298.739 22.5673L297.666 47.4483V47.4315Z" fill="#FDE9E9"/>
<path d="M326.001 50.4494L320.502 25.4175L308.414 48.0519L303.987 47.4483L318.842 20.3038L323.671 20.9577L330.662 51.0698L326.001 50.4327V50.4494ZM312.136 37.7239L325.448 39.5346L326.169 43.24L310.174 41.0771L312.136 37.7239Z" fill="#FDE9E9"/>
<path d="M336.229 52.562L331.937 51.5057L338.794 23.4391L349.273 26.0043C352.509 26.7923 354.839 28.1672 356.298 30.1456C357.756 32.124 358.125 34.488 357.455 37.288C356.968 39.2999 355.946 40.8759 354.386 42.0496C352.827 43.2232 350.916 43.7932 348.669 43.7597L353.565 56.8038L348.401 55.5463L343.991 43.2735L338.827 42.016L336.245 52.562H336.229ZM342.214 28.1001L339.683 38.4113L345.584 39.8532C347.563 40.3394 349.206 40.2723 350.513 39.6688C351.821 39.0652 352.676 37.9083 353.095 36.2149C353.515 34.5215 353.28 33.1132 352.391 31.9563C351.503 30.8162 350.078 29.9947 348.099 29.5252L342.197 28.0833L342.214 28.1001Z" fill="#FDE9E9"/>
<path d="M373.432 63.896L373.247 38.2773L356.733 57.9272L352.524 56.4183L372.677 32.9456L377.255 34.5887L377.858 65.4888L373.432 63.896ZM362.5 48.5717L375.159 53.0986L375.092 56.871L359.902 51.4387L362.517 48.5717H362.5Z" fill="#FDE9E9"/>
<path d="M396.1 74.4418L392.361 47.4818L382.436 67.7521L378.747 65.9414L391.439 39.9873L395.782 42.1166L399.453 68.3725L409.111 48.6387L412.799 50.4494L400.107 76.4035L396.1 74.4418Z" fill="#FDE9E9"/>
<path d="M413.437 85.4405C411.676 84.3004 410.251 82.9424 409.161 81.3496C408.071 79.7568 407.317 78.0299 406.915 76.1688C406.512 74.3078 406.495 72.4132 406.864 70.4683C407.233 68.5234 408.004 66.6121 409.195 64.7678C410.352 62.9571 411.726 61.4984 413.319 60.3583C414.912 59.235 416.622 58.447 418.45 57.9943C420.277 57.5416 422.155 57.4913 424.05 57.8099C425.944 58.1452 427.772 58.8661 429.532 60.0062C431.628 61.3643 433.237 62.9403 434.344 64.7511C435.451 66.5618 436.121 68.4899 436.356 70.5186C436.591 72.5473 436.406 74.5593 435.803 76.5712L431.477 73.788C431.846 72.5641 431.963 71.3066 431.812 70.0324C431.661 68.7582 431.226 67.5342 430.488 66.3774C429.75 65.2205 428.677 64.181 427.285 63.2924C425.676 62.2529 424.016 61.7331 422.272 61.6828C420.529 61.6493 418.852 62.0852 417.259 63.0241C415.666 63.963 414.258 65.3882 413.017 67.2995C411.877 69.0767 411.19 70.9042 410.972 72.7821C410.754 74.6599 411.022 76.4203 411.793 78.0969C412.548 79.7736 413.839 81.1819 415.633 82.3388C417.125 83.2945 418.601 83.8477 420.093 83.9986C421.585 84.1495 423.01 83.9148 424.385 83.3112C425.76 82.7076 427 81.8023 428.107 80.5616L419.724 75.1629L421.635 72.1785L433.942 80.1089C432.734 82.0705 431.343 83.6801 429.75 84.9208C428.157 86.1615 426.447 87.0166 424.636 87.5195C422.826 88.0058 420.965 88.0728 419.07 87.7375C417.175 87.3854 415.298 86.6309 413.453 85.4238L413.437 85.4405Z" fill="#FDE9E9"/>
<path d="M450.255 108.611L447.891 111.344L433.556 98.9371L435.081 97.1767L448.628 95.8521C450.758 95.6342 452.585 95.3659 454.094 94.9971C455.603 94.645 456.861 93.8905 457.85 92.7672C458.487 92.0295 458.873 91.2415 459.04 90.3696C459.208 89.4978 459.124 88.6259 458.789 87.7708C458.453 86.899 457.867 86.0942 457.012 85.3565C456.156 84.6188 455.268 84.1494 454.346 83.9314C453.424 83.7134 452.501 83.7637 451.613 84.0655C450.724 84.3841 449.919 84.9541 449.199 85.7757L446.181 83.1601C447.371 81.8189 448.746 80.9135 450.305 80.444C451.864 79.9746 453.44 79.941 455.033 80.3267C456.626 80.7123 458.135 81.5171 459.56 82.7578C461.019 84.0152 462.041 85.4068 462.628 86.899C463.215 88.3912 463.383 89.8666 463.165 91.2918C462.93 92.7169 462.343 94.0079 461.371 95.1144C460.499 96.1204 459.476 96.8917 458.336 97.4114C457.196 97.9312 455.922 98.3168 454.53 98.5515C453.139 98.803 451.563 98.9874 449.852 99.1383L440.597 100.228L450.238 108.578L450.255 108.611Z" fill="#FDE9E9"/>
<path d="M455.973 120.163C454.582 118.721 453.592 117.179 453.039 115.552C452.486 113.926 452.352 112.35 452.654 110.808C452.955 109.265 453.693 107.907 454.883 106.733L457.616 109.567C456.543 110.741 456.074 112.082 456.191 113.591C456.309 115.1 457.029 116.542 458.337 117.916C459.695 119.325 461.104 120.113 462.562 120.28C464.021 120.448 465.329 119.962 466.486 118.855C467.609 117.782 468.062 116.458 467.86 114.915C467.659 113.373 466.804 111.814 465.312 110.271L463.199 108.075L465.547 105.811L467.559 107.89C468.363 108.729 469.202 109.315 470.107 109.667C470.996 110.02 471.884 110.103 472.756 109.952C473.628 109.802 474.399 109.382 475.07 108.729C475.741 108.075 476.176 107.354 476.378 106.549C476.579 105.744 476.545 104.923 476.277 104.068C476.026 103.212 475.523 102.424 474.802 101.67C473.678 100.513 472.471 99.8928 471.13 99.8089C469.805 99.7251 468.565 100.178 467.425 101.167L464.692 98.3335C465.865 97.2773 467.19 96.6234 468.665 96.3719C470.141 96.1204 471.633 96.2713 473.142 96.8078C474.651 97.3443 476.009 98.2497 477.249 99.5239C478.557 100.882 479.463 102.274 479.966 103.732C480.469 105.191 480.569 106.582 480.267 107.941C479.966 109.299 479.261 110.489 478.172 111.562C477.166 112.534 475.975 113.105 474.6 113.272C473.226 113.44 471.733 113.222 470.124 112.602C471.096 114.345 471.532 116.039 471.415 117.665C471.314 119.291 470.66 120.683 469.453 121.84C468.229 123.013 466.854 123.734 465.295 124.003C463.736 124.271 462.16 124.07 460.55 123.433C458.941 122.779 457.415 121.706 455.956 120.197L455.973 120.163Z" fill="#FDE9E9"/>
<path d="M474.567 141.238L471.851 137.734L494.686 120.046L497.402 123.55L474.567 141.238Z" fill="#FDE9E9"/>
<path d="M480.87 149.923L478.321 146.302L501.928 129.653L504.477 133.274L480.87 149.923Z" fill="#FDE9E9"/>
<path d="M486.771 158.893L484.391 155.171L508.735 139.612L511.116 143.334L486.771 158.893Z" fill="#FDE9E9"/>
<path d="M495.104 173.295L492.991 169.406L514.854 157.485L510.344 149.219L513.848 147.308L524.981 167.729L521.477 169.64L516.967 161.375L495.104 173.295Z" fill="#FDE9E9"/>
<path d="M503.739 191.269L500.201 182.852L526.843 171.669L530.38 180.086C531.571 182.936 532.023 185.585 531.738 188.066C531.453 190.548 530.548 192.711 529.005 194.588C527.463 196.466 525.401 197.942 522.802 199.031C520.22 200.104 517.705 200.54 515.257 200.322C512.809 200.104 510.546 199.233 508.534 197.707C506.505 196.181 504.912 194.035 503.756 191.269H503.739ZM525.032 177.219L505.449 185.451L507.193 189.609C508.048 191.654 509.188 193.214 510.563 194.27C511.937 195.326 513.547 195.913 515.324 195.997C517.101 196.097 519.013 195.712 521.042 194.857C523.053 194.018 524.613 192.929 525.77 191.604C526.91 190.279 527.58 188.754 527.782 187.027C527.983 185.3 527.647 183.405 526.776 181.36L525.032 177.202V177.219Z" fill="#FDE9E9"/>
<path d="M513.464 218.413L532.242 203.625L510.983 209.628L509.876 205.721L537.674 197.875L539.15 203.106L519.198 218.816L544.398 221.733L545.89 226.997L518.091 234.844L516.968 230.887L538.261 224.885L514.47 222.068L513.447 218.43L513.464 218.413Z" fill="#FDE9E9"/>
<path d="M549.796 251.057L531.085 254.075C528.939 254.427 527.027 254.31 525.334 253.756C523.641 253.203 522.249 252.231 521.176 250.856C520.103 249.481 519.382 247.737 519.047 245.625C518.711 243.529 518.829 241.685 519.416 240.058C520.002 238.449 520.941 237.107 522.266 236.051C523.59 234.995 525.217 234.291 527.145 233.922L527.849 238.331C526.642 238.583 525.636 239.002 524.848 239.572C524.06 240.142 523.507 240.897 523.171 241.802C522.836 242.707 522.786 243.78 522.97 244.988C523.171 246.228 523.574 247.234 524.194 248.005C524.814 248.777 525.619 249.296 526.625 249.581C527.631 249.866 528.821 249.9 530.163 249.682L549.075 246.631L549.779 251.04L549.796 251.057Z" fill="#FDE9E9"/>
<path d="M533.382 274.144C532.477 274.194 531.706 273.943 531.102 273.406C530.498 272.87 530.163 272.132 530.113 271.227C530.062 270.338 530.314 269.584 530.85 268.963C531.387 268.343 532.125 268.008 533.03 267.957C533.969 267.907 534.74 268.158 535.344 268.712C535.947 269.265 536.283 269.986 536.333 270.875C536.383 271.78 536.132 272.551 535.595 273.155C535.059 273.758 534.304 274.094 533.365 274.144H533.382Z" fill="#FDE9E9"/>
<path d="M522.483 299.243L522.701 294.817L547.582 296.057L548.052 286.651L552.025 286.853L550.869 310.074L546.895 309.873L547.364 300.467L522.483 299.226V299.243Z" fill="#FDE9E9"/>
<path d="M519.265 327.561L544.331 322.229L521.763 309.99L522.4 305.564L549.444 320.603L548.757 325.432L518.611 332.222L519.282 327.561H519.265ZM532.075 313.779L530.18 327.091L526.458 327.779L528.738 311.801L532.075 313.779Z" fill="#FDE9E9"/>
<path d="M517.103 337.755L518.176 333.463L546.192 340.521L543.56 350.983C542.755 354.202 541.346 356.533 539.368 357.975C537.39 359.417 535.009 359.786 532.226 359.081C530.23 358.578 528.638 357.539 527.481 355.98C526.324 354.42 525.771 352.509 525.804 350.246L512.727 355.041L514.018 349.894L526.307 345.568L527.598 340.421L517.069 337.772L517.103 337.755ZM541.531 343.908L531.236 341.309L529.761 347.194C529.258 349.173 529.308 350.816 529.912 352.123C530.515 353.431 531.656 354.303 533.349 354.722C535.042 355.141 536.451 354.923 537.608 354.052C538.748 353.18 539.569 351.755 540.072 349.776L541.548 343.891L541.531 343.908Z" fill="#FDE9E9"/>
<path d="M505.516 374.875H531.135L511.602 358.209L513.128 354.018L536.466 374.322L534.79 378.899L503.89 379.301L505.499 374.875H505.516ZM520.907 364.044L516.297 376.669L512.524 376.568L518.057 361.412L520.907 364.044Z" fill="#FDE9E9"/>
<path d="M494.803 397.493L521.796 393.938L501.593 383.879L503.42 380.207L529.291 393.083L527.145 397.409L500.855 400.913L520.522 410.705L518.694 414.376L492.824 401.5L494.819 397.493H494.803Z" fill="#FDE9E9"/>
<path d="M483.687 414.779C484.827 413.035 486.202 411.61 487.811 410.52C489.421 409.43 491.148 408.709 493.009 408.307C494.87 407.904 496.764 407.904 498.709 408.29C500.654 408.659 502.549 409.464 504.393 410.654C506.187 411.828 507.646 413.219 508.769 414.812C509.892 416.405 510.664 418.132 511.099 419.959C511.535 421.804 511.586 423.665 511.234 425.559C510.898 427.454 510.144 429.281 509.004 431.025C507.646 433.121 506.053 434.714 504.225 435.803C502.398 436.91 500.47 437.564 498.441 437.765C496.412 437.983 494.4 437.765 492.388 437.178L495.205 432.869C496.429 433.255 497.687 433.372 498.961 433.238C500.235 433.104 501.459 432.668 502.633 431.93C503.806 431.193 504.829 430.136 505.751 428.745C506.791 427.152 507.344 425.475 507.394 423.732C507.444 421.988 507.009 420.311 506.086 418.719C505.164 417.126 503.739 415.701 501.828 414.443C500.051 413.286 498.24 412.582 496.362 412.364C494.484 412.13 492.724 412.398 491.047 413.136C489.37 413.89 487.945 415.164 486.772 416.958C485.799 418.434 485.246 419.926 485.095 421.418C484.944 422.91 485.162 424.335 485.749 425.71C486.336 427.085 487.241 428.342 488.465 429.466L493.931 421.116L496.898 423.061L488.884 435.317C486.923 434.093 485.33 432.685 484.106 431.092C482.882 429.483 482.027 427.772 481.541 425.962C481.054 424.151 481.004 422.29 481.356 420.395C481.708 418.501 482.496 416.623 483.704 414.795L483.687 414.779Z" fill="#FDE9E9"/>
<path d="M460.265 451.446L457.549 449.065L470.056 434.814L471.817 436.357L473.041 449.904C473.242 452.033 473.51 453.861 473.862 455.386C474.214 456.895 474.952 458.153 476.075 459.142C476.796 459.779 477.601 460.181 478.456 460.349C479.328 460.517 480.2 460.45 481.072 460.114C481.944 459.796 482.748 459.209 483.503 458.354C484.241 457.499 484.727 456.627 484.962 455.688C485.18 454.766 485.146 453.844 484.844 452.955C484.542 452.067 483.972 451.262 483.151 450.524L485.783 447.523C487.108 448.73 488.013 450.105 488.466 451.664C488.918 453.223 488.952 454.799 488.55 456.392C488.147 457.985 487.326 459.494 486.085 460.902C484.811 462.361 483.419 463.367 481.927 463.937C480.418 464.507 478.959 464.675 477.534 464.44C476.109 464.205 474.835 463.602 473.728 462.629C472.722 461.741 471.968 460.735 471.448 459.578C470.928 458.438 470.559 457.163 470.325 455.755C470.09 454.347 469.906 452.788 469.771 451.077L468.732 441.822L460.315 451.413L460.265 451.446Z" fill="#FDE9E9"/>
<path d="M448.697 457.046C450.155 455.655 451.698 454.699 453.324 454.146C454.95 453.592 456.543 453.475 458.069 453.794C459.611 454.112 460.953 454.85 462.126 456.04L459.259 458.756C458.086 457.683 456.744 457.197 455.235 457.298C453.726 457.398 452.284 458.102 450.893 459.427C449.468 460.768 448.68 462.177 448.512 463.635C448.344 465.094 448.814 466.402 449.92 467.575C450.994 468.699 452.301 469.168 453.861 468.967C455.42 468.766 456.962 467.927 458.522 466.452L460.735 464.34L462.981 466.703L460.886 468.699C460.047 469.487 459.46 470.342 459.092 471.23C458.739 472.119 458.639 473.008 458.79 473.863C458.941 474.735 459.343 475.506 459.997 476.176C460.651 476.864 461.372 477.3 462.177 477.501C462.981 477.702 463.803 477.669 464.658 477.417C465.513 477.166 466.318 476.679 467.072 475.958C468.246 474.852 468.866 473.628 468.95 472.303C469.034 470.979 468.598 469.738 467.626 468.598L470.493 465.882C471.549 467.072 472.186 468.397 472.421 469.872C472.655 471.348 472.504 472.84 471.951 474.349C471.398 475.858 470.476 477.216 469.202 478.44C467.844 479.731 466.435 480.619 464.976 481.122C463.518 481.609 462.126 481.709 460.768 481.407C459.427 481.106 458.22 480.385 457.163 479.278C456.208 478.272 455.638 477.065 455.47 475.69C455.302 474.315 455.537 472.823 456.174 471.23C454.431 472.186 452.737 472.605 451.111 472.488C449.485 472.37 448.093 471.717 446.953 470.509C445.796 469.286 445.075 467.894 444.824 466.335C444.572 464.775 444.773 463.199 445.427 461.59C446.081 459.98 447.171 458.455 448.697 457.013V457.046Z" fill="#FDE9E9"/>
<path d="M427.52 475.506L431.04 472.823L448.578 495.776L445.057 498.459L427.52 475.506Z" fill="#FDE9E9"/>
<path d="M418.785 481.759L422.423 479.228L438.921 502.952L435.283 505.484L418.785 481.759Z" fill="#FDE9E9"/>
<path d="M409.765 487.611L413.504 485.247L428.912 509.692L425.173 512.056L409.765 487.611Z" fill="#FDE9E9"/>
<path d="M395.312 495.843L399.219 493.747L410.989 515.694L419.288 511.251L421.166 514.755L400.678 525.754L398.8 522.25L407.099 517.807L395.329 495.86L395.312 495.843Z" fill="#FDE9E9"/>
<path d="M377.305 504.344L385.755 500.856L396.771 527.565L388.321 531.052C385.47 532.226 382.804 532.662 380.323 532.36C377.842 532.058 375.679 531.136 373.818 529.577C371.957 528.017 370.498 525.938 369.425 523.34C368.369 520.758 367.95 518.243 368.184 515.778C368.419 513.313 369.308 511.084 370.833 509.072C372.359 507.06 374.522 505.484 377.305 504.344ZM391.204 525.72L383.106 506.07L378.931 507.781C376.869 508.636 375.31 509.742 374.237 511.134C373.164 512.509 372.577 514.102 372.477 515.879C372.376 517.656 372.745 519.567 373.583 521.613C374.405 523.625 375.478 525.201 376.802 526.358C378.127 527.514 379.636 528.185 381.363 528.403C383.09 528.604 384.984 528.286 387.03 527.431L391.204 525.72Z" fill="#FDE9E9"/>
<path d="M350.093 513.9L364.763 532.779L358.912 511.486L362.835 510.413L370.497 538.262L365.266 539.703L349.691 519.651L346.606 544.834L341.324 546.292L333.662 518.427L337.619 517.337L343.487 538.681L346.471 514.906L350.11 513.9H350.093Z" fill="#FDE9E9"/>
<path d="M317.165 550.015L314.264 531.287C313.929 529.141 314.046 527.229 314.616 525.536C315.187 523.843 316.159 522.468 317.534 521.395C318.909 520.322 320.669 519.634 322.782 519.299C324.877 518.98 326.722 519.115 328.348 519.701C329.958 520.288 331.282 521.261 332.338 522.585C333.395 523.91 334.082 525.553 334.434 527.481L330.025 528.168C329.79 526.961 329.371 525.955 328.801 525.167C328.231 524.379 327.493 523.809 326.588 523.474C325.682 523.138 324.626 523.071 323.402 523.256C322.161 523.457 321.155 523.843 320.367 524.463C319.596 525.067 319.06 525.888 318.775 526.894C318.49 527.9 318.439 529.09 318.657 530.432L321.591 549.361L317.182 550.048L317.165 550.015Z" fill="#FDE9E9"/>
<path d="M294.229 533.45C294.179 532.544 294.43 531.773 294.983 531.169C295.537 530.566 296.258 530.247 297.18 530.197C298.068 530.147 298.823 530.398 299.426 530.951C300.047 531.505 300.382 532.226 300.416 533.131C300.466 534.07 300.198 534.841 299.644 535.445C299.091 536.048 298.353 536.367 297.482 536.417C296.576 536.468 295.805 536.216 295.201 535.663C294.598 535.109 294.279 534.372 294.229 533.433V533.45Z" fill="#FDE9E9"/>
<path d="M269.18 522.384L273.607 522.635L272.215 547.5L281.621 548.036L281.403 552.01L258.182 550.702L258.4 546.728L267.805 547.265L269.197 522.401L269.18 522.384Z" fill="#FDE9E9"/>
<path d="M240.863 518.981L246.027 544.079L258.417 521.596L262.827 522.25L247.62 549.193L242.808 548.472L236.219 518.276L240.88 518.964L240.863 518.981ZM254.561 531.89L241.265 529.912L240.595 526.19L256.556 528.571L254.561 531.89Z" fill="#FDE9E9"/>
<path d="M230.718 516.751L235.01 517.857L227.767 545.823L217.322 543.124C214.103 542.285 211.772 540.877 210.347 538.882C208.922 536.887 208.57 534.506 209.291 531.723C209.811 529.728 210.85 528.152 212.426 527.011C214.002 525.871 215.914 525.318 218.177 525.385L213.466 512.274L218.613 513.598L222.872 525.922L228.019 527.246L230.735 516.734L230.718 516.751ZM224.414 541.129L227.08 530.851L221.195 529.325C219.217 528.822 217.574 528.856 216.266 529.443C214.958 530.029 214.069 531.169 213.633 532.863C213.198 534.556 213.416 535.965 214.271 537.121C215.126 538.278 216.551 539.1 218.529 539.62L224.414 541.145V541.129Z" fill="#FDE9E9"/>
<path d="M193.666 504.914L193.515 530.532L210.298 511.117L214.49 512.676L194.018 535.881L189.458 534.171L189.273 503.254L193.683 504.897L193.666 504.914ZM204.38 520.389L191.788 515.694L191.906 511.922L207.029 517.555L204.38 520.389Z" fill="#FDE9E9"/>
<path d="M171.115 494.066L174.501 521.076L184.695 500.94L188.35 502.784L175.306 528.571L170.997 526.391L167.661 500.085L157.735 519.685L154.08 517.84L167.124 492.054L171.115 494.066Z" fill="#FDE9E9"/>
<path d="M153.913 482.833C155.657 483.989 157.065 485.381 158.138 486.991C159.211 488.6 159.932 490.344 160.318 492.205C160.687 494.066 160.687 495.96 160.301 497.905C159.915 499.85 159.111 501.745 157.887 503.572C156.696 505.366 155.305 506.808 153.695 507.915C152.086 509.021 150.375 509.793 148.531 510.212C146.687 510.631 144.826 510.664 142.931 510.312C141.037 509.96 139.226 509.206 137.482 508.049C135.403 506.674 133.827 505.065 132.737 503.237C131.648 501.409 131.01 499.481 130.809 497.436C130.608 495.407 130.809 493.395 131.446 491.383L135.739 494.234C135.353 495.457 135.219 496.698 135.353 497.989C135.487 499.263 135.906 500.487 136.627 501.661C137.348 502.835 138.404 503.874 139.796 504.796C141.389 505.853 143.049 506.406 144.792 506.473C146.536 506.54 148.213 506.104 149.822 505.199C151.432 504.277 152.857 502.868 154.114 500.974C155.288 499.213 155.992 497.386 156.227 495.525C156.462 493.663 156.227 491.886 155.489 490.21C154.751 488.533 153.494 487.091 151.7 485.918C150.225 484.945 148.749 484.375 147.257 484.207C145.765 484.04 144.34 484.258 142.948 484.828C141.573 485.415 140.316 486.303 139.176 487.527L147.492 493.043L145.53 495.994L133.324 487.896C134.548 485.951 135.973 484.358 137.583 483.134C139.192 481.91 140.919 481.072 142.73 480.603C144.558 480.133 146.419 480.083 148.313 480.469C150.208 480.837 152.069 481.625 153.896 482.849L153.913 482.833Z" fill="#FDE9E9"/>
<path d="M117.396 459.159L119.81 456.459L133.977 469.051L132.435 470.794L118.871 471.935C116.742 472.119 114.914 472.37 113.389 472.706C111.863 473.041 110.605 473.779 109.616 474.902C108.979 475.623 108.56 476.411 108.392 477.283C108.225 478.155 108.292 479.027 108.593 479.899C108.912 480.77 109.499 481.592 110.337 482.33C111.175 483.084 112.064 483.57 112.986 483.805C113.908 484.04 114.814 484.006 115.719 483.704C116.608 483.403 117.429 482.849 118.15 482.028L121.135 484.677C119.927 486.001 118.536 486.89 116.977 487.326C115.417 487.762 113.841 487.779 112.248 487.376C110.656 486.974 109.163 486.136 107.755 484.895C106.313 483.604 105.307 482.212 104.737 480.703C104.167 479.194 104.016 477.736 104.268 476.294C104.519 474.869 105.14 473.594 106.112 472.488C107.001 471.482 108.023 470.727 109.18 470.224C110.32 469.721 111.611 469.353 113.003 469.135C114.411 468.917 115.971 468.732 117.681 468.615L126.952 467.642L117.412 459.175L117.396 459.159Z" fill="#FDE9E9"/>
<path d="M111.88 447.573C113.255 449.049 114.21 450.591 114.747 452.218C115.283 453.844 115.384 455.437 115.065 456.962C114.747 458.505 113.975 459.846 112.785 461.003L110.086 458.119C111.176 456.962 111.662 455.621 111.561 454.112C111.461 452.603 110.773 451.145 109.465 449.753C108.124 448.328 106.732 447.523 105.274 447.339C103.815 447.154 102.507 447.624 101.334 448.713C100.194 449.77 99.7242 451.094 99.9086 452.637C100.093 454.196 100.931 455.755 102.39 457.315L104.486 459.544L102.105 461.774L100.127 459.662C99.3386 458.823 98.5003 458.22 97.6117 457.851C96.7231 457.499 95.8512 457.382 94.9794 457.532C94.1075 457.683 93.3363 458.086 92.6489 458.723C91.9615 459.36 91.5255 460.081 91.3076 460.886C91.0896 461.69 91.1232 462.512 91.3746 463.367C91.6261 464.222 92.1124 465.027 92.8165 465.798C93.9231 466.972 95.1303 467.609 96.4548 467.71C97.7793 467.81 99.02 467.374 100.16 466.402L102.859 469.286C101.669 470.325 100.328 470.962 98.8524 471.197C97.3769 471.432 95.8847 471.264 94.3758 470.694C92.8836 470.141 91.5255 469.202 90.3016 467.911C89.0106 466.536 88.1388 465.128 87.6525 463.669C87.1663 462.21 87.0825 460.802 87.4011 459.461C87.7196 458.119 88.4406 456.912 89.5471 455.873C90.5699 454.917 91.7603 454.364 93.1519 454.213C94.5267 454.062 96.0189 454.297 97.6117 454.934C96.656 453.173 96.2536 451.48 96.371 449.854C96.5051 448.227 97.1757 446.836 98.3829 445.712C99.6236 444.555 101.015 443.851 102.558 443.617C104.117 443.365 105.693 443.583 107.286 444.254C108.895 444.924 110.404 446.014 111.829 447.54L111.88 447.573Z" fill="#FDE9E9"/>
<path d="M93.5537 426.263L96.2195 429.801L73.1492 447.188L70.4834 443.65L93.5537 426.263Z" fill="#FDE9E9"/>
<path d="M87.3677 417.495L89.8659 421.15L66.0411 437.48L63.543 433.825L87.3677 417.495Z" fill="#FDE9E9"/>
<path d="M81.5838 408.441L83.9143 412.197L59.3686 427.437L57.0381 423.681L81.5838 408.441Z" fill="#FDE9E9"/>
<path d="M73.4172 393.921L75.4795 397.828L53.4487 409.464L57.8414 417.797L54.3205 419.658L43.4561 399.085L46.977 397.224L51.3697 405.557L73.4005 393.921H73.4172Z" fill="#FDE9E9"/>
<path d="M65.0524 375.848L68.4727 384.315L41.6804 395.145L38.26 386.679C37.1032 383.812 36.684 381.146 37.0026 378.681C37.3211 376.216 38.26 374.054 39.8361 372.193C41.4121 370.348 43.4911 368.89 46.1066 367.833C48.6886 366.794 51.2203 366.391 53.6682 366.643C56.116 366.894 58.3627 367.8 60.3579 369.342C62.3531 370.885 63.9291 373.064 65.0524 375.848ZM43.5749 389.613L63.2752 381.649L61.5818 377.474C60.7435 375.412 59.6369 373.836 58.2621 372.763C56.8873 371.69 55.3113 371.086 53.5173 370.969C51.7401 370.851 49.8287 371.203 47.7832 372.025C45.7713 372.846 44.1785 373.903 43.0216 375.21C41.8648 376.518 41.1774 378.044 40.9594 379.754C40.7414 381.481 41.06 383.376 41.8815 385.438L43.5749 389.613Z" fill="#FDE9E9"/>
<path d="M55.6807 348.586L36.7014 363.122L58.0447 357.405L59.101 361.328L31.1853 368.806L29.7769 363.558L49.9299 348.116L24.7638 344.864L23.3555 339.582L51.2544 332.105L52.3107 336.061L30.9338 341.795L54.6915 344.931L55.6639 348.586H55.6807Z" fill="#FDE9E9"/>
<path d="M19.7656 315.405L38.5102 312.639C40.6563 312.32 42.5844 312.455 44.261 313.025C45.9544 313.595 47.3125 314.584 48.3855 315.976C49.4418 317.367 50.1292 319.128 50.4477 321.24C50.7495 323.336 50.6154 325.18 50.0118 326.79C49.4082 328.399 48.4358 329.724 47.0945 330.763C45.7532 331.803 44.1269 332.49 42.1988 332.825L41.5449 328.399C42.7521 328.164 43.758 327.762 44.5628 327.209C45.3676 326.639 45.9376 325.901 46.273 324.996C46.6083 324.09 46.6921 323.034 46.5077 321.81C46.3233 320.569 45.9376 319.547 45.3173 318.775C44.7137 318.004 43.9089 317.451 42.903 317.166C41.897 316.864 40.7234 316.814 39.3653 317.015L20.4195 319.815L19.7656 315.389V315.405Z" fill="#FDE9E9"/>
<path d="M36.4994 292.587C37.4048 292.553 38.1592 292.805 38.7628 293.358C39.3664 293.911 39.685 294.649 39.7185 295.554C39.752 296.443 39.5005 297.181 38.9472 297.801C38.394 298.421 37.673 298.74 36.7509 298.773C35.812 298.807 35.0407 298.555 34.4371 297.985C33.8336 297.415 33.515 296.694 33.4815 295.806C33.4479 294.9 33.6994 294.146 34.2527 293.542C34.806 292.939 35.5437 292.62 36.4826 292.587H36.4994Z" fill="#FDE9E9"/>
<path d="M47.7155 267.572L47.4305 271.981L22.5663 270.422L21.9794 279.811L18.0059 279.559L19.4645 256.355L23.4381 256.607L22.8513 265.996L47.7155 267.555V267.572Z" fill="#FDE9E9"/>
<path d="M51.303 239.354L26.1705 244.35L48.5701 256.891L47.8827 261.301L21.04 245.91L21.7945 241.098L52.0407 234.693L51.3198 239.337L51.303 239.354ZM38.3092 252.968L40.3882 239.689L44.1103 239.052L41.6289 254.997L38.326 252.968H38.3092Z" fill="#FDE9E9"/>
<path d="M53.6173 229.16L52.4772 233.435L24.5615 226.008L27.3279 215.579C28.183 212.36 29.6081 210.047 31.6033 208.638C33.5985 207.23 35.9961 206.895 38.7625 207.632C40.7577 208.169 42.3169 209.225 43.457 210.801C44.5971 212.377 45.1169 214.305 45.0498 216.552L58.1945 211.924L56.8364 217.055L44.4798 221.23L43.1217 226.36L53.6173 229.16ZM29.2728 222.688L39.5337 225.421L41.093 219.553C41.6127 217.591 41.596 215.932 41.0091 214.624C40.4391 213.299 39.299 212.427 37.6056 211.975C35.929 211.522 34.5039 211.723 33.347 212.595C32.1901 213.45 31.3518 214.859 30.8321 216.837L29.2728 222.705V222.688Z" fill="#FDE9E9"/>
<path d="M65.7062 192.191L40.0875 191.855L59.4022 208.773L57.8094 212.947L34.7559 192.325L36.4828 187.781H67.3996L65.723 192.191H65.7062ZM50.164 202.804L54.9423 190.246L58.7147 190.397L52.9807 205.47L50.164 202.804Z" fill="#FDE9E9"/>
<path d="M76.7042 169.741L49.6771 172.943L69.7462 183.271L67.8684 186.926L42.1826 173.714L44.3958 169.422L70.7187 166.27L51.1861 156.227L53.0639 152.572L78.7497 165.784L76.7042 169.758V169.741Z" fill="#FDE9E9"/>
<path d="M88.0378 152.623C86.8642 154.366 85.4726 155.758 83.863 156.814C82.2367 157.87 80.5098 158.591 78.6487 158.96C76.7877 159.329 74.8763 159.312 72.9315 158.91C70.9866 158.508 69.1088 157.686 67.2813 156.462C65.504 155.272 64.0621 153.863 62.9556 152.254C61.849 150.644 61.0945 148.917 60.6921 147.073C60.2898 145.229 60.2562 143.368 60.6251 141.473C60.9939 139.579 61.7484 137.768 62.922 136.041C64.3136 133.979 65.9232 132.403 67.7675 131.33C69.6117 130.257 71.5399 129.619 73.5686 129.435C75.5973 129.251 77.6092 129.469 79.6212 130.106L76.7541 134.381C75.5302 133.979 74.2895 133.845 72.9985 133.962C71.7243 134.079 70.4836 134.498 69.31 135.219C68.1363 135.94 67.0801 136.98 66.1579 138.355C65.1016 139.931 64.5316 141.591 64.4478 143.334C64.3807 145.078 64.7831 146.754 65.6885 148.364C66.5938 149.974 67.9854 151.415 69.88 152.69C71.6405 153.88 73.4512 154.584 75.3123 154.836C77.1733 155.087 78.9505 154.853 80.6439 154.132C82.3205 153.411 83.7624 152.153 84.9696 150.376C85.9588 148.901 86.5456 147.425 86.7133 145.95C86.8809 144.474 86.6965 143.032 86.1097 141.641C85.5229 140.249 84.651 138.992 83.4439 137.852L77.8775 146.134L74.9434 144.156L83.1253 132C85.0702 133.241 86.6462 134.683 87.8534 136.292C89.0605 137.919 89.8821 139.629 90.3515 141.456C90.8042 143.284 90.8377 145.145 90.4521 147.04C90.0665 148.934 89.2617 150.795 88.0378 152.623Z" fill="#FDE9E9"/>
<path d="M111.93 116.273L114.629 118.705L101.937 132.788L100.21 131.229L99.154 117.665C98.9864 115.536 98.7349 113.691 98.4163 112.182C98.0977 110.657 97.3768 109.399 96.2535 108.393C95.5325 107.739 94.7445 107.337 93.8727 107.153C93.0008 106.968 92.1458 107.035 91.2571 107.354C90.3853 107.672 89.5638 108.242 88.8093 109.081C88.0548 109.919 87.5518 110.791 87.3171 111.73C87.0824 112.652 87.1159 113.557 87.4009 114.463C87.7027 115.368 88.256 116.173 89.0608 116.911L86.3949 119.878C85.0704 118.654 84.1986 117.263 83.7627 115.703C83.3267 114.144 83.3267 112.568 83.7459 110.975C84.1651 109.383 85.0034 107.89 86.2608 106.499C87.5518 105.057 88.9602 104.068 90.4691 103.514C91.9781 102.961 93.4535 102.81 94.8786 103.078C96.3038 103.33 97.578 103.95 98.6678 104.939C99.657 105.845 100.411 106.868 100.914 108.008C101.417 109.165 101.77 110.439 101.988 111.847C102.205 113.255 102.373 114.815 102.474 116.542L103.379 125.813L111.913 116.34L111.93 116.273Z" fill="#FDE9E9"/>
<path d="M123.6 110.774C122.125 112.132 120.565 113.088 118.939 113.608C117.313 114.127 115.72 114.228 114.194 113.893C112.669 113.557 111.311 112.786 110.17 111.579L113.071 108.896C114.228 109.986 115.552 110.489 117.078 110.405C118.587 110.321 120.046 109.634 121.437 108.343C122.879 107.018 123.684 105.627 123.885 104.168C124.07 102.71 123.617 101.402 122.527 100.211C121.471 99.0713 120.163 98.5851 118.604 98.7695C117.045 98.9539 115.485 99.7587 113.909 101.217L111.663 103.296L109.449 100.899L111.579 98.9372C112.417 98.1492 113.037 97.3108 113.406 96.4222C113.775 95.5336 113.876 94.6618 113.742 93.7899C113.591 92.9181 113.205 92.1469 112.568 91.4594C111.931 90.772 111.21 90.3194 110.405 90.1014C109.6 89.8834 108.779 89.9002 107.924 90.1517C107.069 90.3864 106.264 90.8726 105.493 91.5768C104.302 92.6666 103.665 93.8738 103.565 95.1983C103.464 96.5228 103.883 97.7635 104.839 98.9204L101.938 101.603C100.899 100.413 100.278 99.0713 100.06 97.5791C99.8424 96.0869 100.01 94.6115 100.597 93.1193C101.167 91.6271 102.106 90.2691 103.397 89.0787C104.772 87.8044 106.197 86.9326 107.655 86.4464C109.114 85.9601 110.523 85.8931 111.864 86.2284C113.205 86.5637 114.395 87.2847 115.435 88.408C116.391 89.4307 116.927 90.6379 117.078 92.0127C117.229 93.3876 116.977 94.8798 116.324 96.4725C118.084 95.5336 119.777 95.1312 121.404 95.2821C123.03 95.433 124.405 96.1037 125.545 97.3276C126.685 98.5683 127.389 99.9599 127.624 101.519C127.859 103.078 127.624 104.654 126.953 106.247C126.266 107.84 125.159 109.349 123.634 110.774H123.6Z" fill="#FDE9E9"/>
<path d="M144.993 92.6331L141.439 95.2821L124.203 72.0945L127.758 69.4454L144.993 92.6331Z" fill="#FDE9E9"/>
<path d="M153.845 86.4798L150.174 88.9612L133.994 65.0191L137.666 62.5377L153.845 86.4798Z" fill="#FDE9E9"/>
<path d="M162.916 80.7627L159.143 83.0764L144.054 58.4301L147.826 56.1164L162.916 80.7627Z" fill="#FDE9E9"/>
<path d="M177.485 72.715L173.561 74.7604L162.077 52.6626L153.727 57.005L151.883 53.4674L172.522 42.7538L174.35 46.2915L166 50.6339L177.485 72.7317V72.715Z" fill="#FDE9E9"/>
<path d="M195.61 64.4492L187.126 67.8192L176.479 40.9598L184.963 37.5898C187.83 36.4497 190.496 36.0473 192.961 36.3826C195.425 36.7179 197.588 37.6736 199.416 39.2496C201.26 40.8257 202.702 42.9214 203.725 45.5537C204.747 48.1525 205.133 50.6674 204.865 53.132C204.596 55.5967 203.691 57.8098 202.115 59.805C200.556 61.8002 198.376 63.3426 195.576 64.4492H195.61ZM181.996 42.8879L189.825 62.6385L194.017 60.9786C196.079 60.1571 197.672 59.0673 198.762 57.6924C199.852 56.3176 200.455 54.7416 200.589 52.9644C200.723 51.1872 200.371 49.2591 199.567 47.2303C198.762 45.2184 197.722 43.6088 196.414 42.4352C195.107 41.2616 193.598 40.5574 191.888 40.3394C190.177 40.1215 188.266 40.4065 186.204 41.2281L182.012 42.8879H181.996Z" fill="#FDE9E9"/>
<path d="M222.955 55.2613L208.553 36.1814L214.119 57.5583L210.179 58.581L202.886 30.6318L208.134 29.257L223.441 49.5105L226.861 24.378L232.16 23.0032L239.453 50.9692L235.479 52.0087L229.896 30.5983L226.593 54.3224L222.938 55.2781L222.955 55.2613Z" fill="#FDE9E9"/>
<path d="M256.372 19.5828L259.021 38.3441C259.323 40.4902 259.188 42.4183 258.602 44.0949C258.015 45.7715 257.026 47.1464 255.617 48.1859C254.226 49.2421 252.465 49.9128 250.336 50.2146C248.24 50.5164 246.379 50.3487 244.786 49.7451C243.177 49.1248 241.869 48.1523 240.83 46.811C239.807 45.4698 239.119 43.8267 238.801 41.8986L243.227 41.2782C243.445 42.4854 243.847 43.5081 244.401 44.2961C244.954 45.0841 245.692 45.6709 246.597 46.023C247.502 46.3751 248.559 46.459 249.783 46.2913C251.023 46.1236 252.046 45.7212 252.834 45.1344C253.622 44.5308 254.159 43.7428 254.46 42.7369C254.762 41.7309 254.829 40.5573 254.628 39.1992L251.945 20.2366L256.372 19.6163V19.5828Z" fill="#FDE9E9"/>
<path d="M279.073 36.4497C279.107 37.3551 278.839 38.1096 278.285 38.7132C277.732 39.3167 276.994 39.6185 276.089 39.6521C275.2 39.6856 274.463 39.4173 273.842 38.8641C273.239 38.3108 272.904 37.5731 272.87 36.6677C272.836 35.7288 273.105 34.9575 273.675 34.3707C274.245 33.7671 274.966 33.4653 275.854 33.4318C276.76 33.3983 277.514 33.6665 278.118 34.2198C278.721 34.7731 279.023 35.5276 279.057 36.4665L279.073 36.4497Z" fill="#FDE9E9"/>
</g>
<defs>
<clipPath id="clip0_3156_1702">
<rect width="570" height="570" fill="white"/>
</clipPath>
</defs>
</svg>
