<svg width="350" height="180" viewBox="0 0 350 180" fill="none" xmlns="http://www.w3.org/2000/svg">
<mask id="mask0_2829_977" style="mask-type:alpha" maskUnits="userSpaceOnUse" x="0" y="0" width="350" height="180">
<rect width="350" height="180" rx="15" fill="#BFA100"/>
</mask>
<g mask="url(#mask0_2829_977)">
<g filter="url(#filter0_d_2829_977)">
<rect width="350" height="180" rx="15" fill="#9E6B39"/>
<rect x="0.5" y="0.5" width="349" height="179" rx="14.5" stroke="black"/>
</g>
<rect x="0.5" y="0.5" width="334.472" height="150.667" rx="12.5" fill="#D38F4C" stroke="black"/>
<path d="M27.9421 -14.9542L27.8548 -14.8822L27.8109 -14.7676L-23.8951 120.285L-23.1737 120.993L-4.80073 105.88L-4.71366 105.808L-4.66965 105.694L47.7144 -29.9535L46.9931 -30.6625L27.9421 -14.9542Z" fill="white" stroke="black"/>
</g>
<path d="M86.998 64.202C86.998 66.596 85.234 68 82.39 68H77.332V55.076H82.192C84.91 55.076 86.584 56.3 86.584 58.514C86.584 59.702 85.918 60.656 84.766 61.25C86.206 61.754 86.998 62.78 86.998 64.202ZM81.976 57.236H79.816V60.242H81.976C83.308 60.242 83.992 59.666 83.992 58.73C83.992 57.812 83.308 57.236 81.976 57.236ZM82.174 62.42H79.816V65.84H82.174C83.65 65.84 84.424 65.192 84.424 64.094C84.424 63.068 83.65 62.42 82.174 62.42ZM91.2723 63.338V68H88.7703V58.388H91.0743V60.242C91.7763 59.018 93.2703 58.28 94.8183 58.28V60.872C92.6943 60.71 91.2723 61.214 91.2723 63.338ZM100.296 68.18C97.5056 68.18 95.4176 65.984 95.4176 63.194C95.4176 60.386 97.5056 58.208 100.296 58.208C103.086 58.208 105.174 60.386 105.174 63.194C105.174 65.984 103.086 68.18 100.296 68.18ZM100.296 65.966C101.538 65.966 102.6 64.976 102.6 63.194C102.6 61.412 101.538 60.44 100.296 60.44C99.0536 60.44 97.9916 61.412 97.9916 63.194C97.9916 64.976 99.0536 65.966 100.296 65.966ZM109.272 62.762V68H106.77V58.388H109.074V59.756C109.776 58.802 110.766 58.208 112.026 58.208C113.952 58.208 115.284 59.468 115.284 61.79V68H112.8V62.636C112.8 61.214 112.242 60.422 111.108 60.422C110.118 60.422 109.272 61.214 109.272 62.762ZM125.216 68H117.026V65.984L121.976 60.548H117.008V58.388H125.072V60.44L120.104 65.822H125.216V68ZM130.968 68.162C128.088 68.162 126.162 66.164 126.162 63.158C126.162 60.296 128.16 58.208 130.932 58.208C133.974 58.208 135.99 60.674 135.54 63.806H128.718C128.88 65.372 129.636 66.236 130.914 66.236C132.012 66.236 132.75 65.696 133.038 64.742H135.522C134.982 66.92 133.308 68.162 130.968 68.162ZM130.878 60.044C129.708 60.044 128.97 60.8 128.754 62.222H132.894C132.822 60.89 132.066 60.044 130.878 60.044ZM145.567 71.474H143.065C141.589 69.224 140.779 66.254 140.779 63.266C140.779 60.296 141.589 57.326 143.065 55.076H145.567C144.073 57.326 143.353 60.296 143.353 63.266C143.353 66.254 144.073 69.224 145.567 71.474ZM151.003 68H148.501V57.992H146.197V55.832H151.003V68ZM157.49 68.18C154.898 68.18 152.936 66.56 152.864 64.292H155.366C155.51 65.354 156.338 65.948 157.472 65.948C158.948 65.948 159.506 65.012 159.506 64.022C159.506 63.068 158.876 62.096 157.4 62.096C156.428 62.096 155.708 62.492 155.33 63.32L153.278 62.654L154.34 55.832H161.378V58.064H156.158L155.78 60.548C156.392 60.152 157.094 59.972 157.814 59.972C160.712 59.972 162.098 61.97 162.098 64.022C162.098 66.11 160.55 68.18 157.49 68.18ZM169.717 66.272H167.377V62.942H164.047V60.782H167.377V57.452H169.717V60.782H173.047V62.942H169.717V66.272ZM181.87 63.338V68H179.368V58.388H181.672V60.242C182.374 59.018 183.868 58.28 185.416 58.28V60.872C183.292 60.71 181.87 61.214 181.87 63.338ZM190.821 68.162C187.941 68.162 186.015 66.164 186.015 63.158C186.015 60.296 188.013 58.208 190.785 58.208C193.827 58.208 195.843 60.674 195.393 63.806H188.571C188.733 65.372 189.489 66.236 190.767 66.236C191.865 66.236 192.603 65.696 192.891 64.742H195.375C194.835 66.92 193.161 68.162 190.821 68.162ZM190.731 60.044C189.561 60.044 188.823 60.8 188.607 62.222H192.747C192.675 60.89 191.919 60.044 190.731 60.044ZM200.401 68H197.917V60.53H195.973V58.388H197.917V57.866C197.917 55.958 198.943 54.878 200.941 54.878C201.553 54.878 202.075 54.986 202.489 55.166V57.146C202.219 57.038 201.859 56.984 201.535 56.984C200.851 56.984 200.401 57.254 200.401 57.92V58.388H202.903V60.53H200.401V68ZM208.101 68.162C205.221 68.162 203.295 66.164 203.295 63.158C203.295 60.296 205.293 58.208 208.065 58.208C211.107 58.208 213.123 60.674 212.673 63.806H205.851C206.013 65.372 206.769 66.236 208.047 66.236C209.145 66.236 209.883 65.696 210.171 64.742H212.655C212.115 66.92 210.441 68.162 208.101 68.162ZM208.011 60.044C206.841 60.044 206.103 60.8 205.887 62.222H210.027C209.955 60.89 209.199 60.044 208.011 60.044ZM216.85 63.338V68H214.348V58.388H216.652V60.242C217.354 59.018 218.848 58.28 220.396 58.28V60.872C218.272 60.71 216.85 61.214 216.85 63.338ZM224.198 63.338V68H221.696V58.388H224V60.242C224.702 59.018 226.196 58.28 227.744 58.28V60.872C225.62 60.71 224.198 61.214 224.198 63.338ZM234.768 68V66.812C234.138 67.712 233.184 68.18 231.87 68.18C229.872 68.18 228.54 67.01 228.54 65.21C228.54 63.338 230.052 62.33 232.86 62.33C233.4 62.33 233.868 62.366 234.462 62.438V61.862C234.462 60.782 233.85 60.152 232.806 60.152C231.726 60.152 231.078 60.782 230.988 61.862H228.738C228.882 59.648 230.484 58.208 232.806 58.208C235.326 58.208 236.802 59.594 236.802 61.952V68H234.768ZM230.898 65.138C230.898 65.948 231.474 66.452 232.41 66.452C233.688 66.452 234.462 65.75 234.462 64.634V63.95C233.868 63.86 233.454 63.824 233.022 63.824C231.6 63.824 230.898 64.274 230.898 65.138ZM241.478 68H238.958V55.076H241.478V68ZM251.839 64.922C251.839 66.938 250.309 68.18 247.573 68.18C244.837 68.18 243.307 66.866 243.109 64.724H245.503C245.521 65.714 246.367 66.344 247.609 66.344C248.581 66.344 249.319 66.038 249.319 65.354C249.319 64.742 248.923 64.49 248.005 64.31L246.277 63.986C244.549 63.68 243.505 62.726 243.505 61.232C243.505 59.45 245.035 58.208 247.429 58.208C249.841 58.208 251.497 59.486 251.677 61.556H249.283C249.193 60.62 248.491 60.044 247.429 60.044C246.511 60.044 245.899 60.386 245.899 60.998C245.899 61.574 246.295 61.808 247.159 61.97L249.013 62.312C250.885 62.672 251.839 63.536 251.839 64.922ZM254.952 71.474H252.468C253.944 69.224 254.664 66.254 254.664 63.266C254.664 60.296 253.944 57.326 252.468 55.076H254.952C256.428 57.326 257.238 60.296 257.238 63.266C257.238 66.254 256.428 69.224 254.952 71.474Z" fill="black"/>
<path d="M81.9348 95.272V97H73.7448V84.076H81.8088V85.804H75.7248V89.476H81.2688V91.204H75.7248V95.272H81.9348ZM85.9305 91.618V97H84.1125V87.46H85.8045V89.044C86.4525 87.982 87.5325 87.28 88.8465 87.28C90.8085 87.28 92.1045 88.54 92.1045 90.826V97H90.2865V91.438C90.2865 89.8 89.5665 88.882 88.2165 88.882C86.9745 88.882 85.9305 89.926 85.9305 91.618ZM96.7328 85.246C96.7328 85.93 96.1928 86.452 95.4188 86.452C94.6448 86.452 94.0868 85.93 94.0868 85.246C94.0868 84.544 94.6448 84.04 95.4188 84.04C96.1928 84.04 96.7328 84.544 96.7328 85.246ZM96.3188 87.46V97.468C96.3188 99.646 95.1308 100.654 93.3848 100.654C92.9888 100.654 92.5388 100.636 92.1248 100.474V98.764C92.4308 98.908 92.7728 98.962 93.1688 98.962C93.9788 98.962 94.5008 98.53 94.5008 97.432V87.46H96.3188ZM102.839 97.18C100.139 97.18 98.159 95.056 98.159 92.23C98.159 89.404 100.139 87.28 102.839 87.28C105.539 87.28 107.519 89.404 107.519 92.23C107.519 95.056 105.539 97.18 102.839 97.18ZM102.839 95.578C104.405 95.578 105.647 94.318 105.647 92.23C105.647 90.142 104.405 88.9 102.839 88.9C101.273 88.9 100.049 90.142 100.049 92.23C100.049 94.318 101.273 95.578 102.839 95.578ZM116.993 87.46L112.223 100.474H110.243L111.611 96.874L107.849 87.46H109.811L112.583 94.732L115.157 87.46H116.993ZM127.824 97V95.524C127.23 96.586 126.168 97.18 124.764 97.18C122.784 97.18 121.488 96.046 121.488 94.3C121.488 92.428 122.982 91.456 125.826 91.456C126.384 91.456 126.834 91.474 127.608 91.564V90.862C127.608 89.494 126.87 88.72 125.61 88.72C124.278 88.72 123.468 89.512 123.414 90.844H121.758C121.848 88.702 123.378 87.28 125.61 87.28C127.968 87.28 129.336 88.612 129.336 90.88V97H127.824ZM123.216 94.246C123.216 95.236 123.954 95.884 125.124 95.884C126.654 95.884 127.608 94.93 127.608 93.472V92.698C126.906 92.608 126.402 92.59 125.934 92.59C124.116 92.59 123.216 93.13 123.216 94.246ZM135.151 90.934C135.151 86.902 136.753 84.652 139.633 84.652C142.513 84.652 144.133 86.902 144.133 90.934C144.133 94.966 142.549 97.18 139.633 97.18C136.717 97.18 135.151 94.966 135.151 90.934ZM137.023 90.934C137.023 93.94 137.923 95.542 139.633 95.542C141.343 95.542 142.261 93.958 142.261 90.934C142.261 87.892 141.343 86.29 139.633 86.29C137.959 86.29 137.023 87.892 137.023 90.934ZM151.408 92.86H145.81V91.222H151.408V92.86ZM156.256 97.162C153.736 97.162 151.972 95.686 151.954 93.544H153.736C153.808 94.858 154.78 95.704 156.256 95.704C157.786 95.704 158.722 94.876 158.722 93.562C158.722 92.284 157.66 91.474 155.986 91.474H154.726V90.016H155.896C157.264 90.016 158.164 89.224 158.164 88.036C158.164 86.884 157.354 86.11 156.13 86.11C154.888 86.11 154.06 86.902 154.006 88.144H152.242C152.296 86.146 153.988 84.652 156.202 84.652C158.542 84.652 160.054 86.002 160.054 87.91C160.054 89.098 159.352 90.052 158.092 90.646C159.694 91.078 160.612 92.122 160.612 93.526C160.612 95.686 158.848 97.162 156.256 97.162ZM165.799 92.284C163.603 92.284 162.019 90.592 162.019 88.504C162.019 86.416 163.603 84.724 165.799 84.724C168.013 84.724 169.597 86.416 169.597 88.504C169.597 90.592 168.013 92.284 165.799 92.284ZM168.391 97H166.897L173.773 84.832H175.267L168.391 97ZM165.799 90.97C167.023 90.97 168.067 90.106 168.067 88.504C168.067 86.884 167.023 86.038 165.799 86.038C164.593 86.038 163.549 86.884 163.549 88.504C163.549 90.106 164.593 90.97 165.799 90.97ZM176.563 97.144C174.349 97.144 172.783 95.47 172.783 93.364C172.783 91.276 174.349 89.584 176.563 89.584C178.777 89.584 180.343 91.276 180.343 93.364C180.343 95.47 178.777 97.144 176.563 97.144ZM176.563 95.83C177.787 95.83 178.813 94.966 178.813 93.364C178.813 91.762 177.787 90.916 176.563 90.916C175.357 90.916 174.295 91.762 174.295 93.364C174.295 94.966 175.357 95.83 176.563 95.83ZM185.223 92.23C185.223 89.332 186.879 87.28 189.453 87.28C190.731 87.28 191.847 87.928 192.513 89.098V84.076H194.331V97H192.639V95.29C191.955 96.496 190.803 97.18 189.453 97.18C186.879 97.18 185.223 95.092 185.223 92.23ZM187.113 92.23C187.113 94.354 188.229 95.56 189.813 95.56C191.361 95.56 192.513 94.3 192.513 92.194C192.513 90.052 191.325 88.882 189.813 88.882C188.229 88.882 187.113 90.07 187.113 92.23ZM199.073 85.246C199.073 85.93 198.533 86.452 197.759 86.452C196.985 86.452 196.427 85.93 196.427 85.246C196.427 84.544 196.985 84.04 197.759 84.04C198.533 84.04 199.073 84.544 199.073 85.246ZM198.677 97H196.859V87.46H198.677V97ZM208.76 94.156C208.76 96.028 207.302 97.18 204.764 97.18C202.244 97.18 200.75 95.938 200.57 93.886H202.316C202.388 95.074 203.342 95.812 204.8 95.812C206.078 95.812 206.924 95.362 206.924 94.462C206.924 93.67 206.438 93.328 205.25 93.094L203.702 92.806C201.938 92.464 200.948 91.564 200.948 90.124C200.948 88.45 202.406 87.28 204.62 87.28C206.906 87.28 208.454 88.504 208.616 90.466H206.87C206.762 89.314 205.916 88.648 204.638 88.648C203.486 88.648 202.712 89.134 202.712 89.962C202.712 90.736 203.198 91.096 204.35 91.312L205.97 91.618C207.86 91.96 208.76 92.788 208.76 94.156ZM214.507 97.198C211.897 97.198 210.061 95.146 210.061 92.23C210.061 89.35 211.933 87.28 214.507 87.28C216.865 87.28 218.575 88.846 218.917 91.33H217.009C216.811 89.8 215.857 88.882 214.525 88.882C212.959 88.882 211.933 90.214 211.933 92.23C211.933 94.264 212.959 95.578 214.525 95.578C215.875 95.578 216.811 94.678 217.027 93.13H218.917C218.593 95.65 216.901 97.198 214.507 97.198ZM224.655 97.18C221.955 97.18 219.975 95.056 219.975 92.23C219.975 89.404 221.955 87.28 224.655 87.28C227.355 87.28 229.335 89.404 229.335 92.23C229.335 95.056 227.355 97.18 224.655 97.18ZM224.655 95.578C226.221 95.578 227.463 94.318 227.463 92.23C227.463 90.142 226.221 88.9 224.655 88.9C223.089 88.9 221.865 90.142 221.865 92.23C221.865 94.318 223.089 95.578 224.655 95.578ZM237.147 93.076V87.46H238.965V97H237.273V95.488C236.769 96.478 235.653 97.18 234.357 97.18C232.431 97.18 231.099 96.046 231.099 93.598V87.46H232.917V93.238C232.917 94.894 233.745 95.578 234.933 95.578C236.157 95.578 237.147 94.57 237.147 93.076ZM243.307 91.618V97H241.489V87.46H243.181V89.044C243.829 87.982 244.909 87.28 246.223 87.28C248.185 87.28 249.481 88.54 249.481 90.826V97H247.663V91.438C247.663 89.8 246.943 88.882 245.593 88.882C244.351 88.882 243.307 89.926 243.307 91.618ZM257.243 95.236V96.838C256.685 97.09 256.199 97.18 255.623 97.18C253.859 97.18 252.635 96.226 252.635 94.12V89.008H250.529V87.46H252.635V84.634H254.453V87.46H257.333V89.008H254.453V93.706C254.453 95.02 255.083 95.488 256.055 95.488C256.487 95.488 256.865 95.416 257.243 95.236ZM261.709 95.704C261.709 96.514 261.151 97.09 260.323 97.09C259.513 97.09 258.937 96.514 258.937 95.704C258.937 94.858 259.513 94.282 260.323 94.282C261.151 94.282 261.709 94.858 261.709 95.704Z" fill="black"/>
<defs>
<filter id="filter0_d_2829_977" x="-4" y="0" width="358" height="188" filterUnits="userSpaceOnUse" color-interpolation-filters="sRGB">
<feFlood flood-opacity="0" result="BackgroundImageFix"/>
<feColorMatrix in="SourceAlpha" type="matrix" values="0 0 0 0 0 0 0 0 0 0 0 0 0 0 0 0 0 0 127 0" result="hardAlpha"/>
<feOffset dy="4"/>
<feGaussianBlur stdDeviation="2"/>
<feComposite in2="hardAlpha" operator="out"/>
<feColorMatrix type="matrix" values="0 0 0 0 0 0 0 0 0 0 0 0 0 0 0 0 0 0 0.25 0"/>
<feBlend mode="normal" in2="BackgroundImageFix" result="effect1_dropShadow_2829_977"/>
<feBlend mode="normal" in="SourceGraphic" in2="effect1_dropShadow_2829_977" result="shape"/>
</filter>
</defs>
</svg>
