<svg width="350" height="180" viewBox="0 0 350 180" fill="none" xmlns="http://www.w3.org/2000/svg">
<mask id="mask0_2830_1007" style="mask-type:alpha" maskUnits="userSpaceOnUse" x="0" y="0" width="350" height="180">
<rect width="350" height="180" rx="15" fill="#BFA100"/>
</mask>
<g mask="url(#mask0_2830_1007)">
<g filter="url(#filter0_d_2830_1007)">
<rect width="350" height="180" rx="15" fill="#6069B4"/>
<rect x="0.5" y="0.5" width="349" height="179" rx="14.5" stroke="black"/>
</g>
<g filter="url(#filter1_b_2830_1007)">
<rect width="335.472" height="151.667" rx="13" fill="url(#paint0_linear_2830_1007)"/>
<rect x="0.5" y="0.5" width="334.472" height="150.667" rx="12.5" stroke="black"/>
</g>
<path d="M27.9421 -14.9543L27.8548 -14.8822L27.8109 -14.7676L-23.8951 120.285L-23.1737 120.993L-4.80073 105.88L-4.71367 105.808L-4.66966 105.694L47.7144 -29.9535L46.9931 -30.6625L27.9421 -14.9543Z" fill="white" stroke="black"/>
</g>
<path d="M72.4506 56H67.8606V43.076H72.4506C76.5546 43.076 79.0386 45.704 79.0386 49.466C79.0386 53.228 76.4646 56 72.4506 56ZM70.5966 45.434V53.642H72.3066C74.8806 53.642 76.2306 52.148 76.2306 49.466C76.2306 46.892 74.8806 45.434 72.3066 45.434H70.5966ZM83.6207 44.156C83.6207 45.002 82.9367 45.632 81.9467 45.632C80.9747 45.632 80.2907 45.002 80.2907 44.156C80.2907 43.274 80.9747 42.644 81.9467 42.644C82.9367 42.644 83.6207 43.274 83.6207 44.156ZM83.2247 56H80.7227V46.388H83.2247V56ZM91.1752 56V54.812C90.5452 55.712 89.5912 56.18 88.2772 56.18C86.2792 56.18 84.9472 55.01 84.9472 53.21C84.9472 51.338 86.4592 50.33 89.2672 50.33C89.8072 50.33 90.2752 50.366 90.8692 50.438V49.862C90.8692 48.782 90.2572 48.152 89.2132 48.152C88.1332 48.152 87.4852 48.782 87.3952 49.862H85.1452C85.2892 47.648 86.8912 46.208 89.2132 46.208C91.7332 46.208 93.2092 47.594 93.2092 49.952V56H91.1752ZM87.3052 53.138C87.3052 53.948 87.8812 54.452 88.8172 54.452C90.0952 54.452 90.8692 53.75 90.8692 52.634V51.95C90.2752 51.86 89.8612 51.824 89.4292 51.824C88.0072 51.824 87.3052 52.274 87.3052 53.138ZM97.8673 56H95.3653V46.388H97.6693V47.756C98.3713 46.784 99.2713 46.208 100.549 46.208C101.863 46.208 102.871 46.82 103.357 47.918C104.113 46.856 105.085 46.208 106.525 46.208C108.469 46.208 109.783 47.486 109.783 49.79V56H107.299V50.582C107.299 49.232 106.723 48.422 105.625 48.422C104.635 48.422 103.825 49.196 103.825 50.636V56H101.341V50.582C101.341 49.232 100.765 48.422 99.6673 48.422C98.6593 48.422 97.8673 49.196 97.8673 50.636V56ZM116.172 56.18C113.382 56.18 111.294 53.984 111.294 51.194C111.294 48.386 113.382 46.208 116.172 46.208C118.962 46.208 121.05 48.386 121.05 51.194C121.05 53.984 118.962 56.18 116.172 56.18ZM116.172 53.966C117.414 53.966 118.476 52.976 118.476 51.194C118.476 49.412 117.414 48.44 116.172 48.44C114.93 48.44 113.868 49.412 113.868 51.194C113.868 52.976 114.93 53.966 116.172 53.966ZM125.149 50.762V56H122.647V46.388H124.951V47.756C125.653 46.802 126.643 46.208 127.903 46.208C129.829 46.208 131.161 47.468 131.161 49.79V56H128.677V50.636C128.677 49.214 128.119 48.422 126.985 48.422C125.995 48.422 125.149 49.214 125.149 50.762ZM132.686 51.194C132.686 48.35 134.36 46.208 136.952 46.208C138.104 46.208 139.076 46.712 139.796 47.63V43.076H142.28V56H139.994V54.614C139.238 55.622 138.194 56.18 136.952 56.18C134.36 56.18 132.686 54.002 132.686 51.194ZM135.26 51.194C135.26 52.994 136.286 53.948 137.51 53.948C138.752 53.948 139.778 52.976 139.778 51.158C139.778 49.34 138.734 48.422 137.51 48.422C136.286 48.422 135.26 49.358 135.26 51.194ZM152.865 59.474H150.363C148.887 57.224 148.077 54.254 148.077 51.266C148.077 48.296 148.887 45.326 150.363 43.076H152.865C151.371 45.326 150.651 48.296 150.651 51.266C150.651 54.254 151.371 57.224 152.865 59.474ZM162.028 45.29L157.528 56H154.846L159.256 46.064H153.478V43.832H162.028V45.29ZM163.087 49.934C163.087 45.902 164.779 43.652 167.785 43.652C170.791 43.652 172.501 45.902 172.501 49.934C172.501 53.948 170.827 56.18 167.785 56.18C164.743 56.18 163.087 53.948 163.087 49.934ZM165.661 49.934C165.661 52.544 166.381 53.948 167.785 53.948C169.171 53.948 169.927 52.544 169.927 49.934C169.927 47.306 169.171 45.884 167.785 45.884C166.417 45.884 165.661 47.306 165.661 49.934ZM180.426 54.272H178.086V50.942H174.756V48.782H178.086V45.452H180.426V48.782H183.756V50.942H180.426V54.272ZM192.578 51.338V56H190.076V46.388H192.38V48.242C193.082 47.018 194.576 46.28 196.124 46.28V48.872C194 48.71 192.578 49.214 192.578 51.338ZM201.53 56.162C198.65 56.162 196.724 54.164 196.724 51.158C196.724 48.296 198.722 46.208 201.494 46.208C204.536 46.208 206.552 48.674 206.102 51.806H199.28C199.442 53.372 200.198 54.236 201.476 54.236C202.574 54.236 203.312 53.696 203.6 52.742H206.084C205.544 54.92 203.87 56.162 201.53 56.162ZM201.44 48.044C200.27 48.044 199.532 48.8 199.316 50.222H203.456C203.384 48.89 202.628 48.044 201.44 48.044ZM211.109 56H208.625V48.53H206.681V46.388H208.625V45.866C208.625 43.958 209.651 42.878 211.649 42.878C212.261 42.878 212.783 42.986 213.197 43.166V45.146C212.927 45.038 212.567 44.984 212.243 44.984C211.559 44.984 211.109 45.254 211.109 45.92V46.388H213.611V48.53H211.109V56ZM218.809 56.162C215.929 56.162 214.003 54.164 214.003 51.158C214.003 48.296 216.001 46.208 218.773 46.208C221.815 46.208 223.831 48.674 223.381 51.806H216.559C216.721 53.372 217.477 54.236 218.755 54.236C219.853 54.236 220.591 53.696 220.879 52.742H223.363C222.823 54.92 221.149 56.162 218.809 56.162ZM218.719 48.044C217.549 48.044 216.811 48.8 216.595 50.222H220.735C220.663 48.89 219.907 48.044 218.719 48.044ZM227.559 51.338V56H225.057V46.388H227.361V48.242C228.063 47.018 229.557 46.28 231.105 46.28V48.872C228.981 48.71 227.559 49.214 227.559 51.338ZM234.906 51.338V56H232.404V46.388H234.708V48.242C235.41 47.018 236.904 46.28 238.452 46.28V48.872C236.328 48.71 234.906 49.214 234.906 51.338ZM245.476 56V54.812C244.846 55.712 243.892 56.18 242.578 56.18C240.58 56.18 239.248 55.01 239.248 53.21C239.248 51.338 240.76 50.33 243.568 50.33C244.108 50.33 244.576 50.366 245.17 50.438V49.862C245.17 48.782 244.558 48.152 243.514 48.152C242.434 48.152 241.786 48.782 241.696 49.862H239.446C239.59 47.648 241.192 46.208 243.514 46.208C246.034 46.208 247.51 47.594 247.51 49.952V56H245.476ZM241.606 53.138C241.606 53.948 242.182 54.452 243.118 54.452C244.396 54.452 245.17 53.75 245.17 52.634V51.95C244.576 51.86 244.162 51.824 243.73 51.824C242.308 51.824 241.606 52.274 241.606 53.138ZM252.186 56H249.666V43.076H252.186V56ZM262.548 52.922C262.548 54.938 261.018 56.18 258.282 56.18C255.546 56.18 254.016 54.866 253.818 52.724H256.212C256.23 53.714 257.076 54.344 258.318 54.344C259.29 54.344 260.028 54.038 260.028 53.354C260.028 52.742 259.632 52.49 258.714 52.31L256.986 51.986C255.258 51.68 254.214 50.726 254.214 49.232C254.214 47.45 255.744 46.208 258.138 46.208C260.55 46.208 262.206 47.486 262.386 49.556H259.992C259.902 48.62 259.2 48.044 258.138 48.044C257.22 48.044 256.608 48.386 256.608 48.998C256.608 49.574 257.004 49.808 257.868 49.97L259.722 50.312C261.594 50.672 262.548 51.536 262.548 52.922ZM265.66 59.474H263.176C264.652 57.224 265.372 54.254 265.372 51.266C265.372 48.296 264.652 45.326 263.176 43.076H265.66C267.136 45.326 267.946 48.296 267.946 51.266C267.946 54.254 267.136 57.224 265.66 59.474Z" fill="black"/>
<path d="M27.1878 85L26.0178 81.796H20.4378L19.2498 85H17.2518L22.2018 72.076H24.3798L29.2938 85H27.1878ZM23.2458 74.236L21.0318 80.194H25.4238L23.2458 74.236ZM38.1304 75.46L34.5484 85H32.5684L28.9864 75.46H30.9484L33.5944 82.912L36.2764 75.46H38.1304ZM44.9884 85V83.524C44.3944 84.586 43.3324 85.18 41.9284 85.18C39.9484 85.18 38.6524 84.046 38.6524 82.3C38.6524 80.428 40.1464 79.456 42.9904 79.456C43.5484 79.456 43.9984 79.474 44.7724 79.564V78.862C44.7724 77.494 44.0344 76.72 42.7744 76.72C41.4424 76.72 40.6324 77.512 40.5784 78.844H38.9224C39.0124 76.702 40.5424 75.28 42.7744 75.28C45.1324 75.28 46.5004 76.612 46.5004 78.88V85H44.9884ZM40.3804 82.246C40.3804 83.236 41.1184 83.884 42.2884 83.884C43.8184 83.884 44.7724 82.93 44.7724 81.472V80.698C44.0704 80.608 43.5664 80.59 43.0984 80.59C41.2804 80.59 40.3804 81.13 40.3804 82.246ZM51.1451 73.246C51.1451 73.93 50.6051 74.452 49.8311 74.452C49.0571 74.452 48.4991 73.93 48.4991 73.246C48.4991 72.544 49.0571 72.04 49.8311 72.04C50.6051 72.04 51.1451 72.544 51.1451 73.246ZM50.7491 85H48.9311V75.46H50.7491V85ZM55.1089 85H53.2729V72.076H55.1089V85ZM67.172 85V83.524C66.578 84.586 65.516 85.18 64.112 85.18C62.132 85.18 60.836 84.046 60.836 82.3C60.836 80.428 62.33 79.456 65.174 79.456C65.732 79.456 66.182 79.474 66.956 79.564V78.862C66.956 77.494 66.218 76.72 64.958 76.72C63.626 76.72 62.816 77.512 62.762 78.844H61.106C61.196 76.702 62.726 75.28 64.958 75.28C67.316 75.28 68.684 76.612 68.684 78.88V85H67.172ZM62.564 82.246C62.564 83.236 63.302 83.884 64.472 83.884C66.002 83.884 66.956 82.93 66.956 81.472V80.698C66.254 80.608 65.75 80.59 65.282 80.59C63.464 80.59 62.564 81.13 62.564 82.246ZM72.9327 79.618V85H71.1147V75.46H72.8067V77.044C73.4547 75.982 74.5347 75.28 75.8487 75.28C77.8107 75.28 79.1067 76.54 79.1067 78.826V85H77.2887V79.438C77.2887 77.8 76.5687 76.882 75.2187 76.882C73.9767 76.882 72.9327 77.926 72.9327 79.618ZM87.4967 73.246C87.4967 73.93 86.9567 74.452 86.1827 74.452C85.4087 74.452 84.8507 73.93 84.8507 73.246C84.8507 72.544 85.4087 72.04 86.1827 72.04C86.9567 72.04 87.4967 72.544 87.4967 73.246ZM87.1007 85H85.2827V75.46H87.1007V85ZM91.4425 85H89.6245V75.46H91.3165V77.044C91.9645 75.946 92.9905 75.28 94.3045 75.28C95.7085 75.28 96.7705 76 97.2025 77.26C97.8685 76.036 98.9665 75.28 100.425 75.28C102.387 75.28 103.647 76.558 103.647 78.826V85H101.829V79.402C101.829 77.818 101.127 76.882 99.7945 76.882C98.5525 76.882 97.5445 77.926 97.5445 79.528V85H95.7265V79.402C95.7265 77.818 95.0245 76.882 93.6925 76.882C92.4325 76.882 91.4425 77.926 91.4425 79.528V85ZM115.186 80.23C115.186 83.11 113.53 85.18 110.974 85.18C109.678 85.18 108.58 84.532 107.896 83.38V88.474H106.078V75.46H107.77V77.206C108.454 75.982 109.624 75.28 110.974 75.28C113.512 75.28 115.186 77.35 115.186 80.23ZM113.296 80.23C113.296 78.088 112.162 76.882 110.596 76.882C109.084 76.882 107.896 78.088 107.896 80.23C107.896 82.336 109.066 83.56 110.596 83.56C112.162 83.56 113.296 82.372 113.296 80.23ZM118.847 80.122V85H117.029V75.46H118.721V77.476C119.387 76.162 120.827 75.334 122.393 75.334V77.224C120.341 77.116 118.847 78.016 118.847 80.122ZM127.72 85.18C124.966 85.18 123.112 83.182 123.112 80.176C123.112 77.35 125.038 75.28 127.666 75.28C130.51 75.28 132.4 77.584 132.076 80.68H124.966C125.11 82.624 126.082 83.758 127.684 83.758C129.034 83.758 129.97 83.02 130.276 81.778H132.076C131.608 83.902 129.97 85.18 127.72 85.18ZM127.63 76.648C126.172 76.648 125.182 77.692 124.984 79.474H130.15C130.06 77.71 129.106 76.648 127.63 76.648ZM141.569 82.156C141.569 84.028 140.111 85.18 137.573 85.18C135.053 85.18 133.559 83.938 133.379 81.886H135.125C135.197 83.074 136.151 83.812 137.609 83.812C138.887 83.812 139.733 83.362 139.733 82.462C139.733 81.67 139.247 81.328 138.059 81.094L136.511 80.806C134.747 80.464 133.757 79.564 133.757 78.124C133.757 76.45 135.215 75.28 137.429 75.28C139.715 75.28 141.263 76.504 141.425 78.466H139.679C139.571 77.314 138.725 76.648 137.447 76.648C136.295 76.648 135.521 77.134 135.521 77.962C135.521 78.736 136.007 79.096 137.159 79.312L138.779 79.618C140.669 79.96 141.569 80.788 141.569 82.156ZM151.114 82.156C151.114 84.028 149.656 85.18 147.118 85.18C144.598 85.18 143.104 83.938 142.924 81.886H144.67C144.742 83.074 145.696 83.812 147.154 83.812C148.432 83.812 149.278 83.362 149.278 82.462C149.278 81.67 148.792 81.328 147.604 81.094L146.056 80.806C144.292 80.464 143.302 79.564 143.302 78.124C143.302 76.45 144.76 75.28 146.974 75.28C149.26 75.28 150.808 76.504 150.97 78.466H149.224C149.116 77.314 148.27 76.648 146.992 76.648C145.84 76.648 145.066 77.134 145.066 77.962C145.066 78.736 145.552 79.096 146.704 79.312L148.324 79.618C150.214 79.96 151.114 80.788 151.114 82.156ZM155.313 73.246C155.313 73.93 154.773 74.452 153.999 74.452C153.225 74.452 152.667 73.93 152.667 73.246C152.667 72.544 153.225 72.04 153.999 72.04C154.773 72.04 155.313 72.544 155.313 73.246ZM154.917 85H153.099V75.46H154.917V85ZM165.361 75.46L161.779 85H159.799L156.217 75.46H158.179L160.825 82.912L163.507 75.46H165.361ZM170.277 85.18C167.523 85.18 165.669 83.182 165.669 80.176C165.669 77.35 167.595 75.28 170.223 75.28C173.067 75.28 174.957 77.584 174.633 80.68H167.523C167.667 82.624 168.639 83.758 170.241 83.758C171.591 83.758 172.527 83.02 172.833 81.778H174.633C174.165 83.902 172.527 85.18 170.277 85.18ZM170.187 76.648C168.729 76.648 167.739 77.692 167.541 79.474H172.707C172.617 77.71 171.663 76.648 170.187 76.648ZM183.586 85H181.75V74.416H179.392V72.832H183.586V85ZM185.891 78.934C185.891 74.902 187.493 72.652 190.373 72.652C193.253 72.652 194.873 74.902 194.873 78.934C194.873 82.966 193.289 85.18 190.373 85.18C187.457 85.18 185.891 82.966 185.891 78.934ZM187.763 78.934C187.763 81.94 188.663 83.542 190.373 83.542C192.083 83.542 193.001 81.958 193.001 78.934C193.001 75.892 192.083 74.29 190.373 74.29C188.699 74.29 187.763 75.892 187.763 78.934ZM202.149 80.86H196.551V79.222H202.149V80.86ZM206.578 85H204.742V74.416H202.384V72.832H206.578V85ZM212.969 85.18C210.593 85.18 208.775 83.632 208.685 81.472H210.503C210.629 82.768 211.619 83.542 212.969 83.542C214.643 83.542 215.471 82.498 215.471 81.112C215.471 79.852 214.571 78.754 212.951 78.754C211.871 78.754 211.061 79.204 210.557 80.086L209.081 79.618L210.161 72.832H216.659V74.452H211.475L210.935 77.962C211.619 77.422 212.393 77.17 213.221 77.17C215.903 77.17 217.361 79.042 217.361 81.112C217.361 83.29 215.795 85.18 212.969 85.18ZM222.306 80.284C220.11 80.284 218.526 78.592 218.526 76.504C218.526 74.416 220.11 72.724 222.306 72.724C224.52 72.724 226.104 74.416 226.104 76.504C226.104 78.592 224.52 80.284 222.306 80.284ZM224.898 85H223.404L230.28 72.832H231.774L224.898 85ZM222.306 78.97C223.53 78.97 224.574 78.106 224.574 76.504C224.574 74.884 223.53 74.038 222.306 74.038C221.1 74.038 220.056 74.884 220.056 76.504C220.056 78.106 221.1 78.97 222.306 78.97ZM233.07 85.144C230.856 85.144 229.29 83.47 229.29 81.364C229.29 79.276 230.856 77.584 233.07 77.584C235.284 77.584 236.85 79.276 236.85 81.364C236.85 83.47 235.284 85.144 233.07 85.144ZM233.07 83.83C234.294 83.83 235.32 82.966 235.32 81.364C235.32 79.762 234.294 78.916 233.07 78.916C231.864 78.916 230.802 79.762 230.802 81.364C230.802 82.966 231.864 83.83 233.07 83.83ZM241.73 80.23C241.73 77.332 243.386 75.28 245.96 75.28C247.238 75.28 248.354 75.928 249.02 77.098V72.076H250.838V85H249.146V83.29C248.462 84.496 247.31 85.18 245.96 85.18C243.386 85.18 241.73 83.092 241.73 80.23ZM243.62 80.23C243.62 82.354 244.736 83.56 246.32 83.56C247.868 83.56 249.02 82.3 249.02 80.194C249.02 78.052 247.832 76.882 246.32 76.882C244.736 76.882 243.62 78.07 243.62 80.23ZM255.579 73.246C255.579 73.93 255.039 74.452 254.265 74.452C253.491 74.452 252.933 73.93 252.933 73.246C252.933 72.544 253.491 72.04 254.265 72.04C255.039 72.04 255.579 72.544 255.579 73.246ZM255.183 85H253.365V75.46H255.183V85ZM265.267 82.156C265.267 84.028 263.809 85.18 261.271 85.18C258.751 85.18 257.257 83.938 257.077 81.886H258.823C258.895 83.074 259.849 83.812 261.307 83.812C262.585 83.812 263.431 83.362 263.431 82.462C263.431 81.67 262.945 81.328 261.757 81.094L260.209 80.806C258.445 80.464 257.455 79.564 257.455 78.124C257.455 76.45 258.913 75.28 261.127 75.28C263.413 75.28 264.961 76.504 265.123 78.466H263.377C263.269 77.314 262.423 76.648 261.145 76.648C259.993 76.648 259.219 77.134 259.219 77.962C259.219 78.736 259.705 79.096 260.857 79.312L262.477 79.618C264.367 79.96 265.267 80.788 265.267 82.156ZM271.013 85.198C268.403 85.198 266.567 83.146 266.567 80.23C266.567 77.35 268.439 75.28 271.013 75.28C273.371 75.28 275.081 76.846 275.423 79.33H273.515C273.317 77.8 272.363 76.882 271.031 76.882C269.465 76.882 268.439 78.214 268.439 80.23C268.439 82.264 269.465 83.578 271.031 83.578C272.381 83.578 273.317 82.678 273.533 81.13H275.423C275.099 83.65 273.407 85.198 271.013 85.198ZM281.162 85.18C278.462 85.18 276.482 83.056 276.482 80.23C276.482 77.404 278.462 75.28 281.162 75.28C283.862 75.28 285.842 77.404 285.842 80.23C285.842 83.056 283.862 85.18 281.162 85.18ZM281.162 83.578C282.728 83.578 283.97 82.318 283.97 80.23C283.97 78.142 282.728 76.9 281.162 76.9C279.596 76.9 278.372 78.142 278.372 80.23C278.372 82.318 279.596 83.578 281.162 83.578ZM293.653 81.076V75.46H295.471V85H293.779V83.488C293.275 84.478 292.159 85.18 290.863 85.18C288.937 85.18 287.605 84.046 287.605 81.598V75.46H289.423V81.238C289.423 82.894 290.251 83.578 291.439 83.578C292.663 83.578 293.653 82.57 293.653 81.076ZM299.814 79.618V85H297.996V75.46H299.688V77.044C300.336 75.982 301.416 75.28 302.73 75.28C304.692 75.28 305.988 76.54 305.988 78.826V85H304.17V79.438C304.17 77.8 303.45 76.882 302.1 76.882C300.858 76.882 299.814 77.926 299.814 79.618ZM313.749 83.236V84.838C313.191 85.09 312.705 85.18 312.129 85.18C310.365 85.18 309.141 84.226 309.141 82.12V77.008H307.035V75.46H309.141V72.634H310.959V75.46H313.839V77.008H310.959V81.706C310.959 83.02 311.589 83.488 312.561 83.488C312.993 83.488 313.371 83.416 313.749 83.236ZM318.216 83.704C318.216 84.514 317.658 85.09 316.83 85.09C316.02 85.09 315.444 84.514 315.444 83.704C315.444 82.858 316.02 82.282 316.83 82.282C317.658 82.282 318.216 82.858 318.216 83.704ZM25.9146 107.272V109H17.7246V96.076H25.7886V97.804H19.7046V101.476H25.2486V103.204H19.7046V107.272H25.9146ZM29.9103 103.618V109H28.0923V99.46H29.7843V101.044C30.4323 99.982 31.5123 99.28 32.8263 99.28C34.7883 99.28 36.0843 100.54 36.0843 102.826V109H34.2663V103.438C34.2663 101.8 33.5463 100.882 32.1963 100.882C30.9543 100.882 29.9103 101.926 29.9103 103.618ZM40.7125 97.246C40.7125 97.93 40.1725 98.452 39.3985 98.452C38.6245 98.452 38.0665 97.93 38.0665 97.246C38.0665 96.544 38.6245 96.04 39.3985 96.04C40.1725 96.04 40.7125 96.544 40.7125 97.246ZM40.2985 99.46V109.468C40.2985 111.646 39.1105 112.654 37.3645 112.654C36.9685 112.654 36.5185 112.636 36.1045 112.474V110.764C36.4105 110.908 36.7525 110.962 37.1485 110.962C37.9585 110.962 38.4805 110.53 38.4805 109.432V99.46H40.2985ZM46.8187 109.18C44.1187 109.18 42.1387 107.056 42.1387 104.23C42.1387 101.404 44.1187 99.28 46.8187 99.28C49.5187 99.28 51.4987 101.404 51.4987 104.23C51.4987 107.056 49.5187 109.18 46.8187 109.18ZM46.8187 107.578C48.3847 107.578 49.6267 106.318 49.6267 104.23C49.6267 102.142 48.3847 100.9 46.8187 100.9C45.2527 100.9 44.0287 102.142 44.0287 104.23C44.0287 106.318 45.2527 107.578 46.8187 107.578ZM60.9732 99.46L56.2032 112.474H54.2232L55.5912 108.874L51.8292 99.46H53.7912L56.5632 106.732L59.1372 99.46H60.9732ZM71.8039 109V107.524C71.2099 108.586 70.1479 109.18 68.7439 109.18C66.7639 109.18 65.4679 108.046 65.4679 106.3C65.4679 104.428 66.9619 103.456 69.8059 103.456C70.3639 103.456 70.8139 103.474 71.5879 103.564V102.862C71.5879 101.494 70.8499 100.72 69.5899 100.72C68.2579 100.72 67.4479 101.512 67.3939 102.844H65.7379C65.8279 100.702 67.3579 99.28 69.5899 99.28C71.9479 99.28 73.3159 100.612 73.3159 102.88V109H71.8039ZM67.1959 106.246C67.1959 107.236 67.9339 107.884 69.1039 107.884C70.6339 107.884 71.5879 106.93 71.5879 105.472V104.698C70.8859 104.608 70.3819 104.59 69.9139 104.59C68.0959 104.59 67.1959 105.13 67.1959 106.246ZM83.2163 109.18C80.8403 109.18 79.0223 107.632 78.9323 105.472H80.7503C80.8763 106.768 81.8663 107.542 83.2163 107.542C84.8903 107.542 85.7183 106.498 85.7183 105.112C85.7183 103.852 84.8183 102.754 83.1983 102.754C82.1183 102.754 81.3083 103.204 80.8043 104.086L79.3283 103.618L80.4083 96.832H86.9063V98.452H81.7223L81.1823 101.962C81.8663 101.422 82.6403 101.17 83.4683 101.17C86.1503 101.17 87.6083 103.042 87.6083 105.112C87.6083 107.29 86.0423 109.18 83.2163 109.18ZM89.1147 102.934C89.1147 98.902 90.7167 96.652 93.5967 96.652C96.4767 96.652 98.0967 98.902 98.0967 102.934C98.0967 106.966 96.5127 109.18 93.5967 109.18C90.6807 109.18 89.1147 106.966 89.1147 102.934ZM90.9867 102.934C90.9867 105.94 91.8867 107.542 93.5967 107.542C95.3067 107.542 96.2247 105.958 96.2247 102.934C96.2247 99.892 95.3067 98.29 93.5967 98.29C91.9227 98.29 90.9867 99.892 90.9867 102.934ZM103.293 104.284C101.097 104.284 99.5129 102.592 99.5129 100.504C99.5129 98.416 101.097 96.724 103.293 96.724C105.507 96.724 107.091 98.416 107.091 100.504C107.091 102.592 105.507 104.284 103.293 104.284ZM105.885 109H104.391L111.267 96.832H112.761L105.885 109ZM103.293 102.97C104.517 102.97 105.561 102.106 105.561 100.504C105.561 98.884 104.517 98.038 103.293 98.038C102.087 98.038 101.043 98.884 101.043 100.504C101.043 102.106 102.087 102.97 103.293 102.97ZM114.057 109.144C111.843 109.144 110.277 107.47 110.277 105.364C110.277 103.276 111.843 101.584 114.057 101.584C116.271 101.584 117.837 103.276 117.837 105.364C117.837 107.47 116.271 109.144 114.057 109.144ZM114.057 107.83C115.281 107.83 116.307 106.966 116.307 105.364C116.307 103.762 115.281 102.916 114.057 102.916C112.851 102.916 111.789 103.762 111.789 105.364C111.789 106.966 112.851 107.83 114.057 107.83ZM129.179 109V107.524C128.585 108.586 127.523 109.18 126.119 109.18C124.139 109.18 122.843 108.046 122.843 106.3C122.843 104.428 124.337 103.456 127.181 103.456C127.739 103.456 128.189 103.474 128.963 103.564V102.862C128.963 101.494 128.225 100.72 126.965 100.72C125.633 100.72 124.823 101.512 124.769 102.844H123.113C123.203 100.702 124.733 99.28 126.965 99.28C129.323 99.28 130.691 100.612 130.691 102.88V109H129.179ZM124.571 106.246C124.571 107.236 125.309 107.884 126.479 107.884C128.009 107.884 128.963 106.93 128.963 105.472V104.698C128.261 104.608 127.757 104.59 127.289 104.59C125.471 104.59 124.571 105.13 124.571 106.246ZM136.884 109.198C134.274 109.198 132.438 107.146 132.438 104.23C132.438 101.35 134.31 99.28 136.884 99.28C139.242 99.28 140.952 100.846 141.294 103.33H139.386C139.188 101.8 138.234 100.882 136.902 100.882C135.336 100.882 134.31 102.214 134.31 104.23C134.31 106.264 135.336 107.578 136.902 107.578C138.252 107.578 139.188 106.678 139.404 105.13H141.294C140.97 107.65 139.278 109.198 136.884 109.198ZM146.798 109.198C144.188 109.198 142.352 107.146 142.352 104.23C142.352 101.35 144.224 99.28 146.798 99.28C149.156 99.28 150.866 100.846 151.208 103.33H149.3C149.102 101.8 148.148 100.882 146.816 100.882C145.25 100.882 144.224 102.214 144.224 104.23C144.224 106.264 145.25 107.578 146.816 107.578C148.166 107.578 149.102 106.678 149.318 105.13H151.208C150.884 107.65 149.192 109.198 146.798 109.198ZM156.946 109.18C154.246 109.18 152.266 107.056 152.266 104.23C152.266 101.404 154.246 99.28 156.946 99.28C159.646 99.28 161.626 101.404 161.626 104.23C161.626 107.056 159.646 109.18 156.946 109.18ZM156.946 107.578C158.512 107.578 159.754 106.318 159.754 104.23C159.754 102.142 158.512 100.9 156.946 100.9C155.38 100.9 154.156 102.142 154.156 104.23C154.156 106.318 155.38 107.578 156.946 107.578ZM165.297 109H163.479V99.46H165.171V101.044C165.819 99.946 166.845 99.28 168.159 99.28C169.563 99.28 170.625 100 171.057 101.26C171.723 100.036 172.821 99.28 174.279 99.28C176.241 99.28 177.501 100.558 177.501 102.826V109H175.683V103.402C175.683 101.818 174.981 100.882 173.649 100.882C172.407 100.882 171.399 101.926 171.399 103.528V109H169.581V103.402C169.581 101.818 168.879 100.882 167.547 100.882C166.287 100.882 165.297 101.926 165.297 103.528V109ZM181.75 109H179.932V99.46H181.624V101.044C182.272 99.946 183.298 99.28 184.612 99.28C186.016 99.28 187.078 100 187.51 101.26C188.176 100.036 189.274 99.28 190.732 99.28C192.694 99.28 193.954 100.558 193.954 102.826V109H192.136V103.402C192.136 101.818 191.434 100.882 190.102 100.882C188.86 100.882 187.852 101.926 187.852 103.528V109H186.034V103.402C186.034 101.818 185.332 100.882 184 100.882C182.74 100.882 181.75 101.926 181.75 103.528V109ZM200.381 109.18C197.681 109.18 195.701 107.056 195.701 104.23C195.701 101.404 197.681 99.28 200.381 99.28C203.081 99.28 205.061 101.404 205.061 104.23C205.061 107.056 203.081 109.18 200.381 109.18ZM200.381 107.578C201.947 107.578 203.189 106.318 203.189 104.23C203.189 102.142 201.947 100.9 200.381 100.9C198.815 100.9 197.591 102.142 197.591 104.23C197.591 106.318 198.815 107.578 200.381 107.578ZM206.231 104.23C206.231 101.332 207.887 99.28 210.461 99.28C211.739 99.28 212.855 99.928 213.521 101.098V96.076H215.339V109H213.647V107.29C212.963 108.496 211.811 109.18 210.461 109.18C207.887 109.18 206.231 107.092 206.231 104.23ZM208.121 104.23C208.121 106.354 209.237 107.56 210.821 107.56C212.369 107.56 213.521 106.3 213.521 104.194C213.521 102.052 212.333 100.882 210.821 100.882C209.237 100.882 208.121 102.07 208.121 104.23ZM223.644 109V107.524C223.05 108.586 221.988 109.18 220.584 109.18C218.604 109.18 217.308 108.046 217.308 106.3C217.308 104.428 218.802 103.456 221.646 103.456C222.204 103.456 222.654 103.474 223.428 103.564V102.862C223.428 101.494 222.69 100.72 221.43 100.72C220.098 100.72 219.288 101.512 219.234 102.844H217.578C217.668 100.702 219.198 99.28 221.43 99.28C223.788 99.28 225.156 100.612 225.156 102.88V109H223.644ZM219.036 106.246C219.036 107.236 219.774 107.884 220.944 107.884C222.474 107.884 223.428 106.93 223.428 105.472V104.698C222.726 104.608 222.222 104.59 221.754 104.59C219.936 104.59 219.036 105.13 219.036 106.246ZM232.881 107.236V108.838C232.323 109.09 231.837 109.18 231.261 109.18C229.497 109.18 228.273 108.226 228.273 106.12V101.008H226.167V99.46H228.273V96.634H230.091V99.46H232.971V101.008H230.091V105.706C230.091 107.02 230.721 107.488 231.693 107.488C232.125 107.488 232.503 107.416 232.881 107.236ZM236.92 97.246C236.92 97.93 236.38 98.452 235.606 98.452C234.832 98.452 234.274 97.93 234.274 97.246C234.274 96.544 234.832 96.04 235.606 96.04C236.38 96.04 236.92 96.544 236.92 97.246ZM236.524 109H234.706V99.46H236.524V109ZM243.043 109.18C240.343 109.18 238.363 107.056 238.363 104.23C238.363 101.404 240.343 99.28 243.043 99.28C245.743 99.28 247.723 101.404 247.723 104.23C247.723 107.056 245.743 109.18 243.043 109.18ZM243.043 107.578C244.609 107.578 245.851 106.318 245.851 104.23C245.851 102.142 244.609 100.9 243.043 100.9C241.477 100.9 240.253 102.142 240.253 104.23C240.253 106.318 241.477 107.578 243.043 107.578ZM251.395 103.618V109H249.577V99.46H251.269V101.044C251.917 99.982 252.997 99.28 254.311 99.28C256.273 99.28 257.569 100.54 257.569 102.826V109H255.751V103.438C255.751 101.8 255.031 100.882 253.681 100.882C252.439 100.882 251.395 101.926 251.395 103.618ZM271.629 109L269.469 101.908L267.291 109H265.455L262.701 99.46H264.483L266.409 106.408L268.569 99.46H270.369L272.493 106.426L274.419 99.46H276.219L273.447 109H271.629ZM283.181 109V107.524C282.587 108.586 281.525 109.18 280.121 109.18C278.141 109.18 276.845 108.046 276.845 106.3C276.845 104.428 278.339 103.456 281.183 103.456C281.741 103.456 282.191 103.474 282.965 103.564V102.862C282.965 101.494 282.227 100.72 280.967 100.72C279.635 100.72 278.825 101.512 278.771 102.844H277.115C277.205 100.702 278.735 99.28 280.967 99.28C283.325 99.28 284.693 100.612 284.693 102.88V109H283.181ZM278.573 106.246C278.573 107.236 279.311 107.884 280.481 107.884C282.011 107.884 282.965 106.93 282.965 105.472V104.698C282.263 104.608 281.759 104.59 281.291 104.59C279.473 104.59 278.573 105.13 278.573 106.246ZM289.338 97.246C289.338 97.93 288.798 98.452 288.024 98.452C287.25 98.452 286.692 97.93 286.692 97.246C286.692 96.544 287.25 96.04 288.024 96.04C288.798 96.04 289.338 96.544 289.338 97.246ZM288.942 109H287.124V99.46H288.942V109ZM299.385 99.46L295.803 109H293.823L290.241 99.46H292.203L294.849 106.912L297.531 99.46H299.385ZM304.301 109.18C301.547 109.18 299.693 107.182 299.693 104.176C299.693 101.35 301.619 99.28 304.247 99.28C307.091 99.28 308.981 101.584 308.657 104.68H301.547C301.691 106.624 302.663 107.758 304.265 107.758C305.615 107.758 306.551 107.02 306.857 105.778H308.657C308.189 107.902 306.551 109.18 304.301 109.18ZM304.211 100.648C302.753 100.648 301.763 101.692 301.565 103.474H306.731C306.641 101.71 305.687 100.648 304.211 100.648ZM312.408 104.122V109H310.59V99.46H312.282V101.476C312.948 100.162 314.388 99.334 315.954 99.334V101.224C313.902 101.116 312.408 102.016 312.408 104.122ZM318.787 107.704C318.787 108.514 318.229 109.09 317.401 109.09C316.591 109.09 316.015 108.514 316.015 107.704C316.015 106.858 316.591 106.282 317.401 106.282C318.229 106.282 318.787 106.858 318.787 107.704Z" fill="black"/>
<defs>
<filter id="filter0_d_2830_1007" x="-4" y="0" width="358" height="188" filterUnits="userSpaceOnUse" color-interpolation-filters="sRGB">
<feFlood flood-opacity="0" result="BackgroundImageFix"/>
<feColorMatrix in="SourceAlpha" type="matrix" values="0 0 0 0 0 0 0 0 0 0 0 0 0 0 0 0 0 0 127 0" result="hardAlpha"/>
<feOffset dy="4"/>
<feGaussianBlur stdDeviation="2"/>
<feComposite in2="hardAlpha" operator="out"/>
<feColorMatrix type="matrix" values="0 0 0 0 0 0 0 0 0 0 0 0 0 0 0 0 0 0 0.25 0"/>
<feBlend mode="normal" in2="BackgroundImageFix" result="effect1_dropShadow_2830_1007"/>
<feBlend mode="normal" in="SourceGraphic" in2="effect1_dropShadow_2830_1007" result="shape"/>
</filter>
<filter id="filter1_b_2830_1007" x="-22" y="-22" width="379.472" height="195.667" filterUnits="userSpaceOnUse" color-interpolation-filters="sRGB">
<feFlood flood-opacity="0" result="BackgroundImageFix"/>
<feGaussianBlur in="BackgroundImageFix" stdDeviation="11"/>
<feComposite in2="SourceAlpha" operator="in" result="effect1_backgroundBlur_2830_1007"/>
<feBlend mode="normal" in="SourceGraphic" in2="effect1_backgroundBlur_2830_1007" result="shape"/>
</filter>
<linearGradient id="paint0_linear_2830_1007" x1="0" y1="0" x2="342.987" y2="131.918" gradientUnits="userSpaceOnUse">
<stop stop-color="#546FFE"/>
<stop offset="1" stop-color="#C4A2D5"/>
</linearGradient>
</defs>
</svg>
