<svg width="350" height="180" viewBox="0 0 350 180" fill="none" xmlns="http://www.w3.org/2000/svg">
<mask id="mask0_2829_967" style="mask-type:alpha" maskUnits="userSpaceOnUse" x="0" y="0" width="350" height="180">
<rect width="350" height="180" rx="15" fill="#BFA100"/>
</mask>
<g mask="url(#mask0_2829_967)">
<g filter="url(#filter0_d_2829_967)">
<rect width="350" height="180" rx="15" fill="#BFA100"/>
<rect x="0.5" y="0.5" width="349" height="179" rx="14.5" stroke="black"/>
</g>
<rect x="0.5" y="0.5" width="334.472" height="150.667" rx="12.5" fill="#FFD700" stroke="black"/>
<path d="M27.9421 -14.9542L27.8548 -14.8822L27.8109 -14.7676L-23.8951 120.285L-23.1737 120.993L-4.80073 105.88L-4.71366 105.808L-4.66965 105.694L47.7144 -29.9535L46.9931 -30.6625L27.9421 -14.9542Z" fill="white" stroke="black"/>
</g>
<path d="M91.236 68.27C87.492 68.27 84.576 65.48 84.576 61.484C84.576 57.668 87.348 54.806 91.128 54.806C94.404 54.806 96.744 56.75 97.59 59.558H94.368C93.972 58.244 92.784 57.254 91.056 57.254C88.968 57.254 87.384 58.784 87.384 61.556C87.384 64.04 88.77 65.948 91.362 65.948C93.27 65.948 94.476 64.814 94.836 63.212H91.092V61.034H97.752C97.914 65.246 95.358 68.27 91.236 68.27ZM103.69 68.18C100.9 68.18 98.8122 65.984 98.8122 63.194C98.8122 60.386 100.9 58.208 103.69 58.208C106.48 58.208 108.568 60.386 108.568 63.194C108.568 65.984 106.48 68.18 103.69 68.18ZM103.69 65.966C104.932 65.966 105.994 64.976 105.994 63.194C105.994 61.412 104.932 60.44 103.69 60.44C102.448 60.44 101.386 61.412 101.386 63.194C101.386 64.976 102.448 65.966 103.69 65.966ZM112.685 68H110.165V55.076H112.685V68ZM114.299 63.194C114.299 60.35 115.973 58.208 118.564 58.208C119.717 58.208 120.689 58.712 121.409 59.63V55.076H123.893V68H121.607V66.614C120.851 67.622 119.807 68.18 118.564 68.18C115.973 68.18 114.299 66.002 114.299 63.194ZM116.873 63.194C116.873 64.994 117.899 65.948 119.123 65.948C120.365 65.948 121.391 64.976 121.391 63.158C121.391 61.34 120.347 60.422 119.123 60.422C117.899 60.422 116.873 61.358 116.873 63.194ZM134.477 71.474H131.975C130.499 69.224 129.689 66.254 129.689 63.266C129.689 60.296 130.499 57.326 131.975 55.076H134.477C132.983 57.326 132.263 60.296 132.263 63.266C132.263 66.254 132.983 69.224 134.477 71.474ZM139.596 68.162C136.968 68.162 135.114 66.614 135.096 64.418H137.526C137.598 65.516 138.39 66.182 139.632 66.182C140.928 66.182 141.684 65.534 141.684 64.454C141.684 63.392 140.802 62.762 139.308 62.762H137.994V60.782H139.164C140.388 60.782 141.126 60.17 141.126 59.18C141.126 58.226 140.496 57.632 139.452 57.632C138.426 57.632 137.778 58.28 137.76 59.342H135.33C135.348 57.236 137.184 55.652 139.578 55.652C142.134 55.652 143.7 57.038 143.7 59C143.7 60.116 143.052 60.998 141.882 61.61C143.394 62.096 144.258 63.068 144.258 64.382C144.258 66.632 142.386 68.162 139.596 68.162ZM150.074 68.18C147.482 68.18 145.52 66.56 145.448 64.292H147.95C148.094 65.354 148.922 65.948 150.056 65.948C151.532 65.948 152.09 65.012 152.09 64.022C152.09 63.068 151.46 62.096 149.984 62.096C149.012 62.096 148.292 62.492 147.914 63.32L145.862 62.654L146.924 55.832H153.962V58.064H148.742L148.364 60.548C148.976 60.152 149.678 59.972 150.398 59.972C153.296 59.972 154.682 61.97 154.682 64.022C154.682 66.11 153.134 68.18 150.074 68.18ZM162.301 66.272H159.961V62.942H156.631V60.782H159.961V57.452H162.301V60.782H165.631V62.942H162.301V66.272ZM174.454 63.338V68H171.952V58.388H174.256V60.242C174.958 59.018 176.452 58.28 178 58.28V60.872C175.876 60.71 174.454 61.214 174.454 63.338ZM183.405 68.162C180.525 68.162 178.599 66.164 178.599 63.158C178.599 60.296 180.597 58.208 183.369 58.208C186.411 58.208 188.427 60.674 187.977 63.806H181.155C181.317 65.372 182.073 66.236 183.351 66.236C184.449 66.236 185.187 65.696 185.475 64.742H187.959C187.419 66.92 185.745 68.162 183.405 68.162ZM183.315 60.044C182.145 60.044 181.407 60.8 181.191 62.222H185.331C185.259 60.89 184.503 60.044 183.315 60.044ZM192.985 68H190.501V60.53H188.557V58.388H190.501V57.866C190.501 55.958 191.527 54.878 193.525 54.878C194.137 54.878 194.659 54.986 195.073 55.166V57.146C194.803 57.038 194.443 56.984 194.119 56.984C193.435 56.984 192.985 57.254 192.985 57.92V58.388H195.487V60.53H192.985V68ZM200.685 68.162C197.805 68.162 195.879 66.164 195.879 63.158C195.879 60.296 197.877 58.208 200.649 58.208C203.691 58.208 205.707 60.674 205.257 63.806H198.435C198.597 65.372 199.353 66.236 200.631 66.236C201.729 66.236 202.467 65.696 202.755 64.742H205.239C204.699 66.92 203.025 68.162 200.685 68.162ZM200.595 60.044C199.425 60.044 198.687 60.8 198.471 62.222H202.611C202.539 60.89 201.783 60.044 200.595 60.044ZM209.434 63.338V68H206.932V58.388H209.236V60.242C209.938 59.018 211.432 58.28 212.98 58.28V60.872C210.856 60.71 209.434 61.214 209.434 63.338ZM216.782 63.338V68H214.28V58.388H216.584V60.242C217.286 59.018 218.78 58.28 220.328 58.28V60.872C218.204 60.71 216.782 61.214 216.782 63.338ZM227.352 68V66.812C226.722 67.712 225.768 68.18 224.454 68.18C222.456 68.18 221.124 67.01 221.124 65.21C221.124 63.338 222.636 62.33 225.444 62.33C225.984 62.33 226.452 62.366 227.046 62.438V61.862C227.046 60.782 226.434 60.152 225.39 60.152C224.31 60.152 223.662 60.782 223.572 61.862H221.322C221.466 59.648 223.068 58.208 225.39 58.208C227.91 58.208 229.386 59.594 229.386 61.952V68H227.352ZM223.482 65.138C223.482 65.948 224.058 66.452 224.994 66.452C226.272 66.452 227.046 65.75 227.046 64.634V63.95C226.452 63.86 226.038 63.824 225.606 63.824C224.184 63.824 223.482 64.274 223.482 65.138ZM234.062 68H231.542V55.076H234.062V68ZM244.423 64.922C244.423 66.938 242.893 68.18 240.157 68.18C237.421 68.18 235.891 66.866 235.693 64.724H238.087C238.105 65.714 238.951 66.344 240.193 66.344C241.165 66.344 241.903 66.038 241.903 65.354C241.903 64.742 241.507 64.49 240.589 64.31L238.861 63.986C237.133 63.68 236.089 62.726 236.089 61.232C236.089 59.45 237.619 58.208 240.013 58.208C242.425 58.208 244.081 59.486 244.261 61.556H241.867C241.777 60.62 241.075 60.044 240.013 60.044C239.095 60.044 238.483 60.386 238.483 60.998C238.483 61.574 238.879 61.808 239.743 61.97L241.597 62.312C243.469 62.672 244.423 63.536 244.423 64.922ZM247.536 71.474H245.052C246.528 69.224 247.248 66.254 247.248 63.266C247.248 60.296 246.528 57.326 245.052 55.076H247.536C249.012 57.326 249.822 60.296 249.822 63.266C249.822 66.254 249.012 69.224 247.536 71.474Z" fill="black"/>
<path d="M65.5735 97H63.5935V84.076H68.4175C71.3875 84.076 73.1695 85.534 73.1695 88.108C73.1695 89.962 71.9995 91.384 70.0375 91.852L73.5475 97H71.1715L67.9495 92.14H65.5735V97ZM65.5735 85.732V90.484H68.2915C70.1275 90.484 71.1715 89.674 71.1715 88.108C71.1715 86.56 70.1275 85.732 68.2915 85.732H65.5735ZM78.7817 97.18C76.0277 97.18 74.1737 95.182 74.1737 92.176C74.1737 89.35 76.0997 87.28 78.7277 87.28C81.5717 87.28 83.4617 89.584 83.1377 92.68H76.0277C76.1717 94.624 77.1437 95.758 78.7457 95.758C80.0957 95.758 81.0317 95.02 81.3377 93.778H83.1377C82.6697 95.902 81.0317 97.18 78.7817 97.18ZM78.6917 88.648C77.2337 88.648 76.2437 89.692 76.0457 91.474H81.2117C81.1217 89.71 80.1677 88.648 78.6917 88.648ZM88.6568 97.198C86.0468 97.198 84.2108 95.146 84.2108 92.23C84.2108 89.35 86.0828 87.28 88.6568 87.28C91.0148 87.28 92.7248 88.846 93.0668 91.33H91.1588C90.9608 89.8 90.0068 88.882 88.6748 88.882C87.1088 88.882 86.0828 90.214 86.0828 92.23C86.0828 94.264 87.1088 95.578 88.6748 95.578C90.0248 95.578 90.9608 94.678 91.1768 93.13H93.0668C92.7428 95.65 91.0508 97.198 88.6568 97.198ZM98.7328 97.18C95.9788 97.18 94.1248 95.182 94.1248 92.176C94.1248 89.35 96.0508 87.28 98.6788 87.28C101.523 87.28 103.413 89.584 103.089 92.68H95.9788C96.1228 94.624 97.0948 95.758 98.6968 95.758C100.047 95.758 100.983 95.02 101.289 93.778H103.089C102.621 95.902 100.983 97.18 98.7328 97.18ZM98.6428 88.648C97.1848 88.648 96.1948 89.692 95.9968 91.474H101.163C101.073 89.71 100.119 88.648 98.6428 88.648ZM107.236 85.246C107.236 85.93 106.696 86.452 105.922 86.452C105.148 86.452 104.59 85.93 104.59 85.246C104.59 84.544 105.148 84.04 105.922 84.04C106.696 84.04 107.236 84.544 107.236 85.246ZM106.84 97H105.022V87.46H106.84V97ZM117.284 87.46L113.702 97H111.722L108.14 87.46H110.102L112.748 94.912L115.43 87.46H117.284ZM122.2 97.18C119.446 97.18 117.592 95.182 117.592 92.176C117.592 89.35 119.518 87.28 122.146 87.28C124.99 87.28 126.88 89.584 126.556 92.68H119.446C119.59 94.624 120.562 95.758 122.164 95.758C123.514 95.758 124.45 95.02 124.756 93.778H126.556C126.088 95.902 124.45 97.18 122.2 97.18ZM122.11 88.648C120.652 88.648 119.662 89.692 119.464 91.474H124.63C124.54 89.71 123.586 88.648 122.11 88.648ZM138.028 97V95.524C137.434 96.586 136.372 97.18 134.968 97.18C132.988 97.18 131.692 96.046 131.692 94.3C131.692 92.428 133.186 91.456 136.03 91.456C136.588 91.456 137.038 91.474 137.812 91.564V90.862C137.812 89.494 137.074 88.72 135.814 88.72C134.482 88.72 133.672 89.512 133.618 90.844H131.962C132.052 88.702 133.582 87.28 135.814 87.28C138.172 87.28 139.54 88.612 139.54 90.88V97H138.028ZM133.42 94.246C133.42 95.236 134.158 95.884 135.328 95.884C136.858 95.884 137.812 94.93 137.812 93.472V92.698C137.11 92.608 136.606 92.59 136.138 92.59C134.32 92.59 133.42 93.13 133.42 94.246ZM149.441 97.18C147.065 97.18 145.247 95.632 145.157 93.472H146.975C147.101 94.768 148.091 95.542 149.441 95.542C151.115 95.542 151.943 94.498 151.943 93.112C151.943 91.852 151.043 90.754 149.423 90.754C148.343 90.754 147.533 91.204 147.029 92.086L145.553 91.618L146.633 84.832H153.131V86.452H147.947L147.407 89.962C148.091 89.422 148.865 89.17 149.693 89.17C152.375 89.17 153.833 91.042 153.833 93.112C153.833 95.29 152.267 97.18 149.441 97.18ZM160.681 92.86H155.083V91.222H160.681V92.86ZM170.753 93.58C170.753 95.704 168.953 97.162 166.307 97.162C163.643 97.162 161.825 95.704 161.825 93.58C161.825 92.104 162.833 91.132 164.111 90.664C163.085 90.214 162.311 89.26 162.311 88.018C162.311 86.038 163.967 84.652 166.307 84.652C168.611 84.652 170.285 86.038 170.285 88.018C170.285 89.26 169.493 90.214 168.485 90.664C169.763 91.132 170.753 92.104 170.753 93.58ZM164.183 88.072C164.183 89.26 165.047 89.98 166.307 89.98C167.549 89.98 168.413 89.26 168.413 88.072C168.413 86.866 167.549 86.11 166.307 86.11C165.047 86.11 164.183 86.866 164.183 88.072ZM163.733 93.544C163.733 94.894 164.777 95.704 166.307 95.704C167.819 95.704 168.881 94.894 168.881 93.544C168.881 92.23 167.819 91.438 166.307 91.438C164.777 91.438 163.733 92.23 163.733 93.544ZM175.951 92.284C173.755 92.284 172.171 90.592 172.171 88.504C172.171 86.416 173.755 84.724 175.951 84.724C178.165 84.724 179.749 86.416 179.749 88.504C179.749 90.592 178.165 92.284 175.951 92.284ZM178.543 97H177.049L183.925 84.832H185.419L178.543 97ZM175.951 90.97C177.175 90.97 178.219 90.106 178.219 88.504C178.219 86.884 177.175 86.038 175.951 86.038C174.745 86.038 173.701 86.884 173.701 88.504C173.701 90.106 174.745 90.97 175.951 90.97ZM186.715 97.144C184.501 97.144 182.935 95.47 182.935 93.364C182.935 91.276 184.501 89.584 186.715 89.584C188.929 89.584 190.495 91.276 190.495 93.364C190.495 95.47 188.929 97.144 186.715 97.144ZM186.715 95.83C187.939 95.83 188.965 94.966 188.965 93.364C188.965 91.762 187.939 90.916 186.715 90.916C185.509 90.916 184.447 91.762 184.447 93.364C184.447 94.966 185.509 95.83 186.715 95.83ZM195.375 92.23C195.375 89.332 197.031 87.28 199.605 87.28C200.883 87.28 201.999 87.928 202.665 89.098V84.076H204.483V97H202.791V95.29C202.107 96.496 200.955 97.18 199.605 97.18C197.031 97.18 195.375 95.092 195.375 92.23ZM197.265 92.23C197.265 94.354 198.381 95.56 199.965 95.56C201.513 95.56 202.665 94.3 202.665 92.194C202.665 90.052 201.477 88.882 199.965 88.882C198.381 88.882 197.265 90.07 197.265 92.23ZM209.224 85.246C209.224 85.93 208.684 86.452 207.91 86.452C207.136 86.452 206.578 85.93 206.578 85.246C206.578 84.544 207.136 84.04 207.91 84.04C208.684 84.04 209.224 84.544 209.224 85.246ZM208.828 97H207.01V87.46H208.828V97ZM218.912 94.156C218.912 96.028 217.454 97.18 214.916 97.18C212.396 97.18 210.902 95.938 210.722 93.886H212.468C212.54 95.074 213.494 95.812 214.952 95.812C216.23 95.812 217.076 95.362 217.076 94.462C217.076 93.67 216.59 93.328 215.402 93.094L213.854 92.806C212.09 92.464 211.1 91.564 211.1 90.124C211.1 88.45 212.558 87.28 214.772 87.28C217.058 87.28 218.606 88.504 218.768 90.466H217.022C216.914 89.314 216.068 88.648 214.79 88.648C213.638 88.648 212.864 89.134 212.864 89.962C212.864 90.736 213.35 91.096 214.502 91.312L216.122 91.618C218.012 91.96 218.912 92.788 218.912 94.156ZM224.659 97.198C222.049 97.198 220.213 95.146 220.213 92.23C220.213 89.35 222.085 87.28 224.659 87.28C227.017 87.28 228.727 88.846 229.069 91.33H227.161C226.963 89.8 226.009 88.882 224.677 88.882C223.111 88.882 222.085 90.214 222.085 92.23C222.085 94.264 223.111 95.578 224.677 95.578C226.027 95.578 226.963 94.678 227.179 93.13H229.069C228.745 95.65 227.053 97.198 224.659 97.198ZM234.807 97.18C232.107 97.18 230.127 95.056 230.127 92.23C230.127 89.404 232.107 87.28 234.807 87.28C237.507 87.28 239.487 89.404 239.487 92.23C239.487 95.056 237.507 97.18 234.807 97.18ZM234.807 95.578C236.373 95.578 237.615 94.318 237.615 92.23C237.615 90.142 236.373 88.9 234.807 88.9C233.241 88.9 232.017 90.142 232.017 92.23C232.017 94.318 233.241 95.578 234.807 95.578ZM247.298 93.076V87.46H249.116V97H247.424V95.488C246.92 96.478 245.804 97.18 244.508 97.18C242.582 97.18 241.25 96.046 241.25 93.598V87.46H243.068V93.238C243.068 94.894 243.896 95.578 245.084 95.578C246.308 95.578 247.298 94.57 247.298 93.076ZM253.459 91.618V97H251.641V87.46H253.333V89.044C253.981 87.982 255.061 87.28 256.375 87.28C258.337 87.28 259.633 88.54 259.633 90.826V97H257.815V91.438C257.815 89.8 257.095 88.882 255.745 88.882C254.503 88.882 253.459 89.926 253.459 91.618ZM267.394 95.236V96.838C266.836 97.09 266.35 97.18 265.774 97.18C264.01 97.18 262.786 96.226 262.786 94.12V89.008H260.68V87.46H262.786V84.634H264.604V87.46H267.484V89.008H264.604V93.706C264.604 95.02 265.234 95.488 266.206 95.488C266.638 95.488 267.016 95.416 267.394 95.236ZM271.861 95.704C271.861 96.514 271.303 97.09 270.475 97.09C269.665 97.09 269.089 96.514 269.089 95.704C269.089 94.858 269.665 94.282 270.475 94.282C271.303 94.282 271.861 94.858 271.861 95.704Z" fill="black"/>
<defs>
<filter id="filter0_d_2829_967" x="-4" y="0" width="358" height="188" filterUnits="userSpaceOnUse" color-interpolation-filters="sRGB">
<feFlood flood-opacity="0" result="BackgroundImageFix"/>
<feColorMatrix in="SourceAlpha" type="matrix" values="0 0 0 0 0 0 0 0 0 0 0 0 0 0 0 0 0 0 127 0" result="hardAlpha"/>
<feOffset dy="4"/>
<feGaussianBlur stdDeviation="2"/>
<feComposite in2="hardAlpha" operator="out"/>
<feColorMatrix type="matrix" values="0 0 0 0 0 0 0 0 0 0 0 0 0 0 0 0 0 0 0.25 0"/>
<feBlend mode="normal" in2="BackgroundImageFix" result="effect1_dropShadow_2829_967"/>
<feBlend mode="normal" in="SourceGraphic" in2="effect1_dropShadow_2829_967" result="shape"/>
</filter>
</defs>
</svg>
