<svg width="350" height="180" viewBox="0 0 350 180" fill="none" xmlns="http://www.w3.org/2000/svg">
<mask id="mask0_2830_1006" style="mask-type:alpha" maskUnits="userSpaceOnUse" x="0" y="0" width="350" height="180">
<rect width="350" height="180" rx="15" fill="#BFA100"/>
</mask>
<g mask="url(#mask0_2830_1006)">
<g filter="url(#filter0_d_2830_1006)">
<rect width="350" height="180" rx="15" fill="#ACABA9"/>
<rect x="0.5" y="0.5" width="349" height="179" rx="14.5" stroke="black"/>
</g>
<rect x="0.5" y="0.5" width="334.472" height="150.667" rx="12.5" fill="#E5E4E2" stroke="black"/>
<path d="M27.9421 -14.9543L27.8548 -14.8822L27.8109 -14.7676L-23.8951 120.285L-23.1737 120.993L-4.80073 105.88L-4.71367 105.808L-4.66966 105.694L47.7144 -29.9535L46.9931 -30.6625L27.9421 -14.9543Z" fill="white" stroke="black"/>
</g>
<path d="M72.602 39.788H70.568V44H67.832V31.076H72.602C75.752 31.076 77.714 32.57 77.714 35.378C77.714 38.186 75.752 39.788 72.602 39.788ZM72.584 33.38H70.568V37.484H72.584C74.132 37.484 74.996 36.674 74.996 35.396C74.996 34.118 74.132 33.38 72.584 33.38ZM81.8782 44H79.3582V31.076H81.8782V44ZM89.8459 44V42.812C89.2159 43.712 88.2619 44.18 86.9479 44.18C84.9499 44.18 83.6179 43.01 83.6179 41.21C83.6179 39.338 85.1299 38.33 87.9379 38.33C88.4779 38.33 88.9459 38.366 89.5399 38.438V37.862C89.5399 36.782 88.9279 36.152 87.8839 36.152C86.8039 36.152 86.1559 36.782 86.0659 37.862H83.8159C83.9599 35.648 85.5619 34.208 87.8839 34.208C90.4039 34.208 91.8799 35.594 91.8799 37.952V44H89.8459ZM85.9759 41.138C85.9759 41.948 86.5519 42.452 87.4879 42.452C88.7659 42.452 89.5399 41.75 89.5399 40.634V39.95C88.9459 39.86 88.5319 39.824 88.0999 39.824C86.6779 39.824 85.9759 40.274 85.9759 41.138ZM99.8713 41.57V43.748C99.2593 44.054 98.6833 44.18 97.9453 44.18C95.9653 44.18 94.7233 43.046 94.7233 40.886V36.53H92.7793V34.388H94.7233V31.544H97.2073V34.388H99.9613V36.53H97.2073V40.31C97.2073 41.426 97.7113 41.876 98.6113 41.876C99.0793 41.876 99.5113 41.768 99.8713 41.57ZM104.387 32.156C104.387 33.002 103.703 33.632 102.713 33.632C101.741 33.632 101.057 33.002 101.057 32.156C101.057 31.274 101.741 30.644 102.713 30.644C103.703 30.644 104.387 31.274 104.387 32.156ZM103.991 44H101.489V34.388H103.991V44ZM108.72 38.762V44H106.218V34.388H108.522V35.756C109.224 34.802 110.214 34.208 111.474 34.208C113.4 34.208 114.732 35.468 114.732 37.79V44H112.248V38.636C112.248 37.214 111.69 36.422 110.556 36.422C109.566 36.422 108.72 37.214 108.72 38.762ZM122.737 39.95V34.388H125.221V44H122.935V42.74C122.413 43.586 121.351 44.18 120.127 44.18C118.201 44.18 116.797 43.01 116.797 40.508V34.388H119.299V40.022C119.299 41.372 119.965 41.966 120.973 41.966C121.873 41.966 122.737 41.246 122.737 39.95ZM129.972 44H127.47V34.388H129.774V35.756C130.476 34.784 131.376 34.208 132.654 34.208C133.968 34.208 134.976 34.82 135.462 35.918C136.218 34.856 137.19 34.208 138.63 34.208C140.574 34.208 141.888 35.486 141.888 37.79V44H139.404V38.582C139.404 37.232 138.828 36.422 137.73 36.422C136.74 36.422 135.93 37.196 135.93 38.636V44H133.446V38.582C133.446 37.232 132.87 36.422 131.772 36.422C130.764 36.422 129.972 37.196 129.972 38.636V44ZM152.38 47.474H149.878C148.402 45.224 147.592 42.254 147.592 39.266C147.592 36.296 148.402 33.326 149.878 31.076H152.38C150.886 33.326 150.166 36.296 150.166 39.266C150.166 42.254 150.886 45.224 152.38 47.474ZM157.57 44.18C154.978 44.18 153.016 42.56 152.944 40.292H155.446C155.59 41.354 156.418 41.948 157.552 41.948C159.028 41.948 159.586 41.012 159.586 40.022C159.586 39.068 158.956 38.096 157.48 38.096C156.508 38.096 155.788 38.492 155.41 39.32L153.358 38.654L154.42 31.832H161.458V34.064H156.238L155.86 36.548C156.472 36.152 157.174 35.972 157.894 35.972C160.792 35.972 162.178 37.97 162.178 40.022C162.178 42.11 160.63 44.18 157.57 44.18ZM163.516 37.934C163.516 33.902 165.208 31.652 168.214 31.652C171.22 31.652 172.93 33.902 172.93 37.934C172.93 41.948 171.256 44.18 168.214 44.18C165.172 44.18 163.516 41.948 163.516 37.934ZM166.09 37.934C166.09 40.544 166.81 41.948 168.214 41.948C169.6 41.948 170.356 40.544 170.356 37.934C170.356 35.306 169.6 33.884 168.214 33.884C166.846 33.884 166.09 35.306 166.09 37.934ZM180.854 42.272H178.514V38.942H175.184V36.782H178.514V33.452H180.854V36.782H184.184V38.942H180.854V42.272ZM193.007 39.338V44H190.505V34.388H192.809V36.242C193.511 35.018 195.005 34.28 196.553 34.28V36.872C194.429 36.71 193.007 37.214 193.007 39.338ZM201.958 44.162C199.078 44.162 197.152 42.164 197.152 39.158C197.152 36.296 199.15 34.208 201.922 34.208C204.964 34.208 206.98 36.674 206.53 39.806H199.708C199.87 41.372 200.626 42.236 201.904 42.236C203.002 42.236 203.74 41.696 204.028 40.742H206.512C205.972 42.92 204.298 44.162 201.958 44.162ZM201.868 36.044C200.698 36.044 199.96 36.8 199.744 38.222H203.884C203.812 36.89 203.056 36.044 201.868 36.044ZM211.538 44H209.054V36.53H207.11V34.388H209.054V33.866C209.054 31.958 210.08 30.878 212.078 30.878C212.69 30.878 213.212 30.986 213.626 31.166V33.146C213.356 33.038 212.996 32.984 212.672 32.984C211.988 32.984 211.538 33.254 211.538 33.92V34.388H214.04V36.53H211.538V44ZM219.237 44.162C216.357 44.162 214.431 42.164 214.431 39.158C214.431 36.296 216.429 34.208 219.201 34.208C222.243 34.208 224.259 36.674 223.809 39.806H216.987C217.149 41.372 217.905 42.236 219.183 42.236C220.281 42.236 221.019 41.696 221.307 40.742H223.791C223.251 42.92 221.577 44.162 219.237 44.162ZM219.147 36.044C217.977 36.044 217.239 36.8 217.023 38.222H221.163C221.091 36.89 220.335 36.044 219.147 36.044ZM227.987 39.338V44H225.485V34.388H227.789V36.242C228.491 35.018 229.985 34.28 231.533 34.28V36.872C229.409 36.71 227.987 37.214 227.987 39.338ZM235.335 39.338V44H232.833V34.388H235.137V36.242C235.839 35.018 237.333 34.28 238.881 34.28V36.872C236.757 36.71 235.335 37.214 235.335 39.338ZM245.904 44V42.812C245.274 43.712 244.32 44.18 243.006 44.18C241.008 44.18 239.676 43.01 239.676 41.21C239.676 39.338 241.188 38.33 243.996 38.33C244.536 38.33 245.004 38.366 245.598 38.438V37.862C245.598 36.782 244.986 36.152 243.942 36.152C242.862 36.152 242.214 36.782 242.124 37.862H239.874C240.018 35.648 241.62 34.208 243.942 34.208C246.462 34.208 247.938 35.594 247.938 37.952V44H245.904ZM242.034 41.138C242.034 41.948 242.61 42.452 243.546 42.452C244.824 42.452 245.598 41.75 245.598 40.634V39.95C245.004 39.86 244.59 39.824 244.158 39.824C242.736 39.824 242.034 40.274 242.034 41.138ZM252.615 44H250.095V31.076H252.615V44ZM262.976 40.922C262.976 42.938 261.446 44.18 258.71 44.18C255.974 44.18 254.444 42.866 254.246 40.724H256.64C256.658 41.714 257.504 42.344 258.746 42.344C259.718 42.344 260.456 42.038 260.456 41.354C260.456 40.742 260.06 40.49 259.142 40.31L257.414 39.986C255.686 39.68 254.642 38.726 254.642 37.232C254.642 35.45 256.172 34.208 258.566 34.208C260.978 34.208 262.634 35.486 262.814 37.556H260.42C260.33 36.62 259.628 36.044 258.566 36.044C257.648 36.044 257.036 36.386 257.036 36.998C257.036 37.574 257.432 37.808 258.296 37.97L260.15 38.312C262.022 38.672 262.976 39.536 262.976 40.922ZM266.088 47.474H263.604C265.08 45.224 265.8 42.254 265.8 39.266C265.8 36.296 265.08 33.326 263.604 31.076H266.088C267.564 33.326 268.374 36.296 268.374 39.266C268.374 42.254 267.564 45.224 266.088 47.474Z" fill="black"/>
<path d="M73.3624 73.27C69.6364 73.27 66.7564 70.444 66.7564 66.52C66.7564 62.704 69.4924 59.806 73.2544 59.806C76.5844 59.806 78.8344 61.84 79.6264 64.522H77.3224C76.8364 62.866 75.4144 61.588 73.2004 61.588C70.6444 61.588 68.8084 63.514 68.8084 66.556C68.8084 69.418 70.5544 71.578 73.4344 71.578C75.8284 71.578 77.3404 70.102 77.7004 67.888H73.2364V66.304H79.7884C79.8604 70.444 77.3224 73.27 73.3624 73.27ZM83.5301 68.122V73H81.7121V63.46H83.4041V65.476C84.0701 64.162 85.5101 63.334 87.0761 63.334V65.224C85.0241 65.116 83.5301 66.016 83.5301 68.122ZM94.2929 73V71.524C93.6989 72.586 92.6369 73.18 91.2329 73.18C89.2529 73.18 87.9569 72.046 87.9569 70.3C87.9569 68.428 89.4509 67.456 92.2949 67.456C92.8529 67.456 93.3029 67.474 94.0769 67.564V66.862C94.0769 65.494 93.3389 64.72 92.0789 64.72C90.7469 64.72 89.9369 65.512 89.8829 66.844H88.2269C88.3169 64.702 89.8469 63.28 92.0789 63.28C94.4369 63.28 95.8049 64.612 95.8049 66.88V73H94.2929ZM89.6849 70.246C89.6849 71.236 90.4229 71.884 91.5929 71.884C93.1229 71.884 94.0769 70.93 94.0769 69.472V68.698C93.3749 68.608 92.8709 68.59 92.4029 68.59C90.5849 68.59 89.6849 69.13 89.6849 70.246ZM107.344 68.23C107.344 71.092 105.688 73.18 103.114 73.18C101.764 73.18 100.612 72.496 99.9276 71.29V73H98.2356V60.076H100.054V65.098C100.72 63.928 101.818 63.28 103.114 63.28C105.67 63.28 107.344 65.332 107.344 68.23ZM105.454 68.23C105.454 66.07 104.32 64.882 102.754 64.882C101.242 64.882 100.054 66.052 100.054 68.194C100.054 70.3 101.206 71.56 102.754 71.56C104.32 71.56 105.454 70.354 105.454 68.23ZM118.726 73V71.524C118.132 72.586 117.07 73.18 115.666 73.18C113.686 73.18 112.39 72.046 112.39 70.3C112.39 68.428 113.884 67.456 116.728 67.456C117.286 67.456 117.736 67.474 118.51 67.564V66.862C118.51 65.494 117.772 64.72 116.512 64.72C115.18 64.72 114.37 65.512 114.316 66.844H112.66C112.75 64.702 114.28 63.28 116.512 63.28C118.87 63.28 120.238 64.612 120.238 66.88V73H118.726ZM114.118 70.246C114.118 71.236 114.856 71.884 116.026 71.884C117.556 71.884 118.51 70.93 118.51 69.472V68.698C117.808 68.608 117.304 68.59 116.836 68.59C115.018 68.59 114.118 69.13 114.118 70.246ZM124.487 67.618V73H122.669V63.46H124.361V65.044C125.009 63.982 126.089 63.28 127.403 63.28C129.365 63.28 130.661 64.54 130.661 66.826V73H128.843V67.438C128.843 65.8 128.123 64.882 126.773 64.882C125.531 64.882 124.487 65.926 124.487 67.618ZM145.369 69.58C145.369 71.704 143.569 73.162 140.923 73.162C138.259 73.162 136.441 71.704 136.441 69.58C136.441 68.104 137.449 67.132 138.727 66.664C137.701 66.214 136.927 65.26 136.927 64.018C136.927 62.038 138.583 60.652 140.923 60.652C143.227 60.652 144.901 62.038 144.901 64.018C144.901 65.26 144.109 66.214 143.101 66.664C144.379 67.132 145.369 68.104 145.369 69.58ZM138.799 64.072C138.799 65.26 139.663 65.98 140.923 65.98C142.165 65.98 143.029 65.26 143.029 64.072C143.029 62.866 142.165 62.11 140.923 62.11C139.663 62.11 138.799 62.866 138.799 64.072ZM138.349 69.544C138.349 70.894 139.393 71.704 140.923 71.704C142.435 71.704 143.497 70.894 143.497 69.544C143.497 68.23 142.435 67.438 140.923 67.438C139.393 67.438 138.349 68.23 138.349 69.544ZM152.119 68.86H146.521V67.222H152.119V68.86ZM156.548 73H154.712V62.416H152.354V60.832H156.548V73ZM158.854 66.934C158.854 62.902 160.456 60.652 163.336 60.652C166.216 60.652 167.836 62.902 167.836 66.934C167.836 70.966 166.252 73.18 163.336 73.18C160.42 73.18 158.854 70.966 158.854 66.934ZM160.726 66.934C160.726 69.94 161.626 71.542 163.336 71.542C165.046 71.542 165.964 69.958 165.964 66.934C165.964 63.892 165.046 62.29 163.336 62.29C161.662 62.29 160.726 63.892 160.726 66.934ZM173.032 68.284C170.836 68.284 169.252 66.592 169.252 64.504C169.252 62.416 170.836 60.724 173.032 60.724C175.246 60.724 176.83 62.416 176.83 64.504C176.83 66.592 175.246 68.284 173.032 68.284ZM175.624 73H174.13L181.006 60.832H182.5L175.624 73ZM173.032 66.97C174.256 66.97 175.3 66.106 175.3 64.504C175.3 62.884 174.256 62.038 173.032 62.038C171.826 62.038 170.782 62.884 170.782 64.504C170.782 66.106 171.826 66.97 173.032 66.97ZM183.796 73.144C181.582 73.144 180.016 71.47 180.016 69.364C180.016 67.276 181.582 65.584 183.796 65.584C186.01 65.584 187.576 67.276 187.576 69.364C187.576 71.47 186.01 73.144 183.796 73.144ZM183.796 71.83C185.02 71.83 186.046 70.966 186.046 69.364C186.046 67.762 185.02 66.916 183.796 66.916C182.59 66.916 181.528 67.762 181.528 69.364C181.528 70.966 182.59 71.83 183.796 71.83ZM192.456 68.23C192.456 65.332 194.112 63.28 196.686 63.28C197.964 63.28 199.08 63.928 199.746 65.098V60.076H201.564V73H199.872V71.29C199.188 72.496 198.036 73.18 196.686 73.18C194.112 73.18 192.456 71.092 192.456 68.23ZM194.346 68.23C194.346 70.354 195.462 71.56 197.046 71.56C198.594 71.56 199.746 70.3 199.746 68.194C199.746 66.052 198.558 64.882 197.046 64.882C195.462 64.882 194.346 66.07 194.346 68.23ZM206.305 61.246C206.305 61.93 205.765 62.452 204.991 62.452C204.217 62.452 203.659 61.93 203.659 61.246C203.659 60.544 204.217 60.04 204.991 60.04C205.765 60.04 206.305 60.544 206.305 61.246ZM205.909 73H204.091V63.46H205.909V73ZM215.993 70.156C215.993 72.028 214.535 73.18 211.997 73.18C209.477 73.18 207.983 71.938 207.803 69.886H209.549C209.621 71.074 210.575 71.812 212.033 71.812C213.311 71.812 214.157 71.362 214.157 70.462C214.157 69.67 213.671 69.328 212.483 69.094L210.935 68.806C209.171 68.464 208.181 67.564 208.181 66.124C208.181 64.45 209.639 63.28 211.853 63.28C214.139 63.28 215.687 64.504 215.849 66.466H214.103C213.995 65.314 213.149 64.648 211.871 64.648C210.719 64.648 209.945 65.134 209.945 65.962C209.945 66.736 210.431 67.096 211.583 67.312L213.203 67.618C215.093 67.96 215.993 68.788 215.993 70.156ZM221.74 73.198C219.13 73.198 217.294 71.146 217.294 68.23C217.294 65.35 219.166 63.28 221.74 63.28C224.098 63.28 225.808 64.846 226.15 67.33H224.242C224.044 65.8 223.09 64.882 221.758 64.882C220.192 64.882 219.166 66.214 219.166 68.23C219.166 70.264 220.192 71.578 221.758 71.578C223.108 71.578 224.044 70.678 224.26 69.13H226.15C225.826 71.65 224.134 73.198 221.74 73.198ZM231.888 73.18C229.188 73.18 227.208 71.056 227.208 68.23C227.208 65.404 229.188 63.28 231.888 63.28C234.588 63.28 236.568 65.404 236.568 68.23C236.568 71.056 234.588 73.18 231.888 73.18ZM231.888 71.578C233.454 71.578 234.696 70.318 234.696 68.23C234.696 66.142 233.454 64.9 231.888 64.9C230.322 64.9 229.098 66.142 229.098 68.23C229.098 70.318 230.322 71.578 231.888 71.578ZM244.379 69.076V63.46H246.197V73H244.505V71.488C244.001 72.478 242.885 73.18 241.589 73.18C239.663 73.18 238.331 72.046 238.331 69.598V63.46H240.149V69.238C240.149 70.894 240.977 71.578 242.165 71.578C243.389 71.578 244.379 70.57 244.379 69.076ZM250.54 67.618V73H248.722V63.46H250.414V65.044C251.062 63.982 252.142 63.28 253.456 63.28C255.418 63.28 256.714 64.54 256.714 66.826V73H254.896V67.438C254.896 65.8 254.176 64.882 252.826 64.882C251.584 64.882 250.54 65.926 250.54 67.618ZM264.475 71.236V72.838C263.917 73.09 263.431 73.18 262.855 73.18C261.091 73.18 259.867 72.226 259.867 70.12V65.008H257.761V63.46H259.867V60.634H261.685V63.46H264.565V65.008H261.685V69.706C261.685 71.02 262.315 71.488 263.287 71.488C263.719 71.488 264.097 71.416 264.475 71.236ZM268.942 71.704C268.942 72.514 268.384 73.09 267.556 73.09C266.746 73.09 266.17 72.514 266.17 71.704C266.17 70.858 266.746 70.282 267.556 70.282C268.384 70.282 268.942 70.858 268.942 71.704ZM46.471 92.5H43.969V97H41.989V84.076H46.471C49.369 84.076 51.241 85.552 51.241 88.252C51.241 90.97 49.369 92.5 46.471 92.5ZM46.453 85.75H43.969V90.826H46.453C48.199 90.826 49.261 89.872 49.261 88.27C49.261 86.668 48.199 85.75 46.453 85.75ZM54.9134 97H53.0774V84.076H54.9134V97ZM63.3948 93.076V87.46H65.2128V97H63.5208V95.488C63.0168 96.478 61.9008 97.18 60.6048 97.18C58.6788 97.18 57.3468 96.046 57.3468 93.598V87.46H59.1648V93.238C59.1648 94.894 59.9928 95.578 61.1808 95.578C62.4048 95.578 63.3948 94.57 63.3948 93.076ZM75.2975 94.156C75.2975 96.028 73.8395 97.18 71.3015 97.18C68.7815 97.18 67.2875 95.938 67.1075 93.886H68.8535C68.9255 95.074 69.8795 95.812 71.3375 95.812C72.6155 95.812 73.4615 95.362 73.4615 94.462C73.4615 93.67 72.9755 93.328 71.7875 93.094L70.2395 92.806C68.4755 92.464 67.4855 91.564 67.4855 90.124C67.4855 88.45 68.9435 87.28 71.1575 87.28C73.4435 87.28 74.9915 88.504 75.1535 90.466H73.4075C73.2995 89.314 72.4535 88.648 71.1755 88.648C70.0235 88.648 69.2495 89.134 69.2495 89.962C69.2495 90.736 69.7355 91.096 70.8875 91.312L72.5075 91.618C74.3975 91.96 75.2975 92.788 75.2975 94.156ZM79.7485 96.226C79.7485 97.936 78.3985 99.268 76.4185 99.304V98.278C77.5885 98.242 78.3805 97.612 78.4885 96.73C78.3265 96.784 78.2185 96.802 78.0925 96.802C77.4085 96.802 76.9045 96.244 76.9045 95.578C76.9045 94.804 77.4805 94.3 78.2185 94.3C79.2085 94.3 79.7485 95.02 79.7485 96.226ZM87.538 91.618V97H85.72V87.46H87.412V89.044C88.06 87.982 89.14 87.28 90.454 87.28C92.416 87.28 93.712 88.54 93.712 90.826V97H91.894V91.438C91.894 89.8 91.174 88.882 89.824 88.882C88.582 88.882 87.538 89.926 87.538 91.618ZM100.05 97.18C97.2962 97.18 95.4422 95.182 95.4422 92.176C95.4422 89.35 97.3682 87.28 99.9962 87.28C102.84 87.28 104.73 89.584 104.406 92.68H97.2962C97.4402 94.624 98.4122 95.758 100.014 95.758C101.364 95.758 102.3 95.02 102.606 93.778H104.406C103.938 95.902 102.3 97.18 100.05 97.18ZM99.9602 88.648C98.5022 88.648 97.5122 89.692 97.3142 91.474H102.48C102.39 89.71 101.436 88.648 99.9602 88.648ZM109.979 100.672C107.477 100.672 105.857 99.34 105.749 97.18H107.513C107.621 98.512 108.485 99.232 109.961 99.232C111.599 99.232 112.463 98.35 112.463 96.712V94.984C111.923 96.136 110.843 96.802 109.547 96.802C107.171 96.802 105.479 94.84 105.479 92.032C105.479 89.188 107.099 87.28 109.493 87.28C110.861 87.28 111.941 87.946 112.589 89.152V87.46H114.281V96.676C114.281 99.178 112.679 100.672 109.979 100.672ZM107.315 92.032C107.315 94.012 108.287 95.218 109.871 95.218C111.419 95.218 112.463 93.976 112.463 92.086C112.463 90.106 111.437 88.846 109.871 88.846C108.305 88.846 107.315 90.07 107.315 92.032ZM120.794 97.18C118.094 97.18 116.114 95.056 116.114 92.23C116.114 89.404 118.094 87.28 120.794 87.28C123.494 87.28 125.474 89.404 125.474 92.23C125.474 95.056 123.494 97.18 120.794 97.18ZM120.794 95.578C122.36 95.578 123.602 94.318 123.602 92.23C123.602 90.142 122.36 88.9 120.794 88.9C119.228 88.9 118.004 90.142 118.004 92.23C118.004 94.318 119.228 95.578 120.794 95.578ZM132.534 95.236V96.838C131.976 97.09 131.49 97.18 130.914 97.18C129.15 97.18 127.926 96.226 127.926 94.12V89.008H125.82V87.46H127.926V84.634H129.744V87.46H132.624V89.008H129.744V93.706C129.744 95.02 130.374 95.488 131.346 95.488C131.778 95.488 132.156 95.416 132.534 95.236ZM136.573 85.246C136.573 85.93 136.033 86.452 135.259 86.452C134.485 86.452 133.927 85.93 133.927 85.246C133.927 84.544 134.485 84.04 135.259 84.04C136.033 84.04 136.573 84.544 136.573 85.246ZM136.177 97H134.359V87.46H136.177V97ZM144.478 97V95.524C143.884 96.586 142.822 97.18 141.418 97.18C139.438 97.18 138.142 96.046 138.142 94.3C138.142 92.428 139.636 91.456 142.48 91.456C143.038 91.456 143.488 91.474 144.262 91.564V90.862C144.262 89.494 143.524 88.72 142.264 88.72C140.932 88.72 140.122 89.512 140.068 90.844H138.412C138.502 88.702 140.032 87.28 142.264 87.28C144.622 87.28 145.99 88.612 145.99 90.88V97H144.478ZM139.87 94.246C139.87 95.236 140.608 95.884 141.778 95.884C143.308 95.884 144.262 94.93 144.262 93.472V92.698C143.56 92.608 143.056 92.59 142.588 92.59C140.77 92.59 139.87 93.13 139.87 94.246ZM153.715 95.236V96.838C153.157 97.09 152.671 97.18 152.095 97.18C150.331 97.18 149.107 96.226 149.107 94.12V89.008H147.001V87.46H149.107V84.634H150.925V87.46H153.805V89.008H150.925V93.706C150.925 95.02 151.555 95.488 152.527 95.488C152.959 95.488 153.337 95.416 153.715 95.236ZM159.201 97.18C156.447 97.18 154.593 95.182 154.593 92.176C154.593 89.35 156.519 87.28 159.147 87.28C161.991 87.28 163.881 89.584 163.557 92.68H156.447C156.591 94.624 157.563 95.758 159.165 95.758C160.515 95.758 161.451 95.02 161.757 93.778H163.557C163.089 95.902 161.451 97.18 159.201 97.18ZM159.111 88.648C157.653 88.648 156.663 89.692 156.465 91.474H161.631C161.541 89.71 160.587 88.648 159.111 88.648ZM171.933 97H170.115V89.008H168.009V87.46H170.115V86.758C170.115 84.922 171.105 83.914 172.905 83.914C173.445 83.914 173.877 84.004 174.237 84.148V85.624C173.949 85.498 173.625 85.462 173.301 85.462C172.437 85.462 171.933 85.858 171.933 86.776V87.46H174.597V89.008H171.933V97ZM179.716 97.18C177.016 97.18 175.036 95.056 175.036 92.23C175.036 89.404 177.016 87.28 179.716 87.28C182.416 87.28 184.396 89.404 184.396 92.23C184.396 95.056 182.416 97.18 179.716 97.18ZM179.716 95.578C181.282 95.578 182.524 94.318 182.524 92.23C182.524 90.142 181.282 88.9 179.716 88.9C178.15 88.9 176.926 90.142 176.926 92.23C176.926 94.318 178.15 95.578 179.716 95.578ZM188.067 92.122V97H186.249V87.46H187.941V89.476C188.607 88.162 190.047 87.334 191.613 87.334V89.224C189.561 89.116 188.067 90.016 188.067 92.122ZM202.772 93.076V87.46H204.59V97H202.898V95.488C202.394 96.478 201.278 97.18 199.982 97.18C198.056 97.18 196.724 96.046 196.724 93.598V87.46H198.542V93.238C198.542 94.894 199.37 95.578 200.558 95.578C201.782 95.578 202.772 94.57 202.772 93.076ZM216.222 92.23C216.222 95.11 214.566 97.18 212.01 97.18C210.714 97.18 209.616 96.532 208.932 95.38V100.474H207.114V87.46H208.806V89.206C209.49 87.982 210.66 87.28 212.01 87.28C214.548 87.28 216.222 89.35 216.222 92.23ZM214.332 92.23C214.332 90.088 213.198 88.882 211.632 88.882C210.12 88.882 208.932 90.088 208.932 92.23C208.932 94.336 210.102 95.56 211.632 95.56C213.198 95.56 214.332 94.372 214.332 92.23ZM227.209 95.236V96.838C226.651 97.09 226.165 97.18 225.589 97.18C223.825 97.18 222.601 96.226 222.601 94.12V89.008H220.495V87.46H222.601V84.634H224.419V87.46H227.299V89.008H224.419V93.706C224.419 95.02 225.049 95.488 226.021 95.488C226.453 95.488 226.831 95.416 227.209 95.236ZM232.767 97.18C230.067 97.18 228.087 95.056 228.087 92.23C228.087 89.404 230.067 87.28 232.767 87.28C235.467 87.28 237.447 89.404 237.447 92.23C237.447 95.056 235.467 97.18 232.767 97.18ZM232.767 95.578C234.333 95.578 235.575 94.318 235.575 92.23C235.575 90.142 234.333 88.9 232.767 88.9C231.201 88.9 229.977 90.142 229.977 92.23C229.977 94.318 231.201 95.578 232.767 95.578ZM248.84 97V95.524C248.246 96.586 247.184 97.18 245.78 97.18C243.8 97.18 242.504 96.046 242.504 94.3C242.504 92.428 243.998 91.456 246.842 91.456C247.4 91.456 247.85 91.474 248.624 91.564V90.862C248.624 89.494 247.886 88.72 246.626 88.72C245.294 88.72 244.484 89.512 244.43 90.844H242.774C242.864 88.702 244.394 87.28 246.626 87.28C248.984 87.28 250.352 88.612 250.352 90.88V97H248.84ZM244.232 94.246C244.232 95.236 244.97 95.884 246.14 95.884C247.67 95.884 248.624 94.93 248.624 93.472V92.698C247.922 92.608 247.418 92.59 246.95 92.59C245.132 92.59 244.232 93.13 244.232 94.246ZM260.252 97.18C257.876 97.18 256.058 95.632 255.968 93.472H257.786C257.912 94.768 258.902 95.542 260.252 95.542C261.926 95.542 262.754 94.498 262.754 93.112C262.754 91.852 261.854 90.754 260.234 90.754C259.154 90.754 258.344 91.204 257.84 92.086L256.364 91.618L257.444 84.832H263.942V86.452H258.758L258.218 89.962C258.902 89.422 259.676 89.17 260.504 89.17C263.186 89.17 264.644 91.042 264.644 93.112C264.644 95.29 263.078 97.18 260.252 97.18ZM266.151 90.934C266.151 86.902 267.753 84.652 270.633 84.652C273.513 84.652 275.133 86.902 275.133 90.934C275.133 94.966 273.549 97.18 270.633 97.18C267.717 97.18 266.151 94.966 266.151 90.934ZM268.023 90.934C268.023 93.94 268.923 95.542 270.633 95.542C272.343 95.542 273.261 93.958 273.261 90.934C273.261 87.892 272.343 86.29 270.633 86.29C268.959 86.29 268.023 87.892 268.023 90.934ZM280.329 92.284C278.133 92.284 276.549 90.592 276.549 88.504C276.549 86.416 278.133 84.724 280.329 84.724C282.543 84.724 284.127 86.416 284.127 88.504C284.127 90.592 282.543 92.284 280.329 92.284ZM282.921 97H281.427L288.303 84.832H289.797L282.921 97ZM280.329 90.97C281.553 90.97 282.597 90.106 282.597 88.504C282.597 86.884 281.553 86.038 280.329 86.038C279.123 86.038 278.079 86.884 278.079 88.504C278.079 90.106 279.123 90.97 280.329 90.97ZM291.093 97.144C288.879 97.144 287.313 95.47 287.313 93.364C287.313 91.276 288.879 89.584 291.093 89.584C293.307 89.584 294.873 91.276 294.873 93.364C294.873 95.47 293.307 97.144 291.093 97.144ZM291.093 95.83C292.317 95.83 293.343 94.966 293.343 93.364C293.343 91.762 292.317 90.916 291.093 90.916C289.887 90.916 288.825 91.762 288.825 93.364C288.825 94.966 289.887 95.83 291.093 95.83ZM75.6337 121V119.524C75.0397 120.586 73.9777 121.18 72.5737 121.18C70.5937 121.18 69.2977 120.046 69.2977 118.3C69.2977 116.428 70.7917 115.456 73.6357 115.456C74.1937 115.456 74.6437 115.474 75.4177 115.564V114.862C75.4177 113.494 74.6797 112.72 73.4197 112.72C72.0877 112.72 71.2777 113.512 71.2237 114.844H69.5677C69.6577 112.702 71.1877 111.28 73.4197 111.28C75.7777 111.28 77.1457 112.612 77.1457 114.88V121H75.6337ZM71.0257 118.246C71.0257 119.236 71.7637 119.884 72.9337 119.884C74.4637 119.884 75.4177 118.93 75.4177 117.472V116.698C74.7157 116.608 74.2117 116.59 73.7437 116.59C71.9257 116.59 71.0257 117.13 71.0257 118.246ZM83.3384 121.198C80.7284 121.198 78.8924 119.146 78.8924 116.23C78.8924 113.35 80.7644 111.28 83.3384 111.28C85.6964 111.28 87.4064 112.846 87.7484 115.33H85.8404C85.6424 113.8 84.6884 112.882 83.3564 112.882C81.7904 112.882 80.7644 114.214 80.7644 116.23C80.7644 118.264 81.7904 119.578 83.3564 119.578C84.7064 119.578 85.6424 118.678 85.8584 117.13H87.7484C87.4244 119.65 85.7324 121.198 83.3384 121.198ZM93.2525 121.198C90.6425 121.198 88.8065 119.146 88.8065 116.23C88.8065 113.35 90.6785 111.28 93.2525 111.28C95.6105 111.28 97.3205 112.846 97.6625 115.33H95.7545C95.5565 113.8 94.6025 112.882 93.2705 112.882C91.7045 112.882 90.6785 114.214 90.6785 116.23C90.6785 118.264 91.7045 119.578 93.2705 119.578C94.6205 119.578 95.5565 118.678 95.7725 117.13H97.6625C97.3385 119.65 95.6465 121.198 93.2525 121.198ZM103.401 121.18C100.701 121.18 98.7205 119.056 98.7205 116.23C98.7205 113.404 100.701 111.28 103.401 111.28C106.101 111.28 108.081 113.404 108.081 116.23C108.081 119.056 106.101 121.18 103.401 121.18ZM103.401 119.578C104.967 119.578 106.209 118.318 106.209 116.23C106.209 114.142 104.967 112.9 103.401 112.9C101.835 112.9 100.611 114.142 100.611 116.23C100.611 118.318 101.835 119.578 103.401 119.578ZM111.752 121H109.934V111.46H111.626V113.044C112.274 111.946 113.3 111.28 114.614 111.28C116.018 111.28 117.08 112 117.512 113.26C118.178 112.036 119.276 111.28 120.734 111.28C122.696 111.28 123.956 112.558 123.956 114.826V121H122.138V115.402C122.138 113.818 121.436 112.882 120.104 112.882C118.862 112.882 117.854 113.926 117.854 115.528V121H116.036V115.402C116.036 113.818 115.334 112.882 114.002 112.882C112.742 112.882 111.752 113.926 111.752 115.528V121ZM128.205 121H126.387V111.46H128.079V113.044C128.727 111.946 129.753 111.28 131.067 111.28C132.471 111.28 133.533 112 133.965 113.26C134.631 112.036 135.729 111.28 137.187 111.28C139.149 111.28 140.409 112.558 140.409 114.826V121H138.591V115.402C138.591 113.818 137.889 112.882 136.557 112.882C135.315 112.882 134.307 113.926 134.307 115.528V121H132.489V115.402C132.489 113.818 131.787 112.882 130.455 112.882C129.195 112.882 128.205 113.926 128.205 115.528V121ZM146.836 121.18C144.136 121.18 142.156 119.056 142.156 116.23C142.156 113.404 144.136 111.28 146.836 111.28C149.536 111.28 151.516 113.404 151.516 116.23C151.516 119.056 149.536 121.18 146.836 121.18ZM146.836 119.578C148.402 119.578 149.644 118.318 149.644 116.23C149.644 114.142 148.402 112.9 146.836 112.9C145.27 112.9 144.046 114.142 144.046 116.23C144.046 118.318 145.27 119.578 146.836 119.578ZM152.685 116.23C152.685 113.332 154.341 111.28 156.915 111.28C158.193 111.28 159.309 111.928 159.975 113.098V108.076H161.793V121H160.101V119.29C159.417 120.496 158.265 121.18 156.915 121.18C154.341 121.18 152.685 119.092 152.685 116.23ZM154.575 116.23C154.575 118.354 155.691 119.56 157.275 119.56C158.823 119.56 159.975 118.3 159.975 116.194C159.975 114.052 158.787 112.882 157.275 112.882C155.691 112.882 154.575 114.07 154.575 116.23ZM170.099 121V119.524C169.505 120.586 168.443 121.18 167.039 121.18C165.059 121.18 163.763 120.046 163.763 118.3C163.763 116.428 165.257 115.456 168.101 115.456C168.659 115.456 169.109 115.474 169.883 115.564V114.862C169.883 113.494 169.145 112.72 167.885 112.72C166.553 112.72 165.743 113.512 165.689 114.844H164.033C164.123 112.702 165.653 111.28 167.885 111.28C170.243 111.28 171.611 112.612 171.611 114.88V121H170.099ZM165.491 118.246C165.491 119.236 166.229 119.884 167.399 119.884C168.929 119.884 169.883 118.93 169.883 117.472V116.698C169.181 116.608 168.677 116.59 168.209 116.59C166.391 116.59 165.491 117.13 165.491 118.246ZM179.335 119.236V120.838C178.777 121.09 178.291 121.18 177.715 121.18C175.951 121.18 174.727 120.226 174.727 118.12V113.008H172.621V111.46H174.727V108.634H176.545V111.46H179.425V113.008H176.545V117.706C176.545 119.02 177.175 119.488 178.147 119.488C178.579 119.488 178.957 119.416 179.335 119.236ZM183.374 109.246C183.374 109.93 182.834 110.452 182.06 110.452C181.286 110.452 180.728 109.93 180.728 109.246C180.728 108.544 181.286 108.04 182.06 108.04C182.834 108.04 183.374 108.544 183.374 109.246ZM182.978 121H181.16V111.46H182.978V121ZM189.498 121.18C186.798 121.18 184.818 119.056 184.818 116.23C184.818 113.404 186.798 111.28 189.498 111.28C192.198 111.28 194.178 113.404 194.178 116.23C194.178 119.056 192.198 121.18 189.498 121.18ZM189.498 119.578C191.064 119.578 192.306 118.318 192.306 116.23C192.306 114.142 191.064 112.9 189.498 112.9C187.932 112.9 186.708 114.142 186.708 116.23C186.708 118.318 187.932 119.578 189.498 119.578ZM197.849 115.618V121H196.031V111.46H197.723V113.044C198.371 111.982 199.451 111.28 200.765 111.28C202.727 111.28 204.023 112.54 204.023 114.826V121H202.205V115.438C202.205 113.8 201.485 112.882 200.135 112.882C198.893 112.882 197.849 113.926 197.849 115.618ZM218.083 121L215.923 113.908L213.745 121H211.909L209.155 111.46H210.937L212.863 118.408L215.023 111.46H216.823L218.947 118.426L220.873 111.46H222.673L219.901 121H218.083ZM229.636 121V119.524C229.042 120.586 227.98 121.18 226.576 121.18C224.596 121.18 223.3 120.046 223.3 118.3C223.3 116.428 224.794 115.456 227.638 115.456C228.196 115.456 228.646 115.474 229.42 115.564V114.862C229.42 113.494 228.682 112.72 227.422 112.72C226.09 112.72 225.28 113.512 225.226 114.844H223.57C223.66 112.702 225.19 111.28 227.422 111.28C229.78 111.28 231.148 112.612 231.148 114.88V121H229.636ZM225.028 118.246C225.028 119.236 225.766 119.884 226.936 119.884C228.466 119.884 229.42 118.93 229.42 117.472V116.698C228.718 116.608 228.214 116.59 227.746 116.59C225.928 116.59 225.028 117.13 225.028 118.246ZM235.792 109.246C235.792 109.93 235.252 110.452 234.478 110.452C233.704 110.452 233.146 109.93 233.146 109.246C233.146 108.544 233.704 108.04 234.478 108.04C235.252 108.04 235.792 108.544 235.792 109.246ZM235.396 121H233.578V111.46H235.396V121ZM245.84 111.46L242.258 121H240.278L236.696 111.46H238.658L241.304 118.912L243.986 111.46H245.84ZM250.756 121.18C248.002 121.18 246.148 119.182 246.148 116.176C246.148 113.35 248.074 111.28 250.702 111.28C253.546 111.28 255.436 113.584 255.112 116.68H248.002C248.146 118.624 249.118 119.758 250.72 119.758C252.07 119.758 253.006 119.02 253.312 117.778H255.112C254.644 119.902 253.006 121.18 250.756 121.18ZM250.666 112.648C249.208 112.648 248.218 113.692 248.02 115.474H253.186C253.096 113.71 252.142 112.648 250.666 112.648ZM258.863 116.122V121H257.045V111.46H258.737V113.476C259.403 112.162 260.843 111.334 262.409 111.334V113.224C260.357 113.116 258.863 114.016 258.863 116.122ZM265.684 117.454H264.298L263.866 108.076H266.116L265.684 117.454ZM266.422 119.74C266.422 120.514 265.81 121.09 265 121.09C264.19 121.09 263.578 120.514 263.578 119.74C263.578 118.93 264.19 118.354 265 118.354C265.828 118.354 266.422 118.93 266.422 119.74Z" fill="black"/>
<defs>
<filter id="filter0_d_2830_1006" x="-4" y="0" width="358" height="188" filterUnits="userSpaceOnUse" color-interpolation-filters="sRGB">
<feFlood flood-opacity="0" result="BackgroundImageFix"/>
<feColorMatrix in="SourceAlpha" type="matrix" values="0 0 0 0 0 0 0 0 0 0 0 0 0 0 0 0 0 0 127 0" result="hardAlpha"/>
<feOffset dy="4"/>
<feGaussianBlur stdDeviation="2"/>
<feComposite in2="hardAlpha" operator="out"/>
<feColorMatrix type="matrix" values="0 0 0 0 0 0 0 0 0 0 0 0 0 0 0 0 0 0 0.25 0"/>
<feBlend mode="normal" in2="BackgroundImageFix" result="effect1_dropShadow_2830_1006"/>
<feBlend mode="normal" in="SourceGraphic" in2="effect1_dropShadow_2830_1006" result="shape"/>
</filter>
</defs>
</svg>
