<svg width="350" height="180" viewBox="0 0 350 180" fill="none" xmlns="http://www.w3.org/2000/svg">
<mask id="mask0_2829_968" style="mask-type:alpha" maskUnits="userSpaceOnUse" x="0" y="0" width="350" height="180">
<rect width="350" height="180" rx="15" fill="#BFA100"/>
</mask>
<g mask="url(#mask0_2829_968)">
<g filter="url(#filter0_d_2829_968)">
<rect width="350" height="180" rx="15" fill="#909090"/>
<rect x="0.5" y="0.5" width="349" height="179" rx="14.5" stroke="black"/>
</g>
<rect x="0.5" y="0.5" width="334.472" height="150.667" rx="12.5" fill="#C0C0C0" stroke="black"/>
<path d="M27.9421 -14.9542L27.8548 -14.8822L27.8109 -14.7676L-23.8951 120.285L-23.1737 120.993L-4.80073 105.88L-4.71366 105.808L-4.66965 105.694L47.7144 -29.9535L46.9931 -30.6625L27.9421 -14.9542Z" fill="white" stroke="black"/>
</g>
<path d="M92.25 63.986C92.25 66.452 90.27 68.18 87.03 68.18C83.772 68.18 81.738 66.434 81.54 63.698H84.312C84.384 65.12 85.302 66.038 86.976 66.038C88.362 66.038 89.352 65.426 89.352 64.382C89.352 63.572 88.722 63.086 87.624 62.87L85.5 62.456C83.538 62.078 82.026 61.016 82.026 58.874C82.026 56.57 84.06 54.914 86.85 54.914C89.748 54.914 91.872 56.606 92.052 59.306H89.28C89.19 57.956 88.254 57.038 86.886 57.038C85.554 57.038 84.798 57.794 84.798 58.694C84.798 59.576 85.608 59.954 86.544 60.134L88.758 60.584C91.026 61.034 92.25 62.078 92.25 63.986ZM96.9495 56.156C96.9495 57.002 96.2655 57.632 95.2755 57.632C94.3035 57.632 93.6195 57.002 93.6195 56.156C93.6195 55.274 94.3035 54.644 95.2755 54.644C96.2655 54.644 96.9495 55.274 96.9495 56.156ZM96.5535 68H94.0515V58.388H96.5535V68ZM101.3 68H98.7801V55.076H101.3V68ZM112.202 58.388L108.674 68H105.938L102.392 58.388H105.092L107.378 65.156L109.682 58.388H112.202ZM117.142 68.162C114.262 68.162 112.336 66.164 112.336 63.158C112.336 60.296 114.334 58.208 117.106 58.208C120.148 58.208 122.164 60.674 121.714 63.806H114.892C115.054 65.372 115.81 66.236 117.088 66.236C118.186 66.236 118.924 65.696 119.212 64.742H121.696C121.156 66.92 119.482 68.162 117.142 68.162ZM117.052 60.044C115.882 60.044 115.144 60.8 114.928 62.222H119.068C118.996 60.89 118.24 60.044 117.052 60.044ZM125.891 63.338V68H123.389V58.388H125.693V60.242C126.395 59.018 127.889 58.28 129.437 58.28V60.872C127.313 60.71 125.891 61.214 125.891 63.338ZM139.089 71.474H136.587C135.111 69.224 134.301 66.254 134.301 63.266C134.301 60.296 135.111 57.326 136.587 55.076H139.089C137.595 57.326 136.875 60.296 136.875 63.266C136.875 66.254 137.595 69.224 139.089 71.474ZM148.473 65.768V68H139.977V66.578L143.667 62.798C145.071 61.358 145.665 60.602 145.665 59.54C145.665 58.55 144.999 57.884 143.937 57.884C142.767 57.884 142.047 58.622 142.047 59.81H139.617C139.617 57.38 141.453 55.652 144.063 55.652C146.493 55.652 148.275 57.182 148.275 59.234C148.275 60.71 147.735 61.646 145.611 63.788L143.775 65.768H148.473ZM154.316 68.18C151.724 68.18 149.762 66.56 149.69 64.292H152.192C152.336 65.354 153.164 65.948 154.298 65.948C155.774 65.948 156.332 65.012 156.332 64.022C156.332 63.068 155.702 62.096 154.226 62.096C153.254 62.096 152.534 62.492 152.156 63.32L150.104 62.654L151.166 55.832H158.204V58.064H152.984L152.606 60.548C153.218 60.152 153.92 59.972 154.64 59.972C157.538 59.972 158.924 61.97 158.924 64.022C158.924 66.11 157.376 68.18 154.316 68.18ZM166.544 66.272H164.204V62.942H160.874V60.782H164.204V57.452H166.544V60.782H169.874V62.942H166.544V66.272ZM178.696 63.338V68H176.194V58.388H178.498V60.242C179.2 59.018 180.694 58.28 182.242 58.28V60.872C180.118 60.71 178.696 61.214 178.696 63.338ZM187.647 68.162C184.767 68.162 182.841 66.164 182.841 63.158C182.841 60.296 184.839 58.208 187.611 58.208C190.653 58.208 192.669 60.674 192.219 63.806H185.397C185.559 65.372 186.315 66.236 187.593 66.236C188.691 66.236 189.429 65.696 189.717 64.742H192.201C191.661 66.92 189.987 68.162 187.647 68.162ZM187.557 60.044C186.387 60.044 185.649 60.8 185.433 62.222H189.573C189.501 60.89 188.745 60.044 187.557 60.044ZM197.227 68H194.743V60.53H192.799V58.388H194.743V57.866C194.743 55.958 195.769 54.878 197.767 54.878C198.379 54.878 198.901 54.986 199.315 55.166V57.146C199.045 57.038 198.685 56.984 198.361 56.984C197.677 56.984 197.227 57.254 197.227 57.92V58.388H199.729V60.53H197.227V68ZM204.927 68.162C202.047 68.162 200.121 66.164 200.121 63.158C200.121 60.296 202.119 58.208 204.891 58.208C207.933 58.208 209.949 60.674 209.499 63.806H202.677C202.839 65.372 203.595 66.236 204.873 66.236C205.971 66.236 206.709 65.696 206.997 64.742H209.481C208.941 66.92 207.267 68.162 204.927 68.162ZM204.837 60.044C203.667 60.044 202.929 60.8 202.713 62.222H206.853C206.781 60.89 206.025 60.044 204.837 60.044ZM213.677 63.338V68H211.175V58.388H213.479V60.242C214.181 59.018 215.675 58.28 217.223 58.28V60.872C215.099 60.71 213.677 61.214 213.677 63.338ZM221.024 63.338V68H218.522V58.388H220.826V60.242C221.528 59.018 223.022 58.28 224.57 58.28V60.872C222.446 60.71 221.024 61.214 221.024 63.338ZM231.594 68V66.812C230.964 67.712 230.01 68.18 228.696 68.18C226.698 68.18 225.366 67.01 225.366 65.21C225.366 63.338 226.878 62.33 229.686 62.33C230.226 62.33 230.694 62.366 231.288 62.438V61.862C231.288 60.782 230.676 60.152 229.632 60.152C228.552 60.152 227.904 60.782 227.814 61.862H225.564C225.708 59.648 227.31 58.208 229.632 58.208C232.152 58.208 233.628 59.594 233.628 61.952V68H231.594ZM227.724 65.138C227.724 65.948 228.3 66.452 229.236 66.452C230.514 66.452 231.288 65.75 231.288 64.634V63.95C230.694 63.86 230.28 63.824 229.848 63.824C228.426 63.824 227.724 64.274 227.724 65.138ZM238.304 68H235.784V55.076H238.304V68ZM248.666 64.922C248.666 66.938 247.136 68.18 244.4 68.18C241.664 68.18 240.134 66.866 239.936 64.724H242.33C242.348 65.714 243.194 66.344 244.436 66.344C245.408 66.344 246.146 66.038 246.146 65.354C246.146 64.742 245.75 64.49 244.832 64.31L243.104 63.986C241.376 63.68 240.332 62.726 240.332 61.232C240.332 59.45 241.862 58.208 244.256 58.208C246.668 58.208 248.324 59.486 248.504 61.556H246.11C246.02 60.62 245.318 60.044 244.256 60.044C243.338 60.044 242.726 60.386 242.726 60.998C242.726 61.574 243.122 61.808 243.986 61.97L245.84 62.312C247.712 62.672 248.666 63.536 248.666 64.922ZM251.778 71.474H249.294C250.77 69.224 251.49 66.254 251.49 63.266C251.49 60.296 250.77 57.326 249.294 55.076H251.778C253.254 57.326 254.064 60.296 254.064 63.266C254.064 66.254 253.254 69.224 251.778 71.474Z" fill="black"/>
<path d="M86.7218 97.27C82.9958 97.27 80.1158 94.444 80.1158 90.52C80.1158 86.704 82.8518 83.806 86.6138 83.806C89.9438 83.806 92.1938 85.84 92.9858 88.522H90.6818C90.1958 86.866 88.7738 85.588 86.5598 85.588C84.0038 85.588 82.1678 87.514 82.1678 90.556C82.1678 93.418 83.9138 95.578 86.7938 95.578C89.1878 95.578 90.6998 94.102 91.0598 91.888H86.5958V90.304H93.1478C93.2198 94.444 90.6818 97.27 86.7218 97.27ZM98.9955 97.18C96.2415 97.18 94.3875 95.182 94.3875 92.176C94.3875 89.35 96.3135 87.28 98.9415 87.28C101.786 87.28 103.676 89.584 103.352 92.68H96.2415C96.3855 94.624 97.3575 95.758 98.9595 95.758C100.31 95.758 101.246 95.02 101.552 93.778H103.352C102.884 95.902 101.246 97.18 98.9955 97.18ZM98.9055 88.648C97.4475 88.648 96.4575 89.692 96.2595 91.474H101.426C101.336 89.71 100.382 88.648 98.9055 88.648ZM110.631 95.236V96.838C110.073 97.09 109.587 97.18 109.011 97.18C107.247 97.18 106.023 96.226 106.023 94.12V89.008H103.917V87.46H106.023V84.634H107.841V87.46H110.721V89.008H107.841V93.706C107.841 95.02 108.471 95.488 109.443 95.488C109.875 95.488 110.253 95.416 110.631 95.236ZM121.996 97V95.524C121.402 96.586 120.34 97.18 118.936 97.18C116.956 97.18 115.66 96.046 115.66 94.3C115.66 92.428 117.154 91.456 119.998 91.456C120.556 91.456 121.006 91.474 121.78 91.564V90.862C121.78 89.494 121.042 88.72 119.782 88.72C118.45 88.72 117.64 89.512 117.586 90.844H115.93C116.02 88.702 117.55 87.28 119.782 87.28C122.14 87.28 123.508 88.612 123.508 90.88V97H121.996ZM117.388 94.246C117.388 95.236 118.126 95.884 119.296 95.884C120.826 95.884 121.78 94.93 121.78 93.472V92.698C121.078 92.608 120.574 92.59 120.106 92.59C118.288 92.59 117.388 93.13 117.388 94.246ZM133.552 97.162C131.032 97.162 129.268 95.686 129.25 93.544H131.032C131.104 94.858 132.076 95.704 133.552 95.704C135.082 95.704 136.018 94.876 136.018 93.562C136.018 92.284 134.956 91.474 133.282 91.474H132.022V90.016H133.192C134.56 90.016 135.46 89.224 135.46 88.036C135.46 86.884 134.65 86.11 133.426 86.11C132.184 86.11 131.356 86.902 131.302 88.144H129.538C129.592 86.146 131.284 84.652 133.498 84.652C135.838 84.652 137.35 86.002 137.35 87.91C137.35 89.098 136.648 90.052 135.388 90.646C136.99 91.078 137.908 92.122 137.908 93.526C137.908 95.686 136.144 97.162 133.552 97.162ZM144.912 92.86H139.314V91.222H144.912V92.86ZM150.336 97.18C147.96 97.18 146.142 95.632 146.052 93.472H147.87C147.996 94.768 148.986 95.542 150.336 95.542C152.01 95.542 152.838 94.498 152.838 93.112C152.838 91.852 151.938 90.754 150.318 90.754C149.238 90.754 148.428 91.204 147.924 92.086L146.448 91.618L147.528 84.832H154.026V86.452H148.842L148.302 89.962C148.986 89.422 149.76 89.17 150.588 89.17C153.27 89.17 154.728 91.042 154.728 93.112C154.728 95.29 153.162 97.18 150.336 97.18ZM159.673 92.284C157.477 92.284 155.893 90.592 155.893 88.504C155.893 86.416 157.477 84.724 159.673 84.724C161.887 84.724 163.471 86.416 163.471 88.504C163.471 90.592 161.887 92.284 159.673 92.284ZM162.265 97H160.771L167.647 84.832H169.141L162.265 97ZM159.673 90.97C160.897 90.97 161.941 90.106 161.941 88.504C161.941 86.884 160.897 86.038 159.673 86.038C158.467 86.038 157.423 86.884 157.423 88.504C157.423 90.106 158.467 90.97 159.673 90.97ZM170.437 97.144C168.223 97.144 166.657 95.47 166.657 93.364C166.657 91.276 168.223 89.584 170.437 89.584C172.651 89.584 174.217 91.276 174.217 93.364C174.217 95.47 172.651 97.144 170.437 97.144ZM170.437 95.83C171.661 95.83 172.687 94.966 172.687 93.364C172.687 91.762 171.661 90.916 170.437 90.916C169.231 90.916 168.169 91.762 168.169 93.364C168.169 94.966 169.231 95.83 170.437 95.83ZM179.097 92.23C179.097 89.332 180.753 87.28 183.327 87.28C184.605 87.28 185.721 87.928 186.387 89.098V84.076H188.205V97H186.513V95.29C185.829 96.496 184.677 97.18 183.327 97.18C180.753 97.18 179.097 95.092 179.097 92.23ZM180.987 92.23C180.987 94.354 182.103 95.56 183.687 95.56C185.235 95.56 186.387 94.3 186.387 92.194C186.387 90.052 185.199 88.882 183.687 88.882C182.103 88.882 180.987 90.07 180.987 92.23ZM192.946 85.246C192.946 85.93 192.406 86.452 191.632 86.452C190.858 86.452 190.3 85.93 190.3 85.246C190.3 84.544 190.858 84.04 191.632 84.04C192.406 84.04 192.946 84.544 192.946 85.246ZM192.55 97H190.732V87.46H192.55V97ZM202.633 94.156C202.633 96.028 201.175 97.18 198.637 97.18C196.117 97.18 194.623 95.938 194.443 93.886H196.189C196.261 95.074 197.215 95.812 198.673 95.812C199.951 95.812 200.797 95.362 200.797 94.462C200.797 93.67 200.311 93.328 199.123 93.094L197.575 92.806C195.811 92.464 194.821 91.564 194.821 90.124C194.821 88.45 196.279 87.28 198.493 87.28C200.779 87.28 202.327 88.504 202.489 90.466H200.743C200.635 89.314 199.789 88.648 198.511 88.648C197.359 88.648 196.585 89.134 196.585 89.962C196.585 90.736 197.071 91.096 198.223 91.312L199.843 91.618C201.733 91.96 202.633 92.788 202.633 94.156ZM208.38 97.198C205.77 97.198 203.934 95.146 203.934 92.23C203.934 89.35 205.806 87.28 208.38 87.28C210.738 87.28 212.448 88.846 212.79 91.33H210.882C210.684 89.8 209.73 88.882 208.398 88.882C206.832 88.882 205.806 90.214 205.806 92.23C205.806 94.264 206.832 95.578 208.398 95.578C209.748 95.578 210.684 94.678 210.9 93.13H212.79C212.466 95.65 210.774 97.198 208.38 97.198ZM218.528 97.18C215.828 97.18 213.848 95.056 213.848 92.23C213.848 89.404 215.828 87.28 218.528 87.28C221.228 87.28 223.208 89.404 223.208 92.23C223.208 95.056 221.228 97.18 218.528 97.18ZM218.528 95.578C220.094 95.578 221.336 94.318 221.336 92.23C221.336 90.142 220.094 88.9 218.528 88.9C216.962 88.9 215.738 90.142 215.738 92.23C215.738 94.318 216.962 95.578 218.528 95.578ZM231.02 93.076V87.46H232.838V97H231.146V95.488C230.642 96.478 229.526 97.18 228.23 97.18C226.304 97.18 224.972 96.046 224.972 93.598V87.46H226.79V93.238C226.79 94.894 227.618 95.578 228.806 95.578C230.03 95.578 231.02 94.57 231.02 93.076ZM237.181 91.618V97H235.363V87.46H237.055V89.044C237.703 87.982 238.783 87.28 240.097 87.28C242.059 87.28 243.355 88.54 243.355 90.826V97H241.537V91.438C241.537 89.8 240.817 88.882 239.467 88.882C238.225 88.882 237.181 89.926 237.181 91.618ZM251.116 95.236V96.838C250.558 97.09 250.072 97.18 249.496 97.18C247.732 97.18 246.508 96.226 246.508 94.12V89.008H244.402V87.46H246.508V84.634H248.326V87.46H251.206V89.008H248.326V93.706C248.326 95.02 248.956 95.488 249.928 95.488C250.36 95.488 250.738 95.416 251.116 95.236ZM255.582 95.704C255.582 96.514 255.024 97.09 254.196 97.09C253.386 97.09 252.81 96.514 252.81 95.704C252.81 94.858 253.386 94.282 254.196 94.282C255.024 94.282 255.582 94.858 255.582 95.704Z" fill="black"/>
<defs>
<filter id="filter0_d_2829_968" x="-4" y="0" width="358" height="188" filterUnits="userSpaceOnUse" color-interpolation-filters="sRGB">
<feFlood flood-opacity="0" result="BackgroundImageFix"/>
<feColorMatrix in="SourceAlpha" type="matrix" values="0 0 0 0 0 0 0 0 0 0 0 0 0 0 0 0 0 0 127 0" result="hardAlpha"/>
<feOffset dy="4"/>
<feGaussianBlur stdDeviation="2"/>
<feComposite in2="hardAlpha" operator="out"/>
<feColorMatrix type="matrix" values="0 0 0 0 0 0 0 0 0 0 0 0 0 0 0 0 0 0 0.25 0"/>
<feBlend mode="normal" in2="BackgroundImageFix" result="effect1_dropShadow_2829_968"/>
<feBlend mode="normal" in="SourceGraphic" in2="effect1_dropShadow_2829_968" result="shape"/>
</filter>
</defs>
</svg>
